<?xml version="1.0" encoding="UTF-8"?>
<svg width="48px" height="48px" viewBox="0 0 48 48" version="1.1" xmlns="http://www.w3.org/2000/svg" xmlns:xlink="http://www.w3.org/1999/xlink">
    <title>API 1</title>
    <g id="V2-Icons" stroke="none" stroke-width="1" fill="none" fill-rule="evenodd">
        <g id="IBM/Cloud/Actors" transform="translate(-50, -82)">
            <g id="API-1" transform="translate(50, 82)">
                <rect id="Rectangle-Copy-6" fill="#A56EFF" x="0" y="0" width="48" height="48" rx="24"></rect>
                <g id="api(2)" transform="translate(12, 12)">
                    <path d="M19.5,16.5 C18.9703058,16.5025884 18.4514742,16.6504554 18,16.9275 L15.6825,14.6025 C16.7876966,13.0435028 16.7876966,10.9564972 15.6825,9.3975 L18,7.0725 C18.4514742,7.34954463 18.9703058,7.49741162 19.5,7.5 C21.1568542,7.5 22.5,6.15685425 22.5,4.5 C22.5,2.84314575 21.1568542,1.5 19.5,1.5 C17.8431458,1.5 16.5,2.84314575 16.5,4.5 C16.5025884,5.02969424 16.6504554,5.54852579 16.9275,6 L14.6025,8.3175 C13.0435028,7.21230337 10.9564972,7.21230337 9.3975,8.3175 L7.0725,6 C7.34954463,5.54852579 7.49741162,5.02969424 7.5,4.5 C7.5,2.84314575 6.15685425,1.5 4.5,1.5 C2.84314575,1.5 1.5,2.84314575 1.5,4.5 C1.5,6.15685425 2.84314575,7.5 4.5,7.5 C5.02969424,7.49741162 5.54852579,7.34954463 6,7.0725 L8.3175,9.3975 C7.21230337,10.9564972 7.21230337,13.0435028 8.3175,14.6025 L6,16.9275 C5.54852579,16.6504554 5.02969424,16.5025884 4.5,16.5 C2.84314575,16.5 1.5,17.8431458 1.5,19.5 C1.5,21.1568542 2.84314575,22.5 4.5,22.5 C6.15685425,22.5 7.5,21.1568542 7.5,19.5 C7.49741162,18.9703058 7.34954463,18.4514742 7.0725,18 L9.3975,15.6825 C10.9564972,16.7876966 13.0435028,16.7876966 14.6025,15.6825 L16.9275,18 C16.6504554,18.4514742 16.5025884,18.9703058 16.5,19.5 C16.5,21.1568542 17.8431458,22.5 19.5,22.5 C21.1568542,22.5 22.5,21.1568542 22.5,19.5 C22.5,17.8431458 21.1568542,16.5 19.5,16.5 L19.5,16.5 Z M19.5,3 C20.3284271,3 21,3.67157288 21,4.5 C21,5.32842712 20.3284271,6 19.5,6 C18.6715729,6 18,5.32842712 18,4.5 C18,3.67157288 18.6715729,3 19.5,3 Z M3,4.5 C3,3.67157288 3.67157288,3 4.5,3 C5.32842712,3 6,3.67157288 6,4.5 C6,5.32842712 5.32842712,6 4.5,6 C4.10217527,6 3.7206444,5.84196474 3.43933983,5.56066017 C3.15803526,5.2793556 3,4.89782473 3,4.5 Z M4.5,21 C3.67157288,21 3,20.3284271 3,19.5 C3,18.6715729 3.67157288,18 4.5,18 C5.32842712,18 6,18.6715729 6,19.5 C6,20.3284271 5.32842712,21 4.5,21 Z M12,15 C10.3431458,15 9,13.6568542 9,12 C9,10.3431458 10.3431458,9 12,9 C13.6568542,9 15,10.3431458 15,12 C15,12.7956495 14.6839295,13.5587112 14.1213203,14.1213203 C13.5587112,14.6839295 12.7956495,15 12,15 Z M19.5,21 C18.6715729,21 18,20.3284271 18,19.5 C18,18.6715729 18.6715729,18 19.5,18 C20.3284271,18 21,18.6715729 21,19.5 C21,20.3284271 20.3284271,21 19.5,21 Z" id="Shape" fill="#FFFFFF" fill-rule="nonzero"></path>
                    <rect id="Rectangle" x="0" y="0" width="24" height="24"></rect>
                </g>
            </g>
        </g>
    </g>
</svg>