<?xml version="1.0" encoding="UTF-8"?>
<svg width="67px" height="67px" viewBox="0 0 67 67" version="1.1" xmlns="http://www.w3.org/2000/svg" xmlns:xlink="http://www.w3.org/1999/xlink">
    <!-- Generator: Sketch 53 (72520) - https://sketchapp.com -->
    <title>Group 68</title>
    <desc>Created with Sketch.</desc>
    <g id="Page-1" stroke="none" stroke-width="1" fill="none" fill-rule="evenodd">
        <g id="Artboard" transform="translate(-42.000000, -1120.000000)">
            <g id="Group-68" transform="translate(42.500000, 1120.749750)">
                <g id="Group-2" fill="#C3962C">
                    <g id="Group-3">
                        <path d="M33,-0.0002 C51.226,-0.0002 66,14.7748 66,32.9998 C66,51.2258 51.226,65.9998 33,65.9998 C14.774,65.9998 0,51.2258 0,32.9998 C0,14.7748 14.774,-0.0002 33,-0.0002" id="Fill-1"></path>
                    </g>
                </g>
                <path d="M44.7999489,41.2535884 L21.4256702,41.0899889 C18.1981888,41.067133 15.5637557,43.6582604 15.5408999,46.8761183 L15.5,52.7055534 L50.5608166,52.9509527 L50.6017165,47.1227205 C50.6245723,43.9036597 48.0274303,41.2764442 44.7999489,41.2535884" id="Fill-4" fill="#FEFEFE"></path>
                <path d="M33.0513394,7.36214726 C25.8698025,7.36214726 20.0259321,13.1891766 20.0259321,20.3526694 C20.0259321,27.5149594 25.8698025,33.3431916 33.0513394,33.3431916 C40.2328764,33.3431916 46.0755438,27.5149594 46.0755438,20.3526694 C46.0755438,13.1891766 40.2328764,7.36214726 33.0513394,7.36214726" id="Path" stroke="#FFFFFF" stroke-width="2"></path>
            </g>
        </g>
    </g>
</svg>