<?xml version="1.0" encoding="UTF-8"?>
<svg width="48px" height="48px" viewBox="0 0 48 48" version="1.1" xmlns="http://www.w3.org/2000/svg" xmlns:xlink="http://www.w3.org/1999/xlink">
    <title>PreProd Environment</title>
    <defs>
        <polygon id="path-1" points="0 0 9 0 9 9 0 9"></polygon>
        <polygon id="path-3" points="0 0 20 0 20 20 0 20"></polygon>
        <polygon id="path-5" points="0 0 9 0 9 9 0 9"></polygon>
    </defs>
    <g id="V2-Icons" stroke="none" stroke-width="1" fill="none" fill-rule="evenodd">
        <g id="IBM-Cloud/-Devops" transform="translate(-388, -49)">
            <g id="PreProd-Environment" transform="translate(388, 49)">
                <rect id="Rectangle-Copy-37" fill="#EE5396" x="0" y="0" width="48" height="48"></rect>
                <g id="Group-10" transform="translate(14, 14)">
                    <g id="Group-3" transform="translate(0, 12)">
                        <mask id="mask-2" fill="white">
                            <use xlink:href="#path-1"></use>
                        </mask>
                        <g id="Clip-2"></g>
                        <path d="M2.95785063,7.21487787 L1.78506285,6.04209973 L3.69731329,4.12986501 L4.87010106,5.30264315 L2.95785063,7.21487787 Z M5.85210747,4.19345827 L8.99999964,1.04559161 L7.9543998,0 L4.80650727,3.14786667 L4.22011338,2.5614776 C3.93172295,2.27308953 3.46364309,2.27235008 3.17525265,2.56073814 L3.17451319,2.5614776 L0.216662559,5.51930392 C-0.0717278777,5.80769199 -0.0724673404,6.27576801 0.215923096,6.56415607 C0.216662559,6.56489553 0.216662559,6.56489553 0.216662559,6.56489553 L2.43505053,8.78326528 C2.72344097,9.0723928 3.19152083,9.0723928 3.48065073,8.78400473 C3.48065073,8.78326528 3.48065073,8.78326528 3.48065073,8.78326528 L6.43850136,5.82543895 C6.72689179,5.53705088 6.72763125,5.06897487 6.43924082,4.7805868 C6.43850136,4.7805868 6.43850136,4.77984734 6.43850136,4.77984734 L5.85210747,4.19345827 Z" id="Fill-1" fill="#FFFFFF" mask="url(#mask-2)"></path>
                    </g>
                    <g id="Group-6" transform="translate(1, 0)">
                        <mask id="mask-4" fill="white">
                            <use xlink:href="#path-3"></use>
                        </mask>
                        <g id="Clip-5"></g>
                        <path d="M5.75920623,6.76945447 L13.2312034,14.2410986 L13.0604924,14.6767839 C12.4776467,16.132401 13.1862043,17.7851478 14.6426045,18.3672518 C14.9275989,18.4815299 15.2290216,18.5486683 15.5361585,18.56581 L14.9133135,17.9437087 C14.0769012,17.1073359 14.0769012,15.7509979 14.9133135,14.9139109 L14.9133135,14.9131966 C15.7618683,14.1039649 17.096128,14.1039649 17.9439687,14.9139109 L18.5660994,15.5360122 C18.4768154,13.9696882 17.135413,12.7726252 15.569015,12.861905 C15.2625924,12.8790467 14.9611697,12.9461851 14.6761752,13.0604632 L14.2411837,13.2304518 L6.76990081,5.75952187 L6.94061177,5.3245509 C7.52274327,3.86821953 6.81489993,2.21618693 5.35849976,1.63336869 C5.07350531,1.51980484 4.77136835,1.45266647 4.46494575,1.43552475 L5.08707648,2.05762609 C5.92348874,2.89399884 5.92420301,4.25033688 5.08707648,5.08670963 C5.08707648,5.08670963 5.08707648,5.08742387 5.08707648,5.08742387 C4.23852159,5.89665558 2.90426189,5.89665558 2.05642128,5.08742387 L1.43429055,4.46532254 C1.52357453,6.03093233 2.86426267,7.22799529 4.42994643,7.13871554 C4.73636903,7.12157382 5.038506,7.05443545 5.32421471,6.94015736 L5.75920623,6.76945447 Z M15.7147264,20 C13.348344,19.997143 11.4312385,18.0801281 11.4283814,15.7145717 C11.4290957,15.3410252 11.479809,14.9696215 11.5790928,14.6096455 L5.39064199,8.42148706 C5.03064901,8.52076615 4.65922768,8.57147705 4.28566353,8.57219129 C1.92856663,8.58147639 0.0100326101,6.67874624 4.20996571e-13,4.32104645 C-0.00211001034,3.77536859 0.100745127,3.23397615 0.302169771,2.72686714 L0.700733429,1.71122064 L3.06640159,4.07749128 C3.34925322,4.34675902 3.79424454,4.34675902 4.0763819,4.07749128 C4.35566217,3.79893844 4.35566217,3.34682576 4.07709617,3.06827292 C4.07709617,3.06755868 4.0763819,3.06755868 4.0763819,3.06755868 L1.70999947,0.700573805 L2.72640822,0.302743214 C4.91779406,-0.567912962 7.39988853,0.503444104 8.27058584,2.69472642 C8.47129621,3.2011212 8.57343707,3.7417994 8.57200853,4.28676303 C8.57129426,4.65959528 8.52058096,5.03171331 8.42129718,5.39168928 L14.609748,11.5791335 C14.9697409,11.4798544 15.3411623,11.4291435 15.7147264,11.4291435 C18.0718233,11.4191441 19.9903573,13.3218743 20.0003899,15.6795741 C20.0025,16.2252519 19.8996448,16.7666444 19.6982202,17.2737534 L19.3003708,18.2893999 L16.9339884,15.9238435 C16.6511367,15.6538615 16.2061454,15.6538615 15.924008,15.9238435 C15.6447278,16.2016821 15.6447278,16.6537948 15.9225795,16.9330618 C15.9232938,16.9330618 15.9232938,16.9330618 15.9232938,16.9337761 L18.2896762,19.3000467 L17.2739817,19.6985915 C16.7775628,19.8957212 16.2482874,19.9978573 15.7147264,20 L15.7147264,20 Z" id="Fill-4" fill="#FFFFFF" mask="url(#mask-4)"></path>
                    </g>
                    <g id="Group-9" transform="translate(12, 0)">
                        <mask id="mask-6" fill="white">
                            <use xlink:href="#path-5"></use>
                        </mask>
                        <g id="Clip-8"></g>
                        <path d="M8.37330561,0.608279811 C7.52547538,-0.202759937 6.19123202,-0.202759937 5.3434018,0.608279811 L0,5.96271699 L1.00996794,6.97490605 L6.35265547,1.62046887 C6.63550363,1.34988368 7.08048951,1.34988368 7.36333767,1.62046887 C7.64118599,1.90035991 7.64118599,2.3527669 7.36333767,2.63337376 L2.02065014,7.98781094 L3.03061808,9 L8.37330561,3.64556282 C9.20899337,2.80660556 9.20899337,1.44723708 8.37330561,0.608279811" id="Fill-7" fill="#FFFFFF" mask="url(#mask-6)"></path>
                    </g>
                </g>
            </g>
        </g>
    </g>
</svg>