<?xml version="1.0" encoding="UTF-8"?>
<svg width="48px" height="48px" viewBox="0 0 48 48" version="1.1" xmlns="http://www.w3.org/2000/svg" xmlns:xlink="http://www.w3.org/1999/xlink">
    <title>Prod Environment</title>
    <g id="V2-Icons" stroke="none" stroke-width="1" fill="none" fill-rule="evenodd">
        <g id="IBM-Cloud/-Devops" transform="translate(-256, -49)">
            <g id="Prod-Environment" transform="translate(256, 49)">
                <rect id="Rectangle-Copy-42" fill="#EE5396" x="0" y="0" width="48" height="48"></rect>
                <g id="Production" transform="translate(12, 14)" fill="#FFFFFF">
                    <path d="M1.78571429,9.625 L1.78571429,7 C1.78571429,6.517 2.18571429,6.125 2.67857143,6.125 L22.3214286,6.125 C22.8142857,6.125 23.2142857,6.517 23.2142857,7 L23.2142857,9.625 L1.78571429,9.625 Z M10.7142857,14 L14.2857143,14 L14.2857143,11.375 L10.7142857,11.375 L10.7142857,14 Z M23.2142857,19.25 L1.78571429,19.25 L1.78571429,11.375 L8.92857143,11.375 L8.92857143,15.75 L16.0714286,15.75 L16.0714286,11.375 L23.2142857,11.375 L23.2142857,19.25 Z M7.14285714,4.375 L17.8571429,4.375 L17.8571429,1.75 L7.14285714,1.75 L7.14285714,4.375 Z M22.3214286,4.375 L19.6428571,4.375 L19.6428571,1.75 C19.6428571,0.783125 18.84375,0 17.8571429,0 L7.14285714,0 C6.15625,0 5.35714286,0.783125 5.35714286,1.75 L5.35714286,4.375 L2.67857143,4.375 C1.19910714,4.375 0,5.550125 0,7 L0,19.25 C0,20.216875 0.799107143,21 1.78571429,21 L23.2142857,21 C24.2008929,21 25,20.216875 25,19.25 L25,7 C25,5.550125 23.8008929,4.375 22.3214286,4.375 L22.3214286,4.375 Z" id="Fill-1"></path>
                </g>
            </g>
        </g>
    </g>
</svg>