<?xml version="1.0" encoding="UTF-8"?>
<svg width="48px" height="48px" viewBox="0 0 48 48" version="1.1" xmlns="http://www.w3.org/2000/svg" xmlns:xlink="http://www.w3.org/1999/xlink">
    <title>Production Regulated</title>
    <defs>
        <polygon id="path-1" points="0 0 5 0 5 7 0 7"></polygon>
    </defs>
    <g id="V2-Icons" stroke="none" stroke-width="1" fill="none" fill-rule="evenodd">
        <g id="IBM-Cloud/-Devops" transform="translate(-454, -49)">
            <g id="Production-Regulated" transform="translate(454, 49)">
                <rect id="Rectangle-Copy-47" fill="#EE5396" x="0" y="0" width="48" height="48"></rect>
                <g id="Group-2" transform="translate(11, 15)">
                    <path d="M1.57142857,8.70833333 L1.57142857,6.33333333 C1.57142857,5.89633333 1.92342857,5.54166667 2.35714286,5.54166667 L19.6428571,5.54166667 C20.0765714,5.54166667 20.4285714,5.89633333 20.4285714,6.33333333 L20.4285714,8.70833333 L1.57142857,8.70833333 Z M9.42857143,12.6666667 L12.5714286,12.6666667 L12.5714286,10.2916667 L9.42857143,10.2916667 L9.42857143,12.6666667 Z M20.4285714,17.4166667 L1.57142857,17.4166667 L1.57142857,10.2916667 L7.85714286,10.2916667 L7.85714286,14.25 L14.1428571,14.25 L14.1428571,10.2916667 L20.4285714,10.2916667 L20.4285714,17.4166667 Z M6.28571429,3.95833333 L15.7142857,3.95833333 L15.7142857,1.58333333 L6.28571429,1.58333333 L6.28571429,3.95833333 Z M19.6428571,3.95833333 L17.2857143,3.95833333 L17.2857143,1.58333333 C17.2857143,0.708541667 16.5825,0 15.7142857,0 L6.28571429,0 C5.4175,0 4.71428571,0.708541667 4.71428571,1.58333333 L4.71428571,3.95833333 L2.35714286,3.95833333 C1.05521429,3.95833333 0,5.02154167 0,6.33333333 L0,17.4166667 C0,18.2914583 0.703214286,19 1.57142857,19 L20.4285714,19 C21.2967857,19 22,18.2914583 22,17.4166667 L22,6.33333333 C22,5.02154167 20.9447857,3.95833333 19.6428571,3.95833333 L19.6428571,3.95833333 Z" id="Fill-1" fill="#FFFFFF"></path>
                    <rect id="Rectangle" fill="#ED5396" x="18" y="12" width="6" height="9"></rect>
                    <g id="Group-106" transform="translate(19, 13)">
                        <g id="Group-3">
                            <mask id="mask-2" fill="white">
                                <use xlink:href="#path-1"></use>
                            </mask>
                            <g id="Clip-2"></g>
                            <path d="M0.416665306,0.5 L0.416665306,3.75 C0.415833333,4.58125 0.797916667,5.34525 1.40958333,5.7355 L2.5,6.43325 L3.59041667,5.7355 C4.20208333,5.34525 4.58416667,4.58125 4.58333469,3.75 L4.58333469,0.5 L0.416665306,0.5 Z M2.49999889,7 L1.21333333,6.17675 C0.465833333,5.6995 -0.000833333333,4.766 -1.1142143e-06,3.75 L-1.1142143e-06,0.5 C0.000208333333,0.224 0.186666667,0.00025 0.416666667,0 L4.58333333,0 C4.81333333,0.00025 4.99979167,0.224 4.99999889,0.5 L4.99999889,3.75 C5.00083333,4.766 4.53416667,5.6995 3.78666667,6.17675 L2.49999889,7 Z" id="Fill-1" fill="#FFFFFF" mask="url(#mask-2)"></path>
                        </g>
                        <path d="M0.275615016,0.343098881 C0.21054138,1.28894934 0.178004563,2.00051143 0.178004563,2.47778515 C0.178004563,2.95505886 0.21054138,3.67096944 0.275615016,4.62551687 L0.416665306,4.90228592 L1.09515167,5.69762549 L2.50714385,6.76275017 L3.92524053,5.69762549 C4.19167747,5.44087395 4.36164441,5.23119012 4.43514136,5.068574 C4.50863831,4.90595788 4.60981542,4.61311244 4.73867268,4.19003768 L4.73867268,2.036666 L4.58333469,0.343098881 L2.50714385,0.343098881 L1.39137943,0.343098881 L0.275615016,0.343098881 Z" id="Path-6" fill="#FFFFFF"></path>
                    </g>
                </g>
            </g>
        </g>
    </g>
</svg>