<?xml version="1.0" encoding="UTF-8"?>
<svg width="48px" height="48px" viewBox="0 0 48 48" version="1.1" xmlns="http://www.w3.org/2000/svg" xmlns:xlink="http://www.w3.org/1999/xlink">
    <title>repo--artifact</title>
    <g id="V2-Icons" stroke="none" stroke-width="1" fill="none" fill-rule="evenodd">
        <g id="IBM-Cloud/-Devops" transform="translate(-586, -49)">
            <g id="repo--artifact" transform="translate(586, 49)">
                <rect id="Rectangle-Copy-52" fill="#EE5396" x="0" y="0" width="48" height="48"></rect>
                <g transform="translate(12, 12)">
                    <path d="M22.5,18 L22.5,16.5 L20.925,16.5 C20.85,16.05 20.625,15.6 20.4,15.15 L21.525,14.025 L20.475,12.975 L19.35,14.1 C18.975,13.875 18.525,13.65 18,13.575 L18,12 L16.5,12 L16.5,13.575 C16.05,13.65 15.6,13.875 15.15,14.1 L14.025,12.975 L12.975,14.025 L14.1,15.15 C13.875,15.525 13.65,15.975 13.575,16.5 L12,16.5 L12,18 L13.575,18 C13.65,18.45 13.875,18.9 14.1,19.35 L12.975,20.475 L14.025,21.525 L15.15,20.4 C15.525,20.625 15.975,20.85 16.5,20.925 L16.5,22.5 L18,22.5 L18,20.925 C18.45,20.85 18.9,20.625 19.35,20.4 L20.475,21.525 L21.525,20.475 L20.4,19.35 C20.625,18.975 20.85,18.525 20.925,18 L22.5,18 Z M17.25,19.5 C15.975,19.5 15,18.525 15,17.25 C15,15.975 15.975,15 17.25,15 C18.525,15 19.5,15.975 19.5,17.25 C19.5,18.525 18.525,19.5 17.25,19.5 Z" id="Shape" fill="#FFFFFF" fill-rule="nonzero"></path>
                    <path d="M21,6 L12,6 L9.45,3.45 C9.15,3.15 8.775,3 8.4,3 L3,3 C2.175,3 1.5,3.675 1.5,4.5 L1.5,19.5 C1.5,20.325 2.175,21 3,21 L10.5,21 L10.5,19.5 L3,19.5 L3,4.5 L8.4,4.5 L10.95,7.05 L11.4,7.5 L21,7.5 L21,11.25 L22.5,11.25 L22.5,7.5 C22.5,6.675 21.825,6 21,6 Z" id="Path" fill="#FFFFFF" fill-rule="nonzero"></path>
                    <rect id="_x3C_Transparent_Rectangle_x3E__589_" x="0" y="0" width="24" height="24"></rect>
                </g>
            </g>
        </g>
    </g>
</svg>