<?xml version="1.0" encoding="UTF-8"?>
<svg width="48px" height="48px" viewBox="0 0 48 48" version="1.1" xmlns="http://www.w3.org/2000/svg" xmlns:xlink="http://www.w3.org/1999/xlink">
    <title>Serverless Application</title>
    <g id="V2-Icons" stroke="none" stroke-width="1" fill="none" fill-rule="evenodd">
        <g id="IBM-Cloud/-Devops" transform="translate(-850, -49)">
            <g id="Serverless-Application" transform="translate(850, 49)">
                <rect id="Rectangle" fill="#EE5396" x="0" y="0" width="48" height="48"></rect>
                <g id="function" transform="translate(12, 12)">
                    <path d="M14.71965,22.1442 L14.3325,20.695125 C17.2948099,19.8995468 19.6482234,17.6504668 20.57722,14.7272511 C21.5062165,11.8040353 20.8829504,8.608968 18.9234,6.249225 L20.0766,5.290125 C22.3633039,8.04318542 23.0906801,11.7711971 22.006601,15.1819344 C20.922522,18.5926717 18.1762258,21.2166009 14.71965,22.1442 L14.71965,22.1442 Z" id="Path" fill="#FFFFFF" fill-rule="nonzero"></path>
                    <path d="M7.5,21.75 L6,21.75 L6,18.885 L6.602775,18.764475 C7.696275,18.546 9,17.71545 9,15 L9,13.96365 L6,12.46365 L6,10.78635 L9,9.28635 L9,9 C9,4.899525 11.943975,2.25 16.5,2.25 L18,2.25 L18,5.115 L17.397225,5.235525 C16.303725,5.454 15,6.28455 15,9 L15,9.28635 L18,10.78635 L18,12.46365 L15,13.96365 L15,15 C15,19.100475 12.056025,21.75 7.5,21.75 Z M7.5,20.25 C11.20095,20.25 13.5,18.238425 13.5,15 L13.5,13.03635 L16.32315,11.625 L13.5,10.21365 L13.5,9 C13.5,5.566425 15.288975,4.3557 16.5,3.93 L16.5,3.75 C12.79905,3.75 10.5,5.761575 10.5,9 L10.5,10.21365 L7.67685,11.625 L10.5,13.03635 L10.5,15 C10.5,18.433575 8.711025,19.6443 7.5,20.07 L7.5,20.25 Z" id="Shape" fill="#FFFFFF" fill-rule="nonzero"></path>
                    <path d="M3.9234,18.709875 C1.6363298,15.9563936 0.909105673,12.2276807 1.99387507,8.81657746 C3.07864447,5.40547426 5.82602364,2.78172442 9.283425,1.85505 L9.6705,3.304125 C6.70740318,4.09883218 4.35295695,6.34774098 3.42329102,9.27130448 C2.49362509,12.194868 3.11672367,15.3906083 5.0766,17.750775 L3.9234,18.709875 Z" id="Path" fill="#FFFFFF" fill-rule="nonzero"></path>
                    <rect id="_Transparent_Rectangle_" x="0" y="0" width="24" height="24"></rect>
                </g>
            </g>
        </g>
    </g>
</svg>