<?xml version="1.0" encoding="UTF-8"?>
<svg width="67px" height="67px" viewBox="0 0 67 67" version="1.1" xmlns="http://www.w3.org/2000/svg" xmlns:xlink="http://www.w3.org/1999/xlink">
    <!-- Generator: Sketch 53 (72520) - https://sketchapp.com -->
    <title>Group 67</title>
    <desc>Created with Sketch.</desc>
    <g id="Page-1" stroke="none" stroke-width="1" fill="none" fill-rule="evenodd">
        <g id="Artboard" transform="translate(-572.000000, -963.000000)">
            <g id="Group-67" transform="translate(572.416667, 963.499800)">
                <g id="Group-2" fill="#DF2833">
                    <g id="Group-3">
                        <path d="M33,-0.0002 C51.226,-0.0002 66,14.7748 66,32.9998 C66,51.2258 51.226,65.9998 33,65.9998 C14.774,65.9998 0,51.2258 0,32.9998 C0,14.7748 14.774,-0.0002 33,-0.0002" id="Fill-1"></path>
                    </g>
                </g>
                <path d="M20.2842924,18.8403845 L20.2827656,18.8403845 C20.2008271,18.7431802 20.1743626,18.6541187 20.178943,18.5701464 C20.2043897,18.6693864 20.2395061,18.7609925 20.2842924,18.8403845 L20.2842924,18.8403845 Z M33.7832648,29.5231842 C33.7934435,29.5333627 33.8020953,29.54405 33.812274,29.5547374 C33.7995507,29.5618623 33.789372,29.5659337 33.7766486,29.5740765 C33.7791933,29.5567731 33.7807201,29.5399787 33.7832648,29.5231842 L33.7832648,29.5231842 Z M17.5243418,13.0351014 C17.51569,15.2728352 17.5905033,17.5136226 17.4902433,19.7467761 C17.438332,20.8903258 17.8709261,21.6267371 18.7483288,22.2160698 C19.2944152,22.7870812 19.8165818,23.3845567 20.3942222,23.9214703 C20.883308,24.3749206 21.0629618,24.8818077 21.0604171,25.5474788 C21.0405687,31.3222265 21.0400597,37.0969742 21.060926,42.8722308 C21.0634707,43.5949012 19.4358989,45.7099846 19.3651571,45.7695286 C18.1050358,46.8377577 17.3518131,51.4643754 17.6770221,51.5 C17.7294424,51.4949108 17.7828805,51.4908394 17.8358096,51.4862591 C17.987472,51.4842234 18.1391344,51.4826966 18.2907969,51.4806609 C18.9035537,51.480152 19.5163106,51.4796431 20.1290674,51.4796431 C20.4868482,51.4796431 20.844629,51.4796431 21.2024098,51.480152 C21.6115929,51.480152 22.0207761,51.4796431 22.4299592,51.480152 L22.4299592,51.4796431 C24.4743482,51.480152 26.5187371,51.480152 28.563126,51.480152 L29.0242205,51.4786252 L29.6369773,51.480152 C29.6899065,51.4781163 29.7433446,51.4760806 29.7962738,51.4740449 C29.7957648,51.4740449 29.7957648,51.4740449 29.7957648,51.4740449 C29.7957648,51.4740449 29.7962738,51.4740449 29.7962738,51.4740449 L30.2568593,51.480152 C30.4085217,51.4791342 30.5596752,51.4781163 30.7113376,51.4765895 C30.8645268,51.4760806 31.0172071,51.4755717 31.1698873,51.4750628 C31.4253723,51.4750628 31.6808573,51.4750628 31.9363423,51.4745539 C32.0895315,51.4745539 32.2427208,51.4750628 32.39591,51.4750628 L32.7043241,51.4750628 L32.8585312,51.4750628 L33.0122294,51.4750628 C33.0626139,51.4750628 33.1129984,51.4755717 33.1633828,51.4755717 C33.2142763,51.4755717 33.2656786,51.4755717 33.3160631,51.4755717 L33.4697613,51.4745539 L34.3904234,51.4745539 C34.6453994,51.4755717 34.9003755,51.4760806 35.1558605,51.4765895 C35.3075229,51.4760806 35.4596942,51.4755717 35.6113567,51.4755717 C35.662759,51.4776074 35.7131435,51.480152 35.7645459,51.4826966 C35.8678595,51.4796431 35.9711732,51.4765895 36.0744868,51.4740449 C36.1258892,51.4745539 36.1772916,51.4755717 36.2292029,51.4760806 C36.4851968,51.4755717 36.7411907,51.4755717 36.9966757,51.4750628 C37.2521607,51.4750628 37.5081547,51.4750628 37.7631307,51.4750628 L37.7631307,51.4750628 C40.7785662,51.4750628 43.7940018,51.4750628 46.8099462,51.4750628 C47.0654312,51.4750628 47.880235,51.4725182 47.880235,51.4725182 C47.880235,51.4725182 47.9748967,51.4928751 48.0237544,51.4898215 C48.6344755,51.3066093 48.4242857,48.4021866 47.9983077,47.5487229 C47.8283237,47.2077446 47.415578,46.7899189 46.5819436,45.9593568 C46.0959114,45.4748623 45.0973824,44.6331039 45.0973824,44.6331039 C45.0973824,44.6331039 44.6535917,43.7297658 44.6546096,43.2981992 C44.6688598,37.3229359 44.6683508,31.3471637 44.6561364,25.3719004 C44.6551185,24.9286286 44.7772627,24.6034269 45.0978913,24.2934929 C46.0903131,23.336209 47.044056,22.3392291 48.0380046,21.3839809 C48.3800084,21.0552168 48.5133492,20.7111849 48.5092777,20.2394134 C48.4899382,17.8138871 48.5026616,15.3878518 48.4960454,12.9618165 C48.4950275,12.7205871 48.5937608,12.4427152 48.3377669,12.252887 L44.0947819,12.2722261 C43.6535359,12.754176 43.8876457,13.3445265 43.915637,13.8605743 C43.9767092,14.9720618 43.5726153,15.7843027 42.661623,16.3777068 C42.2682168,16.527839 41.8549622,16.5202052 41.4437433,16.5364907 C40.2324798,16.0667549 39.8115911,15.4092266 39.7591709,14.1053662 C39.735251,13.4992391 39.9785216,12.8585052 39.5927494,12.2834224 C39.4929983,12.2798599 39.3932472,12.2762975 39.2934961,12.2732439 L37.1498649,12.2732439 L35.9228244,12.2732439 C35.8215465,12.2732439 35.7202686,12.2737528 35.6189907,12.2742618 C35.5686062,12.2762975 35.5187306,12.2778242 35.469364,12.2798599 C35.0861365,12.2839313 35.1965752,12.5785976 35.190977,12.78064 C35.1746911,13.4173025 35.1721464,14.0544739 35.1736732,14.6916453 C35.1752,15.3354328 34.8764556,15.8392664 34.3675213,16.1746465 C33.5980127,16.6810248 32.72061,16.7736488 31.8854489,16.4174028 C31.0446895,16.05963 30.6487386,15.307442 30.5856308,14.4091932 C30.5479697,13.8768598 30.5866487,13.3394373 30.5708717,12.8045594 C30.5652734,12.6233828 30.677239,12.3831713 30.4019055,12.2818956 C29.686344,12.2788421 28.9712913,12.2757885 28.2562387,12.272735 C28.0516471,12.272735 27.8475645,12.2722261 27.6439908,12.2722261 C27.2867189,12.2717171 26.9289381,12.2717171 26.5716663,12.2712082 C26.5212818,12.2701904 26.4708973,12.2691725 26.4200038,12.2681547 C26.055098,12.2829135 26.1370364,12.562821 26.1329649,12.7745329 C26.1222773,13.3603031 26.1416168,13.9470912 26.1212594,14.5328614 C26.0851251,15.6031262 25.3008574,16.4520095 24.289605,16.5420889 C23.081904,16.6499805 22.2452161,16.0621746 21.9449449,14.9491603 C21.7744519,14.318096 21.8650422,13.6834692 21.8166934,13.0518959 C21.7973539,12.7964166 21.9734452,12.4844469 21.6502719,12.2920741 L20.8960313,12.2712082 C19.9758782,12.2722261 19.0567429,12.272735 18.1370987,12.2732439 C18.0404012,12.2732439 17.9426858,12.2737528 17.8454794,12.2737528 L17.6800757,12.2498335 C17.414921,12.4681614 17.5253597,12.7699526 17.5243418,13.0351014 L17.5243418,13.0351014 Z" id="Fill-4" fill="#FFFFFF"></path>
            </g>
        </g>
    </g>
</svg>