<?xml version="1.0" encoding="UTF-8"?>
<svg width="67px" height="67px" viewBox="0 0 67 67" version="1.1" xmlns="http://www.w3.org/2000/svg" xmlns:xlink="http://www.w3.org/1999/xlink">
    <!-- Generator: Sketch 53 (72520) - https://sketchapp.com -->
    <title>Group 44</title>
    <desc>Created with Sketch.</desc>
    <g id="Page-1" stroke="none" stroke-width="1" fill="none" fill-rule="evenodd">
        <g id="Artboard" transform="translate(-45.000000, -963.000000)">
            <g id="Group-44" transform="translate(45.833333, 963.499800)">
                <g id="Group-67-Copy-11" transform="translate(0.000000, -0.000000)" fill="#DF2833">
                    <g id="Group-2">
                        <g id="Group-3">
                            <path d="M33,-0.0002 C51.226,-0.0002 66,14.7748 66,32.9998 C66,51.2258 51.226,65.9998 33,65.9998 C14.774,65.9998 0,51.2258 0,32.9998 C0,14.7748 14.774,-0.0002 33,-0.0002" id="Fill-1"></path>
                        </g>
                    </g>
                </g>
                <g id="Group-2-Copy" transform="translate(12.500000, 11.500000)" fill="#FFFFFF" fill-rule="nonzero">
                    <g id="Group">
                        <path d="M31.6820251,10.0806443 L0,10.0806443 L0,0 L31.6820251,0 L31.6820251,10.0806443 Z M2.8801841,7.20046024 L28.801841,7.20046024 L28.801841,2.8801841 L2.8801841,2.8801841 L2.8801841,7.20046024 Z" id="Shape"></path>
                        <polygon id="Path" points="25.9216569 23.0414728 5.76036819 23.0414728 5.76036819 12.9608284 34.5622092 12.9608284 34.5622092 15.8410125 8.64055229 15.8410125 8.64055229 20.1612887 25.9216569 20.1612887"></polygon>
                        <polygon id="Path" points="23.0414728 36.0023012 0 36.0023012 0 25.9216569 23.0414728 25.9216569 23.0414728 28.801841 2.8801841 28.801841 2.8801841 33.1221171 23.0414728 33.1221171"></polygon>
                    </g>
                    <path d="M38.1624393,27.5057581 L38.1624393,23.7615188 C38.1624393,21.0253439 35.858292,18.7211966 33.1221171,18.7211966 C30.3859422,18.7211966 28.0817949,21.0253439 28.0817949,23.7615188 L28.0817949,27.5057581 C26.7857121,27.7937765 25.9216569,28.9458502 25.9216569,30.241933 L25.9216569,37.4423933 C25.9216569,39.0264945 27.2177397,40.3225774 28.801841,40.3225774 L37.4423933,40.3225774 C39.0264945,40.3225774 40.3225774,39.0264945 40.3225774,37.4423933 L40.3225774,30.241933 C40.3225774,28.9458502 39.4585221,27.7937765 38.1624393,27.5057581 Z M33.1221171,21.6013807 C34.2741908,21.6013807 35.2822552,22.6094452 35.2822552,23.7615188 L35.2822552,27.3617489 L30.961979,27.3617489 L30.961979,23.7615188 C30.961979,22.6094452 31.9700435,21.6013807 33.1221171,21.6013807 Z M37.4423933,37.4423933 L28.801841,37.4423933 L28.801841,30.241933 L28.801841,30.241933 L37.4423933,30.241933 L37.4423933,37.4423933 Z" id="Shape"></path>
                </g>
            </g>
        </g>
    </g>
</svg>