<?xml version="1.0" encoding="UTF-8"?>
<svg width="65px" height="65px" viewBox="0 0 65 65" version="1.1" xmlns="http://www.w3.org/2000/svg" xmlns:xlink="http://www.w3.org/1999/xlink">
    <!-- Generator: Sketch 53 (72520) - https://sketchapp.com -->
    <title>Group 12</title>
    <desc>Created with Sketch.</desc>
    <defs>
        <polygon id="path-1" points="0.00012037037 0.209908257 65 0.209908257 65 64.4036101 0.00012037037 64.4036101"></polygon>
    </defs>
    <g id="Page-1" stroke="none" stroke-width="1" fill="none" fill-rule="evenodd">
        <g id="Group-12">
            <g id="Group-3" transform="translate(0.000000, 0.386422)">
                <mask id="mask-2" fill="white">
                    <use xlink:href="#path-1"></use>
                </mask>
                <g id="Clip-2"></g>
                <path d="M65.0001204,32.3067294 C65.0001204,50.0332431 50.4491481,64.4036101 32.5001204,64.4036101 C14.5510926,64.4036101 0.00012037037,50.0332431 0.00012037037,32.3067294 C0.00012037037,14.5802156 14.5510926,0.209848624 32.5001204,0.209848624 C50.4491481,0.209848624 65.0001204,14.5802156 65.0001204,32.3067294" id="Fill-1" fill="#E02533" mask="url(#mask-2)"></path>
            </g>
            <path d="M9.04023611,32.2089312 C9.2490787,31.9220963 9.73597685,31.5392523 9.79856944,31.0979679 C9.88704167,30.4753991 9.4091713,30.0478303 8.72065278,30.0508119 C8.07245833,30.0537936 7.71255093,30.430078 7.69088426,31.0568211 C7.66681019,31.7348486 8.04236574,32.1039771 9.04023611,32.2089312 M10.2337083,36.1399404 C10.2306991,35.3843899 9.52653241,34.6777385 8.76579167,34.6670046 C7.99963426,34.6556743 7.2966713,35.3337018 7.27319907,36.1059495 C7.24852315,36.9103991 7.97676389,37.6462706 8.77903241,37.6283807 C9.53736574,37.6110872 10.2373194,36.8948945 10.2337083,36.1399404 M29.5344954,37.6420963 C32.4835694,37.6420963 35.4332454,37.6438853 38.3823194,37.6409037 C39.6955602,37.639711 39.9537546,37.3981972 39.9591713,36.1983807 C39.9657917,34.8936101 39.7292639,34.6538853 38.3931528,34.6538853 C32.4944028,34.6509037 26.5956528,34.6509037 20.6969028,34.6538853 C19.424588,34.6538853 19.1633843,34.913289 19.1621806,36.1405367 C19.1615787,37.377922 19.4179676,37.637922 20.6866713,37.6403073 C23.6357454,37.645078 26.5848194,37.6420963 29.5344954,37.6420963 M56.6063935,30.0013165 C55.5706065,30.2040688 54.7629213,30.1140229 53.8878287,29.6339771 C51.745838,28.4598028 48.9682917,29.0048486 47.268662,30.7699862 C45.5389398,32.5667294 45.1952824,35.3217752 46.4573657,37.4745275 C46.7456528,37.9665 47.0369491,38.5002156 47.4594491,38.8627844 C48.3206991,39.600445 48.1509769,40.4704908 48.0155602,41.4580138 L47.0375509,41.4580138 C33.4062083,41.4580138 19.7754676,41.4586101 6.14472685,41.4574174 C4.44329167,41.4574174 4.20556019,41.2194817 4.20495833,39.5312706 C4.20435648,35.9723716 4.20375463,32.4128761 4.20556019,28.8539771 C4.20616204,27.2981514 4.41921759,27.0846651 5.97921759,27.0846651 C22.1756528,27.0834725 38.372088,27.0840688 54.569125,27.0840688 C56.5251435,27.0840688 56.6659769,27.2212248 56.6485231,29.1265 C56.6461157,29.4079679 56.6220417,29.6888394 56.6063935,30.0013165" id="Fill-4" fill="#FFFFFF"></path>
            <path d="M4.80434259,24.6662477 C5.21600926,24.3794128 5.38332407,24.220789 5.58193519,24.1307431 C7.29841667,23.3477615 9.01309259,22.5606055 10.7464259,21.815789 C11.1424444,21.6458349 11.6082778,21.5617523 12.0416111,21.561156 C24.3609167,21.5480367 36.6808241,21.5462477 49.0001296,21.5659266 C49.3504074,21.5665229 49.3263333,23.6089541 48.0564259,24.4664771 C44.3135093,24.5141835 40.5591574,24.5541376 36.7957778,24.5857431 C26.0521204,24.677578 15.3879074,24.7032202 4.80434259,24.6662477" id="Fill-6" fill="#FFFFFF"></path>
            <path d="M46.7118287,34.432945 C46.7184491,34.4794587 46.7274769,34.5247798 46.7353009,34.5706972 L46.6540509,34.4901927 L46.7118287,34.432945 Z M48.0563657,24.4664771 C48.0563657,22.0131743 50.2284491,19.8610183 52.7044676,19.8610183 C55.1798843,19.8610183 57.3519676,22.0131743 57.3519676,24.4664771 L57.3519676,25.708633 C55.9833565,24.9226697 54.3992824,24.4664771 52.7056713,24.4664771 C51.0102546,24.4664771 49.4249769,24.9238624 48.0563657,25.7098257 L48.0563657,24.4664771 Z M59.6757176,24.4664771 C59.6757176,20.7358349 56.4702546,17.5585872 52.7044676,17.5585872 C48.9356713,17.5585872 45.7326157,20.7358349 45.7326157,24.4664771 L45.7326157,27.600789 C44.2905787,29.2228073 43.4094676,31.3457431 43.4094676,33.6762018 C43.4094676,38.7599174 47.5736806,42.8859266 52.7056713,42.8859266 C57.8370602,42.8859266 61.9994676,38.7599174 61.9994676,33.6762018 C61.9994676,31.3445505 61.1177546,29.222211 59.6757176,27.5995963 L59.6757176,24.4664771 Z" id="Fill-8" fill="#E02533"></path>
            <path d="M51.1193102,37.9832569 L47.2030602,34.1029358 L48.6974583,32.622844 L51.1193102,35.0230734 L56.7111157,29.4825688 L58.204912,30.9626606 L51.1193102,37.9832569 Z M48.4777824,24.9886239 C48.4777824,22.7577523 50.4530602,20.801789 52.7039861,20.801789 C54.9555139,20.801789 56.929588,22.7577523 56.929588,24.9886239 L56.929588,26.1180734 C55.6855602,25.4036697 54.2453287,24.9886239 52.7051898,24.9886239 C51.1638472,24.9886239 49.722412,25.4048624 48.4777824,26.1192661 L48.4777824,24.9886239 Z M59.0426898,24.9886239 C59.0426898,21.5966972 56.1279213,18.7080734 52.7039861,18.7080734 C49.2776435,18.7080734 46.3652824,21.5966972 46.3652824,24.9886239 L46.3652824,27.8384862 C45.0538472,29.3138073 44.2527824,31.2435321 44.2527824,33.3628899 C44.2527824,37.9850459 48.0390324,41.737156 52.7051898,41.737156 C57.3719491,41.737156 61.1557917,37.9850459 61.1557917,33.3628899 C61.1557917,31.2423394 60.354125,29.3126147 59.0426898,27.8372936 L59.0426898,24.9886239 Z" id="Fill-10" fill="#FFFFFF"></path>
        </g>
    </g>
</svg>