<?xml version="1.0" encoding="UTF-8"?>
<svg width="67px" height="67px" viewBox="0 0 67 67" version="1.1" xmlns="http://www.w3.org/2000/svg" xmlns:xlink="http://www.w3.org/1999/xlink">
    <!-- Generator: Sketch 53 (72520) - https://sketchapp.com -->
    <title>Group 65</title>
    <desc>Created with Sketch.</desc>
    <defs>
        <polygon id="path-1" points="0.727622951 0.320081967 7.78418033 0.320081967 7.78418033 7.37704918 0.727622951 7.37704918"></polygon>
    </defs>
    <g id="Page-1" stroke="none" stroke-width="1" fill="none" fill-rule="evenodd">
        <g id="Artboard" transform="translate(-360.000000, -963.000000)">
            <g id="Group-65" transform="translate(360.416667, 963.499800)">
                <g id="Group-2" fill="#DF2833">
                    <g id="Group-3">
                        <path d="M33,-0.0002 C51.226,-0.0002 66,14.7748 66,32.9998 C66,51.2258 51.226,65.9998 33,65.9998 C14.774,65.9998 0,51.2258 0,32.9998 C0,14.7748 14.774,-0.0002 33,-0.0002" id="Fill-1"></path>
                    </g>
                </g>
                <g id="Group-16" transform="translate(8.500000, 8.500200)">
                    <path d="M48.2210656,24.2728689 C48.2210656,37.4990984 37.4989344,48.2212295 24.2727049,48.2212295 C11.0464754,48.2212295 0.324344262,37.4990984 0.324344262,24.2728689 C0.324344262,11.0466393 11.0464754,0.324508197 24.2727049,0.324508197 C37.4989344,0.324508197 48.2210656,11.0466393 48.2210656,24.2728689 Z" id="Stroke-1" stroke="#FFFFFF" stroke-width="2.793"></path>
                    <path d="M41.7517213,25.0377049 C41.7517213,34.6909836 33.9263115,42.5172131 24.2730328,42.5172131 C14.6189344,42.5172131 6.79352459,34.6909836 6.79352459,25.0377049 C6.79352459,15.3844262 14.6189344,7.55819672 24.2730328,7.55819672 C33.9263115,7.55819672 41.7517213,15.3844262 41.7517213,25.0377049 Z" id="Stroke-3" stroke="#FFFFFF" stroke-width="2.793"></path>
                    <path d="M35.0367213,24.655082 C35.0367213,30.5993443 30.2170492,35.4181967 24.2727869,35.4181967 C18.3285246,35.4181967 13.5088525,30.5993443 13.5088525,24.655082 C13.5088525,18.7108197 18.3285246,13.8919672 24.2727869,13.8919672 C30.2170492,13.8919672 35.0367213,18.7108197 35.0367213,24.655082 Z" id="Stroke-5" stroke="#FFFFFF" stroke-width="2.793"></path>
                    <path d="M24.2728689,24.655082 L40.3736885,6.54442623" id="Stroke-7" stroke="#FFFFFF" stroke-width="2.793"></path>
                    <path d="M19.5397541,9.09090164 C19.5397541,11.0392623 17.9594262,12.6195902 16.0110656,12.6195902 C14.0618852,12.6195902 12.4831967,11.0392623 12.4831967,9.09090164 C12.4831967,7.14254098 14.0618852,5.56221311 16.0110656,5.56221311 C17.9594262,5.56221311 19.5397541,7.14254098 19.5397541,9.09090164" id="Fill-9" fill="#FFFFFF"></path>
                    <path d="M15.2317213,36.7344262 C15.2317213,38.6836066 13.6522131,40.2631148 11.7030328,40.2631148 C9.75467213,40.2631148 8.17516393,38.6836066 8.17516393,36.7344262 C8.17516393,34.7860656 9.75467213,33.2057377 11.7030328,33.2057377 C13.6522131,33.2057377 15.2317213,34.7860656 15.2317213,36.7344262" id="Fill-11" fill="#FFFFFF"></path>
                    <g id="Group-15" transform="translate(29.508197, 42.196639)">
                        <mask id="mask-2" fill="white">
                            <use xlink:href="#path-1"></use>
                        </mask>
                        <g id="Clip-14"></g>
                        <path d="M7.78418033,3.84877049 C7.78418033,5.79713115 6.20467213,7.37745902 4.2554918,7.37745902 C2.30713115,7.37745902 0.727622951,5.79713115 0.727622951,3.84877049 C0.727622951,1.89959016 2.30713115,0.320081967 4.2554918,0.320081967 C6.20467213,0.320081967 7.78418033,1.89959016 7.78418033,3.84877049" id="Fill-13" fill="#FFFFFF" mask="url(#mask-2)"></path>
                    </g>
                </g>
            </g>
        </g>
    </g>
</svg>