<?xml version="1.0" encoding="UTF-8"?>
<svg width="67px" height="67px" viewBox="0 0 67 67" version="1.1" xmlns="http://www.w3.org/2000/svg" xmlns:xlink="http://www.w3.org/1999/xlink">
    <!-- Generator: Sketch 53 (72520) - https://sketchapp.com -->
    <title>Group 66</title>
    <desc>Created with Sketch.</desc>
    <defs>
        <polygon id="path-1" points="0 0.219004318 59.9804478 0.219004318 59.9804478 7.67970907 0 7.67970907"></polygon>
    </defs>
    <g id="Page-1" stroke="none" stroke-width="1" fill="none" fill-rule="evenodd">
        <g id="Artboard" transform="translate(-466.000000, -963.000000)">
            <g id="Group-66" transform="translate(466.416667, 963.499800)">
                <g id="Group-3" fill="#DF2833">
                    <path d="M33,-0.0002 C51.226,-0.0002 66,14.7748 66,32.9998 C66,51.2258 51.226,65.9998 33,65.9998 C14.774,65.9998 0,51.2258 0,32.9998 C0,14.7748 14.774,-0.0002 33,-0.0002" id="Fill-1"></path>
                </g>
                <g id="Group-3" transform="translate(3.000000, 37.431016)">
                    <mask id="mask-2" fill="white">
                        <use xlink:href="#path-1"></use>
                    </mask>
                    <g id="Clip-2"></g>
                    <path d="M59.9807037,7.67986266 L-0.000383985453,7.67986266 C0.395121032,5.34369516 0.734948158,3.17571329 1.14517262,1.04920185 C1.21301005,0.698239149 1.57139647,0.422537593 1.82482687,0.304270073 C2.10321632,0.175250961 2.41680444,0.263567615 2.71439317,0.263567615 C20.7802688,0.263567615 38.8461444,0.280462975 56.91202,0.219025303 C57.9826994,0.215185448 58.5426782,0.737405665 58.838987,2.54751309 C59.1109767,4.21017011 59.55128,5.78835032 59.9807037,7.67986266" id="Fill-1" fill="#FFFFFF" mask="url(#mask-2)"></path>
                </g>
                <path d="M29.7861105,27.8075725 C26.2757155,30.5761076 22.7753041,33.3600021 19.2334223,36.0878348 C18.9285378,36.3228339 18.1644068,36.4003989 17.9086725,36.1915109 C14.5188489,33.4175999 11.1812473,30.5784115 7.83059027,27.7568864 C7.88588417,27.5956125 7.94117808,27.4351066 7.99647199,27.2746007 C9.14228458,27.2746007 10.291937,27.2146989 11.4331418,27.2891921 C12.7509799,27.3759728 13.3139025,26.9274778 13.2463211,25.5274668 C13.1503247,23.516151 13.2601446,21.4963876 13.2140663,19.4812319 C13.1887233,18.3876413 13.618019,17.9852246 14.7085377,18.0051918 C17.3741647,18.0543419 20.0420957,18.0666295 22.7061867,18.001352 C23.966427,17.9706331 24.2452004,18.555827 24.2183215,19.6594011 C24.1691713,21.6737888 24.2597919,23.6920164 24.1883706,25.7056361 C24.1461322,26.9128864 24.6376336,27.3314305 25.788822,27.2830483 C27.0674935,27.2300583 28.3500049,27.2715288 29.6309804,27.2715288 C29.6824345,27.449698 29.7346565,27.6286352 29.7861105,27.8075725" id="Fill-4" fill="#FFFFFF"></path>
                <path d="M52.4667489,27.4963139 L57.8924634,27.4963139 C58.0007473,27.649908 58.1090312,27.8042702 58.2165471,27.9594003 C55.1700065,30.8515787 52.1226979,33.7445252 48.9717133,36.7350039 C44.5881354,33.7191821 40.322825,30.7832293 36.0567466,27.8480445 L36.1035928,27.4225887 C37.7654818,27.3327361 39.4273709,27.2428835 41.4202554,27.1353675 C40.8173982,24.1878952 40.243724,21.3832654 39.60938,18.2821989 C43.0990398,18.2821989 46.3237496,18.2368886 49.5438516,18.3459405 C49.9109417,18.358228 50.4262502,19.1922444 50.5698608,19.7259842 C51.2433713,22.2318733 51.8109018,24.7654093 52.4667489,27.4963139" id="Fill-6" fill="#FFFFFF"></path>
            </g>
        </g>
    </g>
</svg>