<?xml version="1.0" encoding="UTF-8"?>
<svg width="67px" height="67px" viewBox="0 0 67 67" version="1.1" xmlns="http://www.w3.org/2000/svg" xmlns:xlink="http://www.w3.org/1999/xlink">
    <!-- Generator: Sketch 53 (72520) - https://sketchapp.com -->
    <title>Group 78</title>
    <desc>Created with Sketch.</desc>
    <g id="Page-1" stroke="none" stroke-width="1" fill="none" fill-rule="evenodd">
        <g id="Artboard" transform="translate(-799.000000, -963.000000)">
            <g id="Group-78" transform="translate(799.500000, 963.499800)">
                <g id="Group-67-Copy-6" transform="translate(0.000000, -0.000000)" fill="#DF2833">
                    <g id="Group-2">
                        <g id="Group-3">
                            <path d="M33,-0.0002 C51.226,-0.0002 66,14.7748 66,32.9998 C66,51.2258 51.226,65.9998 33,65.9998 C14.774,65.9998 0,51.2258 0,32.9998 C0,14.7748 14.774,-0.0002 33,-0.0002" id="Fill-1"></path>
                        </g>
                    </g>
                </g>
                <g id="Gateway_App_Solid_Icon" transform="translate(10.000000, 3.500250)" fill="#FFFFFF" fill-rule="nonzero">
                    <path d="M34.8881467,32.0593781 L32.0593781,32.0593781 L32.0593781,28.2876865 L34.8881467,28.2876865 C38.5277001,28.2876865 41.4886069,25.3267797 41.4886069,21.6872263 C41.4886069,18.2912307 38.9199709,15.4850221 35.513846,15.1590508 L34.0276376,15.0172441 L33.8250564,13.5379418 C33.0621545,7.97018467 28.2494723,3.77169154 22.6301492,3.77169154 C17.0108261,3.77169154 12.198144,7.97018467 11.435242,13.5379416 L11.2326609,15.0172441 L9.74645243,15.1590508 C6.34032757,15.4850221 3.77169154,18.2912307 3.77169154,21.6872263 C3.77169154,25.3267797 6.73259839,28.2876865 10.3721517,28.2876865 L13.2009204,28.2876865 L13.2009204,32.0593781 L10.3721517,32.0593781 C4.65291936,32.0593781 0,27.4064587 0,21.6872263 C0,16.8257406 3.33153815,12.7322213 7.95499098,11.6405856 C9.5319007,4.91489351 15.6093333,0 22.6301492,0 C29.6509652,0 35.7283978,4.91489351 37.3053075,11.6405856 C41.9287603,12.7322213 45.2602985,16.8257406 45.2602985,21.6872263 C45.2602985,27.4064587 40.6073791,32.0593781 34.8881467,32.0593781 Z M5.65753731,47.1461442 L0,47.1461442 L0,52.8036815 L5.65753731,52.8036815 L5.65753731,47.1461442 Z M18.8584577,47.1461442 L13.2009204,47.1461442 L13.2009204,52.8036815 L18.8584577,52.8036815 L18.8584577,47.1461442 Z M32.0593781,47.1461442 L26.4018408,47.1461442 L26.4018408,52.8036815 L32.0593781,52.8036815 L32.0593781,47.1461442 Z M45.2602985,47.1461442 L39.6027612,47.1461442 L39.6027612,52.8036815 L45.2602985,52.8036815 L45.2602985,47.1461442 Z M20.7442891,22.6301492 L20.7442963,38.042653 L16.4200929,33.7184675 L13.7533783,36.3851713 L22.6301492,45.2602985 L31.5069201,36.3851713 L28.8402056,33.7184675 L24.5160022,38.042653 L24.515995,22.6301492 L20.7442891,22.6301492 Z" id="Gateway"></path>
                </g>
            </g>
        </g>
    </g>
</svg>