<?xml version="1.0" encoding="UTF-8"?>
<svg width="67px" height="67px" viewBox="0 0 67 67" version="1.1" xmlns="http://www.w3.org/2000/svg" xmlns:xlink="http://www.w3.org/1999/xlink">
    <!-- Generator: Sketch 53 (72520) - https://sketchapp.com -->
    <title>Group 6</title>
    <desc>Created with Sketch.</desc>
    <g id="Page-1" stroke="none" stroke-width="1" fill="none" fill-rule="evenodd">
        <g id="Artboard" transform="translate(-148.000000, -963.000000)">
            <g id="Group-6" transform="translate(147.916667, 963.499800)">
                <g id="VPN-Gateway">
                    <g id="Group">
                        <ellipse id="Oval" fill="#E02533" fill-rule="nonzero" cx="33.4045418" cy="33.3439661" rx="32.9168842" ry="33.0978852"></ellipse>
                        <ellipse id="Oval" stroke="#FFFFFF" stroke-width="3" cx="33.4045418" cy="32.8518043" rx="25.6629782" ry="25.8384977"></ellipse>
                    </g>
                    <g id="Group" transform="translate(21.335018, 14.149654)" fill="#FFFFFF" fill-rule="nonzero">
                        <path d="M22.3712898,16.9795842 C21.2131032,16.9795842 20.1158737,16.9795842 19.0186442,16.9795842 C18.8967298,16.9795842 18.7748154,16.9795842 18.6529011,16.918064 C18.6529011,16.6719831 18.5919439,16.4874224 18.5919439,16.2413414 C18.5919439,14.1496535 18.5919439,12.0579656 18.6529011,9.9662777 C18.6529011,7.07482676 16.0926989,4.24489606 13.1057965,3.93729489 C9.5702793,3.5681735 6.58337684,5.78290187 5.97380491,9.35107537 C5.91284772,9.781717 5.91284772,10.1508384 5.91284772,10.58148 C5.91284772,13.5344512 5.91284772,16.5489426 5.91284772,19.5019138 C5.91284772,19.6864745 5.91284772,19.9325554 5.91284772,20.1786363 C6.21763368,20.1786363 6.40050526,20.2401566 6.64433403,20.2401566 C11.9476098,20.2401566 17.1899284,20.2401566 22.4932042,20.2401566 C23.0418189,20.2401566 23.2246905,20.363197 23.2246905,20.9783994 C23.2246905,25.7154573 23.2246905,30.5140354 23.2246905,35.2510933 C23.2246905,35.4971743 23.2246905,35.681735 23.2246905,35.9278159 C15.787913,35.9278159 8.41209263,35.9278159 0.914357895,35.9278159 C0.914357895,35.681735 0.853400702,35.435654 0.853400702,35.1895731 C0.853400702,30.5140354 0.853400702,25.8384977 0.853400702,21.1014398 C0.853400702,20.1171161 0.853400702,20.2401566 1.7068014,20.2401566 C1.82871579,20.2401566 1.88967298,20.2401566 2.07254456,20.1786363 C2.07254456,19.9940756 2.07254456,19.7479947 2.07254456,19.5019138 C2.07254456,16.4874224 2.07254456,13.472931 2.07254456,10.4584396 C2.07254456,4.49097699 6.64433403,-0.0615202327 12.5571818,0.0615202327 C17.677586,0.123040465 22.1884182,4.49097699 22.3712898,9.65867653 C22.432247,11.9964454 22.3712898,14.272694 22.3712898,16.6104628 C22.3712898,16.7335033 22.3712898,16.7950235 22.3712898,16.9795842 Z M16.2146133,32.1135615 C16.2146133,32.6057233 16.2146133,33.036365 16.2146133,33.4670066 C16.2146133,34.1437291 16.7022709,34.5743708 17.3118428,34.5743708 C17.9214147,34.5743708 18.4090723,34.1437291 18.4090723,33.4670066 C18.4090723,33.2209257 18.4090723,32.9133245 18.4090723,32.6672436 C18.3481151,32.1750817 18.5309867,31.990521 19.0186442,32.0520412 C19.4453446,32.1135615 19.6282161,31.990521 19.6282161,31.4983591 C19.5672589,30.3294747 19.6282161,29.0990701 19.6282161,27.9301856 C19.6282161,27.2534631 19.262473,26.7613012 18.7138582,26.4537001 C18.4700295,26.3306596 18.2262007,26.0845787 18.1652435,25.8384977 C17.7995004,24.9772145 17.4337572,24.054411 17.1289712,23.1931277 C16.7632281,22.3318445 16.2755705,22.0242433 15.3612126,22.0242433 C13.2277109,22.0242433 11.0942091,22.0242433 8.89975018,22.0242433 C7.98539228,22.0242433 7.49773474,22.3318445 7.13199158,23.1931277 C6.76624842,24.054411 6.46146246,24.9772145 6.03476211,25.8384977 C5.91284772,26.0845787 5.66901895,26.3306596 5.48614737,26.4537001 C4.99848982,26.699781 4.63274667,27.0689024 4.57178947,27.6225845 C4.51083228,29.0990701 4.57178947,30.5755557 4.57178947,32.0520412 C4.99848982,32.0520412 5.36423298,32.1135615 5.72997614,32.1135615 C5.72997614,32.5442031 5.72997614,32.9748447 5.72997614,33.4054864 C5.72997614,34.1437291 6.15667649,34.5743708 6.76624842,34.5743708 C7.43677754,34.5743708 7.86347789,34.1437291 7.92443509,33.4054864 C7.92443509,32.9748447 7.92443509,32.6057233 7.92443509,32.1750817 C10.728466,32.1135615 13.4105825,32.1135615 16.2146133,32.1135615 Z" id="Shape"></path>
                        <path d="M20.1768309,16.118301 L3.90126035,16.118301 C2.07254456,16.118301 0.548614737,17.5947866 0.548614737,19.5019138 L0.548614737,34.7589315 C0.548614737,36.6045385 2.01158737,38.1425443 3.90126035,38.1425443 L20.1768309,38.1425443 C22.0055467,38.1425443 23.5294765,36.6660587 23.5294765,34.7589315 L23.5294765,19.5019138 C23.5294765,17.5947866 22.0665039,16.118301 20.1768309,16.118301 Z" id="Path"></path>
                    </g>
                </g>
                <polyline id="Path" stroke="#E02533" stroke-width="2.7155" stroke-linecap="round" points="24.3828772 40.5059857 30.8961843 47.193775 41.3741131 36.10462"></polyline>
            </g>
        </g>
    </g>
</svg>