<?xml version="1.0" encoding="UTF-8"?>
<svg width="67px" height="66px" viewBox="0 0 67 66" version="1.1" xmlns="http://www.w3.org/2000/svg" xmlns:xlink="http://www.w3.org/1999/xlink">
    <!-- Generator: Sketch 53 (72520) - https://sketchapp.com -->
    <title>Group 30</title>
    <desc>Created with Sketch.</desc>
    <defs>
        <polygon id="path-1" points="0.0461 0.6983 15.7731 0.6983 15.7731 16 0.0461 16"></polygon>
    </defs>
    <g id="Page-1" stroke="none" stroke-width="1" fill="none" fill-rule="evenodd">
        <g id="Artboard" transform="translate(-150.000000, -789.000000)">
            <g id="Group-30" transform="translate(150.833333, 788.000000)">
                <g id="Group-15" fill="#F37739">
                    <g id="Group-3" transform="translate(0.000000, 0.986400)">
                        <path d="M33.0002,0.0136 C51.2252,0.0136 66.0002,14.7846 66.0002,33.0066 C66.0002,51.2286 51.2252,65.9996 33.0002,65.9996 C14.7742,65.9996 0.0002,51.2286 0.0002,33.0066 C0.0002,14.7846 14.7742,0.0136 33.0002,0.0136" id="Fill-1"></path>
                    </g>
                </g>
                <path d="M39.9985,53.1053 C41.8175,53.1053 43.2925,53.9143 43.2925,54.9123 C43.2925,55.9093 41.8175,56.7183 39.9985,56.7183 C38.1795,56.7183 36.7045,55.9093 36.7045,54.9123 C36.7045,53.9143 38.1795,53.1053 39.9985,53.1053" id="Fill-1" fill="#F3783A"></path>
                <path d="M33.5161,13.9998 C44.4321,13.9998 53.2811,22.8018 53.2811,33.6588 C53.2811,44.5168 44.4321,53.3178 33.5161,53.3178 C22.6001,53.3178 13.7511,44.5168 13.7511,33.6588 C13.7511,22.8018 22.6001,13.9998 33.5161,13.9998 Z" id="Stroke-3" stroke="#FEFEFE" stroke-width="6"></path>
                <path d="M57.8505,20.5887 L52.2185,28.8767" id="Stroke-5" stroke="#F3783C" stroke-width="2"></path>
                <path d="M53.2812,28.3455 L39.8922,26.5385" id="Stroke-7" stroke="#F3783C" stroke-width="2"></path>
                <path d="M5.9936,38.4412 L14.6006,33.5522" id="Stroke-9" stroke="#F3783C" stroke-width="2"></path>
                <path d="M13.5385,33.4461 L24.6965,41.0971" id="Stroke-11" stroke="#F3783C" stroke-width="2"></path>
                <path d="M44.8862,45.7733 C48.1142,45.7733 50.7312,48.3413 50.7312,51.5113 C50.7312,54.6803 48.1142,57.2503 44.8862,57.2503 C41.6582,57.2503 39.0422,54.6803 39.0422,51.5113 C39.0422,48.3413 41.6582,45.7733 44.8862,45.7733" id="Fill-13" fill="#F3783A"></path>
                <g id="Group-17" transform="translate(25.500000, 45.075000)">
                    <mask id="mask-2" fill="white">
                        <use xlink:href="#path-1"></use>
                    </mask>
                    <g id="Clip-16"></g>
                    <path d="M7.9101,0.6983 C12.2531,0.6983 15.7731,4.1233 15.7731,8.3483 C15.7731,12.5743 12.2531,16.0003 7.9101,16.0003 C3.5671,16.0003 0.0461,12.5743 0.0461,8.3483 C0.0461,4.1233 3.5671,0.6983 7.9101,0.6983" id="Fill-15" fill="#F3783A" mask="url(#mask-2)"></path>
                </g>
                <path d="M39.1479,56.5057 L37.5539,56.2927 L37.3419,56.2927 L37.2349,56.5057 C36.9169,56.9307 36.3849,57.2497 35.9599,57.5687 L35.7479,57.6747 L35.7479,57.8877 L35.6419,59.4817 L33.7289,59.7997 L33.0909,58.2057 L32.9849,57.9927 L32.7729,57.9927 C32.4539,57.8877 32.2409,57.8877 32.0279,57.7807 L31.3909,57.4617 L31.1779,57.3557 L30.9659,57.4617 L29.3719,58.3127 L28.2029,56.8237 L29.2659,55.5497 L29.3719,55.3367 L29.2659,55.1237 C29.0529,54.5927 28.9469,54.0617 28.9469,53.5297 L28.9469,53.3177 L28.7339,53.2117 L27.4589,52.3607 L28.0969,50.5547 L29.6909,50.7677 L29.9029,50.7677 L30.0089,50.5547 C30.3279,50.1297 30.8589,49.8117 31.2849,49.4917 L31.4969,49.3857 L31.4969,49.1737 L31.6039,47.5797 L33.5159,47.2607 L34.1539,48.8547 L34.2599,49.0677 L34.4729,49.0677 C34.6849,49.1737 35.0039,49.1737 35.2159,49.2797 C35.4289,49.3857 35.6419,49.4917 35.8539,49.5987 L36.0659,49.7047 L36.2789,49.5987 L37.8729,48.7487 L39.0419,50.2357 L37.9789,51.5117 L37.8729,51.7237 L37.9789,51.9367 C38.1919,52.4677 38.2979,52.9987 38.2979,53.5297 L38.2979,53.7427 L38.5109,53.8497 L39.7859,54.6987 L39.1479,56.5057 Z M38.7229,53.4237 C38.7229,52.7857 38.6169,52.2547 38.4039,51.6167 L39.6799,50.0237 L38.0859,48.0047 L36.1729,48.9607 C35.9599,48.8547 35.7479,48.7477 35.4289,48.6427 C35.2159,48.5357 34.8979,48.4297 34.6849,48.4297 L33.9409,46.4107 L31.3909,46.8357 L31.2849,48.8547 C30.7529,49.1737 30.2219,49.4917 29.9029,50.0237 L27.9909,49.8117 L27.0339,52.2547 L28.6279,53.3177 C28.6279,53.9547 28.7339,54.4857 28.9469,55.1237 L27.6719,56.7187 L29.2659,58.7367 L31.1779,57.7807 C31.3909,57.8877 31.6039,57.9927 31.9219,58.0997 C32.1349,58.2057 32.4539,58.3127 32.6659,58.3127 L33.4099,60.3307 L35.9599,59.9057 L36.0659,57.8877 C36.5979,57.5687 37.1289,57.2497 37.4479,56.7187 L39.3609,56.9307 L40.3169,54.4857 L38.7229,53.4237 Z" id="Fill-18" fill="#FEFEFE"></path>
                <path d="M39.1479,56.5057 L37.5539,56.2927 L37.3419,56.2927 L37.2349,56.5057 C36.9169,56.9307 36.3849,57.2497 35.9599,57.5687 L35.7479,57.6747 L35.7479,57.8877 L35.6419,59.4817 L33.7289,59.7997 L33.0909,58.2057 L32.9849,57.9927 L32.7729,57.9927 C32.4539,57.8877 32.2409,57.8877 32.0279,57.7807 L31.3909,57.4617 L31.1779,57.3557 L30.9659,57.4617 L29.3719,58.3127 L28.2029,56.8237 L29.2659,55.5497 L29.3719,55.3367 L29.2659,55.1237 C29.0529,54.5927 28.9469,54.0617 28.9469,53.5297 L28.9469,53.3177 L28.7339,53.2117 L27.4589,52.3607 L28.0969,50.5547 L29.6909,50.7677 L29.9029,50.7677 L30.0089,50.5547 C30.3279,50.1297 30.8589,49.8117 31.2849,49.4917 L31.4969,49.3857 L31.4969,49.1737 L31.6039,47.5797 L33.5159,47.2607 L34.1539,48.8547 L34.2599,49.0677 L34.4729,49.0677 C34.6849,49.1737 35.0039,49.1737 35.2159,49.2797 C35.4289,49.3857 35.6419,49.4917 35.8539,49.5987 L36.0659,49.7047 L36.2789,49.5987 L37.8729,48.7487 L39.0419,50.2357 L37.9789,51.5117 L37.8729,51.7237 L37.9789,51.9367 C38.1919,52.4677 38.2979,52.9987 38.2979,53.5297 L38.2979,53.7427 L38.5109,53.8497 L39.7859,54.6987 L39.1479,56.5057 Z M38.7229,53.4237 C38.7229,52.7857 38.6169,52.2547 38.4039,51.6167 L39.6799,50.0237 L38.0859,48.0047 L36.1729,48.9607 C35.9599,48.8547 35.7479,48.7477 35.4289,48.6427 C35.2159,48.5357 34.8979,48.4297 34.6849,48.4297 L33.9409,46.4107 L31.3909,46.8357 L31.2849,48.8547 C30.7529,49.1737 30.2219,49.4917 29.9029,50.0237 L27.9909,49.8117 L27.0339,52.2547 L28.6279,53.3177 C28.6279,53.9547 28.7339,54.4857 28.9469,55.1237 L27.6719,56.7187 L29.2659,58.7367 L31.1779,57.7807 C31.3909,57.8877 31.6039,57.9927 31.9219,58.0997 C32.1349,58.2057 32.4539,58.3127 32.6659,58.3127 L33.4099,60.3307 L35.9599,59.9057 L36.0659,57.8877 C36.5979,57.5687 37.1289,57.2497 37.4479,56.7187 L39.3609,56.9307 L40.3169,54.4857 L38.7229,53.4237 Z" id="Stroke-20" stroke="#FEFEFE"></path>
                <path d="M34.5786,53.743 C34.3666,54.168 33.9416,54.381 33.4106,54.274 C32.9846,54.061 32.7726,53.637 32.8786,53.105 C32.9846,52.574 33.5166,52.468 34.0476,52.574 C34.4726,52.786 34.6846,53.212 34.5786,53.743 M31.2846,52.468 C30.7536,53.849 31.4966,55.337 32.8786,55.868 C34.2606,56.399 35.7476,55.762 36.2796,54.381 C36.8106,52.999 36.0666,51.512 34.6846,50.98 C33.3036,50.449 31.7096,51.086 31.2846,52.468" id="Fill-22" fill="#FEFEFE"></path>
                <path d="M49.562,51.1922 L48.605,51.6172 L48.5,51.7232 L48.5,51.8302 C48.393,52.1492 48.287,52.5742 48.181,52.8922 L48.074,52.9992 L48.181,53.1052 L48.712,54.0612 L47.755,54.9122 L46.799,54.1682 L46.693,54.0612 L46.587,54.1682 C46.374,54.2742 46.268,54.2742 46.162,54.2742 C46.055,54.2742 45.843,54.2742 45.63,54.3802 L45.418,54.3802 L45.312,54.4862 L44.674,55.4432 L43.505,55.0182 L43.611,53.9552 L43.611,53.7432 L43.505,53.6362 C43.187,53.4232 42.974,53.1052 42.761,52.7862 L42.655,52.6802 L42.549,52.6802 L41.486,52.6802 L41.273,51.4052 L42.23,50.9802 L42.336,50.8742 L42.336,50.7672 C42.442,50.4492 42.549,50.0232 42.655,49.7052 L42.761,49.5982 L42.655,49.4922 L42.124,48.5362 L43.08,47.6852 L44.037,48.4292 L44.143,48.5362 L44.249,48.4292 C44.461,48.3232 44.568,48.3232 44.674,48.3232 C44.78,48.3232 44.993,48.3232 45.206,48.2162 L45.418,48.2162 L45.524,48.1112 L46.162,47.1542 L47.331,47.5802 L47.224,48.6422 L47.224,48.8542 L47.331,48.9612 C47.649,49.1732 47.862,49.4922 48.074,49.8112 L48.181,49.9172 L48.287,49.9172 L49.35,49.9172 L49.562,51.1922 Z M48.287,49.5982 C48.074,49.2802 47.755,48.9612 47.437,48.7492 L47.543,47.4732 L45.949,46.9422 L45.205,48.1112 C44.993,48.1112 44.886,48.1112 44.674,48.2162 C44.461,48.2162 44.355,48.3232 44.143,48.3232 L42.974,47.4732 L41.699,48.6422 L42.336,49.8112 C42.124,50.1302 42.017,50.5542 41.911,50.9802 L40.742,51.5112 L41.061,53.2122 L42.336,53.2122 C42.549,53.5302 42.867,53.8492 43.186,54.0612 L43.08,55.3372 L44.674,55.8682 L45.418,54.6992 C45.63,54.6992 45.736,54.6992 45.949,54.5922 C46.162,54.5922 46.268,54.4872 46.48,54.4872 L47.649,55.3372 L48.924,54.1682 L48.287,52.9992 C48.5,52.6802 48.605,52.2542 48.712,51.8302 L49.881,51.2982 L49.562,49.5982 L48.287,49.5982 Z" id="Fill-24" fill="#FEFEFE"></path>
                <path d="M49.562,51.1922 L48.605,51.6172 L48.5,51.7232 L48.5,51.8302 C48.393,52.1492 48.287,52.5742 48.181,52.8922 L48.074,52.9992 L48.181,53.1052 L48.712,54.0612 L47.755,54.9122 L46.799,54.1682 L46.693,54.0612 L46.587,54.1682 C46.374,54.2742 46.268,54.2742 46.162,54.2742 C46.055,54.2742 45.843,54.2742 45.63,54.3802 L45.418,54.3802 L45.312,54.4862 L44.674,55.4432 L43.505,55.0182 L43.611,53.9552 L43.611,53.7432 L43.505,53.6362 C43.187,53.4232 42.974,53.1052 42.761,52.7862 L42.655,52.6802 L42.549,52.6802 L41.486,52.6802 L41.273,51.4052 L42.23,50.9802 L42.336,50.8742 L42.336,50.7672 C42.442,50.4492 42.549,50.0232 42.655,49.7052 L42.761,49.5982 L42.655,49.4922 L42.124,48.5362 L43.08,47.6852 L44.037,48.4292 L44.143,48.5362 L44.249,48.4292 C44.461,48.3232 44.568,48.3232 44.674,48.3232 C44.78,48.3232 44.993,48.3232 45.206,48.2162 L45.418,48.2162 L45.524,48.1112 L46.162,47.1542 L47.331,47.5802 L47.224,48.6422 L47.224,48.8542 L47.331,48.9612 C47.649,49.1732 47.862,49.4922 48.074,49.8112 L48.181,49.9172 L48.287,49.9172 L49.35,49.9172 L49.562,51.1922 Z M48.287,49.5982 C48.074,49.2802 47.755,48.9612 47.437,48.7492 L47.543,47.4732 L45.949,46.9422 L45.205,48.1112 C44.993,48.1112 44.886,48.1112 44.674,48.2162 C44.461,48.2162 44.355,48.3232 44.143,48.3232 L42.974,47.4732 L41.699,48.6422 L42.336,49.8112 C42.124,50.1302 42.017,50.5542 41.911,50.9802 L40.742,51.5112 L41.061,53.2122 L42.336,53.2122 C42.549,53.5302 42.867,53.8492 43.186,54.0612 L43.08,55.3372 L44.674,55.8682 L45.418,54.6992 C45.63,54.6992 45.736,54.6992 45.949,54.5922 C46.162,54.5922 46.268,54.4872 46.48,54.4872 L47.649,55.3372 L48.924,54.1682 L48.287,52.9992 C48.5,52.6802 48.605,52.2542 48.712,51.8302 L49.881,51.2982 L49.562,49.5982 L48.287,49.5982 Z" id="Stroke-26" stroke="#FEFEFE"></path>
                <path d="M45.9492,51.2986 C46.0552,51.6166 45.8432,51.9366 45.5242,51.9366 C45.2052,52.0426 44.8862,51.8296 44.7802,51.5116 C44.6742,51.1926 44.8862,50.8736 45.2052,50.8736 C45.6302,50.7676 45.8432,50.9806 45.9492,51.2986 M43.6112,51.7236 C43.8242,52.6806 44.7802,53.2116 45.7362,53.1056 C46.6932,52.8926 47.3302,52.0426 47.1182,51.0856 C46.9052,50.1296 45.9492,49.5986 44.9922,49.7046 C44.0362,49.8116 43.5052,50.7676 43.6112,51.7236" id="Fill-28" fill="#FEFEFE"></path>
            </g>
        </g>
    </g>
</svg>