<?xml version="1.0" encoding="UTF-8"?>
<svg width="67px" height="66px" viewBox="0 0 67 66" version="1.1" xmlns="http://www.w3.org/2000/svg" xmlns:xlink="http://www.w3.org/1999/xlink">
    <!-- Generator: Sketch 53 (72520) - https://sketchapp.com -->
    <title>Group 62</title>
    <desc>Created with Sketch.</desc>
    <g id="Page-1" stroke="none" stroke-width="1" fill="none" fill-rule="evenodd">
        <g id="Artboard" transform="translate(-456.000000, -789.000000)">
            <g id="Group-62" transform="translate(456.600000, 788.000000)">
                <g id="Group-15" fill="#F37739">
                    <g id="Group-3" transform="translate(0.000000, 0.986400)">
                        <path d="M33.0002,0.0136 C51.2252,0.0136 66.0002,14.7846 66.0002,33.0066 C66.0002,51.2286 51.2252,65.9996 33.0002,65.9996 C14.7742,65.9996 0.0002,51.2286 0.0002,33.0066 C0.0002,14.7846 14.7742,0.0136 33.0002,0.0136" id="Fill-1"></path>
                    </g>
                </g>
                <g id="Group" transform="translate(12.000000, 11.500000)" stroke="#FFFFFF" stroke-linejoin="round" stroke-width="2">
                    <g transform="translate(2.471420, 0.000000)" id="Path">
                        <polygon points="14.334236 10.379964 14.334236 5.189982 14.334236 0 18.782792 2.594991 23.231348 5.189982 18.782792 7.784973"></polygon>
                        <g transform="translate(0.000000, 3.707130)" stroke-linecap="round">
                            <path d="M14.087094,1.482852 L1.482852,1.482852"></path>
                            <path d="M1.482852,23.725632 L1.482852,1.482852"></path>
                        </g>
                    </g>
                    <g transform="translate(30.657040, 3.707130)" stroke-linecap="round">
                        <g id="Path">
                            <path d="M0.112139,1.482852 L5.796405,1.482852"></path>
                            <path d="M5.796405,17.423511 L5.796405,1.482852"></path>
                        </g>
                        <rect id="Rectangle" x="0.977136" y="17.423511" width="9.638538" height="20.512786"></rect>
                    </g>
                    <path d="M26.567765,37.689155 L12.109958,37.689155" id="Path" stroke-linecap="round"></path>
                    <circle id="Oval" stroke-linecap="round" cx="6.549263" cy="37.689155" r="5.560695"></circle>
                </g>
            </g>
        </g>
    </g>
</svg>