<?xml version="1.0" encoding="UTF-8"?>
<svg width="67px" height="66px" viewBox="0 0 67 66" version="1.1" xmlns="http://www.w3.org/2000/svg" xmlns:xlink="http://www.w3.org/1999/xlink">
    <!-- Generator: Sketch 53 (72520) - https://sketchapp.com -->
    <title>Group 61</title>
    <desc>Created with Sketch.</desc>
    <defs>
        <polygon id="path-1" points="0.384093495 0.322734487 41.7211907 0.322734487 41.7211907 41.8144129 0.384093495 41.8144129"></polygon>
    </defs>
    <g id="Page-1" stroke="none" stroke-width="1" fill="none" fill-rule="evenodd">
        <g id="Artboard" transform="translate(-355.000000, -789.000000)">
            <g id="Group-61" transform="translate(355.200000, 788.000000)">
                <g id="Group-15" fill="#F37739">
                    <g id="Group-3" transform="translate(0.000000, 0.986400)">
                        <path d="M33.0002,0.0136 C51.2252,0.0136 66.0002,14.7846 66.0002,33.0066 C66.0002,51.2286 51.2252,65.9996 33.0002,65.9996 C14.7742,65.9996 0.0002,51.2286 0.0002,33.0066 C0.0002,14.7846 14.7742,0.0136 33.0002,0.0136" id="Fill-1"></path>
                    </g>
                </g>
                <g id="Group-7" transform="translate(11.000000, 13.749850)">
                    <polygon id="Fill-1" fill="#FEFEFE" points="0 38.4898449 0.903749401 39.1905367 4.14552138 35.0078357 3.240342 34.3071439"></polygon>
                    <polygon id="Fill-2" fill="#FEFEFE" points="0.705267729 41.9814349 1.5174982 42.7879455 6.36228138 37.9260025 5.55005091 37.1194919"></polygon>
                    <polygon id="Fill-3" fill="#FEFEFE" points="4.49029034 42.5335514 5.1924121 43.4373008 9.3708231 40.1912389 8.66727135 39.2874895"></polygon>
                    <g id="Group-6" transform="translate(1.429983, 0.107535)">
                        <mask id="mask-2" fill="white">
                            <use xlink:href="#path-1"></use>
                        </mask>
                        <g id="Clip-5"></g>
                        <path d="M27.9827698,18.5056862 C25.6933667,18.5056862 23.6928201,16.646708 23.6928201,14.2157366 C23.6928201,11.7847651 25.5517983,9.92578686 27.9827698,9.92578686 C30.270743,9.92578686 32.2727195,11.7847651 32.2727195,14.2157366 C32.2727195,16.646708 30.270743,18.5056862 27.9827698,18.5056862 M40.2806256,1.77488246 C40.2806256,1.77488246 30.698308,-6.23302363 15.6834841,15.3597231 C15.1129208,16.2177131 14.5409275,16.9327047 13.9689342,17.7906946 C5.24603648,17.3616997 0.384093495,26.2275957 0.384093495,26.2275957 L6.96201635,27.9435756 C6.24702474,28.9445638 5.81802977,29.6595554 5.3890348,30.2315487 L5.3890348,30.374547 C5.3890348,30.374547 4.81704151,31.0895387 7.53400964,34.2355018 L7.67700796,34.3785001 L7.96300461,34.6644967 C10.3939761,36.6664733 11.3935344,36.8094716 11.5379627,36.6664733 L11.8239593,36.5234749 C12.3959526,36.09448 13.1109442,35.665485 14.1119325,34.9504934 L15.9709107,41.8144129 C15.9709107,41.8144129 24.8368067,36.9524699 24.4078117,28.2295722 L24.4078117,27.9435756 C25.1228034,27.5145806 25.837795,26.9425873 26.5527866,26.370594 C48.2885317,11.3557701 40.2806256,1.77488246 40.2806256,1.77488246" id="Fill-4" fill="#FEFEFE" mask="url(#mask-2)"></path>
                    </g>
                </g>
            </g>
        </g>
    </g>
</svg>