<?xml version="1.0" encoding="UTF-8"?>
<svg width="67px" height="66px" viewBox="0 0 67 66" version="1.1" xmlns="http://www.w3.org/2000/svg" xmlns:xlink="http://www.w3.org/1999/xlink">
    <!-- Generator: Sketch 53 (72520) - https://sketchapp.com -->
    <title>Group 60</title>
    <desc>Created with Sketch.</desc>
    <defs>
        <polygon id="path-1" points="0.7998 0.5 6.7998 0.5 6.7998 6.4999 0.7998 6.4999"></polygon>
        <polygon id="path-3" points="0.5002 0.3002 11.9 0.3002 11.9 11.7002 0.5002 11.7002"></polygon>
    </defs>
    <g id="Page-1" stroke="none" stroke-width="1" fill="none" fill-rule="evenodd">
        <g id="Artboard" transform="translate(-253.000000, -789.000000)">
            <g id="Group-60" transform="translate(253.800000, 788.000000)">
                <g id="Group-15" fill="#F37739">
                    <g id="Group-3" transform="translate(0.000000, 0.986400)">
                        <path d="M33.0002,0.0136 C51.2252,0.0136 66.0002,14.7846 66.0002,33.0066 C66.0002,51.2286 51.2252,65.9996 33.0002,65.9996 C14.7742,65.9996 0.0002,51.2286 0.0002,33.0066 C0.0002,14.7846 14.7742,0.0136 33.0002,0.0136" id="Fill-1"></path>
                    </g>
                </g>
                <g id="Group-23" transform="translate(10.000000, 9.749850)">
                    <path d="M23.2002,41.4999 C24.8562,41.4999 26.2002,42.8429 26.2002,44.4999 C26.2002,46.1569 24.8562,47.4999 23.2002,47.4999 C21.5432,47.4999 20.2002,46.1569 20.2002,44.4999 C20.2002,42.8429 21.5432,41.4999 23.2002,41.4999" id="Fill-1" fill="#FEFEFE"></path>
                    <g id="Group-5" transform="translate(19.000000, 0.500000)">
                        <mask id="mask-2" fill="white">
                            <use xlink:href="#path-1"></use>
                        </mask>
                        <g id="Clip-4"></g>
                        <path d="M3.7998,0.4999 C5.4568,0.4999 6.7998,1.8429 6.7998,3.4999 C6.7998,5.1569 5.4568,6.4999 3.7998,6.4999 C2.1438,6.4999 0.7998,5.1569 0.7998,3.4999 C0.7998,1.8429 2.1438,0.4999 3.7998,0.4999" id="Fill-3" fill="#FEFEFE" mask="url(#mask-2)"></path>
                    </g>
                    <path d="M23.2002,28.1 C24.8562,28.1 26.2002,29.443 26.2002,31.1 C26.2002,32.757 24.8562,34.1 23.2002,34.1 C21.5432,34.1 20.2002,32.757 20.2002,31.1 C20.2002,29.443 21.5432,28.1 23.2002,28.1" id="Fill-6" fill="#FEFEFE"></path>
                    <path d="M23.2002,14.4999 C24.8562,14.4999 26.2002,15.8429 26.2002,17.4999 C26.2002,19.1569 24.8562,20.4999 23.2002,20.4999 C21.5432,20.4999 20.2002,19.1569 20.2002,17.4999 C20.2002,15.8429 21.5432,14.4999 23.2002,14.4999" id="Fill-8" fill="#FEFEFE"></path>
                    <g id="Group-12" transform="translate(34.000000, 11.500000)">
                        <mask id="mask-4" fill="white">
                            <use xlink:href="#path-3"></use>
                        </mask>
                        <g id="Clip-11"></g>
                        <path d="M6.2002,0.3002 C9.3472,0.3002 11.9002,2.8522 11.9002,6.0002 C11.9002,9.1482 9.3472,11.7002 6.2002,11.7002 C3.0522,11.7002 0.5002,9.1482 0.5002,6.0002 C0.5002,2.8522 3.0522,0.3002 6.2002,0.3002" id="Fill-10" fill="#FEFEFE" mask="url(#mask-4)"></path>
                    </g>
                    <path d="M5.7002,25.3998 C8.8472,25.3998 11.4002,27.9518 11.4002,31.0998 C11.4002,34.2478 8.8472,36.7998 5.7002,36.7998 C2.5522,36.7998 0.0002,34.2478 0.0002,31.0998 C0.0002,27.9518 2.5522,25.3998 5.7002,25.3998" id="Fill-13" fill="#FEFEFE"></path>
                    <path d="M24.4004,5.3998 L36.7004,14.4998" id="Stroke-15" stroke="#FEFEFE" stroke-width="2"></path>
                    <path d="M8.7998,29.1 L21.9998,17.9" id="Stroke-17" stroke="#FEFEFE" stroke-width="2"></path>
                    <path d="M8.2998,33.3002 L22.4008,44.5002" id="Stroke-19" stroke="#FEFEFE" stroke-width="2"></path>
                    <path d="M24,30.2001 L38.8,19.1001" id="Stroke-21" stroke="#FEFEFE" stroke-width="2"></path>
                </g>
            </g>
        </g>
    </g>
</svg>