<?xml version="1.0" encoding="UTF-8"?>
<svg width="66px" height="66px" viewBox="0 0 66 66" version="1.1" xmlns="http://www.w3.org/2000/svg" xmlns:xlink="http://www.w3.org/1999/xlink">
    <!-- Generator: Sketch 53 (72520) - https://sketchapp.com -->
    <title>Group 60</title>
    <desc>Created with Sketch.</desc>
    <g id="Page-1" stroke="none" stroke-width="1" fill="none" fill-rule="evenodd">
        <g id="Artboard" transform="translate(-45.000000, -789.000000)">
            <g id="Group-60" transform="translate(45.000000, 788.000000)">
                <g id="Group-15" fill="#F37739">
                    <g id="Group-3" transform="translate(0.000000, 0.986400)">
                        <path d="M33.0002,0.0136 C51.2252,0.0136 66.0002,14.7846 66.0002,33.0066 C66.0002,51.2286 51.2252,65.9996 33.0002,65.9996 C14.7742,65.9996 0.0002,51.2286 0.0002,33.0066 C0.0002,14.7846 14.7742,0.0136 33.0002,0.0136" id="Fill-1"></path>
                    </g>
                </g>
                <g id="Group-20" transform="translate(11.000000, 14.500000)">
                    <polygon id="Fill-1" fill="#FEFEFE" points="0 36.9061 43.598 36.9061 43.598 0.0001 0 0.0001"></polygon>
                    <polygon id="Fill-2" fill="#F37738" points="1.212 11.1521 13.823 11.1521 13.823 1.2071 1.212 1.2071"></polygon>
                    <polygon id="Fill-3" fill="#FEFEFE" points="4.632 6.7241 10.403 6.7241 10.403 5.6361 4.632 5.6361"></polygon>
                    <polygon id="Fill-4" fill="#F37738" points="14.818 11.1521 28.44 11.1521 28.44 1.2071 14.818 1.2071"></polygon>
                    <polygon id="Fill-5" fill="#FEFEFE" points="18.512 6.7241 24.746 6.7241 24.746 5.6361 18.512 5.6361"></polygon>
                    <polygon id="Fill-6" fill="#F37738" points="30.002 11.1521 42.613 11.1521 42.613 1.2071 30.002 1.2071"></polygon>
                    <polygon id="Fill-7" fill="#FEFEFE" points="33.422 6.7241 39.193 6.7241 39.193 5.6361 33.422 5.6361"></polygon>
                    <polygon id="Fill-8" fill="#F37738" points="30.002 24.3031 41.987 24.3031 41.987 12.2431 30.002 12.2431"></polygon>
                    <polygon id="Fill-9" fill="#FEFEFE" points="33.251 18.9331 38.736 18.9331 38.736 17.6141 33.251 17.6141"></polygon>
                    <polygon id="Fill-10" fill="#F37738" points="0.986 24.3021 13.597 24.3021 13.597 12.2431 0.986 12.2431"></polygon>
                    <polygon id="Fill-11" fill="#FEFEFE" points="4.405 18.9331 10.176 18.9331 10.176 17.6141 4.405 17.6141"></polygon>
                    <polygon id="Fill-12" fill="#F37738" points="14.818 24.6001 28.536 24.6001 28.536 12.2441 14.818 12.2441"></polygon>
                    <polygon id="Fill-13" fill="#FEFEFE" points="18.538 19.0981 24.816 19.0981 24.816 17.7461 18.538 17.7461"></polygon>
                    <polygon id="Fill-14" fill="#F37738" points="1.212 35.6981 13.823 35.6981 13.823 25.7531 1.212 25.7531"></polygon>
                    <polygon id="Fill-15" fill="#FEFEFE" points="4.632 31.2701 10.403 31.2701 10.403 30.1821 4.632 30.1821"></polygon>
                    <polygon id="Fill-16" fill="#F37738" points="14.818 35.6981 28.536 35.6981 28.536 25.7531 14.818 25.7531"></polygon>
                    <polygon id="Fill-17" fill="#FEFEFE" points="18.538 31.2701 24.816 31.2701 24.816 30.1821 18.538 30.1821"></polygon>
                    <polygon id="Fill-18" fill="#F37738" points="30.002 35.6981 41.987 35.6981 41.987 25.7531 30.002 25.7531"></polygon>
                    <polygon id="Fill-19" fill="#FEFEFE" points="33.251 31.2701 38.736 31.2701 38.736 30.1821 33.251 30.1821"></polygon>
                </g>
            </g>
        </g>
    </g>
</svg>