<?xml version="1.0" encoding="UTF-8"?>
<svg width="48px" height="48px" viewBox="0 0 48 48" version="1.1" xmlns="http://www.w3.org/2000/svg" xmlns:xlink="http://www.w3.org/1999/xlink">
    <title>edge-node</title>
    <g id="V2-Icons" stroke="none" stroke-width="1" fill="none" fill-rule="evenodd">
        <g id="IBM/Cloud/Network" transform="translate(-637, -20)">
            <g id="edge-node" transform="translate(637, 20)">
                <rect id="Rectangle-Copy-11" fill="#1192E8" x="0" y="0" width="48" height="48"></rect>
                <g id="edge-node--alt" transform="translate(12, 12)">
                    <path d="M20.25,16.5 C19.6818688,16.5012371 19.1355171,16.7187159 18.72195,17.10825 L15.719025,15.306525 C15.7603245,15.1042617 15.7603245,14.8957383 15.719025,14.693475 L18.72195,12.89175 C19.5026868,13.6121791 20.6817202,13.6861567 21.5463849,13.0689671 C22.4110497,12.4517776 22.7242073,11.3126882 22.2965701,10.34022 C21.8689328,9.36775178 20.8177824,8.8286089 19.7784851,9.04867556 C18.7391879,9.26874222 17.9967763,10.1876641 18,11.25 C18.0031842,11.3529021 18.0135848,11.4554539 18.031125,11.5569 L15.0282,13.358625 C14.1354201,12.5215526 12.7373109,12.5515629 11.8812722,13.4261737 C11.0252335,14.3007844 11.0252335,15.6992156 11.8812722,16.5738263 C12.7373109,17.4484371 14.1354201,17.4784474 15.0282,16.641375 L18.031125,18.4431 C18.0135848,18.5445461 18.0031842,18.6470979 18,18.75 C18,19.9926407 19.0073593,21 20.25,21 C21.4926407,21 22.5,19.9926407 22.5,18.75 C22.5,17.5073593 21.4926407,16.5 20.25,16.5 L20.25,16.5 Z M20.25,10.5 C20.6642136,10.5 21,10.8357864 21,11.25 C21,11.6642136 20.6642136,12 20.25,12 C19.8357864,12 19.5,11.6642136 19.5,11.25 C19.5003722,10.8359407 19.8359407,10.5003722 20.25,10.5 Z M13.5,15.75 C13.0857864,15.75 12.75,15.4142136 12.75,15 C12.75,14.5857864 13.0857864,14.25 13.5,14.25 C13.9142136,14.25 14.25,14.5857864 14.25,15 C14.2496278,15.4140593 13.9140593,15.7496278 13.5,15.75 L13.5,15.75 Z M20.25,19.5 C19.8357864,19.5 19.5,19.1642136 19.5,18.75 C19.5,18.3357864 19.8357864,18 20.25,18 C20.6642136,18 21,18.3357864 21,18.75 C20.9996278,19.1640593 20.6640593,19.4996278 20.25,19.5 L20.25,19.5 Z" id="Shape" fill="#FFFFFF" fill-rule="nonzero"></path>
                    <circle id="Oval" fill="#FFFFFF" fill-rule="nonzero" cx="5.25" cy="6" r="1"></circle>
                    <circle id="Oval" fill="#FFFFFF" fill-rule="nonzero" cx="5.25" cy="12" r="1"></circle>
                    <circle id="Oval" fill="#FFFFFF" fill-rule="nonzero" cx="5.25" cy="18" r="1"></circle>
                    <path d="M16.5,9.75 L16.5,3.75 C16.4990494,2.92196695 15.8280331,2.2509506 15,2.25 L3,2.25 C2.17196695,2.2509506 1.5009506,2.92196695 1.5,3.75 L1.5,20.25 C1.5009506,21.0780331 2.17196695,21.7490494 3,21.75 L15,21.75 L15,20.25 L3,20.25 L3,15.75 L9,15.75 L9,14.25 L3,14.25 L3,9.75 L16.5,9.75 Z M3,3.75 L15,3.75 L15,8.25 L3,8.25 L3,3.75 Z" id="Shape" fill="#FFFFFF" fill-rule="nonzero"></path>
                    <rect id="_Transparent_Rectangle_" x="0" y="0" width="24" height="24"></rect>
                </g>
            </g>
        </g>
    </g>
</svg>