<?xml version="1.0" encoding="UTF-8"?>
<svg width="48px" height="48px" viewBox="0 0 48 48" version="1.1" xmlns="http://www.w3.org/2000/svg" xmlns:xlink="http://www.w3.org/1999/xlink">
    <title>gateway</title>
    <g id="V2-Icons" stroke="none" stroke-width="1" fill="none" fill-rule="evenodd">
        <g id="IBM/Cloud/Network" transform="translate(-767, -24)">
            <g id="gateway" transform="translate(767, 24)">
                <rect id="Rectangle-Copy-12" fill="#1192E8" x="0" y="0" width="48" height="48"></rect>
                <g transform="translate(12, 12)">
                    <path d="M23.250015,12 C23.2511428,11.601957 23.0928964,11.2200211 22.810575,10.939425 L18.465825,6.59475 L20.61675,4.443975 C21.2725253,4.61976125 21.9646091,4.33316003 22.3041131,3.74521522 C22.6436171,3.15727041 22.5458812,2.41459421 22.0658242,1.93450325 C21.5857672,1.4544123 20.8430979,1.35662393 20.2551291,1.69608633 C19.6671603,2.03554874 19.3805101,2.72761227 19.55625,3.3834 L17.40525,5.534175 L13.060575,1.189425 C12.7793261,0.908080633 12.3978135,0.750014983 12,0.750014983 C11.6021865,0.750014983 11.2206739,0.908080633 10.939425,1.189425 L6.59475,5.534175 L4.44375,3.3834 C4.61948987,2.72761227 4.33283971,2.03554874 3.74487089,1.69608633 C3.15690208,1.35662393 2.41423279,1.4544123 1.93417578,1.93450325 C1.45411878,2.41459421 1.35638293,3.15727041 1.69588691,3.74521522 C2.0353909,4.33316003 2.7274747,4.61976125 3.38325,4.443975 L5.534175,6.59475 L1.189425,10.939425 C0.908080633,11.2206739 0.750014983,11.6021865 0.750014983,12 C0.750014983,12.3978135 0.908080633,12.7793261 1.189425,13.060575 L5.534175,17.40525 L3.38325,19.556025 C2.7274747,19.3802388 2.0353909,19.66684 1.69588691,20.2547848 C1.35638293,20.8427296 1.45411878,21.5854058 1.93417578,22.0654967 C2.41423279,22.5455877 3.15690208,22.6433761 3.74487089,22.3039137 C4.33283971,21.9644513 4.61948987,21.2723877 4.44375,20.6166 L6.59475,18.465825 L10.939425,22.810575 C11.2206739,23.0919194 11.6021865,23.249985 12,23.249985 C12.3978135,23.249985 12.7793261,23.0919194 13.060575,22.810575 L17.40525,18.465825 L19.55625,20.6166 C19.3805101,21.2723877 19.6671603,21.9644513 20.2551291,22.3039137 C20.8430979,22.6433761 21.5857672,22.5455877 22.0658242,22.0654967 C22.5458812,21.5854058 22.6436171,20.8427296 22.3041131,20.2547848 C21.9646091,19.66684 21.2725253,19.3802388 20.61675,19.556025 L18.465825,17.40525 L22.810575,13.060575 C23.0928326,12.7799362 23.2510675,12.3980281 23.250015,12 Z M17.40525,16.34475 L15.310575,14.25 L14.25,15.310575 L16.34475,17.40525 L12,21.75 L7.65525,17.40525 L9.75,15.310575 L8.689425,14.25 L6.59475,16.34475 L2.25,12 L6.594375,7.654875 L8.689425,9.75 L9.75,8.689425 L7.654875,6.594375 L12,2.25 L16.345125,6.594375 L14.25,8.689425 L15.310575,9.75 L17.405625,7.654875 L21.75,12 L17.40525,16.34475 Z" id="Shape" fill="#FFFFFF" fill-rule="nonzero"></path>
                    <rect id="_Transparent_Rectangle_" x="0" y="0" width="24" height="24"></rect>
                </g>
            </g>
        </g>
    </g>
</svg>