<?xml version="1.0" encoding="UTF-8"?>
<svg width="49px" height="48px" viewBox="0 0 49 48" version="1.1" xmlns="http://www.w3.org/2000/svg" xmlns:xlink="http://www.w3.org/1999/xlink">
    <title>ibm-cloud--subnets 2</title>
    <g id="V2-Icons" stroke="none" stroke-width="1" fill="none" fill-rule="evenodd">
        <g id="IBM/Cloud/Network" transform="translate(-1095, -81)">
            <g id="ibm-cloud--subnets" transform="translate(1095, 81)">
                <rect id="Rectangle" fill="#1192E8" x="0" y="0" width="49" height="48"></rect>
                <g transform="translate(13, 12)">
                    <path d="M19.5,16.5 C18.9665684,16.4988268 18.4446962,16.6553885 18,16.95 L14.560725,13.5 L13.5,14.560575 L16.95,18 C16.8180415,18.2360005 16.7172028,18.4880972 16.65,18.75 L7.393725,18.75 C7.31878548,18.4836699 7.20282058,18.2306372 7.05,18 L18,7.05 C18.4446962,7.34461153 18.9665684,7.50117317 19.5,7.5 C21.0605428,7.50627148 22.3652785,6.31508787 22.5007337,4.76042225 C22.6361889,3.20575664 21.5571207,1.80687653 20.019008,1.54316779 C18.4808952,1.27945905 16.9974765,2.23900195 16.607325,3.75 L7.425,3.75 C7.06313804,2.43009997 5.86855942,1.51119334 4.5,1.5 C2.84314575,1.5 1.5,2.84314575 1.5,4.5 C1.5,6.15685425 2.84314575,7.5 4.5,7.5 C5.03343359,7.5011866 5.55530954,7.34462381 6,7.05 L9.43935,10.5 L10.5,9.439425 L7.05,6 C7.18196232,5.76400128 7.28280118,5.51190412 7.35,5.25 L16.60635,5.25 C16.6812984,5.51631381 16.7972356,5.76934147 16.95,6 L6,16.95 C5.55530954,16.6553762 5.03343359,16.4988134 4.5,16.5 C2.93945716,16.4937285 1.63472149,17.6849121 1.4992663,19.2395777 C1.36381111,20.7942434 2.44287925,22.1931235 3.98099205,22.4568322 C5.51910485,22.720541 7.00252354,21.7609981 7.392675,20.25 L16.575,20.25 C16.9602417,21.7657497 18.4424692,22.7336443 19.9851826,22.4768493 C21.527896,22.2200543 22.6166618,20.8242008 22.4901221,19.2653884 C22.3635824,17.706576 21.0639332,16.5046068 19.5,16.5 Z M19.5,3 C20.3284271,3 21,3.67157288 21,4.5 C21,5.32842712 20.3284271,6 19.5,6 C18.6715729,6 18,5.32842712 18,4.5 C18.0023892,3.67256453 18.6725645,3.00238918 19.5,3 L19.5,3 Z M4.5,6 C3.67157288,6 3,5.32842712 3,4.5 C3,3.67157288 3.67157288,3 4.5,3 C5.32842712,3 6,3.67157288 6,4.5 C5.99761082,5.32743547 5.32743547,5.99761082 4.5,6 Z M4.5,21 C3.67157288,21 3,20.3284271 3,19.5 C3,18.6715729 3.67157288,18 4.5,18 C5.32842712,18 6,18.6715729 6,19.5 C5.99761082,20.3274355 5.32743547,20.9976108 4.5,21 L4.5,21 Z M19.5,21 C18.6715729,21 18,20.3284271 18,19.5 C18,18.6715729 18.6715729,18 19.5,18 C20.3284271,18 21,18.6715729 21,19.5 C20.9976108,20.3274355 20.3274355,20.9976108 19.5,21 L19.5,21 Z" id="Shape" fill="#FFFFFF" fill-rule="nonzero"></path>
                    <rect id="_Transparent_Rectangle_" x="0" y="0" width="24" height="24"></rect>
                </g>
            </g>
        </g>
    </g>
</svg>