<?xml version="1.0" encoding="UTF-8"?>
<svg width="48px" height="48px" viewBox="0 0 48 48" version="1.1" xmlns="http://www.w3.org/2000/svg" xmlns:xlink="http://www.w3.org/1999/xlink">
    <title>ibm-cloud--vpc 2</title>
    <g id="V2-Icons" stroke="none" stroke-width="1" fill="none" fill-rule="evenodd">
        <g id="IBM/Cloud/Network" transform="translate(-1427, -86)">
            <g id="ibm-cloud--vpc" transform="translate(1427, 86)">
                <rect id="Rectangle-Copy-61" fill="#1192E8" x="0" y="0" width="48" height="48"></rect>
                <g transform="translate(12.0004, 12)">
                    <path d="M17.560575,16.5 L7.5,6.439425 L7.5,1.5 L1.5,1.5 L1.5,7.5 L6.439425,7.5 L16.5,17.560575 L16.5,22.5 L22.5,22.5 L22.5,16.5 L17.560575,16.5 Z M6,6 L3,6 L3,3 L6,3 L6,6 Z M21,21 L18,21 L18,18 L21,18 L21,21 Z" id="Shape" fill="#FFFFFF" fill-rule="nonzero"></path>
                    <path d="M22.5,4.5 C22.5,2.8458 21.1542,1.5 19.5,1.5 C18.1062,1.5 16.94205,2.45985 16.606575,3.75 L9.75,3.75 L9.75,5.25 L16.606575,5.25 C16.879425,6.299175 17.700975,7.120575 18.75,7.393425 L18.75,14.25 L20.25,14.25 L20.25,7.393425 C21.54015,7.05795 22.5,5.8938 22.5,4.5 Z M19.5,6 C18.67275,6 18,5.326875 18,4.5 C18,3.673125 18.67275,3 19.5,3 C20.32725,3 21,3.673125 21,4.5 C21,5.326875 20.32725,6 19.5,6 Z" id="Shape" fill="#FFFFFF" fill-rule="nonzero"></path>
                    <path d="M14.25,18.75 L7.393425,18.75 C7.120575,17.700825 6.299025,16.879425 5.25,16.606575 L5.25,9.75 L3.75,9.75 L3.75,16.606575 C2.45985,16.94205 1.5,18.1062 1.5,19.5 C1.5,21.1542 2.8458,22.5 4.5,22.5 C5.8938,22.5 7.05795,21.54015 7.393425,20.25 L14.25,20.25 L14.25,18.75 Z M4.5,21 C3.67275,21 3,20.326875 3,19.5 C3,18.673125 3.67275,18 4.5,18 C5.32725,18 6,18.673125 6,19.5 C6,20.326875 5.32725,21 4.5,21 Z" id="Shape" fill="#FFFFFF" fill-rule="nonzero"></path>
                    <rect id="_Transparent_Rectangle_" x="0" y="0" width="24" height="24"></rect>
                </g>
            </g>
        </g>
    </g>
</svg>