<?xml version="1.0" encoding="UTF-8"?>
<svg width="48px" height="48px" viewBox="0 0 48 48" version="1.1" xmlns="http://www.w3.org/2000/svg" xmlns:xlink="http://www.w3.org/1999/xlink">
    <title>Internet</title>
    <g id="V2-Icons" stroke="none" stroke-width="1" fill="none" fill-rule="evenodd">
        <g id="IBM/Cloud/Network" transform="translate(-1164, -24)">
            <g id="Internet" transform="translate(1164, 24)">
                <rect id="Rectangle-Copy-43" fill="#1192E8" x="0" y="0" width="48" height="48"></rect>
                <g transform="translate(12, 12)">
                    <path d="M12,1.5 C6.20101013,1.5 1.5,6.20101013 1.5,12 C1.5,17.7989899 6.20101013,22.5 12,22.5 C17.7989899,22.5 22.5,17.7989899 22.5,12 C22.5,9.21522686 21.3937532,6.54451077 19.4246212,4.5753788 C17.4554892,2.60624682 14.7847731,1.5 12,1.5 L12,1.5 Z M21,11.25 L16.5,11.25 C16.4124516,8.48781461 15.6968493,5.78186317 14.4075,3.3375 C18.0460573,4.33279072 20.6778597,7.4915524 21,11.25 L21,11.25 Z M12,21 C11.8326884,21.0112351 11.6648116,21.0112351 11.4975,21 C9.94371427,18.5221404 9.08138226,15.6735963 9,12.75 L15,12.75 C14.9253856,15.6714929 14.0708685,18.5198833 12.525,21 C12.3502149,21.012265 12.1747851,21.012265 12,21 L12,21 Z M9,11.25 C9.07461441,8.32850708 9.92913152,5.4801167 11.475,3 C11.8089491,2.96247432 12.1460509,2.96247432 12.48,3 C14.0417072,5.47559712 14.9118553,8.32429651 15,11.25 L9,11.25 Z M9.57,3.3375 C8.2884718,5.78373382 7.58058982,8.48958704 7.5,11.25 L3,11.25 C3.32214033,7.4915524 5.95394271,4.33279072 9.5925,3.3375 L9.57,3.3375 Z M3.0375,12.75 L7.5375,12.75 C7.61576923,15.5098228 8.32107795,18.2156435 9.6,20.6625 C5.97323713,19.6566204 3.35537073,16.5002215 3.0375,12.75 Z M14.4075,20.6625 C15.6968493,18.2181368 16.4124516,15.5121854 16.5,12.75 L21,12.75 C20.6778597,16.5084476 18.0460573,19.6672093 14.4075,20.6625 Z" id="Shape" fill="#FFFFFF" fill-rule="nonzero"></path>
                    <polygon id="_Transparent_Rectangle_" transform="translate(12, 12) rotate(90) translate(-12, -12)" points="2.57175828e-15 -5.32907052e-15 24 -5.81892924e-15 24 24 2.57175828e-15 24"></polygon>
                </g>
            </g>
        </g>
    </g>
</svg>