<?xml version="1.0" encoding="UTF-8"?>
<svg width="48px" height="48px" viewBox="0 0 48 48" version="1.1" xmlns="http://www.w3.org/2000/svg" xmlns:xlink="http://www.w3.org/1999/xlink">
    <title>load-balancer--pool</title>
    <g id="V2-Icons" stroke="none" stroke-width="1" fill="none" fill-rule="evenodd">
        <g id="IBM/Cloud/Network" transform="translate(-115, -86)">
            <g id="load-balancer--pool" transform="translate(115, 86)">
                <rect id="Rectangle-Copy-39" fill="#1192E8" x="0" y="0" width="48" height="48"></rect>
                <g transform="translate(12, 12)">
                    <rect id="Rectangle" fill="#FFFFFF" fill-rule="nonzero" x="7.5" y="11.25" width="9" height="1.5"></rect>
                    <path d="M6.525,4.7139 C6.67142591,4.41357081 6.74832881,4.0841188 6.75,3.75 C6.75,2.50735931 5.74264069,1.5 4.5,1.5 C3.25735931,1.5 2.25,2.50735931 2.25,3.75 C2.25,4.99264069 3.25735931,6 4.5,6 C4.83418487,5.99830922 5.16367597,5.9211921 5.4639,5.7744 L7.5,7.810575 L7.5,9.75 L9,9.75 L9,7.189425 L6.525,4.7139 Z M4.5,4.5 C4.08578644,4.5 3.75,4.16421356 3.75,3.75 C3.75,3.33578644 4.08578644,3 4.5,3 C4.91421356,3 5.25,3.33578644 5.25,3.75 C5.24962785,4.16405931 4.91405931,4.49962785 4.5,4.5 Z" id="Shape" fill="#FFFFFF" fill-rule="nonzero"></path>
                    <path d="M14.2500215,3.75 C14.2549703,2.60453808 13.3985787,1.63817994 12.2608273,1.50540379 C11.123076,1.37262763 10.067179,2.11582075 9.80825584,3.23164624 C9.54933273,4.34747173 10.1700418,5.47971498 11.25,5.86155 L11.25,9.75 L12.75,9.75 L12.75,5.861925 C13.6463441,5.54604779 14.2469893,4.7003695 14.2500215,3.75 L14.2500215,3.75 Z M12,4.5 C11.5857864,4.5 11.25,4.16421356 11.25,3.75 C11.25,3.33578644 11.5857864,3 12,3 C12.4142136,3 12.75,3.33578644 12.75,3.75 C12.7496278,4.16405931 12.4140593,4.49962785 12,4.5 Z" id="Shape" fill="#FFFFFF" fill-rule="nonzero"></path>
                    <path d="M19.5,1.5 C18.2579248,1.50136403 17.251364,2.50792475 17.25,3.75 C17.2516712,4.0841188 17.3285741,4.41357081 17.475,4.7139 L15,7.189425 L15,9.75 L16.5,9.75 L16.5,7.810575 L18.5361,5.7744 C18.836324,5.9211921 19.1658151,5.99830922 19.5,6 C20.7426407,6 21.75,4.99264069 21.75,3.75 C21.75,2.50735931 20.7426407,1.5 19.5,1.5 L19.5,1.5 Z M19.5,4.5 C19.0857864,4.5 18.75,4.16421356 18.75,3.75 C18.75,3.33578644 19.0857864,3 19.5,3 C19.9142136,3 20.25,3.33578644 20.25,3.75 C20.2496278,4.16405931 19.9140593,4.49962785 19.5,4.5 Z" id="Shape" fill="#FFFFFF" fill-rule="nonzero"></path>
                    <path d="M9,14.25 L7.5,14.25 L7.5,16.189425 L5.46405,18.2256 C5.16377257,18.078808 4.83423283,18.0016914 4.5,18 C3.25735931,18 2.25,19.0073593 2.25,20.25 C2.25,21.4926407 3.25735931,22.5 4.5,22.5 C5.74264069,22.5 6.75,21.4926407 6.75,20.25 C6.74832881,19.9158812 6.67142591,19.5864292 6.525,19.2861 L9,16.810575 L9,14.25 Z M4.5,21 C4.08578644,21 3.75,20.6642136 3.75,20.25 C3.75,19.8357864 4.08578644,19.5 4.5,19.5 C4.91421356,19.5 5.25,19.8357864 5.25,20.25 C5.24962785,20.6640593 4.91405931,20.9996278 4.5,21 L4.5,21 Z" id="Shape" fill="#FFFFFF" fill-rule="nonzero"></path>
                    <path d="M12.75,18.138075 L12.75,14.25 L11.25,14.25 L11.25,18.138075 C10.21684,18.5033522 9.59709594,19.5598247 9.78240324,20.6398748 C9.96771055,21.7199249 10.9041683,22.5093953 12,22.5093953 C13.0958317,22.5093953 14.0322895,21.7199249 14.2175968,20.6398748 C14.4029041,19.5598247 13.78316,18.5033522 12.75,18.138075 Z M12,21 C11.5857864,21 11.25,20.6642136 11.25,20.25 C11.25,19.8357864 11.5857864,19.5 12,19.5 C12.4142136,19.5 12.75,19.8357864 12.75,20.25 C12.7496278,20.6640593 12.4140593,20.9996278 12,21 L12,21 Z" id="Shape" fill="#FFFFFF" fill-rule="nonzero"></path>
                    <path d="M19.5,18 C19.1657672,18.0016914 18.8362274,18.078808 18.53595,18.2256 L16.5,16.189425 L16.5,14.25 L15,14.25 L15,16.810575 L17.475,19.2861 C17.3285741,19.5864292 17.2516712,19.9158812 17.25,20.25 C17.25,21.4926407 18.2573593,22.5 19.5,22.5 C20.7426407,22.5 21.75,21.4926407 21.75,20.25 C21.75,19.0073593 20.7426407,18 19.5,18 Z M19.5,21 C19.0857864,21 18.75,20.6642136 18.75,20.25 C18.75,19.8357864 19.0857864,19.5 19.5,19.5 C19.9142136,19.5 20.25,19.8357864 20.25,20.25 C20.2496278,20.6640593 19.9140593,20.9996278 19.5,21 L19.5,21 Z" id="Shape" fill="#FFFFFF" fill-rule="nonzero"></path>
                    <rect id="_Transparent_Rectangle_" x="0" y="0" width="24" height="24"></rect>
                </g>
            </g>
        </g>
    </g>
</svg>