<?xml version="1.0" encoding="UTF-8"?>
<svg width="49px" height="48px" viewBox="0 0 49 48" version="1.1" xmlns="http://www.w3.org/2000/svg" xmlns:xlink="http://www.w3.org/1999/xlink">
    <title>Public Network</title>
    <g id="V2-Icons" stroke="none" stroke-width="1" fill="none" fill-rule="evenodd">
        <g id="IBM/Cloud/Network" transform="translate(-699, -86)">
            <g id="Public-Network" transform="translate(699, 86)">
                <rect id="Rectangle-" fill="#1192E8" x="0" y="0" width="49" height="48"></rect>
                <g id="network--public" transform="translate(12, 12)">
                    <path d="M16.875,9.75 C13.35,9.75 10.5,12.6 10.5,16.125 C10.5,19.65 13.35,22.5 16.875,22.5 C20.4,22.5 23.25,19.65 23.25,16.125 C23.25,12.6 20.4,9.75 16.875,9.75 Z M21.75,15.75 L19.5,15.75 C19.5,14.25 19.275,12.75 18.825,11.625 C20.4,12.375 21.6,13.875 21.75,15.75 Z M16.875,21 C16.875,21 16.875,21 16.875,21 C16.575,20.85 15.9,19.65 15.75,17.25 L17.925,17.25 C17.775,19.65 17.175,20.85 16.875,21 Z M15.75,15.75 C15.825,12.9 16.575,11.4 16.8,11.25 C16.8,11.25 16.8,11.25 16.8,11.25 C17.1,11.4 17.85,12.9 17.925,15.75 L15.75,15.75 Z M14.925,11.625 C14.475,12.75 14.325,14.25 14.25,15.75 L12,15.75 C12.15,13.875 13.35,12.375 14.925,11.625 Z M12.15,17.25 L14.25,17.25 C14.325,18.45 14.55,19.65 14.925,20.625 C13.575,20.025 12.525,18.75 12.15,17.25 Z M18.825,20.625 C19.2,19.65 19.425,18.525 19.5,17.25 L21.675,17.25 C21.225,18.75 20.175,20.025 18.825,20.625 Z" id="Shape" fill="#FFFFFF" fill-rule="nonzero"></path>
                    <path d="M19.35,7.5 C18.675,4.05 15.6,1.5 12,1.5 C8.4,1.5 5.325,4.05 4.65,7.575 C2.025,8.1 0,10.35 0,13.125 C0,16.2 2.55,18.75 5.625,18.75 L8.25,18.75 L8.25,17.25 L5.625,17.25 C3.375,17.25 1.5,15.375 1.5,13.125 C1.5,10.95 3.15,9.15 5.325,9 L6,9 L6,8.325 C6.375,5.325 8.925,3 12,3 C14.775,3 17.1,4.95 17.775,7.5 L19.35,7.5 Z" id="Path" fill="#FFFFFF" fill-rule="nonzero"></path>
                    <rect id="_x3C_Transparent_Rectangle_x3E__232_" x="0" y="0" width="24" height="24"></rect>
                </g>
            </g>
        </g>
    </g>
</svg>