<?xml version="1.0" encoding="UTF-8"?>
<svg width="48px" height="48px" viewBox="0 0 48 48" version="1.1" xmlns="http://www.w3.org/2000/svg" xmlns:xlink="http://www.w3.org/1999/xlink">
    <title>server--proxy</title>
    <g id="V2-Icons" stroke="none" stroke-width="1" fill="none" fill-rule="evenodd">
        <g id="IBM/Cloud/Network" transform="translate(-1029, -81)">
            <g id="server--proxy" transform="translate(1029, 81)">
                <rect id="Rectangle-Copy-31" fill="#1192E8" x="0" y="0" width="48" height="48"></rect>
                <g transform="translate(12, 12)">
                    <path d="M4.5,22.5 L19.5,22.5 C20.3284271,22.5 21,21.8284271 21,21 L21,16.5 C21,15.6715729 20.3284271,15 19.5,15 L4.5,15 C3.67157288,15 3,15.6715729 3,16.5 L3,21 C3,21.8284271 3.67157288,22.5 4.5,22.5 Z M4.5,16.5 L19.5,16.5 L19.5,21 L4.5,21 L4.5,16.5 Z" id="Shape" fill="#FFFFFF" fill-rule="nonzero"></path>
                    <circle id="Oval" fill="#FFFFFF" fill-rule="nonzero" cx="6.75" cy="18.75" r="1"></circle>
                    <path d="M19.5,1.5 L18.4425,2.5575 L20.3775,4.5 L16.73625,4.5 C15.6366139,2.13722276 12.9671146,0.942359745 10.4724301,1.69632562 C7.97774547,2.45029149 6.41690008,4.9236871 6.81,7.5 L3.6225,7.5 L5.5575,5.5575 L4.5,4.5 L0.75,8.25 L4.5,12 L5.5575,10.9425 L3.6225,9 L7.26375,9 C8.36338605,11.3627772 11.0328854,12.5576403 13.5275699,11.8036744 C16.0222545,11.0497085 17.5830999,8.5763129 17.19,6 L20.3775,6 L18.4425,7.9425 L19.5,9 L23.25,5.25 L19.5,1.5 Z M15.7500221,6.75 C15.7555166,8.36215215 14.7266108,9.7961332 13.197615,10.3072466 C11.6686192,10.81836 9.98420539,10.2913887 9.019125,9 L12,9 L12,7.5 L8.325825,7.5 C7.96906331,5.78406411 8.85211292,4.05059841 10.4499047,3.33033707 C12.0476964,2.61007572 13.9313695,3.09634298 14.980875,4.5 L12,4.5 L12,6 L15.674175,6 C15.7245675,6.24682003 15.7500221,6.49808825 15.7500221,6.75 L15.7500221,6.75 Z" id="Shape" fill="#FFFFFF" fill-rule="nonzero"></path>
                    <rect id="_Transparent_Rectangle_" x="0" y="0" width="24" height="24"></rect>
                </g>
            </g>
        </g>
    </g>
</svg>