<?xml version="1.0" encoding="UTF-8"?>
<svg width="48px" height="48px" viewBox="0 0 48 48" version="1.1" xmlns="http://www.w3.org/2000/svg" xmlns:xlink="http://www.w3.org/1999/xlink">
    <title>Subnet</title>
    <g id="V2-Icons" stroke="none" stroke-width="1" fill="none" fill-rule="evenodd">
        <g id="IBM/Cloud/Network" transform="translate(-515, -148)">
            <g id="Subnet" transform="translate(515, 148)">
                <g id="server--dns-copy" fill="#1192E8">
                    <rect id="Rectangle-Copy-42" x="0" y="0" width="48" height="48"></rect>
                </g>
                <g id="subnet-acl-rules(4)" transform="translate(12, 12)">
                    <rect id="Rectangle" fill="#FFFFFF" fill-rule="nonzero" x="13.5" y="10.5" width="9" height="1.5"></rect>
                    <rect id="Rectangle" fill="#FFFFFF" fill-rule="nonzero" x="13.5" y="14.25" width="6" height="1.5"></rect>
                    <rect id="Rectangle" fill="#FFFFFF" fill-rule="nonzero" x="13.5" y="6.75" width="9" height="1.5"></rect>
                    <path d="M16.5,18 L16.5,21 L4.5,21 L4.5,12 L10.5,12 L10.5,10.5 L7.5,10.5 L7.5,6 C7.5001899,4.57920581 8.49682343,3.3533015 9.88765874,3.06307176 C11.2784941,2.77284203 12.6822311,3.49785389 13.250625,4.8 L14.625375,4.2 C13.7726087,2.24719226 11.6672581,1.16002703 9.58131119,1.59533614 C7.49536432,2.03064526 6.00055454,3.86911567 6,6 L6,10.5 L4.5,10.5 C3.67196695,10.5009506 3.0009506,11.1719669 3,12 L3,21 C3.0009506,21.8280331 3.67196695,22.4990494 4.5,22.5 L16.5,22.5 C17.3280331,22.4990494 17.9990494,21.8280331 18,21 L18,18 L16.5,18 Z" id="Path" fill="#FFFFFF" fill-rule="nonzero"></path>
                    <rect id="_Transparent_Rectangle_" x="0" y="0" width="24" height="24"></rect>
                </g>
            </g>
        </g>
    </g>
</svg>