<?xml version="1.0" encoding="UTF-8"?>
<svg width="48px" height="48px" viewBox="0 0 48 48" version="1.1" xmlns="http://www.w3.org/2000/svg" xmlns:xlink="http://www.w3.org/1999/xlink">
    <title>communication--unified</title>
    <g id="V2-Icons" stroke="none" stroke-width="1" fill="none" fill-rule="evenodd">
        <g id="IBM/Cloud/Network" transform="translate(-1229, -81)">
            <g id="communication--unified" transform="translate(1229, 81)">
                <rect id="Rectangle-Copy-50" fill="#1192E8" x="0" y="0" width="48" height="48"></rect>
                <g transform="translate(12.0004, 12)">
                    <path d="M21,12.75 L13.5,12.75 C12.6720012,12.7510331 12.0010331,13.4220012 12,14.25 L12,18.75 C12.0010331,19.5779988 12.6720012,20.2489669 13.5,20.25 L16.5,20.25 L16.5,18.75 L13.5,18.75 L13.5,14.25 L21,14.25 L21,18.75 L19.0986,18.75 L17.153325,21.66795 L18.4014,22.5 L19.9014,20.25 L21,20.25 C21.8279988,20.2489669 22.4989669,19.5779988 22.5,18.75 L22.5,14.25 C22.4989669,13.4220012 21.8279988,12.7510331 21,12.75 L21,12.75 Z" id="Path" fill="#FFFFFF" fill-rule="nonzero"></path>
                    <path d="M6.500025,18.08145 L7.146075,17.435325 C7.32289054,17.2585513 7.58803827,17.2041529 7.820175,17.297025 L8.60715,17.612025 C8.84433138,17.706927 8.99988986,17.9366119 9.00000167,18.192075 L9.00000167,19.623225 C9.00039744,19.7951339 8.92997451,19.9596178 8.80529992,20.0779778 C8.68062532,20.1963378 8.51270635,20.2581241 8.34105,20.2488 C2.8251,19.90545 1.71105,15.234075 1.5042,13.444575 C1.48396246,13.2676453 1.54032181,13.0905029 1.6590736,12.9577938 C1.77782539,12.8250847 1.94764241,12.7494674 2.125725,12.7499972 L3.531375,12.7499972 C3.78691378,12.7499972 4.01670056,12.9056061 4.11165,13.14285 L4.42665,13.929825 C4.51954423,14.1619727 4.46511116,14.4271458 4.288275,14.603925 L3.642225,15.249975 C3.87284628,16.7173417 5.03058695,17.8644177 6.500025,18.08145 L6.500025,18.08145 Z" id="Path" fill="#FFFFFF" fill-rule="nonzero"></path>
                    <rect id="Rectangle" fill="#FFFFFF" fill-rule="nonzero" x="15.75" y="6.75" width="5.25" height="1.5"></rect>
                    <rect id="Rectangle" fill="#FFFFFF" fill-rule="nonzero" x="15.75" y="3.75" width="6.75" height="1.5"></rect>
                    <path d="M12.75,4.5 L10.5,6.15 L10.5,4.5 C10.4990082,3.67198405 9.82801595,3.00099183 9,3 L3,3 C2.17198405,3.00099183 1.50099183,3.67198405 1.5,4.5 L1.5,9 C1.50099183,9.82801595 2.17198405,10.4990082 3,10.5 L9,10.5 C9.82801595,10.4990082 10.4990082,9.82801595 10.5,9 L10.5,7.35 L12.75,9 L12.75,4.5 Z M3,9 L3,4.5 L9,4.5 L9,9 L3,9 Z" id="Shape" fill="#FFFFFF" fill-rule="nonzero"></path>
                    <rect id="_Transparent_Rectangle_" x="0" y="0" width="24" height="24"></rect>
                </g>
            </g>
        </g>
    </g>
</svg>