<?xml version="1.0" encoding="UTF-8"?>
<svg width="48px" height="48px" viewBox="0 0 48 48" version="1.1" xmlns="http://www.w3.org/2000/svg" xmlns:xlink="http://www.w3.org/1999/xlink">
    <title>vlan</title>
    <g id="V2-Icons" stroke="none" stroke-width="1" fill="none" fill-rule="evenodd">
        <g id="IBM/Cloud/Network" transform="translate(-1293, -81)">
            <g id="vlan" transform="translate(1293, 81)">
                <rect id="Rectangle-Copy-51" fill="#1192E8" x="0" y="0" width="48" height="48"></rect>
                <g transform="translate(12.0004, 12)">
                    <path d="M22.5,12.75 L22.5,11.25 L12.75,11.25 L12.75,8.25 L14.25,8.25 C15.0780331,8.2490494 15.7490494,7.57803305 15.75,6.75 L15.75,3 C15.7490494,2.17196695 15.0780331,1.5009506 14.25,1.5 L9.75,1.5 C8.92196695,1.5009506 8.2509506,2.17196695 8.25,3 L8.25,6.75 C8.2509506,7.57803305 8.92196695,8.2490494 9.75,8.25 L11.25,8.25 L11.25,11.25 L1.5,11.25 L1.5,12.75 L6,12.75 L6,15.75 L4.5,15.75 C3.67196695,15.7509506 3.0009506,16.4219669 3,17.25 L3,21 C3.0009506,21.8280331 3.67196695,22.4990494 4.5,22.5 L9,22.5 C9.82803305,22.4990494 10.4990494,21.8280331 10.5,21 L10.5,17.25 C10.4990494,16.4219669 9.82803305,15.7509506 9,15.75 L7.5,15.75 L7.5,12.75 L16.5,12.75 L16.5,15.75 L15,15.75 C14.1719669,15.7509506 13.5009506,16.4219669 13.5,17.25 L13.5,21 C13.5009506,21.8280331 14.1719669,22.4990494 15,22.5 L19.5,22.5 C20.3280331,22.4990494 20.9990494,21.8280331 21,21 L21,17.25 C20.9990494,16.4219669 20.3280331,15.7509506 19.5,15.75 L18,15.75 L18,12.75 L22.5,12.75 Z M9.75,3 L14.25,3 L14.25,6.75 L9.75,6.75 L9.75,3 Z M9,21 L4.5,21 L4.5,17.25 L9,17.25 L9,21 Z M19.5,21 L15,21 L15,17.25 L19.5,17.25 L19.5,21 Z" id="Shape" fill="#FFFFFF" fill-rule="nonzero"></path>
                    <rect id="_Transparent_Rectangle_" x="0" y="0" width="24" height="24"></rect>
                </g>
            </g>
        </g>
    </g>
</svg>