<?xml version="1.0" encoding="UTF-8"?>
<svg width="49px" height="48px" viewBox="0 0 49 48" version="1.1" xmlns="http://www.w3.org/2000/svg" xmlns:xlink="http://www.w3.org/1999/xlink">
    <title>vlan--ibm</title>
    <g id="V2-Icons" stroke="none" stroke-width="1" fill="none" fill-rule="evenodd">
        <g id="IBM/Cloud/Network" transform="translate(-1028, -24)">
            <g id="vlan--ibm" transform="translate(1028, 24)">
                <rect id="Rectangle" fill="#1192E8" x="0" y="0" width="49" height="48"></rect>
                <g transform="translate(13, 12)">
                    <path d="M12,16.5 C10.3431458,16.5 9,17.8431458 9,19.5 C9,21.1568542 10.3431458,22.5 12,22.5 C13.6568542,22.5 15,21.1568542 15,19.5 C14.99814,17.8439168 13.6560832,16.50186 12,16.5 L12,16.5 Z M12,21 C11.1715729,21 10.5,20.3284271 10.5,19.5 C10.5,18.6715729 11.1715729,18 12,18 C12.8284271,18 13.5,18.6715729 13.5,19.5 C13.4991732,20.3280844 12.8280844,20.9991732 12,21 Z" id="Shape" fill="#FFFFFF" fill-rule="nonzero"></path>
                    <path d="M22.5000215,3.75 C22.5049703,2.60453808 21.6485787,1.63817994 20.5108273,1.50540379 C19.373076,1.37262763 18.317179,2.11582075 18.0582558,3.23164624 C17.7993327,4.34747173 18.4200418,5.47971498 19.5,5.86155 L19.5,11.25 L12.75,11.25 L12.75,6.75 L11.25,6.75 L11.25,11.25 L4.5,11.25 L4.5,5.861925 C5.53346427,5.49663609 6.15344181,4.43991539 5.96812989,3.35957106 C5.78281797,2.27922672 4.84612244,1.48952282 3.75,1.48952282 C2.65387756,1.48952282 1.71718203,2.27922672 1.53187011,3.35957106 C1.34655819,4.43991539 1.96653573,5.49663609 3,5.861925 L3,11.25 C3.00082684,12.0780844 3.67191561,12.7491732 4.5,12.75 L11.25,12.75 L11.25,15 L12.75,15 L12.75,12.75 L19.5,12.75 C20.3280844,12.7491732 20.9991732,12.0780844 21,11.25 L21,5.861925 C21.89633,5.54602904 22.4969669,4.70036233 22.5000215,3.75 Z M3.75,3 C4.16421356,3 4.5,3.33578644 4.5,3.75 C4.5,4.16421356 4.16421356,4.5 3.75,4.5 C3.33578644,4.5 3,4.16421356 3,3.75 C3.00053714,3.33600913 3.33600913,3.00053714 3.75,3 L3.75,3 Z M20.25,4.5 C19.8357864,4.5 19.5,4.16421356 19.5,3.75 C19.5,3.33578644 19.8357864,3 20.25,3 C20.6642136,3 21,3.33578644 21,3.75 C20.9994629,4.16399087 20.6639909,4.49946286 20.25,4.5 Z" id="Shape" fill="#FFFFFF" fill-rule="nonzero"></path>
                    <circle id="Oval" fill="#FFFFFF" fill-rule="nonzero" cx="12" cy="3.75" r="1.5"></circle>
                    <rect id="_Transparent_Rectangle_" x="0" y="0" width="24" height="24"></rect>
                </g>
            </g>
        </g>
    </g>
</svg>