<?xml version="1.0" encoding="UTF-8"?>
<svg width="48px" height="48px" viewBox="0 0 48 48" version="1.1" xmlns="http://www.w3.org/2000/svg" xmlns:xlink="http://www.w3.org/1999/xlink">
    <title>VPC</title>
    <defs>
        <polygon id="path-1" points="0 5.7093106e-16 24 5.7093106e-16 24 19.7147632 0 19.7147632"></polygon>
    </defs>
    <g id="V2-Icons" stroke="none" stroke-width="1" fill="none" fill-rule="evenodd">
        <g id="IBM/Cloud/Network" transform="translate(-445, -148)">
            <g id="VPC" transform="translate(445, 148)">
                <g id="server--dns-copy" fill="#1192E8">
                    <rect id="Rectangle-Copy-42" x="0" y="0" width="48" height="48"></rect>
                </g>
                <g transform="translate(12, 12)">
                    <path d="M9.000975,22.2858367 L9.000975,17.1433469 L15.000975,17.1433469 L15.001725,22.2858367 L9.000975,22.2858367 Z M10.500975,12.8579387 C10.500975,11.9117206 11.172975,11.1437754 12.000975,11.1437754 C12.828975,11.1437754 13.500975,11.9117206 13.500975,12.8579387 L13.500975,15.4291836 L10.500975,15.4291836 L10.500975,12.8579387 Z M15.000975,15.4291836 L15.000975,12.8579387 C15.000975,10.9646454 13.657725,9.42961217 12.000975,9.42961217 C10.344225,9.42961217 9.000975,10.9646454 9.000975,12.8579387 L9.000975,15.4291836 C8.172975,15.4300407 7.501725,16.1971288 7.500975,17.1433469 L7.500975,22.2858367 C7.501725,23.2320549 8.172975,23.9991429 9.000975,24 L15.000975,24 C15.828975,23.9991429 16.500225,23.2320549 16.500975,22.2858367 L16.500975,17.1433469 C16.500225,16.1971288 15.828975,15.4300407 15.000975,15.4291836 L15.000975,15.4291836 Z" id="Fill-1" fill="#FFFFFF" fill-rule="nonzero"></path>
                    <g id="Fill-3-Clipped">
                        <mask id="mask-2" fill="white">
                            <use xlink:href="#path-1"></use>
                        </mask>
                        <g id="path-1"></g>
                        <path d="M19.3728,6.95710306 C18.7923,3.51163488 16.43355,0.81868438 13.41855,0.157017356 C9.35055,-0.740347118 5.41605,2.29972145 4.63005,6.94853225 C4.6293,6.95110349 4.62855,6.95453182 4.62855,6.95710306 C1.5708,7.58705807 -0.4617,10.9313906 0.0903,14.4265695 C0.5733,17.4837797 2.90055,19.7104778 5.6193,19.7147632 L6.00105,19.7147632 L6.00105,18.0006 L5.6223,18.0006 C3.34305,17.9971716 1.49805,15.8836083 1.50105,13.2789372 C1.5033,10.9999571 2.9328,9.04838226 4.89555,8.64383973 L5.90655,8.43471181 L6.10155,7.28107992 C6.7308,3.55791729 9.88155,1.12294836 13.13955,1.84203985 C15.5493,2.37343047 17.43405,4.52727662 17.8998,7.28107992 L18.09405,8.43471181 L19.1058,8.64383973 C21.3483,9.10580673 22.83855,11.5587744 22.4343,14.1214485 C22.0803,16.363574 20.37555,17.9963145 18.38205,18.0006 L18.00105,18.0006 L18.00105,19.7147632 L18.38205,19.7147632 C21.48855,19.7096207 24.0048,16.8272552 24.000306,13.2755089 C23.9958,10.168588 22.04805,7.50906364 19.3728,6.95710306" id="Fill-3" fill="#FFFFFF" fill-rule="nonzero" mask="url(#mask-2)"></path>
                    </g>
                </g>
            </g>
        </g>
    </g>
</svg>