<?xml version="1.0" encoding="UTF-8"?>
<svg width="48px" height="48px" viewBox="0 0 48 48" version="1.1" xmlns="http://www.w3.org/2000/svg" xmlns:xlink="http://www.w3.org/1999/xlink">
    <title>wifi-bridge</title>
    <g id="V2-Icons" stroke="none" stroke-width="1" fill="none" fill-rule="evenodd">
        <g id="IBM/Cloud/Network" transform="translate(-52, -148)">
            <g id="wifi-bridge" transform="translate(52, 148)">
                <rect id="Rectangle-Copy-27" fill="#1192E8" x="0" y="0" width="48" height="48"></rect>
                <g transform="translate(12, 12)">
                    <path d="M5.2119,15.7125 L4.1514,14.651925 C4.85476057,13.9486504 5.24991165,12.9947538 5.24991165,12.0001125 C5.24991165,11.0054712 4.85476057,10.0515746 4.1514,9.3483 L5.2119,8.2875 C6.19658185,9.27208138 6.74977881,10.6075206 6.74977881,12 C6.74977881,13.3924794 6.19658185,14.7279186 5.2119,15.7125 Z" id="Path" fill="#FFFFFF" fill-rule="nonzero"></path>
                    <path d="M7.86405,18.36405 L6.803475,17.303475 C9.73218378,14.3743143 9.73218378,9.62568573 6.803475,6.696525 L7.86405,5.63595 C11.3786387,9.15079192 11.3786387,14.8492081 7.86405,18.36405 L7.86405,18.36405 Z" id="Path" fill="#FFFFFF" fill-rule="nonzero"></path>
                    <path d="M18.7881,15.7125 C17.8034181,14.7279186 17.2502212,13.3924794 17.2502212,12 C17.2502212,10.6075206 17.8034181,9.27208138 18.7881,8.2875 L19.8486,9.34845 C19.1452394,10.0517246 18.7500883,11.0056212 18.7500883,12.0002625 C18.7500883,12.9949038 19.1452394,13.9488004 19.8486,14.652075 L18.7881,15.7125 Z" id="Path" fill="#FFFFFF" fill-rule="nonzero"></path>
                    <path d="M16.13595,18.36405 C12.6213613,14.8492081 12.6213613,9.15079192 16.13595,5.63595 L17.196525,6.696525 C14.2678162,9.62568573 14.2678162,14.3743143 17.196525,17.303475 L16.13595,18.36405 Z" id="Path" fill="#FFFFFF" fill-rule="nonzero"></path>
                    <path d="M2.25,11.25 L1.5,11.25 L1.5,3 L0,3 L0,21 L1.5,21 L1.5,12.75 L2.25,12.75 C2.66421356,12.75 3,12.4142136 3,12 C3,11.5857864 2.66421356,11.25 2.25,11.25 Z" id="Path" fill="#FFFFFF" fill-rule="nonzero"></path>
                    <path d="M22.5,3 L22.5,11.25 L21.75,11.25 C21.3357864,11.25 21,11.5857864 21,12 C21,12.4142136 21.3357864,12.75 21.75,12.75 L22.5,12.75 L22.5,21 L24,21 L24,3 L22.5,3 Z" id="Path" fill="#FFFFFF" fill-rule="nonzero"></path>
                    <rect id="_Transparent_Rectangle_" x="0" y="0" width="24" height="24"></rect>
                </g>
            </g>
        </g>
    </g>
</svg>