<?xml version="1.0" encoding="UTF-8"?>
<svg width="66px" height="66px" viewBox="0 0 66 66" version="1.1" xmlns="http://www.w3.org/2000/svg" xmlns:xlink="http://www.w3.org/1999/xlink">
    <!-- Generator: Sketch 53 (72520) - https://sketchapp.com -->
    <title>Group 49</title>
    <desc>Created with Sketch.</desc>
    <g id="Page-1" stroke="none" stroke-width="1" fill="none" fill-rule="evenodd">
        <g id="Artboard" transform="translate(-71.000000, -1767.000000)" fill-rule="nonzero">
            <g id="Group-49" transform="translate(71.333333, 1767.000300)">
                <g id="Group-2">
                    <g id="Group">
                        <ellipse id="Oval" fill="#325C80" cx="32.8183486" cy="32.9388889" rx="32.6972477" ry="32.8777778"></ellipse>
                        <path d="M33.4844037,27.4388889 C33.4844037,25.4222222 33.4844037,23.4055556 33.4844037,21.45 C33.4844037,20.8388889 33.666055,20.4722222 34.2110092,20.1666667 C37.7229358,18.15 41.2348624,16.1333333 44.746789,14.0555556 C45.412844,13.6277778 45.6550459,13.6888889 45.6550459,14.5444444 C45.6550459,18.6388889 45.6550459,22.7333333 45.6550459,26.8277778 C45.6550459,27.5 45.412844,27.8055556 44.8678899,28.1111111 C41.4165138,30.1277778 37.9045872,32.1444444 34.453211,34.1611111 C33.7266055,34.5888889 33.4844037,34.5277778 33.4844037,33.6111111 C33.5449541,31.5333333 33.4844037,29.4555556 33.4844037,27.4388889 Z" id="Path" fill="#FFFFFF"></path>
                        <path d="M20.4055046,13.5666667 C24.4018349,15.8888889 28.1559633,18.0888889 31.9100917,20.2277778 C32.333945,20.4722222 32.5155963,20.7166667 32.5155963,21.2055556 C32.5155963,25.6055556 32.5155963,29.9444444 32.5155963,34.3444444 C32.0917431,34.5888889 31.8495413,34.2833333 31.6073394,34.1 C28.1559633,32.0833333 24.7651376,30.1277778 21.3137615,28.1111111 C20.9504587,27.8666667 20.466055,27.8055556 20.466055,27.1944444 C20.466055,22.6722222 20.4055046,18.2722222 20.4055046,13.5666667 Z" id="Path" fill="#FFFFFF"></path>
                        <path d="M33.4844037,36.3611111 C37.4807339,38.6833333 41.1743119,40.8833333 44.9889908,43.0222222 C45.4733945,43.2666667 45.5944954,43.6333333 45.5944954,44.1222222 C45.5944954,48.2777778 45.5944954,52.3722222 45.5944954,56.5277778 C45.5944954,57.1388889 45.4733945,57.3833333 44.8678899,57.0166667 C41.2348624,54.8777778 37.6623853,52.8 34.0293578,50.7222222 C33.666055,50.5388889 33.5449541,50.2333333 33.5449541,49.8055556 C33.4844037,45.4055556 33.4844037,41.0055556 33.4844037,36.3611111 Z" id="Path" fill="#FFFFFF"></path>
                        <path d="M45.0495413,12.65 C41.053211,14.9722222 37.2385321,17.1722222 33.4238532,19.4333333 C33.0605505,19.6166667 32.8183486,19.5555556 32.5155963,19.3722222 C28.7614679,17.1722222 24.946789,14.9722222 21.1321101,12.7111111 C21.6770642,12.1 22.3431193,11.8555556 22.8880734,11.55 C25.9761468,9.71666667 29.1247706,7.94444444 32.212844,6.11111111 C32.6366972,5.86666667 33,5.62222222 33.5449541,5.92777778 C37.2990826,8.18888889 41.053211,10.3277778 45.0495413,12.65 Z" id="Path" fill="#FFFFFF"></path>
                        <path d="M34.2715596,35.3833333 C36.8146789,33.9166667 39.3577982,32.3888889 41.9009174,30.9222222 C43.0513761,30.25 44.2623853,29.5777778 45.412844,28.8444444 C45.8366972,28.6 46.2,28.5388889 46.6238532,28.7833333 C50.3174312,30.9222222 53.8899083,33.0611111 57.5229358,35.1388889 C57.6440367,35.2 57.8256881,35.2611111 57.8256881,35.6277778 C55.2220183,37.1555556 52.5577982,38.6833333 49.893578,40.2722222 C48.6220183,41.0055556 47.2899083,42.2888889 46.0183486,42.2888889 C44.746789,42.2888889 43.5357798,41.0055556 42.2642202,40.2722222 C39.6,38.7444444 36.9963303,37.1555556 34.3321101,35.6277778 C34.3321101,35.6277778 34.3321101,35.5666667 34.2715596,35.3833333 Z" id="Path" fill="#FFFFFF"></path>
                        <path d="M58.612844,36.6055556 C58.612844,40.3944444 58.4917431,44.1833333 58.6733945,47.9722222 C58.733945,49.8666667 58.2495413,50.8444444 56.5541284,51.7611111 C53.2844037,53.4722222 50.0752294,55.4277778 46.9266055,57.3222222 C46.5633028,56.9555556 46.6844037,56.65 46.6844037,56.3444444 C46.6844037,52.3722222 46.6844037,48.4 46.6844037,44.4277778 C46.6844037,43.6333333 46.9266055,43.2055556 47.5926606,42.8388889 C50.9834862,40.8833333 54.3743119,38.9277778 57.8256881,36.9111111 C57.946789,36.7277778 58.1889908,36.4833333 58.612844,36.6055556 Z" id="Path" fill="#FFFFFF"></path>
                        <path d="M7.93211009,35.4444444 C11.9284404,33.1222222 15.6825688,30.9222222 19.3761468,28.7222222 C19.7394495,28.5388889 20.0422018,28.5388889 20.4055046,28.7222222 C24.159633,30.9222222 27.9743119,33.1222222 31.9100917,35.4444444 C28.9431193,37.1555556 26.0972477,38.8055556 23.3119266,40.4555556 C22.1614679,41.1277778 21.0110092,42.2277778 19.8605505,42.2277778 C18.7706422,42.2277778 17.6201835,41.0666667 16.5302752,40.4555556 C13.7449541,38.8666667 10.959633,37.2166667 7.93211009,35.4444444 Z" id="Path" fill="#FFFFFF"></path>
                        <path d="M7.38715596,36.3611111 C11.3229358,38.6833333 15.1376147,40.8833333 18.8917431,43.0833333 C19.1944954,43.2666667 19.3761468,43.45 19.3761468,43.8166667 C19.3761468,48.2777778 19.3761468,52.7388889 19.3761468,57.3833333 C18.5889908,56.9555556 18.0440367,56.5888889 17.4385321,56.2833333 C14.3504587,54.45 11.2623853,52.6777778 8.11376147,50.8444444 C7.56880734,50.5388889 7.38715596,50.2333333 7.38715596,49.6222222 C7.38715596,45.2833333 7.38715596,40.9444444 7.38715596,36.3611111 Z" id="Path" fill="#FFFFFF"></path>
                        <path d="M32.5155963,36.4833333 C32.5155963,41.0055556 32.5155963,45.4666667 32.5155963,49.9277778 C32.5155963,50.3555556 32.333945,50.5388889 32.0311927,50.6611111 C28.2770642,52.8611111 24.5229358,55 20.587156,57.3222222 C20.587156,56.4055556 20.587156,55.6722222 20.587156,54.9388889 C20.587156,51.3333333 20.587156,47.7277778 20.587156,44.1833333 C20.587156,43.6944444 20.587156,43.2666667 21.1321101,42.9611111 C24.7651376,40.8833333 28.3981651,38.7444444 32.0917431,36.6666667 C32.1522936,36.6055556 32.2733945,36.5444444 32.5155963,36.4833333 Z" id="Path" fill="#FFFFFF"></path>
                    </g>
                </g>
            </g>
        </g>
    </g>
</svg>