<?xml version="1.0" encoding="UTF-8"?>
<svg width="67px" height="67px" viewBox="0 0 67 67" version="1.1" xmlns="http://www.w3.org/2000/svg" xmlns:xlink="http://www.w3.org/1999/xlink">
    <!-- Generator: Sketch 53 (72520) - https://sketchapp.com -->
    <title>Group 85</title>
    <desc>Created with Sketch.</desc>
    <g id="Page-1" stroke="none" stroke-width="1" fill="none" fill-rule="evenodd">
        <g id="Artboard" transform="translate(-467.000000, -1774.000000)" fill-rule="nonzero">
            <g id="Group-42" transform="translate(463.600000, 1774.375075)">
                <g id="Group-85" transform="translate(3.500000, 0.000000)">
                    <g id="Storage-Accessor-Copy" fill="#325C80">
                        <ellipse id="Oval" cx="33.3256808" cy="33.3155963" rx="33.1926606" ry="33.0697248"></ellipse>
                    </g>
                    <g id="object-storage" transform="translate(12.000000, 11.500000)" fill="#FFFFFF">
                        <path d="M39.295601,27.4968579 L36.3459152,27.4968579 L36.3459152,30.4465436 L39.295601,30.4465436 L39.295601,39.295601 L3.89937157,39.295601 L3.89937157,30.4465436 L18.6478005,30.4465436 L18.6478005,27.4968579 L3.89937157,27.4968579 C2.27704439,27.4968579 0.949685785,28.8242165 0.949685785,30.4465436 L0.949685785,39.295601 C0.949685785,40.9179282 2.27704439,42.2452868 3.89937157,42.2452868 L39.295601,42.2452868 C40.9179282,42.2452868 42.2452868,40.9179282 42.2452868,39.295601 L42.2452868,30.4465436 C42.2452868,28.8242165 40.9179282,27.4968579 39.295601,27.4968579 Z" id="Path"></path>
                        <circle id="Oval" cx="8.32390025" cy="34.8710723" r="1.47484289"></circle>
                        <path d="M42.2452868,9.79874314 L30.4465436,9.79874314 L30.4465436,18.6478005 L21.5974863,18.6478005 L21.5974863,30.4465436 L33.3962294,30.4465436 L33.3962294,21.5974863 L42.2452868,21.5974863 L42.2452868,9.79874314 Z M30.4465436,27.4968579 L24.5471721,27.4968579 L24.5471721,21.5974863 L30.4465436,21.5974863 L30.4465436,27.4968579 Z M39.295601,18.6478005 L33.3962294,18.6478005 L33.3962294,12.7484289 L39.295601,12.7484289 L39.295601,18.6478005 Z" id="Shape"></path>
                        <path d="M24.2484289,12.7484289 L12.7484289,12.7484289 L12.7484289,0.949685785 L24.2484289,0.949685785 L24.2484289,12.7484289 Z M15.6234289,9.79874314 L21.3734289,9.79874314 L21.3734289,3.89937157 L15.6234289,3.89937157 L15.6234289,9.79874314 Z" id="Shape"></path>
                    </g>
                </g>
            </g>
        </g>
    </g>
</svg>