<?xml version="1.0" encoding="UTF-8"?>
<svg width="48px" height="48px" viewBox="0 0 48 48" version="1.1" xmlns="http://www.w3.org/2000/svg" xmlns:xlink="http://www.w3.org/1999/xlink">
    <title>content-delivery-network</title>
    <g id="V2-Icons" stroke="none" stroke-width="1" fill="none" fill-rule="evenodd">
        <g id="IBM/Cloud/Network" transform="translate(-382, -20)">
            <g id="content-delivery-network" transform="translate(382, 20)">
                <rect id="Rectangle-Copy-46" fill="#1192E8" x="0" y="0" width="48" height="48"></rect>
                <g transform="translate(12, 12)">
                    <circle id="Oval" fill="#FFFFFF" fill-rule="nonzero" cx="15.75" cy="15.75" r="1.5"></circle>
                    <circle id="Oval" fill="#FFFFFF" fill-rule="nonzero" cx="5.25" cy="5.25" r="1.5"></circle>
                    <path d="M20.25,23.25 C18.5931458,23.25 17.25,21.9068542 17.25,20.25 C17.25,18.5931458 18.5931458,17.25 20.25,17.25 C21.9068542,17.25 23.25,18.5931458 23.25,20.25 C23.2451397,21.9048369 21.9048369,23.2451397 20.25,23.25 Z M20.25,18.75 C19.4215729,18.75 18.75,19.4215729 18.75,20.25 C18.75,21.0784271 19.4215729,21.75 20.25,21.75 C21.0784271,21.75 21.75,21.0784271 21.75,20.25 C21.7475699,19.4225816 21.0774184,18.7524301 20.25,18.75 L20.25,18.75 Z" id="Shape" fill="#FFFFFF" fill-rule="nonzero"></path>
                    <path d="M22.4999999,12 C22.4830299,6.20805392 17.7919461,1.51697007 11.9999999,1.5 C10.2084444,1.47442969 8.44427914,1.9414146 6.9,2.85 L7.725,4.125 C8.31125923,3.84322068 8.91211025,3.59286609 9.525,3.375 C8.28516784,5.82143562 7.59409376,8.50894593 7.49999992,11.25 L2.99999992,11.25 C3.08403453,10.011632 3.44271071,8.80750485 4.05,7.725 L2.925,6.75 C1.99178227,8.34222411 1.49999992,10.1544451 1.49999992,12 C1.49966177,14.7848768 2.60579998,17.4557894 4.57500528,19.4249947 C6.54421058,21.3942 9.21512318,22.5004452 11.9999999,22.5 C13.3370091,22.5126008 14.6630289,22.257597 15.9,21.75 L15.45,20.325 C14.220359,20.8508272 12.8848375,21.0819752 11.55,21 L11.55,21 C9.9506064,18.5400493 9.06764239,15.6834011 8.99999992,12.75 L22.425,12.75 C22.4869932,12.5050918 22.512269,12.2523344 22.4999999,12 L22.4999999,12 Z M9.6,20.7 L9.6,20.7 C8.10859512,20.2529749 6.74570046,19.4558101 5.625,18.375 C4.1369056,16.8522975 3.21117849,14.8685966 3,12.75 L7.5,12.75 C7.60320493,15.5227301 8.32044694,18.2380034 9.6,20.7 L9.6,20.7 Z M9,11.25 C9.05965797,8.32613619 9.91533988,5.47386317 11.475,3 L12.525,3 C14.0846601,5.47386317 14.940342,8.32613619 15,11.25 L9,11.25 Z M16.5,11.25 C16.4429473,8.47059861 15.7229794,5.74500567 14.4,3.3 C18.0126501,4.34126744 20.6081934,7.50365349 20.925,11.25 L16.5,11.25 Z" id="Shape" fill="#FFFFFF" fill-rule="nonzero"></path>
                    <rect id="_Transparent_Rectangle_" x="0" y="0" width="24" height="24"></rect>
                </g>
            </g>
        </g>
    </g>
</svg>