<?xml version="1.0" encoding="UTF-8"?>
<svg width="49px" height="48px" viewBox="0 0 49 48" version="1.1" xmlns="http://www.w3.org/2000/svg" xmlns:xlink="http://www.w3.org/1999/xlink">
    <title>Direct Link</title>
    <g id="V2-Icons" stroke="none" stroke-width="1" fill="none" fill-rule="evenodd">
        <g id="IBM/Cloud/Network" transform="translate(-510, -20)">
            <g id="Direct-Link" transform="translate(510, 20)">
                <rect id="Rectangle" fill="#1192E8" x="0" y="0" width="49" height="48"></rect>
                <g id="ibm-cloud--direct-link-2--dedicated" transform="translate(13, 12)">
                    <path d="M24,8.25 L21.75,8.25 L21.75,3.75 C21.75,2.925 21.075,2.25 20.25,2.25 L9.75,2.25 C8.925,2.25 8.25,2.925 8.25,3.75 L8.25,6.75 L9.75,6.75 L9.75,3.75 L20.25,3.75 L20.25,14.25 L9.75,14.25 L9.75,11.25 L8.25,11.25 L8.25,14.25 C8.25,15.075 8.925,15.75 9.75,15.75 L20.25,15.75 C21.075,15.75 21.75,15.075 21.75,14.25 L21.75,9.75 L24,9.75 L24,8.25 Z" id="Path" fill="#FFFFFF" fill-rule="nonzero"></path>
                    <path d="M15.75,12.75 L15.75,9.75 C15.75,8.925 15.075,8.25 14.25,8.25 L3.75,8.25 C2.925,8.25 2.25,8.925 2.25,9.75 L2.25,14.25 L0,14.25 L0,15.75 L2.25,15.75 L2.25,20.25 C2.25,21.075 2.925,21.75 3.75,21.75 L14.25,21.75 C15.075,21.75 15.75,21.075 15.75,20.25 L15.75,17.25 L14.25,17.25 L14.25,20.25 L3.75,20.25 L3.75,9.75 L14.25,9.75 L14.25,12.75 L15.75,12.75 Z" id="Path" fill="#FFFFFF" fill-rule="nonzero"></path>
                    <rect id="_x3C_Transparent_Rectangle_x3E__589_" x="0" y="0" width="24" height="24"></rect>
                </g>
            </g>
        </g>
    </g>
</svg>