<?xml version="1.0" encoding="UTF-8"?>
<svg width="48px" height="48px" viewBox="0 0 48 48" version="1.1" xmlns="http://www.w3.org/2000/svg" xmlns:xlink="http://www.w3.org/1999/xlink">
    <title>dns-services</title>
    <g id="V2-Icons" stroke="none" stroke-width="1" fill="none" fill-rule="evenodd">
        <g id="IBM/Cloud/Network" transform="translate(-574, -20)">
            <g id="dns-services" transform="translate(574, 20)">
                <rect id="Rectangle-Copy-37" fill="#1192E8" x="0" y="0" width="48" height="48"></rect>
                <g transform="translate(12, 12)">
                    <rect id="Rectangle" fill="#FFFFFF" fill-rule="nonzero" x="15" y="15" width="7.5" height="1.5"></rect>
                    <rect id="Rectangle" fill="#FFFFFF" fill-rule="nonzero" x="15" y="18" width="4.5" height="1.5"></rect>
                    <path d="M22.5,12.75 L22.5,12 C22.4958825,7.53540098 19.6664357,3.56256506 15.4485356,2.09901457 C11.2306355,0.635464074 6.54853763,2.00190237 3.77994828,5.5044121 C1.01135894,9.00692183 0.762950669,13.8780087 3.16087247,17.6439923 C5.55879427,21.4099759 10.0775968,23.2456277 14.4225,22.21875 L14.0775,20.759025 C13.3966686,20.9195315 12.6994952,21.0003985 12,21 C11.8575,21 11.71875,20.98605 11.57775,20.979525 C9.95036238,18.5399091 9.06200881,15.6822863 9.019425,12.75 L22.5,12.75 Z M20.968875,11.25 L16.481325,11.25 C16.3979077,8.48667594 15.6865083,5.77860291 14.40105,3.33105 C18.029144,4.34025324 20.6479979,7.49785464 20.968875,11.25 Z M12.42225,3.020475 C14.0496376,5.4600909 14.9379912,8.31771372 14.980575,11.25 L9.019425,11.25 C9.06200881,8.31771372 9.95036238,5.4600909 11.57775,3.020475 C11.71875,3.01395 11.8575,3 12,3 C12.1425,3 12.28125,3.01395 12.42225,3.020475 Z M9.59895,3.33105 C8.3134917,5.77860291 7.60209225,8.48667594 7.518675,11.25 L3.031125,11.25 C3.35200211,7.49785464 5.97085605,4.34025324 9.59895,3.33105 Z M9.59895,20.66895 C5.97085605,19.6597468 3.35200211,16.5021454 3.031125,12.75 L7.518675,12.75 C7.60209225,15.5133241 8.3134917,18.2213971 9.59895,20.66895 L9.59895,20.66895 Z" id="Shape" fill="#FFFFFF" fill-rule="nonzero"></path>
                    <rect id="_Transparent_Rectangle_" x="0" y="0" width="24" height="24"></rect>
                </g>
            </g>
        </g>
    </g>
</svg>