<?xml version="1.0" encoding="UTF-8"?>
<svg width="48px" height="48px" viewBox="0 0 48 48" version="1.1" xmlns="http://www.w3.org/2000/svg" xmlns:xlink="http://www.w3.org/1999/xlink">
    <title>floating-ip</title>
    <g id="V2-Icons" stroke="none" stroke-width="1" fill="none" fill-rule="evenodd">
        <g id="IBM/Cloud/Network" transform="translate(-700, -24)">
            <g id="floating-ip" transform="translate(700, 24)">
                <rect id="Rectangle-Copy-47" fill="#1192E8" x="0" y="0" width="48" height="48"></rect>
                <g transform="translate(12, 12)">
                    <path d="M18.75,8.25 C16.968912,8.25243701 15.4344026,9.50537898 15.075825,11.25 L8.924175,11.25 C8.53915146,9.36377759 6.78840097,8.07549785 4.87303178,8.26898943 C2.95766259,8.46248101 1.49994039,10.0748823 1.49994039,12 C1.49994039,13.9251177 2.95766259,15.537519 4.87303178,15.7310106 C6.78840097,15.9245022 8.53915146,14.6362224 8.924175,12.75 L15.075825,12.75 C15.4705152,14.6835791 17.2962682,15.9803893 19.2519636,15.7162605 C21.207659,15.4521318 22.6239913,13.7174578 22.4916132,11.7484519 C22.3592351,9.77944593 20.7234509,8.24996863 18.75,8.25 Z M18.75,14.25 C17.5073593,14.25 16.5,13.2426407 16.5,12 C16.5,10.7573593 17.5073593,9.75 18.75,9.75 C19.9926407,9.75 21,10.7573593 21,12 C20.998636,13.2420752 19.9920752,14.248636 18.75,14.25 Z" id="Shape" fill="#FFFFFF" fill-rule="nonzero"></path>
                    <rect id="_Transparent_Rectangle_" x="0" y="0" width="24" height="24"></rect>
                </g>
            </g>
        </g>
    </g>
</svg>