<?xml version="1.0" encoding="UTF-8"?>
<svg width="48px" height="48px" viewBox="0 0 48 48" version="1.1" xmlns="http://www.w3.org/2000/svg" xmlns:xlink="http://www.w3.org/1999/xlink">
    <title>hybrid-networking</title>
    <g id="V2-Icons" stroke="none" stroke-width="1" fill="none" fill-rule="evenodd">
        <g id="IBM/Cloud/Network" transform="translate(-894, -24)">
            <g id="hybrid-networking" transform="translate(894, 24)">
                <rect id="Rectangle-Copy-38" fill="#1192E8" x="0" y="0" width="48" height="48"></rect>
                <g transform="translate(12, 12)">
                    <path d="M12.75,18.1377 L12.75,15 L11.25,15 L11.25,18.1377 C10.21684,18.5029772 9.59709594,19.5594497 9.78240324,20.6394998 C9.96771055,21.7195499 10.9041683,22.5090203 12,22.5090203 C13.0958317,22.5090203 14.0322895,21.7195499 14.2175968,20.6394998 C14.4029041,19.5594497 13.78316,18.5029772 12.75,18.1377 Z" id="Path" fill="#FFFFFF" fill-rule="nonzero"></path>
                    <path d="M19.5,9 C18.1358743,9.00414528 16.9466288,9.92893247 16.606575,11.25 L7.393425,11.25 C7.01574973,9.78726996 5.60933496,8.83355609 4.11067461,9.02391091 C2.61201427,9.21426573 1.48868749,10.4892989 1.48868749,12 C1.48868749,13.5107011 2.61201427,14.7857343 4.11067461,14.9760891 C5.60933496,15.1664439 7.01574973,14.21273 7.393425,12.75 L16.606575,12.75 C16.9988555,14.2560014 18.4791679,15.2106476 20.0128756,14.9467064 C21.5465833,14.6827653 22.6226099,13.2881897 22.4888868,11.7376923 C22.3551636,10.1871948 21.0562512,8.99744665 19.5,9 L19.5,9 Z M4.5,13.5 C3.67157288,13.5 3,12.8284271 3,12 C3,11.1715729 3.67157288,10.5 4.5,10.5 C5.32842712,10.5 6,11.1715729 6,12 C5.99896694,12.8279988 5.32799884,13.4989669 4.5,13.5 Z M19.5,13.5 C18.6715729,13.5 18,12.8284271 18,12 C18,11.1715729 18.6715729,10.5 19.5,10.5 C20.3284271,10.5 21,11.1715729 21,12 C20.9989669,12.8279988 20.3279988,13.4989669 19.5,13.5 Z" id="Shape" fill="#FFFFFF" fill-rule="nonzero"></path>
                    <path d="M14.2500183,3.75 C14.2545886,2.60463141 13.3980138,1.63860688 12.2603272,1.50609474 C11.1226406,1.37358259 10.0669726,2.11687846 9.80819581,3.23264046 C9.54941904,4.34840246 10.1701307,5.48049822 11.25,5.8623 L11.25,9 L12.75,9 L12.75,5.8623 C13.64704,5.54712842 14.2480441,4.70079444 14.2500183,3.75 Z" id="Path" fill="#FFFFFF" fill-rule="nonzero"></path>
                    <rect id="_Transparent_Rectangle_" x="0" y="0" width="24" height="24"></rect>
                </g>
            </g>
        </g>
    </g>
</svg>