<?xml version="1.0" encoding="UTF-8"?>
<svg width="49px" height="48px" viewBox="0 0 49 48" version="1.1" xmlns="http://www.w3.org/2000/svg" xmlns:xlink="http://www.w3.org/1999/xlink">
    <title>internet-services</title>
    <g id="V2-Icons" stroke="none" stroke-width="1" fill="none" fill-rule="evenodd">
        <g id="IBM/Cloud/Network" transform="translate(-1228, -24)">
            <g id="internet-services" transform="translate(1228, 24)">
                <rect id="Rectangle" fill="#1192E8" x="0" y="0" width="49" height="48"></rect>
                <g transform="translate(13, 12)">
                    <path d="M20.25,16.5 C19.725,16.5 19.2,16.725 18.825,17.025 L14.925,14.7 C14.925,14.55 15,14.4 15,14.25 C15,14.1 15,13.95 14.925,13.8 L18.825,11.475 C19.2,11.775 19.725,12 20.25,12 C21.525,12 22.5,11.025 22.5,9.75 C22.5,8.475 21.525,7.5 20.25,7.5 C18.975,7.5 18,8.475 18,9.75 C18,9.9 18,10.05 18.075,10.2 L14.175,12.525 C13.8,12.225 13.275,12 12.75,12 C11.475,12 10.5,12.975 10.5,14.25 C10.5,15.525 11.475,16.5 12.75,16.5 C13.275,16.5 13.8,16.275 14.175,15.975 L18.075,18.3 C18.075,18.45 18,18.6 18,18.75 C18,20.025 18.975,21 20.25,21 C21.525,21 22.5,20.025 22.5,18.75 C22.5,17.475 21.525,16.5 20.25,16.5 Z M20.25,9 C20.7,9 21,9.3 21,9.75 C21,10.2 20.7,10.5 20.25,10.5 C19.8,10.5 19.5,10.2 19.5,9.75 C19.5,9.3 19.8,9 20.25,9 Z M12.75,15 C12.3,15 12,14.7 12,14.25 C12,13.8 12.3,13.5 12.75,13.5 C13.2,13.5 13.5,13.8 13.5,14.25 C13.5,14.7 13.2,15 12.75,15 Z M20.25,19.5 C19.8,19.5 19.5,19.2 19.5,18.75 C19.5,18.3 19.8,18 20.25,18 C20.7,18 21,18.3 21,18.75 C21,19.2 20.7,19.5 20.25,19.5 Z" id="Shape" fill="#FFFFFF" fill-rule="nonzero"></path>
                    <path d="M14.25,18.75 L6.375,18.75 C4.125,18.75 2.25,16.875 2.25,14.625 C2.25,12.6 3.675,10.95 5.625,10.575 L6.6,10.425 L6.825,9.45 C7.425,6.525 9.9,4.5 12.75,4.5 C13.125,4.5 13.5,4.5 13.875,4.575 C15.075,4.8 16.125,5.4 17.025,6.225 L18.075,5.175 C17.025,4.125 15.675,3.375 14.175,3.15 C13.725,3.075 13.2,3 12.75,3 C9.225,3 6.075,5.475 5.4,9.075 C2.7,9.6 0.75,11.925 0.75,14.625 C0.75,17.7 3.225,20.25 6.375,20.25 L14.25,20.25 L14.25,18.75 Z" id="Path" fill="#FFFFFF" fill-rule="nonzero"></path>
                    <rect id="_x3C_Transparent_Rectangle_x3E__232_" x="0" y="0" width="24" height="24"></rect>
                </g>
            </g>
        </g>
    </g>
</svg>