<?xml version="1.0" encoding="UTF-8"?>
<svg width="48px" height="48px" viewBox="0 0 48 48" version="1.1" xmlns="http://www.w3.org/2000/svg" xmlns:xlink="http://www.w3.org/1999/xlink">
    <title>load-balancer--application</title>
    <g id="V2-Icons" stroke="none" stroke-width="1" fill="none" fill-rule="evenodd">
        <g id="IBM/Cloud/Network" transform="translate(-116, -20)">
            <g id="load-balancer--application" transform="translate(116, 20)">
                <rect id="Rectangle" fill="#1192E8" x="0" y="0" width="48" height="48"></rect>
                <g transform="translate(12, 12)">
                    <rect id="Rectangle" fill="#FFFFFF" fill-rule="nonzero" x="3" y="19.5" width="3" height="3"></rect>
                    <rect id="Rectangle" fill="#FFFFFF" fill-rule="nonzero" x="10.5" y="19.5" width="3" height="3"></rect>
                    <rect id="Rectangle" fill="#FFFFFF" fill-rule="nonzero" x="18" y="19.5" width="3" height="3"></rect>
                    <path d="M18.75,12 L12.75,12 L12.75,10.5 L11.25,10.5 L11.25,12 L5.25,12 C4.42196695,12.0009506 3.7509506,12.6719669 3.75,13.5 L3.75,18 L5.25,18 L5.25,13.5 L11.25,13.5 L11.25,18 L12.75,18 L12.75,13.5 L18.75,13.5 L18.75,18 L20.25,18 L20.25,13.5 C20.2490494,12.6719669 19.5780331,12.0009506 18.75,12 Z" id="Path" fill="#FFFFFF" fill-rule="nonzero"></path>
                    <path d="M6.75,1.5 L6.75,9 L17.25,9 L17.25,1.5 L6.75,1.5 Z M8.25,3 L9.75,3 L9.75,7.5 L8.25,7.5 L8.25,3 Z M15.75,7.5 L11.25,7.5 L11.25,3 L15.75,3 L15.75,7.5 Z" id="Shape" fill="#FFFFFF" fill-rule="nonzero"></path>
                    <rect id="_Transparent_Rectangle_" x="0" y="0" width="24" height="24"></rect>
                </g>
            </g>
        </g>
    </g>
</svg>