<?xml version="1.0" encoding="UTF-8"?>
<svg width="48px" height="48px" viewBox="0 0 48 48" version="1.1" xmlns="http://www.w3.org/2000/svg" xmlns:xlink="http://www.w3.org/1999/xlink">
    <title>load-balancer--network</title>
    <g id="V2-Icons" stroke="none" stroke-width="1" fill="none" fill-rule="evenodd">
        <g id="IBM/Cloud/Network" transform="translate(-511, -86)">
            <g id="load-balancer--network" transform="translate(511, 86)">
                <rect id="Rectangle-Copy-18" fill="#1192E8" x="0" y="0" width="48" height="48"></rect>
                <g transform="translate(12, 12)">
                    <path d="M18.75,12 L12.75,12 L12.75,9 L11.25,9 L11.25,12 L5.25,12 C4.42196695,12.0009506 3.7509506,12.6719669 3.75,13.5 L3.75,16.5 L5.25,16.5 L5.25,13.5 L11.25,13.5 L11.25,16.5 L12.75,16.5 L12.75,13.5 L18.75,13.5 L18.75,16.5 L20.25,16.5 L20.25,13.5 C20.2490494,12.6719669 19.5780331,12.0009506 18.75,12 Z" id="Path" fill="#FFFFFF" fill-rule="nonzero"></path>
                    <path d="M15,7.5 L15,1.5 L9,1.5 L9,7.5 L15,7.5 Z M10.5,6 L10.5,3 L13.5,3 L13.5,6 L10.5,6 Z" id="Shape" fill="#FFFFFF" fill-rule="nonzero"></path>
                    <path d="M19.5,18 C18.5496211,18.0028728 17.703915,18.6035803 17.388225,19.5 L14.111775,19.5 C13.7985245,18.6017356 12.9513174,17.9999364 12,17.9999364 C11.0486826,17.9999364 10.2014755,18.6017356 9.888225,19.5 L6.611775,19.5 C6.24649777,18.46684 5.19002533,17.8470959 4.1099752,18.0324032 C3.02992508,18.2177105 2.24045466,19.1541683 2.24045466,20.25 C2.24045466,21.3458317 3.02992508,22.2822895 4.1099752,22.4675968 C5.19002533,22.6529041 6.24649777,22.03316 6.611775,21 L9.888225,21 C10.2014755,21.8982644 11.0486826,22.5000636 12,22.5000636 C12.9513174,22.5000636 13.7985245,21.8982644 14.111775,21 L17.388225,21 C17.771586,22.0757245 18.9011245,22.6925335 20.0133543,22.4335087 C21.1255841,22.174484 21.8663868,21.1220953 21.7350334,19.9876813 C21.60368,18.8532672 20.6419917,17.9980093 19.5,18 L19.5,18 Z M4.5,21 C4.08578644,21 3.75,20.6642136 3.75,20.25 C3.75,19.8357864 4.08578644,19.5 4.5,19.5 C4.91421356,19.5 5.25,19.8357864 5.25,20.25 C5.24962785,20.6640593 4.91405931,20.9996278 4.5,21 L4.5,21 Z M12,21 C11.5857864,21 11.25,20.6642136 11.25,20.25 C11.25,19.8357864 11.5857864,19.5 12,19.5 C12.4142136,19.5 12.75,19.8357864 12.75,20.25 C12.7496278,20.6640593 12.4140593,20.9996278 12,21 L12,21 Z M19.5,21 C19.0857864,21 18.75,20.6642136 18.75,20.25 C18.75,19.8357864 19.0857864,19.5 19.5,19.5 C19.9142136,19.5 20.25,19.8357864 20.25,20.25 C20.2496278,20.6640593 19.9140593,20.9996278 19.5,21 L19.5,21 Z" id="Shape" fill="#FFFFFF" fill-rule="nonzero"></path>
                    <rect id="_Transparent_Rectangle_" x="0" y="0" width="24" height="24"></rect>
                </g>
            </g>
        </g>
    </g>
</svg>