<?xml version="1.0" encoding="UTF-8"?>
<svg width="48px" height="48px" viewBox="0 0 48 48" version="1.1" xmlns="http://www.w3.org/2000/svg" xmlns:xlink="http://www.w3.org/1999/xlink">
    <title>network-interface</title>
    <g id="V2-Icons" stroke="none" stroke-width="1" fill="none" fill-rule="evenodd">
        <g id="IBM/Cloud/Network" transform="translate(-445, -86)">
            <g id="network-interface" transform="translate(445, 86)">
                <rect id="Rectangle-Copy-36" fill="#1192E8" x="0" y="0" width="48" height="48"></rect>
                <g transform="translate(12, 12)">
                    <path d="M21,13.5 L19.5,13.5 L19.5,4.5 L9.75,4.5 L9.75,3 L19.5,3 C20.3271,3 21,3.6729 21,4.5 L21,13.5 Z" id="Path" fill="#FFFFFF" fill-rule="nonzero"></path>
                    <path d="M13.5,21 L4.5,21 C3.6729,21 3,20.3271 3,19.5 L3,9.75 L4.5,9.75 L4.5,19.5 L13.5,19.5 L13.5,21 Z" id="Path" fill="#FFFFFF" fill-rule="nonzero"></path>
                    <path d="M19.5,15.75 L18.15525,17.09475 L14.02455,12.9639 C14.1648,12.670575 14.249925,12.3465 14.249925,12 C14.249925,10.759275 13.24065,9.75 11.999925,9.75 C11.65365,9.75 11.329425,9.834975 11.036025,9.9756 L7.07475,6.014325 C7.338225,5.5683 7.499925,5.05485 7.499925,4.500075 C7.499925,2.845875 6.154125,1.500075 4.499925,1.500075 C2.845725,1.500075 1.5,2.8458 1.5,4.5 C1.5,6.1542 2.8458,7.5 4.5,7.5 C5.054625,7.5 5.568075,7.338525 6.01425,7.074825 L9.975375,11.0361 C9.835125,11.329425 9.75,11.6535 9.75,12 C9.75,13.240725 10.759275,14.25 12,14.25 C12.346275,14.25 12.6705,14.165025 12.9639,14.0244 L17.09475,18.15525 L15.75,19.5 L19.5,23.25 L23.25,19.5 L19.5,15.75 Z M3,4.5 C3,3.673125 3.6729,3 4.5,3 C5.3271,3 6,3.673125 6,4.5 C6,5.326875 5.3271,6 4.5,6 C3.6729,6 3,5.326875 3,4.5 Z M11.25,12 C11.25,11.586525 11.586375,11.25 12,11.25 C12.413625,11.25 12.75,11.586525 12.75,12 C12.75,12.413475 12.413625,12.75 12,12.75 C11.586375,12.75 11.25,12.413475 11.25,12 Z M17.87145,19.5 L19.5,17.87145 L21.12855,19.5 L19.5,21.12855 L17.87145,19.5 Z" id="Shape" fill="#FFFFFF" fill-rule="nonzero"></path>
                    <rect id="_Transparent_Rectangle_" x="0" y="0" width="24" height="24"></rect>
                </g>
            </g>
        </g>
    </g>
</svg>