<?xml version="1.0" encoding="UTF-8"?>
<svg width="48px" height="48px" viewBox="0 0 48 48" version="1.1" xmlns="http://www.w3.org/2000/svg" xmlns:xlink="http://www.w3.org/1999/xlink">
    <title>Push to talk</title>
    <g id="V2-Icons" stroke="none" stroke-width="1" fill="none" fill-rule="evenodd">
        <g id="IBM/Cloud/Network" transform="translate(-829, -86)">
            <g id="Push-to-talk" transform="translate(829, 86)">
                <rect id="Rectangle-Copy-20" fill="#1192E8" x="0" y="0" width="48" height="48"></rect>
                <g id="radio--push-to-talk" transform="translate(12, 12)">
                    <rect id="Rectangle" fill="#FFFFFF" fill-rule="nonzero" x="9.75" y="8.25" width="4.5" height="1.5"></rect>
                    <rect id="Rectangle" fill="#FFFFFF" fill-rule="nonzero" x="9.75" y="11.25" width="4.5" height="1.5"></rect>
                    <circle id="Oval" fill="#FFFFFF" fill-rule="nonzero" cx="12" cy="17.25" r="1.5"></circle>
                    <path d="M16.5,5.25 L15.75,5.25 L15.75,1.5 L14.25,1.5 L14.25,5.25 L7.5,5.25 C6.67196695,5.2509506 6.0009506,5.92196695 6,6.75 L6,8.25 L4.5,8.25 L4.5,9.75 L6,9.75 L6,11.25 L4.5,11.25 L4.5,12.75 L6,12.75 L6,21 C6.0009506,21.8280331 6.67196695,22.4990494 7.5,22.5 L16.5,22.5 C17.3280331,22.4990494 17.9990494,21.8280331 18,21 L18,6.75 C17.9990494,5.92196695 17.3280331,5.2509506 16.5,5.25 L16.5,5.25 Z M7.5,21 L7.5,6.75 L16.5,6.75 L16.5,21 L7.5,21 Z" id="Shape" fill="#FFFFFF" fill-rule="nonzero"></path>
                    <rect id="_Transparent_Rectangle_" x="0" y="0" width="24" height="24"></rect>
                </g>
            </g>
        </g>
    </g>
</svg>