<?xml version="1.0" encoding="UTF-8"?>
<svg width="48px" height="48px" viewBox="0 0 48 48" version="1.1" xmlns="http://www.w3.org/2000/svg" xmlns:xlink="http://www.w3.org/1999/xlink">
    <title>radio--combat</title>
    <g id="V2-Icons" stroke="none" stroke-width="1" fill="none" fill-rule="evenodd">
        <g id="IBM/Cloud/Network" transform="translate(-766, -86)">
            <g id="radio--combat" transform="translate(766, 86)">
                <rect id="Rectangle-Copy-40" fill="#1192E8" x="0" y="0" width="48" height="48"></rect>
                <g transform="translate(12.0004, 12)">
                    <path d="M7.5,19.5 C5.84314575,19.5 4.5,18.1568542 4.5,16.5 C4.5,14.8431458 5.84314575,13.5 7.5,13.5 C9.15685425,13.5 10.5,14.8431458 10.5,16.5 C10.49814,18.1560832 9.15608322,19.49814 7.5,19.5 L7.5,19.5 Z M7.5,15 C6.67157288,15 6,15.6715729 6,16.5 C6,17.3284271 6.67157288,18 7.5,18 C8.32842712,18 9,17.3284271 9,16.5 C8.9991319,15.6719327 8.32806728,15.0008681 7.5,15 Z" id="Shape" fill="#FFFFFF" fill-rule="nonzero"></path>
                    <rect id="Rectangle" fill="#FFFFFF" fill-rule="nonzero" x="12.75" y="15" width="6.75" height="1.5"></rect>
                    <rect id="Rectangle" fill="#FFFFFF" fill-rule="nonzero" x="12.75" y="18" width="6.75" height="1.5"></rect>
                    <path d="M15,9 L21,9 C21.8280331,8.9990494 22.4990494,8.32803305 22.5,7.5 L22.5,4.5 C22.4990494,3.67196695 21.8280331,3.0009506 21,3 L15,3 C14.1719669,3.0009506 13.5009506,3.67196695 13.5,4.5 L13.5,5.25 L9,5.25 C7.34391678,5.25185996 6.00185996,6.59391678 6,8.25 L6,10.5 L4.5,10.5 L4.5,3 L3,3 L3,10.5 C2.17196695,10.5009506 1.5009506,11.1719669 1.5,12 L1.5,21 C1.5009506,21.8280331 2.17196695,22.4990494 3,22.5 L21,22.5 C21.8280331,22.4990494 22.4990494,21.8280331 22.5,21 L22.5,12 C22.4990494,11.1719669 21.8280331,10.5009506 21,10.5 L7.5,10.5 L7.5,8.25 C7.5009506,7.42196695 8.17196695,6.7509506 9,6.75 L13.5,6.75 L13.5,7.5 C13.5009506,8.32803305 14.1719669,8.9990494 15,9 Z M18,4.5 L21,4.5 L21,7.5 L18,7.5 L18,4.5 Z M15,4.5 L16.5,4.5 L16.5,7.5 L15,7.5 L15,4.5 Z M21,21 L3,21 L3,12 L21,12 L21,21 Z" id="Shape" fill="#FFFFFF" fill-rule="nonzero"></path>
                    <rect id="_Transparent_Rectangle_" x="0" y="0" width="24" height="24"></rect>
                </g>
            </g>
        </g>
    </g>
</svg>