<?xml version="1.0" encoding="UTF-8"?>
<svg width="48px" height="48px" viewBox="0 0 48 48" version="1.1" xmlns="http://www.w3.org/2000/svg" xmlns:xlink="http://www.w3.org/1999/xlink">
    <title>server--dns</title>
    <g id="V2-Icons" stroke="none" stroke-width="1" fill="none" fill-rule="evenodd">
        <g id="IBM/Cloud/Network" transform="translate(-307, -148)">
            <g id="server--dns" transform="translate(307, 148)">
                <rect id="Rectangle-Copy-42" fill="#1192E8" x="0" y="0" width="48" height="48"></rect>
                <g transform="translate(12, 12)">
                    <path d="M12,1.5 C8.6862915,1.5 6,4.1862915 6,7.5 C6,10.8137085 8.6862915,13.5 12,13.5 C15.3137085,13.5 18,10.8137085 18,7.5 C17.9961976,4.18786778 15.3121322,1.5038024 12,1.5 L12,1.5 Z M16.4325,6.75 L14.6043,6.75 C14.5666857,5.63689914 14.3666482,4.53526521 14.010525,3.48 C15.2920172,4.12271449 16.1912556,5.33681028 16.4325,6.75 L16.4325,6.75 Z M12.0165,11.99925 L12.0108,11.99925 C11.724825,11.9088 11.028975,10.633275 10.90155,8.25 L13.09845,8.25 C12.9714,10.632225 12.278325,11.90775 12.0165,11.99925 Z M10.90155,6.75 C11.0286,4.367775 11.721675,3.09225 11.9835,3.00075 L11.9892,3.00075 C12.275175,3.0912 12.971025,4.366725 13.09845,6.75 L10.90155,6.75 Z M9.989475,3.48 C9.63335185,4.53526521 9.43331433,5.63689914 9.3957,6.75 L7.5675,6.75 C7.80874442,5.33681028 8.70798285,4.12271449 9.989475,3.48 Z M7.5675,8.25 L9.395475,8.25 C9.43308933,9.36310086 9.63312685,10.4647348 9.98925,11.52 C8.70784437,10.8772309 7.80869626,9.6631443 7.5675,8.25 L7.5675,8.25 Z M14.01,11.52 C14.3663017,10.4647615 14.5665162,9.36312692 14.6043,8.25 L16.4325,8.25 C16.1912556,9.66318972 15.2920172,10.8772855 14.010525,11.52 L14.01,11.52 Z" id="Shape" fill="#FFFFFF" fill-rule="nonzero"></path>
                    <path d="M21,22.5 L3,22.5 C2.17193272,22.4991319 1.5008681,21.8280673 1.5,21 L1.5,16.5 C1.5008681,15.6719327 2.17193272,15.0008681 3,15 L21,15 C21.8280673,15.0008681 22.4991319,15.6719327 22.5,16.5 L22.5,21 C22.4991319,21.8280673 21.8280673,22.4991319 21,22.5 Z M3,16.5 L3,21 L21,21 L21,16.5 L3,16.5 Z" id="Shape" fill="#FFFFFF" fill-rule="nonzero"></path>
                    <circle id="Oval" fill="#FFFFFF" fill-rule="nonzero" cx="5.25" cy="18.75" r="1"></circle>
                    <rect id="_Transparent_Rectangle_" x="0" y="0" width="24" height="24"></rect>
                </g>
            </g>
        </g>
    </g>
</svg>