<?xml version="1.0" encoding="UTF-8"?>
<svg width="48px" height="48px" viewBox="0 0 48 48" version="1.1" xmlns="http://www.w3.org/2000/svg" xmlns:xlink="http://www.w3.org/1999/xlink">
    <title>transit-gateway</title>
    <g id="V2-Icons" stroke="none" stroke-width="1" fill="none" fill-rule="evenodd">
        <g id="IBM/Cloud/Network" transform="translate(-1162, -81)">
            <g id="transit-gateway" transform="translate(1162, 81)">
                <rect id="Rectangle-Copy" fill="#1192E8" x="0" y="0" width="48" height="48"></rect>
                <g transform="translate(12, 12)">
                    <path d="M9.375,5.625 L8.325,4.575 L10.95,1.95 C11.55,1.35 12.525,1.35 13.05,1.95 L15.675,4.575 L14.625,5.625 L12,3 L9.375,5.625 Z" id="Path" fill="#FFFFFF" fill-rule="nonzero"></path>
                    <path d="M14.625,18.375 L15.675,19.425 L13.05,22.05 C12.45,22.65 11.475,22.65 10.95,22.05 L8.325,19.425 L9.375,18.375 L12,21 L14.625,18.375 Z" id="Path" fill="#FFFFFF" fill-rule="nonzero"></path>
                    <path d="M18.375,9.375 L19.425,8.325 L22.05,10.95 C22.65,11.55 22.65,12.525 22.05,13.05 L19.425,15.675 L18.375,14.625 L21,12 L18.375,9.375 Z" id="Path" fill="#FFFFFF" fill-rule="nonzero"></path>
                    <path d="M5.625,14.625 L4.575,15.675 L1.95,13.05 C1.35,12.45 1.35,11.475 1.95,10.95 L4.575,8.325 L5.625,9.375 L3,12 L5.625,14.625 Z" id="Path" fill="#FFFFFF" fill-rule="nonzero"></path>
                    <path d="M19.5,18 C19.35,18 19.275,18 19.125,18.075 L14.55,13.5 C15.15,12.6 15.15,11.4 14.55,10.5 L19.125,5.925 C19.275,6 19.35,6 19.5,6 C20.325,6 21,5.325 21,4.5 C21,3.675 20.325,3 19.5,3 C18.675,3 18,3.675 18,4.5 C18,4.65 18,4.725 18.075,4.875 L13.5,9.45 C12.6,8.85 11.4,8.85 10.5,9.45 L5.925,4.875 C6,4.725 6,4.65 6,4.5 C6,3.675 5.325,3 4.5,3 C3.675,3 3,3.675 3,4.5 C3,5.325 3.675,6 4.5,6 C4.65,6 4.725,6 4.875,5.925 L9.45,10.5 C8.85,11.4 8.85,12.6 9.45,13.5 L4.875,18.075 C4.725,18 4.65,18 4.5,18 C3.675,18 3,18.675 3,19.5 C3,20.325 3.675,21 4.5,21 C5.325,21 6,20.325 6,19.5 C6,19.35 6,19.275 5.925,19.125 L10.5,14.55 C11.4,15.15 12.6,15.15 13.5,14.55 L18.075,19.125 C18.075,19.275 18,19.35 18,19.5 C18,20.325 18.675,21 19.5,21 C20.325,21 21,20.325 21,19.5 C21,18.675 20.325,18 19.5,18 Z M12,13.5 C11.175,13.5 10.5,12.825 10.5,12 C10.5,11.175 11.175,10.5 12,10.5 C12.825,10.5 13.5,11.175 13.5,12 C13.5,12.825 12.825,13.5 12,13.5 Z" id="Shape" fill="#FFFFFF" fill-rule="nonzero"></path>
                    <rect id="_Transparent_Rectangle_" x="0" y="0" width="24" height="24"></rect>
                </g>
            </g>
        </g>
    </g>
</svg>