<?xml version="1.0" encoding="UTF-8"?>
<svg width="49px" height="48px" viewBox="0 0 49 48" version="1.1" xmlns="http://www.w3.org/2000/svg" xmlns:xlink="http://www.w3.org/1999/xlink">
    <title>vpc-endpoints</title>
    <g id="V2-Icons" stroke="none" stroke-width="1" fill="none" fill-rule="evenodd">
        <g id="IBM/Cloud/Network" transform="translate(-1489, -86)">
            <g id="vpc-endpoints" transform="translate(1489, 86)">
                <rect id="Rectangle-" fill="#1192E8" x="0" y="0" width="49" height="48"></rect>
                <g transform="translate(13, 12)">
                    <path d="M15,20.25 L5.25,20.25 C4.42258157,20.2475699 3.75243015,19.5774184 3.75,18.75 L3.75,9 L5.25,9 L5.25,18.75 L15,18.75 L15,20.25 Z" id="_Path_" fill="#FFFFFF" fill-rule="nonzero"></path>
                    <path d="M17.55,16.5 L14.55,13.5 C14.8446607,13.0553268 15.0012269,12.5334395 15,12 C14.9951397,10.3451631 13.6548369,9.00486029 12,9 C11.4665605,8.99877312 10.9446732,9.15533933 10.5,9.45 L7.5,6.45 L7.5,1.5 L1.5,1.5 L1.5,7.5 L6.45,7.5 L9.45,10.5 C9.15533933,10.9446732 8.99877312,11.4665605 9,12 C9.00486029,13.6548369 10.3451631,14.9951397 12,15 C12.5334395,15.0012269 13.0553268,14.8446607 13.5,14.55 L16.5,17.55 L16.5,22.5 L22.5,22.5 L22.5,16.5 L17.55,16.5 Z M6,6 L3,6 L3,3 L6,3 L6,6 Z M12,13.5 C11.1715729,13.5 10.5,12.8284271 10.5,12 C10.5,11.1715729 11.1715729,10.5 12,10.5 C12.8284271,10.5 13.5,11.1715729 13.5,12 C13.4975699,12.8274184 12.8274184,13.4975699 12,13.5 L12,13.5 Z M21,21 L18,21 L18,18 L21,18 L21,21 Z" id="_Compound_Path_" fill="#FFFFFF" fill-rule="nonzero"></path>
                    <path d="M18.75,15 L20.25,15 L20.25,5.25 C20.2475699,4.42258157 19.5774184,3.75243015 18.75,3.75 L9,3.75 L9,5.25 L18.75,5.25 L18.75,15 Z" id="_Path_2" fill="#FFFFFF" fill-rule="nonzero"></path>
                    <rect id="_Transparent_Rectangle_" x="0" y="0" width="24" height="24"></rect>
                </g>
            </g>
        </g>
    </g>
</svg>