<?xml version="1.0" encoding="UTF-8"?>
<svg width="48px" height="48px" viewBox="0 0 48 48" version="1.1" xmlns="http://www.w3.org/2000/svg" xmlns:xlink="http://www.w3.org/1999/xlink">
    <title>Call Manager</title>
    <g id="V2-Icons" stroke="none" stroke-width="1" fill="none" fill-rule="evenodd">
        <g id="IBM-Cloud-/-Observability" transform="translate(-623, -48)">
            <g id="Call-Manager" transform="translate(623, 48)">
                <g id="flow-logs-vpc-copy" fill="#009D9A">
                    <rect id="Rectangle-Copy-28" x="0" y="0" width="48" height="48"></rect>
                </g>
                <g id="user--service-desk(1)" transform="translate(12, 12)">
                    <path d="M19.0005,8.9625 L19.904625,8.058 C20.1533497,7.81217167 20.5236652,7.73618537 20.8491,7.8642 L21.951075,8.3043 C22.2802151,8.43798987 22.4967223,8.75643503 22.5,9.111675 L22.5,11.130675 C22.4982167,11.3630267 22.4042015,11.5851527 22.2386382,11.7481842 C22.0730749,11.9112158 21.8495266,12.0017971 21.617175,12.0000262 L21.579675,11.998875 C13.858125,11.51835 12.3,4.976775 12.005475,2.4732 C11.9520137,1.99242357 12.2983397,1.55930625 12.7791,1.5057 C12.8130319,1.50177603 12.8471672,1.49987267 12.881325,1.49999401 L14.830875,1.49999401 C15.1868409,1.50110217 15.5063958,1.71847317 15.638175,2.04915 L16.078125,3.15165 C16.2103805,3.47616057 16.135685,3.84830859 15.88845,4.09665 L14.984325,5.001 C14.984325,5.001 15.504975,8.52615 19.0005,8.9625 Z" id="Path" fill="#FFFFFF" fill-rule="nonzero"></path>
                    <path d="M12,22.5 L10.5,22.5 L10.5,18.75 C10.498636,17.5079248 9.49207525,16.501364 8.25,16.5 L5.25,16.5 C4.00792475,16.501364 3.00136403,17.5079248 3,18.75 L3,22.5 L1.5,22.5 L1.5,18.75 C1.50243835,16.679943 3.17994303,15.0024384 5.25,15 L8.25,15 C10.320057,15.0024384 11.9975616,16.679943 12,18.75 L12,22.5 Z" id="Path" fill="#FFFFFF" fill-rule="nonzero"></path>
                    <path d="M6.75,7.5 C7.99264069,7.5 9,8.50735931 9,9.75 C9,10.9926407 7.99264069,12 6.75,12 C5.50735931,12 4.5,10.9926407 4.5,9.75 C4.5,8.50735931 5.50735931,7.5 6.75,7.5 M6.75,6 C4.67893219,6 3,7.67893219 3,9.75 C3,11.8210678 4.67893219,13.5 6.75,13.5 C8.82106781,13.5 10.5,11.8210678 10.5,9.75 C10.5,8.75543816 10.1049118,7.80161099 9.40165043,7.09834957 C8.69838901,6.39508815 7.74456184,6 6.75,6 Z" id="Shape" fill="#FFFFFF" fill-rule="nonzero"></path>
                    <rect id="_Transparent_Rectangle_" x="0" y="0" width="24" height="24"></rect>
                </g>
            </g>
        </g>
    </g>
</svg>