<?xml version="1.0" encoding="UTF-8"?>
<svg width="48px" height="48px" viewBox="0 0 48 48" version="1.1" xmlns="http://www.w3.org/2000/svg" xmlns:xlink="http://www.w3.org/1999/xlink">
    <title>chat--operational</title>
    <g id="V2-Icons" stroke="none" stroke-width="1" fill="none" fill-rule="evenodd">
        <g id="IBM-Cloud-/-Observability" transform="translate(-434, -49)">
            <g id="chat--operational" transform="translate(434, 49)">
                <rect id="Rectangle-Copy-30" fill="#009D9A" x="0" y="0" width="48" height="48"></rect>
                <g transform="translate(12, 12)">
                    <polygon id="Path" fill="#FFFFFF" fill-rule="nonzero" points="11.6895 7.8105 14.3745 10.5 14.3745 10.5 11.688 13.19025 12.75 14.25 16.5 10.5 12.75 6.75"></polygon>
                    <polygon id="Path" fill="#FFFFFF" fill-rule="nonzero" points="15.4395 7.8105 18.1245 10.5 18.1245 10.5 15.438 13.19025 16.5 14.25 20.25 10.5 16.5 6.75"></polygon>
                    <polygon id="Path" fill="#FFFFFF" fill-rule="nonzero" points="7.5 6.75 8.69475 9 11.25 9.3105 9.375 11.00025 9.75 13.5 7.5 12.09375 5.25 13.5 5.625 11.00025 3.75 9.3105 6.375 9"></polygon>
                    <path d="M13.30185,22.4999999 L11.9999999,21.75 L14.9999999,16.4999999 L19.4999999,16.4999999 C19.8980323,16.5006784 20.2799575,16.342861 20.5614092,16.0614092 C20.842861,15.7799575 21.0006784,15.3980323 20.9999999,14.9999999 L20.9999999,5.99999986 C21.0006784,5.60196769 20.842861,5.22004253 20.5614092,4.93859078 C20.2799575,4.65713902 19.8980323,4.49932161 19.4999999,4.49999986 L4.49999986,4.49999986 C4.10196769,4.49932161 3.72004253,4.65713902 3.43859078,4.93859078 C3.15713902,5.22004253 2.99932161,5.60196769 2.99999986,5.99999986 L2.99999986,14.9999999 C2.99932161,15.3980323 3.15713902,15.7799575 3.43859078,16.0614092 C3.72004253,16.342861 4.10196769,16.5006784 4.49999986,16.4999999 L11.25,16.4999999 L11.25,17.9999999 L4.49999986,17.9999999 C3.70430784,18.0001393 2.94116517,17.6841135 2.37852584,17.1214742 C1.81588651,16.5588348 1.49999986,15.7956922 1.49999986,14.9999999 L1.49999986,5.99999986 C1.49976118,5.20427734 1.815755,4.44107683 2.37841592,3.87841592 C2.94107683,3.315755 3.70427734,2.99976118 4.49999986,2.99999986 L19.4999999,2.99999986 C20.2957227,2.99976118 21.0589232,3.315755 21.6215841,3.87841592 C22.184245,4.44107683 22.5002388,5.20427734 22.4999999,5.99999986 L22.4999999,14.9999999 C22.4999999,15.7956922 22.1841135,16.5588348 21.6214742,17.1214742 C21.0588348,17.6841135 20.2956922,18.0001393 19.4999999,17.9999999 L15.87345,17.9999999 L13.30185,22.4999999 Z" id="Path" fill="#FFFFFF" fill-rule="nonzero"></path>
                    <rect id="_Transparent_Rectangle_" x="0" y="0" width="24" height="24"></rect>
                </g>
            </g>
        </g>
    </g>
</svg>