<?xml version="1.0" encoding="UTF-8"?>
<svg width="48px" height="48px" viewBox="0 0 48 48" version="1.1" xmlns="http://www.w3.org/2000/svg" xmlns:xlink="http://www.w3.org/1999/xlink">
    <title>cloud--service-management</title>
    <g id="V2-Icons" stroke="none" stroke-width="1" fill="none" fill-rule="evenodd">
        <g id="IBM-Cloud-/-Observability" transform="translate(-497, -49)">
            <g id="cloud--service-management" transform="translate(497, 49)">
                <rect id="Rectangle-Copy-35" fill="#009D9A" x="0" y="0" width="48" height="48"></rect>
                <g transform="translate(12, 12)">
                    <path d="M21,12.75 L21,16.5 L3,16.5 L3,4.5 L10.5,4.5 L10.5,3 L3,3 C2.17157288,3 1.5,3.67157288 1.5,4.5 L1.5,16.5 C1.5,17.3284271 2.17157288,18 3,18 L9,18 L9,21 L6,21 L6,22.5 L18,22.5 L18,21 L15,21 L15,18 L21,18 C21.8284271,18 22.5,17.3284271 22.5,16.5 L22.5,12.75 L21,12.75 Z M13.5,21 L10.5,21 L10.5,18 L13.5,18 L13.5,21 Z" id="Shape" fill="#FFFFFF" fill-rule="nonzero"></path>
                    <path d="M22.5,7.5 L22.5,6 L20.924175,6 C20.8274664,5.5305463 20.6410847,5.08416235 20.37525,4.685325 L21.49275,3.567825 L20.43225,2.507325 L19.31475,3.624825 C18.9158958,3.35895498 18.4694852,3.17254737 18,3.075825 L18,1.5 L16.5,1.5 L16.5,3.075825 C16.0305463,3.1725336 15.5841623,3.35891526 15.185325,3.62475 L14.067825,2.50725 L13.007325,3.56775 L14.124825,4.68525 C13.858955,5.08410424 13.6725474,5.5305148 13.575825,6 L12,6 L12,7.5 L13.575825,7.5 C13.6725336,7.9694537 13.8589153,8.41583765 14.12475,8.814675 L13.00725,9.932175 L14.06775,10.992675 L15.18525,9.875175 C15.5841042,10.141045 16.0305148,10.3274526 16.5,10.424175 L16.5,12 L18,12 L18,10.424175 C18.4694537,10.3274664 18.9158377,10.1410847 19.314675,9.87525 L20.432175,10.99275 L21.492675,9.93225 L20.375175,8.81475 C20.641045,8.41589576 20.8274526,7.9694852 20.924175,7.5 L22.5,7.5 Z M17.25,9 C16.0073593,9 15,7.99264069 15,6.75 C15,5.50735931 16.0073593,4.5 17.25,4.5 C18.4926407,4.5 19.5,5.50735931 19.5,6.75 C19.498636,7.99207525 18.4920752,8.99863597 17.25,9 L17.25,9 Z" id="Shape" fill="#FFFFFF" fill-rule="nonzero"></path>
                    <rect id="_Transparent_Rectangle_" x="0" y="0" width="24" height="24"></rect>
                </g>
            </g>
        </g>
    </g>
</svg>