<?xml version="1.0" encoding="UTF-8"?>
<svg width="48px" height="48px" viewBox="0 0 48 48" version="1.1" xmlns="http://www.w3.org/2000/svg" xmlns:xlink="http://www.w3.org/1999/xlink">
    <title>cloud--monitoring</title>
    <g id="V2-Icons" stroke="none" stroke-width="1" fill="none" fill-rule="evenodd">
        <g id="IBM-Cloud-/-Observability" transform="translate(-371, -49)">
            <g id="cloud--monitoring" transform="translate(371, 49)">
                <rect id="Rectangle-Copy-25" fill="#009D9A" x="0" y="0" width="48" height="48"></rect>
                <g transform="translate(11, 12)">
                    <path d="M21,12 L21,16.5 L3,16.5 L3,4.5 L8.25,4.5 L8.25,3 L3,3 C2.17157288,3 1.5,3.67157288 1.5,4.5 L1.5,16.5 C1.5,17.3284271 2.17157288,18 3,18 L9,18 L9,21 L6,21 L6,22.5 L18,22.5 L18,21 L15,21 L15,18 L21,18 C21.8284271,18 22.5,17.3284271 22.5,16.5 L22.5,12 L21,12 Z M13.5,21 L10.5,21 L10.5,18 L13.5,18 L13.5,21 Z" id="Shape" fill="#FFFFFF" fill-rule="nonzero"></path>
                    <path d="M13.5,13.5 L13.4925,13.5 C13.1605377,13.4965323 12.8703519,13.2752393 12.779175,12.956025 L11.4342,8.25 L8.25,8.25 L8.25,6.75 L12,6.75 C12.3348371,6.75000047 12.6291118,6.97195368 12.721125,7.2939 L13.526775,10.113075 L15.783375,2.77935 C15.8831105,2.46682987 16.1719694,2.2534582 16.5,2.2499188 C16.8243621,2.24520014 17.113513,2.45361312 17.211525,2.76285 L18.540525,6.75 L22.5,6.75 L22.5,8.25 L18,8.25 C17.6771671,8.2500024 17.3905548,8.04341921 17.288475,7.73715 L16.528575,5.45715 L14.2167,12.97065 C14.119855,13.2852624 13.8291807,13.5 13.5,13.5 Z" id="Path" fill="#FFFFFF" fill-rule="nonzero"></path>
                    <rect id="_Transparent_Rectangle_" x="0" y="0" width="24" height="24"></rect>
                </g>
            </g>
        </g>
    </g>
</svg>