<?xml version="1.0" encoding="UTF-8"?>
<svg width="48px" height="48px" viewBox="0 0 48 48" version="1.1" xmlns="http://www.w3.org/2000/svg" xmlns:xlink="http://www.w3.org/1999/xlink">
    <title>gui--management</title>
    <g id="V2-Icons" stroke="none" stroke-width="1" fill="none" fill-rule="evenodd">
        <g id="IBM-Cloud-/-Observability" transform="translate(-182, -49)">
            <g id="gui--management" transform="translate(182, 49)">
                <rect id="Rectangle" fill="#009D9A" x="0" y="0" width="48" height="48"></rect>
                <g transform="translate(12, 12)">
                    <path d="M22.5,18 L22.5,16.5 L20.924175,16.5 C20.8274664,16.0305463 20.6410847,15.5841623 20.37525,15.185325 L21.49275,14.067825 L20.43225,13.007325 L19.31475,14.124825 C18.9158958,13.858955 18.4694852,13.6725474 18,13.575825 L18,12 L16.5,12 L16.5,13.575825 C16.0305463,13.6725336 15.5841623,13.8589153 15.185325,14.12475 L14.067825,13.00725 L13.007325,14.06775 L14.124825,15.18525 C13.858955,15.5841042 13.6725474,16.0305148 13.575825,16.5 L12,16.5 L12,18 L13.575825,18 C13.6725336,18.4694537 13.8589153,18.9158377 14.12475,19.314675 L13.00725,20.432175 L14.06775,21.492675 L15.18525,20.375175 C15.5841042,20.641045 16.0305148,20.8274526 16.5,20.924175 L16.5,22.5 L18,22.5 L18,20.924175 C18.4694537,20.8274664 18.9158377,20.6410847 19.314675,20.37525 L20.432175,21.49275 L21.492675,20.43225 L20.375175,19.31475 C20.641045,18.9158958 20.8274526,18.4694852 20.924175,18 L22.5,18 Z M17.25,19.5 C16.0073593,19.5 15,18.4926407 15,17.25 C15,16.0073593 16.0073593,15 17.25,15 C18.4926407,15 19.5,16.0073593 19.5,17.25 C19.498636,18.4920752 18.4920752,19.498636 17.25,19.5 L17.25,19.5 Z" id="Shape" fill="#FFFFFF" fill-rule="nonzero"></path>
                    <path d="M21,3 L3,3 C2.17191561,3.00082684 1.50082684,3.67191561 1.5,4.5 L1.5,19.5 C1.5009506,20.3280331 2.17196695,20.9990494 3,21 L10.5,21 L10.5,19.5 L3,19.5 L3,9 L21,9 L21,11.25 L22.5,11.25 L22.5,4.5 C22.4990494,3.67196695 21.8280331,3.0009506 21,3 L21,3 Z M21,7.5 L3,7.5 L3,4.5 L21,4.5 L21,7.5 Z" id="Shape" fill="#FFFFFF" fill-rule="nonzero"></path>
                    <circle id="Oval" fill="#FFFFFF" fill-rule="nonzero" cx="15" cy="6" r="1"></circle>
                    <circle id="Oval" fill="#FFFFFF" fill-rule="nonzero" cx="17.25" cy="6" r="1"></circle>
                    <circle id="Oval" fill="#FFFFFF" fill-rule="nonzero" cx="19.5" cy="6" r="1"></circle>
                    <rect id="_Transparent_Rectangle_" x="0" y="0" width="24" height="24"></rect>
                </g>
            </g>
        </g>
    </g>
</svg>