<?xml version="1.0" encoding="UTF-8"?>
<svg width="48px" height="48px" viewBox="0 0 48 48" version="1.1" xmlns="http://www.w3.org/2000/svg" xmlns:xlink="http://www.w3.org/1999/xlink">
    <title>gui</title>
    <g id="V2-Icons" stroke="none" stroke-width="1" fill="none" fill-rule="evenodd">
        <g id="IBM-Cloud-/-Observability" transform="translate(-245, -49)">
            <g id="gui" transform="translate(245, 49)">
                <rect id="Rectangle-Copy-29" fill="#009D9A" x="0" y="0" width="48" height="48"></rect>
                <g transform="translate(12, 12)">
                    <circle id="Oval" fill="#FFFFFF" fill-rule="nonzero" cx="15" cy="6" r="1"></circle>
                    <circle id="Oval" fill="#FFFFFF" fill-rule="nonzero" cx="17.25" cy="6" r="1"></circle>
                    <circle id="Oval" fill="#FFFFFF" fill-rule="nonzero" cx="19.5" cy="6" r="1"></circle>
                    <path d="M21,3 L3,3 C2.17196695,3.0009506 1.5009506,3.67196695 1.5,4.5 L1.5,19.5 C1.5009506,20.3280331 2.17196695,20.9990494 3,21 L21,21 C21.8280331,20.9990494 22.4990494,20.3280331 22.5,19.5 L22.5,4.5 C22.4990494,3.67196695 21.8280331,3.0009506 21,3 L21,3 Z M21,4.5 L21,7.5 L3,7.5 L3,4.5 L21,4.5 Z M3,9 L7.5,9 L7.5,19.5 L3,19.5 L3,9 Z M9,19.5 L9,9 L21,9 L21,19.5 L9,19.5 Z" id="Shape" fill="#FFFFFF" fill-rule="nonzero"></path>
                    <rect id="_Transparent_Rectangle_" x="0" y="0" width="24" height="24"></rect>
                </g>
            </g>
        </g>
    </g>
</svg>