<?xml version="1.0" encoding="UTF-8"?>
<svg width="73px" height="73px" viewBox="0 0 73 73" version="1.1" xmlns="http://www.w3.org/2000/svg" xmlns:xlink="http://www.w3.org/1999/xlink">
    <!-- Generator: Sketch 53 (72520) - https://sketchapp.com -->
    <title>Group 6 Copy</title>
    <desc>Created with Sketch.</desc>
    <g id="Page-1" stroke="none" stroke-width="1" fill="none" fill-rule="evenodd">
        <g id="Logos-with-Names" transform="translate(-804.000000, -1187.000000)">
            <g id="Group-6-Copy" transform="translate(804.500000, 1187.930653)">
                <path d="M72.2739,35.985 C72.2739,55.859 56.1629,71.97 36.2889,71.97 C16.4149,71.97 0.3039,55.859 0.3039,35.985 C0.3039,16.111 16.4149,0 36.2889,0 C56.1629,0 72.2739,16.111 72.2739,35.985" id="Fill-1" fill="#E02533"></path>
                <path d="M6.165,49.6403 C11.315,35.9693 21.209,28.7093 35.807,27.7653 L35.807,16.1603 C43.405,22.4923 50.809,28.6633 58.311,34.9153 C50.812,41.1643 43.406,47.3363 35.812,53.6653 L35.812,41.0493 C24.573,39.4753 14.775,42.4593 6.165,49.6403" id="Fill-4" fill="#FFFFFF"></path>
                <path d="M43.2734,16.1579 C50.8604,22.4809 58.2454,28.6359 65.7774,34.9129 C58.3144,41.1359 50.9104,47.3079 43.4974,53.4879 C42.8894,51.9309 43.2294,50.4569 44.3954,49.4879 C49.9964,44.8309 55.5964,40.1749 61.1954,35.5139 C61.4004,35.3429 61.5784,35.1369 61.8404,34.8759 C59.8454,33.2049 57.8974,31.5669 55.9414,29.9379 C52.0434,26.6899 48.1494,23.4349 44.2304,20.2129 C43.5384,19.6429 43.1344,19.0509 43.2594,18.1189 C43.3344,17.5569 43.2734,16.9779 43.2734,16.1579" id="Fill-5" fill="#FFFFFF"></path>
            </g>
        </g>
    </g>
</svg>