<?xml version="1.0" encoding="UTF-8"?>
<svg width="67px" height="67px" viewBox="0 0 67 67" version="1.1" xmlns="http://www.w3.org/2000/svg" xmlns:xlink="http://www.w3.org/1999/xlink">
    <!-- Generator: Sketch 53 (72520) - https://sketchapp.com -->
    <title>Group 58</title>
    <desc>Created with Sketch.</desc>
    <defs>
        <polygon id="path-1" points="0.0002 0.014 66 0.014 66 65.9996 0.0002 65.9996"></polygon>
    </defs>
    <g id="Page-1" stroke="none" stroke-width="1" fill="none" fill-rule="evenodd">
        <g id="Artboard" transform="translate(-253.000000, -634.000000)">
            <g id="Group-58" transform="translate(253.800000, 633.249950)">
                <g id="Group-15-Copy">
                    <g id="Group-3" transform="translate(0.000000, 0.986400)">
                        <mask id="mask-2" fill="white">
                            <use xlink:href="#path-1"></use>
                        </mask>
                        <g id="Clip-2"></g>
                        <path d="M33.0002,0.0136 C51.2252,0.0136 66.0002,14.7846 66.0002,33.0066 C66.0002,51.2286 51.2252,65.9996 33.0002,65.9996 C14.7742,65.9996 0.0002,51.2286 0.0002,33.0066 C0.0002,14.7846 14.7742,0.0136 33.0002,0.0136" id="Fill-1" fill="#00B09C" mask="url(#mask-2)"></path>
                    </g>
                </g>
                <g id="Group-5" transform="translate(8.500000, 8.500000)" fill="#FEFEFE">
                    <path d="M24.4635449,-0.00011964837 L0.000239296739,42.4212098 L48.9244576,42.4212098 L48.9244576,42.4188168 L24.4635449,-0.00011964837 Z M24.4635449,3.25192304 L46.0971666,40.7233994 L2.82872675,40.7233994 L24.4635449,3.25192304 Z" id="Fill-1"></path>
                    <polygon id="Fill-2" points="22.7654953 17.9580238 22.7654953 21.2100665 23.6138022 29.2707771 25.3116126 29.2707771 26.0187344 21.2100665 26.0187344 17.9580238"></polygon>
                    <path d="M24.463186,30.825488 C25.4000327,30.825488 26.1597999,31.5852552 26.1597999,32.5221019 C26.1597999,33.4601451 25.4000327,34.2187158 24.463186,34.2187158 C23.5263393,34.2187158 22.7653756,33.4601451 22.7653756,32.5221019 C22.7653756,31.5852552 23.5263393,30.825488 24.463186,30.825488" id="Fill-3"></path>
                </g>
            </g>
        </g>
    </g>
</svg>