<?xml version="1.0" encoding="UTF-8"?>
<svg width="67px" height="67px" viewBox="0 0 67 67" version="1.1" xmlns="http://www.w3.org/2000/svg" xmlns:xlink="http://www.w3.org/1999/xlink">
    <!-- Generator: Sketch 53 (72520) - https://sketchapp.com -->
    <title>Group 59</title>
    <desc>Created with Sketch.</desc>
    <defs>
        <polygon id="path-1" points="0.00115924967 0.0412177659 34.5197502 0.0412177659 34.5197502 34.5609679 0.00115924967 34.5609679"></polygon>
    </defs>
    <g id="Page-1" stroke="none" stroke-width="1" fill="none" fill-rule="evenodd">
        <g id="Artboard" transform="translate(-355.000000, -634.000000)">
            <g id="Group-59" transform="translate(355.200000, 633.249950)">
                <g id="Group-15-Copy" fill="#00B09C">
                    <g id="Group-3" transform="translate(0.000000, 0.986400)">
                        <path d="M33.0002,0.0136 C51.2252,0.0136 66.0002,14.7846 66.0002,33.0066 C66.0002,51.2286 51.2252,65.9996 33.0002,65.9996 C14.7742,65.9996 0.0002,51.2286 0.0002,33.0066 C0.0002,14.7846 14.7742,0.0136 33.0002,0.0136" id="Fill-1"></path>
                    </g>
                </g>
                <g id="Group-14" transform="translate(10.899075, 9.151408)">
                    <g id="Group-3" transform="translate(0.000000, 0.198236)">
                        <mask id="mask-2" fill="white">
                            <use xlink:href="#path-1"></use>
                        </mask>
                        <g id="Clip-2"></g>
                        <path d="M17.2598107,33.1441072 C8.50103542,33.1441072 1.28921443,25.9309982 1.28921443,17.1722229 C1.28921443,8.41344766 8.50103542,1.20033863 17.2598107,1.20033863 C26.0185859,1.20033863 33.231695,8.41344766 33.231695,17.1722229 C33.231695,25.9309982 26.0185859,33.1441072 17.2598107,33.1441072 M17.2598107,0.0410889604 C7.72949036,0.0410889604 0.00115924967,7.76942007 0.00115924967,17.3010284 C0.00115924967,26.8326368 7.72949036,34.5609679 17.2598107,34.5609679 C26.791419,34.5609679 34.5197502,26.8326368 34.5197502,17.3010284 C34.5197502,7.76942007 26.791419,0.0410889604 17.2598107,0.0410889604" id="Fill-1" fill="#FEFEFE" mask="url(#mask-2)"></path>
                    </g>
                    <polygon id="Fill-4" fill="#FEFEFE" points="25.3743007 8.35420175 17.6459696 16.0825329 13.26787 11.5743397 11.4633047 13.377617 15.9714979 17.8858101 14.4258317 19.4314763 15.1999528 20.333115 16.8731365 18.7874487 18.8052193 20.7195315 20.6097846 19.0450598 18.5476083 16.9841715 26.2759394 9.25584038"></polygon>
                    <path d="M36.5806385,35.9184539 L19.321987,35.9184539 C18.9342824,35.9184539 18.6779594,35.6608429 18.6779594,35.2744263 L18.6779594,21.4922358 C18.6779594,21.1058193 18.9342824,20.8482082 19.321987,20.8482082 L36.5806385,20.8482082 C36.967055,20.8482082 37.224666,21.1058193 37.224666,21.4922358 L37.224666,35.4032318 C37.0958605,35.6608429 36.8382495,35.9184539 36.5806385,35.9184539" id="Fill-6" fill="#06AF9C"></path>
                    <path d="M42.2485965,40.2977127 L39.4148751,39.9112962 L39.0284585,39.9112962 L38.7708475,40.2977127 C38.1268199,41.0705458 37.3539868,41.7145734 36.4523482,42.10099 L36.0659316,42.358601 L36.0659316,42.7450176 L35.9371261,45.7075445 L32.458089,46.3515721 L31.3001274,43.3890452 L31.1700338,43.0026286 L30.7849053,42.8738231 C30.2696833,42.7450176 29.8819787,42.6162121 29.4968502,42.4874065 C29.1104336,42.358601 28.724017,42.10099 28.3376005,41.9721845 L27.9498959,41.7145734 L27.5647674,41.9721845 L24.7297579,43.5178507 L22.5413522,40.8129348 L24.4734349,38.4944355 L24.7297579,38.1080189 L24.6022405,37.7216024 C24.2158239,36.8199637 24.0857303,35.7895196 24.0857303,34.7590754 L24.0857303,34.3726589 L23.7006018,34.1150478 L21.3821025,32.5693816 L22.6701577,29.3492437 L25.5038791,29.7356602 L25.8902956,29.7356602 L26.1479067,29.3492437 C26.7919343,28.5764105 27.5647674,27.932383 28.466406,27.5459664 L28.8528226,27.2883554 L28.8528226,26.9019388 L28.9816281,23.9394119 L32.458089,23.2953843 L33.6186268,26.2579112 L33.7461442,26.6443278 L34.1338488,26.7731333 C34.6490709,26.9019388 35.0341994,27.0307443 35.421904,27.1595498 C35.8083206,27.2883554 36.1947371,27.5459664 36.5811537,27.6747719 L36.9662822,27.932383 L37.3539868,27.6747719 L40.1864201,26.1291057 L42.377402,28.8340216 L40.4453192,31.1525209 L40.1864201,31.5389375 L40.3165137,31.925354 C40.7029303,32.8269927 40.8304477,33.8574368 40.8304477,34.887881 L40.8304477,35.2742975 L41.2181523,35.5319085 L43.5366517,37.0775748 L42.2485965,40.2977127 Z M41.6045689,34.7590754 C41.6045689,33.5998258 41.3469579,32.5693816 40.9605413,31.5389375 L43.2790406,28.7052161 L40.3165137,24.969856 L36.8387647,26.7731333 C36.4523482,26.5155222 35.9371261,26.2579112 35.5507095,26.1291057 C35.0341994,26.0003002 34.6490709,25.8714947 34.1338488,25.7426891 L32.7169881,22.1361346 L27.9498959,23.0377732 L27.8223784,26.6443278 C26.7919343,27.1595498 26.0178131,27.8035774 25.246268,28.7052161 L21.768519,28.189994 L20.0940473,32.5693816 L23.0565742,34.5014644 C23.0565742,35.6607141 23.3141853,36.6911582 23.7006018,37.7216024 L21.3821025,40.5553238 L24.3446294,44.2906838 L27.8223784,42.4874065 C28.208795,42.7450176 28.724017,43.0026286 29.1104336,43.1314341 C29.6243676,43.2602397 30.0120722,43.3890452 30.5260063,43.5178507 L31.944155,47.1244052 L36.7099592,46.2227666 L36.8387647,42.6162121 C37.8692089,42.10099 38.642042,41.4569624 39.4148751,40.5553238 L42.8926241,41.0705458 L44.5670958,36.6911582 L41.6045689,34.7590754 Z" id="Fill-8" fill="#FEFEFE"></path>
                    <path d="M42.2485965,40.2977127 L39.4148751,39.9112962 L39.0284585,39.9112962 L38.7708475,40.2977127 C38.1268199,41.0705458 37.3539868,41.7145734 36.4523482,42.10099 L36.0659316,42.358601 L36.0659316,42.7450176 L35.9371261,45.7075445 L32.458089,46.3515721 L31.3001274,43.3890452 L31.1700338,43.0026286 L30.7849053,42.8738231 C30.2696833,42.7450176 29.8819787,42.6162121 29.4968502,42.4874065 C29.1104336,42.358601 28.724017,42.10099 28.3376005,41.9721845 L27.9498959,41.7145734 L27.5647674,41.9721845 L24.7297579,43.5178507 L22.5413522,40.8129348 L24.4734349,38.4944355 L24.7297579,38.1080189 L24.6022405,37.7216024 C24.2158239,36.8199637 24.0857303,35.7895196 24.0857303,34.7590754 L24.0857303,34.3726589 L23.7006018,34.1150478 L21.3821025,32.5693816 L22.6701577,29.3492437 L25.5038791,29.7356602 L25.8902956,29.7356602 L26.1479067,29.3492437 C26.7919343,28.5764105 27.5647674,27.932383 28.466406,27.5459664 L28.8528226,27.2883554 L28.8528226,26.9019388 L28.9816281,23.9394119 L32.458089,23.2953843 L33.6186268,26.2579112 L33.7461442,26.6443278 L34.1338488,26.7731333 C34.6490709,26.9019388 35.0341994,27.0307443 35.421904,27.1595498 C35.8083206,27.2883554 36.1947371,27.5459664 36.5811537,27.6747719 L36.9662822,27.932383 L37.3539868,27.6747719 L40.1864201,26.1291057 L42.377402,28.8340216 L40.4453192,31.1525209 L40.1864201,31.5389375 L40.3165137,31.925354 C40.7029303,32.8269927 40.8304477,33.8574368 40.8304477,34.887881 L40.8304477,35.2742975 L41.2181523,35.5319085 L43.5366517,37.0775748 L42.2485965,40.2977127 Z M41.6045689,34.7590754 C41.6045689,33.5998258 41.3469579,32.5693816 40.9605413,31.5389375 L43.2790406,28.7052161 L40.3165137,24.969856 L36.8387647,26.7731333 C36.4523482,26.5155222 35.9371261,26.2579112 35.5507095,26.1291057 C35.0341994,26.0003002 34.6490709,25.8714947 34.1338488,25.7426891 L32.7169881,22.1361346 L27.9498959,23.0377732 L27.8223784,26.6443278 C26.7919343,27.1595498 26.0178131,27.8035774 25.246268,28.7052161 L21.768519,28.189994 L20.0940473,32.5693816 L23.0565742,34.5014644 C23.0565742,35.6607141 23.3141853,36.6911582 23.7006018,37.7216024 L21.3821025,40.5553238 L24.3446294,44.2906838 L27.8223784,42.4874065 C28.208795,42.7450176 28.724017,43.0026286 29.1104336,43.1314341 C29.6243676,43.2602397 30.0120722,43.3890452 30.5260063,43.5178507 L31.944155,47.1244052 L36.7099592,46.2227666 L36.8387647,42.6162121 C37.8692089,42.10099 38.642042,41.4569624 39.4148751,40.5553238 L42.8926241,41.0705458 L44.5670958,36.6911582 L41.6045689,34.7590754 Z" id="Stroke-10" stroke="#FEFEFE"></path>
                    <path d="M33.8762378,35.2744263 C33.6186268,36.0472594 32.5881826,36.5624815 31.8140614,36.1760649 C31.0425164,35.9184539 30.5260063,34.8880098 30.9137109,34.1151766 C31.3001274,33.3423435 32.201766,32.8271215 32.9745992,33.213538 C33.7461442,33.4711491 34.1338488,34.3727877 33.8762378,35.2744263 M27.8223784,32.955927 C26.9207398,35.4032318 28.208795,38.1081477 30.6560998,39.1385919 C33.1021166,40.0402305 35.9371261,38.8809808 36.8387647,36.433676 C37.7404033,33.9863711 36.4523482,31.2814552 34.0050433,30.2510111 C31.5577385,29.2205669 28.724017,30.5086221 27.8223784,32.955927" id="Fill-12" fill="#FEFEFE"></path>
                </g>
            </g>
        </g>
    </g>
</svg>