<?xml version="1.0" encoding="UTF-8"?>
<svg width="67px" height="67px" viewBox="0 0 67 67" version="1.1" xmlns="http://www.w3.org/2000/svg" xmlns:xlink="http://www.w3.org/1999/xlink">
    <!-- Generator: Sketch 53 (72520) - https://sketchapp.com -->
    <title>Group 15</title>
    <desc>Created with Sketch.</desc>
    <g id="Page-1" stroke="none" stroke-width="1" fill="none" fill-rule="evenodd">
        <g id="Artboard" transform="translate(-42.000000, -634.000000)">
            <g id="Group-15" transform="translate(42.500000, 633.249950)">
                <g id="Group-3" transform="translate(0.000000, 0.986400)" fill="#00B09C">
                    <path d="M33.0002,0.0136 C51.2252,0.0136 66.0002,14.7846 66.0002,33.0066 C66.0002,51.2286 51.2252,65.9996 33.0002,65.9996 C14.7742,65.9996 0.0002,51.2286 0.0002,33.0066 C0.0002,14.7846 14.7742,0.0136 33.0002,0.0136" id="Fill-1"></path>
                </g>
                <polygon id="Fill-4" fill="#FEFEFE" points="14.8201 47.3418 14.8201 20.0768 13.5211 20.0768 13.5211 47.3418 13.5211 48.6398 14.8201 48.6398 52.4791 48.6398 52.4791 47.3418"></polygon>
                <polygon id="Fill-6" fill="#FEFEFE" points="17.417 44.7454 26.507 44.7454 26.507 34.3594 17.417 34.3594"></polygon>
                <path d="M30.403,43.4464 L36.896,43.4464 L36.896,25.2704 L30.403,25.2704 L30.403,43.4464 Z M29.105,44.7454 L38.195,44.7454 L38.195,23.9724 L29.105,23.9724 L29.105,44.7454 Z" id="Fill-8" fill="#FEFEFE"></path>
                <polygon id="Fill-9" fill="#FEFEFE" points="40.792 31.7614 49.882 31.7614 49.882 30.4634 40.792 30.4634"></polygon>
                <polygon id="Fill-10" fill="#FEFEFE" points="40.792 34.3584 49.882 34.3584 49.882 33.0604 40.792 33.0604"></polygon>
                <polygon id="Fill-11" fill="#FEFEFE" points="40.792 36.9544 49.882 36.9544 49.882 35.6564 40.792 35.6564"></polygon>
                <polygon id="Fill-12" fill="#FEFEFE" points="40.792 39.5514 49.882 39.5514 49.882 38.2534 40.792 38.2534"></polygon>
                <polygon id="Fill-13" fill="#FEFEFE" points="40.792 42.1484 49.882 42.1484 49.882 40.8504 40.792 40.8504"></polygon>
                <polygon id="Fill-14" fill="#FEFEFE" points="40.792 44.7444 49.882 44.7444 49.882 43.4464 40.792 43.4464"></polygon>
            </g>
        </g>
    </g>
</svg>