<?xml version="1.0" encoding="UTF-8"?>
<svg width="67px" height="67px" viewBox="0 0 67 67" version="1.1" xmlns="http://www.w3.org/2000/svg" xmlns:xlink="http://www.w3.org/1999/xlink">
    <!-- Generator: Sketch 53 (72520) - https://sketchapp.com -->
    <title>Group 57</title>
    <desc>Created with Sketch.</desc>
    <g id="Page-1" stroke="none" stroke-width="1" fill="none" fill-rule="evenodd">
        <g id="Artboard" transform="translate(-150.000000, -634.000000)">
            <g id="Group-57" transform="translate(150.833333, 633.249950)">
                <g id="Group-15-Copy" fill="#00B09C">
                    <g id="Group-3" transform="translate(0.000000, 0.986400)">
                        <path d="M33.0002,0.0136 C51.2252,0.0136 66.0002,14.7846 66.0002,33.0066 C66.0002,51.2286 51.2252,65.9996 33.0002,65.9996 C14.7742,65.9996 0.0002,51.2286 0.0002,33.0066 C0.0002,14.7846 14.7742,0.0136 33.0002,0.0136" id="Fill-1"></path>
                    </g>
                </g>
                <g id="Group" transform="translate(9.500000, 14.000000)" fill="#FFFFFF" fill-rule="nonzero">
                    <g transform="translate(0.700000, 0.750050)" id="Shape">
                        <path d="M0.8,0.8 L0.8,6.7 L0.8,36.3 L45.2,36.3 L45.2,6.7 L45.2,0.8 L0.8,0.8 Z M43.8,34.8 L2.3,34.8 L2.3,8.1 L43.8,8.1 L43.8,34.8 Z"></path>
                        <path d="M23,30.4 C29.6,30.4 34.7,26.8 37.8,21.5 C34.7,16.2 29.6,12.6 23,12.6 C16.4,12.6 11.3,16.2 8.2,21.5 C11.3,26.8 16.4,30.4 23,30.4 Z M23,14.1 C28.4,14.1 33,16.7 36.1,21.5 C33,26.3 28.4,28.9 23,28.9 C17.6,28.9 13,26.3 9.9,21.5 C13.1,16.7 17.7,14.1 23,14.1 Z"></path>
                        <path d="M23,26.7 C25.9,26.7 28.2,24.4 28.2,21.5 C28.2,18.6 25.9,16.3 23,16.3 C20.1,16.3 17.8,18.6 17.8,21.5 C17.9,24.4 20.2,26.7 23,26.7 Z M23,19.8 C24,19.8 24.7,20.6 24.7,21.5 C24.7,22.4 23.9,23.2 23,23.2 C22,23.2 21.3,22.4 21.3,21.5 C21.3,20.6 22.1,19.8 23,19.8 Z"></path>
                    </g>
                </g>
            </g>
        </g>
    </g>
</svg>