<?xml version="1.0" encoding="UTF-8"?>
<svg width="67px" height="66px" viewBox="0 0 67 66" version="1.1" xmlns="http://www.w3.org/2000/svg" xmlns:xlink="http://www.w3.org/1999/xlink">
    <!-- Generator: Sketch 53 (72520) - https://sketchapp.com -->
    <title>Group 2</title>
    <desc>Created with Sketch.</desc>
    <g id="Page-1" stroke="none" stroke-width="1" fill="none" fill-rule="evenodd">
        <g id="Artboard" transform="translate(-150.000000, -295.000000)">
            <g id="Group-2" transform="translate(150.833333, 294.999900)">
                <g id="Group-3" fill="#8EC341">
                    <path d="M33,-0.0002 C51.226,-0.0002 66,14.7748 66,32.9998 C66,51.2258 51.226,65.9998 33,65.9998 C14.774,65.9998 0,51.2258 0,32.9998 C0,14.7748 14.774,-0.0002 33,-0.0002" id="Fill-1"></path>
                </g>
                <g id="Group" transform="translate(10.133333, 14.250050)" fill="#FFFFFF" fill-rule="nonzero">
                    <g transform="translate(1.470584, 0.000000)" id="Path">
                        <path d="M0.147058431,36.8381371 L0.147058431,0.955879804 C0.147058431,0.588233725 0.51470451,0.294116863 0.882350588,0.294116863 C1.32352588,0.294116863 1.61764275,0.588233725 1.61764275,0.955879804 L1.61764275,34.9263775 L13.4558465,31.3969751 L13.4558465,4.85292824 C13.4558465,4.48528216 13.8234925,4.19116529 14.1911386,4.19116529 C14.6323139,4.19116529 14.9264308,4.48528216 14.9264308,4.85292824 L14.9264308,32.3528549 L0.147058431,36.8381371 Z"></path>
                        <path d="M4.04410686,35.441082 C3.74999,35.441082 3.52940235,35.2204943 3.52940235,34.9999067 L3.52940235,2.3529349 C3.52940235,2.13234725 3.74999,1.91175961 4.04410686,1.91175961 C4.33822373,1.91175961 4.55881137,2.13234725 4.55881137,2.3529349 L4.55881137,34.9999067 C4.55881137,35.2204943 4.33822373,35.441082 4.04410686,35.441082 Z"></path>
                        <path d="M7.49998,34.4116729 C7.20586314,34.4116729 6.98527549,34.1910853 6.98527549,33.9704976 L6.98527549,3.16175627 C6.98527549,2.94116863 7.20586314,2.72058098 7.49998,2.72058098 C7.79409686,2.72058098 8.01468451,2.94116863 8.01468451,3.16175627 L8.01468451,33.9704976 C8.01468451,34.1910853 7.79409686,34.4116729 7.49998,34.4116729 Z"></path>
                        <path d="M10.9558531,33.2352055 C10.6617363,33.2352055 10.4411486,33.0146178 10.4411486,32.7940302 L10.4411486,3.89704843 C10.4411486,3.67646078 10.6617363,3.45587314 10.9558531,3.45587314 C11.24997,3.45587314 11.4705576,3.67646078 11.4705576,3.89704843 L11.4705576,32.7940302 C11.3970284,33.0146178 11.1764408,33.2352055 10.9558531,33.2352055 Z"></path>
                        <polygon points="14.0440802 9.04409353 0.735292157 5.36763275 1.02940902 4.55881137 14.3381971 8.16174294"></polygon>
                    </g>
                    <rect id="Rectangle" x="0.0735292157" y="0.220587647" width="3.01469784" height="37.2057831"></rect>
                </g>
                <g id="Group" transform="translate(35.868559, 14.250050)" fill="#FFFFFF" fill-rule="nonzero">
                    <g id="Path">
                        <path d="M15.0734892,36.8381371 L0.220587647,32.4263841 L0.220587647,4.92645745 C0.220587647,4.55881137 0.588233725,4.26469451 0.955879804,4.26469451 C1.32352588,4.26469451 1.69117196,4.55881137 1.69117196,4.92645745 L1.69117196,31.4705043 L13.5293757,34.9999067 L13.5293757,1.02940902 C13.5293757,0.661762941 13.8970218,0.367646078 14.2646678,0.367646078 C14.6323139,0.367646078 14.99996,0.661762941 14.99996,1.02940902 L15.0734892,36.8381371 L15.0734892,36.8381371 Z"></path>
                        <path d="M11.1029116,35.3675527 C10.8087947,35.3675527 10.5882071,35.1469651 10.5882071,34.9263775 L10.5882071,2.27940569 C10.5882071,2.05881804 10.8087947,1.83823039 11.1029116,1.83823039 C11.3970284,1.83823039 11.6176161,2.05881804 11.6176161,2.27940569 L11.6176161,34.9263775 C11.6176161,35.2204943 11.3970284,35.3675527 11.1029116,35.3675527 Z"></path>
                        <path d="M7.64703843,34.3381437 C7.35292157,34.3381437 7.13233392,34.1175561 7.13233392,33.8969684 L7.13233392,3.08822706 C7.13233392,2.86763941 7.35292157,2.64705176 7.64703843,2.64705176 C7.94115529,2.64705176 8.16174294,2.86763941 8.16174294,3.08822706 L8.16174294,33.8969684 C8.08821373,34.1910853 7.86762608,34.3381437 7.64703843,34.3381437 Z"></path>
                        <path d="M4.26469451,33.1616763 C3.97057765,33.1616763 3.74999,32.9410886 3.74999,32.720501 L3.74999,3.82351922 C3.74999,3.60293157 3.97057765,3.38234392 4.26469451,3.38234392 C4.55881137,3.38234392 4.77939902,3.60293157 4.77939902,3.82351922 L4.77939902,32.720501 C4.77939902,33.0146178 4.55881137,33.1616763 4.26469451,33.1616763 Z"></path>
                        <polygon points="1.10293824 9.04409353 0.808821373 8.16174294 14.1176094 4.48528216 14.4117263 5.29410353"></polygon>
                    </g>
                    <rect id="Rectangle" x="13.5293757" y="0.220587647" width="3.01469784" height="37.2057831"></rect>
                </g>
                <circle id="Oval" fill="#8EC341" fill-rule="nonzero" cx="31.3097475" cy="33.0735292" r="10.4411486"></circle>
                <path d="M31.3097475,23.9559065 C36.3832633,23.9559065 40.5008994,28.0735425 40.5008994,33.0735292 C40.5008994,38.1470451 36.3832633,42.2646812 31.3832767,42.2646812 C26.38329,42.2646812 22.2656539,38.1470451 22.1921247,33.1470584 C22.1921247,28.0735425 26.2362316,23.9559065 31.3097475,23.9559065 Z M23.1480045,34.1029382 C23.1480045,34.1029382 23.0744753,34.1764675 23.0744753,34.1764675 C23.0009461,37.3382237 27.3391698,41.6764475 30.2803384,41.3823306 C30.2803384,41.3823306 30.2803384,41.3088014 30.2803384,41.3088014 C29.1774002,40.0588047 29.3979878,38.9558665 30.7950429,38.2205743 C30.8685722,38.1470451 30.9421014,38.0735159 30.9421014,37.9999867 C30.9421014,37.3382237 30.9421014,36.6029316 30.9421014,35.9411686 C30.9421014,35.8676394 30.7950429,35.720581 30.7215137,35.720581 C29.7656339,35.4264641 29.103871,34.8382304 28.8097541,33.8088214 C28.7362249,33.5882337 28.6626957,33.5147045 28.442108,33.5147045 C27.8538743,33.5147045 27.3391698,33.5147045 26.7509361,33.5147045 C26.4568192,33.5147045 26.3097608,33.5882337 26.1627024,33.8823506 C25.6479978,35.058818 24.1774135,35.3529349 23.2950629,34.3970551 C23.2215337,34.3235259 23.1480045,34.1764675 23.1480045,34.1029382 Z M39.6185488,34.1764675 C39.5450196,34.2499967 39.5450196,34.2499967 39.4714904,34.2499967 C38.3685522,35.3529349 37.0450263,35.058818 36.3832633,33.6617629 C36.3097341,33.5882337 36.1626757,33.4411753 36.0156173,33.4411753 C35.4273835,33.4411753 34.8391498,33.4411753 34.1773869,33.4411753 C33.9567992,33.4411753 33.8097408,33.5147045 33.7362116,33.7352922 C33.4420947,34.691172 32.853861,35.2794057 31.8979812,35.5735225 C31.6773935,35.6470518 31.6038643,35.720581 31.6038643,35.9411686 C31.6038643,36.5294024 31.6038643,37.1176361 31.6038643,37.779399 C31.6038643,37.9999867 31.6773935,38.1470451 31.8979812,38.2205743 C33.0744486,38.7352788 33.3685655,40.1323339 32.4862149,41.0882137 C32.4126857,41.1617429 32.3391565,41.2352722 32.2656273,41.3823306 C36.2362049,41.0146845 39.324432,37.6323406 39.6185488,34.1764675 Z M39.6185488,32.0441202 C39.9126657,29.0294224 35.2803251,24.3970818 32.4126857,24.8382571 C32.4126857,24.8382571 32.4126857,24.8382571 32.4126857,24.9117863 C33.5156239,26.2353122 33.2950363,27.2647212 31.8979812,28.0735425 C31.824452,28.1470718 31.7509227,28.220601 31.7509227,28.2941302 C31.7509227,29.0294224 31.7509227,29.7647145 31.7509227,30.5735359 C33.0009194,30.8676527 33.7362116,31.6029449 33.9567992,32.7794124 C34.6920914,32.7794124 35.3538543,32.7794124 36.0156173,32.7794124 C36.2362049,32.7794124 36.3832633,32.7058831 36.4567925,32.4852955 C36.8979678,31.4558865 38.0744353,31.0882404 39.0303151,31.6764741 C39.2509027,31.6764741 39.3979612,31.8970618 39.6185488,32.0441202 Z M30.2068092,24.8382571 C26.4568192,25.1323739 23.2215337,28.6617763 23.0009461,32.0441202 C23.0744753,31.970591 23.0744753,31.970591 23.1480045,31.970591 C24.2509427,30.941182 25.5744686,31.2352988 26.2362316,32.5588247 C26.3097608,32.6323539 26.4568192,32.7794124 26.5303484,32.7794124 C27.1921114,32.7794124 27.8538743,32.7794124 28.5156373,32.7794124 C28.5891665,32.7794124 28.8097541,32.7058831 28.8097541,32.5588247 C29.103871,31.4558865 29.8391631,30.7941235 31.0156306,30.5000067 C31.0156306,29.8382437 31.0156306,29.1029516 31.0156306,28.4411886 C31.0156306,28.1470718 30.9421014,28.0735425 30.7215137,27.9264841 C29.8391631,27.558838 29.3979878,26.6029582 29.7656339,25.7206076 C29.7656339,25.4264908 29.9862216,25.1323739 30.2068092,24.8382571 Z M29.4715171,33.0735292 C29.4715171,34.1029382 30.2803384,34.9852888 31.3097475,34.9852888 C32.3391565,34.9852888 33.1479778,34.1764675 33.2215071,33.1470584 C33.2215071,32.1176494 32.3391565,31.2352988 31.3832767,31.2352988 C30.3538676,31.2352988 29.4715171,32.0441202 29.4715171,33.0735292 Z M31.3832767,38.8823373 C30.7950429,38.8823373 30.3538676,39.3235125 30.3538676,39.9117463 C30.3538676,40.49998 30.8685722,40.9411553 31.3832767,40.9411553 C31.9715104,40.9411553 32.4126857,40.49998 32.4126857,39.9117463 C32.4126857,39.3235125 31.9715104,38.8823373 31.3832767,38.8823373 Z M38.1479645,32.0441202 C37.5597308,32.0441202 37.1185555,32.4852955 37.1185555,33.0735292 C37.1185555,33.6617629 37.63326,34.1029382 38.1479645,34.1029382 C38.7361982,34.1029382 39.1773735,33.6617629 39.1773735,33.0735292 C39.1773735,32.5588247 38.7361982,32.0441202 38.1479645,32.0441202 Z M25.5744686,33.0735292 C25.5744686,32.4852955 25.1332933,32.0441202 24.5450596,32.0441202 C23.9568259,32.0441202 23.5156506,32.4852955 23.5156506,33.0735292 C23.5156506,33.6617629 23.9568259,34.1764675 24.5450596,34.1764675 C25.0597641,34.1764675 25.5744686,33.6617629 25.5744686,33.0735292 Z M31.3097475,25.2794324 C30.7215137,25.2794324 30.2803384,25.7941369 30.2803384,26.3823706 C30.2803384,26.9706043 30.7950429,27.4117796 31.3832767,27.4117796 C31.9715104,27.4117796 32.4126857,26.8970751 32.4126857,26.3823706 C32.4126857,25.7206076 31.8979812,25.2794324 31.3097475,25.2794324 Z" id="Shape" fill="#FFFFFF" fill-rule="nonzero"></path>
            </g>
        </g>
    </g>
</svg>