<?xml version="1.0" encoding="UTF-8"?>
<svg width="65px" height="65px" viewBox="0 0 65 65" version="1.1" xmlns="http://www.w3.org/2000/svg" xmlns:xlink="http://www.w3.org/1999/xlink">
    <!-- Generator: Sketch 53 (72520) - https://sketchapp.com -->
    <title>Group 21</title>
    <desc>Created with Sketch.</desc>
    <g id="Page-1" stroke="none" stroke-width="1" fill="none" fill-rule="evenodd">
        <g id="Artboard" transform="translate(-254.000000, -296.000000)">
            <g id="Group-21" transform="translate(254.300000, 294.999900)">
                <g id="Group-3" transform="translate(0.000000, 0.505000)" fill="#8EC341">
                    <path d="M64.5046,32.7472 C64.5046,50.5602 50.0646,65.0002 32.2526,65.0002 C14.4406,65.0002 0.0006,50.5602 0.0006,32.7472 C0.0006,14.9352 14.4406,0.4952 32.2526,0.4952 C50.0646,0.4952 64.5046,14.9352 64.5046,32.7472 Z" id="Fill-1"></path>
                </g>
                <polygon id="Fill-4" fill="#FEFEFE" points="55.0461 52.1208 9.4591 52.1208 9.4591 41.9648 11.8521 41.9648 11.8521 49.5128 52.6531 49.5128 52.6531 41.9648 55.0461 41.9648"></polygon>
                <polygon id="Fill-6" fill="#FEFEFE" points="13.845 47.291 20.302 47.291 20.302 40.834 13.845 40.834"></polygon>
                <polygon id="Fill-8" fill="#FEFEFE" points="21.541 47.291 27.998 47.291 27.998 40.834 21.541 40.834"></polygon>
                <polygon id="Fill-9" fill="#FEFEFE" points="29.236 47.291 35.693 47.291 35.693 40.834 29.236 40.834"></polygon>
                <polygon id="Fill-10" fill="#FEFEFE" points="36.931 47.291 43.388 47.291 43.388 40.834 36.931 40.834"></polygon>
                <polygon id="Fill-11" fill="#FEFEFE" points="13.845 39.18 20.302 39.18 20.302 32.723 13.845 32.723"></polygon>
                <polygon id="Fill-12" fill="#FEFEFE" points="21.541 39.18 27.998 39.18 27.998 32.723 21.541 32.723"></polygon>
                <polygon id="Fill-13" fill="#FEFEFE" points="29.236 39.18 35.693 39.18 35.693 32.723 29.236 32.723"></polygon>
                <polygon id="Fill-14" fill="#FEFEFE" points="13.845 31.069 20.302 31.069 20.302 24.612 13.845 24.612"></polygon>
                <polygon id="Fill-15" fill="#FEFEFE" points="21.541 31.069 27.998 31.069 27.998 24.612 21.541 24.612"></polygon>
                <polygon id="Fill-16" fill="#FEFEFE" points="13.845 23.508 20.302 23.508 20.302 17.051 13.845 17.051"></polygon>
                <polygon id="Fill-17" fill="#FEFEFE" points="21.541 23.508 27.998 23.508 27.998 17.051 21.541 17.051"></polygon>
                <polygon id="Fill-18" fill="#FEFEFE" points="29.236 31.069 35.693 31.069 35.693 24.612 29.236 24.612"></polygon>
                <polygon id="Fill-19" fill="#FEFEFE" points="36.931 39.18 43.388 39.18 43.388 32.723 36.931 32.723"></polygon>
                <polygon id="Fill-20" fill="#FEFEFE" points="44.627 47.291 51.084 47.291 51.084 40.834 44.627 40.834"></polygon>
            </g>
        </g>
    </g>
</svg>