<?xml version="1.0" encoding="UTF-8"?>
<svg width="67px" height="66px" viewBox="0 0 67 66" version="1.1" xmlns="http://www.w3.org/2000/svg" xmlns:xlink="http://www.w3.org/1999/xlink">
    <!-- Generator: Sketch 53 (72520) - https://sketchapp.com -->
    <title>Group 12</title>
    <desc>Created with Sketch.</desc>
    <g id="Page-1" stroke="none" stroke-width="1" fill="none" fill-rule="evenodd">
        <g id="Artboard" transform="translate(-42.000000, -295.000000)">
            <g id="Group-12" transform="translate(42.500000, 294.999900)">
                <g id="Group-3" transform="translate(0.000000, -0.000100)" fill="#8EC341">
                    <path d="M33,-0.0002 C51.226,-0.0002 66,14.7748 66,32.9998 C66,51.2258 51.226,65.9998 33,65.9998 C14.774,65.9998 0,51.2258 0,32.9998 C0,14.7748 14.774,-0.0002 33,-0.0002" id="Fill-1"></path>
                </g>
                <polygon id="Fill-4" fill="#FEFEFE" points="41.667 51.7929 45.305 51.7929 45.305 14.2279 41.667 14.2279"></polygon>
                <polygon id="Fill-6" fill="#FEFEFE" points="36.456 51.7929 40.094 51.7929 40.094 14.2279 36.456 14.2279"></polygon>
                <polygon id="Fill-7" fill="#FEFEFE" points="31.246 51.7929 34.884 51.7929 34.884 14.2279 31.246 14.2279"></polygon>
                <polygon id="Fill-8" fill="#FEFEFE" points="26.035 51.7929 29.673 51.7929 29.673 14.2279 26.035 14.2279"></polygon>
                <polygon id="Fill-9" fill="#FEFEFE" points="20.824 51.7929 24.462 51.7929 24.462 14.2279 20.824 14.2279"></polygon>
                <path d="M58.9463,33.5559 C55.8873,35.5249 53.0753,37.3349 50.0803,39.2629 L50.0803,27.8449 C53.0713,29.7719 55.9023,31.5949 58.9463,33.5559" id="Fill-10" fill="#FEFEFE"></path>
                <path d="M7.0537,39.3122 L7.0537,27.8162 C10.0747,29.7562 12.9227,31.5842 15.9797,33.5482 C12.9747,35.4892 10.1317,37.3242 7.0537,39.3122" id="Fill-11" fill="#FEFEFE"></path>
            </g>
        </g>
    </g>
</svg>