<?xml version="1.0" encoding="UTF-8"?>
<svg width="66px" height="65px" viewBox="0 0 66 65" version="1.1" xmlns="http://www.w3.org/2000/svg" xmlns:xlink="http://www.w3.org/1999/xlink">
    <!-- Generator: Sketch 53 (72520) - https://sketchapp.com -->
    <title>Group 51</title>
    <desc>Created with Sketch.</desc>
    <g id="Page-1" stroke="none" stroke-width="1" fill="none" fill-rule="evenodd">
        <g id="Artboard" transform="translate(-355.000000, -295.000000)">
            <g id="Group-51" transform="translate(355.700000, 294.999900)">
                <g id="Group-3" fill="#8EC341">
                    <path d="M32.2526,0.4952 C50.0646,0.4952 64.5046,14.9352 64.5046,32.7472 C64.5046,50.5602 50.0646,65.0002 32.2526,65.0002 C14.4406,65.0002 0.0006,50.5602 0.0006,32.7472 C0.0006,14.9352 14.4406,0.4952 32.2526,0.4952" id="Fill-1"></path>
                </g>
                <g id="Group-21" transform="translate(11.500000, 8.500000)">
                    <path d="M0.3183,20.0816 C0.3183,16.3426 0.3123,12.6026 0.3203,8.8636 C0.3303,4.2776 4.0213,0.4346 8.5993,0.3656 C13.0713,0.2976 17.5453,0.3026 22.0163,0.3656 C26.4673,0.4296 30.2143,4.2456 30.2313,8.6986 C30.2603,16.2876 30.2633,23.8766 30.2303,31.4646 C30.2123,35.9926 26.4093,39.8046 21.8803,39.8496 C17.5173,39.8936 13.1543,39.8956 8.7933,39.8526 C4.0873,39.8046 0.3543,36.0046 0.3233,31.3006 C0.3103,29.4306 0.3213,27.5606 0.3213,25.6906 L0.3213,20.0816 L0.3183,20.0816 Z" id="Stroke-1" stroke="#FFFFFF" stroke-width="2.633"></path>
                    <path d="M20.498,11.8287 C19.338,11.8287 18.178,11.8377 17.019,11.8257 C16.394,11.8187 16.027,11.4857 16.014,10.9597 C15.999,10.4387 16.333,10.0437 16.855,10.0417 C19.296,10.0307 21.736,10.0327 24.177,10.0407 C24.646,10.0427 25.005,10.4117 25.039,10.8647 C25.071,11.2927 24.781,11.6817 24.334,11.7837 C24.175,11.8197 24.006,11.8267 23.842,11.8267 C22.727,11.8297 21.612,11.8287 20.498,11.8287" id="Fill-3" fill="#FFFFFF"></path>
                    <path d="M20.5078,7.8873 C19.3478,7.8873 18.1888,7.8903 17.0288,7.8863 C16.3798,7.8843 16.0168,7.5623 16.0128,7.0003 C16.0098,6.4473 16.3838,6.0973 17.0258,6.0953 C19.3448,6.0893 21.6638,6.0893 23.9848,6.0953 C24.6358,6.0973 25.0518,6.4753 25.0408,7.0193 C25.0298,7.5373 24.6128,7.8853 23.9868,7.8873 C22.8268,7.8893 21.6668,7.8873 20.5078,7.8873" id="Fill-5" fill="#FFFFFF"></path>
                    <path d="M13.0439,10.7389 C13.0289,11.6179 12.4319,12.2639 11.5479,12.2819 C10.0729,12.3119 8.5979,12.3129 7.1229,12.2849 C6.3009,12.2689 5.6759,11.6319 5.6469,10.8059 C5.6149,9.9189 5.6179,9.0289 5.6439,8.1419 C5.6669,7.3199 6.3019,6.7009 7.1239,6.6789 C7.8769,6.6589 8.6299,6.6749 9.3819,6.6749 C10.0739,6.6739 10.7669,6.6629 11.4589,6.6769 C12.4529,6.6959 13.0439,7.3039 13.0489,8.3009 C13.0529,9.1139 13.0569,9.9269 13.0439,10.7389 M14.8069,7.7649 C14.5799,6.0059 13.2189,4.8879 11.4399,4.8789 C10.7479,4.8759 10.0559,4.8789 9.3629,4.8789 L9.3629,4.8829 C8.5959,4.8829 7.8279,4.8689 7.0609,4.8849 C5.4809,4.9179 4.1359,6.0809 3.9099,7.6459 C3.7459,8.7809 3.7679,9.9359 3.8749,11.0689 C4.0359,12.7809 5.2479,13.9229 6.9629,14.0489 C8.5089,14.1629 10.0649,14.1399 11.6099,14.0679 C13.3699,13.9849 14.6079,12.8539 14.8119,11.1439 C14.9439,10.0279 14.9499,8.8809 14.8069,7.7649" id="Fill-7" fill="#FFFFFF"></path>
                    <path d="M11.2382,39.5255 C11.2382,40.5505 10.1442,41.3815 8.7962,41.3815 C7.4462,41.3815 6.3522,40.5505 6.3522,39.5255 C6.3522,38.5005 7.4462,37.6695 8.7962,37.6695 C10.1442,37.6695 11.2382,38.5005 11.2382,39.5255" id="Fill-9" fill="#8EC341"></path>
                    <path d="M15.9538,42.9547 C12.1858,42.9467 9.0268,39.9127 8.9698,36.1507 C8.9138,32.4757 8.9178,28.7987 8.9708,25.1227 C9.0228,21.4647 12.1588,18.3867 15.8188,18.3727 C22.0548,18.3487 28.2918,18.3467 34.5288,18.3727 C38.2498,18.3887 41.3818,21.5147 41.4198,25.2357 C41.4558,28.8207 41.4578,32.4067 41.4218,35.9917 C41.3828,39.8597 38.2598,42.9257 34.3938,42.9517 C32.8568,42.9617 31.3198,42.9537 29.7828,42.9537 L25.1738,42.9537 C22.1008,42.9557 19.0278,42.9607 15.9538,42.9547 Z" id="Fill-11" fill="#8EC341"></path>
                    <path d="M15.9538,42.9547 C12.1858,42.9467 9.0268,39.9127 8.9698,36.1507 C8.9138,32.4757 8.9178,28.7987 8.9708,25.1227 C9.0228,21.4647 12.1588,18.3867 15.8188,18.3727 C22.0548,18.3487 28.2918,18.3467 34.5288,18.3727 C35.6411962,18.3774832 36.7009526,18.6602122 37.6411411,19.1536919 C39.8459125,20.310917 41.3931601,22.6270962 41.4198,25.2357 C41.4558,28.8207 41.4578,32.4067 41.4218,35.9917 C41.3828,39.8597 38.2598,42.9257 34.3938,42.9517 C32.8568,42.9617 31.3198,42.9537 29.7828,42.9537 L25.1738,42.9537 C22.1008,42.9557 19.0278,42.9607 15.9538,42.9547 Z" id="Stroke-13" stroke="#FFFFFF" stroke-width="2.633"></path>
                    <path d="M18.8173,29.8565 C17.6593,29.8565 16.5013,29.8585 15.3423,29.8555 C14.7133,29.8535 14.3193,29.5115 14.3123,28.9745 C14.3053,28.4485 14.7143,28.0675 15.3293,28.0665 C17.6443,28.0595 19.9613,28.0595 22.2773,28.0645 C22.9383,28.0655 23.3473,28.4215 23.3503,28.9605 C23.3533,29.5145 22.9593,29.8535 22.2913,29.8565 C21.1323,29.8595 19.9753,29.8565 18.8173,29.8565" id="Fill-15" fill="#FFFFFF"></path>
                    <path d="M18.8163,33.7989 C17.6423,33.7989 16.4693,33.8119 15.2963,33.7939 C14.5253,33.7829 14.0833,33.0909 14.4263,32.4669 C14.5903,32.1699 14.8453,32.0049 15.1963,32.0059 C17.6183,32.0059 20.0393,32.0009 22.4603,32.0089 C22.9853,32.0099 23.3463,32.3869 23.3503,32.8859 C23.3553,33.3669 22.9933,33.7639 22.4693,33.7899 C21.8993,33.8179 21.3273,33.7989 20.7553,33.7989 C20.1093,33.7999 19.4623,33.7989 18.8163,33.7989" id="Fill-17" fill="#FFFFFF"></path>
                    <path d="M34.2656,31.922 C34.2416,32.843 33.5996,33.456 32.6696,33.462 C31.2546,33.471 29.8386,33.472 28.4236,33.464 C27.4886,33.459 26.8796,32.848 26.8656,31.902 C26.8536,31.075 26.8536,30.247 26.8626,29.419 C26.8706,28.483 27.4906,27.864 28.4196,27.855 C29.1266,27.848 29.8346,27.854 30.5426,27.854 L30.5426,27.857 C31.2656,27.857 31.9886,27.848 32.7106,27.859 C33.5996,27.872 34.2476,28.501 34.2686,29.393 C34.2886,30.235 34.2876,31.08 34.2656,31.922 M36.0156,28.966 C35.8656,27.373 34.4546,26.077 32.8466,26.054 C31.3276,26.032 29.8056,26.031 28.2856,26.057 C26.5206,26.086 25.0896,27.544 25.0676,29.305 C25.0556,30.209 25.0566,31.112 25.0646,32.015 C25.0776,33.549 26.2056,34.9 27.7076,35.188 C28.6336,35.365 29.5706,35.216 30.3646,35.271 C31.2536,35.271 32.0066,35.28 32.7586,35.269 C34.4346,35.243 35.8296,34.014 36.0136,32.346 C36.1376,31.224 36.1216,30.091 36.0156,28.966" id="Fill-19" fill="#FFFFFF"></path>
                </g>
            </g>
        </g>
    </g>
</svg>