<?xml version="1.0" encoding="UTF-8"?>
<svg width="503px" height="534px" viewBox="0 0 503 534" version="1.1" xmlns="http://www.w3.org/2000/svg" xmlns:xlink="http://www.w3.org/1999/xlink">
    <!-- Generator: Sketch 53 (72520) - https://sketchapp.com -->
    <title>Group 79</title>
    <desc>Created with Sketch.</desc>
    <defs>
        <polygon id="path-1" points="0.787333333 0.392 70.5726667 0.392 70.5726667 62.0036667 0.787333333 62.0036667"></polygon>
    </defs>
    <g id="Page-1" stroke="none" stroke-width="1" fill="none" fill-rule="evenodd">
        <g id="Artboard" transform="translate(-1268.000000, -2233.000000)">
            <g id="Group-79" transform="translate(1268.000681, 2233.000000)">
                <g id="Group-38" stroke="#4376BB" stroke-width="3">
                    <g id="Group-36">
                        <g id="Group-22">
                            <g id="Overlay-Network-Copy-7">
                                <g id="Group-8-Copy">
                                    <rect id="Rectangle" x="1.5" y="1.5" width="500" height="531"></rect>
                                </g>
                            </g>
                        </g>
                    </g>
                </g>
                <g id="Group-39" transform="translate(0.000000, 1.000000)">
                    <g id="Group-3">
                        <mask id="mask-2" fill="white">
                            <use xlink:href="#path-1"></use>
                        </mask>
                        <g id="Clip-2"></g>
                        <polygon id="Fill-1" fill="#4E77B6" mask="url(#mask-2)" points="0.787333333 62.0036667 70.575 62.0036667 70.575 0.392 0.787333333 0.392"></polygon>
                    </g>
                    <path d="M63.2719,40.7586667 C63.1505667,41.4236667 63.0362333,42.091 62.9079,42.7536667 C62.8589,42.987 62.7702333,43.211 62.7025667,43.4396667 C61.9535667,43.5633333 61.2792333,43.4256667 60.7145667,42.8843333 C60.9759,41.8156667 61.1625667,40.7376667 61.1625667,39.6363333 C61.2162333,39.4496667 61.2792333,39.2793333 61.5265667,39.305 C62.0212333,39.361 62.5159,39.417 63.0082333,39.487 C63.1552333,39.5056667 63.1925667,39.6526667 63.2719,39.753 L63.2719,40.7586667 Z" id="Fill-4" fill="#FFFFFF"></path>
                    <path d="M63.2719,39.7527667 C62.5672333,39.7131 61.8625667,39.6734333 61.1625667,39.6361 C61.1789,38.5417667 60.9829,37.4731 60.7939,36.4021 C60.8195667,36.2597667 60.9082333,36.1431 61.0459,36.1407667 C61.5125667,36.1291 61.9675667,36.0264333 62.4342333,36.0171 C62.6302333,36.0147667 62.7375667,36.1361 62.8262333,36.2877667 C63.1272333,37.0391 63.0712333,37.8604333 63.2719,38.6351 L63.2719,39.7527667 Z" id="Fill-6" fill="#FFFFFF"></path>
                    <path d="M33.8772667,6.5471 C33.8726,6.2321 33.8842667,5.91476667 33.8609333,5.6021 C33.8096,4.92776667 34.0126,4.3981 34.6472667,4.0831 L35.2049333,4.0831 C35.8396,4.3981 36.0286,4.9301 35.9936,5.60443333 C35.9632667,6.2531 35.9796,6.90176667 35.9749333,7.55043333 C35.8349333,7.72076667 35.6599333,7.84443333 35.4476,7.7231 C34.8782667,7.39643333 34.1806,7.23076667 33.8772667,6.5471" id="Fill-8" fill="#FFFFFF"></path>
                    <path d="M18.4280333,52.1794 L26.4873667,52.1794 C27.6610333,52.3847333 28.5407,53.1710667 29.5440333,53.7147333 C29.7727,53.8384 29.8590333,54.0204 29.7213667,54.2700667 L18.7663667,54.2700667 C18.0547,54.1604 18.0547,54.1604 17.9753667,53.4230667 C17.9613667,53.2784 17.9637,53.1290667 17.9287,52.9867333 C17.8260333,52.5480667 17.9800333,52.2727333 18.4280333,52.1794" id="Fill-10" fill="#FFFFFF"></path>
                    <path d="M54.5536333,52.9529 C53.1956333,53.6505667 51.7326333,53.9935667 50.2276333,54.1685667 C49.2499667,54.2852333 48.2629667,54.3389 47.2736333,54.2689 C46.2469667,53.8605667 45.2996333,53.2982333 44.3546333,52.7335667 C44.1516333,52.6122333 43.8996333,52.5049 44.0443,52.1805667 C45.2856333,52.1759 46.5293,52.1385667 47.7706333,52.1712333 C49.4366333,52.2155667 51.0606333,52.0032333 52.6496333,51.5085667 C53.2166333,51.7722333 53.7416333,52.1129 54.2736333,52.4419 C54.4556333,52.5539 54.6866333,52.6612333 54.5536333,52.9529" id="Fill-12" fill="#FFFFFF"></path>
                    <path d="M9.17683333,19.0570333 C9.31916667,19.0477 9.5245,19.1200333 9.72283333,19.2343667 C11.3655,20.1840333 13.0128333,21.1337 14.6555,22.0857 C15.0591667,22.3190333 15.2855,22.6690333 15.2435,23.1450333 C15.1991667,23.5953667 14.9448333,23.8963667 14.5131667,24.0433667 C14.2075,24.1460333 13.9228333,24.0947 13.6521667,23.9383667 C11.9745,22.9723667 10.2968333,22.0063667 8.62616667,21.0287 C8.16183333,20.7580333 7.9285,20.3403667 8.08716667,19.8013667 C8.2295,19.3277 8.57483333,19.0687 9.17683333,19.0570333" id="Fill-14" fill="#FFFFFF"></path>
                    <path d="M44.0445333,52.1815 C44.7702,52.7251667 45.5798667,53.1265 46.3778667,53.5511667 C46.7255333,53.7378333 47.0498667,53.9385 47.2738667,54.2698333 L40.0102,54.2698333 C39.1025333,53.8825 38.2368667,53.4111667 37.4225333,52.8465 C37.2008667,52.6925 36.9278667,52.5338333 37.1098667,52.1791667 C39.4222,52.1791667 41.7322,52.1815 44.0445333,52.1815" id="Fill-16" fill="#FFFFFF"></path>
                    <path d="M17.4186333,27.1084333 C18.2983,24.9804333 19.6026333,23.1441 21.2313,21.5271 C21.8496333,21.6834333 22.3839667,22.0101 22.8809667,22.3997667 C22.9859667,22.4837667 22.9626333,22.6331 22.9089667,22.7567667 C21.4389667,24.2827667 20.2279667,25.9884333 19.3133,27.8994333 C19.0846333,28.1117667 18.8349667,28.1421 18.5549667,27.9881 C18.3589667,27.8807667 18.1373,27.8457667 17.9249667,27.7804333 C17.6099667,27.6824333 17.3509667,27.5097667 17.4186333,27.1084333" id="Fill-18" fill="#FFFFFF"></path>
                    <path d="M37.1108,52.1782333 C37.7641333,52.9715667 38.7721333,53.2375667 39.5748,53.8092333 C39.7568,53.9399 39.9551333,54.0309 40.0111333,54.2689 L34.5348,54.2689 C34.3691333,54.0845667 34.1451333,53.9959 33.9234667,53.9025667 C33.2048,53.5992333 32.6191333,53.0812333 31.9541333,52.6892333 C31.7581333,52.5749 31.6834667,52.3905667 31.8514667,52.1782333 C33.6038,52.1782333 35.3584667,52.1782333 37.1108,52.1782333" id="Fill-20" fill="#FFFFFF"></path>
                    <path d="M31.8517,52.1794 C32.5003667,52.7720667 33.2330333,53.2434 34.0170333,53.6377333 C34.2877,53.7730667 34.5583667,53.8967333 34.5327,54.2700667 L29.7213667,54.2700667 C29.3970333,53.8104 28.8533667,53.6634 28.4147,53.3670667 C27.7940333,52.9424 27.1337,52.5714 26.4873667,52.1794 L31.8517,52.1794 Z" id="Fill-22" fill="#FFFFFF"></path>
                    <path d="M33.8772667,6.5471 C34.3369333,6.8061 34.8012667,7.05576667 35.2562667,7.32643333 C35.4802667,7.46176667 35.7089333,7.5551 35.9749333,7.55043333 C35.9772667,8.66576667 35.9936,9.7811 35.9819333,10.8964333 C35.9749333,11.6337667 35.5666,12.1004333 34.9529333,12.1214333 C34.3252667,12.1401 33.8726,11.6524333 33.8679333,10.8941 C33.8586,9.4451 33.8726,7.9961 33.8772667,6.5471" id="Fill-24" fill="#FFFFFF"></path>
                    <path d="M45.8288333,27.2293 C44.5011667,27.6469667 43.2155,28.1556333 41.9485,28.7413 C41.3511667,29.0189667 41.2135,28.1346333 40.8915,27.7589667 C40.6721667,27.5046333 40.6278333,27.2223 40.9708333,27.0053 C41.1598333,26.8886333 41.3465,26.7673 41.5425,26.6599667 C42.7511667,25.9926333 44.0205,25.4793 45.3831667,25.2179667 C45.6305,25.8666333 45.9081667,26.5083 45.8288333,27.2293" id="Fill-26" fill="#FFFFFF"></path>
                    <path d="M14.1897667,53.2707 C12.6334333,52.6477 11.2777667,51.7307 10.1461,50.4940333 C10.1927667,50.0623667 10.8857667,49.1663667 11.2567667,49.0613667 C11.5694333,48.9727 11.7257667,49.2247 11.9287667,49.3740333 C12.8434333,50.1930333 13.8724333,50.8370333 14.9691,51.3783667 C15.2421,51.6630333 15.2421,51.9477 14.9924333,52.2510333 C14.8384333,52.4353667 14.7311,52.6500333 14.6611,52.8787 C14.5864333,53.1143667 14.4277667,53.2357 14.1897667,53.2707" id="Fill-28" fill="#FFFFFF"></path>
                    <path d="M56.7868667,21.1932 C57.9068667,20.5375333 59.0175333,19.8655333 60.1515333,19.2355333 C60.7792,18.8855333 61.3975333,19.0698667 61.6938667,19.6182 C61.9622,20.1152 61.7918667,20.6822 61.2062,21.0368667 C60.3032,21.5852 59.3768667,22.1008667 58.4622,22.6282 C58.0398667,22.2548667 57.5545333,21.9795333 57.0668667,21.7088667 C56.8522,21.5898667 56.6772,21.4755333 56.7868667,21.1932" id="Fill-30" fill="#FFFFFF"></path>
                    <path d="M29.3928333,16.6096 C31.1685,16.0006 32.9955,15.7532667 34.8691667,15.8372667 C35.2495,16.3202667 35.2495,17.3329333 34.8691667,17.8276 C33.8565,17.8812667 32.8461667,17.9652667 31.8475,18.1472667 C31.1055,17.8486 30.4615,17.3586 29.7125,17.0809333 C29.4978333,17.0016 29.2855,16.9106 29.3928333,16.6096" id="Fill-32" fill="#FFFFFF"></path>
                    <path d="M49.1853333,12.3587333 C48.7256667,13.1684 48.2753333,13.9827333 47.8016667,14.7830667 C47.4773333,15.3267333 46.8893333,15.4760667 46.3596667,15.1867333 C45.865,14.9137333 45.6806667,14.2837333 45.9886667,13.7284 C46.474,12.8487333 46.9943333,11.9900667 47.4983333,11.1220667 C47.93,10.9354 49.0196667,11.2224 49.2786667,11.5840667 C49.4886667,11.8757333 49.1783333,12.0974 49.1853333,12.3587333" id="Fill-34" fill="#FFFFFF"></path>
                    <path d="M20.1029,11.3563333 C19.7622333,10.7823333 19.3959,10.2223333 19.0949,9.62733333 C18.8242333,9.093 19.0412333,8.50266667 19.5312333,8.23666667 C20.0002333,7.98 20.5812333,8.10833333 20.8915667,8.617 C21.6802333,9.91666667 22.4665667,11.2186667 23.1525667,12.5766667 C22.8982333,12.9126667 22.6252333,12.7166667 22.3755667,12.5883333 C21.6079,12.1963333 20.8939,11.704 20.1029,11.3563333" id="Fill-36" fill="#FFFFFF"></path>
                    <path d="M14.1897667,53.2707 C14.3437667,52.5963667 14.9387667,52.1040333 14.9691,51.3783667 C16.0891,51.7843667 17.2417667,52.0620333 18.4271,52.1787 C18.2497667,52.4447 18.1797667,53.8353667 18.3361,54.0453667 C18.4411,54.1877 18.6721,54.0990333 18.7654333,54.2693667 C17.1787667,54.2087 15.6387667,53.9450333 14.1897667,53.2707" id="Fill-38" fill="#FFFFFF"></path>
                    <path d="M43.9283333,18.06 C45.0623333,18.5103333 46.0073333,19.257 46.9383333,20.02 C47.1343333,20.1786667 47.1926667,20.3933333 47.027,20.6103333 C46.7563333,20.9626667 46.4786667,21.308 46.194,21.6486667 C46.0656667,21.8003333 45.893,21.805 45.746,21.6836667 C44.9013333,20.9836667 43.9306667,20.4726667 43.0323333,19.852 C43.0113333,19.8193333 42.9786667,19.7843333 42.9856667,19.754 C43.1023333,19.0796667 43.3636667,18.4846667 43.9283333,18.06" id="Fill-40" fill="#FFFFFF"></path>
                    <path d="M54.5536333,52.9529 C54.0939667,52.6752333 53.6343,52.3929 53.1699667,52.1222333 C52.9203,51.9775667 52.7079667,51.8095667 52.6496333,51.5085667 C53.7463,51.0909 54.7823,50.5495667 55.7739667,49.9242333 C56.5229667,49.8309 56.9919667,50.3885667 57.5589667,50.7035667 C57.7129667,50.7875667 57.6779667,50.9999 57.5659667,51.1539 C56.6559667,51.9122333 55.6573,52.5189 54.5536333,52.9529" id="Fill-42" fill="#FFFFFF"></path>
                    <path d="M29.3928333,16.6096 C29.9551667,16.8919333 30.5525,17.1019333 31.0821667,17.4542667 C31.3715,17.6479333 31.7308333,17.7622667 31.8475,18.1472667 C30.6061667,18.3129333 29.4465,18.7772667 28.2728333,19.1739333 C27.4655,19.0876 26.9148333,18.4179333 26.1471667,18.2336 C26.0445,18.2102667 25.9931667,18.0819333 26.0421667,17.9559333 C27.1085,17.3772667 28.2098333,16.8989333 29.3928333,16.6096" id="Fill-44" fill="#FFFFFF"></path>
                    <path d="M48.8479333,24.8833667 C50.1079333,24.8670333 51.3399333,25.0350333 52.5369333,25.4410333 C52.6676,25.5810333 52.7656,25.7350333 52.6979333,25.9357 C52.5206,26.4723667 52.4412667,27.0393667 52.2009333,27.5573667 C51.1836,27.2213667 50.1499333,26.9927 49.0719333,27.0043667 C48.3719333,26.5377 48.2086,26.0897 48.4232667,25.2963667 C48.4862667,25.0653667 48.6822667,24.9953667 48.8479333,24.8833667" id="Fill-46" fill="#FFFFFF"></path>
                    <path d="M20.1029,11.3563333 C20.4039,11.2023333 20.6582333,11.3003333 20.9382333,11.4496667 C21.6709,11.837 22.3219,12.3783333 23.1525667,12.5766667 C23.3859,12.957 23.6449,13.3256667 23.8455667,13.72 C24.1465667,14.308 23.9879,14.875 23.4769,15.1736667 C23.0055667,15.449 22.3872333,15.3183333 22.0722333,14.7886667 C21.3909,13.6593333 20.7562333,12.502 20.1029,11.3563333" id="Fill-48" fill="#FFFFFF"></path>
                    <path d="M49.1853333,12.3587333 C49.1246667,11.6820667 48.854,11.4417333 47.93,11.2364 C47.783,11.2037333 47.643,11.1617333 47.4983333,11.1220667 C47.9603333,10.3170667 48.4106667,9.50273333 48.8843333,8.70473333 C49.2343333,8.1144 49.813,7.94873333 50.359,8.25206667 C50.863,8.53206667 51.038,9.1084 50.723,9.70806667 C50.2493333,10.6134 49.7593333,11.5117333 49.1853333,12.3587333" id="Fill-50" fill="#FFFFFF"></path>
                    <path d="M22.9078,22.7574667 C22.5928,22.3981333 22.1541333,22.2324667 21.7388,22.0551333 C21.4704667,21.9408 21.3164667,21.7844667 21.2301333,21.5278 C21.9138,20.7461333 22.7164667,20.0974667 23.5681333,19.5094667 C24.2424667,19.2994667 25.2178,19.6564667 25.5724667,20.2491333 C25.6448,20.3728 25.6354667,20.4941333 25.5818,20.6178 C24.6438,21.2734667 23.7571333,21.9921333 22.9078,22.7574667" id="Fill-52" fill="#FFFFFF"></path>
                    <path d="M48.8479333,24.8833667 C48.5726,25.6277 48.5352667,26.3440333 49.0719333,27.0043667 C47.9822667,26.9600333 46.9019333,27.0533667 45.8286,27.2283667 C45.4576,26.6077 45.2102667,25.9590333 45.3829333,25.2170333 C46.5239333,24.9650333 47.6766,24.8273667 48.8479333,24.8833667" id="Fill-54" fill="#FFFFFF"></path>
                    <path d="M6.81153333,43.8862667 C6.59686667,42.8129333 6.47786667,41.7372667 6.69486667,40.6476 C7.32253333,40.1366 7.9222,40.1646 8.52653333,40.7409333 C8.5942,40.8062667 8.6572,40.6919333 8.71086667,40.7572667 C8.69686667,41.8096 8.66653333,42.8642667 8.90453333,43.9026 C8.56153333,44.6049333 7.47653333,44.7099333 7.00986667,44.0799333 C6.95386667,44.0052667 6.89086667,43.9376 6.81153333,43.8862667" id="Fill-56" fill="#FFFFFF"></path>
                    <path d="M6.81153333,43.8862667 C6.9142,43.8862667 6.8722,43.4056 7.08686667,43.7999333 C7.28053333,44.1569333 7.52553333,44.2946 7.9292,44.1172667 C8.23486667,43.9819333 8.63853333,44.2526 8.90453333,43.9026 C9.08186667,44.8709333 9.47853333,45.7669333 9.8542,46.6676 C9.8192,46.8146 9.7422,46.9359333 9.6232,47.0316 C9.1892,47.3746 8.74586667,47.7036 8.23953333,47.9416 C7.45786667,46.6979333 6.99353333,45.3422667 6.81153333,43.8862667" id="Fill-58" fill="#FFFFFF"></path>
                    <path d="M8.24023333,47.9411333 C8.51556667,47.1828 9.19223333,46.9354667 9.85256667,46.6694667 C10.4265667,47.6634667 11.1405667,48.5478 11.9292333,49.3738 C11.6142333,49.1824667 11.3505667,49.2478 11.1032333,49.5114667 C10.7929,49.8474667 10.4639,50.1671333 10.1442333,50.4938 C9.35323333,49.7611333 8.72323333,48.9071333 8.24023333,47.9411333" id="Fill-60" fill="#FFFFFF"></path>
                    <path d="M56.7868667,21.1932 C57.1952,21.4382 57.6012,21.6878667 58.0072,21.9328667 C58.2755333,22.0915333 58.4925333,22.2782 58.4622,22.6282 C57.7575333,23.0388667 57.0552,23.4518667 56.3505333,23.8602 C55.7182,24.2242 55.0975333,24.1285333 54.7732,23.6245333 C54.4208667,23.0762 54.5818667,22.4952 55.2422,22.0752 C55.7438667,21.7578667 56.2712,21.4848667 56.7868667,21.1932" id="Fill-62" fill="#FFFFFF"></path>
                    <path d="M58.0128,47.9136 C58.6708,47.0992667 59.2564667,46.2336 59.7931333,45.3376 C59.8351333,45.3026 59.8794667,45.2536 59.9284667,45.2489333 C60.3834667,45.2116 61.4078,45.8182667 61.6084667,46.2406 C61.1324667,47.3139333 60.4838,48.2706 59.6858,49.1316 C58.9274667,49.1456 58.1831333,48.6042667 58.0128,47.9136" id="Fill-64" fill="#FFFFFF"></path>
                    <path d="M59.1451667,29.4555333 C60.0318333,30.2115333 60.6385,31.1845333 61.2405,32.1575333 C61.1658333,32.4282 60.9441667,32.5565333 60.7271667,32.6918667 C60.3445,32.9298667 59.9968333,33.2215333 59.5745,33.3918667 C58.9935,32.4958667 58.3635,31.6325333 57.6728333,30.8158667 C57.5398333,30.4845333 57.6588333,30.2372 57.9365,30.0528667 C58.1675,29.8965333 58.3845,29.7215333 58.5945,29.5418667 C58.7718333,29.3902 58.9375,29.3318667 59.1451667,29.4555333" id="Fill-66" fill="#FFFFFF"></path>
                    <path d="M61.6084667,46.2410667 C60.9761333,45.9914 60.3111333,45.8117333 59.7931333,45.3357333 C60.1198,44.5260667 60.4861333,43.7304 60.7148,42.8834 C60.9691333,42.8087333 61.2048,42.6477333 61.3914667,43.0420667 C61.4871333,43.2474 61.7998,43.0280667 62.0284667,43.1144 C62.2664667,43.2054 62.5068,43.2660667 62.7028,43.4387333 C62.4741333,44.4280667 62.1311333,45.3684 61.6084667,46.2410667" id="Fill-68" fill="#FFFFFF"></path>
                    <path d="M58.0128,47.9136 C58.5261333,48.3802667 59.1911333,48.6416 59.6858,49.1316 C59.0651333,49.8969333 58.3744667,50.5876 57.5671333,51.1546 C57.4784667,50.7766 57.1074667,50.7626 56.8531333,50.6016 C56.4961333,50.3729333 56.1344667,50.1489333 55.7751333,49.9226 C56.5708,49.3089333 57.2988,48.6206 58.0128,47.9136" id="Fill-70" fill="#FFFFFF"></path>
                    <path d="M25.5829667,20.6178 C25.0113,20.0694667 24.4256333,19.5421333 23.5693,19.5094667 C24.3276333,18.8888 25.1559667,18.3778 26.0426333,17.9554667 C26.9059667,18.1398 27.6269667,18.5878 28.2709667,19.1734667 C27.3353,19.5818 26.4626333,20.1068 25.5829667,20.6178" id="Fill-72" fill="#FFFFFF"></path>
                    <path d="M59.1451667,29.4555333 C58.6691667,29.9245333 58.0205,30.2045333 57.6728333,30.8158667 C57.0755,30.2932 56.4781667,29.7728667 55.8831667,29.2525333 C55.8108333,29.1195333 55.7361667,28.9725333 55.8155,28.8348667 C56.1141667,28.3192 56.3428333,27.7335333 57.0101667,27.5655333 C57.8245,28.0788667 58.5221667,28.7252 59.1451667,29.4555333" id="Fill-74" fill="#FFFFFF"></path>
                    <path d="M57.0101667,27.5653 C56.6485,28.1369667 56.1421667,28.6106333 55.8831667,29.2523 C55.2298333,28.9489667 54.6745,28.4753 53.9931667,28.2256333 C53.6711667,27.5956333 54.2288333,26.4149667 54.8845,26.3356333 C55.6568333,26.6366333 56.3568333,27.0589667 57.0101667,27.5653" id="Fill-76" fill="#FFFFFF"></path>
                    <path d="M62.8253,36.2868333 C62.5709667,36.0768333 62.3586333,36.3381667 62.1369667,36.3778333 C61.6843,36.4525 61.2386333,36.3521667 60.7953,36.4035 C60.6109667,35.8481667 60.4289667,35.2928333 60.2446333,34.7375 C60.1069667,34.4575 60.1746333,34.2288333 60.4453,34.0841667 C60.9469667,33.8135 61.4649667,33.6221667 62.0459667,33.8228333 C62.4309667,34.6045 62.7249667,35.4141667 62.8253,36.2868333" id="Fill-78" fill="#FFFFFF"></path>
                    <path d="M54.8840333,26.3349333 C54.3963667,26.8739333 54.1653667,27.5366 53.9927,28.2272667 C53.4233667,27.9286 52.8307,27.6906 52.2007,27.5576 C51.9907,27.1329333 52.1657,26.7386 52.2917,26.3372667 C52.3850333,26.0432667 52.4550333,25.7422667 52.5367,25.4412667 C53.3580333,25.6396 54.1537,25.9079333 54.8840333,26.3349333" id="Fill-80" fill="#FFFFFF"></path>
                    <path d="M17.7649,35.3903667 C17.9632333,36.3027 17.8559,37.2407 18.0192333,38.1577 C18.0495667,38.3187 17.9095667,38.4447 17.7625667,38.4843667 C17.3309,38.6033667 16.8992333,38.7247 16.4605667,38.7970333 C16.1339,38.8530333 16.0615667,38.5660333 16.0195667,38.3303667 C15.9145667,37.7260333 15.8399,37.1170333 15.7512333,36.5080333 C16.0359,36.3330333 16.3369,36.1837 16.6752333,36.1790333 C17.1442333,36.1743667 17.5035667,36.0437 17.5992333,35.5210333 C17.6109,35.4557 17.6879,35.4067 17.7649,35.3903667" id="Fill-82" fill="#FFFFFF"></path>
                    <path d="M40.0137,16.4957333 C40.7300333,16.5867333 41.3810333,16.8644 42.0250333,17.1677333 C42.3610333,17.7814 41.9807,18.8640667 41.3530333,19.0694 C40.6833667,18.8454 40.0113667,18.6214 39.3417,18.3974 C39.2227,17.7510667 39.5797,16.7384 40.0137,16.4957333" id="Fill-84" fill="#FFFFFF"></path>
                    <path d="M41.3535,19.0694 C41.6731667,18.4697333 41.9205,17.8444 42.0255,17.1677333 C42.7301667,17.3170667 43.3275,17.6950667 43.9295,18.0590667 C43.7918333,18.7380667 43.3788333,19.2794 43.0335,19.8510667 C42.4525,19.6364 41.8948333,19.3704 41.3535,19.0694" id="Fill-86" fill="#FFFFFF"></path>
                    <path d="M9.48903333,33.9376333 C9.7807,33.5036333 10.1190333,33.1139667 10.5553667,32.8153 C10.6627,32.7406333 10.7817,32.6053 10.8983667,32.6916333 C11.3603667,33.0323 11.8060333,33.3963 12.0603667,33.9329667 C12.1303667,34.0823 12.0487,34.2199667 11.9390333,34.3343 C11.5703667,34.7239667 11.1993667,35.1136333 10.8307,35.5033 C10.8120333,35.5103 10.7933667,35.5266333 10.7793667,35.5219667 C10.4223667,35.3936333 9.55203333,34.3249667 9.48903333,33.9376333" id="Fill-88" fill="#FFFFFF"></path>
                    <path d="M18.3074,30.9127 C18.2210667,31.4773667 17.9877333,32.0117 17.9760667,32.5903667 C17.5770667,32.9147 16.3987333,32.8797 16.0534,32.5250333 C15.8830667,32.3523667 15.8714,32.1400333 15.9717333,31.9207 C16.0067333,31.3467 16.1070667,30.7843667 16.3077333,30.2430333 C16.9447333,30.0913667 18.0367333,30.4577 18.3074,30.9127" id="Fill-90" fill="#FFFFFF"></path>
                    <path d="M62.0459667,33.8237667 C61.6843,34.0081 61.3179667,34.1504333 60.8979667,34.1784333 C60.5853,34.2017667 60.3799667,34.4561 60.2446333,34.7384333 C59.9646333,34.3161 59.7593,33.8611 59.5726333,33.3921 C59.6869667,32.7481 60.3263,32.6897667 60.7323,32.3701 C60.8699667,32.2604333 61.0706333,32.2254333 61.2409667,32.1577667 C61.5116333,32.7107667 61.8733,33.2241 62.0459667,33.8237667" id="Fill-92" fill="#FFFFFF"></path>
                    <path d="M40.0137,16.4957333 C39.7640333,17.1210667 39.7593667,17.8327333 39.3417,18.3974 C38.8073667,18.3344 38.2893667,18.2200667 37.7760333,18.0614 C37.7270333,17.3287333 37.6803667,16.5960667 38.3290333,16.0570667 C38.8960333,16.1807333 39.4770333,16.2554 40.0137,16.4957333" id="Fill-94" fill="#FFFFFF"></path>
                    <path d="M18.3074,30.9127 C17.7240667,30.7517 17.1430667,30.5860333 16.5574,30.4320333 C16.4407333,30.4017 16.3474,30.3643667 16.3077333,30.2430333 C16.3894,29.7390333 16.5574,29.2583667 16.7534,28.7870333 C17.4627333,28.8733667 18.2210667,28.8477 18.6644,29.5780333 C18.5454,30.0237 18.4264,30.4693667 18.3074,30.9127" id="Fill-96" fill="#FFFFFF"></path>
                    <path d="M38.3297333,16.0570667 C38.0730667,16.7057333 38.1757333,17.4547333 37.7767333,18.0614 C37.3660667,18.0217333 36.9554,17.9797333 36.5447333,17.9377333 C36.5097333,17.9004 36.4444,17.8607333 36.4420667,17.8140667 C36.4210667,17.1350667 36.3557333,16.4467333 36.7710667,15.8377333 L38.3297333,16.0570667 Z" id="Fill-98" fill="#FFFFFF"></path>
                    <path d="M36.7713,15.8384333 C36.8273,16.5524333 36.7316333,17.2501 36.5449667,17.9384333 C36.1389667,17.9034333 35.7283,17.8707667 35.3176333,17.8357667 C35.1449667,17.1567667 35.0259667,16.4801 35.4296333,15.8337667 C35.8776333,15.8361 36.3256333,15.8361 36.7713,15.8384333" id="Fill-100" fill="#FFFFFF"></path>
                    <path d="M8.71203333,40.7565667 C8.66303333,40.8079 8.57903333,40.9129 8.56503333,40.9035667 C8.04003333,40.6165667 7.48936667,40.5745667 6.91303333,40.6842333 C6.84536667,40.6982333 6.76836667,40.6609 6.69603333,40.6492333 C6.65403333,40.2665667 6.78236667,39.9025667 6.81736667,39.5292333 C6.95036667,39.2305667 7.1417,39.0905667 7.50103333,39.1559 C7.7717,39.2049 8.04003333,39.2749 8.31303333,39.3029 C8.73536667,39.3472333 8.8987,39.5689 8.82403333,39.9795667 C8.8077,40.2409 8.8567,40.5139 8.71203333,40.7565667" id="Fill-102" fill="#FFFFFF"></path>
                    <path d="M17.7649,35.3903667 C17.7649,35.5373667 17.7625667,35.6843667 17.7625667,35.8313667 C17.7579,36.4870333 17.4569,36.7203667 16.8432333,36.5103667 C16.6635667,36.4497 16.5259,36.4940333 16.3695667,36.5500333 C16.1595667,36.6247 15.9472333,36.6900333 15.7512333,36.5080333 C15.7512333,36.1720333 15.7535667,35.8360333 15.7535667,35.5000333 C15.8772333,35.1290333 16.1479,34.9960333 16.5189,35.0543667 C16.9435667,35.1220333 17.4545667,34.8817 17.7602333,35.3903667 L17.7649,35.3903667 Z" id="Fill-104" fill="#FFFFFF"></path>
                    <path d="M17.7604667,35.3913 C17.3148,35.4356333 16.8691333,35.4099667 16.4258,35.3399667 C16.1878,35.3026333 15.9521333,35.3399667 15.7538,35.5009667 C15.7538,35.1649667 15.7538,34.8289667 15.7561333,34.4929667 C16.1224667,33.7883 17.2214667,33.7276333 17.7628,34.3856333 C17.7628,34.7193 17.7604667,35.0553 17.7604667,35.3913" id="Fill-106" fill="#FFFFFF"></path>
                    <path d="M17.7628,34.3854 C17.5994667,34.3737333 17.4221333,34.3970667 17.2751333,34.3410667 C16.7384667,34.1310667 16.2414667,34.2454 15.7561333,34.4927333 C15.7911333,33.9350667 15.6464667,33.3634 15.8611333,32.8174 C16.2134667,32.9154 16.5774667,33.0204 16.9391333,33.0157333 C17.3568,33.0110667 17.6461333,33.1580667 17.8678,33.4894 C17.8328,33.7880667 17.7978,34.0867333 17.7628,34.3854" id="Fill-108" fill="#FFFFFF"></path>
                    <path d="M9.48903333,33.9376333 C10.0093667,34.3973 10.5693667,34.8219667 10.8307,35.5033 C10.6813667,35.7273 10.5320333,35.9513 10.3827,36.1729667 C9.83436667,36.0329667 9.43303333,35.6479667 8.9897,35.3353 C8.81936667,35.2163 8.8567,35.0063 8.81703333,34.8313 C8.9897,34.4953 9.20903333,34.1943 9.48903333,33.9376333" id="Fill-110" fill="#FFFFFF"></path>
                    <path d="M8.82356667,39.9793333 C8.57623333,39.368 7.93456667,39.7366667 7.54723333,39.4683333 C7.3279,39.7833333 7.03156667,39.1533333 6.81923333,39.529 C6.9289,39.1206667 7.03623333,38.7123333 7.1459,38.304 C7.78523333,38.073 8.34056667,38.3833333 8.89823333,38.6073333 C9.03356667,38.661 9.1689,38.871 9.0429,39.0833333 C8.98923333,39.3866667 8.96356667,39.697 8.82356667,39.9793333" id="Fill-112" fill="#FFFFFF"></path>
                    <path d="M7.37666667,37.5230333 C7.49333333,37.2080333 7.57966667,36.8813667 7.806,36.6177 C8.359,36.3610333 9.50933333,36.9373667 9.605,37.5183667 C9.53033333,37.7937 9.46033333,38.0737 9.27833333,38.3070333 C8.62266667,38.5030333 7.61933333,38.0923667 7.37666667,37.5230333" id="Fill-114" fill="#FFFFFF"></path>
                    <path d="M9.60523333,37.5174333 C9.04756667,37.1347667 8.40356667,36.9201 7.80623333,36.6167667 C7.9019,36.2924333 8.0419,35.9914333 8.25656667,35.7254333 C8.45023333,35.5784333 8.63223333,35.5457667 8.8609,35.6904333 C9.15256667,35.8771 9.44656667,36.0614333 9.73823333,36.2481 C9.95756667,36.3881 10.0789,36.5794333 9.9389,36.8477667 C9.87356667,37.0951 9.77323333,37.3237667 9.60523333,37.5174333" id="Fill-116" fill="#FFFFFF"></path>
                    <path d="M9.93796667,36.8487 C9.48763333,36.3120333 8.85296667,36.0460333 8.25563333,35.7263667 C8.36996667,35.3810333 8.59163333,35.1057 8.81796667,34.8327 C9.18896667,35.0987 9.5623,35.3647 9.93096667,35.6353667 C10.1246333,35.7777 10.3346333,35.9083667 10.3813,36.1743667 C10.2343,36.3983667 10.0849667,36.6223667 9.93796667,36.8487" id="Fill-118" fill="#FFFFFF"></path>
                    <path d="M17.4186333,27.1084333 C17.9506333,27.6147667 18.6529667,27.7057667 19.3133,27.8994333 C19.1709667,28.2331 19.0239667,28.5691 18.8793,28.9051 C18.5946333,29.0684333 18.3426333,28.9237667 18.0859667,28.8187667 C17.8339667,28.7137667 17.6146333,28.5504333 17.3253,28.5014333 C16.9823,28.4454333 16.9893,28.1654333 17.0873,27.8924333 C17.1479667,27.6077667 17.2483,27.3441 17.4186333,27.1084333" id="Fill-120" fill="#FFFFFF"></path>
                    <path d="M17.0882333,27.8924333 C17.1185667,28.0767667 17.1209,28.2097667 17.4055667,28.2307667 C17.9632333,28.2704333 18.4112333,28.6251 18.8802333,28.9051 C18.8055667,29.1291 18.7355667,29.3531 18.6655667,29.5794333 C18.0495667,29.3997667 17.4289,29.2504333 16.8455667,28.9797667 C16.7942333,28.9587667 16.7825667,28.8537667 16.7522333,28.7884333 C16.7989,28.4641 16.9225667,28.1701 17.0882333,27.8924333" id="Fill-122" fill="#FFFFFF"></path>
                    <path d="M17.8675667,33.4887 C17.3239,33.3697 16.7895667,33.2343667 16.2109,33.3417 C15.9612333,33.3883667 15.8539,33.0803667 15.8609,32.8167 C15.8749,32.5157 15.8142333,32.2053667 15.9729,31.9207 C15.9635667,32.4783667 16.4745667,32.4527 16.7499,32.4550333 C17.1699,32.4597 17.5689,32.5390333 17.9772333,32.5903667 L17.8675667,33.4887 Z" id="Fill-124" fill="#FFFFFF"></path>
                    <path d="M7.37666667,37.5230333 C7.813,37.8497 8.38933333,37.7913667 8.85133333,38.0620333 C8.989,38.1460333 9.15233333,38.1950333 9.27833333,38.3070333 C9.22933333,38.5753667 9.18033333,38.8437 9.04266667,39.0840333 C8.76266667,38.5893667 8.219,38.7037 7.792,38.5917 C7.547,38.5263667 7.33233333,38.4610333 7.14566667,38.3023667 C7.14333333,38.0200333 7.302,37.7843667 7.37666667,37.5230333" id="Fill-126" fill="#FFFFFF"></path>
                    <path d="M35.4291667,15.8337667 C35.4781667,16.5057667 35.5878333,17.1801 35.3171667,17.8357667 C35.1678333,17.8334333 35.0185,17.8287667 34.8691667,17.8264333 L34.8691667,15.8384333 C35.0558333,15.8361 35.2425,15.8337667 35.4291667,15.8337667" id="Fill-128" fill="#FFFFFF"></path>
                </g>
            </g>
        </g>
    </g>
</svg>