<?xml version="1.0" encoding="UTF-8"?>
<svg width="503px" height="534px" viewBox="0 0 503 534" version="1.1" xmlns="http://www.w3.org/2000/svg" xmlns:xlink="http://www.w3.org/1999/xlink">
    <!-- Generator: Sketch 53 (72520) - https://sketchapp.com -->
    <title>Group 81</title>
    <desc>Created with Sketch.</desc>
    <defs>
        <polygon id="path-1" points="0.00231537581 0.377648609 69.2505752 0.377648609 69.2505752 61.515147 0.00231537581 61.515147"></polygon>
    </defs>
    <g id="Page-1" stroke="none" stroke-width="1" fill="none" fill-rule="evenodd">
        <g id="Artboard" transform="translate(-2430.000000, -2233.000000)">
            <g id="Group-81" transform="translate(2430.000000, 2233.000000)">
                <g id="Group-42">
                    <g id="Overlay-Network-Copy-8" stroke="#4376BB" stroke-width="3">
                        <g id="Group-8-Copy">
                            <rect id="Rectangle" x="1.5" y="1.5" width="500" height="531"></rect>
                        </g>
                    </g>
                    <g id="Group-46">
                        <g id="Group-3" transform="translate(0.000000, 0.938885)">
                            <mask id="mask-2" fill="white">
                                <use xlink:href="#path-1"></use>
                            </mask>
                            <g id="Clip-2"></g>
                            <polygon id="Fill-1" fill="#4E77B6" mask="url(#mask-2)" points="0.00231537581 61.515147 69.2505752 61.515147 69.2505752 0.375333233 0.00231537581 0.375333233"></polygon>
                        </g>
                        <path d="M58.3648358,50.7590686 C54.1253827,52.1714479 49.7886838,53.2457822 45.533023,54.593331 C44.4146965,54.9475835 43.4468694,54.8225532 42.3910581,54.5817541 C33.6389375,52.6021078 24.8891323,50.6224614 16.1277502,48.6937534 C15.2988457,48.5131541 15.1668693,48.1589016 15.1691846,47.4226121 C15.190023,36.991844 15.190023,26.5587606 15.1691846,16.1279926 C15.1691846,15.4009646 15.2918996,15.0281891 16.1069118,14.824436 C25.1507698,12.5576831 34.1853662,10.2561995 43.2107011,7.92461607 C44.0396057,7.70928612 44.7156954,7.79495503 45.5145,8.06122324 C49.2237321,9.28837242 52.9607487,10.4205912 56.683873,11.5944867 C57.25114,11.775086 57.7998841,11.9996775 58.3578897,12.2011152 C58.5245967,12.4997987 58.4505047,12.8239513 58.4505047,13.1342117 C58.4551355,25.3640267 58.4551355,37.5938417 58.4505047,49.8236568 C58.4505047,50.1362325 58.519966,50.4603851 58.3648358,50.7590686" id="Fill-4" fill="#FFFFFF"></path>
                        <path d="M58.3648358,50.7590686 C54.1253827,52.1714479 49.7886838,53.2457822 45.533023,54.593331 C44.4146965,54.9475835 43.4468694,54.8225532 42.3910581,54.5817541 C33.6389375,52.6021078 24.8891323,50.6224614 16.1277502,48.6937534 C15.2988457,48.5131541 15.1668693,48.1589016 15.1691846,47.4226121 C15.190023,36.991844 15.190023,26.5587606 15.1691846,16.1279926 C15.1691846,15.4009646 15.2918996,15.0281891 16.1069118,14.824436 C25.1507698,12.5576831 34.1853662,10.2561995 43.2107011,7.92461607 C44.0396057,7.70928612 44.7156954,7.79495503 45.5145,8.06122324 C49.2237321,9.28837242 52.9607487,10.4205912 56.683873,11.5944867 C57.25114,11.775086 57.7998841,11.9996775 58.3578897,12.2011152 C58.5245967,12.4997987 58.4505047,12.8239513 58.4505047,13.1342117 C58.4551355,25.3640267 58.4551355,37.5938417 58.4505047,49.8236568 C58.4505047,50.1362325 58.519966,50.4603851 58.3648358,50.7590686 Z" id="Stroke-6" stroke="#FFFFFF" stroke-width="1.25"></path>
                        <g id="Group-12" transform="translate(16.207631, 13.831140)">
                            <path d="M6.34575049,35.1075804 L0.193796956,33.8734851 C0.214635338,23.3547328 0.233158344,12.8382958 0.251681351,2.32185887 C2.29847357,1.78932243 4.34295041,1.25910137 6.38974263,0.72656493 C6.37585038,12.1876752 6.35964275,23.6464701 6.34575049,35.1075804" id="Fill-8" fill="#4E77B6"></path>
                            <path d="M6.34575049,35.1075804 L0.193796956,33.8734851 C0.214635338,23.3547328 0.233158344,12.8382958 0.251681351,2.32185887 C2.29847357,1.78932243 4.34295041,1.25910137 6.38974263,0.72656493 C6.37585038,12.1876752 6.35964275,23.6464701 6.34575049,35.1075804 Z" id="Stroke-10" stroke="#FFFFFF" stroke-width="0.25"></path>
                        </g>
                        <g id="Group-17" transform="translate(23.153758, 11.515764)">
                            <path d="M8.30617919,39.2930852 C5.75000429,38.7605488 3.19614477,38.2303277 0.637654499,37.6977913 C0.65386213,26.0282972 0.667754384,14.3588031 0.683962015,2.68930901 C3.17067564,2.04331915 5.65970464,1.3973293 8.14873364,0.751339451 C8.20198728,13.5970445 8.25524092,26.4450648 8.30617919,39.2930852" id="Fill-13" fill="#4E77B6"></path>
                            <path d="M8.30617919,39.2930852 C5.75000429,38.7605488 3.19614477,38.2303277 0.637654499,37.6977913 C0.65386213,26.0282972 0.667754384,14.3588031 0.683962015,2.68930901 C3.17067564,2.04331915 5.65970464,1.3973293 8.14873364,0.751339451 C8.20198728,13.5970445 8.25524092,26.4450648 8.30617919,39.2930852 Z" id="Stroke-15" stroke="#FFFFFF" stroke-width="0.25"></path>
                        </g>
                        <g id="Group-22" transform="translate(32.415261, 9.200388)">
                            <path d="M11.0397119,44.214185 C7.43930249,43.4570571 3.84120847,42.7022446 0.24311446,41.9451167 C0.250060588,28.8539818 0.259322091,15.762847 0.268583594,2.67402753 C3.89909287,1.78260784 7.53191752,0.89118815 11.1647422,-0.000231537581 C11.1230654,14.7394509 11.0813886,29.4768179 11.0397119,44.214185" id="Fill-18" fill="#4E77B6"></path>
                            <path d="M11.0397119,44.214185 C7.43930249,43.4570571 3.84120847,42.7022446 0.24311446,41.9451167 C0.250060588,28.8539818 0.259322091,15.762847 0.268583594,2.67402753 C3.89909287,1.78260784 7.53191752,0.89118815 11.1647422,-0.000231537581 C11.1230654,14.7394509 11.0813886,29.4768179 11.0397119,44.214185 Z" id="Stroke-20" stroke="#FFFFFF" stroke-width="0.25"></path>
                        </g>
                        <g id="Group-27" transform="translate(43.992140, 9.200388)">
                            <path d="M13.8413166,40.5591327 C9.46525632,41.7723897 5.09151141,42.9856466 0.71313575,44.1989035 C0.824273789,29.5240516 0.935411828,14.8491997 1.04423449,0.176663175 L13.6190405,4.00861014 C13.6954479,16.194433 13.7672246,28.3756252 13.8413166,40.5591327" id="Fill-23" fill="#4E77B6"></path>
                            <path d="M13.8413166,40.5591327 C9.46525632,41.7723897 5.09151141,42.9856466 0.71313575,44.1989035 C0.824273789,29.5240516 0.935411828,14.8491997 1.04423449,0.176663175 L13.6190405,4.00861014 C13.6954479,16.194433 13.7672246,28.3756252 13.8413166,40.5591327 Z" id="Stroke-25" stroke="#FFFFFF" stroke-width="0.25"></path>
                        </g>
                        <polyline id="Stroke-28" stroke="#FFFFFF" stroke-width="0.5" stroke-linecap="round" points="41.1646035 19.2560653 21.3681403 22.5462143 17.952961 23.1134814"></polyline>
                        <path d="M18.0988297,28.3842029 L41.2317494,25.4552525" id="Stroke-30" stroke="#FFFFFF" stroke-width="0.5" stroke-linecap="round"></path>
                        <path d="M17.9450887,33.8267253 L41.2725,31.6826873" id="Stroke-32" stroke="#FFFFFF" stroke-width="0.5" stroke-linecap="round"></path>
                        <path d="M17.7869485,39.2238663 L41.2741208,37.0937206" id="Stroke-34" stroke="#FFFFFF" stroke-width="0.5" stroke-linecap="round"></path>
                        <path d="M17.7869485,44.1373253 L41.2741208,42.0071796" id="Stroke-36" stroke="#FFFFFF" stroke-width="0.5" stroke-linecap="round"></path>
                        <path d="M25.386475,44.8608803 C24.9534997,44.8631956 24.5205245,44.865511 24.0875492,44.8678264 C24.0921799,42.9946874 24.0944953,40.5380736 24.0968107,38.5815811 C24.1014414,33.3488317 24.0921799,31.1353324 24.1037568,27.5511307 C24.1060722,26.3957582 24.1176491,22.2280817 24.1199645,21.0449247 C24.5436782,21.0912322 24.9627613,21.1375397 25.386475,21.1838472 L25.386475,44.8608803 Z" id="Fill-38" fill="#4E77B6"></path>
                        <path d="M22.2662746,44.9435392 C21.8819222,44.9157547 21.4975698,44.8879702 21.1132174,44.8601857 L21.1132174,19.6989967 L22.324159,19.6989967 C22.305636,28.1130724 22.2847976,36.5294635 22.2662746,44.9435392" id="Fill-40" fill="#4E77B6"></path>
                        <path d="M34.1686955,44.3079685 L32.9600693,44.3079685 L32.9600693,19.2556022 L34.0251422,19.2556022 C34.0714497,27.6071628 34.1200726,35.9587233 34.1686955,44.3079685" id="Fill-42" fill="#4E77B6"></path>
                        <path d="M31.1411101,43.5200461 C30.7081348,43.4714232 30.2751595,43.4228003 29.8398689,43.3764928 L29.8398689,19.6994598 L31.0508104,19.6994598 C31.0832257,27.6388834 31.1110102,35.5783071 31.1411101,43.5200461" id="Fill-44" fill="#4E77B6"></path>
                    </g>
                </g>
            </g>
        </g>
    </g>
</svg>