<?xml version="1.0" encoding="UTF-8"?>
<svg width="503px" height="534px" viewBox="0 0 503 534" version="1.1" xmlns="http://www.w3.org/2000/svg" xmlns:xlink="http://www.w3.org/1999/xlink">
    <!-- Generator: Sketch 53 (72520) - https://sketchapp.com -->
    <title>Group 78</title>
    <desc>Created with Sketch.</desc>
    <defs>
        <polygon id="path-1" points="0.00223333333 0.275 66.7967667 0.275 66.7967667 56.8571429 0.00223333333 56.8571429"></polygon>
        <polygon id="path-3" points="0 49.9157181 56.5385702 49.9157181 56.5385702 0.000945176538 0 0.000945176538"></polygon>
    </defs>
    <g id="Page-1" stroke="none" stroke-width="1" fill="none" fill-rule="evenodd">
        <g id="Artboard" transform="translate(-660.000000, -2233.000000)">
            <g id="Group-78" transform="translate(660.000681, 2233.000000)">
                <g id="Overlay-Network" stroke="#4376BB" stroke-width="3">
                    <g id="Group-8-Copy">
                        <rect id="Rectangle" x="1.5" y="1.5" width="500" height="531"></rect>
                    </g>
                </g>
                <g id="Group-35">
                    <g id="Group-14-Copy">
                        <g id="Group-3" transform="translate(0.000000, 0.868929)">
                            <mask id="mask-2" fill="white">
                                <use xlink:href="#path-1"></use>
                            </mask>
                            <g id="Clip-2"></g>
                            <polygon id="Fill-1" fill="#4E77B6" mask="url(#mask-2)" points="0.00223333333 56.8571429 66.799 56.8571429 66.799 0.272857143 0.00223333333 0.272857143"></polygon>
                        </g>
                    </g>
                    <g id="Group-20" transform="translate(5.000000, 1.500000)">
                        <path d="M19.2165732,15.3825591 L5.16557882,15.3825591 L5.16557882,46.5620428 L10.4321025,46.5620428 L10.4321025,38.4108403 L13.9273653,38.4108403 L13.9273653,46.5582621 L19.2165732,46.5582621 L19.2165732,15.3825591 Z M26.8157926,32.0535829 L33.1182298,32.0535829 L33.1182298,46.5903981 L51.3771501,46.5903981 L51.3771501,23.4373536 L38.3715209,23.4373536 L38.3715209,5.39204311 L20.7042811,5.39204311 L20.7042811,46.584727 L26.8157926,46.584727 L26.8157926,32.0535829 Z M52.8686387,48.1026805 L19.2430382,48.1026805 C19.071016,48.0743252 18.8989939,48.0232857 18.7269718,48.0232857 C16.2657321,48.0176146 13.8063827,48.0232857 11.3470334,48.019505 C8.78749531,48.0157243 6.2298476,48.0081629 3.66841918,48.0024918 L3.66841918,13.8816188 C3.71945871,13.8853995 3.76860789,13.8948513 3.81775707,13.8948513 C8.82530237,13.8967416 13.8328477,13.8967416 18.8422833,13.8948513 C18.9651563,13.8948513 19.0899196,13.866496 19.2505996,13.8457021 L19.2505996,3.96104584 L39.876242,3.96104584 L39.876242,22.0309309 L52.8686387,22.0309309 L52.8686387,48.1026805 Z" id="Fill-3" fill="#FFFFFF"></path>
                        <mask id="mask-4" fill="white">
                            <use xlink:href="#path-3"></use>
                        </mask>
                        <g id="Clip-6"></g>
                        <polygon id="Fill-5" fill="#FFFFFF" mask="url(#mask-4)" points="22.5745964 26.5358313 25.5348894 26.5358313 25.5348894 19.1823578 22.5745964 19.1823578"></polygon>
                        <polygon id="Fill-7" fill="#FFFFFF" mask="url(#mask-4)" points="28.3685286 26.5471734 31.3155891 26.5471734 31.3155891 19.1823578 28.3685286 19.1823578"></polygon>
                        <polygon id="Fill-8" fill="#FFFFFF" mask="url(#mask-4)" points="33.9204956 26.5471734 36.8732271 26.5471734 36.8732271 19.1823578 33.9204956 19.1823578"></polygon>
                        <polygon id="Fill-9" fill="#FFFFFF" mask="url(#mask-4)" points="39.3004405 44.5735804 42.2437202 44.5735804 42.2437202 37.5679319 39.3004405 37.5679319"></polygon>
                        <polygon id="Fill-10" fill="#FFFFFF" mask="url(#mask-4)" points="45.6161101 44.5868128 48.5707319 44.5868128 48.5707319 37.5736029 45.6161101 37.5736029"></polygon>
                        <polygon id="Fill-11" fill="#FFFFFF" mask="url(#mask-4)" points="22.567035 15.5415378 25.5424508 15.5415378 25.5424508 8.87426252 22.567035 8.87426252"></polygon>
                        <polygon id="Fill-12" fill="#FFFFFF" mask="url(#mask-4)" points="39.287208 33.5755062 42.2342684 33.5755062 42.2342684 26.7210859 39.287208 26.7210859"></polygon>
                        <polygon id="Fill-13" fill="#FFFFFF" mask="url(#mask-4)" points="45.6161101 33.5755062 48.5688416 33.5755062 48.5688416 26.7210859 45.6161101 26.7210859"></polygon>
                        <polygon id="Fill-14" fill="#FFFFFF" mask="url(#mask-4)" points="28.3685286 15.5358668 31.3155891 15.5358668 31.3155891 8.8667011 28.3685286 8.8667011"></polygon>
                        <polygon id="Fill-15" fill="#FFFFFF" mask="url(#mask-4)" points="33.928057 15.5377571 36.8751175 15.5377571 36.8751175 8.8667011 33.928057 8.8667011"></polygon>
                        <polygon id="Fill-16" fill="#FFFFFF" mask="url(#mask-4)" points="13.8657398 35.6227585 16.822252 35.6227585 16.822252 28.6057679 13.8657398 28.6057679"></polygon>
                        <polygon id="Fill-17" fill="#FFFFFF" mask="url(#mask-4)" points="13.8581784 24.6001098 16.8373748 24.6001098 16.8373748 17.7702641 13.8581784 17.7702641"></polygon>
                        <polygon id="Fill-18" fill="#FFFFFF" mask="url(#mask-4)" points="7.54817983 35.6189778 10.4876789 35.6189778 10.4876789 28.6057679 7.54817983 28.6057679"></polygon>
                        <polygon id="Fill-19" fill="#FFFFFF" mask="url(#mask-4)" points="7.54250877 24.6133422 10.4801175 24.6133422 10.4801175 17.7797159 7.54250877 17.7797159"></polygon>
                    </g>
                </g>
            </g>
        </g>
    </g>
</svg>