<?xml version="1.0" encoding="UTF-8"?>
<svg width="503px" height="534px" viewBox="0 0 503 534" version="1.1" xmlns="http://www.w3.org/2000/svg" xmlns:xlink="http://www.w3.org/1999/xlink">
    <!-- Generator: Sketch 53 (72520) - https://sketchapp.com -->
    <title>Group 80</title>
    <desc>Created with Sketch.</desc>
    <g id="Page-1" stroke="none" stroke-width="1" fill="none" fill-rule="evenodd">
        <g id="Artboard" transform="translate(-1876.000000, -2233.000000)">
            <g id="Group-80" transform="translate(1876.000681, 2233.000000)">
                <g id="Group-41">
                    <g id="Overlay-Network-Copy-7" stroke="#4376BB" stroke-width="3">
                        <g id="Group-8-Copy">
                            <rect id="Rectangle" x="1.5" y="1.5" width="500" height="531"></rect>
                        </g>
                    </g>
                    <g id="Group-40">
                        <polygon id="Fill-130" fill="#4E77B6" points="-2.84217094e-14 62.209 70.464 62.209 70.464 -8.52651283e-14 -2.84217094e-14 -8.52651283e-14"></polygon>
                        <path d="M35.6339,29.3826 C35.6939,29.3826 35.7499,29.3906 35.8089,29.3906 C40.1269,29.3906 43.6119,25.9126 43.6119,21.5946 C43.6119,17.4586 40.4119,14.0816 36.3479,13.8036 C36.0709,8.5056 31.6989,4.2896 26.3319,4.2896 C22.3059,4.2896 18.8429,6.6646 17.2419,10.0856 C16.0679,9.6026 14.7819,9.3316 13.4329,9.3316 C7.8859,9.3316 3.4049,13.8286 3.4049,19.3736 C3.4049,24.4556 7.1639,28.7126 12.0629,29.3816 L35.6339,29.3826 Z" id="Stroke-132" stroke="#FFFFFF" stroke-width="1.956" stroke-linecap="round" stroke-linejoin="round"></path>
                        <path d="M58.9298,58.1297 C58.9898,58.1297 59.0448,58.1377 59.1048,58.1377 C63.4218,58.1377 66.9078,54.6597 66.9078,50.3417 C66.9078,46.2057 63.7078,42.8287 59.6428,42.5507 C59.3668,37.2517 54.9948,33.0367 49.6278,33.0367 C45.6018,33.0367 42.1388,35.4117 40.5378,38.8317 C39.3638,38.3497 38.0778,38.0787 36.7288,38.0787 C31.1808,38.0787 26.7008,42.5747 26.7008,48.1207 C26.7008,53.2027 30.4598,57.4597 35.3588,58.1287 L58.9298,58.1297 Z" id="Stroke-134" stroke="#FFFFFF" stroke-width="1.956" stroke-linecap="round" stroke-linejoin="round"></path>
                        <path d="M17.4044,47.5359 C17.4044,50.8739 14.6984,53.5799 11.3604,53.5799 C8.0224,53.5799 5.3164,50.8739 5.3164,47.5359 C5.3164,44.1979 8.0224,41.4919 11.3604,41.4919 C14.6984,41.4919 17.4044,44.1979 17.4044,47.5359" id="Fill-136" fill="#FFFFFF"></path>
                        <path d="M49.8712,49.0061 C49.8712,51.0021 48.2532,52.6191 46.2582,52.6191 C44.2632,52.6191 42.6442,51.0021 42.6442,49.0061 C42.6442,47.0111 44.2632,45.3931 46.2582,45.3931 C48.2532,45.3931 49.8712,47.0111 49.8712,49.0061" id="Fill-138" fill="#FFFFFF"></path>
                        <path d="M26.0656,18.7537 C26.0656,20.7497 24.4476,22.3667 22.4526,22.3667 C20.4566,22.3667 18.8386,20.7497 18.8386,18.7537 C18.8386,16.7577 20.4566,15.1407 22.4526,15.1407 C24.4476,15.1407 26.0656,16.7577 26.0656,18.7537" id="Fill-140" fill="#FFFFFF"></path>
                        <polyline id="Stroke-142" stroke="#FFFFFF" stroke-width="2" points="22.4523 18.7537 11.3603 47.5357 46.2583 49.0057"></polyline>
                    </g>
                </g>
            </g>
        </g>
    </g>
</svg>