<?xml version="1.0" encoding="UTF-8"?>
<svg width="503px" height="534px" viewBox="0 0 503 534" version="1.1" xmlns="http://www.w3.org/2000/svg" xmlns:xlink="http://www.w3.org/1999/xlink">
    <!-- Generator: Sketch 53 (72520) - https://sketchapp.com -->
    <title>Group 77</title>
    <desc>Created with Sketch.</desc>
    <defs>
        <polygon id="path-1" points="0.00223333333 1.275 66.7967667 1.275 66.7967667 57.8571429 0.00223333333 57.8571429"></polygon>
    </defs>
    <g id="Page-1" stroke="none" stroke-width="1" fill="none" fill-rule="evenodd">
        <g id="Artboard" transform="translate(-52.000000, -2233.000000)">
            <g id="Group-77" transform="translate(52.000681, 2233.000000)">
                <rect id="Rectangle" stroke="#4376BB" stroke-width="3" x="1.5" y="1.5" width="500" height="531"></rect>
                <g id="Group-14" transform="translate(3.261819, 0.000000)">
                    <g id="Group-3" transform="translate(0.000000, 0.868929)">
                        <mask id="mask-2" fill="white">
                            <use xlink:href="#path-1"></use>
                        </mask>
                        <g id="Clip-2"></g>
                        <polygon id="Fill-1" fill="#4E77B6" mask="url(#mask-2)" points="0.00223333333 57.8571429 66.799 57.8571429 66.799 1.27285714 0.00223333333 1.27285714"></polygon>
                    </g>
                    <path d="M28.71352,46.6960714 L14.0829533,46.5975 C12.0617867,46.5846429 10.4135867,48.1403571 10.4001867,50.0732143 L10.3733867,53.5746429 L32.3203533,53.7225 L32.34492,50.2210714 C32.3605533,48.2882143 30.7324533,46.7089286 28.71352,46.6960714" id="Fill-4" fill="#FFFFFF"></path>
                    <path d="M21.3593767,26.3410714 C16.8636767,26.3410714 13.20771,29.8403571 13.20771,34.1432143 C13.20771,38.4460714 16.8636767,41.9453571 21.3593767,41.9453571 C25.8550767,41.9453571 29.5110433,38.4460714 29.5110433,34.1432143 C29.5110433,29.8403571 25.8550767,26.3410714 21.3593767,26.3410714 M21.3593767,43.0639286 C16.2204767,43.0639286 12.0374433,39.0632143 12.0374433,34.1432143 C12.0374433,29.2253571 16.2204767,25.2225 21.3593767,25.2225 C26.50051,25.2225 30.68131,29.2253571 30.68131,34.1432143 C30.68131,39.0632143 26.50051,43.0639286 21.3593767,43.0639286" id="Fill-6" fill="#FFFFFF"></path>
                    <path d="M52.7917567,46.6960714 L38.1589567,46.5975 C36.1400233,46.5846429 34.4918233,48.1403571 34.47619,50.0732143 L34.4516233,53.5746429 L56.3963567,53.7225 L56.4231567,50.2210714 C56.43879,48.2882143 54.81069,46.7089286 52.7917567,46.6960714" id="Fill-8" fill="#FFFFFF"></path>
                    <path d="M45.43739,26.3410714 C40.94169,26.3410714 37.2857233,29.8403571 37.2857233,34.1432143 C37.2857233,38.4460714 40.94169,41.9453571 45.43739,41.9453571 C49.93309,41.9453571 53.5890567,38.4460714 53.5890567,34.1432143 C53.5890567,29.8403571 49.93309,26.3410714 45.43739,26.3410714 M45.43739,43.0639286 C40.2962567,43.0639286 36.1154567,39.0632143 36.1154567,34.1432143 C36.1154567,29.2253571 40.2962567,25.2225 45.43739,25.2225 C50.5785233,25.2225 54.7593233,29.2253571 54.7593233,34.1432143 C54.7593233,39.0632143 50.5785233,43.0639286 45.43739,43.0639286" id="Fill-10" fill="#FFFFFF"></path>
                    <path d="M33.3983833,8.26585714 C28.9026833,8.26585714 25.2467167,11.7651429 25.2467167,16.068 C25.2467167,20.3687143 28.9026833,23.8701429 33.3983833,23.8701429 C37.8940833,23.8701429 41.55005,20.3687143 41.55005,16.068 C41.55005,11.7651429 37.8940833,8.26585714 33.3983833,8.26585714 M33.3983833,24.9887143 C28.25725,24.9887143 24.07645,20.988 24.07645,16.068 C24.07645,11.1501429 28.25725,7.14728571 33.3983833,7.14728571 C38.5395167,7.14728571 42.7203167,11.1501429 42.7203167,16.068 C42.7203167,20.988 38.5395167,24.9887143 33.3983833,24.9887143" id="Fill-12" fill="#FFFFFF"></path>
                </g>
            </g>
        </g>
    </g>
</svg>