<?xml version="1.0" encoding="UTF-8"?>
<svg width="504px" height="534px" viewBox="0 0 504 534" version="1.1" xmlns="http://www.w3.org/2000/svg" xmlns:xlink="http://www.w3.org/1999/xlink">
    <!-- Generator: Sketch 53 (72520) - https://sketchapp.com -->
    <title>Group 45</title>
    <desc>Created with Sketch.</desc>
    <g id="Page-1" stroke="none" stroke-width="1" fill="none" fill-rule="evenodd">
        <g id="Artboard" transform="translate(-1267.000000, -2836.000000)">
            <g id="Group-45" transform="translate(1267.000681, 2836.000000)">
                <g id="Overlay-Network-Copy-2" stroke="#919191" stroke-width="3">
                    <g id="Group-8-Copy" transform="translate(0.999319, 0.000000)">
                        <rect id="Rectangle" x="1.5" y="1.5" width="500" height="531"></rect>
                    </g>
                </g>
                <g id="Group-14">
                    <polygon id="Fill-1" fill="#919191" points="0 58.505578 66.2681385 58.505578 66.2681385 0.00110782939 0 0.00110782939"></polygon>
                    <polygon id="Stroke-2" stroke="#FFFFFF" stroke-width="0.919" points="22.8877552 51.5373311 43.3781677 51.5373311 43.3781677 6.96713904 22.8877552 6.96713904"></polygon>
                    <polygon id="Stroke-3" stroke="#FFFFFF" stroke-width="0.885" points="43.3781677 48.1540202 56.8072755 48.1540202 56.8072755 12.6990483 43.3781677 12.6990483"></polygon>
                    <polygon id="Stroke-4" stroke="#FFFFFF" stroke-width="0.885" points="9.45864735 48.1540202 22.8877552 48.1540202 22.8877552 12.6990483 9.45864735 12.6990483"></polygon>
                    <path d="M28.1703289,14.1897435 L38.0986959,14.1897435" id="Stroke-5" stroke="#FFFFFF" stroke-width="0.919"></path>
                    <path d="M28.1703289,18.3711348 L38.0986959,18.3711348" id="Stroke-6" stroke="#FFFFFF" stroke-width="0.919"></path>
                    <path d="M28.1703289,22.5514182 L38.0986959,22.5514182" id="Stroke-7" stroke="#FFFFFF" stroke-width="0.919"></path>
                    <path d="M12.9593882,17.2178844 L22.8877552,17.2178844" id="Stroke-8" stroke="#FFFFFF" stroke-width="0.919"></path>
                    <path d="M12.9593882,21.3981678 L22.8877552,21.3981678" id="Stroke-9" stroke="#FFFFFF" stroke-width="0.919"></path>
                    <path d="M12.9593882,25.5795591 L22.8877552,25.5795591" id="Stroke-10" stroke="#FFFFFF" stroke-width="0.919"></path>
                    <path d="M43.3790539,17.2178844 L53.3074209,17.2178844" id="Stroke-11" stroke="#FFFFFF" stroke-width="0.919"></path>
                    <path d="M43.3790539,21.3981678 L53.3074209,21.3981678" id="Stroke-12" stroke="#FFFFFF" stroke-width="0.919"></path>
                    <path d="M43.3790539,25.5795591 L53.3074209,25.5795591" id="Stroke-13" stroke="#FFFFFF" stroke-width="0.919"></path>
                </g>
            </g>
        </g>
    </g>
</svg>