<?xml version="1.0" encoding="UTF-8"?>
<svg width="48px" height="48px" viewBox="0 0 48 48" version="1.1" xmlns="http://www.w3.org/2000/svg" xmlns:xlink="http://www.w3.org/1999/xlink">
    <title>ibm-cloud--hyper-protect-dbaas</title>
    <g id="V2-Icons" stroke="none" stroke-width="1" fill="none" fill-rule="evenodd">
        <g id="Extra-Storage-Icons" transform="translate(-109, -49)">
            <g id="ibm-cloud--hyper-protect-dbaas" transform="translate(109, 49)">
                <rect id="Rectangle-Copy-18" fill="#0F62FE" x="0" y="0" width="48" height="48"></rect>
                <g id="ibm-cloud--hyper-protect-vs" transform="translate(12, 11)">
                    <path d="M15,13.5 L15,18.375 C15,19.8 15.825,21.15 17.175,21.75 L18.75,22.5 L20.325,21.75 C21.6,21.15 22.5,19.8 22.5,18.375 L22.5,13.5 L15,13.5 Z M21,18.375 C21,19.275 20.475,20.025 19.725,20.4 L18.75,20.85 L17.775,20.4 C17.025,20.025 16.5,19.2 16.5,18.375 L16.5,15 L21,15 L21,18.375 Z" id="Shape" fill="#FFFFFF" fill-rule="nonzero"></path>
                    <path d="M18.75,1.5 L3.75,1.5 C2.925,1.5 2.25,2.175 2.25,3 L2.25,19.5 C2.25,20.325 2.925,21 3.75,21 L12,21 L12,3 L18.75,3 L18.75,11.25 L20.25,11.25 L20.25,3 C20.25,2.175 19.575,1.5 18.75,1.5 Z M10.2,9.15 L3.75,17.925 L3.75,3.825 L10.2,9.15 Z M4.5,19.5 L10.5,11.325 L10.5,19.5 L4.5,19.5 Z M10.5,7.425 L5.1,3 L10.5,3 L10.5,7.425 Z" id="Shape" fill="#FFFFFF" fill-rule="nonzero"></path>
                    <rect id="_x3C_Transparent_Rectangle_x3E__232_" x="0" y="0" width="24" height="24"></rect>
                </g>
            </g>
        </g>
    </g>
</svg>