<?xml version="1.0" encoding="UTF-8"?>
<svg width="48px" height="48px" viewBox="0 0 48 48" version="1.1" xmlns="http://www.w3.org/2000/svg" xmlns:xlink="http://www.w3.org/1999/xlink">
    <title>ibm--db2</title>
    <g id="V2-Icons" stroke="none" stroke-width="1" fill="none" fill-rule="evenodd">
        <g id="Extra-Storage-Icons" transform="translate(-357, -49)">
            <g id="ibm--db2" transform="translate(357, 49)">
                <rect id="Rectangle-Copy-4" fill="#0F62FE" x="0" y="0" width="48" height="48"></rect>
                <g transform="translate(12, 12)">
                    <path d="M12,9.75 C9.434475,9.75 7.5,10.878675 7.5,12.375 L7.5,18.375 C7.5,19.871325 9.434475,21 12,21 C14.565525,21 16.5,19.871325 16.5,18.375 L16.5,12.375 C16.5,10.878675 14.565525,9.75 12,9.75 Z M12,11.25 C13.86105,11.25 15,11.9784 15,12.375 C15,12.7716 13.86105,13.5 12,13.5 C10.13895,13.5 9,12.7716 9,12.375 C9,11.9784 10.13895,11.25 12,11.25 Z M12,19.5 C10.13895,19.5 9,18.7716 9,18.375 L9,17.360625 C9.785175,17.761275 10.824825,18 12,18 C13.175175,18 14.214825,17.7612 15,17.360625 L15,18.375 C15,18.7716 13.86105,19.5 12,19.5 Z M12,16.5 C10.13895,16.5 9,15.7716 9,15.375 L9,14.360625 C9.785175,14.761275 10.824825,15 12,15 C13.175175,15 14.214825,14.7612 15,14.360625 L15,15.375 C15,15.7716 13.86105,16.5 12,16.5 Z" id="Shape" fill="#FFFFFF" fill-rule="nonzero"></path>
                    <path d="M22.5,11.625 C22.5,13.935 20.895,15.8625 18.742575,16.365 L18.742575,14.8125 C20.055075,14.3475 21,13.1025 21,11.625 C21,9.8775 19.6275,8.4075 17.8875,8.264925 L17.28,8.22 L17.205,7.612575 C16.8825,4.987575 14.64,3.000075 12,3.000075 C9.3525,3.000075 7.11,4.987575 6.7875,7.612575 L6.7125,8.22 L6.105,8.264925 C4.365,8.4075 3,9.8775 3,11.625 C3,13.095 3.9375,14.34 5.242575,14.805 L5.242575,16.365 C3.097575,15.855075 1.5,13.9275 1.5,11.625075 C1.5,9.300075 3.165,7.312575 5.4,6.855075 C6.045,3.765 8.79,1.500075 12,1.500075 C15.2025,1.500075 17.947575,3.765 18.6,6.855075 C20.8275,7.312575 22.5,9.300075 22.5,11.625075 L22.5,11.625 Z" id="Path" fill="#FFFFFF" fill-rule="nonzero"></path>
                    <rect id="_Transparent_Rectangle_" x="0" y="0" width="24" height="24"></rect>
                </g>
            </g>
        </g>
    </g>
</svg>