<?xml version="1.0" encoding="UTF-8"?>
<svg width="48px" height="48px" viewBox="0 0 48 48" version="1.1" xmlns="http://www.w3.org/2000/svg" xmlns:xlink="http://www.w3.org/1999/xlink">
    <title>Cloud Pak for Security</title>
    <g id="V2-Icons" stroke="none" stroke-width="1" fill="none" fill-rule="evenodd">
        <g id="IBM-/-Cloud-/-Security" transform="translate(-1390, -77)">
            <g id="Cloud-Pak-for-Security" transform="translate(1390, 77)">
                <rect id="Rectangle-" fill="#FA4D56" x="0" y="0" width="48" height="48"></rect>
                <g id="ibm-cloud-pak--security" transform="translate(12, 12)">
                    <path d="M12,17.796375 C9.51590084,17.7935232 7.5028518,15.7804742 7.5,13.296375 L7.5,8.453625 L12,6.203625 L16.5,8.453625 L16.5,13.296375 C16.4971482,15.7804742 14.4840992,17.7935232 12,17.796375 L12,17.796375 Z M9,9.380475 L9,13.296375 C9,14.9532292 10.3431458,16.296375 12,16.296375 C13.6568542,16.296375 15,14.9532292 15,13.296375 L15,9.380475 L12,7.880475 L9,9.380475 Z" id="Shape" fill="#FFFFFF" fill-rule="nonzero"></path>
                    <path d="M12,23.2500006 C11.8672318,23.2500006 11.7368049,23.2150417 11.622075,23.148225 L2.622075,17.898225 C2.39163953,17.7636521 2.24999994,17.5168527 2.24999994,17.25 L2.24999994,6.75 C2.24999994,6.48322398 2.39159765,6.23649897 2.622075,6.10215 L11.622075,0.85215 C11.8556079,0.715911998 12.1443921,0.715911998 12.377925,0.85215 L21.377925,6.10215 L20.622075,7.39785 L12,2.368275 L3.74999994,7.18065 L3.74999994,16.81935 L12,21.6321 L20.2499999,16.81935 L20.2499999,11.25 L21.7499999,11.25 L21.7499999,17.25 C21.7499999,17.5168527 21.6083605,17.7636521 21.377925,17.898225 L12.377925,23.148225 C12.2631951,23.2150417 12.1327682,23.2500006 12,23.2500006 Z" id="Path" fill="#FFFFFF" fill-rule="nonzero"></path>
                    <rect id="_Transparent_Rectangle_" x="0" y="0" width="24" height="24"></rect>
                </g>
            </g>
        </g>
    </g>
</svg>