<?xml version="1.0" encoding="UTF-8"?>
<svg width="48px" height="48px" viewBox="0 0 48 48" version="1.1" xmlns="http://www.w3.org/2000/svg" xmlns:xlink="http://www.w3.org/1999/xlink">
    <title>code-signing-service</title>
    <g id="V2-Icons" stroke="none" stroke-width="1" fill="none" fill-rule="evenodd">
        <g id="IBM-/-Cloud-/-Security" transform="translate(-405, -14)">
            <g id="code-signing-service" transform="translate(405, 14)">
                <rect id="Rectangle" fill="#FA4D56" x="0" y="0" width="48" height="48"></rect>
                <g transform="translate(12, 12)">
                    <circle id="Oval" fill="#FFFFFF" fill-rule="nonzero" cx="18.75" cy="15" r="1"></circle>
                    <path d="M14.560575,22.5 L11.25,22.5 L11.25,19.189275 L15.025275,15.414 C15.0085671,15.2766307 15.0001269,15.1383816 15,15 C14.9990317,13.4452081 15.9575981,12.0510776 17.4096888,11.4953698 C18.8617795,10.939662 20.5061807,11.33765 21.5434608,12.4958506 C22.580741,13.6540511 22.7957323,15.3322133 22.083916,16.7144927 C21.3720997,18.096772 19.8811312,18.8964359 18.33585,18.724725 L14.560575,22.5 Z M12.75,21 L13.939425,21 L17.844,17.095275 L18.248625,17.188125 C19.2393939,17.4241685 20.2663834,16.9733459 20.7632519,16.084267 C21.2601203,15.1951881 21.1059302,14.0842544 20.3857109,13.3640991 C19.6654915,12.6439438 18.5545441,12.4898525 17.6655094,12.9868 C16.7764747,13.4837475 16.3257434,14.5107771 16.561875,15.501525 L16.654575,15.906 L12.75,19.810725 L12.75,21 Z" id="Shape" fill="#FFFFFF" fill-rule="nonzero"></path>
                    <rect id="Rectangle" fill="#FFFFFF" fill-rule="nonzero" x="4.5" y="6" width="1.5" height="6"></rect>
                    <rect id="Rectangle" fill="#FFFFFF" fill-rule="nonzero" x="1.5" y="6" width="1.5" height="6"></rect>
                    <rect id="Rectangle" fill="#FFFFFF" fill-rule="nonzero" x="13.5" y="6" width="1.5" height="4.5"></rect>
                    <path d="M10.5,12 L9,12 C8.17157288,12 7.5,11.3284271 7.5,10.5 L7.5,7.5 C7.5,6.67157288 8.17157288,6 9,6 L10.5,6 C11.3284271,6 12,6.67157288 12,7.5 L12,10.5 C12,11.3284271 11.3284271,12 10.5,12 Z M9,10.5 L10.5,10.5 L10.5,7.5 L9,7.5 L9,10.5 Z" id="Shape" fill="#FFFFFF" fill-rule="nonzero"></path>
                    <rect id="Rectangle" fill="#FFFFFF" fill-rule="nonzero" x="1.5" y="13.5" width="1.5" height="6"></rect>
                    <rect id="Rectangle" fill="#FFFFFF" fill-rule="nonzero" x="10.5" y="13.5" width="1.5" height="3"></rect>
                    <path d="M7.5,19.5 L6,19.5 C5.17157288,19.5 4.5,18.8284271 4.5,18 L4.5,15 C4.5,14.1715729 5.17157288,13.5 6,13.5 L7.5,13.5 C8.32842712,13.5 9,14.1715729 9,15 L9,18 C9,18.8284271 8.32842712,19.5 7.5,19.5 Z M6,18 L7.5,18 L7.5,15 L6,15 L6,18 Z" id="Shape" fill="#FFFFFF" fill-rule="nonzero"></path>
                    <rect id="Rectangle" fill="#FFFFFF" fill-rule="nonzero" x="1.5" y="1.5" width="1.5" height="3"></rect>
                    <rect id="Rectangle" fill="#FFFFFF" fill-rule="nonzero" x="10.5" y="1.5" width="1.5" height="3"></rect>
                    <rect id="Rectangle" fill="#FFFFFF" fill-rule="nonzero" x="13.5" y="1.5" width="1.5" height="3"></rect>
                    <path d="M7.5,4.5 L6,4.5 C5.17157288,4.5 4.5,3.82842712 4.5,3 L4.5,1.5 L6,1.5 L6,3 L7.5,3 L7.5,1.5 L9,1.5 L9,3 C9,3.82842712 8.32842712,4.5 7.5,4.5 Z" id="Path" fill="#FFFFFF" fill-rule="nonzero"></path>
                    <rect id="_Transparent_Rectangle_" x="0" y="0" width="24" height="24"></rect>
                </g>
            </g>
        </g>
    </g>
</svg>