<?xml version="1.0" encoding="UTF-8"?>
<svg width="48px" height="48px" viewBox="0 0 48 48" version="1.1" xmlns="http://www.w3.org/2000/svg" xmlns:xlink="http://www.w3.org/1999/xlink">
    <title>credentials</title>
    <g id="V2-Icons" stroke="none" stroke-width="1" fill="none" fill-rule="evenodd">
        <g id="IBM-/-Cloud-/-Security" transform="translate(-466, -14)">
            <g id="credentials" transform="translate(466, 14)">
                <rect id="Rectangle" fill="#FA4D56" x="0" y="0" width="48" height="48"></rect>
                <g transform="translate(12, 12)">
                    <path d="M12,16.5 C13.6568542,16.5 15,15.1568542 15,13.5 C15,11.8431458 13.6568542,10.5 12,10.5 C10.3431458,10.5 9,11.8431458 9,13.5 C9,15.1568542 10.3431458,16.5 12,16.5 Z M12,12 C12.8284271,12 13.5,12.6715729 13.5,13.5 C13.5,14.3284271 12.8284271,15 12,15 C11.1715729,15 10.5,14.3284271 10.5,13.5 C10.5,12.6715729 11.1715729,12 12,12 Z" id="Shape" fill="#FFFFFF" fill-rule="nonzero"></path>
                    <rect id="Rectangle" fill="#FFFFFF" fill-rule="nonzero" x="10.5" y="4.5" width="3" height="1.5"></rect>
                    <path d="M18,1.5 L4.5,1.5 C5.17191561,1.50082684 4.50082684,2.17191561 4.5,3 L4.5,21 C4.5009506,21.8280331 5.17196695,22.4990494 4.5,22.5 L18,22.5 C18.8279646,22.4988845 19.4988845,21.8279646 19.5,21 L19.5,3 C19.4990494,2.17196695 18.8280331,1.5009506 18,1.5 L18,1.5 Z M15,21 L9,21 L9,19.5 C9,19.0857864 9.33578644,18.75 9.75,18.75 L14.25,18.75 C14.6642136,18.75 15,19.0857864 15,19.5 L15,21 Z M16.5,21 L16.5,19.5 C16.5,18.2573593 15.4926407,17.25 14.25,17.25 L9.75,17.25 C8.50735931,17.25 7.5,18.2573593 7.5,19.5 L7.5,21 L6,21 L6,3 L18,3 L18,21 L16.5,21 Z" id="Shape" fill="#FFFFFF" fill-rule="nonzero"></path>
                    <rect id="_Transparent_Rectangle_" x="0" y="0" width="24" height="24"></rect>
                </g>
            </g>
        </g>
    </g>
</svg>