<?xml version="1.0" encoding="UTF-8"?>
<svg width="48px" height="48px" viewBox="0 0 48 48" version="1.1" xmlns="http://www.w3.org/2000/svg" xmlns:xlink="http://www.w3.org/1999/xlink">
    <title>IBM VPN for VPC</title>
    <g id="V2-Icons" stroke="none" stroke-width="1" fill="none" fill-rule="evenodd">
        <g id="IBM-/-Cloud-/-Security" transform="translate(-1254, -77)">
            <g id="IBM-Continuous-Delivery-Copy" transform="translate(1254, 77)">
                <g id="server--dns-copy-2" fill="#FA4D56">
                    <rect id="Rectangle-Copy-42" x="0" y="0" width="48" height="48"></rect>
                </g>
                <g id="ibm--vpn-for-vpc(2)" transform="translate(12, 12)">
                    <path d="M21.75,17.25 L21.75,15.75 C21.75,14.512575 20.737425,13.5 19.5,13.5 C18.262575,13.5 17.25,14.512575 17.25,15.75 L17.25,17.25 C16.424925,17.25 15.75,17.924925 15.75,18.75 L15.75,21.75 C15.75,22.575075 16.424925,23.25 17.25,23.25 L21.75,23.25 C22.575075,23.25 23.25,22.575075 23.25,21.75 L23.25,18.75 C23.25,17.924925 22.575075,17.25 21.75,17.25 Z M18.75,15.75 C18.75,15.33765 19.0875,15 19.5,15 C19.9125,15 20.25,15.33765 20.25,15.75 L20.25,17.25 L18.75,17.25 L18.75,15.75 Z M21.75,21.75 L17.25,21.75 L17.25,18.75 L21.75,18.75 L21.75,21.75 Z" id="Shape" fill="#FFFFFF" fill-rule="nonzero"></path>
                    <path d="M5.25,16.605 L5.25,9.75 L3.75,9.75 L3.75,16.605 C2.46,16.9425 1.5,18.105 1.5,19.5 C1.5,21.1575 2.8425,22.5 4.5,22.5 C5.895,22.5 7.0575,21.54 7.395,20.25 L13.5,20.25 L13.5,18.75 L7.395,18.75 C7.1175,17.7 6.3,16.8825 5.25,16.605 Z M4.5,21 C3.675,21 3,20.325 3,19.5 C3,18.675 3.675,18 4.5,18 C5.325,18 6,18.675 6,19.5 C6,20.325 5.325,21 4.5,21 Z" id="Shape" fill="#FFFFFF" fill-rule="nonzero"></path>
                    <path d="M22.5,4.5 C22.5,2.8425 21.1575,1.5 19.5,1.5 C18.105,1.5 16.9425,2.46 16.605,3.75 L9.75,3.75 L9.75,5.25 L16.605,5.25 C16.8825,6.3 17.7,7.1175 18.75,7.395 L18.75,11.25 L20.25,11.25 L20.25,7.395 C21.54,7.0575 22.5,5.895 22.5,4.5 Z M19.5,6 C18.675,6 18,5.325 18,4.5 C18,3.675 18.675,3 19.5,3 C20.325,3 21,3.675 21,4.5 C21,5.325 20.325,6 19.5,6 Z" id="Shape" fill="#FFFFFF" fill-rule="nonzero"></path>
                    <path d="M7.5,6.44235 L7.5,1.5 L1.5,1.5 L1.5,7.5 L6.442575,7.5 L14.689425,15.75 L15.75,14.689425 L7.5,6.44235 Z M6,6 L3,6 L3,3 L6,3 L6,6 Z" id="Shape" fill="#FFFFFF" fill-rule="nonzero"></path>
                    <g id="_Transparent_Rectangle_">
                        <rect id="Rectangle" x="0" y="0" width="24" height="24"></rect>
                    </g>
                </g>
            </g>
        </g>
    </g>
</svg>