<?xml version="1.0" encoding="UTF-8"?>
<svg width="48px" height="48px" viewBox="0 0 48 48" version="1.1" xmlns="http://www.w3.org/2000/svg" xmlns:xlink="http://www.w3.org/1999/xlink">
    <title>Secrets Manager</title>
    <g id="V2-Icons" stroke="none" stroke-width="1" fill="none" fill-rule="evenodd">
        <g id="IBM-/-Cloud-/-Security" transform="translate(-1322, -77)">
            <g id="Secrets-Manager" transform="translate(1322, 77)">
                <g id="server--dns-copy-2" fill="#FA4D56">
                    <rect id="Rectangle-Copy-42" x="0" y="0" width="48" height="48"></rect>
                </g>
                <g id="ibm-cloud--secrets-manager" transform="translate(12, 12)">
                    <path d="M15,12 C15,11.475 14.85,10.95 14.55,10.5 L17.025,8.025 L15.975,6.975 L13.5,9.45 C13.05,9.15 12.525,9 12,9 C11.475,9 10.95,9.15 10.5,9.45 L8.025,6.975 L6.975,8.025 L9.45,10.5 C9.15,10.95 9,11.475 9,12 C9,12.525 9.15,13.05 9.45,13.5 L6.975,15.975 L8.025,17.025 L10.5,14.55 C10.95,14.85 11.475,15 12,15 C12.525,15 13.05,14.85 13.5,14.55 L15.975,17.025 L17.025,15.975 L14.55,13.5 C14.85,13.05 15,12.525 15,12 Z M12,13.5 C11.175,13.5 10.5,12.825 10.5,12 C10.5,11.175 11.175,10.5 12,10.5 C12.825,10.5 13.5,11.175 13.5,12 C13.5,12.825 12.825,13.5 12,13.5 Z" id="Shape" fill="#FFFFFF" fill-rule="nonzero"></path>
                    <path d="M19.5,12.75 L24,12.75 L24,11.25 L22.425,11.25 C22.05,5.775 17.55,1.5 12,1.5 C6.225,1.5 1.5,6.225 1.5,12 C1.5,17.775 6.225,22.5 12,22.5 C15.9,22.5 19.275,20.4 21.075,17.25 L19.8,16.5 C18.225,19.2 15.375,21 12,21 C7.05,21 3,16.95 3,12 C3,7.05 7.05,3 12,3 C16.725,3 20.55,6.675 20.925,11.25 L19.5,11.25 L19.5,12.75 Z" id="Path" fill="#FFFFFF" fill-rule="nonzero"></path>
                    <rect id="_x3C_Transparent_Rectangle_x3E__589_" x="0" y="0" width="24" height="24"></rect>
                </g>
            </g>
        </g>
    </g>
</svg>