<?xml version="1.0" encoding="UTF-8"?>
<svg width="48px" height="48px" viewBox="0 0 48 48" version="1.1" xmlns="http://www.w3.org/2000/svg" xmlns:xlink="http://www.w3.org/1999/xlink">
    <title>devices</title>
    <g id="V2-Icons" stroke="none" stroke-width="1" fill="none" fill-rule="evenodd">
        <g id="IBM/Cloud/Actors" transform="translate(-50, -18)">
            <g id="devices" transform="translate(50, 18)">
                <rect id="Rectangle" fill="#000000" x="0" y="0" width="48" height="48" rx="24"></rect>
                <path d="M19.5003175,34.5 L15.0003175,34.5 C14.1718904,34.5 13.5003175,33.8284271 13.5003175,33 L13.5003175,24 C13.5003175,23.1715729 14.1718904,22.5 15.0003175,22.5 L19.5003175,22.5 C20.3287447,22.5 21.0003175,23.1715729 21.0003175,24 L21.0003175,33 C21.0003175,33.8284271 20.3287447,34.5 19.5003175,34.5 Z M15.0003175,24 L15.0003175,33 L19.5003175,33 L19.5003175,24 L15.0003175,24 Z" id="Shape" fill="#FFFFFF" fill-rule="nonzero"></path>
                <path d="M33.0003175,15 L16.5003175,15 C15.6718904,15 15.0003175,15.6715729 15.0003175,16.5 L15.0003175,21 L16.5003175,21 L16.5003175,16.5 L33.0003175,16.5 L33.0003175,27 L22.5003175,27 L22.5003175,28.5 L24.0003175,28.5 L24.0003175,31.5 L22.5003175,31.5 L22.5003175,33 L29.2503175,33 L29.2503175,31.5 L25.5003175,31.5 L25.5003175,28.5 L33.0003175,28.5 C33.8287447,28.5 34.5003175,27.8284271 34.5003175,27 L34.5003175,16.5 C34.5003175,15.6715729 33.8287447,15 33.0003175,15 Z" id="Path" fill="#FFFFFF" fill-rule="nonzero"></path>
                <rect id="_Transparent_Rectangle_" x="12.0003175" y="12" width="24" height="24"></rect>
            </g>
        </g>
    </g>
</svg>