<?xml version="1.0" encoding="UTF-8"?>
<svg width="48px" height="48px" viewBox="0 0 48 48" version="1.1" xmlns="http://www.w3.org/2000/svg" xmlns:xlink="http://www.w3.org/1999/xlink">
    <title>Enterprise</title>
    <g id="V2-Icons" stroke="none" stroke-width="1" fill="none" fill-rule="evenodd">
        <g id="IBM/Cloud/Actors" transform="translate(-420, -18)">
            <g id="Enterprise" transform="translate(420, 18)">
                <rect id="Rectangle-" fill="#000000" x="0" y="0" width="48" height="48" rx="24"></rect>
                <g id="building" transform="translate(12, 12)">
                    <path d="M21,1.5 L12,1.5 C11.1719156,1.50082684 10.5008268,2.17191561 10.5,3 L10.5,10.5 L3,10.5 C2.17191561,10.5008268 1.50082684,11.1719156 1.5,12 L1.5,22.5 L22.5,22.5 L22.5,3 C22.4990494,2.17196695 21.8280331,1.5009506 21,1.5 L21,1.5 Z M6.75,21 L6.75,15.75 L9.75,15.75 L9.75,21 L6.75,21 Z M21,21 L11.25,21 L11.25,15 C11.25,14.5857864 10.9142136,14.25 10.5,14.25 L6,14.25 C5.58578644,14.25 5.25,14.5857864 5.25,15 L5.25,21 L3,21 L3,12 L12,12 L12,3 L21,3 L21,21 Z" id="Shape" fill="#FFFFFF" fill-rule="nonzero"></path>
                    <rect id="Rectangle" fill="#FFFFFF" fill-rule="nonzero" x="13.5" y="6" width="1.5" height="1.5"></rect>
                    <rect id="Rectangle" fill="#FFFFFF" fill-rule="nonzero" x="18" y="6" width="1.5" height="1.5"></rect>
                    <rect id="Rectangle" fill="#FFFFFF" fill-rule="nonzero" x="13.5" y="10.5" width="1.5" height="1.5"></rect>
                    <rect id="Rectangle" fill="#FFFFFF" fill-rule="nonzero" x="18" y="10.5" width="1.5" height="1.5"></rect>
                    <rect id="Rectangle" fill="#FFFFFF" fill-rule="nonzero" x="13.5" y="14.9997" width="1.5" height="1.5"></rect>
                    <rect id="Rectangle" fill="#FFFFFF" fill-rule="nonzero" x="18" y="14.9997" width="1.5" height="1.5"></rect>
                    <rect id="_Transparent_Rectangle_" x="0" y="0" width="24" height="24"></rect>
                </g>
            </g>
        </g>
    </g>
</svg>