<?xml version="1.0" encoding="UTF-8"?>
<svg width="48px" height="48px" viewBox="0 0 48 48" version="1.1" xmlns="http://www.w3.org/2000/svg" xmlns:xlink="http://www.w3.org/1999/xlink">
    <title>laptop</title>
    <g id="V2-Icons" stroke="none" stroke-width="1" fill="none" fill-rule="evenodd">
        <g id="IBM/Cloud/Actors" transform="translate(-112, -18)">
            <g id="laptop" transform="translate(112, 18)">
                <rect id="Rectangle" fill="#000000" x="0" y="0" width="48" height="48" rx="24"></rect>
                <g transform="translate(11.0003, 12)">
                    <path d="M19.5,18.003675 L4.5,18.003675 C3.67196695,18.0027244 3.0009506,17.3317081 3,16.503675 L3,6.003675 C3.00082684,5.17559061 3.67191561,4.50450184 4.5,4.503675 L19.5,4.503675 C20.3280331,4.5046256 20.9990494,5.17564195 21,6.003675 L21,16.503675 C20.9988845,17.3316396 20.3279646,18.0025595 19.5,18.003675 Z M4.5,6.003675 L4.5,16.503675 L19.5,16.503675 L19.5,6.003675 L4.5,6.003675 Z" id="Shape" fill="#FFFFFF" fill-rule="nonzero"></path>
                    <rect id="Rectangle" fill="#FFFFFF" fill-rule="nonzero" x="1.5" y="19.503675" width="21" height="1.5"></rect>
                    <rect id="_Transparent_Rectangle_" x="0" y="0" width="24" height="24"></rect>
                </g>
            </g>
        </g>
    </g>
</svg>