<?xml version="1.0" encoding="UTF-8"?>
<svg width="48px" height="48px" viewBox="0 0 48 48" version="1.1" xmlns="http://www.w3.org/2000/svg" xmlns:xlink="http://www.w3.org/1999/xlink">
    <title>location</title>
    <g id="V2-Icons" stroke="none" stroke-width="1" fill="none" fill-rule="evenodd">
        <g id="IBM/Cloud/Actors" transform="translate(-358, -18)">
            <g id="location" transform="translate(358, 18)">
                <rect id="Rectangle" fill="#000000" x="0" y="0" width="48" height="48" rx="24"></rect>
                <g transform="translate(12.0003, 13)">
                    <path d="M12,13.5 C9.92893219,13.5 8.25,11.8210678 8.25,9.75 C8.25,7.67893219 9.92893219,6 12,6 C14.0710678,6 15.75,7.67893219 15.75,9.75 C15.7476441,11.8200912 14.0700912,13.4976441 12,13.5 Z M12,7.5 C10.7573593,7.5 9.75,8.50735931 9.75,9.75 C9.75,10.9926407 10.7573593,12 12,12 C13.2426407,12 14.25,10.9926407 14.25,9.75 C14.248636,8.50792475 13.2420752,7.50136403 12,7.5 L12,7.5 Z" id="Shape" fill="#FFFFFF" fill-rule="nonzero"></path>
                    <path d="M12,22.5000001 L5.673375,15.038475 C5.63745,14.99565 5.412225,14.69985 5.412225,14.69985 C4.33140114,13.2762611 3.7474668,11.5373945 3.74999179,9.75 C3.74999179,5.19365086 7.44365086,1.50000012 12,1.50000012 C16.5563491,1.50000012 20.2500093,5.19365086 20.2500093,9.75 C20.2526899,11.5366628 19.6691511,13.2748697 18.5889,14.697975 L18.587775,14.69985 C18.587775,14.69985 18.362775,14.99565 18.32925,15.0354 L12,22.5000001 Z M6.609375,13.79625 C6.610125,13.796775 6.784425,14.0274 6.824325,14.07705 L12,20.180925 L17.1825,14.068425 C17.215425,14.027025 17.391225,13.79475 17.3916,13.79415 C18.2745474,12.6309631 18.7517237,11.2103414 18.7499957,9.75 C18.7499957,6.02207794 15.7279221,3 12,3 C8.27207794,3 5.24999569,6.02207794 5.24999569,9.75 C5.24834061,11.2111328 5.72586175,12.6324991 6.609375,13.79625 Z" id="Shape" fill="#FFFFFF" fill-rule="nonzero"></path>
                    <polygon id="_Transparent_Rectangle_" transform="translate(12, 12) rotate(-90) translate(-12, -12)" points="0 -6.78692015e-13 24 -6.78692015e-13 24 24 0 24"></polygon>
                </g>
            </g>
        </g>
    </g>
</svg>