<?xml version="1.0" encoding="UTF-8"?>
<svg width="48px" height="48px" viewBox="0 0 48 48" version="1.1" xmlns="http://www.w3.org/2000/svg" xmlns:xlink="http://www.w3.org/1999/xlink">
    <title>mobile</title>
    <g id="V2-Icons" stroke="none" stroke-width="1" fill="none" fill-rule="evenodd">
        <g id="IBM/Cloud/Actors" transform="translate(-173, -18)">
            <g id="mobile" transform="translate(173, 18)">
                <rect id="Rectangle-" fill="#000000" x="0" y="0" width="48" height="48" rx="24"></rect>
                <g transform="translate(12.0003, 12)">
                    <path d="M16.5,3 L7.5,3 C6.67191561,3.00082684 6.00082684,3.67191561 6,4.5 L6,21 C6.0009506,21.8280331 6.67196695,22.4990494 7.5,22.5 L16.5,22.5 C17.3279646,22.4988845 17.9988845,21.8279646 18,21 L18,4.5 C17.9990494,3.67196695 17.3280331,3.0009506 16.5,3 L16.5,3 Z M16.5,4.5 L16.5,6 L7.5,6 L7.5,4.5 L16.5,4.5 Z M7.5,21 L7.5,7.5 L16.5,7.5 L16.5,21 L7.5,21 Z" id="Shape" fill="#FFFFFF" fill-rule="nonzero"></path>
                    <rect id="_Transparent_Rectangle_" x="0" y="0" width="24" height="24"></rect>
                </g>
            </g>
        </g>
    </g>
</svg>