<?xml version="1.0" encoding="UTF-8"?>
<svg width="48px" height="48px" viewBox="0 0 48 48" version="1.1" xmlns="http://www.w3.org/2000/svg" xmlns:xlink="http://www.w3.org/1999/xlink">
    <title>Service ID</title>
    <g id="V2-Icons" stroke="none" stroke-width="1" fill="none" fill-rule="evenodd">
        <g id="IBM/Cloud/Actors" transform="translate(-819, -18)">
            <g id="Service-ID" transform="translate(819, 18)">
                <rect id="Rectangle-Copy-21" fill="#000000" x="0" y="0" width="48" height="48" rx="24"></rect>
                <g id="service-id" transform="translate(12, 12)">
                    <path d="M22.5,18 L22.5,16.5 L20.92425,16.5 C20.82675,16.02225 20.63625,15.57825 20.37525,15.18525 L21.49275,14.06775 L20.43225,13.00725 L19.31475,14.12475 C18.92175,13.86375 18.47775,13.67325 18,13.57575 L18,12 L16.5,12 L16.5,13.57575 C16.02225,13.67325 15.57825,13.86375 15.18525,14.12475 L14.06775,13.00725 L13.00725,14.06775 L14.12475,15.18525 C13.86375,15.57825 13.67325,16.02225 13.57575,16.5 L12,16.5 L12,18 L13.57575,18 C13.67325,18.47775 13.86375,18.92175 14.12475,19.31475 L13.00725,20.43225 L14.06775,21.49275 L15.18525,20.37525 C15.57825,20.63625 16.02225,20.82675 16.5,20.92425 L16.5,22.5 L18,22.5 L18,20.92425 C18.47775,20.82675 18.92175,20.63625 19.31475,20.37525 L20.43225,21.49275 L21.49275,20.43225 L20.37525,19.31475 C20.63625,18.92175 20.82675,18.47775 20.92425,18 L22.5,18 Z M17.25,19.5 C16.0095,19.5 15,18.4905 15,17.25 C15,16.0095 16.0095,15 17.25,15 C18.4905,15 19.5,16.0095 19.5,17.25 C19.5,18.4905 18.4905,19.5 17.25,19.5 Z" id="Shape" fill="#FFFFFF" fill-rule="nonzero"></path>
                    <path d="M4.5,21 L4.5,3 L16.5,3 L16.5,9.75 L18,9.75 L18,3 C18,2.17275 17.32725,1.5 16.5,1.5 L4.5,1.5 C3.67275,1.5 3,2.17275 3,3 L3,21 C3,21.82725 3.67275,22.5 4.5,22.5 L10.5,22.5 L10.5,21 L4.5,21 Z" id="Path" fill="#FFFFFF" fill-rule="nonzero"></path>
                    <rect id="_x3C_Transparent_Rectangle_x3E__589_" x="0" y="0" width="24" height="24"></rect>
                </g>
            </g>
        </g>
    </g>
</svg>