<?xml version="1.0" encoding="UTF-8"?>
<svg width="48px" height="48px" viewBox="0 0 48 48" version="1.1" xmlns="http://www.w3.org/2000/svg" xmlns:xlink="http://www.w3.org/1999/xlink">
    <title>User collaborate</title>
    <g id="V2-Icons" stroke="none" stroke-width="1" fill="none" fill-rule="evenodd">
        <g id="IBM/Cloud/Actors" transform="translate(-549, -18)">
            <g id="User-collaborate" transform="translate(549, 18)">
                <rect id="Rectangle-Copy-8" fill="#000000" x="0" y="0" width="48" height="48" rx="24"></rect>
                <g id="collaborate" transform="translate(12, 12)">
                    <path d="M4.5,15.75 L4.5,15 L3,15 L3,15.75 C3,18.6494949 5.35050506,21 8.25,21 L10.5,21 L10.5,19.5 L8.25,19.5 C6.17893219,19.5 4.5,17.8210678 4.5,15.75 Z" id="Path" fill="#FFFFFF" fill-rule="nonzero"></path>
                    <path d="M18,8.25 L18,9 L19.5,9 L19.5,8.25 C19.5,5.35050506 17.1494949,3 14.25,3 L12,3 L12,4.5 L14.25,4.5 C15.2445618,4.5 16.198389,4.89508815 16.9016504,5.59834957 C17.6049118,6.30161099 18,7.25543816 18,8.25 L18,8.25 Z" id="Path" fill="#FFFFFF" fill-rule="nonzero"></path>
                    <path d="M8.25,8.25 L3.75,8.25 C2.50735931,8.25 1.5,9.25735931 1.5,10.5 L1.5,12 L3,12 L3,10.5 C3,10.0857864 3.33578644,9.75 3.75,9.75 L8.25,9.75 C8.66421356,9.75 9,10.0857864 9,10.5 L9,12 L10.5,12 L10.5,10.5 C10.5,9.25735931 9.49264069,8.25 8.25,8.25 L8.25,8.25 Z" id="Path" fill="#FFFFFF" fill-rule="nonzero"></path>
                    <path d="M6,7.5 C7.65685425,7.5 9,6.15685425 9,4.5 C9,2.84314575 7.65685425,1.5 6,1.5 C4.34314575,1.5 3,2.84314575 3,4.5 C3,6.15685425 4.34314575,7.5 6,7.5 Z M6,3 C6.82842712,3 7.5,3.67157288 7.5,4.5 C7.5,5.32842712 6.82842712,6 6,6 C5.17157288,6 4.5,5.32842712 4.5,4.5 C4.5,3.67157288 5.17157288,3 6,3 Z" id="Shape" fill="#FFFFFF" fill-rule="nonzero"></path>
                    <path d="M20.25,18.75 L15.75,18.75 C14.5073593,18.75 13.5,19.7573593 13.5,21 L13.5,22.5 L15,22.5 L15,21 C15,20.5857864 15.3357864,20.25 15.75,20.25 L20.25,20.25 C20.6642136,20.25 21,20.5857864 21,21 L21,22.5 L22.5,22.5 L22.5,21 C22.5,19.7573593 21.4926407,18.75 20.25,18.75 L20.25,18.75 Z" id="Path" fill="#FFFFFF" fill-rule="nonzero"></path>
                    <path d="M15,15 C15,16.6568542 16.3431458,18 18,18 C19.6568542,18 21,16.6568542 21,15 C21,13.3431458 19.6568542,12 18,12 C16.3431458,12 15,13.3431458 15,15 Z M19.5,15 C19.5,15.8284271 18.8284271,16.5 18,16.5 C17.1715729,16.5 16.5,15.8284271 16.5,15 C16.5,14.1715729 17.1715729,13.5 18,13.5 C18.8284271,13.5 19.5,14.1715729 19.5,15 Z" id="Shape" fill="#FFFFFF" fill-rule="nonzero"></path>
                    <rect id="_Transparent_Rectangle_" x="0" y="0" width="24" height="24"></rect>
                </g>
            </g>
        </g>
    </g>
</svg>