<?xml version="1.0" encoding="UTF-8"?>
<svg width="75px" height="75px" viewBox="0 0 75 75" version="1.1" xmlns="http://www.w3.org/2000/svg" xmlns:xlink="http://www.w3.org/1999/xlink">
    <!-- Generator: Sketch 53 (72520) - https://sketchapp.com -->
    <title>Group 2</title>
    <desc>Created with Sketch.</desc>
    <g id="Page-1" stroke="none" stroke-width="1" fill="none" fill-rule="evenodd">
        <g id="Logos-with-Names" transform="translate(-88.000000, -720.000000)">
            <g id="Group-2" transform="translate(89.000000, 720.616029)">
                <g id="Group-5">
                    <path d="M73.1074,37.1035 C73.1074,57.2435 56.7814,73.5695 36.6414,73.5695 C16.5024,73.5695 0.1764,57.2435 0.1764,37.1035 C0.1764,16.9635 16.5024,0.6375 36.6414,0.6375 C56.7814,0.6375 73.1074,16.9635 73.1074,37.1035" id="Fill-1" fill="#FFFFFF"></path>
                    <path d="M73.1074,37.1035 C73.1074,57.2435 56.7814,73.5695 36.6414,73.5695 C16.5024,73.5695 0.1764,57.2435 0.1764,37.1035 C0.1764,16.9635 16.5024,0.6375 36.6414,0.6375 C56.7814,0.6375 73.1074,16.9635 73.1074,37.1035 Z" id="Stroke-3" stroke="#040201"></path>
                </g>
                <path d="M27.5015,12.5488 C25.9825,12.0748 24.3825,12.8278 23.5465,14.4088 C25.9055,13.8568 28.3465,14.6478 30.1445,16.5478 C30.0975,14.6688 29.0255,13.0458 27.5015,12.5488" id="Fill-7" fill="#CEA705"></path>
                <path d="M30.8628,22.4727 C30.8398,19.5417 29.0368,17.0627 26.6028,16.6127 C24.3018,15.5617 21.6998,16.6477 20.4548,19.1787 L14.7028,30.3007 C14.3008,30.5607 13.9108,30.8467 13.5338,31.1567 C19.3078,26.5537 27.1238,28.3917 30.9918,35.2607 C31.2978,35.8027 31.5718,36.3687 31.8158,36.9527 C31.6158,36.4607 31.3938,35.9837 31.1508,35.5197 L30.8628,22.4727 Z" id="Fill-8" fill="#EFC100"></path>
                <path d="M13.71,41.2109 C14.738,36.6469 18.681,33.9389 22.516,35.1609 C26.352,36.3849 28.628,41.0749 27.601,45.6399 C26.573,50.2029 22.63,52.9119 18.794,51.6899 C14.959,50.4659 12.682,45.7749 13.71,41.2109" id="Fill-9" fill="#FFFFFF"></path>
                <path d="M22.8096,33.1455 C18.0146,31.6215 13.0876,35.0105 11.8066,40.7165 C10.5246,46.4225 13.3736,52.2845 18.1686,53.8095 C22.9646,55.3335 27.8916,51.9445 29.1726,46.2385 C29.1726,46.2375 29.1726,46.2365 29.1736,46.2355 C30.4536,40.5305 27.6046,34.6695 22.8096,33.1455 M22.3426,35.2845 C26.1786,36.5075 28.4536,41.2005 27.4256,45.7635 C26.3966,50.3275 22.4546,53.0355 18.6186,51.8115 C14.7846,50.5885 12.5086,45.9005 13.5346,41.3375 C14.5606,36.7735 18.5016,34.0625 22.3386,35.2835 C22.3396,35.2845 22.3406,35.2845 22.3426,35.2845" id="Fill-10" fill="#152934"></path>
                <path d="M45.9448,12.5488 C47.4628,12.0748 49.0638,12.8278 49.8998,14.4088 C47.5398,13.8568 45.0998,14.6478 43.3018,16.5478 C43.3488,14.6688 44.4208,13.0458 45.9448,12.5488 M18.2258,53.8708 C13.4298,52.3478 10.5798,46.4868 11.8598,40.7798 C13.1398,35.0738 18.0658,31.6828 22.8618,33.2058 C27.6578,34.7298 30.5078,40.5898 29.2278,46.2968 C29.2278,46.2978 29.2278,46.2988 29.2268,46.2998 C27.9458,52.0048 23.0208,55.3948 18.2258,53.8708 M23.3308,31.1348 C17.5748,29.3098 11.6658,33.3808 10.1318,40.2298 C8.5968,47.0768 12.0188,54.1098 17.7738,55.9358 C23.5248,57.7598 29.4308,53.6958 30.9708,46.8558 C32.5118,40.0098 29.0968,32.9728 23.3428,31.1388 C23.3398,31.1378 23.3348,31.1368 23.3308,31.1348" id="Fill-11" fill="#CEA705"></path>
                <path d="M42.583,22.4727 C42.607,19.5417 44.409,17.0627 46.843,16.6127 C49.145,15.5617 51.747,16.6477 52.991,19.1787 L58.726,30.3227 C59.127,30.5817 59.518,30.8687 59.894,31.1777 C54.118,26.5797 46.303,28.4227 42.438,35.2957 C42.14,35.8267 41.87,36.3807 41.63,36.9527 C41.83,36.4607 42.052,35.9837 42.295,35.5197 L42.583,22.4727 Z" id="Fill-12" fill="#EFC100"></path>
                <path d="M51.041,35.2725 C54.877,34.0525 58.819,36.7645 59.844,41.3295 C60.869,45.8945 58.59,50.5845 54.753,51.8035 C50.917,53.0235 46.976,50.3115 45.951,45.7475 C44.925,41.1815 47.205,36.4925 51.041,35.2725" id="Fill-13" fill="#FFFFFF"></path>
                <path d="M50.6362,33.1455 C45.8302,34.6245 42.9422,40.4575 44.1842,46.1765 C45.4272,51.8945 50.3302,55.3325 55.1362,53.8535 C59.9422,52.3745 62.8302,46.5415 61.5882,40.8225 C61.5862,40.8165 61.5852,40.8095 61.5832,40.8025 C60.3022,35.0975 55.3772,31.7085 50.5822,33.2315 L50.6362,33.1455 Z M51.1032,35.2845 C54.9402,34.0635 58.8822,36.7745 59.9072,41.3385 C60.9332,45.9035 58.6562,50.5935 54.8192,51.8145 C50.9852,53.0355 47.0442,50.3275 46.0162,45.7645 C44.9882,41.2015 47.2632,36.5095 51.0992,35.2865 C51.1012,35.2855 51.1022,35.2855 51.1032,35.2845 L51.1032,35.2845 Z" id="Fill-14" fill="#152934"></path>
                <path d="M44.2729,46.2998 C42.9909,40.5938 45.8399,34.7318 50.6359,33.2068 C55.4309,31.6828 60.3579,35.0708 61.6389,40.7778 C62.9209,46.4838 60.0719,52.3458 55.2759,53.8698 C55.2759,53.8708 55.2749,53.8708 55.2739,53.8708 C50.4849,55.4278 45.5439,52.0708 44.2349,46.3728 C44.2299,46.3488 44.2239,46.3238 44.2189,46.2998 L44.2729,46.2998 Z M42.4749,46.8558 C44.0169,53.7018 49.9299,57.7658 55.6839,55.9318 C61.4379,54.0978 64.8529,47.0608 63.3119,40.2148 C61.7719,33.3738 55.8659,29.3108 50.1149,31.1348 C44.3589,32.9608 40.9379,39.9928 42.4719,46.8408 L42.4749,46.8558 Z" id="Fill-15" fill="#CEA705"></path>
                <path d="M55.5615,55.9463 C49.8065,57.7713 43.8955,53.7003 42.3615,46.8513 C40.8275,40.0043 44.2485,32.9713 50.0045,31.1453 C55.7555,29.3213 61.6615,33.3843 63.2015,40.2253 C64.7525,47.0323 61.3965,54.0523 55.6875,55.9463 L55.5615,55.9463 Z M32.6785,37.3593 L32.6785,35.4563 C33.8975,34.6843 35.2525,34.2663 36.6335,34.2363 C38.0075,34.2693 39.3565,34.6873 40.5695,35.4563 L40.5695,37.3593 C39.3515,36.7473 38.0455,36.4133 36.7235,36.3753 C35.3755,36.4023 34.0455,36.7363 32.8045,37.3593 L32.6785,37.3593 Z M30.8805,46.8553 C29.3395,53.7023 23.4255,57.7653 17.6715,55.9313 C11.9175,54.0973 8.5035,47.0603 10.0445,40.2153 C11.5845,33.3743 17.4905,29.3103 23.2415,31.1343 C29.0085,32.9063 32.4785,39.9043 30.9905,46.7673 C30.9835,46.7973 30.9775,46.8263 30.9705,46.8553 L30.8805,46.8553 Z M14.7025,30.3003 L20.4365,19.1573 C21.6815,16.6273 24.2835,15.5403 26.5845,16.5913 C29.0185,17.0413 30.8215,19.5203 30.8445,22.4513 L31.1325,35.4983 C27.5935,28.9243 20.4015,26.6893 14.6125,30.3653 L14.7025,30.3003 Z M27.5015,12.5493 C29.0125,13.0413 30.0825,14.6423 30.1445,16.5063 C28.3465,14.6053 25.9055,13.8133 23.5465,14.3663 C24.3925,12.8013 25.9915,12.0673 27.5015,12.5493 L27.5015,12.5493 Z M36.7235,27.8203 C38.1305,27.8533 39.5105,28.2863 40.7495,29.0823 L40.7495,33.0823 C38.2125,31.7533 35.3235,31.7533 32.7865,33.0823 L32.7865,29.0823 C33.9955,28.2953 35.3455,27.8623 36.7235,27.8203 L36.7235,27.8203 Z M42.3495,35.5193 L42.6375,22.4723 C42.6605,19.5423 44.4635,17.0623 46.8975,16.6123 C49.1985,15.5613 51.8005,16.6473 53.0445,19.1783 L58.7795,30.3223 C52.9455,26.6163 45.6975,28.9153 42.1875,35.5843 L42.3495,35.5193 Z M45.9445,12.5493 C47.4625,12.0753 49.0635,12.8283 49.8995,14.4093 C47.5405,13.8563 45.0995,14.6473 43.3025,16.5483 C43.3485,14.6693 44.4205,13.0463 45.9445,12.5493 L45.9445,12.5493 Z M65.0525,39.6693 C64.5845,37.6083 63.7505,35.6903 62.6085,34.0443 C62.2125,33.3383 61.8175,32.6333 61.4575,31.9053 L54.6985,18.5583 C54.0835,17.3023 53.2195,16.2453 52.1825,15.4783 L52.0745,15.0083 C51.3055,11.5833 48.3475,9.5483 45.4685,10.4633 C42.5895,11.3793 40.8785,14.8973 41.6485,18.3233 L41.7565,18.7943 C41.1675,20.0743 40.8535,21.5063 40.8395,22.9653 L40.8395,26.7513 C38.2195,25.5433 35.3155,25.5433 32.6965,26.7513 L32.6965,22.9653 C32.6825,21.5063 32.3685,20.0743 31.7795,18.7943 L31.8875,18.3233 C32.6565,14.8973 30.9465,11.3793 28.0675,10.4633 C25.1885,9.5483 22.2305,11.5833 21.4615,15.0083 L21.3535,15.4783 C20.2835,16.2313 19.3875,17.2903 18.7475,18.5583 L11.9885,31.9693 C11.6285,32.6533 11.2335,33.3383 10.8375,34.1083 C6.4055,40.4763 7.1515,49.9153 12.5045,55.1883 C17.8565,60.4623 25.7895,59.5743 30.2215,53.2063 C31.3865,51.5323 32.2305,49.5773 32.6965,47.4753 C33.1635,45.3833 33.2435,43.1933 32.9305,41.0593 L32.9305,39.6903 C35.3705,38.3453 38.1835,38.3453 40.6235,39.6903 L40.6235,41.0593 C39.4545,49.2103 44.0595,56.9463 50.9105,58.3373 C57.7605,59.7283 64.2615,54.2493 65.4315,46.0983 C65.7365,43.9663 65.6505,41.7793 65.1785,39.6903 L65.0525,39.6693 Z" id="Fill-16" fill="#152934"></path>
                <path d="M32.7861,35.4561 L32.7861,37.3591 C34.0331,36.7331 35.3691,36.3991 36.7231,36.3751 C38.0571,36.4001 39.3741,36.7271 40.6061,37.3381 L40.6061,35.4351 C39.4071,34.6831 38.0781,34.2721 36.7231,34.2361 C35.3491,34.2701 34.0001,34.6871 32.7861,35.4561 L32.7861,35.4561 Z M40.6961,33.1021 L40.6961,29.1031 C39.4741,28.3101 38.1141,27.8701 36.7231,27.8201 C35.3081,27.8421 33.9201,28.2741 32.6781,29.0821 L32.6781,33.0821 C35.2151,31.7531 38.1041,31.7531 40.6411,33.0821 L40.6961,33.1021 Z" id="Fill-17" fill="#CEA705"></path>
            </g>
        </g>
    </g>
</svg>