<?xml version="1.0" encoding="UTF-8"?>
<svg width="75px" height="74px" viewBox="0 0 75 74" version="1.1" xmlns="http://www.w3.org/2000/svg" xmlns:xlink="http://www.w3.org/1999/xlink">
    <!-- Generator: Sketch 53 (72520) - https://sketchapp.com -->
    <title>Group 11</title>
    <desc>Created with Sketch.</desc>
    <g id="Page-1" stroke="none" stroke-width="1" fill="none" fill-rule="evenodd">
        <g id="Logos-with-Names" transform="translate(-790.000000, -430.000000)">
            <g id="Group-11" transform="translate(790.500000, 430.161323)">
                <path d="M73.1684,36.8337 C73.1684,56.9007 56.9004,73.1687 36.8344,73.1687 C16.7674,73.1687 0.5004,56.9007 0.5004,36.8337 C0.5004,16.7677 16.7674,0.4997 36.8344,0.4997 C56.9004,0.4997 73.1684,16.7677 73.1684,36.8337" id="Fill-1" fill="#FFFFFF"></path>
                <path d="M73.1684,36.8337 C73.1684,56.9007 56.9004,73.1687 36.8344,73.1687 C16.7674,73.1687 0.5004,56.9007 0.5004,36.8337 C0.5004,16.7677 16.7674,0.4997 36.8344,0.4997 C56.9004,0.4997 73.1684,16.7677 73.1684,36.8337 Z" id="Stroke-3" stroke="#040201"></path>
                <path d="M17.5293,35.7878 C17.0933,34.0358 16.4403,30.9048 15.7773,28.2098 C15.3413,30.1058 14.3153,33.9638 13.8073,35.7878 L17.5293,35.7878 Z M12.6463,40.0808 L11.5573,44.9638 C11.5573,45.1088 11.4123,45.1818 11.2673,45.1818 L6.0213,45.1818 C5.9483,45.1818 5.8033,45.1088 5.8033,45.0358 C5.7303,44.9638 5.7303,44.8918 5.7303,44.8178 L12.6463,23.8338 C12.6463,23.8338 12.7913,23.4718 13.2263,23.3258 C14.7613,23.0358 17.1553,22.6728 18.8353,22.3828 C19.1983,22.3098 19.3433,22.6728 19.3433,22.6728 L26.1133,44.9638 C26.1133,45.0358 26.1133,45.1088 26.0413,45.1818 C25.9683,45.2538 25.8963,45.2538 25.8233,45.2538 L22.7653,45.2538 C21.9663,45.2538 20.3603,45.3268 19.7793,45.3268 C19.6333,45.3268 19.4883,45.2538 19.4883,45.1088 L18.4003,40.1528 L12.6463,40.0808 Z" id="Fill-6" fill="#0173CF"></path>
                <path d="M33.0498,30.6149 C36.7618,28.0639 39.8928,28.6439 41.4268,30.1789 C43.2518,32.0769 42.2258,34.5539 42.8058,44.9639 C42.8058,45.0359 42.8058,45.1089 42.7338,45.1809 C42.6608,45.2539 42.5888,45.2539 42.5158,45.2539 C41.9348,45.2539 40.8358,45.1809 40.3278,45.1809 C39.4568,45.1809 37.6328,45.2539 36.9068,45.2539 C36.8338,45.2539 36.7618,45.2539 36.6888,45.1809 C36.6158,45.1089 36.6158,45.0359 36.6158,44.9639 C36.6888,34.7609 36.7618,33.3829 34.9368,33.3829 C34.2838,33.3829 33.7758,33.6739 33.1848,33.8909 C33.1848,39.1369 33.2578,40.6609 33.4748,44.8909 C33.4748,44.9639 33.4748,45.0359 33.4028,45.0359 C33.3298,45.1089 33.2578,45.1089 33.2578,45.1089 L27.4308,45.1809 C27.3578,45.1809 27.2848,45.1809 27.2848,45.1089 C27.2128,45.0359 27.2128,44.9639 27.2128,44.9639 C27.3578,29.7439 27.2128,26.6129 26.7778,23.3979 C26.5598,23.2539 26.8498,23.2539 26.8498,23.2539 C29.4728,22.8899 29.6908,22.8179 32.6768,22.2369 C32.6768,22.2369 32.9668,22.2369 32.9668,22.5999 C33.0498,24.8599 33.0498,30.6149 33.0498,30.6149" id="Fill-7" fill="#0173CF"></path>
                <path d="M52.8627,37.6022 C51.4837,37.7482 49.3687,37.8932 49.3687,39.7172 C49.3687,41.3252 51.1207,41.8322 52.8627,40.7342 L52.8627,37.6022 Z M53.0077,43.6472 C51.9197,44.4452 49.8037,45.5442 48.0517,45.5442 C45.3567,45.5442 43.6767,43.5742 43.6767,40.6612 C43.6767,36.1402 48.9957,34.8342 52.7797,34.3262 C52.8527,33.6002 52.8527,32.7912 50.9547,32.7912 C49.0577,32.7912 47.4607,33.3732 45.7817,34.0262 C45.7087,34.0982 45.5637,34.0262 45.4907,34.0262 C45.4187,33.9532 45.3457,33.8802 45.3457,33.7352 L45.4907,30.2412 C45.4907,30.0962 45.5637,30.0242 45.7087,29.9512 C49.1307,28.9352 54.9567,28.1262 57.3627,30.3862 C58.8967,31.7652 58.8237,33.5172 58.7407,36.4312 C58.6687,40.6512 58.7407,41.8222 58.9587,44.9542 C58.9587,45.0262 58.9587,45.0982 58.8867,45.1702 C58.8137,45.2442 58.7407,45.2442 58.6687,45.2442 L53.2777,45.3162 C53.2047,45.3162 53.1327,45.3162 53.0597,45.2442 C52.9877,45.1702 52.9877,45.0982 52.9877,45.0262 L52.9877,43.6472 L53.0077,43.6472 Z" id="Fill-8" fill="#0173CF"></path>
                <path d="M62.6191,37.6755 C62.4731,37.6755 62.3281,37.5295 62.3281,37.3845 C61.9661,29.4435 61.8931,28.5715 61.4571,23.6155 C61.4571,23.4715 61.5301,23.3255 61.7481,23.2535 L67.5751,22.3105 C67.6471,22.3105 67.7921,22.3105 67.8651,22.3825 C67.9371,22.4545 67.9371,22.5285 67.9371,22.6725 C67.5751,26.2385 67.2121,33.0205 67.1391,37.3125 C67.1391,37.4575 66.9941,37.6025 66.8491,37.6025 L62.6191,37.6755 Z" id="Fill-9" fill="#0173CF"></path>
                <path d="M61.603,44.445 L61.603,44.373 C61.603,43.387 61.624,42.372 61.634,41.491 C61.634,41.117 61.624,40.796 61.603,40.516 C61.603,40.464 61.603,40.412 61.624,40.371 C61.624,40.194 61.613,40.018 61.603,39.873 C61.603,39.8 61.603,39.728 61.675,39.655 C61.748,39.583 61.821,39.583 61.893,39.583 C63.365,39.728 65.947,39.655 67.129,39.51 C67.202,39.51 67.274,39.51 67.347,39.583 C67.419,39.655 67.419,39.728 67.419,39.8 L67.419,40.382 L67.419,40.454 L67.419,44.974 C67.419,45.047 67.419,45.119 67.347,45.192 C67.274,45.264 67.202,45.264 67.129,45.264 C65.014,45.192 63.707,45.192 61.883,45.337 C61.81,45.337 61.738,45.337 61.665,45.264 C61.593,45.192 61.593,45.119 61.593,45.047 C61.603,44.84 61.603,44.642 61.603,44.445" id="Fill-10" fill="#0173CF"></path>
            </g>
        </g>
    </g>
</svg>