<?xml version="1.0" encoding="UTF-8"?>
<svg width="74px" height="74px" viewBox="0 0 74 74" version="1.1" xmlns="http://www.w3.org/2000/svg" xmlns:xlink="http://www.w3.org/1999/xlink">
    <!-- Generator: Sketch 53 (72520) - https://sketchapp.com -->
    <title>Group 16</title>
    <desc>Created with Sketch.</desc>
    <g id="Page-1" stroke="none" stroke-width="1" fill="none" fill-rule="evenodd">
        <g id="Logos-with-Names" transform="translate(-86.000000, -52.000000)">
            <g id="Group-16" transform="translate(86.000000, 52.000000)">
                <path d="M73.0071,36.7535 C73.0071,56.7755 56.7761,73.0065 36.7541,73.0065 C16.7311,73.0065 0.5001,56.7755 0.5001,36.7535 C0.5001,16.7315 16.7311,0.5005 36.7541,0.5005 C56.7761,0.5005 73.0071,16.7315 73.0071,36.7535" id="Fill-1" fill="#FFFFFF"></path>
                <path d="M73.0071,36.7535 C73.0071,56.7755 56.7761,73.0065 36.7541,73.0065 C16.7311,73.0065 0.5001,56.7755 0.5001,36.7535 C0.5001,16.7315 16.7311,0.5005 36.7541,0.5005 C56.7761,0.5005 73.0071,16.7315 73.0071,36.7535 Z" id="Stroke-3" stroke="#040201"></path>
                <path d="M18.7143,47.607 C14.7993,48.896 7.7313,47.894 4.8353,40.22 C2.5603,34.19 5.0303,28.367 8.8783,24.378 C9.9743,23.243 11.2523,22.342 12.3693,21.724 C13.9813,20.835 15.4843,20.434 17.2333,20.149 C19.2133,19.826 21.9273,19.643 24.8173,20.931 C21.4443,20.683 18.9653,20.533 16.4343,21.277 C14.1923,21.941 12.4263,23.197 10.7353,25.243 C8.2793,28.213 6.6673,32.733 8.9013,38.235 C11.7323,45.223 18.7143,47.607 18.7143,47.607" id="Fill-6" fill="#0C94D2"></path>
                <path d="M11.9436,36.4688 C11.2326,31.9438 12.1396,29.7668 15.5786,27.4318 C19.5826,24.7148 25.1806,25.7908 27.6536,27.6528 C29.8526,29.3038 31.1796,31.1488 30.8416,33.8528 C29.1506,30.4748 27.5226,29.7298 25.4496,28.9508 C22.3076,27.7668 19.0866,27.7428 16.7286,29.0768 C14.3366,30.4328 12.1006,32.4508 11.9436,36.4688" id="Fill-7" fill="#0C94D2"></path>
                <path d="M21.9607,30.5211 C23.2477,29.7301 26.0717,29.6191 27.5437,30.7021 C29.0137,31.7861 29.3067,33.6551 29.0347,34.6701 C27.5367,32.5911 27.6297,32.5331 26.3837,31.7841 C25.1317,31.0321 23.6497,30.4961 21.9607,30.5211" id="Fill-8" fill="#0C94D2"></path>
                <path d="M19.7392,21.796 C14.2842,22.77 10.1482,28.381 9.8092,32.626 C9.4992,36.478 10.2652,38.466 12.6492,41.343 L12.7072,41.362 C11.5252,39.51 10.3022,35.799 10.8742,33.008 C11.5642,29.638 13.6522,25.541 20.1062,24.605 C25.9632,23.756 28.5852,25.24 31.5702,27.788 C30.1752,23.555 25.1912,20.823 19.7392,21.796" id="Fill-9" fill="#0C94D2"></path>
                <path d="M24.8159,43.4195 L24.9679,45.1725 L27.7419,45.1725 L26.8099,34.9865 L22.6789,34.9865 L17.4589,45.1725 L20.2859,45.1725 L21.1589,43.4195 L24.8159,43.4195 Z M24.6929,41.4355 L22.1649,41.4355 L24.3389,37.0215 L24.3649,37.0215 L24.6929,41.4355 Z" id="Fill-10" fill="#080201"></path>
                <polygon id="Fill-11" fill="#080201" points="31.6064 40.7149 32.0124 40.7149 33.9964 38.0389 36.5654 38.0389 33.8234 41.4639 35.5074 45.1729 32.7794 45.1729 31.6844 42.2779 31.2734 42.2779 30.6594 45.1729 28.3244 45.1729 30.4864 34.9859 32.8234 34.9859"></polygon>
                <path d="M40.8083,45.1725 L43.1433,45.1725 L44.0893,40.7145 C44.6103,38.2585 43.6683,37.9585 41.2803,37.9585 C39.6103,37.9585 37.9963,37.9445 37.5253,40.1595 L39.8623,40.1595 C39.9943,39.5195 40.3913,39.3845 40.9763,39.3845 C41.9943,39.3845 41.9483,39.8055 41.8043,40.4715 L41.5693,41.5975 L41.4583,41.5975 C41.3723,40.7855 40.3493,40.7975 39.6833,40.7975 C37.9993,40.7975 36.9923,41.3275 36.6263,43.0395 C36.2423,44.8575 37.1083,45.2525 38.7353,45.2525 C39.5533,45.2525 40.6473,45.0905 41.0303,44.1115 L41.1133,44.1115 L40.8083,45.1725 Z M40.1583,42.2255 C40.9183,42.2255 41.4203,42.2785 41.2943,42.8775 C41.1353,43.6225 40.8133,43.7455 39.8293,43.7455 C39.4783,43.7455 38.8153,43.7455 38.9773,42.9695 C39.1183,42.3185 39.5843,42.2255 40.1583,42.2255 L40.1583,42.2255 Z" id="Fill-12" fill="#080201"></path>
                <path d="M48.458,38.0392 L48.248,39.0452 L48.343,39.0452 C48.804,38.2042 49.729,37.9582 50.528,37.9582 C51.534,37.9582 52.527,38.1342 52.391,39.3572 L52.498,39.3572 C52.839,38.3402 53.883,37.9582 54.779,37.9582 C56.421,37.9582 57.123,38.6392 56.77,40.2962 L55.732,45.1722 L53.396,45.1722 L54.274,41.0412 C54.392,40.2962 54.521,39.7502 53.611,39.7502 C52.704,39.7502 52.397,40.3602 52.236,41.1232 L51.371,45.1722 L49.036,45.1722 L49.954,40.8522 C50.067,40.2002 50.121,39.7502 49.307,39.7502 C48.343,39.7502 48.054,40.2682 47.876,41.1232 L47.012,45.1722 L44.678,45.1722 L46.192,38.0392 L48.458,38.0392" id="Fill-13" fill="#080201"></path>
                <path d="M61.696,45.1725 L64.034,45.1725 L64.976,40.7145 C65.502,38.2585 64.56,37.9585 62.17,37.9585 C60.499,37.9585 58.883,37.9445 58.414,40.1595 L60.749,40.1595 C60.884,39.5195 61.282,39.3845 61.866,39.3845 C62.886,39.3845 62.835,39.8055 62.694,40.4715 L62.454,41.5975 L62.349,41.5975 C62.261,40.7855 61.24,40.7975 60.573,40.7975 C58.889,40.7975 57.88,41.3275 57.517,43.0395 C57.13,44.8575 57.995,45.2525 59.627,45.2525 C60.443,45.2525 61.537,45.0905 61.921,44.1115 L62.002,44.1115 L61.696,45.1725 Z M61.045,42.2255 C61.804,42.2255 62.31,42.2785 62.184,42.8775 C62.026,43.6225 61.702,43.7455 60.723,43.7455 C60.37,43.7455 59.704,43.7455 59.868,42.9695 C60.008,42.3185 60.472,42.2255 61.045,42.2255 L61.045,42.2255 Z" id="Fill-14" fill="#080201"></path>
                <path d="M69.4824,36.7765 L67.1484,36.7765 L67.5264,34.9865 L69.8624,34.9865 L69.4824,36.7765 Z M67.6994,45.1725 L65.3644,45.1725 L66.8754,38.0395 L69.2134,38.0395 L67.6994,45.1725 Z" id="Fill-15" fill="#080201"></path>
            </g>
        </g>
    </g>
</svg>