<?xml version="1.0" encoding="UTF-8"?>
<svg width="74px" height="74px" viewBox="0 0 74 74" version="1.1" xmlns="http://www.w3.org/2000/svg" xmlns:xlink="http://www.w3.org/1999/xlink">
    <!-- Generator: Sketch 53 (72520) - https://sketchapp.com -->
    <title>Group 9</title>
    <desc>Created with Sketch.</desc>
    <g id="Page-1" stroke="none" stroke-width="1" fill="none" fill-rule="evenodd">
        <g id="Logos-with-Names" transform="translate(-92.000000, -811.000000)">
            <g id="Group-9" transform="translate(92.000000, 811.131043)">
                <path d="M72.9716,36.7354 C72.9716,56.7484 56.7486,72.9714 36.7356,72.9714 C16.7236,72.9714 0.4996,56.7484 0.4996,36.7354 C0.4996,16.7234 16.7236,0.5004 36.7356,0.5004 C56.7486,0.5004 72.9716,16.7234 72.9716,36.7354" id="Fill-1" fill="#FFFFFF"></path>
                <path d="M72.9716,36.7354 C72.9716,56.7484 56.7486,72.9714 36.7356,72.9714 C16.7236,72.9714 0.4996,56.7484 0.4996,36.7354 C0.4996,16.7234 16.7236,0.5004 36.7356,0.5004 C56.7486,0.5004 72.9716,16.7234 72.9716,36.7354 Z" id="Stroke-3" stroke="#040201"></path>
                <path d="M10.2355,37.0909 C10.2355,22.3989 22.0985,10.6049 36.9165,10.6539 C51.2925,10.7019 63.2535,22.3989 63.2385,37.1879 C63.2235,51.8549 51.3605,63.6379 36.7365,63.6639 C21.9395,63.6909 10.0875,51.4969 10.2355,37.0909" id="Fill-6" fill="#3E8AC7"></path>
                <path d="M48.3993,37.7218 C46.3993,37.7218 44.3983,37.7258 42.3983,37.7178 C42.0903,37.7168 41.9253,37.7368 42.0303,38.1308 C42.8193,41.1188 43.4063,44.1618 44.4973,47.0678 C44.8153,47.9128 45.1963,48.7248 45.7023,49.4788 C46.5393,50.7248 47.7463,50.7718 48.6843,49.5808 C49.1873,48.9438 49.5383,48.2218 49.8193,47.4668 C50.6183,45.3218 51.4053,43.1708 52.2003,41.0238 C52.2533,40.8768 52.3153,40.7318 52.3923,40.5968 C52.4803,40.4428 52.6293,40.3958 52.7983,40.4368 C52.9893,40.4838 53.0203,40.6378 53.0173,40.8038 C53.0163,40.8818 53.0173,40.9628 52.9973,41.0368 C52.2083,44.0038 51.6273,47.0348 50.3383,49.8498 C49.9293,50.7438 49.4283,51.5798 48.7423,52.2988 C47.2013,53.9138 45.3513,53.8748 43.9233,52.1728 C42.8723,50.9208 42.2863,49.4178 41.7173,47.9168 C40.5573,44.8558 39.6673,41.7098 38.8953,38.5328 C38.7463,37.9218 38.5263,37.6948 37.8553,37.7018 C34.3453,37.7428 30.8333,37.7348 27.3233,37.7078 C26.8113,37.7038 26.6243,37.8758 26.4853,38.3418 C25.8433,40.4988 25.1623,42.6448 24.4943,44.7938 C24.4543,44.9248 24.4173,45.0578 24.3633,45.1838 C24.1313,45.7248 23.6303,45.9868 23.1343,45.8298 C22.6693,45.6838 22.3863,45.2108 22.4833,44.6578 C22.7803,42.9808 23.0923,41.3058 23.4023,39.6318 C23.5083,39.0538 23.6003,38.4718 23.7493,37.9058 C23.8463,37.5338 23.7213,37.4738 23.3913,37.4818 C21.9223,37.5188 20.4523,37.5618 18.9833,37.5568 C17.7203,37.5528 16.9563,36.5268 17.3623,35.4438 C17.6013,34.8078 18.1893,34.4328 19.0063,34.4448 C20.6513,34.4668 22.2973,34.4958 23.9423,34.5518 C24.3643,34.5658 24.5423,34.4478 24.6543,34.0178 C25.5423,30.6068 26.4823,27.2088 28.0183,24.0168 C28.7253,22.5478 29.5073,21.1188 30.7563,20.0178 C32.4063,18.5628 33.9413,18.6378 35.4033,20.2848 C36.3623,21.3668 37.0003,22.6528 37.5873,23.9598 C39.0343,27.1878 39.9833,30.5798 40.8853,33.9868 C41.0403,34.5708 41.2323,34.8388 41.9213,34.8438 C44.3503,34.8618 46.7783,34.9598 49.2053,35.0588 C51.0643,35.1348 52.9213,35.2498 54.7783,35.3628 C55.5093,35.4068 55.9353,35.8388 55.9543,36.4978 C55.9723,37.1258 55.5883,37.5528 54.8673,37.6338 C53.4403,37.7938 52.0073,37.6778 50.5763,37.7038 C49.8513,37.7178 49.1253,37.7058 48.3993,37.7058 L48.3993,37.7218 Z" id="Fill-7" fill="#F3F5F6"></path>
                <path d="M32.986,34.8809 C31.554,34.8809 30.122,34.8769 28.691,34.8849 C28.391,34.8869 28.273,34.8399 28.363,34.4869 C29.127,31.5059 30.027,28.5719 31.352,25.7849 C31.682,25.0919 32.1,24.4509 32.623,23.8859 C33.177,23.2869 33.669,23.3349 34.073,24.0429 C35.041,25.7399 35.594,27.6039 36.172,29.4519 C36.691,31.1139 37.126,32.8029 37.633,34.4679 C37.773,34.9269 37.644,35.0029 37.221,34.9969 C35.809,34.9799 34.397,34.9899 32.986,34.9899 C32.986,34.9539 32.986,34.9179 32.986,34.8809" id="Fill-8" fill="#3E8AC7"></path>
            </g>
        </g>
    </g>
</svg>