<?xml version="1.0" encoding="UTF-8"?>
<svg width="73px" height="72px" viewBox="0 0 73 72" version="1.1" xmlns="http://www.w3.org/2000/svg" xmlns:xlink="http://www.w3.org/1999/xlink">
    <!-- Generator: Sketch 53 (72520) - https://sketchapp.com -->
    <title>Group 50</title>
    <desc>Created with Sketch.</desc>
    <g id="Page-1" stroke="none" stroke-width="1" fill="none" fill-rule="evenodd">
        <g id="Logos-with-Names" transform="translate(-459.000000, -859.000000)">
            <g id="Group-50" transform="translate(460.000000, 858.003986)">
                <g id="Group-6" transform="translate(0.000000, 0.870000)">
                    <path d="M70.5539,36.1777 C70.5539,55.6167 54.7949,71.3767 35.3549,71.3767 C15.9149,71.3767 0.1559,55.6167 0.1559,36.1777 C0.1559,16.7377 15.9149,0.9787 35.3549,0.9787 C54.7949,0.9787 70.5539,16.7377 70.5539,36.1777" id="Fill-1" fill="#FFFFFF"></path>
                    <path d="M70.5539,36.1777 C70.5539,55.6167 54.7949,71.3767 35.3549,71.3767 C15.9149,71.3767 0.1559,55.6167 0.1559,36.1777 C0.1559,16.7377 15.9149,0.9787 35.3549,0.9787 C54.7949,0.9787 70.5539,16.7377 70.5539,36.1777 Z" id="Stroke-3" stroke="#040201"></path>
                </g>
                <g id="Group-49" transform="translate(8.000000, 9.870000)">
                    <polygon id="Fill-7" fill="#28BDC0" points="17.3083 36.8281 17.3083 36.8281 17.3083 48.3531 27.2893 54.1151 37.2703 36.8281"></polygon>
                    <polygon id="Fill-9" fill="#5AC6D6" points="17.3083 36.8281 27.2893 42.5911 37.2703 36.8281 27.2893 31.0651"></polygon>
                    <polygon id="Fill-11" fill="#2CA4BA" points="37.2702 36.8281 37.2702 36.8281 27.2892 42.5911 27.2892 54.1151 37.2702 48.3531"></polygon>
                    <polygon id="Fill-13" fill="#CC2D2D" points="27.2892 19.54 27.2892 19.54 27.2892 31.065 37.2702 36.828 47.2512 19.54"></polygon>
                    <polygon id="Fill-15" fill="#E12226" points="27.2892 19.54 37.2702 25.303 47.2512 19.54 37.2702 13.777"></polygon>
                    <polygon id="Fill-17" fill="#AD2C2C" points="47.2512 19.54 47.2512 19.54 37.2702 25.303 37.2702 36.828 47.2512 31.065"></polygon>
                    <polygon id="Fill-19" fill="#A8B94D" points="7.3268 19.54 7.3268 19.54 7.3268 31.065 17.3078 36.828 27.2888 19.54"></polygon>
                    <polygon id="Fill-21" fill="#BAC83C" points="7.3268 19.54 17.3078 25.303 27.2888 19.54 17.3078 13.777"></polygon>
                    <polygon id="Fill-23" fill="#819E5D" points="27.2892 19.54 27.2892 19.54 17.3082 25.303 17.3082 36.828 27.2892 31.065"></polygon>
                    <polygon id="Fill-25" fill="#FFCE00" points="17.3083 25.3027 17.3083 25.3027 17.3083 36.8277 27.2893 42.5907 37.2703 25.3027"></polygon>
                    <polygon id="Fill-27" fill="#FFE000" points="17.3083 25.3027 27.2893 31.0657 37.2703 25.3027 27.2893 19.5397"></polygon>
                    <polygon id="Fill-29" fill="#E4BE44" points="37.2702 25.3027 37.2702 25.3027 27.2892 31.0657 27.2892 42.5907 37.2702 36.8277"></polygon>
                    <polygon id="Fill-31" fill="#28BDC0" points="21.1335 3.6377 21.1335 3.6377 21.1335 10.7177 27.2645 14.2577 33.3965 3.6377"></polygon>
                    <polygon id="Fill-33" fill="#5AC6D6" points="21.1335 3.6377 27.2645 7.1777 33.3965 3.6377 27.2645 0.0977"></polygon>
                    <polygon id="Fill-35" fill="#2CA4BA" points="33.3962 3.6377 33.3962 3.6377 27.2652 7.1777 27.2652 14.2577 33.3962 10.7177"></polygon>
                    <polygon id="Fill-37" fill="#A8B94D" points="41.7492 39.2949 41.7492 39.2949 41.7492 46.3749 47.8802 49.9149 54.0122 39.2949"></polygon>
                    <polygon id="Fill-39" fill="#BAC83C" points="41.7492 39.2949 47.8802 42.8349 54.0122 39.2949 47.8802 35.7549"></polygon>
                    <polygon id="Fill-41" fill="#819E5D" points="54.0119 39.2949 54.0119 39.2949 47.8809 42.8349 47.8809 49.9149 54.0119 46.3749"></polygon>
                    <polygon id="Fill-43" fill="#CC2D2D" points="0.5646 39.2998 0.5646 39.2998 0.5646 46.3798 6.6966 49.9208 12.8276 39.2998"></polygon>
                    <polygon id="Fill-45" fill="#E12226" points="0.5646 39.2998 6.6966 42.8398 12.8276 39.2998 6.6966 35.7608"></polygon>
                    <polygon id="Fill-47" fill="#AD2C2C" points="12.8278 39.2998 12.8278 39.2998 6.6968 42.8398 6.6968 49.9208 12.8278 46.3798"></polygon>
                </g>
            </g>
        </g>
    </g>
</svg>