<?xml version="1.0" encoding="UTF-8"?>
<svg width="74px" height="74px" viewBox="0 0 74 74" version="1.1" xmlns="http://www.w3.org/2000/svg" xmlns:xlink="http://www.w3.org/1999/xlink">
    <!-- Generator: Sketch 53 (72520) - https://sketchapp.com -->
    <title>Group 14</title>
    <desc>Created with Sketch.</desc>
    <g id="Page-1" stroke="none" stroke-width="1" fill="none" fill-rule="evenodd">
        <g id="Logos-with-Names" transform="translate(-93.000000, -939.000000)">
            <g id="Group-14" transform="translate(93.000000, 939.631043)">
                <path d="M72.7017,36.6011 C72.7017,56.5381 56.5387,72.7021 36.6007,72.7021 C16.6627,72.7021 0.4997,56.5381 0.4997,36.6011 C0.4997,16.6631 16.6627,0.4991 36.6007,0.4991 C56.5387,0.4991 72.7017,16.6631 72.7017,36.6011" id="Fill-1" fill="#FFFFFF"></path>
                <path d="M72.7017,36.6011 C72.7017,56.5381 56.5387,72.7021 36.6007,72.7021 C16.6627,72.7021 0.4997,56.5381 0.4997,36.6011 C0.4997,16.6631 16.6627,0.4991 36.6007,0.4991 C56.5387,0.4991 72.7017,16.6631 72.7017,36.6011 Z" id="Stroke-3" stroke="#040201"></path>
                <path d="M10.6851,38.0493 C10.2321,36.6223 9.7831,35.2103 9.3341,33.7973 L9.2941,33.7973 C8.8461,35.2093 8.3971,36.6223 7.9451,38.0493 L10.6851,38.0493 Z M3.6711,42.6333 C3.8221,42.1813 3.9711,41.7283 4.1251,41.2773 C5.3091,37.8183 6.4931,34.3593 7.6741,30.8993 C7.7141,30.7813 7.7661,30.7453 7.8891,30.7453 C8.8701,30.7513 9.8511,30.7503 10.8311,30.7463 C10.9401,30.7453 10.9871,30.7793 11.0221,30.8813 C11.8521,33.3163 12.6861,35.7493 13.5191,38.1823 C14.0101,39.6163 14.5011,41.0513 14.9921,42.4863 C15.0091,42.5353 15.0301,42.5843 15.0501,42.6333 L12.1321,42.6333 C11.8911,41.8713 11.6491,41.1113 11.4131,40.3473 C11.3821,40.2483 11.3371,40.2173 11.2341,40.2173 C9.9551,40.2213 8.6751,40.2213 7.3961,40.2173 C7.2941,40.2173 7.2471,40.2463 7.2161,40.3473 C6.9941,41.0633 6.7641,41.7773 6.5391,42.4913 C6.5241,42.5363 6.5231,42.5863 6.5161,42.6333 L3.6711,42.6333 Z" id="Fill-6" fill="#72B10E"></path>
                <path d="M19.3809,36.5366 C19.3819,36.5446 19.3819,36.5536 19.3829,36.5616 C19.7889,36.5286 20.1979,36.5156 20.5999,36.4576 C21.2719,36.3616 21.7429,36.0046 21.9409,35.3346 C22.0239,35.0536 22.0319,34.7636 22.0259,34.4736 C22.0189,34.1826 21.9319,33.9226 21.7709,33.6816 C21.5079,33.2856 21.1209,33.0656 20.6719,33.0206 C20.0439,32.9586 19.4099,32.9636 18.7779,32.9456 C18.7499,32.9446 18.7179,32.9996 18.6949,33.0326 C18.6849,33.0466 18.6929,33.0726 18.6929,33.0936 C18.6929,34.1916 18.6949,35.2916 18.6899,36.3906 C18.6899,36.5116 18.7249,36.5446 18.8419,36.5386 C19.0209,36.5286 19.2009,36.5366 19.3809,36.5366 L19.3809,36.5366 Z M15.8599,42.6336 C15.8629,42.5766 15.8689,42.5196 15.8689,42.4626 C15.8699,38.6136 15.8699,34.7646 15.8699,30.9146 C15.8699,30.7496 15.8699,30.7486 16.0369,30.7486 C17.5199,30.7486 19.0039,30.7436 20.4869,30.7516 C21.1969,30.7556 21.9049,30.7996 22.5859,31.0366 C23.8169,31.4676 24.6229,32.2836 24.8569,33.5906 C25.0589,34.7226 24.9359,35.8246 24.3209,36.8116 C23.6909,37.8226 22.7569,38.4436 21.5759,38.6456 C21.1559,38.7186 20.7239,38.7306 20.2969,38.7446 C19.7709,38.7606 19.2439,38.7486 18.7019,38.7486 C18.6979,38.7936 18.6929,38.8326 18.6929,38.8716 C18.6929,40.0936 18.6929,41.3146 18.6929,42.5366 C18.6929,42.5686 18.7009,42.6006 18.7039,42.6336 L15.8599,42.6336 Z" id="Fill-7" fill="#72B10E"></path>
                <path d="M37.7596,42.6333 C37.9796,41.6063 38.1996,40.5783 38.4186,39.5513 C38.7586,37.9583 39.0976,36.3643 39.4376,34.7723 C39.5506,34.2423 39.6656,33.7133 39.7786,33.1843 C39.8136,33.0213 39.8116,33.0203 39.6466,33.0203 C38.6336,33.0193 37.6196,33.0193 36.6056,33.0193 C36.5696,33.0193 36.5326,33.0173 36.4956,33.0193 C36.4036,33.0253 36.3846,32.9823 36.4036,32.8983 C36.5026,32.4403 36.5986,31.9823 36.6966,31.5243 C36.7426,31.3093 36.7946,31.0953 36.8326,30.8783 C36.8506,30.7783 36.8896,30.7463 36.9926,30.7463 C38.4436,30.7503 39.8946,30.7483 41.3446,30.7483 L46.3966,30.7483 L46.5536,30.7483 C46.4856,31.0743 46.4226,31.3803 46.3576,31.6863 C46.2706,32.0923 46.1776,32.4973 46.0986,32.9043 C46.0776,33.0123 46.0236,33.0203 45.9376,33.0203 C45.1446,33.0193 44.3526,33.0193 43.5596,33.0193 C43.2976,33.0193 43.0366,33.0233 42.7746,33.0173 C42.6756,33.0153 42.6296,33.0473 42.6086,33.1473 C42.0846,35.6123 41.5596,38.0773 41.0336,40.5423 C40.8926,41.2033 40.7496,41.8643 40.6086,42.5263 C40.6006,42.5603 40.6056,42.5973 40.6046,42.6333 L37.7596,42.6333 Z" id="Fill-8" fill="#72B10E"></path>
                <path d="M28.8328,42.6333 C28.8348,42.5803 28.8378,42.5273 28.8378,42.4743 C28.8388,39.3933 28.8388,36.3113 28.8388,33.2303 C28.8388,33.0193 28.8388,33.0193 28.6208,33.0193 L25.5558,33.0193 C25.3848,33.0193 25.3848,33.0193 25.3848,32.8553 C25.3848,32.1963 25.3868,31.5383 25.3828,30.8813 C25.3828,30.7823 25.4058,30.7463 25.5118,30.7463 C28.6578,30.7493 31.8048,30.7493 34.9518,30.7463 C35.0558,30.7463 35.0828,30.7793 35.0828,30.8793 C35.0788,31.5453 35.0778,32.2123 35.0828,32.8783 C35.0838,32.9953 35.0418,33.0213 34.9338,33.0213 C33.9008,33.0183 32.8668,33.0193 31.8328,33.0193 C31.6438,33.0193 31.6438,33.0203 31.6438,33.2063 C31.6438,36.2953 31.6438,39.3853 31.6448,42.4753 C31.6448,42.5283 31.6498,42.5803 31.6528,42.6333 L28.8328,42.6333 Z" id="Fill-9" fill="#72B10E"></path>
                <path d="M50.6524,30.7642 C50.5244,31.3642 50.3994,31.9492 50.2734,32.5342 C49.9334,34.1222 49.5904,35.7102 49.2524,37.2992 C49.1664,37.7012 49.0844,38.1042 49.0244,38.5102 C48.9794,38.8052 48.9864,39.1042 49.0744,39.3962 C49.1984,39.8052 49.4584,40.0852 49.8674,40.2112 C50.3894,40.3712 50.9194,40.3912 51.4484,40.2482 C52.0964,40.0752 52.5054,39.6302 52.7784,39.0382 C52.9774,38.6102 53.0694,38.1502 53.1684,37.6922 C53.4174,36.5342 53.6644,35.3742 53.9144,34.2162 C54.1544,33.0982 54.3984,31.9802 54.6354,30.8612 C54.6544,30.7752 54.6854,30.7472 54.7714,30.7472 C55.6174,30.7502 56.4634,30.7492 57.3094,30.7482 C57.3884,30.7482 57.4284,30.7542 57.4054,30.8582 C56.9934,32.7552 56.5894,34.6552 56.1754,36.5522 C56.0114,37.3082 55.8474,38.0652 55.6494,38.8122 C55.4744,39.4742 55.1884,40.0932 54.8024,40.6622 C54.2044,41.5432 53.3704,42.0732 52.3494,42.3302 C51.5484,42.5332 50.7354,42.5602 49.9174,42.5242 C49.2794,42.4952 48.6524,42.3942 48.0554,42.1562 C47.2494,41.8342 46.6514,41.3052 46.3694,40.4602 C46.2244,40.0262 46.1794,39.5772 46.1924,39.1222 C46.2134,38.3752 46.4064,37.6582 46.5604,36.9332 C46.9134,35.2722 47.2714,33.6132 47.6284,31.9522 C47.7084,31.5822 47.7914,31.2132 47.8684,30.8422 C47.8834,30.7722 47.9124,30.7472 47.9824,30.7472 C48.8444,30.7492 49.7064,30.7482 50.5694,30.7492 C50.5924,30.7492 50.6154,30.7572 50.6524,30.7642" id="Fill-10" fill="#72B10E"></path>
                <path d="M56.4075,41.7046 C56.5505,40.9856 56.6925,40.2756 56.8345,39.5656 C56.8615,39.4306 56.8865,39.2936 56.9195,39.1596 C56.9345,39.1006 56.9605,39.0036 56.9915,38.9986 C57.0915,38.9856 57.1935,38.9656 57.2925,39.0466 C57.5745,39.2746 57.8525,39.5136 58.1575,39.7056 C58.8375,40.1336 59.5855,40.3746 60.3855,40.4626 C61.0395,40.5346 61.6905,40.5356 62.3275,40.3576 C62.5245,40.3036 62.7215,40.2146 62.8895,40.0986 C63.2935,39.8186 63.4235,39.4146 63.3395,38.9386 C63.3035,38.7346 63.1745,38.5866 63.0125,38.4676 C62.6855,38.2256 62.3065,38.0946 61.9285,37.9656 C61.2495,37.7336 60.5635,37.5206 59.8915,37.2726 C59.3315,37.0666 58.8155,36.7766 58.4045,36.3296 C58.0175,35.9076 57.8175,35.4086 57.7725,34.8386 C57.7195,34.1836 57.8115,33.5596 58.1115,32.9746 C58.4625,32.2916 59.0185,31.8146 59.6845,31.4596 C60.2775,31.1426 60.9155,30.9686 61.5775,30.8666 C62.2145,30.7686 62.8545,30.7496 63.4945,30.7766 C64.6295,30.8246 65.7405,31.0016 66.7945,31.4526 C66.9645,31.5246 66.9635,31.5256 66.9295,31.6986 C66.7765,32.4616 66.6255,33.2246 66.4715,33.9856 C66.4615,34.0376 66.4305,34.1276 66.4085,34.1276 C66.3125,34.1286 66.1865,34.1366 66.1245,34.0816 C65.5715,33.5866 64.9305,33.2546 64.2255,33.0466 C63.5895,32.8596 62.9385,32.8026 62.2755,32.8596 C61.9285,32.8896 61.5875,32.9436 61.2665,33.0836 C60.9635,33.2156 60.6935,33.3966 60.5755,33.7236 C60.4235,34.1456 60.4755,34.6316 60.9455,34.9076 C61.3505,35.1446 61.7935,35.2846 62.2345,35.4336 C62.8595,35.6436 63.4895,35.8426 64.1085,36.0706 C64.5385,36.2296 64.9365,36.4606 65.2885,36.7596 C65.7555,37.1566 66.0155,37.6646 66.0795,38.2716 C66.1765,39.1936 66.0035,40.0506 65.4435,40.8086 C65.0045,41.4026 64.4065,41.7816 63.7385,42.0646 C63.1785,42.3016 62.5905,42.4266 61.9905,42.5066 C61.3225,42.5946 60.6525,42.5986 59.9845,42.5696 C58.7835,42.5186 57.6275,42.2566 56.5275,41.7666 C56.4875,41.7476 56.4495,41.7256 56.4075,41.7046" id="Fill-11" fill="#72B10E"></path>
                <path d="M67.7923,31.6499 C67.7923,32.1169 68.1643,32.4889 68.6333,32.4889 C69.0993,32.4899 69.4763,32.1169 69.4773,31.6519 C69.4793,31.1819 69.0983,30.8009 68.6293,30.8039 C68.1653,30.8069 67.7923,31.1829 67.7923,31.6499 M67.7373,31.6439 C67.7393,31.1489 68.1443,30.7469 68.6373,30.7499 C69.1293,30.7519 69.5433,31.1589 69.5293,31.6519 C69.5143,32.1959 69.1193,32.5379 68.6293,32.5429 C68.1313,32.5469 67.7363,32.1429 67.7373,31.6439" id="Fill-12" fill="#72B10E"></path>
                <path d="M68.6243,31.2046 C68.5643,31.2196 68.4613,31.2216 68.4523,31.2516 C68.4273,31.3326 68.4283,31.4306 68.4513,31.5126 C68.4583,31.5406 68.5613,31.5536 68.6203,31.5546 C68.7913,31.5576 68.8813,31.4956 68.8843,31.3846 C68.8873,31.2696 68.8093,31.2196 68.6243,31.2046 M68.8353,31.6356 C69.0413,31.7766 68.9703,32.0066 69.0543,32.1836 C68.8673,32.2206 68.8463,32.2056 68.8183,32.0336 C68.8083,31.9736 68.8083,31.9096 68.7873,31.8536 C68.7683,31.8036 68.7363,31.7456 68.6933,31.7196 C68.5373,31.6246 68.4333,31.6866 68.4323,31.8656 C68.4323,31.9476 68.4313,32.0286 68.4333,32.1106 C68.4343,32.1696 68.4153,32.2146 68.3513,32.1976 C68.3183,32.1886 68.2703,32.1486 68.2703,32.1216 C68.2643,31.8036 68.2643,31.4846 68.2713,31.1666 C68.2713,31.1406 68.3313,31.0946 68.3653,31.0926 C68.4993,31.0836 68.6353,31.0876 68.7693,31.0916 C68.9153,31.0966 69.0193,31.1746 69.0443,31.2906 C69.0753,31.4376 69.0353,31.5186 68.8923,31.6006 C68.8783,31.6076 68.8643,31.6166 68.8353,31.6356" id="Fill-13" fill="#72B10E"></path>
            </g>
        </g>
    </g>
</svg>