<?xml version="1.0" encoding="UTF-8"?>
<svg width="74px" height="75px" viewBox="0 0 74 75" version="1.1" xmlns="http://www.w3.org/2000/svg" xmlns:xlink="http://www.w3.org/1999/xlink">
    <!-- Generator: Sketch 53 (72520) - https://sketchapp.com -->
    <title>Group 9</title>
    <desc>Created with Sketch.</desc>
    <g id="Page-1" stroke="none" stroke-width="1" fill="none" fill-rule="evenodd">
        <g id="Logos-with-Names" transform="translate(-92.000000, -1038.000000)">
            <g id="Group-9" transform="translate(92.000000, 1038.387905)">
                <path d="M73.1682,36.8337 C73.1682,56.9007 56.9002,73.1687 36.8342,73.1687 C16.7672,73.1687 0.5002,56.9007 0.5002,36.8337 C0.5002,16.7677 16.7672,0.4997 36.8342,0.4997 C56.9002,0.4997 73.1682,16.7677 73.1682,36.8337" id="Fill-1" fill="#FFFFFF"></path>
                <path d="M73.1682,36.8337 C73.1682,56.9007 56.9002,73.1687 36.8342,73.1687 C16.7672,73.1687 0.5002,56.9007 0.5002,36.8337 C0.5002,16.7677 16.7672,0.4997 36.8342,0.4997 C56.9002,0.4997 73.1682,16.7677 73.1682,36.8337 Z" id="Stroke-3" stroke="#040201"></path>
                <path d="M51.8933,60.5729 L21.7753,60.5729 C17.6503,60.5729 14.3063,57.2289 14.3063,53.1039 L14.3063,22.9859 C14.3063,18.8609 17.6503,15.5169 21.7753,15.5169 L51.8933,15.5169 C56.0183,15.5169 59.3613,18.8609 59.3613,22.9859 L59.3613,53.1039 C59.3613,57.2289 56.0183,60.5729 51.8933,60.5729" id="Fill-6" fill="#00AEEF"></path>
                <path d="M37.3655,44.2868 C35.3355,44.2868 33.6895,42.6418 33.6895,40.6118 C33.6895,38.5838 35.3355,36.9398 37.3655,36.9398 C39.3945,36.9398 41.0395,38.5838 41.0395,40.6118 C41.0395,42.6418 39.3945,44.2868 37.3655,44.2868 M26.5425,44.2868 C24.5125,44.2868 22.8655,42.6418 22.8655,40.6128 C22.8655,38.5838 24.5125,36.9398 26.5425,36.9398 C28.5715,36.9398 30.2155,38.5838 30.2155,40.6118 C30.2155,42.6418 28.5715,44.2868 26.5425,44.2868 M37.3655,34.4878 C35.0215,34.4878 32.9815,35.8068 31.9545,37.7418 C30.9265,35.8068 28.8875,34.4878 26.5425,34.4878 C25.1645,34.4878 23.8925,34.9428 22.8655,35.7128 L22.8655,30.5518 C22.8535,29.8858 22.3095,29.3508 21.6405,29.3508 C20.9715,29.3508 20.4325,29.8858 20.4175,30.5518 L20.4175,40.7148 L20.4185,40.7148 C20.4725,44.0518 23.1925,46.7388 26.5425,46.7388 C28.8875,46.7388 30.9265,45.4198 31.9545,43.4848 C32.9815,45.4198 35.0215,46.7388 37.3655,46.7388 C40.7475,46.7388 43.4905,43.9968 43.4905,40.6118 C43.4905,37.2288 40.7475,34.4878 37.3655,34.4878" id="Fill-7" fill="#FFFFFF"></path>
                <path d="M52.9958,44.6881 L49.6658,40.6041 L52.9998,36.5121 C53.4218,35.9721 53.3008,35.2181 52.7188,34.8181 C52.1358,34.4151 51.3188,34.5181 50.8678,35.0421 L50.8678,35.0411 L47.9998,38.5561 L45.1348,35.0411 L45.1348,35.0421 C44.6888,34.5181 43.8658,34.4151 43.2858,34.8181 C42.7038,35.2191 42.5828,35.9721 43.0068,36.5121 L43.0058,36.5121 L46.3328,40.6041 L43.0058,44.6881 L43.0068,44.6881 C42.5828,45.2291 42.7038,45.9811 43.2858,46.3831 C43.8658,46.7851 44.6888,46.6831 45.1348,46.1591 L47.9998,42.6481 L50.8638,46.1591 C51.3148,46.6831 52.1328,46.7851 52.7148,46.3831 C53.2968,45.9811 53.4178,45.2291 52.9958,44.6881" id="Fill-8" fill="#FFFFFF"></path>
            </g>
        </g>
    </g>
</svg>