<?xml version="1.0" encoding="UTF-8"?>
<svg width="74px" height="74px" viewBox="0 0 74 74" version="1.1" xmlns="http://www.w3.org/2000/svg" xmlns:xlink="http://www.w3.org/1999/xlink">
    <!-- Generator: Sketch 53 (72520) - https://sketchapp.com -->
    <title>Group 7</title>
    <desc>Created with Sketch.</desc>
    <g id="Page-1" stroke="none" stroke-width="1" fill="none" fill-rule="evenodd">
        <g id="Logos-with-Names" transform="translate(-280.000000, -52.000000)">
            <g id="Group-7" transform="translate(280.000000, 52.000000)">
                <path d="M72.6044,36.5518 C72.6044,56.4628 56.4634,72.6048 36.5524,72.6048 C16.6414,72.6048 0.5004,56.4628 0.5004,36.5518 C0.5004,16.6408 16.6414,0.4998 36.5524,0.4998 C56.4634,0.4998 72.6044,16.6408 72.6044,36.5518" id="Fill-1" fill="#FFFFFF"></path>
                <path d="M72.6044,36.5518 C72.6044,56.4628 56.4634,72.6048 36.5524,72.6048 C16.6414,72.6048 0.5004,56.4628 0.5004,36.5518 C0.5004,16.6408 16.6414,0.4998 36.5524,0.4998 C56.4634,0.4998 72.6044,16.6408 72.6044,36.5518 Z" id="Stroke-3" stroke="#040201"></path>
                <path d="M70.0748,41.0225 C70.0748,41.0225 69.4098,40.0915 69.2048,39.8265 C69.0648,39.6535 68.8918,39.4415 68.4338,39.7525 C67.4238,40.4305 66.2868,41.0485 64.8848,41.0485 C63.8148,41.0485 62.8778,40.7765 62.1808,40.1855 C62.4728,40.0525 62.7788,39.9065 63.0908,39.7405 C64.7458,38.8425 66.1278,37.7075 66.7928,37.0425 C70.0148,33.8195 69.0048,29.0145 65.0778,29.0145 C61.3698,29.0145 58.4398,32.6295 58.4398,36.6435 C58.4398,37.2485 58.5128,38.1125 58.7718,39.0295 C58.5528,39.1355 57.0838,39.8465 55.3228,40.8165 C53.6688,39.5745 51.0838,40.1315 51.0838,40.1315 C53.4818,36.7295 57.0908,31.4145 57.3958,30.9755 C57.6158,30.6635 57.5828,30.3505 57.3698,29.8595 C57.0968,29.2675 56.8248,29.1615 56.4528,29.1615 L48.9568,29.1615 C48.7108,29.1615 48.5188,29.2745 48.4458,29.5535 C48.3788,29.8265 48.2198,30.7765 48.1928,31.1015 C48.1598,31.4265 48.4658,31.6265 48.7838,31.6265 L54.2128,31.6265 L49.3028,38.6505 C49.2698,38.6765 49.2358,38.7095 49.2098,38.7565 C48.4988,39.7865 47.4018,41.2285 46.0858,41.2285 C45.2688,41.2285 44.2588,40.6435 44.2588,38.7305 C44.2588,36.8565 45.0168,32.8955 45.5678,29.8125 C45.6278,29.4805 45.5148,29.1545 44.9828,29.1545 L43.6548,29.1545 C43.3488,29.1545 43.1758,29.3405 43.1288,29.5995 C43.0498,30.0715 42.9698,30.5375 42.8898,30.9815 C42.2318,29.7255 41.1828,29.0145 39.6608,29.0145 C38.2518,29.0145 36.8768,29.5405 35.7538,30.6565 C32.9498,33.4605 33.4808,38.0325 31.0618,40.4515 C30.0188,41.4945 28.8358,41.1755 28.8358,39.1225 C28.8358,36.7765 29.7328,34.1655 30.7628,31.6865 C30.9428,31.2485 30.7498,30.8815 30.5568,30.5965 C30.2848,30.1985 30.1788,29.9855 29.6868,29.9855 C28.9218,29.9855 27.6998,30.4705 25.2538,30.4705 C24.7358,30.4705 24.2378,30.4505 23.7928,30.4175 C23.8188,30.0515 23.8258,29.8055 23.8328,29.7125 C23.8458,29.3675 23.7258,29.1475 23.3608,29.1475 L22.1108,29.1475 C21.6588,29.1475 21.5468,29.3605 21.4928,29.7125 C21.2808,31.2085 20.8758,36.6965 18.1238,39.4475 C17.8048,39.7665 17.6128,39.8665 17.6128,39.8665 C18.2968,38.5245 18.6688,36.7625 18.6688,35.3675 C18.6688,31.4405 16.3438,29.0085 13.4258,29.0085 C12.5358,29.0085 11.5918,29.2935 10.7088,29.8455 C11.1208,27.4535 11.4988,25.2135 11.6318,24.4565 C11.7448,23.8185 11.5128,23.4865 11.3458,23.2205 C11.0668,22.7895 10.8218,22.5955 10.4498,22.5955 L6.1428,22.5955 C5.8978,22.5955 5.7108,22.7685 5.6518,23.0415 C5.5788,23.3605 5.4258,24.1975 5.4058,24.5835 C5.3928,24.9215 5.6248,25.0475 5.8978,25.0475 L9.0468,25.0475 C8.5418,28.1375 7.5848,34.1255 7.2928,35.6265 C6.9278,37.5415 5.5648,39.8855 3.2728,40.7165 C2.9868,40.8235 2.8668,41.0825 2.9738,41.3875 C3.0798,41.6935 3.4718,42.4915 3.5918,42.6975 C3.7108,42.9105 3.9768,43.0485 4.2298,42.9625 C5.4188,42.5435 6.5088,41.8665 7.3728,41.0085 C7.5848,40.7965 7.7908,40.5575 7.9908,40.2975 C9.0208,42.6105 11.1138,43.4555 13.2598,43.4555 C15.6858,43.4555 18.3038,42.6105 20.1378,40.7695 C22.2838,38.6295 23.1808,35.0825 23.5598,32.5705 C24.0918,32.6435 24.6958,32.7035 25.2738,32.7035 C26.7498,32.7035 27.9858,32.3905 27.9858,32.3905 C27.9858,32.3905 26.4968,36.3375 26.4968,39.2485 C26.4968,42.5315 28.0648,43.4605 29.8058,43.4605 C31.5938,43.4605 32.8498,42.1195 33.7468,40.4585 C33.9788,40.9755 34.3248,41.5935 34.7968,42.0655 C35.6068,42.8765 36.6108,43.4605 38.0588,43.4605 C39.7138,43.4605 41.1358,42.5035 42.1458,41.0365 C42.3248,41.6535 42.6048,42.1715 42.9828,42.5505 C43.4948,43.0625 44.4318,43.4605 45.6078,43.4605 C47.6278,43.4605 48.7978,41.9465 51.9408,41.9465 C52.3388,41.9465 52.6978,42.0055 53.0238,42.1195 C51.5818,42.9965 50.2128,43.9395 49.3758,44.7775 C46.7838,47.3685 46.6648,50.7775 48.3658,52.4785 C50.4258,54.5385 53.3628,53.5085 55.1968,51.6745 C57.3428,49.5285 57.9678,45.4675 56.7248,42.6905 C58.2268,41.8995 59.4828,41.3145 59.7818,41.1755 C60.7188,42.4585 62.2738,43.4605 64.8388,43.4605 C66.6728,43.4605 68.5198,42.8095 69.9618,41.7205 C70.1878,41.5675 70.2338,41.2485 70.0748,41.0225 M14.5228,40.1525 C13.9378,40.7365 13.2208,41.0485 12.4958,41.0485 C11.8178,41.0485 11.2328,40.7435 10.7478,40.2585 C9.0868,38.5965 9.2328,34.5235 11.3668,32.3835 C11.9708,31.7795 12.7018,31.4265 13.4528,31.4265 C14.1238,31.4265 14.7158,31.7265 15.1998,32.2105 C16.7618,33.7725 16.8548,37.8195 14.5228,40.1525 M38.2188,41.0365 C36.4248,41.0365 35.2618,38.8825 35.6208,36.2245 C35.9728,33.5665 37.7138,31.4145 39.5078,31.4145 C41.1688,31.4145 42.2858,33.2605 42.1588,35.6465 C42.1128,35.9925 42.0728,36.3245 42.0398,36.6435 C41.5678,39.1025 39.9128,41.0365 38.2188,41.0365 M53.1238,50.4055 C50.7838,52.7445 47.7938,49.7605 51.2828,46.2725 C52.0738,45.4815 53.3688,44.6105 54.7188,43.8205 C55.4888,45.7275 54.8778,48.6445 53.1238,50.4055 M62.5198,32.4235 C64.2808,30.6635 66.2338,31.1815 66.2338,32.8885 C66.2338,34.5565 64.2338,36.3575 61.8218,37.7525 C61.5888,37.8855 61.3098,38.0395 61.0308,38.1785 C60.9378,37.7595 60.8848,37.2945 60.8848,36.7765 C60.8848,35.3475 61.4898,33.4545 62.5198,32.4235" id="Fill-6" fill="#212123"></path>
            </g>
        </g>
    </g>
</svg>