<?xml version="1.0" encoding="UTF-8"?>
<svg width="74px" height="75px" viewBox="0 0 74 75" version="1.1" xmlns="http://www.w3.org/2000/svg" xmlns:xlink="http://www.w3.org/1999/xlink">
    <!-- Generator: Sketch 53 (72520) - https://sketchapp.com -->
    <title>Group 10</title>
    <desc>Created with Sketch.</desc>
    <g id="Page-1" stroke="none" stroke-width="1" fill="none" fill-rule="evenodd">
        <g id="Logos-with-Names" transform="translate(-461.000000, -1054.000000)">
            <g id="Group-10" transform="translate(461.000000, 1053.923324)">
                <g id="Group-5" transform="translate(0.000000, 0.695000)">
                    <path d="M73.032,37.0713 C73.032,57.1003 56.795,73.3373 36.766,73.3373 C16.737,73.3373 0.5,57.1003 0.5,37.0713 C0.5,17.0423 16.737,0.8053 36.766,0.8053 C56.795,0.8053 73.032,17.0423 73.032,37.0713" id="Fill-1" fill="#FFFFFF"></path>
                    <path d="M73.032,37.0713 C73.032,57.1003 56.795,73.3373 36.766,73.3373 C16.737,73.3373 0.5,57.1003 0.5,37.0713 C0.5,17.0423 16.737,0.8053 36.766,0.8053 C56.795,0.8053 73.032,17.0423 73.032,37.0713 Z" id="Stroke-3" stroke="#040201"></path>
                </g>
                <g id="Group-9" transform="translate(12.000000, 13.695000)" fill="#772953">
                    <path d="M24.7659,39.2979 C16.4039,39.2979 9.6259,32.5209 9.6259,24.1569 C9.6259,15.7949 16.4039,9.0179 24.7659,9.0179 C33.1279,9.0179 39.9059,15.7949 39.9059,24.1569 C39.9059,32.5209 33.1279,39.2979 24.7659,39.2979" id="Fill-7"></path>
                    <path d="M24.7654,6.1641 C14.8274,6.1641 6.7724,14.2211 6.7724,24.1581 C6.7724,34.0971 14.8274,42.1501 24.7654,42.1501 C34.7034,42.1501 42.7584,34.0971 42.7584,24.1581 C42.7584,14.2201 34.7034,6.1641 24.7654,6.1641 M48.5434,24.1581 C48.5434,37.2891 37.8974,47.9351 24.7654,47.9351 C11.6334,47.9351 0.9884,37.2891 0.9884,24.1581 C0.9884,11.0251 11.6334,0.3811 24.7654,0.3811 C37.8974,0.3801 48.5434,11.0251 48.5434,24.1581" id="Fill-8"></path>
                </g>
            </g>
        </g>
    </g>
</svg>