<?xml version="1.0" encoding="UTF-8"?>
<svg width="73px" height="72px" viewBox="0 0 73 72" version="1.1" xmlns="http://www.w3.org/2000/svg" xmlns:xlink="http://www.w3.org/1999/xlink">
    <!-- Generator: Sketch 53 (72520) - https://sketchapp.com -->
    <title>Group 13</title>
    <desc>Created with Sketch.</desc>
    <g id="Page-1" stroke="none" stroke-width="1" fill="none" fill-rule="evenodd">
        <g id="Logos-with-Names" transform="translate(-93.000000, -144.000000)">
            <g id="Group-13" transform="translate(93.000000, 144.000000)">
                <path d="M71.5432,35.8723 C71.5432,55.4073 55.7062,71.2443 36.1712,71.2443 C16.6352,71.2443 0.7992,55.4073 0.7992,35.8723 C0.7992,16.3363 16.6352,0.5003 36.1712,0.5003 C55.7062,0.5003 71.5432,16.3363 71.5432,35.8723" id="Fill-1" fill="#FFFFFF"></path>
                <path d="M71.5432,35.8723 C71.5432,55.4073 55.7062,71.2443 36.1712,71.2443 C16.6352,71.2443 0.7992,55.4073 0.7992,35.8723 C0.7992,16.3363 16.6352,0.5003 36.1712,0.5003 C55.7062,0.5003 71.5432,16.3363 71.5432,35.8723 Z" id="Stroke-3" stroke="#040201"></path>
                <path d="M33.3418,40.8303 L30.5738,33.1233 C30.5378,33.0163 30.4858,32.8753 30.4858,32.7523 C30.4858,32.4183 30.7678,32.1013 31.1718,32.1013 C31.5248,32.1013 31.7548,32.3293 31.8608,32.6643 L34.1538,39.3063 L36.4638,32.6453 C36.5688,32.3293 36.7808,32.1013 37.1318,32.1013 L37.2038,32.1013 C37.5748,32.1013 37.8038,32.3293 37.9088,32.6453 L40.1998,39.3063 L42.5298,32.6293 C42.6188,32.3473 42.8108,32.1013 43.1818,32.1013 C43.5698,32.1013 43.8518,32.3993 43.8518,32.7353 C43.8518,32.8583 43.7988,32.9983 43.7638,33.1053 L40.9788,40.8303 C40.8358,41.2333 40.5548,41.4453 40.2368,41.4453 L40.1848,41.4453 C39.8318,41.4453 39.5658,41.2333 39.4428,40.8303 L37.1698,34.2813 L34.8758,40.8303 C34.7528,41.2333 34.4878,41.4453 34.1358,41.4453 L34.0988,41.4453 C33.7648,41.4453 33.4828,41.2333 33.3418,40.8303" id="Fill-6" fill="#030100"></path>
                <path d="M53.5183,32.7727 C53.5183,32.4017 53.8183,32.0837 54.1883,32.0837 C54.5783,32.0837 54.8783,32.3837 54.8783,32.7727 L54.8783,34.3367 C55.5493,32.8177 57.0363,32.1007 58.0223,32.1007 C58.4293,32.1007 58.6953,32.4017 58.6953,32.7897 C58.6953,33.1607 58.4483,33.4237 58.0923,33.4777 C56.3253,33.6897 54.8783,35.0147 54.8783,37.6477 L54.8783,40.7447 C54.8783,41.1157 54.5953,41.4327 54.2073,41.4327 C53.8183,41.4327 53.5183,41.1307 53.5183,40.7447 L53.5183,32.7727" id="Fill-7" fill="#030100"></path>
                <path d="M65.7065,36.2912 C65.5685,34.6462 64.6325,33.2142 62.8495,33.2142 C61.2915,33.2142 60.1145,34.5242 59.9445,36.2912 L65.7065,36.2912 Z M63.0585,41.5192 C60.6005,41.5192 58.5925,39.6122 58.5925,36.8152 L58.5925,36.7792 C58.5925,34.1762 60.4095,32.0772 62.8855,32.0772 C65.5315,32.0772 67.0395,34.2612 67.0395,36.6572 C67.0395,37.0252 66.7425,37.2882 66.4155,37.2882 L59.9445,37.2882 C60.1335,39.2452 61.4995,40.3472 63.0935,40.3472 C64.2015,40.3472 65.0135,39.9092 65.6715,39.2982 C65.7745,39.2112 65.8965,39.1422 66.0535,39.1422 C66.3805,39.1422 66.6415,39.4032 66.6415,39.7192 C66.6415,39.8752 66.5725,40.0332 66.4325,40.1542 C65.5855,40.9762 64.5805,41.5192 63.0585,41.5192 L63.0585,41.5192 Z" id="Fill-8" fill="#030100"></path>
                <path d="M50.5869,37.9836 L50.5869,37.1036 C49.9169,36.9096 49.0179,36.7146 47.9089,36.7146 C46.2029,36.7146 45.2499,37.4556 45.2499,38.5996 L45.2499,38.6346 C45.2499,39.7796 46.3069,40.4486 47.5399,40.4486 C49.2119,40.4486 50.5869,39.4266 50.5869,37.9836 M43.8769,38.6886 L43.8769,38.6526 C43.8769,36.7336 45.4619,35.7116 47.7679,35.7116 C48.9309,35.7116 49.7579,35.8696 50.5709,36.0996 L50.5709,35.7816 C50.5709,34.1446 49.5639,33.2976 47.8569,33.2976 C46.9409,33.2976 46.4079,33.4156 45.7369,33.7126 C45.6499,33.7496 45.5619,33.7666 45.4929,33.7666 C45.1749,33.7666 44.8929,33.5026 44.8929,33.1856 C44.8929,32.9046 45.0149,32.7306 45.2629,32.6216 C46.1599,32.2316 46.8359,32.1026 47.9979,32.1026 C49.2829,32.1026 50.2689,32.4356 50.9369,33.1056 C51.5539,33.7216 51.8719,34.6026 51.8719,35.7646 L51.8719,40.7906 C51.8719,41.1756 51.5899,41.4586 51.2179,41.4586 C50.8329,41.4586 50.5709,41.1756 50.5709,40.8246 L50.5709,39.9556 C49.9359,40.7846 48.8779,41.5236 47.2779,41.5236 C45.5859,41.5236 43.8769,40.5546 43.8769,38.6886" id="Fill-9" fill="#030100"></path>
                <path d="M8.6709,32.6721 C8.3729,32.0191 7.6349,31.7221 6.9469,32.0281 C6.2579,32.3351 6.0049,33.0991 6.3159,33.7531 L9.2049,40.0341 C9.6599,41.0191 10.1399,41.5351 11.0379,41.5351 C11.9989,41.5351 12.4169,40.9731 12.8709,40.0341 C12.8709,40.0341 15.3919,34.5451 15.4169,34.4881 C15.4429,34.4301 15.5239,34.2531 15.7799,34.2541 C15.9969,34.2571 16.1799,34.4291 16.1799,34.6611 L16.1799,40.0281 C16.1799,40.8571 16.6389,41.5351 17.5209,41.5351 C18.4029,41.5351 18.8799,40.8571 18.8799,40.0281 L18.8799,35.6381 C18.8799,34.7901 19.4869,34.2401 20.3139,34.2401 C21.1409,34.2401 21.6919,34.8101 21.6919,35.6381 L21.6919,40.0281 C21.6919,40.8571 22.1519,41.5351 23.0339,41.5351 C23.9159,41.5351 24.3949,40.8571 24.3949,40.0281 L24.3949,35.6381 C24.3949,34.7901 24.9989,34.2401 25.8269,34.2401 C26.6529,34.2401 27.2059,34.8101 27.2059,35.6381 L27.2059,40.0281 C27.2059,40.8571 27.6659,41.5351 28.5479,41.5351 C29.4289,41.5351 29.9079,40.8571 29.9079,40.0281 L29.9079,35.0301 C29.9079,33.1931 28.4309,31.9061 26.6529,31.9061 C24.8779,31.9061 23.7659,33.1351 23.7659,33.1351 C23.1749,32.3681 22.3599,31.9071 20.9819,31.9071 C19.5269,31.9071 18.2529,33.1351 18.2529,33.1351 C17.6619,32.3681 16.6549,31.9071 15.8209,31.9071 C14.5319,31.9071 13.5079,32.4751 12.8829,33.9031 L11.0379,38.2531 L8.6709,32.6721" id="Fill-10" fill="#030100"></path>
                <path d="M69.1853,33.2092 L69.1853,33.2062 C69.1853,32.7012 68.7953,32.2862 68.2743,32.2862 C67.7583,32.2862 67.3623,32.7082 67.3623,33.2092 L67.3623,33.2152 C67.3623,33.7202 67.7543,34.1342 68.2743,34.1342 C68.7893,34.1342 69.1853,33.7132 69.1853,33.2092 M67.1493,33.2172 L67.1493,33.2092 C67.1493,32.5952 67.6473,32.0772 68.2743,32.0772 C68.9103,32.0772 69.4013,32.5902 69.4013,33.2042 L69.4013,33.2092 C69.4013,33.8262 68.9043,34.3432 68.2743,34.3432 C67.6393,34.3432 67.1493,33.8332 67.1493,33.2172" id="Fill-11" fill="#030100"></path>
                <path d="M68.3279,33.1731 C68.4449,33.1731 68.5099,33.1111 68.5099,33.0191 L68.5099,33.0161 C68.5099,32.9131 68.4409,32.8601 68.3239,32.8601 L68.0839,32.8601 L68.0839,33.1731 L68.3279,33.1731 Z M67.8439,32.7641 C67.8439,32.6961 67.8969,32.6431 67.9649,32.6431 L68.3409,32.6431 C68.4819,32.6431 68.5919,32.6831 68.6599,32.7551 C68.7209,32.8151 68.7549,32.9021 68.7549,33.0031 L68.7549,33.0071 C68.7549,33.1791 68.6679,33.2831 68.5369,33.3391 L68.7029,33.5411 C68.7259,33.5711 68.7419,33.5961 68.7419,33.6331 C68.7419,33.6991 68.6849,33.7431 68.6279,33.7431 C68.5739,33.7431 68.5379,33.7171 68.5099,33.6821 L68.2759,33.3861 L68.0839,33.3861 L68.0839,33.6241 C68.0839,33.6911 68.0329,33.7431 67.9649,33.7431 C67.8969,33.7431 67.8439,33.6911 67.8439,33.6241 L67.8439,32.7641 Z" id="Fill-12" fill="#030100"></path>
            </g>
        </g>
    </g>
</svg>