<?xml version="1.0" encoding="UTF-8"?>
<svg width="75px" height="75px" viewBox="0 0 75 75" version="1.1" xmlns="http://www.w3.org/2000/svg" xmlns:xlink="http://www.w3.org/1999/xlink">
    <!-- Generator: Sketch 53 (72520) - https://sketchapp.com -->
    <title>Group</title>
    <desc>Created with Sketch.</desc>
    <defs>
        <polygon id="path-1" points="0.7583 0.334 49.258344 0.334 49.258344 31.3388 0.7583 31.3388"></polygon>
    </defs>
    <g id="Page-1" stroke="none" stroke-width="1" fill="none" fill-rule="evenodd">
        <g id="Logos-with-Names" transform="translate(-86.000000, -232.000000)">
            <g id="Group" transform="translate(87.000000, 233.000000)">
                <path d="M72.507,36.253 C72.507,56.275 56.276,72.506 36.254,72.506 C16.231,72.506 2.84217094e-14,56.275 2.84217094e-14,36.253 C2.84217094e-14,16.231 16.231,-1.42108547e-14 36.254,-1.42108547e-14 C56.276,-1.42108547e-14 72.507,16.231 72.507,36.253" id="Fill-1" fill="#FFFFFF"></path>
                <path d="M72.507,36.253 C72.507,56.275 56.276,72.506 36.254,72.506 C16.231,72.506 2.84217094e-14,56.275 2.84217094e-14,36.253 C2.84217094e-14,16.231 16.231,-1.42108547e-14 36.254,-1.42108547e-14 C56.276,-1.42108547e-14 72.507,16.231 72.507,36.253 Z" id="Stroke-3" stroke="#040201"></path>
                <g id="Group-14" transform="translate(4.500000, 15.657800)">
                    <path d="M45.2451,30.9409 L45.6081,29.9069 C46.6391,26.9779 49.5811,24.5759 52.3111,24.4399 L57.3391,24.1229 C57.5691,24.1119 57.7901,23.9279 57.8661,23.6839 C57.9141,23.5269 57.8961,23.3629 57.8151,23.2349 C57.7381,23.1139 57.6121,23.0389 57.4701,23.0309 L52.6311,22.7149 C51.4321,22.6529 50.4451,22.1229 49.8531,21.2189 C49.2101,20.2389 49.0671,18.9059 49.4511,17.4619 L50.3431,14.1049 C50.3761,13.9799 50.4631,13.8829 50.5721,13.8419 L50.5601,13.8349 L49.2591,13.2129 C49.2591,13.3199 49.2431,13.4279 49.2071,13.5289 L47.9001,17.2479 C46.8701,20.1769 43.9281,22.5799 41.2101,22.7149 L18.2991,23.0309 C18.0681,23.0429 17.8471,23.2269 17.7721,23.4699 C17.7231,23.6269 17.7411,23.7899 17.8201,23.9169 C17.8981,24.0399 18.0251,24.1149 18.1771,24.1239 L40.8781,24.4399 C42.0771,24.5009 43.0631,25.0329 43.6551,25.9359 C44.2991,26.9159 44.4421,28.2499 44.0581,29.6929 L43.7361,30.9059 C43.6691,31.1579 43.4581,31.3309 43.2181,31.3369 L45.4841,31.3369 C45.3021,31.3279 45.1791,31.1279 45.2451,30.9409" id="Fill-7" fill="#FFFFFF"></path>
                    <g id="Group-11">
                        <mask id="mask-2" fill="white">
                            <use xlink:href="#path-1"></use>
                        </mask>
                        <g id="Clip-10"></g>
                        <path d="M43.7363,30.9058 L44.0583,29.6928 C44.4423,28.2498 44.2993,26.9158 43.6553,25.9358 C43.0633,25.0328 42.0763,24.5008 40.8783,24.4398 L18.1773,24.1238 C18.0243,24.1148 17.8983,24.0408 17.8203,23.9168 C17.7413,23.7898 17.7233,23.6268 17.7723,23.4698 C17.8463,23.2268 18.0683,23.0428 18.2993,23.0308 L41.2103,22.7148 C43.9273,22.5798 46.8703,20.1768 47.9003,17.2478 L49.2073,13.5288 C49.2433,13.4278 49.2593,13.3208 49.2583,13.2128 C49.2583,13.1538 49.2543,13.0948 49.2423,13.0368 C47.7573,5.7678 41.8033,0.3328 34.6823,0.3328 C28.1223,0.3328 22.5513,4.9458 20.5533,11.3568 C19.2633,10.3028 17.6143,9.7428 15.8403,9.9358 C12.6923,10.2768 10.1633,13.0368 9.8513,16.4658 C9.7683,17.3558 9.8353,18.2148 10.0233,19.0218 C4.8823,19.1848 0.7583,23.7738 0.7583,29.4138 C0.7583,29.9248 0.7943,30.4258 0.8593,30.9168 C0.8923,31.1548 1.0763,31.3338 1.2973,31.3338 L43.2063,31.3388 C43.2103,31.3388 43.2143,31.3368 43.2183,31.3368 C43.4583,31.3308 43.6683,31.1578 43.7363,30.9058" id="Fill-9" fill="#F58220" mask="url(#mask-2)"></path>
                    </g>
                    <path d="M51.2988,13.8013 C51.0878,13.8013 50.8788,13.8073 50.6698,13.8193 C50.6358,13.8213 50.6028,13.8293 50.5718,13.8423 C50.4628,13.8833 50.3768,13.9793 50.3428,14.1043 L49.4508,17.4623 C49.0668,18.9053 49.2098,20.2383 49.8538,21.2183 C50.4458,22.1233 51.4328,22.6533 52.6308,22.7153 L57.4698,23.0313 C57.6128,23.0393 57.7378,23.1143 57.8148,23.2353 C57.8958,23.3633 57.9138,23.5273 57.8658,23.6843 C57.7898,23.9273 57.5698,24.1123 57.3398,24.1233 L52.3108,24.4393 C49.5808,24.5763 46.6388,26.9773 45.6088,29.9063 L45.2448,30.9413 C45.1788,31.1283 45.3018,31.3273 45.4838,31.3373 C45.4888,31.3373 45.4928,31.3393 45.4968,31.3393 L62.7988,31.3393 C63.0058,31.3393 63.1898,31.1923 63.2448,30.9763 C63.5458,29.8123 63.7058,28.5853 63.7058,27.3163 C63.7058,19.8513 58.1508,13.8013 51.2988,13.8013" id="Fill-12" fill="#FBAE40"></path>
                </g>
            </g>
        </g>
    </g>
</svg>