<?xml version="1.0" encoding="UTF-8"?>
<svg width="73px" height="73px" viewBox="0 0 73 73" version="1.1" xmlns="http://www.w3.org/2000/svg" xmlns:xlink="http://www.w3.org/1999/xlink">
    <!-- Generator: Sketch 53 (72520) - https://sketchapp.com -->
    <title>Group 11</title>
    <desc>Created with Sketch.</desc>
    <g id="Page-1" stroke="none" stroke-width="1" fill="none" fill-rule="evenodd">
        <g id="Logos-with-Names" transform="translate(-86.000000, -320.000000)">
            <g id="Group-11" transform="translate(86.000000, 320.000000)">
                <path d="M72.4585,36.4273 C72.4585,56.2693 56.3735,72.3543 36.5315,72.3543 C16.6895,72.3543 0.6045,56.2693 0.6045,36.4273 C0.6045,16.5853 16.6895,0.4993 36.5315,0.4993 C56.3735,0.4993 72.4585,16.5853 72.4585,36.4273" id="Fill-1" fill="#FFFFFF"></path>
                <path d="M72.4585,36.4273 C72.4585,56.2693 56.3735,72.3543 36.5315,72.3543 C16.6895,72.3543 0.6045,56.2693 0.6045,36.4273 C0.6045,16.5853 16.6895,0.4993 36.5315,0.4993 C56.3735,0.4993 72.4585,16.5853 72.4585,36.4273 Z" id="Stroke-3" stroke="#040201"></path>
                <path d="M61.2637,50.0142 C60.0817,49.8972 57.9847,49.6052 55.3597,50.9282 C52.7377,52.2502 51.7057,52.3082 50.4177,52.1712 C50.7977,52.8632 51.5637,53.8122 53.9747,53.9822 C56.3867,54.1522 57.5387,54.2262 56.2697,57.2312 C56.2997,56.3242 56.0877,54.5692 53.6937,54.8772 C51.3017,55.1852 50.7417,57.3392 53.3087,58.4142 C52.4747,58.5812 50.7047,58.6832 49.4407,55.3752 C48.5657,55.7562 47.2157,56.5182 44.7677,54.6292 C45.6197,54.9392 46.6747,54.9572 46.6747,54.9572 C44.5017,53.9202 42.4277,51.9922 41.0967,50.1692 C42.1517,50.9542 43.3157,51.7362 44.4907,51.8822 C43.1017,50.1872 39.8877,46.7962 35.9537,43.3122 C38.4827,44.9632 41.5347,47.5732 46.5267,46.9872 C51.5227,46.3992 54.8777,45.2542 61.2637,50.0142" id="Fill-6" fill="#EB3725"></path>
                <path d="M39.8894,48.8375 C36.7574,47.4795 36.0874,47.2085 32.0604,46.1855 C28.0344,45.1615 24.0744,43.0315 21.4254,39.7095 C23.2934,41.0785 27.1054,43.8295 31.0204,43.5305 C30.4244,42.6595 29.3274,41.9815 28.0164,41.2965 C29.4994,41.6515 33.9774,42.7975 39.8894,48.8375" id="Fill-7" fill="#EB3725"></path>
                <path d="M33.072,37.2476 C32.265,34.9306 30.809,31.9656 23.899,27.5596 C20.534,25.3386 15.595,22.5506 9.092,15.4386 C9.557,17.3556 11.612,22.3406 21.966,28.8096 C25.368,31.1316 29.758,32.5636 33.072,37.2476" id="Fill-8" fill="#EB3725"></path>
                <path d="M33.4988,40.6041 C32.6498,38.6441 30.9408,36.1281 24.2488,32.5381 C21.1628,30.8091 15.8898,28.1501 11.1498,23.0931 C11.5798,24.9181 13.7798,28.9281 23.2498,33.9371 C25.8738,35.3811 30.3078,36.7371 33.4988,40.6041" id="Fill-9" fill="#EB3725"></path>
                <path d="M58.8164,45.7759 C61.2894,46.1499 61.1664,46.6739 61.1924,47.5789 C60.1394,46.4279 58.8164,45.7759 58.8164,45.7759 M39.9894,30.4699 C26.9444,26.7379 21.7574,22.0279 17.7444,17.0949 C19.5764,22.7719 23.9464,24.8019 28.6164,28.6139 C33.2854,32.4249 33.5514,34.4739 34.9254,36.7249 C37.9904,41.7409 38.4784,42.5699 41.5184,44.7589 C45.1024,47.1379 49.4364,45.5279 54.1924,46.2749 C58.9464,47.0199 62.8764,50.6439 63.7314,52.0389 C64.7284,50.2599 62.3474,47.6979 61.7034,47.0539 C62.0474,44.7249 56.5394,43.7019 54.4534,42.9039 C54.0444,42.7479 53.0304,42.5139 53.9104,40.4229 C55.0954,37.5379 56.3294,35.0279 39.9894,30.4699" id="Fill-10" fill="#EB3725"></path>
            </g>
        </g>
    </g>
</svg>