<?xml version="1.0" encoding="UTF-8"?>
<svg width="75px" height="74px" viewBox="0 0 75 74" version="1.1" xmlns="http://www.w3.org/2000/svg" xmlns:xlink="http://www.w3.org/1999/xlink">
    <!-- Generator: Sketch 53 (72520) - https://sketchapp.com -->
    <title>Group 7</title>
    <desc>Created with Sketch.</desc>
    <g id="Page-1" stroke="none" stroke-width="1" fill="none" fill-rule="evenodd">
        <g id="Logos-with-Names" transform="translate(-650.000000, -158.000000)">
            <g id="Group-7" transform="translate(650.500000, 158.000000)">
                <path d="M73.324,36.912 C73.324,57.021 57.022,73.324 36.912,73.324 C16.802,73.324 0.5,57.021 0.5,36.912 C0.5,16.803 16.802,0.5 36.912,0.5 C57.022,0.5 73.324,16.803 73.324,36.912" id="Fill-1" fill="#FFFFFF"></path>
                <path d="M73.324,36.912 C73.324,57.021 57.022,73.324 36.912,73.324 C16.802,73.324 0.5,57.021 0.5,36.912 C0.5,16.803 16.802,0.5 36.912,0.5 C57.022,0.5 73.324,16.803 73.324,36.912 Z" id="Stroke-3" stroke="#040201"></path>
                <path d="M53.5771,39.078 C51.7181,41.349 49.4451,44.242 49.4451,44.242 C47.9431,45.99 46.2041,47.52 44.2801,48.788 C41.2161,51.078 37.5581,52.441 33.7431,52.714 L32.9171,52.714 L32.7101,52.507 L28.3711,48.168 C26.8371,46.594 25.3891,44.938 24.0321,43.209 C21.7421,40.145 20.3791,36.488 20.1061,32.673 L20.1061,31.226 L24.4451,27.301 C29.6111,22.962 34.9821,18.83 41.5941,18.83 L41.8001,18.83 L45.1061,23.169 C48.4111,27.508 52.5441,31.64 53.1641,37.838 C53.5771,37.838 53.5771,39.078 53.5771,39.078 M60.6021,38.871 C59.7751,29.986 53.7831,24.201 49.2381,17.797 C51.0981,14.904 55.6431,15.937 58.7421,16.557 C54.5481,13.573 49.6191,11.788 44.4861,11.392 C34.5691,11.392 26.7181,16.971 19.4871,23.376 C14.9421,21.723 18.0411,17.178 18.0411,13.872 C14.5811,18.825 12.8391,24.775 13.0821,30.813 C13.5211,36.224 15.3731,41.425 18.4541,45.895 C20.7261,48.375 22.7931,50.854 24.8581,53.126 C22.7931,56.64 18.4541,54.986 15.3551,54.366 C20.2571,57.771 26.1241,59.51 32.0901,59.325 C37.5391,58.909 42.7631,56.976 47.1721,53.747 C49.6511,51.474 51.9241,49.407 54.4031,47.343 C56.5541,50.111 57.0291,53.831 55.6431,57.052 C59.5611,51.849 61.3361,45.343 60.6021,38.871" id="Fill-6" fill="#1573BA"></path>
            </g>
        </g>
    </g>
</svg>