<?xml version="1.0" encoding="UTF-8"?>
<svg width="73px" height="73px" viewBox="0 0 73 73" version="1.1" xmlns="http://www.w3.org/2000/svg" xmlns:xlink="http://www.w3.org/1999/xlink">
    <!-- Generator: Sketch 53 (72520) - https://sketchapp.com -->
    <title>Group 13 Copy</title>
    <desc>Created with Sketch.</desc>
    <g id="Page-1" stroke="none" stroke-width="1" fill="none" fill-rule="evenodd">
        <g id="Logos-with-Names" transform="translate(-802.000000, -1061.000000)">
            <g id="Group-13-Copy" transform="translate(802.000000, 1061.396751)">
                <path d="M72.7295,35.9855 C72.7295,55.8595 56.6185,71.9695 36.7445,71.9695 C16.8705,71.9695 0.7595,55.8595 0.7595,35.9855 C0.7595,16.1115 16.8705,0.0005 36.7445,0.0005 C56.6185,0.0005 72.7295,16.1115 72.7295,35.9855" id="Fill-1" fill="#E02533"></path>
                <path d="M41.437,34.7238 L34.85,34.7238 C33.97,34.7238 33.97,34.7238 33.972,35.5968 C33.974,36.1668 33.974,36.1688 34.552,36.1688 C39.015,36.1698 43.479,36.1718 47.944,36.1668 C48.978,36.1658 48.858,36.3048 48.885,35.2408 C48.894,34.8558 48.793,34.7098 48.373,34.7138 C46.061,34.7358 43.749,34.7238 41.437,34.7238 L41.437,34.7238 Z M44.335,39.1678 C41.153,39.1678 37.971,39.1648 34.789,39.1698 C33.861,39.1708 33.981,39.0388 33.973,39.9718 C33.968,40.5938 33.973,40.5938 34.577,40.5938 L53.714,40.5938 C54.595,40.5938 54.595,40.5938 54.594,39.7248 C54.593,39.1688 54.593,39.1678 54.012,39.1678 L44.335,39.1678 Z M44.284,31.7758 C47.453,31.7758 50.621,31.7788 53.789,31.7738 C54.719,31.7728 54.584,31.8938 54.593,30.9608 C54.598,30.3408 54.594,30.3398 53.984,30.3398 L34.887,30.3398 C33.967,30.3398 33.985,30.3408 33.964,31.2688 C33.955,31.6638 34.065,31.7868 34.475,31.7858 C37.744,31.7678 41.014,31.7758 44.284,31.7758 L44.284,31.7758 Z M58.86,20.1918 C58.825,20.2048 58.789,20.2198 58.753,20.2338 C54.991,16.4228 51.229,12.6138 47.418,8.7518 L47.418,9.2258 C47.418,12.6868 47.417,16.1478 47.418,19.6088 C47.418,20.2078 47.418,20.2098 48.012,20.2098 C51.488,20.2108 54.963,20.2108 58.439,20.2098 C58.579,20.2098 58.72,20.1978 58.86,20.1918 L58.86,20.1918 Z M23.765,60.0458 C29.6,60.1448 35.002,55.3718 35.019,48.7878 C35.036,42.2688 29.825,37.5088 23.932,37.4348 C17.796,37.3588 12.562,42.2678 12.546,48.7078 C12.528,55.3608 17.968,60.1318 23.765,60.0458 L23.765,60.0458 Z M60.256,35.8188 C60.256,41.1258 60.256,46.4338 60.255,51.7418 C60.255,52.3588 60.254,52.3598 59.634,52.3598 C51.999,52.3598 44.365,52.3638 36.73,52.3488 C36.277,52.3478 36.093,52.4798 35.933,52.9118 C34.203,57.6198 30.887,60.5718 25.95,61.4738 C21.892,62.2148 18.258,61.0888 15.177,58.3348 C12.871,56.2738 11.5,53.6658 11.072,50.6128 C10.124,43.8488 14.392,37.7118 20.872,36.1578 C21.266,36.0638 21.67,36.0078 22.072,35.9548 C22.347,35.9188 22.505,35.8118 22.477,35.5098 C22.466,35.3948 22.476,35.2778 22.476,35.1608 C22.476,26.1748 22.476,17.1878 22.476,8.2018 C22.476,7.5448 22.477,7.5408 23.121,7.5408 C31.323,7.5398 39.524,7.5418 47.726,7.5368 C48.085,7.5368 48.358,7.6368 48.614,7.8978 C49.553,8.8508 50.506,9.7888 51.464,10.7238 C51.743,10.9958 52.069,11.2218 52.347,11.4948 C52.645,11.7868 52.897,12.1248 53.193,12.4188 C54.894,14.1108 56.601,15.7968 58.308,17.4828 C58.82,17.9898 59.322,18.5058 59.858,18.9878 C60.168,19.2668 60.264,19.5728 60.264,19.9828 C60.252,25.2608 60.256,30.5388 60.256,35.8188 L60.256,35.8188 Z" id="Fill-4" fill="#FFFFFF"></path>
                <path d="M20.7393,46.1632 C20.8703,46.1632 21.0003,46.1642 21.1313,46.1632 C21.6843,46.1612 21.6383,46.1582 21.6733,45.6102 C21.7093,45.0552 21.7633,44.4722 21.9613,43.9592 C22.2783,43.1372 22.9833,42.8242 23.8503,42.8452 C24.6803,42.8642 25.3533,43.1752 25.6253,43.9852 C25.7913,44.4762 25.8213,45.0252 25.8363,45.5512 C25.8503,46.0122 25.9313,46.1592 26.3883,46.1632 C26.6933,46.1662 26.9993,46.1422 27.3023,46.1692 C27.6843,46.2042 27.8073,46.0172 27.7673,45.6842 C27.6923,45.0522 27.6763,44.4002 27.5023,43.7962 C27.0423,42.2072 25.9633,41.2502 24.3083,41.0582 C22.8073,40.8842 21.5183,41.3402 20.6133,42.6112 C20.0763,43.3652 19.8843,44.2322 19.8393,45.1542 C19.7893,46.1652 19.7603,46.1632 20.7393,46.1632 M23.8073,46.6002 C22.5573,46.6002 21.3053,46.6422 20.0583,46.5862 C19.1303,46.5452 18.1543,47.1392 18.1373,48.4332 C18.1133,50.2052 18.1173,51.9782 18.1373,53.7512 C18.1473,54.6712 18.6303,55.3472 19.3903,55.5382 C19.7233,55.6222 20.0803,55.6372 20.4273,55.6382 C22.6653,55.6452 24.9033,55.6422 27.1413,55.6412 C27.3293,55.6412 27.5193,55.6332 27.7063,55.6112 C28.7973,55.4892 29.4073,54.8912 29.4273,53.7962 C29.4613,51.9942 29.4633,50.1912 29.4273,48.3902 C29.4033,47.1202 28.4273,46.5472 27.5123,46.5872 C26.2793,46.6412 25.0423,46.6002 23.8073,46.6002 M23.7653,60.0462 C17.9683,60.1322 12.5283,55.3602 12.5453,48.7082 C12.5623,42.2672 17.7963,37.3582 23.9313,37.4342 C29.8243,37.5092 35.0363,42.2682 35.0193,48.7882 C35.0023,55.3722 29.5993,60.1442 23.7653,60.0462" id="Fill-5" fill="#E02533"></path>
                <path d="M58.8604,20.1915 C58.7204,20.1975 58.5794,20.2105 58.4394,20.2105 C54.9634,20.2115 51.4884,20.2115 48.0124,20.2105 C47.4184,20.2105 47.4174,20.2085 47.4174,19.6085 C47.4174,16.1475 47.4174,12.6865 47.4174,9.2255 L47.4174,8.7525 C51.2294,12.6135 54.9914,16.4225 58.7534,20.2335 C58.7894,20.2195 58.8244,20.2055 58.8604,20.1915" id="Fill-6" fill="#E02533"></path>
                <path d="M44.2844,31.7755 C41.0144,31.7755 37.7444,31.7675 34.4744,31.7855 C34.0654,31.7875 33.9544,31.6645 33.9634,31.2685 C33.9854,30.3405 33.9674,30.3395 34.8874,30.3395 L53.9834,30.3395 C54.5934,30.3395 54.5984,30.3405 54.5924,30.9615 C54.5844,31.8935 54.7194,31.7725 53.7894,31.7735 C50.6214,31.7785 47.4524,31.7755 44.2844,31.7755" id="Fill-7" fill="#E02533"></path>
                <path d="M44.335,39.1681 L54.012,39.1681 C54.593,39.1681 54.593,39.1691 54.594,39.7251 C54.595,40.5941 54.595,40.5941 53.714,40.5941 L34.577,40.5941 C33.973,40.5941 33.968,40.5941 33.973,39.9721 C33.981,39.0391 33.861,39.1711 34.789,39.1701 C37.971,39.1651 41.153,39.1681 44.335,39.1681" id="Fill-8" fill="#E02533"></path>
                <path d="M41.437,34.7238 C43.749,34.7238 46.061,34.7358 48.373,34.7138 C48.793,34.7098 48.894,34.8558 48.885,35.2408 C48.858,36.3048 48.978,36.1658 47.944,36.1668 C43.479,36.1718 39.015,36.1698 34.552,36.1688 C33.974,36.1688 33.974,36.1668 33.972,35.5968 C33.97,34.7238 33.97,34.7238 34.85,34.7238 L41.437,34.7238 Z" id="Fill-9" fill="#E02533"></path>
                <path d="M24.8291,50.6505 C24.8201,50.1655 24.4511,49.6855 24.0981,49.5785 C23.6581,49.4445 23.2071,49.5965 22.9421,49.9685 C22.6791,50.3385 22.6291,50.8255 22.9651,51.1265 C23.3561,51.4775 23.3291,51.8815 23.3281,52.3135 C23.3281,52.4875 23.2831,52.6905 23.3571,52.8265 C23.4451,52.9905 23.6401,53.2015 23.7881,53.2005 C23.9351,53.1995 24.1521,52.9855 24.2091,52.8205 C24.2851,52.5995 24.2481,52.3345 24.2381,52.0885 C24.2241,51.7435 24.2781,51.4515 24.5561,51.1895 C24.7201,51.0365 24.7741,50.7655 24.8291,50.6505 M23.8071,46.5995 C25.0421,46.5995 26.2791,46.6405 27.5121,46.5875 C28.4271,46.5465 29.4031,47.1205 29.4281,48.3895 C29.4631,50.1915 29.4611,51.9945 29.4281,53.7965 C29.4071,54.8905 28.7981,55.4895 27.7061,55.6115 C27.5191,55.6325 27.3291,55.6405 27.1411,55.6405 C24.9031,55.6425 22.6651,55.6455 20.4271,55.6375 C20.0801,55.6365 19.7231,55.6225 19.3901,55.5385 C18.6301,55.3465 18.1471,54.6715 18.1371,53.7515 C18.1171,51.9785 18.1131,50.2055 18.1371,48.4325 C18.1541,47.1385 19.1311,46.5455 20.0581,46.5865 C21.3051,46.6415 22.5571,46.5995 23.8071,46.5995" id="Fill-10" fill="#FFFFFF"></path>
                <path d="M20.7393,46.1632 C19.7603,46.1632 19.7893,46.1652 19.8393,45.1542 C19.8843,44.2322 20.0763,43.3652 20.6133,42.6112 C21.5183,41.3402 22.8073,40.8842 24.3083,41.0582 C25.9633,41.2502 27.0423,42.2072 27.5023,43.7962 C27.6763,44.4002 27.6923,45.0522 27.7673,45.6842 C27.8073,46.0172 27.6843,46.2042 27.3023,46.1692 C26.9993,46.1422 26.6933,46.1662 26.3883,46.1632 C25.9313,46.1592 25.8503,46.0122 25.8363,45.5512 C25.8213,45.0252 25.7913,44.4762 25.6253,43.9852 C25.3533,43.1752 24.6803,42.8642 23.8503,42.8452 C22.9833,42.8242 22.2783,43.1372 21.9613,43.9592 C21.7633,44.4722 21.7093,45.0552 21.6733,45.6102 C21.6383,46.1582 21.6843,46.1612 21.1313,46.1632 C21.0003,46.1642 20.8703,46.1632 20.7393,46.1632" id="Fill-11" fill="#FFFFFF"></path>
            </g>
        </g>
    </g>
</svg>