<?xml version="1.0" encoding="UTF-8"?>
<svg width="74px" height="73px" viewBox="0 0 74 73" version="1.1" xmlns="http://www.w3.org/2000/svg" xmlns:xlink="http://www.w3.org/1999/xlink">
    <!-- Generator: Sketch 53 (72520) - https://sketchapp.com -->
    <title>Group 9</title>
    <desc>Created with Sketch.</desc>
    <g id="Page-1" stroke="none" stroke-width="1" fill="none" fill-rule="evenodd">
        <g id="Logos-with-Names" transform="translate(-286.000000, -327.000000)">
            <g id="Group-9" transform="translate(287.000000, 326.000000)">
                <g id="Group-5" transform="translate(0.000000, 0.881000)">
                    <path d="M72.1035,36.6045 C72.1035,56.4785 55.9925,72.5885 36.1185,72.5885 C16.2445,72.5885 0.1335,56.4785 0.1335,36.6045 C0.1335,16.7305 16.2445,0.6195 36.1185,0.6195 C55.9925,0.6195 72.1035,16.7305 72.1035,36.6045" id="Fill-1" fill="#FFFFFF"></path>
                    <path d="M72.1035,36.6045 C72.1035,56.4785 55.9925,72.5885 36.1185,72.5885 C16.2445,72.5885 0.1335,56.4785 0.1335,36.6045 C0.1335,16.7305 16.2445,0.6195 36.1185,0.6195 C55.9925,0.6195 72.1035,16.7305 72.1035,36.6045 Z" id="Stroke-3" stroke="#040201"></path>
                </g>
                <g id="Group-8" transform="translate(9.000000, 8.881000)" fill="#161614">
                    <path d="M20.6943,42.3662 C20.7323,42.5772 20.5153,42.7942 20.2063,42.8512 C19.9023,42.9072 19.6203,42.7762 19.5823,42.5672 C19.5443,42.3512 19.7643,42.1352 20.0683,42.0792 C20.3783,42.0252 20.6543,42.1522 20.6943,42.3662 M18.5343,42.4492 C18.5423,42.6652 18.2903,42.8452 17.9793,42.8482 C17.6663,42.8552 17.4133,42.6802 17.4093,42.4682 C17.4093,42.2502 17.6553,42.0722 17.9683,42.0672 C18.2793,42.0602 18.5343,42.2342 18.5343,42.4492 M16.3363,42.2052 C16.2733,42.4102 15.9793,42.5042 15.6823,42.4162 C15.3863,42.3272 15.1923,42.0872 15.2523,41.8792 C15.3133,41.6732 15.6093,41.5752 15.9083,41.6692 C16.2043,41.7582 16.3983,41.9972 16.3363,42.2052 M14.4043,41.6302 C14.2613,41.7882 13.9553,41.7462 13.7323,41.5302 C13.5033,41.3192 13.4393,41.0192 13.5833,40.8612 C13.7283,40.7022 14.0363,40.7472 14.2613,40.9612 C14.4883,41.1722 14.5583,41.4732 14.4043,41.6302 M12.9103,39.9272 C12.7503,40.0382 12.4873,39.9332 12.3253,39.7012 C12.1653,39.4682 12.1653,39.1882 12.3283,39.0772 C12.4913,38.9652 12.7503,39.0652 12.9143,39.2972 C13.0743,39.5332 13.0743,39.8122 12.9103,39.9272 M12.0263,38.4562 C11.9023,38.5722 11.6573,38.5182 11.4913,38.3352 C11.3203,38.1522 11.2883,37.9082 11.4153,37.7912 C11.5443,37.6762 11.7803,37.7292 11.9523,37.9122 C12.1233,38.0962 12.1573,38.3392 12.0263,38.4562 M10.7383,37.3062 C10.6803,37.4362 10.4763,37.4752 10.2893,37.3872 C10.0993,37.3012 9.9923,37.1242 10.0543,36.9932 C10.1113,36.8592 10.3163,36.8222 10.5053,36.9122 C10.6953,36.9972 10.8043,37.1772 10.7383,37.3062 M27.1183,0.0002 C12.6563,0.0002 0.9293,11.7252 0.9293,26.1892 C0.9293,37.7602 8.4333,47.5772 18.8393,51.0402 C20.1483,51.2822 20.6293,50.4712 20.6293,49.7802 C20.6293,49.1552 20.6043,47.0932 20.5933,44.9042 C13.3073,46.4882 11.7703,41.8142 11.7703,41.8142 C10.5783,38.7872 8.8623,37.9822 8.8623,37.9822 C6.4863,36.3562 9.0413,36.3892 9.0413,36.3892 C11.6713,36.5752 13.0553,39.0892 13.0553,39.0892 C15.3913,43.0932 19.1823,41.9352 20.6763,41.2652 C20.9123,39.5732 21.5903,38.4182 22.3393,37.7632 C16.5223,37.1012 10.4073,34.8562 10.4073,24.8212 C10.4073,21.9622 11.4303,19.6262 13.1063,17.7922 C12.8343,17.1322 11.9383,14.4692 13.3603,10.8612 C13.3603,10.8612 15.5593,10.1572 20.5633,13.5462 C22.6523,12.9662 24.8933,12.6752 27.1183,12.6652 C29.3443,12.6752 31.5863,12.9662 33.6793,13.5462 C38.6773,10.1572 40.8743,10.8612 40.8743,10.8612 C42.2993,14.4692 41.4023,17.1322 41.1313,17.7922 C42.8103,19.6262 43.8263,21.9622 43.8263,24.8212 C43.8263,34.8802 37.6993,37.0952 31.8673,37.7432 C32.8073,38.5552 33.6443,40.1492 33.6443,42.5932 C33.6443,46.0962 33.6133,48.9172 33.6133,49.7802 C33.6133,50.4762 34.0853,51.2932 35.4123,51.0362 C45.8123,47.5692 53.3073,37.7562 53.3073,26.1892 C53.3073,11.7252 41.5813,0.0002 27.1183,0.0002" id="Fill-7"></path>
                </g>
            </g>
        </g>
    </g>
</svg>