<?xml version="1.0" encoding="UTF-8"?>
<svg width="74px" height="74px" viewBox="0 0 74 74" version="1.1" xmlns="http://www.w3.org/2000/svg" xmlns:xlink="http://www.w3.org/1999/xlink">
    <!-- Generator: Sketch 53 (72520) - https://sketchapp.com -->
    <title>Group 43</title>
    <desc>Created with Sketch.</desc>
    <g id="Page-1" stroke="none" stroke-width="1" fill="none" fill-rule="evenodd">
        <g id="Logos-with-Names" transform="translate(-279.000000, -143.000000)">
            <g id="Group-43" transform="translate(279.000000, 143.000000)">
                <path d="M73.164,36.8319 C73.164,56.8969 56.897,73.1639 36.832,73.1639 C16.767,73.1639 0.5,56.8969 0.5,36.8319 C0.5,16.7669 16.767,0.4999 36.832,0.4999 C56.897,0.4999 73.164,16.7669 73.164,36.8319" id="Fill-1" fill="#FFFFFF"></path>
                <path d="M73.164,36.8319 C73.164,56.8969 56.897,73.1639 36.832,73.1639 C16.767,73.1639 0.5,56.8969 0.5,36.8319 C0.5,16.7669 16.767,0.4999 36.832,0.4999 C56.897,0.4999 73.164,16.7669 73.164,36.8319 Z" id="Stroke-3" stroke="#040201"></path>
                <polygon id="Fill-6" fill="#4C81C2" points="67.7172 26.576 57.8142 26.576 58.4242 24.869 67.7172 24.869"></polygon>
                <path d="M41.3173,24.868 L50.5123,24.867 L51.1143,26.579 C51.1183,26.576 41.3203,26.581 41.3203,26.579 C41.3203,26.576 41.3153,24.868 41.3173,24.868" id="Fill-7" fill="#4C81C2"></path>
                <path d="M34.015,24.868 C35.531,25.014 36.848,25.555 37.97,26.579 C37.97,26.579 21.304,26.58 21.304,26.579 L21.304,24.868 L34.015,24.868 Z" id="Fill-8" fill="#4C81C2"></path>
                <polygon id="Fill-9" fill="#4C81C2" points="8.225 26.5753 19.803 26.5753 19.803 24.8683 8.225 24.8683"></polygon>
                <path d="M67.7172,29.7801 L56.6792,29.7801 C56.6792,29.7801 57.2812,28.0811 57.2782,28.0811 L67.7172,28.0811 L67.7172,29.7801 Z" id="Fill-10" fill="#4C81C2"></path>
                <polygon id="Fill-11" fill="#4C81C2" points="52.2514 29.7821 41.3174 29.7821 41.3174 28.0801 51.6524 28.0801"></polygon>
                <path d="M39.268,28.0799 C39.488,28.6409 39.747,29.1199 39.747,29.7789 L21.307,29.7789 L21.307,28.0799 L39.268,28.0799 Z" id="Fill-12" fill="#4C81C2"></path>
                <polygon id="Fill-13" fill="#4C81C2" points="8.225 29.7793 19.803 29.7793 19.803 28.0803 8.225 28.0803"></polygon>
                <polygon id="Fill-14" fill="#4C81C2" points="55.5502 32.991 56.1562 31.284 64.4442 31.287 64.4442 32.987"></polygon>
                <polygon id="Fill-15" fill="#4C81C2" points="52.7836 31.284 53.3876 32.991 44.5766 32.991 44.5766 31.284"></polygon>
                <path d="M39.8939,31.283 C39.8939,31.869 39.8199,32.478 39.6499,32.991 L34.6009,32.991 L34.6009,31.283 L39.8939,31.283 Z" id="Fill-16" fill="#4C81C2"></path>
                <polygon id="Fill-17" fill="#4C81C2" points="11.452 32.9913 16.429 32.9913 16.429 31.2923 11.452 31.2923"></polygon>
                <polygon id="Fill-18" fill="#4C81C2" points="24.657 32.9913 29.625 32.9913 29.625 31.2833 24.657 31.2833"></polygon>
                <path d="M49.4711,34.8348 C49.4711,34.8348 49.4721,36.1268 49.4711,36.1298 L44.5771,36.1298 L44.5771,34.4308 L53.9031,34.4308 L54.4821,36.0148 C54.4851,36.0158 55.0411,34.4268 55.0421,34.4298 L64.4411,34.4297958 L64.4411,36.1298 L59.5711,36.1298 C59.5711,36.1268 59.5681,34.8348 59.5681,34.8348 L59.1171,36.1298 L49.9211,36.1268 L49.4711,34.8348 Z" id="Fill-19" fill="#4C81C2"></path>
                <path d="M24.6566,34.4295 L38.9176,34.4295 C38.6056,34.9985 38.0396,35.6905 37.5036,36.1295 C37.5036,36.1295 24.6566,36.1315 24.6566,36.1295 C24.6566,36.1265 24.6566,34.4335 24.6566,34.4295" id="Fill-20" fill="#4C81C2"></path>
                <polygon id="Fill-21" fill="#4C81C2" points="11.452 36.1283 16.429 36.1283 16.429 34.4293 11.452 34.4293"></polygon>
                <polygon id="Fill-22" fill="#4C81C2" points="59.571 39.3323 64.441 39.3323 64.441 37.6333 59.571 37.6333"></polygon>
                <path d="M49.4711,37.6336 L44.5770994,37.6336 L44.5771,39.3326 C44.5751,39.3316 49.4721,39.3336 49.4721,39.3326 C49.4721,39.3316 49.4781,37.6336 49.4711,37.6336" id="Fill-23" fill="#4C81C2"></path>
                <path d="M58.5873,37.6335982 C58.5653,37.6316 58.0173,39.3316 57.9943,39.3326 L51.0573,39.3356 C51.0513,39.3336 50.4473,37.6316 50.4463,37.6335982 L58.5873,37.6335982 Z" id="Fill-24" fill="#4C81C2"></path>
                <path d="M24.6561,37.6336 L37.4791,37.6336 C38.0641,38.1216 38.5931,38.7236 39.0081,39.3326 C39.0311,39.3316 24.6561,39.3336 24.6561,39.3326 L24.6561,37.6336 Z" id="Fill-25" fill="#4C81C2"></path>
                <path d="M16.4276,39.3328 L16.4276,37.6338 L11.4605998,37.6338 C11.4605998,37.6338 11.4616,39.3318 11.4606,39.3318 C11.4596,39.3318 16.4256,39.3328 16.4276,39.3328" id="Fill-26" fill="#4C81C2"></path>
                <polygon id="Fill-27" fill="#4C81C2" points="59.571 42.5363 64.441 42.5363 64.441 40.8373 59.571 40.8373"></polygon>
                <polygon id="Fill-28" fill="#4C81C2" points="44.577 42.5363 49.471 42.5363 49.471 40.8373 44.577 40.8373"></polygon>
                <path d="M56.8549,42.5448 C56.8559,42.5368 57.4559,40.8358 57.4649,40.8377982 L51.5679,40.8378 C51.5579,40.8368 52.1729,42.5368 52.1729,42.5368 C52.1729,42.5368 56.8539,42.5518 56.8549,42.5448" id="Fill-29" fill="#4C81C2"></path>
                <path d="M24.6561,42.5369 L24.6561,40.8369 L29.6981,40.8369 C29.6981,40.8369 29.7021,42.5369 29.6981,42.5369 C29.6931,42.5369 24.6561,42.5349 24.6561,42.5369" id="Fill-30" fill="#4C81C2"></path>
                <path d="M39.7152,40.8367 C39.9592,41.3497 39.9832,41.9587 40.0322,42.5447 L34.6902,42.5447 L34.6902,40.8367 L39.7152,40.8367 Z" id="Fill-31" fill="#4C81C2"></path>
                <polygon id="Fill-32" fill="#4C81C2" points="11.46 42.5353 16.427 42.5353 16.427 40.8363 11.46 40.8363"></polygon>
                <polygon id="Fill-33" fill="#4C81C2" points="59.571 45.6753 67.717 45.6753 67.717 43.9753 59.571 43.9753"></polygon>
                <polygon id="Fill-34" fill="#4C81C2" points="41.317 45.6753 49.471 45.6753 49.471 43.9753 41.317 43.9753"></polygon>
                <polygon id="Fill-35" fill="#4C81C2" points="55.7592 45.6756 53.2722 45.6756 52.6752 43.9756 56.3342 43.9756"></polygon>
                <path d="M8.22448733,43.9754 L8.22448733,45.674404 L19.7945,45.6744 C19.7995,45.6774 19.7895,43.9764 19.7945,43.9764 C19.7995,43.9764 8.2105,43.9754 8.22448733,43.9754" id="Fill-36" fill="#4C81C2"></path>
                <path d="M39.8202,43.9754 C39.6982,44.5364 39.5872,45.2194 39.1772,45.6754 L39.0242,45.6744 L21.3062,45.6744 L21.3062,43.9754 L39.8202,43.9754 Z" id="Fill-37" fill="#4C81C2"></path>
                <polygon id="Fill-38" fill="#4C81C2" points="54.6317 48.8826 54.4027 48.8826 53.8217 47.1796 55.2287 47.1796"></polygon>
                <polygon id="Fill-39" fill="#4C81C2" points="59.571 48.8863 67.717 48.8863 67.717 47.1793 59.571 47.1793"></polygon>
                <path d="M21.3036,48.8826 L21.3036,47.1826 C21.3036,47.1826 38.0196,47.1846 38.0676,47.1846 C36.9456,48.2566 35.4056,48.8626 33.7466,48.8866 L21.3056,48.8836" id="Fill-40" fill="#4C81C2"></path>
                <polygon id="Fill-41" fill="#4C81C2" points="41.317 48.8863 49.471 48.8863 49.471 47.1793 41.317 47.1793"></polygon>
                <path d="M19.7943,47.1873 C19.7943,47.1873 19.7893,48.8823 19.7943,48.8823 C19.7993,48.8823 8.2283,48.8893 8.2243,48.8863 C8.2213,48.8823 8.2273,47.1823 8.2243,47.1823 C8.2213,47.1823 19.7893,47.1923 19.7943,47.1873" id="Fill-42" fill="#4C81C2"></path>
            </g>
        </g>
    </g>
</svg>