<?xml version="1.0" encoding="UTF-8"?>
<svg width="74px" height="75px" viewBox="0 0 74 75" version="1.1" xmlns="http://www.w3.org/2000/svg" xmlns:xlink="http://www.w3.org/1999/xlink">
    <!-- Generator: Sketch 53 (72520) - https://sketchapp.com -->
    <title>Group 2 Copy</title>
    <desc>Created with Sketch.</desc>
    <g id="Page-1" stroke="none" stroke-width="1" fill="none" fill-rule="evenodd">
        <g id="Logos-with-Names" transform="translate(-936.000000, -723.000000)">
            <g id="Group-2-Copy" transform="translate(936.500000, 723.924639)">
                <path d="M36.6399,2.27373675e-13 C56.8299,2.27373675e-13 73.1969,16.367 73.1969,36.557 C73.1969,56.746 56.8299,73.113 36.6399,73.113 C16.4499,73.113 0.0839,56.746 0.0839,36.557 C0.0839,16.367 16.4499,2.27373675e-13 36.6399,2.27373675e-13" id="Fill-2" fill="#00B19D"></path>
                <path d="M47.9238,38.2382 C49.8468,35.9782 51.2508,33.4582 51.8478,30.5212 C52.8268,25.7042 51.8838,21.2912 49.0978,17.2572 C48.9958,17.1102 48.9028,16.9572 48.8058,16.8072 C52.2708,16.8002 55.7368,16.7992 59.2018,16.7782 C59.6108,16.7752 59.6778,16.9382 59.6778,17.2962 C59.6698,24.1142 59.6698,30.9332 59.6768,37.7522 C59.6778,38.1122 59.6018,38.2732 59.1958,38.2702 C55.4388,38.2502 51.6818,38.2462 47.9238,38.2382" id="Fill-3" fill="#FFFFFF"></path>
                <path d="M47.9238,38.2382 C49.8468,35.9782 51.2508,33.4582 51.8478,30.5212 C52.8268,25.7042 51.8838,21.2912 49.0978,17.2572 C48.9958,17.1102 48.9028,16.9572 48.8058,16.8072 C52.2708,16.8002 55.7368,16.7992 59.2018,16.7782 C59.6108,16.7752 59.6778,16.9382 59.6778,17.2962 C59.6698,24.1142 59.6698,30.9332 59.6768,37.7522 C59.6778,38.1122 59.6018,38.2732 59.1958,38.2702 C55.4388,38.2502 51.6818,38.2462 47.9238,38.2382 Z" id="Stroke-4" stroke="#00B19D" stroke-width="1.614"></path>
                <path d="M24.5376,39.6445 C26.7606,41.4525 29.2246,42.7615 32.0556,43.3405 C34.5356,43.8485 36.9996,43.8095 39.4596,43.2325 C39.6546,43.1855 39.8536,43.1535 40.0516,43.1145 C40.0566,46.0635 40.0556,49.0135 40.0736,51.9625 C40.0756,52.3405 39.9646,52.4685 39.5776,52.4675 C34.7136,52.4575 29.8496,52.4575 24.9856,52.4655 C24.6416,52.4655 24.5106,52.3665 24.5126,52.0065 C24.5286,47.8855 24.5316,43.7655 24.5376,39.6445" id="Fill-5" fill="#FFFFFF"></path>
                <path d="M24.5376,39.6445 C26.7606,41.4525 29.2246,42.7615 32.0556,43.3405 C34.5356,43.8485 36.9996,43.8095 39.4596,43.2325 C39.6546,43.1855 39.8536,43.1535 40.0516,43.1145 C40.0566,46.0635 40.0556,49.0135 40.0736,51.9625 C40.0756,52.3405 39.9646,52.4685 39.5776,52.4675 C34.7136,52.4575 29.8496,52.4575 24.9856,52.4655 C24.6416,52.4655 24.5106,52.3665 24.5126,52.0065 C24.5286,47.8855 24.5316,43.7655 24.5376,39.6445 Z" id="Stroke-6" stroke="#00B19D" stroke-width="1.614"></path>
                <path d="M40.7468,42.8955 C43.2448,42.0115 45.4528,40.6585 47.3638,38.8215 C48.2638,38.8255 49.1638,38.8435 50.0638,38.8265 C50.4538,38.8185 50.6228,38.9135 50.6218,39.3475 C50.6078,43.5555 50.6098,47.7635 50.6198,51.9715 C50.6198,52.3515 50.4978,52.4795 50.1158,52.4785 C47.1678,52.4665 44.2198,52.4655 41.2728,52.4795 C40.8658,52.4805 40.7228,52.3585 40.7248,51.9415 C40.7438,48.9265 40.7418,45.9115 40.7468,42.8955" id="Fill-7" fill="#FFFFFF"></path>
                <path d="M40.7468,42.8955 C43.2448,42.0115 45.4528,40.6585 47.3638,38.8215 C48.2638,38.8255 49.1638,38.8435 50.0638,38.8265 C50.4538,38.8185 50.6228,38.9135 50.6218,39.3475 C50.6078,43.5555 50.6098,47.7635 50.6198,51.9715 C50.6198,52.3515 50.4978,52.4795 50.1158,52.4785 C47.1678,52.4665 44.2198,52.4655 41.2728,52.4795 C40.8658,52.4805 40.7228,52.3585 40.7248,51.9415 C40.7438,48.9265 40.7418,45.9115 40.7468,42.8955 Z" id="Stroke-8" stroke="#00B19D" stroke-width="1.614"></path>
                <path d="M59.5479,45.6318 C59.5479,47.6808 59.5269,49.7308 59.5609,51.7788 C59.5709,52.3598 59.3749,52.4898 58.8309,52.4838 C56.4889,52.4568 54.1459,52.4598 51.8049,52.4828 C51.3209,52.4868 51.1389,52.3838 51.1419,51.8558 C51.1629,47.7118 51.1619,43.5678 51.1439,39.4238 C51.1419,38.9378 51.3059,38.8198 51.7649,38.8238 C54.1519,38.8428 56.5389,38.8478 58.9259,38.8198 C59.4519,38.8148 59.5639,38.9968 59.5579,39.4838 C59.5339,41.5318 59.5479,43.5818 59.5479,45.6318" id="Fill-9" fill="#FFFFFF"></path>
                <path d="M59.5479,45.6318 C59.5479,47.6808 59.5269,49.7308 59.5609,51.7788 C59.5709,52.3598 59.3749,52.4898 58.8309,52.4838 C56.4889,52.4568 54.1459,52.4598 51.8049,52.4828 C51.3209,52.4868 51.1389,52.3838 51.1419,51.8558 C51.1629,47.7118 51.1619,43.5678 51.1439,39.4238 C51.1419,38.9378 51.3059,38.8198 51.7649,38.8238 C54.1519,38.8428 56.5389,38.8478 58.9259,38.8198 C59.4519,38.8148 59.5639,38.9968 59.5579,39.4838 C59.5339,41.5318 59.5479,43.5818 59.5479,45.6318 Z" id="Stroke-10" stroke="#00B19D" stroke-width="1.614"></path>
                <path d="M20.5503,38.33 C20.6453,38.402 20.7413,38.46 20.8183,38.536 C21.8543,39.57 22.8813,40.613 23.9273,41.638 C24.1743,41.879 24.1173,42.018 23.9013,42.232 C19.9953,46.129 16.0953,50.032 12.1963,53.936 C12.0033,54.13 11.8793,54.246 11.6183,53.976 C10.6183,52.938 9.5973,51.921 8.5623,50.918 C8.2933,50.657 8.3453,50.514 8.5813,50.278 C12.4893,46.382 16.3883,42.478 20.2903,38.577 C20.3683,38.498 20.4513,38.423 20.5503,38.33" id="Fill-11" fill="#FFFFFF"></path>
                <path d="M42.1262,56.8076 L25.3612,56.8076 C25.2262,56.8076 25.0912,56.8066 24.9562,56.8076 C24.7312,56.8076 24.5122,56.8496 24.5082,56.4876 C24.5042,56.1456 24.6432,56.0876 24.9472,56.0746 C26.2752,56.0166 26.2752,56.0066 26.2752,54.7426 C26.2752,53.7156 26.2742,53.7366 25.2502,53.7006 C24.9932,53.6916 24.5102,53.9796 24.5162,53.3466 C24.5172,53.1426 24.5462,52.9906 24.8022,53.0046 C24.9362,53.0126 25.0722,53.0046 25.2072,53.0046 L59.0072,53.0046 C59.1422,53.0046 59.2782,53.0096 59.4132,53.0046 C59.6882,52.9956 59.6672,53.1856 59.6732,53.3706 C59.6792,53.5756 59.6442,53.7316 59.3892,53.7126 C59.3442,53.7096 59.2982,53.7076 59.2542,53.7146 C58.8232,53.7776 58.1352,53.4976 58.0082,53.8666 C57.8052,54.4506 57.9392,55.1536 57.9422,55.8056 C57.9442,56.0346 58.1352,56.0186 58.2912,56.0206 C58.6292,56.0256 58.9682,56.0376 59.3042,56.0186 C59.6172,56.0006 59.6722,56.1536 59.6792,56.4256 C59.6862,56.7166 59.5932,56.8166 59.2962,56.8126 C58.1472,56.7986 56.9982,56.8066 55.8492,56.8066 C51.2752,56.8066 46.7002,56.8066 42.1262,56.8076" id="Fill-12" fill="#FFFFFF"></path>
                <path d="M24.4917,35.6054 C24.5007,32.2064 24.5267,28.8074 24.5017,25.4094 C24.4967,24.7674 24.6967,24.6334 25.2977,24.6354 C31.1067,24.6574 36.9147,24.6574 42.7227,24.6364 C43.3507,24.6334 43.5807,24.7814 43.5757,25.4564 C43.5457,29.4184 43.5627,33.3794 43.5607,37.3414 C43.5607,38.2744 43.5577,38.2744 42.6207,38.2754 C37.4887,38.2774 32.3557,38.2804 27.2237,38.2824 C26.1467,37.5594 25.2307,36.6724 24.4917,35.6054" id="Fill-13" fill="#FFFFFF"></path>
                <path d="M49.261,53.7461 C50.995,53.7461 52.73,53.7601 54.463,53.7371 C54.906,53.7311 55.091,53.8081 55.088,54.3131 C55.08,56.0221 55.102,56.0221 53.383,56.0221 C50.298,56.0221 47.212,56.0111 44.127,56.0341 C43.624,56.0381 43.477,55.9081 43.483,55.3961 C43.5,53.7461 43.478,53.7461 45.139,53.7461 L49.261,53.7461 Z" id="Fill-14" fill="#00B19D"></path>
                <path d="M34.8806,56.0224 C33.1466,56.0224 31.4126,56.0104 29.6786,56.0324 C29.2546,56.0374 29.1026,55.9434 29.1026,55.4824 C29.1006,53.7464 29.0816,53.7464 30.7876,53.7464 C33.8726,53.7464 36.9586,53.7554 40.0436,53.7364 C40.5266,53.7334 40.7106,53.8344 40.7076,54.3644 C40.6966,56.0224 40.7196,56.0224 39.0696,56.0224 L34.8806,56.0224 Z" id="Fill-15" fill="#00B19D"></path>
                <path d="M51.561,26.9238 C51.561,35.9178 44.27,43.2088 35.276,43.2088 C26.282,43.2088 18.991,35.9178 18.991,26.9238 C18.991,17.9298 26.282,10.6388 35.276,10.6388 C44.27,10.6388 51.561,17.9298 51.561,26.9238 Z" id="Stroke-16" stroke="#FFFFFF" stroke-width="1.578"></path>
            </g>
        </g>
    </g>
</svg>