<?xml version="1.0" encoding="UTF-8"?>
<svg width="73px" height="74px" viewBox="0 0 73 74" version="1.1" xmlns="http://www.w3.org/2000/svg" xmlns:xlink="http://www.w3.org/1999/xlink">
    <!-- Generator: Sketch 53 (72520) - https://sketchapp.com -->
    <title>Group 9</title>
    <desc>Created with Sketch.</desc>
    <g id="Page-1" stroke="none" stroke-width="1" fill="none" fill-rule="evenodd">
        <g id="Logos-with-Names" transform="translate(-287.000000, -539.000000)">
            <g id="Group-9" transform="translate(287.000000, 539.919338)">
                <path d="M71.6313,36.0654 C71.6313,55.7084 55.7083,71.6314 36.0663,71.6314 C16.4233,71.6314 0.5003,55.7084 0.5003,36.0654 C0.5003,16.4234 16.4233,0.5004 36.0663,0.5004 C55.7083,0.5004 71.6313,16.4234 71.6313,36.0654" id="Fill-1" fill="#FFFFFF"></path>
                <path d="M71.6313,36.0654 C71.6313,55.7084 55.7083,71.6314 36.0663,71.6314 C16.4233,71.6314 0.5003,55.7084 0.5003,36.0654 C0.5003,16.4234 16.4233,0.5004 36.0663,0.5004 C55.7083,0.5004 71.6313,16.4234 71.6313,36.0654 Z" id="Stroke-3" stroke="#040201"></path>
                <path d="M22.167,37.498 L22.167,52.825 C22.167,53.419 22.167,53.419 22.774,53.419 L26.724,53.419 C27.439,53.419 28.155,53.411 28.871,53.423 C29.127,53.427 29.241,53.337 29.229,53.079 C29.221,52.894 29.231,52.707 29.231,52.52 C29.231,46.395 29.23,40.27 29.23,34.145 C29.229,30.167 29.23,26.188 29.229,22.21 C29.229,21.592 29.228,21.59 28.632,21.59 C26.671,21.588 24.711,21.588 22.75,21.588 C22.168,21.588 22.168,21.589 22.168,22.171 C22.168,27.28 22.168,32.389 22.167,37.498 M45.741,41.036 C45.741,37.071 45.748,33.107 45.732,29.143 C45.731,28.738 45.859,28.637 46.243,28.64 C48.032,28.657 49.821,28.648 51.61,28.648 C52.187,28.648 52.189,28.648 52.19,28.095 C52.191,26.091 52.18,24.087 52.199,22.084 C52.203,21.685 52.078,21.579 51.689,21.58 C45.463,21.591 39.237,21.591 33.011,21.579 C32.605,21.578 32.469,21.685 32.473,22.104 C32.494,24.108 32.493,26.112 32.475,28.116 C32.471,28.527 32.593,28.659 33.008,28.655 C34.725,28.636 36.443,28.659 38.16,28.64 C38.571,28.635 38.696,28.753 38.693,29.17 C38.675,31.688 38.684,34.208 38.684,36.727 C38.684,42.094 38.684,47.462 38.686,52.829 C38.686,53.418 38.69,53.419 39.266,53.419 C41.227,53.42 43.188,53.421 45.149,53.421 C45.739,53.421 45.741,53.42 45.741,52.845 C45.741,48.908 45.741,44.973 45.741,41.036 M9.994,36.642 L9.994,34.494 C10.025,34.313 10.061,34.133 10.087,33.951 C10.284,32.568 10.384,31.165 10.689,29.807 C11.948,24.213 14.789,19.543 19.132,15.806 C23.37,12.159 28.308,10.13 33.864,9.618 C36.123,9.41 38.375,9.531 40.612,9.93 C45.982,10.886 50.617,13.283 54.467,17.13 C58.737,21.397 61.255,26.55 61.95,32.564 C62.28,35.425 62.193,38.279 61.558,41.091 C60.061,47.72 56.535,53.021 50.983,56.947 C47.599,59.34 43.834,60.805 39.723,61.371 C39.062,61.462 38.399,61.549 37.737,61.637 L34.474,61.637 C33.783,61.547 33.093,61.46 32.403,61.366 C29.593,60.983 26.917,60.153 24.391,58.87 C20.182,56.734 16.774,53.696 14.206,49.73 C11.947,46.242 10.59,42.435 10.177,38.295 C10.122,37.743 10.055,37.192 9.994,36.642" id="Fill-6" fill="#E35040"></path>
                <path d="M45.7412,41.0361 C45.7412,44.9731 45.7412,48.9081 45.7412,52.8451 C45.7412,53.4201 45.7392,53.4211 45.1492,53.4211 C43.1882,53.4211 41.2272,53.4201 39.2662,53.4191 C38.6902,53.4191 38.6852,53.4181 38.6852,52.8291 C38.6842,47.4621 38.6842,42.0941 38.6842,36.7261 C38.6842,34.2081 38.6752,31.6881 38.6932,29.1701 C38.6962,28.7531 38.5712,28.6351 38.1602,28.6401 C36.4432,28.6591 34.7252,28.6361 33.0082,28.6551 C32.5932,28.6591 32.4712,28.5271 32.4752,28.1161 C32.4932,26.1121 32.4932,24.1081 32.4732,22.1041 C32.4692,21.6841 32.6042,21.5781 33.0112,21.5791 C39.2372,21.5911 45.4632,21.5911 51.6892,21.5801 C52.0782,21.5791 52.2022,21.6841 52.1992,22.0841 C52.1802,24.0871 52.1912,26.0911 52.1902,28.0951 C52.1892,28.6481 52.1872,28.6481 51.6102,28.6481 C49.8212,28.6481 48.0322,28.6571 46.2422,28.6401 C45.8592,28.6371 45.7312,28.7381 45.7322,29.1421 C45.7472,33.1071 45.7412,37.0711 45.7412,41.0361" id="Fill-7" fill="#FFFFFF"></path>
                <path d="M22.1675,37.498 C22.1675,32.389 22.1675,27.28 22.1675,22.171 C22.1675,21.589 22.1685,21.588 22.7505,21.588 C24.7105,21.588 26.6715,21.588 28.6325,21.59 C29.2285,21.59 29.2295,21.592 29.2295,22.21 C29.2295,26.188 29.2295,30.167 29.2295,34.145 C29.2295,40.27 29.2305,46.395 29.2315,52.52 C29.2315,52.707 29.2215,52.894 29.2295,53.079 C29.2415,53.337 29.1265,53.427 28.8705,53.423 C28.1555,53.411 27.4395,53.419 26.7245,53.419 L22.7735,53.419 C22.1675,53.419 22.1675,53.419 22.1675,52.825 C22.1675,47.716 22.1675,42.606 22.1675,37.498" id="Fill-8" fill="#FFFFFF"></path>
            </g>
        </g>
    </g>
</svg>