<?xml version="1.0" encoding="UTF-8"?>
<svg width="73px" height="73px" viewBox="0 0 73 73" version="1.1" xmlns="http://www.w3.org/2000/svg" xmlns:xlink="http://www.w3.org/1999/xlink">
    <!-- Generator: Sketch 53 (72520) - https://sketchapp.com -->
    <title>Group 16 Copy</title>
    <desc>Created with Sketch.</desc>
    <g id="Page-1" stroke="none" stroke-width="1" fill="none" fill-rule="evenodd">
        <g id="Logos-with-Names" transform="translate(-931.000000, -957.000000)">
            <g id="Group-16-Copy" transform="translate(930.500000, 957.239414)">
                <path d="M72.8018,35.985 C72.8018,55.859 56.6908,71.97 36.8168,71.97 C16.9428,71.97 0.8318,55.859 0.8318,35.985 C0.8318,16.111 16.9428,0 36.8168,0 C56.6908,0 72.8018,16.111 72.8018,35.985" id="Fill-1" fill="#E02533"></path>
                <path d="M41.8462,31.9733 C40.6822,31.9993 39.7632,32.9523 39.7742,34.1203 C39.7862,35.2933 40.7172,36.2143 41.8982,36.2193 C43.1032,36.2233 44.0922,35.1993 44.0342,34.0053 C43.9772,32.8183 43.0392,31.9473 41.8462,31.9733 L41.8462,31.9733 Z M51.5252,24.5873 C50.4132,24.5533 49.3772,25.5393 49.3342,26.6753 C49.2912,27.8383 50.1982,28.8303 51.3612,28.8913 C52.5642,28.9543 53.6082,27.9813 53.6262,26.7813 C53.6422,25.6803 52.6282,24.6223 51.5252,24.5873 L51.5252,24.5873 Z M48.9142,30.4403 C48.9302,29.2673 48.0092,28.2833 46.8562,28.2413 C45.7262,28.2013 44.6152,29.2883 44.6242,30.4283 C44.6332,31.5783 45.5932,32.5063 46.7792,32.5113 C47.9922,32.5153 48.8972,31.6383 48.9142,30.4403 L48.9142,30.4403 Z M65.8592,16.9323 C64.1302,19.9613 62.6212,23.1443 60.6272,25.9883 C55.9392,32.6753 49.6222,37.5113 42.3562,41.1483 C42.2222,41.2143 42.0702,41.2413 41.8612,41.3073 C41.7422,40.7123 41.6112,40.1843 41.5352,39.6483 C41.3922,38.6333 41.0592,38.5023 40.1292,39.0583 C37.8832,40.4003 35.5852,41.6683 33.2382,42.8243 C32.2342,43.3183 31.6812,43.7403 32.5442,44.9943 C31.3222,45.2773 30.2352,45.5303 29.3832,45.7283 C28.3942,44.1893 27.5132,42.8163 26.4392,41.1433 C27.8632,39.1293 29.4082,36.7753 31.1252,34.5533 C35.3302,29.1133 40.0262,24.1523 45.8522,20.3953 C49.6122,17.9713 53.7232,16.5083 58.1852,16.1203 C58.2752,16.2173 58.3652,16.3143 58.4552,16.4113 C57.2122,17.8163 56.0042,19.2543 54.7162,20.6163 C53.7612,21.6243 53.6432,22.1983 54.4372,23.1523 C55.3712,24.2753 56.5352,24.4763 57.5462,23.6423 C59.7342,21.8373 61.4522,19.6643 62.3852,16.9653 C62.6532,16.1893 62.9602,15.9543 63.7442,16.1503 C64.4312,16.3213 65.1532,16.3583 65.8592,16.4543 L65.8592,16.9323 Z" id="Fill-4" fill="#FFFFFF"></path>
                <path d="M33.3506,62.11 C30.8026,61.381 28.1966,60.808 25.7216,59.884 C22.8166,58.8 19.8896,56.558 18.3356,54.728 C20.4636,53.603 22.6116,52.467 24.9096,51.252 C32.1076,56.724 40.1756,58.074 48.5486,53.655 C56.8546,49.272 60.4456,41.973 60.1536,32.611 C60.2806,33.442 60.4576,34.269 60.5276,35.104 C61.6386,48.417 52.3716,60.019 39.1626,61.882 C38.8926,61.921 38.6336,62.033 38.3706,62.11 L33.3506,62.11 Z" id="Fill-5" fill="#FFFFFF"></path>
                <path d="M38.6094,12.6296 C39.7854,12.8936 40.9614,13.1556 42.1364,13.4186 C33.8964,12.6126 26.9534,15.0976 21.8184,21.6426 C16.6984,28.1686 16.0584,35.4776 18.8844,43.1236 C17.0044,44.4496 15.1324,45.7716 13.1634,47.1606 C11.9624,44.5966 11.2934,41.8486 11.1514,38.9906 C10.4994,25.7716 19.2564,14.9896 32.3384,12.8476 C32.5234,12.8166 32.6944,12.7046 32.8724,12.6296 L38.6094,12.6296 Z" id="Fill-6" fill="#FFFFFF"></path>
                <path d="M24.45,45.3083 C21.9,43.1973 17.096,45.2243 15.79,48.6433 C17.021,47.9083 18.296,47.1463 19.572,46.3843 C19.649,46.4853 19.727,46.5843 19.804,46.6853 C19.533,47.4873 19.263,48.2883 18.872,49.4473 C20.894,47.9473 22.623,46.6633 24.45,45.3083 L24.45,45.3083 Z M7.774,54.7003 C8.858,53.4963 9.926,52.2783 11.029,51.0923 C13.396,48.5473 15.893,46.1423 19.019,44.5373 C19.996,44.0353 21.084,43.7273 22.145,43.4123 C23.29,43.0733 24.303,43.2293 25.141,44.2523 C26.04,45.3513 26.278,46.4363 25.651,47.7483 C24.695,49.7523 23.127,51.1123 21.193,52.0683 C16.968,54.1573 12.432,54.8453 7.774,54.9393 L7.774,54.7003 Z" id="Fill-7" fill="#FFFFFF"></path>
                <path d="M40.4343,40.4099 C41.6063,45.1809 39.4083,50.7289 35.4173,53.0879 C35.2123,51.5779 35.0993,50.0489 34.7783,48.5629 C34.4533,47.0559 33.9233,45.5949 33.4823,44.1089 C35.7373,42.9089 38.0433,41.6819 40.4343,40.4099" id="Fill-8" fill="#FFFFFF"></path>
                <path d="M21.449,31.0436 C24.98,29.8216 28.645,29.5926 32.436,31.0486 C30.865,33.0806 29.371,35.0136 28.03,36.7476 C25.827,34.8386 23.643,32.9446 21.449,31.0436" id="Fill-9" fill="#FFFFFF"></path>
                <path d="M32.8745,46.1774 C33.6985,48.0274 33.6175,48.1934 31.3375,49.3434 C31.1335,47.4204 31.6885,46.2774 32.8745,46.1774" id="Fill-10" fill="#FFFFFF"></path>
                <path d="M27.2253,45.4235 C26.8333,44.8115 26.4423,44.1995 25.9503,43.4325 C26.2443,43.4025 26.5663,43.2805 26.6523,43.3745 C27.1473,43.9185 27.7473,44.4515 27.2253,45.4235" id="Fill-11" fill="#FFFFFF"></path>
                <path d="M48.9141,30.4401 C48.8971,31.6381 47.9921,32.5151 46.7791,32.5111 C45.5931,32.5061 44.6331,31.5791 44.6241,30.4281 C44.6151,29.2891 45.7261,28.2011 46.8561,28.2411 C48.0091,28.2831 48.9311,29.2671 48.9141,30.4401" id="Fill-12" fill="#E02533"></path>
                <path d="M51.5251,24.5876 C52.6281,24.6226 53.6421,25.6806 53.6261,26.7806 C53.6081,27.9816 52.5641,28.9546 51.3611,28.8916 C50.1981,28.8306 49.2911,27.8386 49.3341,26.6756 C49.3771,25.5396 50.4131,24.5536 51.5251,24.5876" id="Fill-13" fill="#E02533"></path>
                <path d="M41.8462,31.9733 C43.0392,31.9473 43.9772,32.8183 44.0342,34.0053 C44.0922,35.1993 43.1032,36.2233 41.8982,36.2193 C40.7172,36.2143 39.7862,35.2933 39.7742,34.1203 C39.7632,32.9523 40.6822,31.9993 41.8462,31.9733" id="Fill-14" fill="#E02533"></path>
                <path d="M24.45,45.3083 C22.623,46.6633 20.894,47.9473 18.872,49.4473 C19.263,48.2883 19.533,47.4873 19.804,46.6853 C19.727,46.5843 19.649,46.4853 19.572,46.3843 C18.296,47.1463 17.021,47.9083 15.79,48.6433 C17.096,45.2243 21.9,43.1973 24.45,45.3083" id="Fill-15" fill="#E02533"></path>
            </g>
        </g>
    </g>
</svg>