<?xml version="1.0" encoding="UTF-8"?>
<svg width="73px" height="73px" viewBox="0 0 73 73" version="1.1" xmlns="http://www.w3.org/2000/svg" xmlns:xlink="http://www.w3.org/1999/xlink">
    <!-- Generator: Sketch 53 (72520) - https://sketchapp.com -->
    <title>Group 13</title>
    <desc>Created with Sketch.</desc>
    <g id="Page-1" stroke="none" stroke-width="1" fill="none" fill-rule="evenodd">
        <g id="Logos-with-Names" transform="translate(-655.000000, -338.000000)">
            <g id="Group-13" transform="translate(655.500000, 338.000000)">
                <path d="M71.9924,36.4839 C71.9924,56.3569 55.8824,72.4669 36.0094,72.4669 C16.1354,72.4669 0.0254,56.3569 0.0254,36.4839 C0.0254,16.6109 16.1354,0.5009 36.0094,0.5009 C55.8824,0.5009 71.9924,16.6109 71.9924,36.4839" id="Fill-1" fill="#FFFFFF"></path>
                <path d="M71.9924,36.4839 C71.9924,56.3569 55.8824,72.4669 36.0094,72.4669 C16.1354,72.4669 0.0254,56.3569 0.0254,36.4839 C0.0254,16.6109 16.1354,0.5009 36.0094,0.5009 C55.8824,0.5009 71.9924,16.6109 71.9924,36.4839 Z" id="Stroke-3" stroke="#040201"></path>
                <path d="M48.5054,37.309 L41.4134,37.309 L41.4134,33.668 C41.4134,30.76 39.0474,28.394 36.1394,28.394 C33.2314,28.394 30.8644,30.76 30.8644,33.668 L30.8644,37.309 L23.7724,37.309 L23.7724,33.668 C23.7724,26.849 29.3204,21.302 36.1394,21.302 C42.9574,21.302 48.5054,26.849 48.5054,33.668 L48.5054,37.309 Z" id="Fill-6" fill="#FFA400"></path>
                <path d="M37.6826,52.1001 L37.6826,55.1531 C37.6826,56.0041 36.9916,56.6961 36.1396,56.6961 C35.2876,56.6961 34.5966,56.0051 34.5966,55.1531 L34.5966,52.1011 C33.6466,51.5621 33.0056,50.5441 33.0056,49.3751 C33.0056,47.6451 34.4086,46.2421 36.1396,46.2421 C37.8696,46.2421 39.2726,47.6451 39.2726,49.3751 C39.2726,50.5441 38.6306,51.5621 37.6826,52.1001 M51.3656,37.3091 L20.9116,37.3091 C19.6116,37.3091 18.5486,38.3731 18.5486,39.6731 L18.5486,62.2021 C18.5486,63.5011 19.6116,64.5651 20.9116,64.5651 L51.3656,64.5651 C52.6656,64.5651 53.7296,63.5011 53.7296,62.2021 L53.7296,39.6731 C53.7296,38.3731 52.6656,37.3091 51.3656,37.3091" id="Fill-7" fill="#003A70"></path>
                <path d="M17.825,33.9506 L10.476,33.9506 C9.285,33.9506 8.319,32.9846 8.319,31.7936 C8.319,30.6016 9.285,29.6356 10.476,29.6356 L17.825,29.6356 C19.016,29.6356 19.982,30.6016 19.982,31.7936 C19.982,32.9846 19.016,33.9506 17.825,33.9506" id="Fill-8" fill="#FFA400"></path>
                <path d="M23.0015,22.3911 C22.5195,22.3911 22.0345,22.2301 21.6325,21.9001 L15.8195,17.1201 C14.8995,16.3641 14.7665,15.0041 15.5235,14.0831 C16.2805,13.1631 17.6395,13.0311 18.5605,13.7871 L24.3735,18.5671 C25.2935,19.3241 25.4265,20.6841 24.6695,21.6041 C24.2425,22.1221 23.6245,22.3911 23.0015,22.3911" id="Fill-9" fill="#FFA400"></path>
                <path d="M36.1389,17.31 C34.9479,17.31 33.9819,16.344 33.9819,15.153 L33.9819,7.747 C33.9819,6.555 34.9479,5.589 36.1389,5.589 C37.3299,5.589 38.2959,6.555 38.2959,7.747 L38.2959,15.153 C38.2959,16.344 37.3299,17.31 36.1389,17.31" id="Fill-10" fill="#FFA400"></path>
                <path d="M49.2766,22.3911 C48.6526,22.3911 48.0356,22.1221 47.6086,21.6041 C46.8516,20.6831 46.9846,19.3241 47.9046,18.5671 L53.7176,13.7871 C54.6386,13.0301 55.9976,13.1631 56.7546,14.0831 C57.5116,15.0041 57.3786,16.3641 56.4586,17.1201 L50.6456,21.9001 C50.2436,22.2301 49.7586,22.3911 49.2766,22.3911" id="Fill-11" fill="#FFA400"></path>
                <path d="M61.8018,33.9506 L54.3838,33.9506 C53.1918,33.9506 52.2258,32.9846 52.2258,31.7936 C52.2258,30.6016 53.1918,29.6356 54.3838,29.6356 L61.8018,29.6356 C62.9928,29.6356 63.9588,30.6016 63.9588,31.7936 C63.9588,32.9846 62.9928,33.9506 61.8018,33.9506" id="Fill-12" fill="#FFA400"></path>
            </g>
        </g>
    </g>
</svg>