<?xml version="1.0" encoding="UTF-8"?>
<svg width="75px" height="75px" viewBox="0 0 75 75" version="1.1" xmlns="http://www.w3.org/2000/svg" xmlns:xlink="http://www.w3.org/1999/xlink">
    <!-- Generator: Sketch 53 (72520) - https://sketchapp.com -->
    <title>Group 7</title>
    <desc>Created with Sketch.</desc>
    <g id="Page-1" stroke="none" stroke-width="1" fill="none" fill-rule="evenodd">
        <g id="Logos-with-Names" transform="translate(-91.000000, -411.000000)">
            <g id="Group-7" transform="translate(91.000000, 411.000000)">
                <path d="M74.1563,37.0923 C74.1563,57.3023 57.7733,73.6863 37.5633,73.6863 C17.3533,73.6863 0.9703,57.3023 0.9703,37.0923 C0.9703,16.8833 17.3533,0.4993 37.5633,0.4993 C57.7733,0.4993 74.1563,16.8833 74.1563,37.0923" id="Fill-1" fill="#FFFFFF"></path>
                <path d="M74.1563,37.0923 C74.1563,57.3023 57.7733,73.6863 37.5633,73.6863 C17.3533,73.6863 0.9703,57.3023 0.9703,37.0923 C0.9703,16.8833 17.3533,0.4993 37.5633,0.4993 C57.7733,0.4993 74.1563,16.8833 74.1563,37.0923 Z" id="Stroke-3" stroke="#040201"></path>
                <path d="M30.4019,18.3852 C30.4359,18.7012 30.4719,19.0172 30.5109,19.3332 L44.7849,19.7272 C44.7909,19.6502 44.7959,19.5722 44.7999,19.4932 L44.7999,19.4982 C44.8089,19.3612 44.8169,19.2232 44.8249,19.0842 C44.8329,18.9462 44.8399,18.8072 44.8479,18.6682 C44.8509,18.5992 44.8549,18.5312 44.8579,18.4612 L39.7999,15.5412 C38.4159,14.7422 36.7119,14.7422 35.3279,15.5412 L30.4019,18.3852 Z M31.3989,24.6242 L44.2569,25.0422 C44.2669,24.9782 44.2759,24.9122 44.2849,24.8472 L44.2839,24.8532 L44.3059,24.6922 C44.3189,24.5882 44.3329,24.4842 44.3449,24.3802 C44.3559,24.2992 44.3649,24.2192 44.3749,24.1382 C44.3859,24.0572 44.3969,23.9762 44.4069,23.8952 C44.4219,23.7832 44.4349,23.6722 44.4489,23.5612 C44.4489,23.5592 44.4479,23.5682 44.4479,23.5662 C44.4619,23.4512 44.4749,23.3382 44.4889,23.2242 C44.4889,23.2222 44.4879,23.2312 44.4879,23.2292 C44.5269,22.8782 44.5649,22.5272 44.5979,22.1752 C44.6329,21.8082 44.6629,21.4412 44.6909,21.0732 L30.8069,21.4562 C30.9729,22.5162 31.1679,23.5712 31.3979,24.6182 L31.3989,24.6242 Z M32.9399,29.8642 L43.3479,30.2532 C43.4199,29.9482 43.4829,29.6392 43.5399,29.3292 C43.5489,29.2762 43.5509,29.2762 43.5629,29.2192 C43.5779,29.1432 43.5929,29.0682 43.6089,28.9922 C43.6539,28.7572 43.6969,28.5222 43.7359,28.2852 C43.7429,28.2442 43.7509,28.2042 43.7589,28.1642 C43.7669,28.1222 43.7739,28.0812 43.7819,28.0402 C43.8119,27.8712 43.8409,27.7032 43.8679,27.5342 C43.8869,27.4182 43.9039,27.3022 43.9219,27.1852 C43.9409,27.0822 43.9589,26.9782 43.9769,26.8742 C44.0049,26.7112 44.0309,26.5472 44.0569,26.3842 L31.9269,26.7792 C32.0469,27.2142 32.1739,27.6482 32.3099,28.0792 C32.5009,28.6802 32.7089,29.2772 32.9399,29.8642 L32.9399,29.8642 Z M39.4699,36.2142 C39.4759,36.2132 39.4829,36.2122 39.4879,36.2112 C39.7479,36.1542 39.9949,36.0462 40.2239,35.9122 C40.4109,35.8032 40.5849,35.6742 40.7479,35.5322 C40.9409,35.3652 41.1189,35.1832 41.2799,34.9862 C41.3219,34.9342 41.3629,34.8822 41.4029,34.8282 C41.4279,34.7962 41.4509,34.7622 41.4759,34.7302 C41.5139,34.6782 41.5519,34.6262 41.5889,34.5742 C41.7109,34.4012 41.8209,34.2212 41.9249,34.0362 C41.9349,34.0192 41.9459,34.0012 41.9569,33.9842 L41.9889,33.9312 C42.1239,33.7012 42.2489,33.4672 42.3619,33.2262 C42.4349,33.0722 42.5019,32.9152 42.5669,32.7572 C42.5969,32.6842 42.6279,32.6112 42.6569,32.5372 C42.7069,32.4112 42.7549,32.2852 42.7999,32.1572 C42.8689,31.9652 42.9309,31.7712 42.9899,31.5752 L33.8809,31.9172 C34.0199,32.1762 34.1659,32.4312 34.3209,32.6812 C34.6069,33.1412 34.9219,33.5832 35.2779,33.9902 C35.7699,34.5522 36.3479,35.0562 37.0269,35.3762 C37.2189,35.4672 37.4189,35.5422 37.6229,35.6002 C37.6869,35.6172 37.7519,35.6342 37.8169,35.6492 C37.8789,35.6622 37.9409,35.6742 38.0029,35.6882 C38.0619,35.7012 38.0619,35.7012 38.1219,35.7162 C38.2399,35.7452 38.3569,35.7782 38.4739,35.8142 C38.7039,35.8842 38.9299,35.9692 39.1519,36.0652 C39.2589,36.1122 39.3649,36.1622 39.4699,36.2142 L39.4699,36.2142 Z M31.1049,48.1492 L43.0329,47.7242 C42.9109,47.2812 42.7819,46.8412 42.6439,46.4042 C42.4309,45.7262 42.1979,45.0542 41.9359,44.3932 L31.8669,43.9562 C31.8489,44.0292 31.8319,44.1012 31.8149,44.1742 C31.7349,44.5212 31.6649,44.8712 31.6039,45.2222 C31.5869,45.3082 31.5689,45.3942 31.5529,45.4802 C31.5029,45.7392 31.4569,45.9972 31.4159,46.2572 C31.4039,46.3212 31.3929,46.3852 31.3809,46.4492 C31.3589,46.5762 31.3369,46.7042 31.3159,46.8322 C31.2879,47.0062 31.2619,47.1802 31.2359,47.3532 C31.2189,47.4472 31.2029,47.5412 31.1869,47.6362 C31.1589,47.8072 31.1309,47.9782 31.1049,48.1492 L31.1049,48.1492 Z M30.4679,53.4532 L44.1839,53.0322 C44.0199,52.0542 43.8329,51.0792 43.6199,50.1112 C43.6039,50.0372 43.5879,49.9642 43.5709,49.8912 L30.9139,49.4402 C30.8689,49.7642 30.8259,50.0882 30.7879,50.4122 C30.7759,50.5032 30.7639,50.5942 30.7519,50.6862 C30.6349,51.6062 30.5409,52.5292 30.4679,53.4532 L30.4679,53.4532 Z M27.2829,54.8232 C27.3069,54.5272 27.3329,54.2302 27.3599,53.9332 C27.3679,53.8592 27.3759,53.7832 27.3839,53.7092 C27.3919,53.6402 27.3999,53.5722 27.4069,53.5022 C27.4369,53.2342 27.4689,52.9642 27.5019,52.6962 C27.5799,52.0612 27.6679,51.4282 27.7659,50.7962 C27.8029,50.5572 27.8429,50.3202 27.8819,50.0812 L27.9019,49.9692 C28.0129,49.3712 28.1359,48.7752 28.2709,48.1812 C28.2899,48.1022 28.3099,48.0232 28.3299,47.9442 C28.3949,47.6932 28.4599,47.4432 28.5279,47.1932 C28.5549,47.0952 28.5819,47.0012 28.6089,46.9042 C28.6239,46.8522 28.6369,46.7992 28.6529,46.7482 C28.7679,46.3902 28.8889,46.0332 29.0129,45.6782 L29.0389,45.6082 C29.1719,45.2612 29.3099,44.9182 29.4539,44.5762 L29.4669,44.5452 C29.6469,44.1562 29.8329,43.7702 30.0299,43.3892 C30.1469,43.1622 30.2679,42.9382 30.3919,42.7152 L30.4209,42.6622 C30.6309,42.3122 30.8509,41.9672 31.0819,41.6312 C31.1659,41.5082 31.2519,41.3862 31.3389,41.2652 C31.3759,41.2162 31.4109,41.1662 31.4479,41.1182 C31.7699,40.7002 32.1119,40.2962 32.4849,39.9232 C32.5019,39.9062 32.5199,39.8902 32.5379,39.8732 C32.5549,39.8592 32.5709,39.8432 32.5879,39.8282 C32.6669,39.7572 32.7479,39.6872 32.8289,39.6172 C32.9459,39.5192 33.0649,39.4222 33.1869,39.3302 C33.2199,39.3052 33.2559,39.2812 33.2899,39.2562 C33.3349,39.2252 33.3789,39.1952 33.4239,39.1642 C33.5739,39.0632 33.7279,38.9662 33.8859,38.8762 C33.9859,38.8192 34.0889,38.7632 34.1939,38.7122 C34.3189,38.6512 34.4469,38.5942 34.5779,38.5422 C34.7569,38.4722 34.9409,38.4122 35.1279,38.3662 C35.2569,38.3352 35.3889,38.3122 35.5219,38.2982 C35.6039,38.2892 35.6879,38.2842 35.7709,38.2892 L35.7759,38.2892 L35.7949,38.3102 L35.7749,38.3292 C35.7609,38.3292 35.7479,38.3292 35.7339,38.3302 C35.7289,38.3312 35.7149,38.3322 35.7189,38.3312 C35.7009,38.3332 35.6819,38.3352 35.6639,38.3382 C35.4029,38.3752 35.1519,38.4692 34.9199,38.5932 C34.7189,38.6992 34.5319,38.8302 34.3589,38.9772 C34.2879,39.0362 34.2189,39.0972 34.1519,39.1612 C34.0219,39.2872 33.8999,39.4222 33.7869,39.5642 C33.7459,39.6152 33.7049,39.6682 33.6659,39.7222 C33.6529,39.7392 33.6409,39.7572 33.6279,39.7752 C33.5789,39.8422 33.5289,39.9082 33.4819,39.9782 C33.3739,40.1372 33.2749,40.3012 33.1819,40.4692 C33.1719,40.4882 33.1609,40.5042 33.1509,40.5222 C33.1399,40.5392 33.1299,40.5582 33.1189,40.5752 C33.0209,40.7442 32.9269,40.9172 32.8409,41.0942 C32.7359,41.3102 32.6409,41.5312 32.5519,41.7532 C32.5319,41.8052 32.5109,41.8562 32.4909,41.9062 C32.4409,42.0312 32.3939,42.1582 32.3489,42.2852 C32.3049,42.4112 32.2629,42.5372 32.2229,42.6642 L40.9669,42.2852 C40.7459,41.8742 40.5059,41.4742 40.2419,41.0892 C39.9899,40.7242 39.7169,40.3732 39.4119,40.0522 C38.9939,39.6102 38.5119,39.2152 37.9569,38.9602 C37.7979,38.8872 37.6329,38.8262 37.4639,38.7802 C37.3559,38.7492 37.2449,38.7282 37.1349,38.7032 L37.0139,38.6762 C36.8749,38.6412 36.7359,38.6042 36.5989,38.5612 C36.3469,38.4832 36.0989,38.3902 35.8569,38.2822 C35.6179,38.1782 35.3849,38.0592 35.1579,37.9282 C34.9849,37.8282 34.8169,37.7222 34.6519,37.6102 C33.6069,36.8942 32.7459,35.9402 32.0319,34.9002 C31.9279,34.7482 31.8259,34.5942 31.7279,34.4382 C31.5839,34.2102 31.4459,33.9792 31.3139,33.7452 C31.1379,33.4352 30.9719,33.1192 30.8149,32.8002 C30.6169,32.4002 30.4329,31.9922 30.2589,31.5802 C30.0249,31.0242 29.8109,30.4592 29.6129,29.8892 C29.3569,29.1512 29.1279,28.4052 28.9209,27.6522 C28.6499,26.6682 28.4149,25.6752 28.2099,24.6762 C27.9509,23.4232 27.7359,22.1612 27.5589,20.8952 C27.5219,20.6262 27.4849,20.3582 27.4509,20.0882 L19.6609,24.5862 C18.2769,25.3852 17.4249,26.8622 17.4249,28.4592 L17.4249,46.5502 C17.4249,48.1482 18.2769,49.6242 19.6609,50.4232 L27.2829,54.8232 Z M47.6379,54.9442 L55.4669,50.4232 C56.8509,49.6242 57.7029,48.1482 57.7029,46.5502 L57.7029,28.4592 C57.7029,26.8622 56.8509,25.3852 55.4669,24.5862 L47.8329,20.1792 C47.8219,20.3002 47.8119,20.4212 47.8009,20.5422 L47.7949,20.6142 C47.6599,21.9432 47.4869,23.2672 47.2609,24.5832 C47.2449,24.6682 47.2289,24.7532 47.2129,24.8372 C47.1389,25.2172 47.0619,25.5972 46.9789,25.9752 C46.9499,26.1062 46.9209,26.2382 46.8899,26.3682 C46.8809,26.4082 46.8339,26.5892 46.8339,26.5912 C46.8019,26.7142 46.7879,26.7692 46.7559,26.8922 C46.6789,27.1812 46.5979,27.4692 46.5149,27.7562 L46.5029,27.8002 C46.3779,28.1822 46.2479,28.5622 46.1109,28.9402 C46.0949,28.9842 46.0769,29.0272 46.0599,29.0722 C46.0129,29.1902 46.0089,29.1992 45.9609,29.3182 C45.8689,29.5462 45.7739,29.7752 45.6749,30.0002 C45.6559,30.0462 45.6329,30.0892 45.6119,30.1332 L45.5599,30.2442 C45.4909,30.3872 45.4209,30.5302 45.3499,30.6712 C45.2149,30.9412 45.0759,31.2072 44.9319,31.4712 C44.8639,31.5952 44.7949,31.7182 44.7249,31.8412 L44.7059,31.8722 C44.4909,32.2232 44.2669,32.5672 44.0309,32.9042 C43.9459,33.0252 43.8589,33.1452 43.7709,33.2632 C43.7359,33.3102 43.7009,33.3592 43.6639,33.4052 C43.3379,33.8182 42.9929,34.2172 42.6189,34.5872 C42.6009,34.6052 42.5829,34.6202 42.5639,34.6372 C42.5149,34.6812 42.4649,34.7252 42.4159,34.7682 C42.2629,34.9012 42.1049,35.0302 41.9439,35.1542 C41.9219,35.1702 41.9219,35.1702 41.8989,35.1872 C41.5909,35.4062 41.2729,35.6102 40.9369,35.7842 C40.8539,35.8272 40.7689,35.8672 40.6839,35.9062 C40.5469,35.9692 40.4069,36.0262 40.2659,36.0752 C40.1019,36.1342 39.9339,36.1832 39.7629,36.2192 C39.6939,36.2352 39.6239,36.2472 39.5529,36.2562 C39.6149,36.2892 39.6779,36.3222 39.7399,36.3572 C39.8779,36.4342 40.0139,36.5162 40.1469,36.6022 C41.1869,37.2772 42.0419,38.2032 42.7509,39.2142 C42.8689,39.3822 42.9829,39.5532 43.0929,39.7262 C43.2389,39.9532 43.3779,40.1852 43.5119,40.4202 C43.6899,40.7322 43.8589,41.0492 44.0189,41.3712 C44.2199,41.7772 44.4079,42.1892 44.5859,42.6052 C44.8259,43.1712 45.0469,43.7452 45.2519,44.3262 C45.5319,45.1232 45.7829,45.9322 46.0099,46.7462 C46.3049,47.8032 46.5599,48.8702 46.7859,49.9442 C47.0669,51.2782 47.3019,52.6212 47.5009,53.9702 C47.5479,54.2942 47.5939,54.6182 47.6379,54.9442 L47.6379,54.9442 Z M30.2649,56.5452 L35.3279,59.4682 C36.7119,60.2682 38.4159,60.2682 39.7999,59.4682 L44.6949,56.6422 C44.6389,56.1572 44.5779,55.6742 44.5119,55.1912 L30.3719,54.7572 C30.3299,55.3532 30.2939,55.9492 30.2649,56.5452 L30.2649,56.5452 Z M47.3559,14.5362 L60.1139,21.9042 C61.4979,22.7022 62.3509,24.1782 62.3509,25.7762 L62.3509,49.2342 C62.3509,50.8312 61.4979,52.3082 60.1139,53.1072 C55.4049,55.8252 44.5099,62.1152 39.7999,64.8352 C38.4159,65.6342 36.7119,65.6342 35.3279,64.8352 C30.6179,62.1152 19.7229,55.8252 15.0129,53.1072 C13.6299,52.3082 12.7769,50.8312 12.7769,49.2342 L12.7769,25.7762 C12.7769,24.1782 13.6299,22.7022 15.0129,21.9042 C19.7229,19.1842 30.6179,12.8942 35.3279,10.1742 C36.7119,9.3752 38.4159,9.3752 39.7999,10.1742 L47.0689,14.3712 L47.1509,14.3902 C47.2309,14.4472 47.2979,14.4942 47.3559,14.5362 L47.3559,14.5362 Z" id="Fill-6" fill="#DB0A5B"></path>
            </g>
        </g>
    </g>
</svg>