<?xml version="1.0" encoding="UTF-8"?>
<svg width="75px" height="75px" viewBox="0 0 75 75" version="1.1" xmlns="http://www.w3.org/2000/svg" xmlns:xlink="http://www.w3.org/1999/xlink">
    <!-- Generator: Sketch 53 (72520) - https://sketchapp.com -->
    <title>Group 26</title>
    <desc>Created with Sketch.</desc>
    <g id="Page-1" stroke="none" stroke-width="1" fill="none" fill-rule="evenodd">
        <g id="Logos-with-Names" transform="translate(-285.000000, -639.000000)">
            <g id="Group-26" transform="translate(286.000000, 638.961662)">
                <g id="Group-6" transform="translate(0.000000, 0.690900)">
                    <path d="M73.1224,37.2754 C73.1224,57.4154 56.7964,73.7414 36.6564,73.7414 C16.5164,73.7414 0.1904,57.4154 0.1904,37.2754 C0.1904,17.1354 16.5164,0.8084 36.6564,0.8084 C56.7964,0.8084 73.1224,17.1354 73.1224,37.2754" id="Fill-1" fill="#FFFFFF"></path>
                    <path d="M73.1224,37.2754 C73.1224,57.4154 56.7964,73.7414 36.6564,73.7414 C16.5164,73.7414 0.1904,57.4154 0.1904,37.2754 C0.1904,17.1354 16.5164,0.8084 36.6564,0.8084 C56.7964,0.8084 73.1224,17.1354 73.1224,37.2754 Z" id="Stroke-3" stroke="#040201"></path>
                </g>
                <g id="Group-25" transform="translate(4.000000, 30.690900)">
                    <polygon id="Fill-7" fill="#364045" points="7.2867 7.2754 3.0877 1.7354 0.8717 1.7354 0.8717 14.1574 3.2627 14.1574 3.2627 6.0504 7.1697 10.8914 7.3447 10.8914 11.2527 5.9924 11.2527 14.1574 13.6437 14.1574 13.6437 1.7354 11.4277 1.7354"></polygon>
                    <polygon id="Fill-9" fill="#364045" points="48.9271 14.1572 51.2601 14.1572 51.2601 1.0352 48.9271 1.7352"></polygon>
                    <polygon id="Fill-11" fill="#364045" points="44.553 14.1572 46.886 14.1572 46.886 1.0352 44.553 1.7352"></polygon>
                    <path d="M30.6146,12.1738 L30.4976,12.2328 C30.4976,12.2328 29.9146,12.4068 29.3896,12.4068 L29.2736,12.4068 C29.0396,12.4068 28.3986,12.4068 27.9316,12.0578 C27.3486,11.6498 27.0576,10.8328 27.0576,9.7248 C27.0576,7.9168 27.9316,6.9258 29.2736,6.9258 C29.6236,6.9258 29.9726,6.9838 30.3816,7.1008 L30.4976,7.1588 L30.6146,12.1738 Z M30.6146,4.9428 L30.4396,4.8838 C30.0316,4.7678 29.5066,4.7088 28.9816,4.7088 C28.1656,4.7088 27.0566,4.8838 26.1236,5.7008 C25.1906,6.5748 24.6666,7.9168 24.6666,9.7248 C24.6666,11.4158 25.1326,12.6408 26.0076,13.3988 C26.7656,14.0398 27.8156,14.3318 29.0986,14.3318 C30.6726,14.3318 32.1896,13.8648 32.8886,13.5738 L32.9476,13.5738 L32.9476,1.0938 L30.6146,1.7358 L30.6146,4.9428 Z" id="Fill-13" fill="#364045"></path>
                    <polygon id="Fill-15" fill="#364045" points="53.2425 14.1572 55.6335 14.1572 55.6335 4.5932 53.2425 5.2922"></polygon>
                    <polygon id="Fill-17" fill="#4050C6" points="52.8926 1.7354 54.5836 3.4844 56.2756 1.7934 54.5836 0.1014"></polygon>
                    <path d="M40.1207,11.8828 C40.1207,11.8828 39.5377,12.6408 38.1377,12.6408 C37.2627,12.6408 36.7377,12.1738 36.7377,11.3578 C36.7377,10.3078 37.7877,10.0168 38.7207,10.0168 C39.5957,10.0168 40.1207,10.1328 40.1207,10.1328 L40.1207,11.8828 Z M38.2547,4.7088 C36.5047,4.7088 35.2797,5.3508 35.2797,5.3508 L35.2797,7.2758 C35.6297,7.1588 36.6217,6.6338 38.0797,6.6338 C38.8377,6.6338 39.3627,6.7498 39.6537,7.1588 C40.0037,7.5088 40.0037,8.2078 40.0037,8.5588 C40.0037,8.5588 39.3047,8.3838 38.4297,8.3838 C35.7467,8.3838 34.2307,9.5498 34.2307,11.4158 C34.2307,13.2818 35.8047,14.3908 37.4967,14.3908 C39.1877,14.3908 40.1787,13.6318 40.1787,13.6318 L40.1787,14.1568 L42.4537,14.1568 L42.4537,12.6408 L42.4537,11.9988 L42.4537,8.2668 C42.5117,5.0598 40.0627,4.7088 38.2547,4.7088 L38.2547,4.7088 Z" id="Fill-19" fill="#364045"></path>
                    <path d="M62.6905,11.8828 C62.6905,11.8828 62.1075,12.6408 60.7075,12.6408 C59.8325,12.6408 59.3075,12.1738 59.3075,11.3578 C59.3075,10.3078 60.3575,10.0168 61.2905,10.0168 C62.1655,10.0168 62.6905,10.1328 62.6905,10.1328 L62.6905,11.8828 Z M60.8245,4.7088 C59.0745,4.7088 57.8495,5.3508 57.8495,5.3508 L57.8495,7.2758 C58.1995,7.1588 59.1915,6.6338 60.6495,6.6338 C61.4075,6.6338 61.9325,6.7498 62.2235,7.1588 C62.5735,7.5088 62.5735,8.2078 62.5735,8.5588 C62.5735,8.5588 61.8735,8.3838 60.9995,8.3838 C58.3165,8.3838 56.8005,9.5498 56.8005,11.4158 C56.8005,13.2818 58.3745,14.3908 60.0655,14.3908 C61.7575,14.3908 62.7485,13.6318 62.7485,13.6318 L62.7485,14.1568 L65.0235,14.1568 L65.0235,12.6408 L65.0235,11.9988 L65.0235,8.2668 C65.1395,5.0598 62.6905,4.7088 60.8245,4.7088 L60.8245,4.7088 Z" id="Fill-21" fill="#364045"></path>
                    <path d="M17.4927,8.7334 C17.4927,8.5004 17.5507,8.0914 17.7257,7.6834 C17.9597,7.2164 18.6007,6.6334 19.5337,6.6334 C20.5247,6.6334 21.0497,7.2164 21.2247,7.6834 C21.3997,8.0334 21.3997,8.5004 21.3997,8.6744 L17.4927,8.7334 Z M23.4997,9.4334 C23.4997,7.7424 23.0917,6.5174 22.2747,5.7584 C21.6337,5.1174 20.7007,4.7094 19.4757,4.7094 C18.3677,4.7094 17.3177,5.0594 16.5597,5.7584 C15.5677,6.6334 15.0437,7.9174 15.0437,9.6084 C15.0437,13.9824 18.3087,14.4484 19.7087,14.4484 C21.0497,14.4484 22.3327,13.9824 22.7997,13.7494 L22.7997,11.7084 C22.4497,11.8824 21.4587,12.4654 20.0587,12.4654 C19.3007,12.4654 18.3087,12.1734 17.7257,11.2994 C17.4927,10.9494 17.3757,10.5994 17.3757,10.4244 L23.3827,10.4244 C23.4997,10.4244 23.4997,9.7834 23.4997,9.4334 L23.4997,9.4334 Z" id="Fill-23" fill="#364045"></path>
                </g>
            </g>
        </g>
    </g>
</svg>