<?xml version="1.0" encoding="UTF-8"?>
<svg width="73px" height="74px" viewBox="0 0 73 74" version="1.1" xmlns="http://www.w3.org/2000/svg" xmlns:xlink="http://www.w3.org/1999/xlink">
    <!-- Generator: Sketch 53 (72520) - https://sketchapp.com -->
    <title>Group 13</title>
    <desc>Created with Sketch.</desc>
    <g id="Page-1" stroke="none" stroke-width="1" fill="none" fill-rule="evenodd">
        <g id="Logos-with-Names" transform="translate(-660.000000, -438.000000)">
            <g id="Group-13" transform="translate(660.500000, 438.877014)">
                <path d="M71.8943,36.1971 C71.8943,55.9121 55.9123,71.8941 36.1973,71.8941 C16.4823,71.8941 0.5003,55.9121 0.5003,36.1971 C0.5003,16.4821 16.4823,0.5001 36.1973,0.5001 C55.9123,0.5001 71.8943,16.4821 71.8943,36.1971" id="Fill-1" fill="#FFFFFF"></path>
                <path d="M71.8943,36.1971 C71.8943,55.9121 55.9123,71.8941 36.1973,71.8941 C16.4823,71.8941 0.5003,55.9121 0.5003,36.1971 C0.5003,16.4821 16.4823,0.5001 36.1973,0.5001 C55.9123,0.5001 71.8943,16.4821 71.8943,36.1971 Z" id="Stroke-3" stroke="#040201"></path>
                <path d="M10.904,33.8211 C11.449,34.2441 11.914,34.6181 12.395,34.9711 C12.6,35.1221 12.589,35.2971 12.573,35.5171 C12.087,42.5001 14.226,48.5621 19.097,53.5871 C22.495,57.0921 26.678,59.2341 31.49,60.0491 C43.006,61.9971 53.974,55.0901 57.285,43.8531 C61.068,31.0171 52.703,17.4451 39.562,15.0771 C36.849,14.5891 34.142,14.5411 31.431,15.0501 C31.122,15.1091 30.923,15.0561 30.724,14.7941 C30.292,14.2211 29.831,13.6701 29.28,13.2051 C28.906,12.8891 29.075,12.8181 29.435,12.7091 C32.456,11.7921 35.551,11.4341 38.687,11.6671 C45.204,12.1511 50.85,14.6641 55.488,19.2811 C65.622,29.3681 65.857,45.7351 55.963,56.0711 C50.297,61.9901 43.251,64.7041 35.085,64.1971 C22.685,63.4271 12.661,54.0281 10.834,41.6441 C10.644,40.3591 10.562,39.0701 10.568,37.7741 C10.573,36.4781 10.658,35.1871 10.904,33.8211" id="Fill-6" fill="#00B3C1"></path>
                <path d="M35.822,20.8817 C35.246,20.9217 34.667,20.9387 34.095,21.0087 C33.739,21.0527 33.543,21.0177 33.483,20.5967 C33.408,20.0767 32.978,19.3467 33.178,19.1087 C33.529,18.6907 34.289,18.7927 34.88,18.7357 C44.048,17.8307 52.381,23.2357 55.257,31.9377 C58.899,42.9607 51.878,54.8147 40.467,56.9067 C29.75,58.8717 19.583,51.7677 17.838,41.0847 C17.655,39.9677 17.55,38.8367 17.6,37.7017 C17.609,37.4997 17.382,37.0177 17.91,37.1537 C18.292,37.2527 18.984,36.8137 18.999,37.6907 C19.026,39.1737 19.224,40.6327 19.603,42.0707 C21.313,48.5557 27.18,53.5927 33.829,54.2677 C42.655,55.1617 50.352,49.5597 52.187,40.9037 C54.094,31.9077 47.874,22.7527 38.787,21.1767 C37.805,21.0057 36.821,20.8967 35.822,20.8817" id="Fill-7" fill="#00B3C1"></path>
                <path d="M48.2695,37.7098 C48.2685,30.2748 41.8195,24.6548 34.4065,25.6118 C34.1755,25.6418 33.7875,25.9398 33.6645,25.5148 C33.4965,24.9358 33.8795,24.1838 34.2975,24.0948 C41.6355,22.5368 49.1965,27.5598 50.7035,34.9908 C52.3915,43.3198 46.7125,51.0838 38.2665,51.9938 C30.7965,52.7988 23.8405,47.2578 22.9165,39.7828 C22.8225,39.0218 22.8005,38.2628 22.8065,37.4998 C22.8095,37.0768 23.3515,36.6518 23.7345,36.7828 C24.0255,36.8838 23.8515,37.1478 23.8475,37.3208 C23.7825,40.2478 24.5725,42.9258 26.4165,45.1938 C29.6555,49.1788 33.8845,50.7778 38.8825,49.5738 C43.9255,48.3578 46.9725,44.9998 48.0825,39.9158 C48.2415,39.1888 48.2745,38.4508 48.2695,37.7098" id="Fill-8" fill="#00B3C1"></path>
                <path d="M9.1562,19.4784 C9.5882,19.3414 9.7512,19.5494 9.9362,19.6594 C15.9172,23.1654 21.7842,26.8584 27.6862,30.4934 C30.6702,32.3304 33.3062,34.6284 35.7392,37.1514 C35.8842,37.3014 36.2162,37.4654 36.0602,37.6904 C35.8772,37.9544 35.5962,37.6894 35.3832,37.6004 C31.9942,36.2004 28.7922,34.4524 25.8632,32.2474 C20.5062,28.2134 15.1872,24.1314 9.8532,20.0674 C9.6402,19.9044 9.4422,19.7204 9.1562,19.4784" id="Fill-9" fill="#00B3C1"></path>
                <path d="M15.2856,17.0965 C15.2836,14.8615 17.0656,13.0665 19.2746,13.0795 C21.4576,13.0925 23.2286,14.8745 23.2386,17.0695 C23.2486,19.2975 21.4656,21.0775 19.2316,21.0685 C17.0156,21.0585 15.2886,19.3205 15.2856,17.0965" id="Fill-10" fill="#00B3C1"></path>
                <path d="M30.4399,23.5067 C30.4379,25.2747 29.0279,26.6967 27.2789,26.6957 C25.5349,26.6947 24.0919,25.2657 24.0759,23.5237 C24.0599,21.7597 25.5359,20.2817 27.2969,20.2987 C29.0559,20.3157 30.4419,21.7307 30.4399,23.5067" id="Fill-11" fill="#00B3C1"></path>
                <path d="M16.7722,29.0604 C16.7972,30.3334 15.7552,31.4154 14.4742,31.4474 C13.2132,31.4774 12.1222,30.4024 12.1162,29.1244 C12.1092,27.8734 13.1262,26.8194 14.3752,26.7824 C15.6482,26.7454 16.7472,27.7894 16.7722,29.0604" id="Fill-12" fill="#00B3C1"></path>
            </g>
        </g>
    </g>
</svg>