<?xml version="1.0" encoding="UTF-8"?>
<svg width="74px" height="75px" viewBox="0 0 74 75" version="1.1" xmlns="http://www.w3.org/2000/svg" xmlns:xlink="http://www.w3.org/1999/xlink">
    <!-- Generator: Sketch 53 (72520) - https://sketchapp.com -->
    <title>Group 19</title>
    <desc>Created with Sketch.</desc>
    <g id="Page-1" stroke="none" stroke-width="1" fill="none" fill-rule="evenodd">
        <g id="Logos-with-Names" transform="translate(-286.000000, -732.000000)">
            <g id="Group-19" transform="translate(286.000000, 731.961662)">
                <g id="Group-5" transform="translate(0.000000, 0.730000)">
                    <path d="M73.0561,37.0479 C73.0561,57.0829 56.8141,73.3259 36.7781,73.3259 C16.7421,73.3259 0.5001,57.0829 0.5001,37.0479 C0.5001,17.0119 16.7421,0.7699 36.7781,0.7699 C56.8141,0.7699 73.0561,17.0119 73.0561,37.0479" id="Fill-1" fill="#FFFFFF"></path>
                    <path d="M73.0561,37.0479 C73.0561,57.0829 56.8141,73.3259 36.7781,73.3259 C16.7421,73.3259 0.5001,57.0829 0.5001,37.0479 C0.5001,17.0119 16.7421,0.7699 36.7781,0.7699 C56.8141,0.7699 73.0561,17.0119 73.0561,37.0479 Z" id="Stroke-3" stroke="#040201"></path>
                </g>
                <g id="Group-18" transform="translate(7.000000, 13.730000)">
                    <path d="M58.2646,17.8545 C55.5526,5.3865 40.6016,-1.9475 24.8696,1.4735 C9.1366,4.8935 -1.4194,17.7745 1.2916,30.2415 C4.0026,42.7085 18.9536,50.0425 34.6866,46.6225 C50.4196,43.2015 60.9746,30.3205 58.2646,17.8545 M28.7236,39.6115 C19.9436,39.6115 12.8286,32.4945 12.8286,23.7145 C12.8286,14.9375 19.9436,7.8225 28.7236,7.8225 C37.5006,7.8225 44.6176,14.9375 44.6176,23.7145 C44.6176,32.4945 37.5006,39.6115 28.7236,39.6115" id="Fill-7" fill="#37808C"></path>
                    <path d="M32.6083,3.998 C21.3823,3.998 12.2803,13.1 12.2803,24.325 C12.2803,35.552 21.3823,44.653 32.6083,44.653 C43.8333,44.653 52.9363,35.552 52.9363,24.325 C52.9363,13.1 43.8333,3.998 32.6083,3.998 M28.6493,39.31 C20.0173,39.31 13.0233,32.312 13.0233,23.682 C13.0233,15.052 20.0173,8.057 28.6493,8.057 C37.2783,8.057 44.2743,15.052 44.2743,23.682 C44.2743,32.312 37.2783,39.31 28.6493,39.31" id="Fill-8" fill="#9BD3CD"></path>
                    <path d="M23.0067,22.041 L21.3017,18.467 C20.8947,17.619 20.4767,16.663 20.3337,16.212 L20.3007,16.245 C20.3557,16.883 20.3667,17.686 20.3777,18.356 L20.4217,22.041 L19.1787,22.041 L19.1787,14.43 L20.6087,14.43 L22.4567,18.147 C22.8087,18.852 23.1387,19.753 23.2377,20.105 L23.2707,20.072 C23.2377,19.687 23.1607,18.599 23.1607,17.905 L23.1387,14.43 L24.3377,14.43 L24.3377,22.041 L23.0067,22.041" id="Fill-9" fill="#1B1A19"></path>
                    <path d="M26.6029,19.5879 L26.6029,19.6759 C26.6029,20.4459 26.8889,21.2599 27.9779,21.2599 C28.4949,21.2599 28.9459,21.0729 29.3639,20.7099 L29.8369,21.4469 C29.2539,21.9419 28.5829,22.1839 27.8349,22.1839 C26.2619,22.1839 25.2719,21.0509 25.2719,19.2699 C25.2719,18.2899 25.4809,17.6419 25.9649,17.0919 C26.4159,16.5739 26.9659,16.3439 27.6699,16.3439 C28.2199,16.3439 28.7259,16.4859 29.1989,16.9159 C29.6829,17.3559 29.9249,18.0369 29.9249,19.3349 L29.9249,19.5879 L26.6029,19.5879 Z M27.6699,17.2569 C26.9879,17.2569 26.6139,17.7959 26.6139,18.6969 L28.6709,18.6969 C28.6709,17.7959 28.2749,17.2569 27.6699,17.2569 L27.6699,17.2569 Z" id="Fill-10" fill="#1B1A19"></path>
                    <path d="M36.3583,22.0625 L35.2253,22.0625 L34.5433,19.4995 C34.3673,18.8405 34.1803,17.9825 34.1803,17.9825 L34.1583,17.9825 C34.1583,17.9825 34.0703,18.5325 33.7953,19.5555 L33.1243,22.0625 L31.9923,22.0625 L30.4743,16.5525 L31.6733,16.3875 L32.2773,19.0825 C32.4313,19.7755 32.5643,20.5445 32.5643,20.5445 L32.5973,20.5445 C32.5973,20.5445 32.7063,19.8195 32.9153,19.0485 L33.6303,16.4755 L34.8183,16.4755 L35.4453,18.9835 C35.6763,19.8845 35.7973,20.5675 35.7973,20.5675 L35.8303,20.5675 C35.8303,20.5675 35.9623,19.7205 36.1053,19.0715 L36.6773,16.4755 L37.9313,16.4755 L36.3583,22.0625" id="Fill-11" fill="#1B1A19"></path>
                    <path d="M22.0512,31.8379 L21.3912,30.6599 C20.8632,29.7259 20.5112,29.1979 20.0932,28.7799 C19.9502,28.6369 19.8402,28.5599 19.5982,28.5489 L19.5982,31.8379 L18.3562,31.8379 L18.3562,24.2269 L20.6762,24.2269 C22.3812,24.2269 23.1512,25.2169 23.1512,26.4039 C23.1512,27.4929 22.4472,28.4939 21.2592,28.4939 C21.5342,28.6369 22.0402,29.3739 22.4362,30.0119 L23.5582,31.8379 L22.0512,31.8379 Z M20.2912,25.2489 L19.5982,25.2489 L19.5982,27.6579 L20.2472,27.6579 C20.9072,27.6579 21.2592,27.5699 21.4902,27.3389 C21.6992,27.1299 21.8312,26.8119 21.8312,26.4149 C21.8312,25.6459 21.4132,25.2489 20.2912,25.2489 L20.2912,25.2489 Z" id="Fill-12" fill="#1B1A19"></path>
                    <path d="M25.2184,29.3848 L25.2184,29.4728 C25.2184,30.2418 25.5044,31.0568 26.5934,31.0568 C27.1104,31.0568 27.5614,30.8688 27.9794,30.5068 L28.4524,31.2428 C27.8694,31.7388 27.1984,31.9808 26.4504,31.9808 C24.8774,31.9808 23.8874,30.8478 23.8874,29.0658 C23.8874,28.0868 24.0964,27.4378 24.5804,26.8878 C25.0314,26.3708 25.5814,26.1408 26.2854,26.1408 C26.8354,26.1408 27.3414,26.2828 27.8144,26.7118 C28.2984,27.1528 28.5404,27.8338 28.5404,29.1318 L28.5404,29.3848 L25.2184,29.3848 Z M26.2854,27.0528 C25.6034,27.0528 25.2294,27.5918 25.2294,28.4938 L27.2864,28.4938 C27.2864,27.5918 26.8904,27.0528 26.2854,27.0528 L26.2854,27.0528 Z" id="Fill-13" fill="#1B1A19"></path>
                    <path d="M30.8056,31.958 C29.5846,31.958 29.5846,30.858 29.5846,30.386 L29.5846,25.646 C29.5846,24.887 29.5516,24.479 29.4746,24.018 L30.7176,23.742 C30.8056,24.083 30.8166,24.545 30.8166,25.271 L30.8166,29.989 C30.8166,30.737 30.8496,30.858 30.9376,30.99 C31.0036,31.09 31.1906,31.145 31.3336,31.078 L31.5316,31.826 C31.3116,31.914 31.0806,31.958 30.8056,31.958" id="Fill-14" fill="#1B1A19"></path>
                    <path d="M32.9062,25.4473 C32.4662,25.4473 32.1252,25.0843 32.1252,24.6443 C32.1252,24.1933 32.4772,23.8303 32.9282,23.8303 C33.3572,23.8303 33.7202,24.1823 33.7202,24.6443 C33.7202,25.0843 33.3572,25.4473 32.9062,25.4473 L32.9062,25.4473 Z M32.3012,31.8383 L32.3012,26.3603 L33.5222,26.1403 L33.5222,31.8383 L32.3012,31.8383 Z" id="Fill-15" fill="#1B1A19"></path>
                    <path d="M36.9862,31.9805 C35.4682,31.9805 34.6212,30.9145 34.6212,29.1215 C34.6212,27.0965 35.8312,26.1285 37.0742,26.1285 C37.6792,26.1285 38.1192,26.2725 38.6142,26.7345 L38.0092,27.5375 C37.6792,27.2405 37.3932,27.1085 37.0742,27.1085 C36.6892,27.1085 36.3702,27.3055 36.1942,27.6685 C36.0292,28.0095 35.9632,28.5275 35.9632,29.2195 C35.9632,29.9785 36.0842,30.4625 36.3372,30.7375 C36.5132,30.9355 36.7772,31.0565 37.0742,31.0565 C37.4592,31.0565 37.8332,30.8695 38.1962,30.5065 L38.7682,31.2435 C38.2622,31.7495 37.7342,31.9805 36.9862,31.9805" id="Fill-16" fill="#1B1A19"></path>
                    <path d="M39.8,31.959 C39.354,31.959 38.988,31.6 38.988,31.143 C38.988,30.688 39.354,30.325 39.8,30.325 C40.246,30.325 40.612,30.688 40.612,31.143 C40.612,31.6 40.246,31.959 39.8,31.959 L39.8,31.959 Z M39.8,30.488 C39.453,30.488 39.174,30.778 39.174,31.143 C39.174,31.507 39.453,31.801 39.8,31.801 C40.147,31.801 40.428,31.507 40.428,31.143 C40.428,30.778 40.147,30.488 39.8,30.488 L39.8,30.488 Z M39.96,31.595 C39.925,31.533 39.91,31.509 39.875,31.443 C39.785,31.278 39.756,31.232 39.723,31.22 C39.715,31.215 39.706,31.213 39.695,31.213 L39.695,31.595 L39.515,31.595 L39.515,30.679 L39.855,30.679 C40.018,30.679 40.125,30.787 40.125,30.947 C40.125,31.085 40.033,31.197 39.921,31.199 C39.938,31.215 39.947,31.224 39.958,31.239 C40.011,31.305 40.178,31.595 40.178,31.595 L39.96,31.595 Z M39.864,30.84 C39.844,30.833 39.804,30.826 39.76,30.826 L39.695,30.826 L39.695,31.074 L39.756,31.074 C39.835,31.074 39.87,31.065 39.894,31.044 C39.916,31.022 39.93,30.988 39.93,30.951 C39.93,30.895 39.908,30.857 39.864,30.84 L39.864,30.84 Z" id="Fill-17" fill="#1B1A19"></path>
                </g>
            </g>
        </g>
    </g>
</svg>