<?xml version="1.0" encoding="UTF-8"?>
<svg width="75px" height="75px" viewBox="0 0 75 75" version="1.1" xmlns="http://www.w3.org/2000/svg" xmlns:xlink="http://www.w3.org/1999/xlink">
    <!-- Generator: Sketch 53 (72520) - https://sketchapp.com -->
    <title>Group 14</title>
    <desc>Created with Sketch.</desc>
    <g id="Page-1" stroke="none" stroke-width="1" fill="none" fill-rule="evenodd">
        <g id="Logos-with-Names" transform="translate(-277.000000, -847.000000)">
            <g id="Group-14" transform="translate(277.500000, 847.631043)">
                <path d="M73.6341,37.0675 C73.6341,57.2625 57.2621,73.6335 37.0671,73.6335 C16.8721,73.6335 0.5001,57.2625 0.5001,37.0675 C0.5001,16.8715 16.8721,0.5005 37.0671,0.5005 C57.2621,0.5005 73.6341,16.8715 73.6341,37.0675" id="Fill-1" fill="#FFFFFF"></path>
                <path d="M73.6341,37.0675 C73.6341,57.2625 57.2621,73.6335 37.0671,73.6335 C16.8721,73.6335 0.5001,57.2625 0.5001,37.0675 C0.5001,16.8715 16.8721,0.5005 37.0671,0.5005 C57.2621,0.5005 73.6341,16.8715 73.6341,37.0675 Z" id="Stroke-3" stroke="#040201"></path>
                <path d="M29.7455,35.504 L29.7455,56.525" id="Stroke-6" stroke="#536876" stroke-width="2.986" stroke-linecap="round"></path>
                <path d="M48.2845,16.0665 L48.2845,37.0875" id="Stroke-7" stroke="#536876" stroke-width="2.986" stroke-linecap="round"></path>
                <path d="M29.3407,16.5118 L29.3407,18.6638" id="Stroke-8" stroke="#536876" stroke-width="2.986" stroke-linecap="round"></path>
                <path d="M21.3109,45.34 L19.1579,45.34" id="Stroke-9" stroke="#536876" stroke-width="2.986" stroke-linecap="round"></path>
                <path d="M39.6095,45.34 L37.4565,45.34" id="Stroke-10" stroke="#536876" stroke-width="2.986" stroke-linecap="round"></path>
                <path d="M58.5165,26.9679 L56.3635,26.9679" id="Stroke-11" stroke="#536876" stroke-width="2.986" stroke-linecap="round"></path>
                <path d="M39.8509,26.9679 L18.8299,26.9679" id="Stroke-12" stroke="#536876" stroke-width="2.986" stroke-linecap="round"></path>
                <polyline id="Stroke-13" stroke="#F8794A" stroke-width="2.986" stroke-linecap="round" stroke-linejoin="round" points="47.8526 58.0675 47.8526 45.6025 59.8236 45.6025"></polyline>
            </g>
        </g>
    </g>
</svg>