<?xml version="1.0" encoding="UTF-8"?>
<svg width="75px" height="75px" viewBox="0 0 75 75" version="1.1" xmlns="http://www.w3.org/2000/svg" xmlns:xlink="http://www.w3.org/1999/xlink">
    <!-- Generator: Sketch 53 (72520) - https://sketchapp.com -->
    <title>Group 9</title>
    <desc>Created with Sketch.</desc>
    <g id="Page-1" stroke="none" stroke-width="1" fill="none" fill-rule="evenodd">
        <g id="Logos-with-Names" transform="translate(-660.000000, -534.000000)">
            <g id="Group-9" transform="translate(660.500000, 534.377014)">
                <path d="M73.1683,36.8344 C73.1683,56.9004 56.9013,73.1684 36.8343,73.1684 C16.7673,73.1684 0.5003,56.9004 0.5003,36.8344 C0.5003,16.7674 16.7673,0.5004 36.8343,0.5004 C56.9013,0.5004 73.1683,16.7674 73.1683,36.8344" id="Fill-1" fill="#FFFFFF"></path>
                <path d="M73.1683,36.8344 C73.1683,56.9004 56.9013,73.1684 36.8343,73.1684 C16.7673,73.1684 0.5003,56.9004 0.5003,36.8344 C0.5003,16.7674 16.7673,0.5004 36.8343,0.5004 C56.9013,0.5004 73.1683,16.7674 73.1683,36.8344 Z" id="Stroke-3" stroke="#040201"></path>
                <path d="M40.0904,35.0473 L32.1064,43.0453 C31.3694,42.4993 30.6734,41.8993 30.0184,41.2433 C29.3634,40.5743 28.7624,39.8793 28.2164,39.1553 L36.2004,31.1723 C36.5964,32.0043 37.1284,32.7693 37.8104,33.4513 C38.4924,34.1333 39.2714,34.6513 40.0904,35.0473 M25.0504,22.6433 C26.5074,22.1583 28.2244,21.9233 29.8584,21.9823 L24.3954,27.4333 C24.3024,25.8253 24.4784,24.1943 25.0504,22.6433 M48.6184,46.2113 C47.0474,46.7353 45.4394,46.9613 43.8424,46.8533 C47.4474,43.1963 49.2584,41.3863 49.2734,41.4213 C49.3194,43.0313 50.1904,45.6873 48.6184,46.2113 M43.1874,35.8393 C44.8794,35.9353 46.6004,35.5033 48.0874,34.5483 C48.5044,35.6233 48.8134,36.7013 48.9854,37.8263 L40.2534,46.5663 C39.1344,46.3743 38.0284,46.0743 36.9644,45.6793 C36.1184,45.3643 35.2854,44.9853 34.4794,44.5493 C40.0904,38.8503 42.9934,35.9463 43.1874,35.8393 M35.4224,28.0743 L26.7024,36.7943 C26.2654,35.9893 25.8964,35.1573 25.5824,34.3113 C25.1874,33.2333 24.8864,32.1413 24.6954,31.0223 L33.4324,22.2823 C34.5514,22.4733 35.6484,22.7663 36.7264,23.1613 C35.7844,24.6353 35.3264,26.3823 35.4224,28.0743" id="Fill-6" fill="#080738"></path>
                <path d="M43.1873,35.8413 L38.2473,40.7813 L34.4803,44.5483 C33.6623,44.1113 32.8703,43.6063 32.1063,43.0323 L37.4553,37.6833 L40.0893,35.0493 C41.0723,35.5283 42.1233,35.7863 43.1873,35.8413 M36.2003,31.1743 L33.5663,33.8083 L28.2163,39.1573 C27.6433,38.3933 27.1383,37.6023 26.7023,36.7823 L30.4683,33.0163 L35.4083,28.0763 C35.4773,29.1413 35.7363,30.1923 36.2003,31.1743 M30.0313,14.0203 C37.5373,6.5143 49.7243,6.5143 57.2433,14.0203 C64.7633,21.5393 64.7633,33.7123 57.2433,41.2323 C54.7603,43.7153 51.7713,45.3663 48.6183,46.2123 C49.0413,44.6433 49.2603,43.0323 49.2733,41.4223 L43.8423,46.8543 C42.6413,46.8673 41.4403,46.7723 40.2533,46.5543 L48.9733,37.8333 C48.7823,36.7143 48.4823,35.6093 48.0863,34.5443 C48.5783,34.2313 49.0413,33.8623 49.4653,33.4393 C52.6723,30.2193 52.6723,25.0053 49.4653,21.7983 C46.2443,18.5913 41.0313,18.5913 37.8243,21.7983 C37.4013,22.2353 37.0323,22.6863 36.7183,23.1773 C35.6403,22.7803 34.5493,22.4813 33.4293,22.2893 L24.7093,31.0103 C24.4913,29.8223 24.3953,28.6223 24.4093,27.4213 L29.8403,21.9893 C28.2303,22.0033 26.6203,22.2223 25.0503,22.6453 C25.8963,19.4793 27.5483,16.5033 30.0313,14.0203" id="Fill-7" fill="#0037FF"></path>
                <path d="M24.2047,47.059 C24.8867,47.728 25.6647,48.274 26.4837,48.669 L18.4997,56.653 C17.7637,56.107 17.0677,55.506 16.4127,54.852 C15.7567,54.183 15.1567,53.487 14.6107,52.764 L22.5947,44.781 C22.9897,45.613 23.5227,46.377 24.2047,47.059 M36.9507,45.681 C38.0287,46.077 39.1337,46.377 40.2397,46.568 L26.6337,60.174 C24.6417,59.819 22.6897,59.151 20.8747,58.167 L29.5817,49.461 C31.8327,49.584 34.1257,48.779 35.8457,47.059 C36.2687,46.636 36.6367,46.172 36.9507,45.681 M24.2047,35.418 C22.4857,37.138 21.6937,39.431 21.8027,41.682 L13.0957,50.389 C12.1137,48.574 11.4447,46.622 11.0897,44.63 L24.6957,31.024 C24.8867,32.143 25.1867,33.235 25.5827,34.313 C25.0917,34.627 24.6277,34.996 24.2047,35.418 M30.2227,60.474 L43.8417,46.854 C45.4527,46.84 47.0497,46.636 48.6187,46.213 C47.7727,49.379 46.1217,52.354 43.6377,54.838 C39.9257,58.55 35.0807,60.419 30.2227,60.474 M25.0507,22.645 C24.6277,24.214 24.4097,25.825 24.3957,27.421 L10.7897,41.028 C10.8447,36.169 12.7137,31.338 16.4257,27.626 C18.9097,25.142 21.8987,23.492 25.0507,22.645" id="Fill-8" fill="#0037FF"></path>
            </g>
        </g>
    </g>
</svg>