<?xml version="1.0" encoding="UTF-8"?>
<svg width="73px" height="74px" viewBox="0 0 73 74" version="1.1" xmlns="http://www.w3.org/2000/svg" xmlns:xlink="http://www.w3.org/1999/xlink">
    <!-- Generator: Sketch 53 (72520) - https://sketchapp.com -->
    <title>Group 16</title>
    <desc>Created with Sketch.</desc>
    <g id="Page-1" stroke="none" stroke-width="1" fill="none" fill-rule="evenodd">
        <g id="Logos-with-Names" transform="translate(-277.000000, -948.000000)">
            <g id="Group-16" transform="translate(277.500000, 948.673367)">
                <path d="M71.9117,36.2061 C71.9117,55.9261 55.9257,71.9121 36.2057,71.9121 C16.4857,71.9121 0.4997,55.9261 0.4997,36.2061 C0.4997,16.4861 16.4857,0.5001 36.2057,0.5001 C55.9257,0.5001 71.9117,16.4861 71.9117,36.2061" id="Fill-1" fill="#FFFFFF"></path>
                <path d="M71.9117,36.2061 C71.9117,55.9261 55.9257,71.9121 36.2057,71.9121 C16.4857,71.9121 0.4997,55.9261 0.4997,36.2061 C0.4997,16.4861 16.4857,0.5001 36.2057,0.5001 C55.9257,0.5001 71.9117,16.4861 71.9117,36.2061 Z" id="Stroke-3" stroke="#040201"></path>
                <path d="M42.4066,34.2334 L42.4116,34.2334 C42.4116,35.5024 42.4126,36.7704 42.4106,38.0394 C42.4096,38.2214 42.3896,38.4024 42.6636,38.3824 C43.4506,38.3294 44.2496,38.3464 45.0226,38.2124 C46.5656,37.9434 47.5436,36.9464 47.7476,35.4324 C47.8436,34.7274 47.8616,33.9864 47.7606,33.2834 C47.5616,31.8924 46.7916,30.8964 45.4376,30.3944 C44.5636,30.0704 43.6556,30.1074 42.7486,30.0944 C42.4636,30.0904 42.3986,30.1974 42.4016,30.4624 C42.4136,31.7184 42.4066,32.9764 42.4066,34.2334 M40.8666,34.2224 C40.8666,32.5564 40.8736,30.8904 40.8606,29.2244 C40.8576,28.9144 40.9306,28.7874 41.2666,28.8034 C42.5206,28.8624 43.7836,28.8254 45.0286,28.9574 C47.5736,29.2254 49.1656,30.9614 49.3636,33.5044 C49.4246,34.2904 49.4096,35.0624 49.2386,35.8274 C48.7786,37.8854 47.3876,39.2264 45.2196,39.4954 C43.8636,39.6644 42.4796,39.6084 41.1076,39.6534 C40.8316,39.6634 40.8676,39.4634 40.8676,39.2904 C40.8676,37.6004 40.8676,35.9124 40.8666,34.2224" id="Fill-6" fill="#00B64A"></path>
                <path d="M19.9669,35.5059 C19.9869,35.6619 20.0059,35.9529 20.0629,36.2359 C20.2599,37.2019 20.9499,37.9219 21.8889,38.0719 C22.8619,38.2289 23.7209,37.9909 24.3229,37.1479 C24.9759,36.2329 24.9989,34.6869 24.3909,33.7369 C23.6109,32.5199 21.7789,32.2969 20.7409,33.3029 C20.1589,33.8659 19.9939,34.5939 19.9669,35.5059 M24.7779,32.6389 C24.7779,32.4149 24.7899,32.2359 24.7749,32.0609 C24.7569,31.8279 24.8239,31.7109 25.0819,31.7289 C25.3369,31.7459 25.5949,31.7469 25.8499,31.7289 C26.1279,31.7079 26.2089,31.8139 26.2069,32.0899 C26.1949,33.5219 26.2099,34.9539 26.1989,36.3869 C26.1919,37.3399 26.2049,38.2969 26.1259,39.2449 C25.9669,41.1489 24.7819,42.3229 22.8849,42.5399 C21.6699,42.6779 20.5369,42.5019 19.5979,41.6449 C19.1439,41.2309 18.8499,40.7139 18.6849,40.0549 C19.1829,40.0549 19.6319,40.0429 20.0799,40.0659 C20.1599,40.0689 20.2509,40.2069 20.3039,40.3009 C20.8239,41.2109 21.6269,41.5639 22.8049,41.3889 C23.7659,41.2459 24.4439,40.6109 24.6329,39.6279 C24.7269,39.1379 24.7609,38.6349 24.8329,38.0509 C24.6749,38.1259 24.6259,38.1339 24.6009,38.1629 C23.6129,39.3459 22.3249,39.4869 20.9499,39.1379 C19.6069,38.7969 18.8099,37.8619 18.5109,36.5279 C18.2439,35.3309 18.3249,34.1499 19.0089,33.0949 C19.8129,31.8559 21.0049,31.3729 22.4569,31.4999 C23.3019,31.5729 24.0329,31.8829 24.5839,32.5559 C24.6079,32.5849 24.6619,32.5909 24.7779,32.6389" id="Fill-7" fill="#00B64A"></path>
                <path d="M31.1442,34.9277 L31.1442,34.9267 C31.8302,34.9267 32.5162,34.9227 33.2012,34.9287 C33.4512,34.9297 33.5212,34.8367 33.4722,34.5857 C33.2562,33.4697 32.4252,32.7207 31.3922,32.6637 C29.9472,32.5837 29.1042,33.4917 28.8622,34.4937 C28.7692,34.8777 28.8032,34.9247 29.1912,34.9267 C29.8422,34.9307 30.4932,34.9277 31.1442,34.9277 M34.8012,37.4607 C34.6722,38.0357 34.3642,38.4547 33.9962,38.8227 C32.4742,40.3437 29.1262,40.1667 27.9042,38.1637 C26.8962,36.5107 26.9172,33.1127 29.4252,31.8957 C30.7792,31.2397 32.8982,31.3237 34.0292,32.6517 C34.8022,33.5617 35.0512,34.6387 35.0222,35.8037 C35.0162,36.0277 34.8832,36.0347 34.7202,36.0347 C34.0212,36.0337 33.3222,36.0357 32.6242,36.0357 C31.4602,36.0357 30.2952,36.0417 29.1312,36.0317 C28.8492,36.0297 28.7422,36.0957 28.7752,36.4087 C28.8812,37.4177 29.5622,38.2727 30.5232,38.5497 C31.6162,38.8657 32.5602,38.5567 33.2282,37.6937 C33.3182,37.5767 33.5022,37.4837 33.6502,37.4707 C34.0172,37.4397 34.3882,37.4607 34.8012,37.4607" id="Fill-8" fill="#00B64A"></path>
                <path d="M15.9669,35.8193 C15.4619,35.8743 15.0749,35.8823 14.7029,35.9623 C14.0249,36.1063 13.3189,36.2113 12.6889,36.4813 C11.8209,36.8543 11.8029,38.0273 12.6009,38.5183 C13.7019,39.1963 15.3599,38.6223 15.7419,37.3873 C15.8889,36.9123 15.8899,36.3903 15.9669,35.8193 M16.1069,38.5813 C15.9449,38.6903 15.8799,38.7153 15.8399,38.7623 C15.0219,39.7373 13.9339,39.8883 12.7629,39.7623 C12.2019,39.7023 11.6759,39.5353 11.2209,39.1733 C10.1159,38.2933 10.2109,36.5523 11.4139,35.8043 C12.0799,35.3893 12.8289,35.2153 13.5889,35.0913 C14.2549,34.9843 14.9269,34.9123 15.5979,34.8313 C15.7609,34.8113 15.8939,34.7943 15.8949,34.5803 C15.8959,33.8473 15.5629,33.0723 14.8099,32.7883 C14.0079,32.4853 13.1459,32.6813 12.7019,33.3123 C12.5779,33.4873 12.5389,33.7193 12.4299,33.9083 C12.3739,34.0053 12.2559,34.1153 12.1549,34.1283 C11.8909,34.1583 11.6189,34.1233 11.3529,34.1433 C11.0659,34.1653 10.9879,34.0673 11.0339,33.7823 C11.2089,32.6973 11.9399,31.9183 13.1019,31.6373 C13.8859,31.4483 14.6709,31.4703 15.4449,31.7143 C16.4889,32.0413 17.0079,32.8273 17.1709,33.8403 C17.2889,34.5703 17.2829,35.3213 17.3189,36.0633 C17.3719,37.1543 17.4069,38.2463 17.4639,39.3373 C17.4759,39.5803 17.4089,39.6783 17.1579,39.6633 C16.9029,39.6463 16.6449,39.6513 16.3899,39.6643 C16.1749,39.6743 16.0959,39.5853 16.1049,39.3773 C16.1139,39.1413 16.1069,38.9053 16.1069,38.5813" id="Fill-9" fill="#00B64A"></path>
                <path d="M4.4823,32.0967 L4.4843,32.0967 C4.4843,32.6437 4.4863,33.1907 4.4833,33.7377 C4.4823,33.9327 4.5183,34.0847 4.7653,34.0787 C5.5443,34.0577 6.3273,34.0907 7.1003,34.0107 C8.2623,33.8907 8.9283,33.0827 8.8883,31.9537 C8.8523,30.9067 8.1623,30.2477 7.0003,30.1557 C6.8963,30.1477 6.7913,30.1447 6.6873,30.1447 C6.0823,30.1387 5.4763,30.1567 4.8733,30.1227 C4.5433,30.1057 4.4723,30.2397 4.4793,30.5257 C4.4913,31.0487 4.4823,31.5737 4.4823,32.0967 L4.4823,32.0967 Z M2.9733,32.0637 C2.9733,31.0967 2.9793,30.1297 2.9683,29.1637 C2.9663,28.9187 3.0173,28.7997 3.2943,28.8057 C4.6783,28.8357 6.0653,28.8207 7.4473,28.8817 C8.9383,28.9487 10.1163,29.9377 10.3623,31.3387 C10.7333,33.4517 9.5823,35.0447 7.6353,35.2447 C6.5053,35.3617 5.3583,35.3167 4.2193,35.3407 C3.9163,35.3477 3.6123,35.3277 3.3113,35.3457 C3.0473,35.3607 2.9693,35.2517 2.9713,34.9987 C2.9823,34.0207 2.9753,33.0417 2.9753,32.0637 L2.9733,32.0637 Z" id="Fill-10" fill="#00B64A"></path>
                <path d="M62.8219,31.7334 C63.3459,31.7334 63.8009,31.7134 64.2509,31.7484 C64.3629,31.7554 64.5159,31.9164 64.5579,32.0394 C65.2029,33.8854 65.8319,35.7374 66.4659,37.5884 C66.5049,37.7044 66.5499,37.8174 66.6809,37.9344 C66.7319,37.8144 66.7909,37.6964 66.8349,37.5734 C67.4669,35.7724 68.1029,33.9724 68.7209,32.1674 C68.8319,31.8434 68.9809,31.6874 69.3439,31.7254 C69.6879,31.7614 70.0389,31.7334 70.4589,31.7334 C70.2969,32.1594 70.1589,32.5344 70.0099,32.9044 C68.9899,35.4554 67.9739,38.0064 66.9419,40.5524 C66.3599,41.9874 65.0919,42.7404 63.5539,42.5794 C63.4659,42.5694 63.3919,42.4184 63.3119,42.3314 C63.3069,42.3254 63.3109,42.3084 63.3109,42.2964 C63.3189,41.9954 63.2219,41.6164 63.3689,41.4174 C63.4829,41.2624 63.9009,41.3294 64.1849,41.3044 C64.9819,41.2374 65.7629,40.4834 65.8119,39.7124 C65.8199,39.6034 65.7669,39.4874 65.7259,39.3794 C64.8039,36.9794 63.8789,34.5794 62.9559,32.1784 C62.9079,32.0514 62.8769,31.9184 62.8219,31.7334" id="Fill-11" fill="#00B64A"></path>
                <path d="M55.6364,38.5166 C55.5914,38.6216 55.5644,38.7416 55.4974,38.8296 C54.5874,40.0316 52.6204,40.0606 51.6454,39.4466 C50.8514,38.9466 50.5444,38.1446 50.5214,37.2696 C50.4744,35.5116 50.5024,33.7526 50.4954,31.9946 C50.4944,31.7946 50.5794,31.7256 50.7694,31.7306 C51.0364,31.7386 51.3054,31.7466 51.5724,31.7286 C51.8464,31.7096 51.9344,31.8076 51.9314,32.0866 C51.9214,33.5076 51.9164,34.9286 51.9414,36.3496 C51.9484,36.7386 52.0284,37.1376 52.1434,37.5106 C52.3664,38.2266 52.8954,38.6146 53.6094,38.6536 C54.4374,38.6996 55.0504,38.3566 55.3694,37.6556 C55.6794,36.9716 55.7264,36.2366 55.7374,35.5026 C55.7544,34.3726 55.7504,33.2436 55.7384,32.1136 C55.7354,31.8336 55.8084,31.7016 56.1094,31.7306 C56.4514,31.7636 56.9074,31.6486 57.1064,31.8286 C57.2814,31.9856 57.1774,32.4616 57.1784,32.7966 C57.1814,34.9626 57.1754,37.1296 57.1854,39.2956 C57.1864,39.5636 57.1284,39.6846 56.8404,39.6606 C56.5284,39.6346 56.1174,39.7576 55.9284,39.6006 C55.7614,39.4616 55.8394,39.0276 55.8064,38.7236 C55.8024,38.6936 55.7804,38.6646 55.7674,38.6356 C55.7234,38.5956 55.6794,38.5566 55.6364,38.5166" id="Fill-12" fill="#00B64A"></path>
                <path d="M59.2191,35.6572 C59.2191,34.8422 59.2121,34.0262 59.2231,33.2112 C59.2261,32.9152 59.1241,32.7672 58.8151,32.8102 C58.7921,32.8132 58.7681,32.8122 58.7451,32.8112 C57.8731,32.7842 57.9931,33.0002 58.0001,31.9822 C58.0011,31.8992 58.1471,31.7652 58.2431,31.7462 C58.4341,31.7082 58.6391,31.7192 58.8351,31.7372 C59.1341,31.7642 59.2261,31.6242 59.2201,31.3482 C59.2111,30.8832 59.2361,30.4162 59.2141,29.9512 C59.1981,29.6362 59.3181,29.5352 59.6191,29.5592 C59.8731,29.5812 60.1311,29.5742 60.3871,29.5622 C60.6041,29.5532 60.6731,29.6482 60.6701,29.8532 C60.6621,30.3782 60.6741,30.9022 60.6641,31.4272 C60.6591,31.6522 60.7431,31.7422 60.9691,31.7342 C61.2711,31.7232 61.5741,31.7392 61.8771,31.7302 C62.0671,31.7252 62.1411,31.7962 62.1551,31.9912 C62.2131,32.8132 62.2191,32.8092 61.3931,32.8132 C60.5341,32.8182 60.6731,32.7242 60.6691,33.5322 C60.6631,34.9072 60.6651,36.2822 60.6701,37.6562 C60.6731,38.3942 60.9611,38.6972 61.7011,38.7172 C61.9511,38.7232 62.0141,38.8132 62.0181,39.0482 C62.0301,39.8002 62.0331,39.8142 61.2841,39.7952 C61.0091,39.7882 60.7271,39.7472 60.4601,39.6762 C59.6741,39.4642 59.2591,38.9552 59.2351,38.1382 C59.2111,37.3122 59.2301,36.4842 59.2301,35.6572 L59.2191,35.6572 Z" id="Fill-13" fill="#00B64A"></path>
                <path d="M37.5841,32.6592 C38.0071,31.8462 38.6881,31.5542 39.5251,31.5282 C39.7481,31.5202 39.8451,31.6002 39.8371,31.8302 C39.8271,32.1412 39.8351,32.4532 39.8351,32.8132 C39.6341,32.8132 39.4761,32.8112 39.3181,32.8132 C38.4141,32.8262 37.8471,33.2892 37.6931,34.1832 C37.6181,34.6172 37.5751,35.0612 37.5691,35.5022 C37.5531,36.7492 37.5531,37.9962 37.5691,39.2422 C37.5731,39.5622 37.4801,39.6912 37.1531,39.6602 C36.9221,39.6382 36.6871,39.6422 36.4551,39.6592 C36.2071,39.6782 36.1281,39.5742 36.1291,39.3382 C36.1321,38.3822 36.1211,37.4272 36.1191,36.4722 C36.1151,35.0272 36.1241,33.5832 36.1071,32.1382 C36.1041,31.8392 36.1761,31.6922 36.4921,31.7362 C36.5151,31.7392 36.5381,31.7352 36.5621,31.7362 C36.8391,31.7472 37.1851,31.6652 37.3731,31.8012 C37.5181,31.9052 37.4621,32.2852 37.5001,32.5412 C37.5041,32.5702 37.5381,32.5962 37.5841,32.6592" id="Fill-14" fill="#00B64A"></path>
                <path d="M2.976,38.2461 C2.976,37.8751 2.984,37.5031 2.973,37.1311 C2.966,36.9021 3.061,36.8211 3.284,36.8311 C3.586,36.8441 3.889,36.8421 4.19,36.8321 C4.395,36.8251 4.486,36.8981 4.484,37.1111 C4.477,37.8671 4.477,38.6221 4.484,39.3781 C4.486,39.5931 4.392,39.6631 4.189,39.6581 C3.876,39.6491 3.562,39.6511 3.248,39.6581 C3.038,39.6621 2.964,39.5711 2.971,39.3611 C2.984,38.9901 2.975,38.6181 2.975,38.2461 L2.976,38.2461 Z" id="Fill-15" fill="#00B64A"></path>
            </g>
        </g>
    </g>
</svg>