<?xml version="1.0" encoding="UTF-8"?>
<svg width="75px" height="74px" viewBox="0 0 75 74" version="1.1" xmlns="http://www.w3.org/2000/svg" xmlns:xlink="http://www.w3.org/1999/xlink">
    <!-- Generator: Sketch 53 (72520) - https://sketchapp.com -->
    <title>Group 11</title>
    <desc>Created with Sketch.</desc>
    <g id="Page-1" stroke="none" stroke-width="1" fill="none" fill-rule="evenodd">
        <g id="Logos-with-Names" transform="translate(-668.000000, -645.000000)">
            <g id="Group-11" transform="translate(668.500000, 644.377014)">
                <g id="Group-5" transform="translate(0.000000, 0.659000)">
                    <path d="M73.4014,37.0942 C73.4014,57.1162 57.1704,73.3472 37.1474,73.3472 C17.1254,73.3472 0.8944,57.1162 0.8944,37.0942 C0.8944,17.0722 17.1254,0.8412 37.1474,0.8412 C57.1704,0.8412 73.4014,17.0722 73.4014,37.0942" id="Fill-1" fill="#FFFFFF"></path>
                    <path d="M73.4014,37.0942 C73.4014,57.1162 57.1704,73.3472 37.1474,73.3472 C17.1254,73.3472 0.8944,57.1162 0.8944,37.0942 C0.8944,17.0722 17.1254,0.8412 37.1474,0.8412 C57.1704,0.8412 73.4014,17.0722 73.4014,37.0942 Z" id="Stroke-3" stroke="#040201"></path>
                </g>
                <g id="Group-10" transform="translate(7.000000, 17.659000)" fill="#F04E23">
                    <polygon id="Fill-7" points="47 8.6768 38.596 0.2728 30.192 8.6768 34.373 12.8598 13.298 33.9338 21.702 42.3378 30.106 33.9338 25.926 29.7538"></polygon>
                    <polygon id="Fill-8" points="0.7107 21.3477 21.7857 0.2727 30.1907 8.6777 9.1157 29.7527"></polygon>
                    <polygon id="Fill-9" points="30.1052 33.9346 51.1802 12.8596 59.5842 21.2646 38.5102 42.3396"></polygon>
                </g>
            </g>
        </g>
    </g>
</svg>