<?xml version="1.0" encoding="UTF-8"?>
<svg width="73px" height="73px" viewBox="0 0 73 73" version="1.1" xmlns="http://www.w3.org/2000/svg" xmlns:xlink="http://www.w3.org/1999/xlink">
    <!-- Generator: Sketch 53 (72520) - https://sketchapp.com -->
    <title>Group 14 Copy</title>
    <desc>Created with Sketch.</desc>
    <g id="Page-1" stroke="none" stroke-width="1" fill="none" fill-rule="evenodd">
        <g id="Logos-with-Names" transform="translate(-933.000000, -838.000000)">
            <g id="Group-14-Copy" transform="translate(932.500000, 838.082076)">
                <path d="M72.5703,35.9855 C72.5703,55.8595 56.4593,71.9695 36.5853,71.9695 C16.7113,71.9695 0.6003,55.8595 0.6003,35.9855 C0.6003,16.1115 16.7113,0.0005 36.5853,0.0005 C56.4593,0.0005 72.5703,16.1115 72.5703,35.9855" id="Fill-1" fill="#E02533"></path>
                <path d="M56.3208,31.9503 L53.7008,31.9503 L53.7008,23.9793 L18.9078,23.9793 L18.9078,53.3833 L32.2228,53.3833 L32.2228,56.0103 L16.2458,56.0103 L16.2458,55.5693 C16.2458,43.2983 16.2458,31.0273 16.2468,18.7563 C16.2468,17.0833 17.3768,15.9613 19.0588,15.9613 C30.5358,15.9603 42.0128,15.9603 53.4898,15.9613 C55.1958,15.9613 56.3188,17.0783 56.3198,18.7833 C56.3218,23.0173 56.3208,27.2513 56.3208,31.4853 L56.3208,31.9503 Z" id="Fill-4" fill="#FFFFFF"></path>
                <path d="M51.3574,52.2345 L48.2464,49.1245 L49.4334,47.9375 L51.3574,49.8615 L55.7984,45.4205 L56.9844,46.6065 L51.3574,52.2345 Z M49.2594,41.8185 C49.2594,40.0305 50.8274,38.4625 52.6154,38.4625 C54.4034,38.4625 55.9724,40.0305 55.9724,41.8185 L55.9724,42.7235 C54.9834,42.1505 53.8394,41.8185 52.6164,41.8185 C51.3924,41.8185 50.2474,42.1515 49.2594,42.7245 L49.2594,41.8185 Z M57.6504,41.8185 C57.6504,39.0995 55.3354,36.7835 52.6154,36.7835 C49.8944,36.7835 47.5814,39.0995 47.5814,41.8185 L47.5814,44.1025 C46.5404,45.2855 45.9034,46.8325 45.9034,48.5305 C45.9034,52.2365 48.9104,55.2435 52.6164,55.2435 C56.3224,55.2435 59.3284,52.2365 59.3284,48.5305 C59.3284,46.8315 58.6914,45.2845 57.6504,44.1015 L57.6504,41.8185 Z" id="Fill-5" fill="#FFFFFF"></path>
                <path d="M39.0933,44.9093 L27.6843,44.8293 C26.1093,44.8173 24.8233,46.0833 24.8123,47.6533 L24.7923,50.4983 L41.9053,50.6183 L41.9263,47.7733 C41.9363,46.2023 40.6683,44.9203 39.0933,44.9093" id="Fill-6" fill="#FFFFFF"></path>
                <path d="M33.3589,28.3663 C29.8539,28.3663 27.0019,31.2113 27.0019,34.7073 C27.0019,38.2033 29.8539,41.0483 33.3589,41.0483 C36.8639,41.0483 39.7159,38.2033 39.7159,34.7073 C39.7159,31.2113 36.8639,28.3663 33.3589,28.3663 M33.3589,41.9573 C29.3509,41.9573 26.0899,38.7043 26.0899,34.7073 C26.0899,30.7103 29.3509,27.4573 33.3589,27.4573 C37.3669,27.4573 40.6279,30.7103 40.6279,34.7073 C40.6279,38.7043 37.3669,41.9573 33.3589,41.9573" id="Fill-7" fill="#FFFFFF"></path>
                <polygon id="Fill-8" fill="#FFFFFF" points="30.413 56.01 45.442 56.01 45.442 53.383 30.413 53.383"></polygon>
                <path d="M19.3809,18.7921 C19.9289,18.7101 20.5329,18.6051 21.1409,18.5331 C21.3419,18.5091 21.4369,18.4191 21.5169,18.2521 C21.7769,17.7111 22.0479,17.1751 22.3509,16.5631 C22.5749,17.0171 22.8069,17.4031 22.9609,17.8171 C23.1559,18.3451 23.4649,18.6071 24.0519,18.6071 C24.4889,18.6071 24.9269,18.7301 25.4199,18.8071 C25.1519,19.0771 24.9109,19.3211 24.6679,19.5641 C24.5069,19.7251 24.3549,19.8971 24.1789,20.0391 C23.9469,20.2261 23.8909,20.4231 23.9599,20.7221 C24.0869,21.2711 24.1559,21.8321 24.2569,22.4421 C23.6989,22.1491 23.1829,21.8901 22.6779,21.6101 C22.4499,21.4831 22.2609,21.4681 22.0239,21.6051 C21.5239,21.8921 21.0039,22.1451 20.4339,22.4421 C20.5409,21.8071 20.6189,21.2291 20.7419,20.6591 C20.8009,20.3851 20.7149,20.2231 20.5289,20.0361 C20.1289,19.6361 19.7579,19.2051 19.3809,18.7921" id="Fill-9" fill="#E02533"></path>
                <path d="M32.4863,18.7989 C32.0313,19.2709 31.6103,19.7169 31.1763,20.1529 C31.0513,20.2779 31.0143,20.3929 31.0493,20.5729 C31.1683,21.1719 31.2603,21.7759 31.3743,22.4449 C30.7883,22.1379 30.2533,21.8719 29.7323,21.5799 C29.5393,21.4719 29.3953,21.4689 29.2013,21.5759 C28.6783,21.8679 28.1403,22.1349 27.5503,22.4409 C27.6543,21.8229 27.7363,21.2649 27.8473,20.7109 C27.9013,20.4419 27.8603,20.2459 27.6523,20.0439 C27.2393,19.6419 26.8613,19.2049 26.4793,18.7929 C27.0393,18.7079 27.6523,18.6029 28.2683,18.5279 C28.4573,18.5059 28.5433,18.4249 28.6183,18.2689 C28.8833,17.7179 29.1593,17.1729 29.4623,16.5649 C29.7613,17.1689 30.0343,17.7119 30.2973,18.2599 C30.3773,18.4269 30.4703,18.5129 30.6743,18.5349 C31.2793,18.6039 31.8813,18.7079 32.4863,18.7989" id="Fill-10" fill="#E02533"></path>
                <path d="M33.5684,18.797 C34.1554,18.709 34.7594,18.604 35.3674,18.534 C35.5744,18.511 35.6594,18.412 35.7384,18.249 C36.0054,17.7 36.2814,17.155 36.5794,16.559 C36.8724,17.154 37.1414,17.691 37.4004,18.233 C37.4834,18.407 37.5724,18.51 37.7944,18.533 C38.3914,18.598 38.9834,18.706 39.6574,18.81 C39.3444,19.118 39.0694,19.392 38.7924,19.662 C38.0974,20.342 38.0994,20.341 38.2854,21.287 C38.3564,21.649 38.4144,22.014 38.4904,22.447 C37.8884,22.13 37.3534,21.859 36.8294,21.568 C36.6494,21.467 36.5084,21.467 36.3284,21.567 C35.8034,21.858 35.2674,22.128 34.6654,22.443 C34.7644,21.856 34.8304,21.323 34.9484,20.803 C35.0264,20.458 34.9734,20.221 34.6974,19.975 C34.2944,19.613 33.9434,19.194 33.5684,18.797" id="Fill-11" fill="#E02533"></path>
                <path d="M53.8076,18.7902 C53.4036,19.2202 53.0246,19.6592 52.6036,20.0542 C52.3866,20.2582 52.3656,20.4612 52.4126,20.7172 C52.5156,21.2702 52.6096,21.8262 52.7186,22.4432 C52.1146,22.1282 51.5676,21.8532 51.0336,21.5582 C50.8606,21.4622 50.7306,21.4712 50.5636,21.5622 C50.0376,21.8532 49.5016,22.1252 48.9386,22.4202 C48.8756,22.1652 48.9806,21.9522 49.0076,21.7392 C49.0606,21.3232 49.1376,20.9092 49.2296,20.4992 C49.2676,20.3282 49.1816,20.2492 49.0866,20.1502 C48.6606,19.7092 48.2376,19.2652 47.7916,18.8002 C48.3876,18.7102 48.9946,18.6062 49.6046,18.5322 C49.7906,18.5102 49.8806,18.4342 49.9566,18.2752 C50.2226,17.7232 50.5006,17.1762 50.8066,16.5632 C51.0716,17.0982 51.3416,17.5692 51.5406,18.0692 C51.6856,18.4332 51.9306,18.5452 52.2796,18.5832 C52.7986,18.6402 53.3146,18.7222 53.8076,18.7902" id="Fill-12" fill="#E02533"></path>
                <path d="M40.6133,18.8087 C41.2883,18.7067 41.8913,18.6047 42.4983,18.5317 C42.6863,18.5077 42.7743,18.4227 42.8493,18.2667 C43.1133,17.7147 43.3853,17.1667 43.6873,16.5507 C43.9733,17.1347 44.2363,17.6577 44.4843,18.1857 C44.5833,18.3967 44.7023,18.5187 44.9603,18.5447 C45.5443,18.6067 46.1233,18.7117 46.6543,18.7917 C46.3753,19.1097 46.1213,19.4807 45.7893,19.7577 C45.3633,20.1147 45.1813,20.4807 45.3513,21.0397 C45.4813,21.4687 45.5103,21.9267 45.5963,22.4407 C45.0013,22.1297 44.4653,21.8607 43.9413,21.5697 C43.7603,21.4697 43.6223,21.4657 43.4413,21.5667 C42.9173,21.8587 42.3813,22.1287 41.7843,22.4417 C41.8773,21.8727 41.9283,21.3667 42.0483,20.8757 C42.1443,20.4817 42.0883,20.2037 41.7603,19.9327 C41.3683,19.6087 41.0293,19.2217 40.6133,18.8087" id="Fill-13" fill="#E02533"></path>
            </g>
        </g>
    </g>
</svg>