<?xml version="1.0" encoding="UTF-8"?>
<svg width="73px" height="73px" viewBox="0 0 73 73" version="1.1" xmlns="http://www.w3.org/2000/svg" xmlns:xlink="http://www.w3.org/1999/xlink">
    <!-- Generator: Sketch 53 (72520) - https://sketchapp.com -->
    <title>Group 6 Copy 2</title>
    <desc>Created with Sketch.</desc>
    <g id="Page-1" stroke="none" stroke-width="1" fill="none" fill-rule="evenodd">
        <g id="Logos-with-Names" transform="translate(-943.000000, -1082.000000)">
            <g id="Group-6-Copy-2" transform="translate(942.500000, 1082.930653)">
                <path d="M72.8198,35.9855 C72.8198,55.8595 56.7088,71.9695 36.8348,71.9695 C16.9608,71.9695 0.8498,55.8595 0.8498,35.9855 C0.8498,16.1115 16.9608,0.0005 36.8348,0.0005 C56.7088,0.0005 72.8198,16.1115 72.8198,35.9855" id="Fill-1" fill="#E02533"></path>
                <path d="M48.2346,31.7052 L43.4936,26.9642 L45.3016,25.1552 L48.2346,28.0882 L55.0046,21.3182 L56.8126,23.1272 L48.2346,31.7052 Z M45.0366,15.8282 C45.0366,13.1022 47.4276,10.7122 50.1536,10.7122 C52.8786,10.7122 55.2696,13.1022 55.2696,15.8282 L55.2696,17.2082 C53.7626,16.3352 52.0196,15.8282 50.1546,15.8282 C48.2886,15.8282 46.5436,16.3362 45.0366,17.2092 L45.0366,15.8282 Z M57.8276,15.8282 C57.8276,11.6842 54.2986,8.1532 50.1536,8.1532 C46.0056,8.1532 42.4796,11.6842 42.4796,15.8282 L42.4796,19.3102 C40.8916,21.1122 39.9216,23.4712 39.9216,26.0592 C39.9216,31.7082 44.5056,36.2922 50.1546,36.2922 C55.8036,36.2922 60.3856,31.7082 60.3856,26.0592 C60.3856,23.4702 59.4146,21.1112 57.8276,19.3092 L57.8276,15.8282 Z" id="Fill-4" fill="#FFFFFF"></path>
                <path d="M52.511,44.6876 C50.628,45.4996 48.9,46.5556 47.031,46.9706 C44.902,47.4426 43.962,48.5056 43.454,50.5556 C42.997,52.3986 42.016,54.1116 41.226,55.9776 C46.64,53.8116 50.364,50.0656 52.511,44.6876 M16.564,44.8716 C18.642,50.0836 22.363,53.8336 27.6,55.9146 C26.667,53.3626 25.739,50.7966 24.773,48.2446 C24.686,48.0126 24.385,47.7966 24.135,47.7016 C21.604,46.7386 19.063,45.8006 16.564,44.8716 M16.529,31.1596 C18.95,30.2416 21.387,29.2636 23.868,28.4166 C24.499,28.2006 24.711,27.9086 24.926,27.3406 C25.76,25.1316 26.671,22.9536 27.558,20.7636 C27.653,20.5306 27.776,20.3076 27.968,19.9116 C22.374,22.1606 18.609,25.9166 16.529,31.1596 M41.115,48.5306 C38.827,48.6606 36.667,48.8786 34.507,48.8776 C32.324,48.8776 30.14,48.6606 27.95,48.5366 C28.6,51.3436 30.054,54.2026 31.615,55.7556 C33.537,57.6686 35.471,57.6866 37.376,55.7596 C39.356,53.7566 40.288,51.2056 41.115,48.5306 M23.941,44.6056 C23.831,42.2956 23.647,40.1386 23.648,37.9816 C23.649,35.8266 23.833,33.6706 23.943,31.3946 C21.2,32.2246 18.529,33.1826 16.512,35.3626 C14.831,37.1806 14.869,38.9526 16.592,40.7266 C18.609,42.8036 21.219,43.7606 23.941,44.6056 M40.785,16.7996 C41.476,19.1256 39.89,20.2656 38.696,21.2906 C38.063,20.7626 37.389,20.1686 36.683,19.6176 C35.276,18.5166 33.628,18.5266 32.253,19.6696 C29.82,21.6926 28.809,24.5146 27.934,27.2826 L38.171,27.2826 L38.171,30.0246 C37.074,30.0246 35.998,29.9786 34.928,30.0346 C32.656,30.1506 30.387,30.3206 28.117,30.4676 C27.456,30.5106 27.105,30.7206 26.99,31.5126 C26.364,35.8466 26.365,40.1646 26.993,44.4986 C27.1,45.2356 27.418,45.4746 28.022,45.5026 C31.131,45.6466 34.241,45.8226 37.353,45.8726 C38.603,45.8916 39.856,45.6096 41.109,45.4786 C41.669,45.4196 41.945,45.2106 41.994,44.5726 C42.164,42.3446 42.413,40.1236 42.636,37.8556 L45.446,37.8556 C45.308,40.0866 45.172,42.2956 45.036,44.5006 C49.049,44.0326 53.037,41.0296 53.807,37.9166 C54.707,37.7886 55.597,37.6616 56.485,37.5346 C57.091,44.0826 53.255,53.4676 44.209,57.8416 C35,62.2946 24.618,60.1456 17.739,52.4386 C11.465,45.4106 10.628,34.3756 15.751,26.2296 C21.038,17.8236 31.189,14.0106 40.785,16.7996" id="Fill-5" fill="#FFFFFF"></path>
            </g>
        </g>
    </g>
</svg>