<?xml version="1.0" encoding="UTF-8"?>
<svg width="74px" height="75px" viewBox="0 0 74 75" version="1.1" xmlns="http://www.w3.org/2000/svg" xmlns:xlink="http://www.w3.org/1999/xlink">
    <!-- Generator: Sketch 53 (72520) - https://sketchapp.com -->
    <title>Group 10</title>
    <desc>Created with Sketch.</desc>
    <g id="Page-1" stroke="none" stroke-width="1" fill="none" fill-rule="evenodd">
        <g id="Logos-with-Names" transform="translate(-276.000000, -1038.000000)">
            <g id="Group-10" transform="translate(276.000000, 1038.673367)">
                <path d="M73.1681,36.8342 C73.1681,56.9002 56.9011,73.1682 36.8341,73.1682 C16.7671,73.1682 0.5001,56.9002 0.5001,36.8342 C0.5001,16.7672 16.7671,0.5002 36.8341,0.5002 C56.9011,0.5002 73.1681,16.7672 73.1681,36.8342" id="Fill-1" fill="#FFFFFF"></path>
                <path d="M73.1681,36.8342 C73.1681,56.9002 56.9011,73.1682 36.8341,73.1682 C16.7671,73.1682 0.5001,56.9002 0.5001,36.8342 C0.5001,16.7672 16.7671,0.5002 36.8341,0.5002 C56.9011,0.5002 73.1681,16.7672 73.1681,36.8342 Z" id="Stroke-3" stroke="#040201"></path>
                <path d="M17.1945,35.136 C17.1945,24.235 26.0195,15.41 36.9205,15.41 C47.8215,15.41 56.6465,24.235 56.6465,35.136 C56.6465,46.037 47.8215,54.862 36.9205,54.862 C26.0195,54.862 17.1945,46.037 17.1945,35.136 L17.1945,35.136 Z M51.9745,55.034 C58.0305,50.536 61.8375,43.269 61.8375,35.136 C61.8375,21.293 50.5905,10.046 36.7475,10.046 C23.0775,10.046 11.8305,21.293 11.8305,35.136 C11.8305,48.633 22.5585,59.706 36.0555,60.053 L61.8375,60.053 L61.8375,55.034 L51.9745,55.034 Z" id="Fill-6" fill="#C4E86B"></path>
                <path d="M48.6866,23.0237 C45.5716,19.9097 41.5926,18.1787 37.0936,18.1787 C32.7676,18.1787 28.6146,19.9097 25.4996,23.0237 C19.0976,29.4257 19.0976,39.9807 25.4996,46.5557 L25.8466,46.2107 C25.1546,45.5177 21.8666,41.5387 21.8666,34.7907 C21.8666,27.6957 27.0576,21.9857 35.1896,21.2937 C35.7086,21.2937 36.4016,21.1207 36.9206,21.1207 C40.5536,21.1207 43.8416,22.5037 46.4366,25.0997 C51.6286,30.4637 51.6286,39.2887 46.4366,44.6527 L48.5136,46.5557 C55.0886,39.9807 55.0886,29.4257 48.6866,23.0237" id="Fill-7" fill="#C4E86B"></path>
                <path d="M45.226,26.4846 C43.15,24.2346 40.208,23.0236 37.267,23.0236 C34.152,23.0236 31.383,24.2346 29.307,26.4846 C24.981,30.9836 24.981,38.2506 29.307,42.7496 L29.826,42.2306 C28.096,40.3276 27.231,37.7316 27.231,35.1356 C27.231,29.7716 31.383,25.4466 36.747,25.4466 C42.631,25.4466 46.61,29.9446 46.264,35.1356 C46.091,36.8666 45.226,38.9426 43.669,40.6726 L45.572,42.5766 C49.552,38.4236 49.552,30.9836 45.226,26.4846" id="Fill-8" fill="#C4E86B"></path>
                <path d="M41.7653,30.1184 C40.5543,28.9064 38.9963,28.2154 37.2663,28.2154 C35.5363,28.2154 33.9793,28.9064 32.7673,30.1184 C30.3453,32.5404 30.3453,36.6934 32.7673,39.1154 L33.2863,38.5974 C32.4213,37.7314 31.7293,36.3474 31.7293,34.7904 C31.7293,32.0214 33.8063,29.7714 36.2283,29.7714 C38.3043,29.7714 40.0353,31.3294 40.5543,33.2324 C40.7273,33.5784 40.7273,33.7524 40.7273,34.0974 L40.7273,34.6164 C40.7273,35.6554 40.5543,36.5204 40.0353,37.2124 L41.5923,38.7694 C44.1883,36.6934 44.1883,32.7134 41.7653,30.1184" id="Fill-9" fill="#C4E86B"></path>
            </g>
        </g>
    </g>
</svg>