<?xml version="1.0" encoding="UTF-8"?>
<svg width="74px" height="74px" viewBox="0 0 74 74" version="1.1" xmlns="http://www.w3.org/2000/svg" xmlns:xlink="http://www.w3.org/1999/xlink">
    <!-- Generator: Sketch 53 (72520) - https://sketchapp.com -->
    <title>Group 13</title>
    <desc>Created with Sketch.</desc>
    <defs>
        <polygon id="path-1" points="0.987 0.9445 52.5 0.9445 52.5 39.915 0.987 39.915"></polygon>
    </defs>
    <g id="Page-1" stroke="none" stroke-width="1" fill="none" fill-rule="evenodd">
        <g id="Logos-with-Names" transform="translate(-669.000000, -758.000000)">
            <g id="Group-13" transform="translate(669.500000, 757.254029)">
                <g id="Group-5" transform="translate(0.000000, 0.634000)">
                    <path d="M72.9877,37.1104 C72.9877,57.1274 56.7607,73.3534 36.7437,73.3534 C16.7267,73.3534 0.4997,57.1274 0.4997,37.1104 C0.4997,17.0924 16.7267,0.8664 36.7437,0.8664 C56.7607,0.8664 72.9877,17.0924 72.9877,37.1104" id="Fill-1" fill="#FFFFFF"></path>
                    <path d="M72.9877,37.1104 C72.9877,57.1274 56.7607,73.3534 36.7437,73.3534 C16.7267,73.3534 0.4997,57.1274 0.4997,37.1104 C0.4997,17.0924 16.7267,0.8664 36.7437,0.8664 C56.7607,0.8664 72.9877,17.0924 72.9877,37.1104 Z" id="Stroke-3" stroke="#040201"></path>
                </g>
                <g id="Group-12" transform="translate(10.000000, 17.634000)">
                    <g id="Group-9">
                        <mask id="mask-2" fill="white">
                            <use xlink:href="#path-1"></use>
                        </mask>
                        <g id="Clip-8"></g>
                        <path d="M44.1589,20.3125 C44.6269,22.5305 44.6269,22.7625 44.6269,23.0545 C44.6269,26.8475 40.3669,28.9475 34.7659,28.9475 C22.1059,28.9475 11.0229,21.5385 11.0229,16.6365 C11.0229,15.8765 11.1969,15.1775 11.4299,14.6545 C6.8789,14.8875 0.9869,15.7035 0.9869,20.8965 C0.9869,29.4135 21.1719,39.9165 37.1579,39.9165 C49.4099,39.9165 52.5009,34.3735 52.5009,29.9975 C52.5009,26.5545 49.5259,22.6465 44.1589,20.3125 M35.3499,23.4055 C38.7339,23.4055 43.6339,22.7055 43.6339,18.6785 C43.6339,18.3655 43.6259,18.0595 43.5509,17.7525 L41.5349,8.9955 C41.0659,7.0705 40.6589,6.1945 37.2759,4.5025 C34.6489,3.1605 28.9329,0.9445 27.2409,0.9445 C25.6659,0.9445 25.1989,2.9855 23.3319,2.9855 C21.5239,2.9855 20.1819,1.4695 18.4889,1.4695 C16.8569,1.4695 15.8059,2.5775 14.9889,4.8525 C14.9889,4.8525 12.7139,11.2695 12.4219,12.2035 C12.3629,12.3785 12.3619,12.5755 12.3619,12.7285 C12.3619,15.2225 22.1839,23.4055 35.3499,23.4055" id="Fill-7" fill="#ED2937" mask="url(#mask-2)"></path>
                    </g>
                    <path d="M44.1589,20.3125 C44.6269,22.5305 44.6269,22.7625 44.6269,23.0545 C44.6269,26.8475 40.3669,28.9475 34.7659,28.9475 C22.1059,28.9475 11.0229,21.5385 11.0229,16.6365 C11.0229,15.8765 11.1969,15.1775 11.4299,14.6545 L12.4219,12.2035 C12.3629,12.3785 12.3619,12.5755 12.3619,12.7285 C12.3619,15.2225 22.1839,23.4055 35.3499,23.4055 C38.7339,23.4055 43.6339,22.7055 43.6339,18.6785 C43.6339,18.3655 43.6259,18.0595 43.5509,17.7525 L44.1589,20.3125 Z" id="Fill-10" fill="#010101"></path>
                </g>
            </g>
        </g>
    </g>
</svg>