<?xml version="1.0" encoding="UTF-8"?>
<svg width="75px" height="75px" viewBox="0 0 75 75" version="1.1" xmlns="http://www.w3.org/2000/svg" xmlns:xlink="http://www.w3.org/1999/xlink">
    <!-- Generator: Sketch 53 (72520) - https://sketchapp.com -->
    <title>Group 17 Copy</title>
    <desc>Created with Sketch.</desc>
    <g id="Page-1" stroke="none" stroke-width="1" fill="none" fill-rule="evenodd">
        <g id="Logos-with-Names" transform="translate(-658.000000, -1072.000000)">
            <g id="Group-17-Copy" transform="translate(658.000000, 1072.080662)">
                <path d="M73.7373,37.0733 C73.7373,57.2713 57.3633,73.6463 37.1643,73.6463 C16.9653,73.6463 0.5913,57.2713 0.5913,37.0733 C0.5913,16.8743 16.9653,0.5003 37.1643,0.5003 C57.3633,0.5003 73.7373,16.8743 73.7373,37.0733" id="Fill-1" fill="#FFFFFF"></path>
                <path d="M73.7373,37.0733 C73.7373,57.2713 57.3633,73.6463 37.1643,73.6463 C16.9653,73.6463 0.5913,57.2713 0.5913,37.0733 C0.5913,16.8743 16.9653,0.5003 37.1643,0.5003 C57.3633,0.5003 73.7373,16.8743 73.7373,37.0733 Z" id="Stroke-3" stroke="#040201"></path>
                <path d="M31.4954,21.1592 C33.5424,19.0262 36.3914,17.7042 39.5424,17.7042 C43.7314,17.7042 47.3864,20.0402 49.3334,23.5082 C51.0244,22.7522 52.8964,22.3322 54.8664,22.3322 C62.4224,22.3322 68.5474,28.5112 68.5474,36.1322 C68.5474,43.7552 62.4224,49.9332 54.8664,49.9332 C53.9444,49.9332 53.0434,49.8412 52.1714,49.6652 C50.4574,52.7212 47.1914,54.7882 43.4424,54.7882 C41.8734,54.7882 40.3894,54.4252 39.0674,53.7802 C37.3294,57.8672 33.2814,60.7332 28.5634,60.7332 C23.6504,60.7332 19.4634,57.6242 17.8564,53.2642 C17.1534,53.4142 16.4254,53.4912 15.6794,53.4912 C9.8294,53.4912 5.0874,48.7002 5.0874,42.7892 C5.0874,38.8282 7.2174,35.3692 10.3834,33.5182 C9.7314,32.0182 9.3694,30.3632 9.3694,28.6232 C9.3694,21.8252 14.8884,16.3142 21.6954,16.3142 C25.6914,16.3142 29.2434,18.2152 31.4954,21.1592" id="Fill-6" fill="#00A1E0"></path>
                <path d="M14.2786,39.3487 C14.2386,39.4527 14.2926,39.4747 14.3056,39.4937 C14.4246,39.5787 14.5466,39.6417 14.6686,39.7117 C15.3156,40.0547 15.9266,40.1557 16.5656,40.1557 C17.8676,40.1557 18.6756,39.4627 18.6756,38.3487 L18.6756,38.3267 C18.6756,37.2957 17.7636,36.9217 16.9076,36.6517 L16.7966,36.6157 C16.1506,36.4057 15.5936,36.2247 15.5936,35.7997 L15.5936,35.7777 C15.5936,35.4137 15.9196,35.1467 16.4236,35.1467 C16.9846,35.1467 17.6496,35.3327 18.0786,35.5697 C18.0786,35.5697 18.2036,35.6507 18.2496,35.5287 C18.2756,35.4637 18.4926,34.8797 18.5146,34.8167 C18.5386,34.7477 18.4956,34.6977 18.4516,34.6697 C17.9626,34.3717 17.2866,34.1687 16.5866,34.1687 L16.4566,34.1697 C15.2646,34.1697 14.4336,34.8897 14.4336,35.9207 L14.4336,35.9427 C14.4336,37.0307 15.3506,37.3827 16.2106,37.6287 L16.3486,37.6707 C16.9756,37.8637 17.5146,38.0297 17.5146,38.4707 L17.5146,38.4927 C17.5146,38.8957 17.1636,39.1957 16.5986,39.1957 C16.3786,39.1957 15.6776,39.1907 14.9216,38.7127 C14.8306,38.6597 14.7766,38.6197 14.7066,38.5777 C14.6696,38.5547 14.5756,38.5137 14.5356,38.6367 L14.2786,39.3487 Z" id="Fill-7" fill="#FFFFFF"></path>
                <path d="M33.3357,39.3487 C33.2957,39.4527 33.3497,39.4747 33.3627,39.4937 C33.4817,39.5787 33.6037,39.6417 33.7257,39.7117 C34.3727,40.0547 34.9837,40.1557 35.6227,40.1557 C36.9247,40.1557 37.7327,39.4627 37.7327,38.3487 L37.7327,38.3267 C37.7327,37.2957 36.8207,36.9217 35.9647,36.6517 L35.8537,36.6157 C35.2077,36.4057 34.6507,36.2247 34.6507,35.7997 L34.6507,35.7777 C34.6507,35.4137 34.9767,35.1467 35.4807,35.1467 C36.0417,35.1467 36.7067,35.3327 37.1357,35.5697 C37.1357,35.5697 37.2607,35.6507 37.3067,35.5287 C37.3327,35.4637 37.5487,34.8797 37.5717,34.8167 C37.5957,34.7477 37.5527,34.6977 37.5087,34.6697 C37.0197,34.3717 36.3437,34.1687 35.6437,34.1687 L35.5137,34.1697 C34.3217,34.1697 33.4907,34.8897 33.4907,35.9207 L33.4907,35.9427 C33.4907,37.0307 34.4077,37.3827 35.2677,37.6287 L35.4057,37.6707 C36.0327,37.8637 36.5727,38.0297 36.5727,38.4707 L36.5727,38.4927 C36.5727,38.8957 36.2207,39.1957 35.6557,39.1957 C35.4357,39.1957 34.7347,39.1907 33.9787,38.7127 C33.8877,38.6597 33.8327,38.6217 33.7637,38.5777 C33.7407,38.5627 33.6307,38.5207 33.5927,38.6367 L33.3357,39.3487 Z" id="Fill-8" fill="#FFFFFF"></path>
                <path d="M47.4321,35.9981 C47.3251,35.6371 47.1591,35.3181 46.9371,35.0541 C46.7161,34.7881 46.4361,34.5751 46.1031,34.4191 C45.7711,34.2651 45.3791,34.1861 44.9391,34.1861 C44.4971,34.1861 44.1051,34.2651 43.7731,34.4191 C43.4411,34.5751 43.1611,34.7881 42.9381,35.0541 C42.7181,35.3191 42.5511,35.6381 42.4441,35.9981 C42.3381,36.3561 42.2851,36.7491 42.2851,37.1661 C42.2851,37.5821 42.3381,37.9761 42.4441,38.3341 C42.5511,38.6931 42.7171,39.0121 42.9391,39.2771 C43.1611,39.5431 43.4421,39.7561 43.7731,39.9061 C44.1061,40.0581 44.4971,40.1351 44.9391,40.1351 C45.3791,40.1351 45.7701,40.0581 46.1031,39.9061 C46.4351,39.7561 46.7161,39.5431 46.9371,39.2771 C47.1591,39.0131 47.3251,38.6941 47.4321,38.3341 C47.5381,37.9751 47.5921,37.5811 47.5921,37.1661 C47.5921,36.7501 47.5381,36.3561 47.4321,35.9981 M46.3451,37.1661 C46.3451,37.7961 46.2281,38.2921 45.9961,38.6431 C45.7681,38.9901 45.4221,39.1591 44.9391,39.1591 C44.4551,39.1591 44.1111,38.9911 43.8861,38.6431 C43.6581,38.2931 43.5421,37.7961 43.5421,37.1661 C43.5421,36.5361 43.6581,36.0411 43.8861,35.6941 C44.1111,35.3511 44.4551,35.1841 44.9391,35.1841 C45.4221,35.1841 45.7681,35.3511 45.9971,35.6941 C46.2281,36.0411 46.3451,36.5361 46.3451,37.1661" id="Fill-9" fill="#FFFFFF"></path>
                <path d="M56.355,38.9913 C56.319,38.8853 56.217,38.9253 56.217,38.9253 C56.059,38.9853 55.89,39.0413 55.711,39.0693 C55.53,39.0973 55.33,39.1123 55.116,39.1123 C54.59,39.1123 54.172,38.9553 53.873,38.6463 C53.573,38.3373 53.405,37.8373 53.406,37.1613 C53.408,36.5463 53.556,36.0833 53.823,35.7303 C54.088,35.3793 54.491,35.1993 55.029,35.1993 C55.477,35.1993 55.819,35.2513 56.177,35.3643 C56.177,35.3643 56.263,35.4013 56.303,35.2893 C56.398,35.0253 56.469,34.8363 56.57,34.5463 C56.599,34.4643 56.529,34.4293 56.503,34.4183 C56.362,34.3633 56.03,34.2733 55.778,34.2353 C55.543,34.1993 55.269,34.1803 54.963,34.1803 C54.506,34.1803 54.1,34.2593 53.751,34.4143 C53.405,34.5683 53.11,34.7823 52.876,35.0483 C52.643,35.3133 52.466,35.6323 52.348,35.9913 C52.23,36.3503 52.17,36.7443 52.17,37.1613 C52.17,38.0623 52.414,38.7913 52.894,39.3243 C53.375,39.8593 54.097,40.1323 55.039,40.1323 C55.596,40.1323 56.167,40.0183 56.577,39.8563 C56.577,39.8563 56.656,39.8183 56.622,39.7273 L56.355,38.9913 Z" id="Fill-10" fill="#FFFFFF"></path>
                <path d="M61.9148,35.793 C61.8228,35.444 61.5938,35.093 61.4438,34.933 C61.2068,34.678 60.9758,34.499 60.7458,34.399 C60.4458,34.272 60.0858,34.187 59.6918,34.187 C59.2328,34.187 58.8158,34.264 58.4778,34.422 C58.1388,34.581 57.8538,34.799 57.6308,35.068 C57.4078,35.338 57.2388,35.659 57.1328,36.023 C57.0248,36.386 56.9708,36.781 56.9708,37.197 C56.9708,37.622 57.0268,38.017 57.1378,38.372 C57.2498,38.73 57.4288,39.045 57.6718,39.307 C57.9128,39.569 58.2238,39.775 58.5958,39.92 C58.9658,40.063 59.4148,40.137 59.9318,40.136 C60.9938,40.132 61.5528,39.896 61.7838,39.768 C61.8238,39.745 61.8628,39.705 61.8148,39.592 L61.5738,38.918 C61.5378,38.817 61.4358,38.855 61.4358,38.855 C61.1728,38.952 60.7988,39.128 59.9258,39.126 C59.3558,39.125 58.9328,38.957 58.6678,38.693 C58.3958,38.425 58.2628,38.028 58.2388,37.47 L61.9178,37.474 C61.9178,37.474 62.0138,37.472 62.0238,37.378 C62.0278,37.338 62.1508,36.622 61.9148,35.793 L61.9148,35.793 Z M58.2568,36.563 C58.3078,36.212 58.4048,35.921 58.5538,35.694 C58.7788,35.35 59.1228,35.161 59.6048,35.161 C60.0878,35.161 60.4068,35.351 60.6358,35.694 C60.7878,35.921 60.8538,36.225 60.8798,36.563 L58.2568,36.563 Z" id="Fill-11" fill="#FFFFFF"></path>
                <path d="M32.4556,35.793 C32.3636,35.444 32.1356,35.093 31.9856,34.933 C31.7486,34.678 31.5176,34.499 31.2876,34.399 C30.9876,34.272 30.6276,34.187 30.2336,34.187 C29.7756,34.187 29.3576,34.264 29.0196,34.422 C28.6806,34.581 28.3956,34.799 28.1726,35.068 C27.9496,35.338 27.7806,35.659 27.6746,36.023 C27.5676,36.386 27.5126,36.781 27.5126,37.197 C27.5126,37.622 27.5686,38.017 27.6796,38.372 C27.7916,38.73 27.9706,39.045 28.2136,39.307 C28.4546,39.569 28.7656,39.775 29.1376,39.92 C29.5076,40.063 29.9566,40.137 30.4736,40.136 C31.5356,40.132 32.0946,39.896 32.3256,39.768 C32.3656,39.745 32.4046,39.705 32.3566,39.592 L32.1166,38.918 C32.0796,38.817 31.9776,38.855 31.9776,38.855 C31.7146,38.952 31.3406,39.128 30.4666,39.126 C29.8976,39.125 29.4746,38.957 29.2096,38.693 C28.9376,38.425 28.8046,38.028 28.7806,37.47 L32.4596,37.474 C32.4596,37.474 32.5556,37.472 32.5656,37.378 C32.5696,37.338 32.6926,36.622 32.4556,35.793 L32.4556,35.793 Z M28.7986,36.563 C28.8506,36.212 28.9466,35.921 29.0956,35.694 C29.3206,35.35 29.6636,35.161 30.1466,35.161 C30.6296,35.161 30.9486,35.351 31.1786,35.694 C31.3296,35.921 31.3956,36.225 31.4216,36.563 L28.7986,36.563 Z" id="Fill-12" fill="#FFFFFF"></path>
                <path d="M22.3108,36.3858 C22.1618,36.3748 21.9678,36.3688 21.7368,36.3688 C21.4218,36.3688 21.1168,36.4088 20.8308,36.4858 C20.5438,36.5628 20.2848,36.6828 20.0628,36.8418 C19.8398,37.0018 19.6598,37.2058 19.5298,37.4478 C19.3988,37.6908 19.3328,37.9768 19.3328,38.2958 C19.3328,38.6218 19.3888,38.9048 19.5008,39.1358 C19.6128,39.3678 19.7748,39.5618 19.9808,39.7108 C20.1858,39.8608 20.4378,39.9698 20.7308,40.0348 C21.0188,40.1018 21.3458,40.1348 21.7048,40.1348 C22.0818,40.1348 22.4568,40.1048 22.8218,40.0418 C23.1828,39.9808 23.6248,39.8908 23.7478,39.8638 C23.8698,39.8338 24.0058,39.7968 24.0058,39.7968 C24.0968,39.7748 24.0898,39.6768 24.0898,39.6768 L24.0878,36.3128 C24.0878,35.5748 23.8908,35.0288 23.5028,34.6898 C23.1168,34.3518 22.5488,34.1808 21.8138,34.1808 C21.5378,34.1808 21.0938,34.2188 20.8288,34.2718 C20.8288,34.2718 20.0248,34.4268 19.6938,34.6858 C19.6938,34.6858 19.6218,34.7308 19.6608,34.8318 L19.9218,35.5318 C19.9538,35.6218 20.0418,35.5918 20.0418,35.5918 C20.0418,35.5918 20.0698,35.5808 20.1028,35.5618 C20.8108,35.1768 21.7048,35.1888 21.7048,35.1888 C22.1028,35.1888 22.4088,35.2678 22.6148,35.4258 C22.8148,35.5798 22.9178,35.8128 22.9178,36.3018 L22.9178,36.4568 C22.6008,36.4118 22.3108,36.3858 22.3108,36.3858 M20.8468,38.9708 C20.7038,38.8558 20.6838,38.8268 20.6348,38.7528 C20.5628,38.6398 20.5258,38.4788 20.5258,38.2748 C20.5258,37.9508 20.6318,37.7188 20.8538,37.5628 C20.8508,37.5638 21.1698,37.2858 21.9208,37.2968 C22.4468,37.3038 22.9178,37.3818 22.9178,37.3818 L22.9178,39.0538 L22.9188,39.0538 C22.9188,39.0538 22.4518,39.1548 21.9258,39.1858 C21.1768,39.2318 20.8448,38.9698 20.8468,38.9708" id="Fill-13" fill="#FFFFFF"></path>
                <path d="M51.9783,34.4913 C52.0063,34.4073 51.9473,34.3683 51.9233,34.3583 C51.8613,34.3343 51.5483,34.2683 51.3063,34.2533 C50.8443,34.2243 50.5883,34.3033 50.3583,34.4063 C50.1303,34.5093 49.8773,34.6753 49.7363,34.8643 L49.7363,34.4173 C49.7363,34.3543 49.6923,34.3043 49.6303,34.3043 L48.6873,34.3043 C48.6263,34.3043 48.5823,34.3543 48.5823,34.4173 L48.5823,39.9033 C48.5823,39.9653 48.6323,40.0143 48.6943,40.0143 L49.6603,40.0143 C49.7223,40.0143 49.7713,39.9653 49.7713,39.9033 L49.7713,37.1623 C49.7713,36.7943 49.8123,36.4273 49.8933,36.1963 C49.9733,35.9693 50.0823,35.7863 50.2153,35.6553 C50.3503,35.5253 50.5033,35.4333 50.6703,35.3823 C50.8413,35.3303 51.0303,35.3123 51.1643,35.3123 C51.3563,35.3123 51.5683,35.3623 51.5683,35.3623 C51.6383,35.3703 51.6783,35.3273 51.7013,35.2623 C51.7653,35.0953 51.9443,34.5913 51.9783,34.4913" id="Fill-14" fill="#FFFFFF"></path>
                <path d="M42.9075,31.9483 C42.7895,31.9123 42.6835,31.8873 42.5435,31.8613 C42.4035,31.8363 42.2345,31.8233 42.0445,31.8233 C41.3785,31.8233 40.8545,32.0113 40.4865,32.3823 C40.1205,32.7513 39.8715,33.3123 39.7475,34.0513 L39.7015,34.3003 L38.8665,34.3003 C38.8665,34.3003 38.7655,34.2963 38.7435,34.4063 L38.6075,35.1723 C38.5975,35.2443 38.6285,35.2903 38.7265,35.2903 L39.5395,35.2903 L38.7145,39.8933 C38.6505,40.2633 38.5765,40.5683 38.4945,40.8003 C38.4135,41.0273 38.3345,41.1983 38.2375,41.3233 C38.1435,41.4423 38.0545,41.5313 37.9015,41.5833 C37.7745,41.6253 37.6285,41.6453 37.4685,41.6453 C37.3795,41.6453 37.2615,41.6313 37.1735,41.6123 C37.0865,41.5953 37.0405,41.5763 36.9745,41.5493 C36.9745,41.5493 36.8795,41.5123 36.8415,41.6073 C36.8115,41.6853 36.5945,42.2813 36.5685,42.3543 C36.5435,42.4273 36.5795,42.4853 36.6255,42.5023 C36.7345,42.5403 36.8145,42.5653 36.9615,42.6003 C37.1665,42.6483 37.3385,42.6513 37.5005,42.6513 C37.8385,42.6513 38.1475,42.6033 38.4035,42.5113 C38.6605,42.4183 38.8845,42.2563 39.0835,42.0373 C39.2975,41.8013 39.4325,41.5523 39.5605,41.2143 C39.6885,40.8803 39.7975,40.4643 39.8845,39.9793 L40.7135,35.2903 L41.9245,35.2903 C41.9245,35.2903 42.0265,35.2943 42.0475,35.1823 L42.1855,34.4183 C42.1945,34.3443 42.1635,34.3003 42.0645,34.3003 L40.8885,34.3003 C40.8955,34.2733 40.9485,33.8593 41.0835,33.4693 C41.1415,33.3033 41.2495,33.1693 41.3405,33.0773 C41.4315,32.9863 41.5355,32.9233 41.6495,32.8853 C41.7655,32.8473 41.8985,32.8293 42.0445,32.8293 C42.1545,32.8293 42.2635,32.8423 42.3455,32.8593 C42.4595,32.8843 42.5045,32.8963 42.5345,32.9053 C42.6545,32.9413 42.6705,32.9063 42.6945,32.8483 L42.9755,32.0763 C43.0045,31.9933 42.9325,31.9583 42.9075,31.9483" id="Fill-15" fill="#FFFFFF"></path>
                <path d="M26.4751,39.9034 C26.4751,39.9654 26.4311,40.0144 26.3691,40.0144 L25.3941,40.0144 C25.3321,40.0144 25.2891,39.9654 25.2891,39.9034 L25.2891,32.0524 C25.2891,31.9914 25.3321,31.9414 25.3941,31.9414 L26.3691,31.9414 C26.4311,31.9414 26.4751,31.9914 26.4751,32.0524 L26.4751,39.9034 Z" id="Fill-16" fill="#FFFFFF"></path>
            </g>
        </g>
    </g>
</svg>