<?xml version="1.0" encoding="UTF-8"?>
<svg width="74px" height="74px" viewBox="0 0 74 74" version="1.1" xmlns="http://www.w3.org/2000/svg" xmlns:xlink="http://www.w3.org/1999/xlink">
    <!-- Generator: Sketch 53 (72520) - https://sketchapp.com -->
    <title>Group 8</title>
    <desc>Created with Sketch.</desc>
    <g id="Page-1" stroke="none" stroke-width="1" fill="none" fill-rule="evenodd">
        <g id="Logos-with-Names" transform="translate(-657.000000, -888.000000)">
            <g id="Group-8" transform="translate(657.000000, 888.673367)">
                <path d="M72.7533,36.6269 C72.7533,56.5789 56.5783,72.7529 36.6263,72.7529 C16.6743,72.7529 0.5003,56.5789 0.5003,36.6269 C0.5003,16.6749 16.6743,0.4999 36.6263,0.4999 C56.5783,0.4999 72.7533,16.6749 72.7533,36.6269" id="Fill-1" fill="#FFFFFF"></path>
                <path d="M72.7533,36.6269 C72.7533,56.5789 56.5783,72.7529 36.6263,72.7529 C16.6743,72.7529 0.5003,56.5789 0.5003,36.6269 C0.5003,16.6749 16.6743,0.4999 36.6263,0.4999 C56.5783,0.4999 72.7533,16.6749 72.7533,36.6269 Z" id="Stroke-3" stroke="#040201"></path>
                <path d="M16.8714,42.5615 C15.3504,38.6785 15.4784,34.8775 15.4784,34.8775 C15.4784,23.0345 25.0024,13.3955 36.6684,13.3955 C37.6834,13.3955 38.6684,13.4715 39.6674,13.6165 L37.2794,16.0465 C37.0594,16.0375 36.8454,16.0345 36.6254,16.0345 C26.3924,16.0345 18.0634,24.4865 18.0634,34.8775 C18.0634,34.8775 18.0144,37.4535 18.7564,40.0055 L35.0024,40.0055 L28.2184,52.9965 L44.6384,36.1595 L22.3114,36.1595 L47.3874,10.7025 C44.1054,9.1905 40.4594,8.3465 36.6254,8.3465 C22.2164,8.3465 10.4914,20.2495 10.4914,34.8775 C10.4914,44.4445 15.5044,52.8415 23.0014,57.5095 L30.8044,42.5685 L16.8714,42.5615 Z" id="Fill-6" fill="#060100"></path>
                <path d="M50.2518,12.2461 L42.4498,27.1871 L56.3758,27.1871 C56.3758,27.1871 57.7878,30.5131 57.7878,34.8791 C57.7878,46.7221 48.2938,56.3601 36.6278,56.3601 C35.5898,56.3601 34.5548,56.2811 33.5328,56.1311 L35.8958,53.7061 C36.1388,53.7161 36.3818,53.7231 36.6278,53.7231 C46.8618,53.7231 55.1928,45.2691 55.1928,34.8791 C55.1928,34.8791 55.1898,32.1391 54.4958,29.7501 L38.2508,29.7501 L45.0348,16.7611 L28.3628,33.5981 L50.7508,33.5981 L25.8658,59.0551 C29.1478,60.5651 32.7938,61.4101 36.6278,61.4101 C51.0368,61.4101 62.7618,49.5081 62.7618,34.8791 C62.7618,25.3111 57.7488,16.9151 50.2518,12.2461" id="Fill-7" fill="#060100"></path>
            </g>
        </g>
    </g>
</svg>