<?xml version="1.0" encoding="UTF-8"?>
<svg width="74px" height="74px" viewBox="0 0 74 74" version="1.1" xmlns="http://www.w3.org/2000/svg" xmlns:xlink="http://www.w3.org/1999/xlink">
    <!-- Generator: Sketch 53 (72520) - https://sketchapp.com -->
    <title>Group 7</title>
    <desc>Created with Sketch.</desc>
    <g id="Page-1" stroke="none" stroke-width="1" fill="none" fill-rule="evenodd">
        <g id="Logos-with-Names" transform="translate(-657.000000, -986.000000)">
            <g id="Group-7" transform="translate(657.000000, 986.334690)">
                <path d="M73.1683,36.8344 C73.1683,56.9004 56.9013,73.1684 36.8343,73.1684 C16.7673,73.1684 0.5003,56.9004 0.5003,36.8344 C0.5003,16.7674 16.7673,0.5004 36.8343,0.5004 C56.9013,0.5004 73.1683,16.7674 73.1683,36.8344" id="Fill-1" fill="#FFFFFF"></path>
                <path d="M73.1683,36.8344 C73.1683,56.9004 56.9013,73.1684 36.8343,73.1684 C16.7673,73.1684 0.5003,56.9004 0.5003,36.8344 C0.5003,16.7674 16.7673,0.5004 36.8343,0.5004 C56.9013,0.5004 73.1683,16.7674 73.1683,36.8344 Z" id="Stroke-3" stroke="#040201"></path>
                <path d="M40.0968,7.8022 C42.5198,7.8052 44.9418,7.8072 47.3648,7.8162 C47.5358,7.8162 47.7228,7.7522 47.8778,7.8872 C44.9438,8.6962 42.1628,9.8352 39.7158,11.6892 C38.6868,12.4672 37.7798,13.3702 37.0838,14.4642 C35.4768,16.9882 35.4618,19.5842 36.7488,22.2382 C37.8328,24.4712 39.3798,26.3802 40.9738,28.2532 C43.1358,30.7932 45.4368,33.2142 47.4928,35.8452 C49.2398,38.0802 50.8038,40.4262 51.8588,43.0832 C52.6908,45.1772 52.9858,47.3652 53.0638,49.5912 C53.2038,53.5712 52.5108,57.3872 50.7238,60.9722 C50.0848,62.2552 49.3208,63.4612 48.3668,64.5402 C48.1968,64.7332 48.0298,64.8742 47.7318,64.8732 C39.5768,64.8692 31.4228,64.8752 23.2678,64.8802 C23.1858,64.8802 23.1038,64.8802 23.0158,64.8492 C24.4028,64.4512 25.7658,64.0042 27.0848,63.4302 C29.2158,62.5032 31.2188,61.3712 32.8518,59.6812 C34.5678,57.9052 35.5218,55.8242 35.2738,53.3032 C35.1348,51.8842 34.5668,50.6072 33.8658,49.3862 C32.5968,47.1772 30.9438,45.2582 29.2798,43.3492 C27.0688,40.8112 24.7678,38.3492 22.7738,35.6292 C20.9958,33.2032 19.4608,30.6482 18.6918,27.7022 C18.1458,25.6092 18.0338,23.4692 18.0898,21.3202 C18.2018,17.0602 19.2988,13.0942 21.6818,9.5232 C21.8218,9.3132 21.9858,9.1162 22.1178,8.9022 C22.6098,8.0992 23.2408,7.5752 24.2588,7.7902 C24.3168,7.7972 24.3768,7.8112 24.4348,7.8102 C29.6558,7.8082 34.8758,7.8052 40.0968,7.8022" id="Fill-6" fill="#0288C7"></path>
            </g>
        </g>
    </g>
</svg>