<?xml version="1.0" encoding="UTF-8"?>
<svg width="74px" height="74px" viewBox="0 0 74 74" version="1.1" xmlns="http://www.w3.org/2000/svg" xmlns:xlink="http://www.w3.org/1999/xlink">
    <!-- Generator: Sketch 53 (72520) - https://sketchapp.com -->
    <title>Group 8</title>
    <desc>Created with Sketch.</desc>
    <g id="Page-1" stroke="none" stroke-width="1" fill="none" fill-rule="evenodd">
        <g id="Logos-with-Names" transform="translate(-468.000000, -52.000000)">
            <g id="Group-8" transform="translate(468.000000, 52.000000)">
                <path d="M73.1306,36.8149 C73.1306,56.8719 56.8716,73.1299 36.8156,73.1299 C16.7586,73.1299 0.4996,56.8719 0.4996,36.8149 C0.4996,16.7589 16.7586,0.5009 36.8156,0.5009 C56.8716,0.5009 73.1306,16.7589 73.1306,36.8149" id="Fill-1" fill="#FFFFFF"></path>
                <path d="M73.1306,36.8149 C73.1306,56.8719 56.8716,73.1299 36.8156,73.1299 C16.7586,73.1299 0.4996,56.8719 0.4996,36.8149 C0.4996,16.7589 16.7586,0.5009 36.8156,0.5009 C56.8716,0.5009 73.1306,16.7589 73.1306,36.8149 Z" id="Stroke-3" stroke="#040201"></path>
                <path d="M23.6138,53.8266 C23.6138,55.3046 22.4158,56.5016 20.9388,56.5016 C19.4618,56.5016 18.2648,55.3046 18.2648,53.8266 C18.2648,52.3496 19.4618,51.1516 20.9388,51.1516 C22.4158,51.1516 23.6138,52.3496 23.6138,53.8266 M55.3648,19.8486 C55.3648,21.3266 54.1678,22.5236 52.6908,22.5236 C51.2138,22.5236 50.0158,21.3266 50.0158,19.8486 C50.0158,18.3726 51.2138,17.1746 52.6908,17.1746 C54.1678,17.1746 55.3648,18.3726 55.3648,19.8486 M61.9908,32.7166 L29.9458,32.7166 C28.4678,32.7166 27.2708,31.5196 27.2708,30.0416 C27.2708,28.5636 28.4678,27.3676 29.9458,27.3676 L61.9908,27.3676 C63.4678,27.3676 64.6648,28.5636 64.6648,30.0416 C64.6648,31.5196 63.4678,32.7166 61.9908,32.7166 M43.6868,46.3056 L11.6398,46.3056 C10.1628,46.3056 8.9658,45.1076 8.9658,43.6306 C8.9658,42.1526 10.1628,40.9556 11.6398,40.9556 L43.6868,40.9556 C45.1638,40.9556 46.3608,42.1526 46.3608,43.6306 C46.3608,45.1076 45.1638,46.3056 43.6868,46.3056" id="Fill-6" fill="#93C8A2"></path>
                <path d="M14.646,32.6987 C13.798,32.6987 13,32.2967 12.496,31.6147 C11.992,30.9327 11.841,30.0527 12.09,29.2417 C15.435,18.3147 25.366,10.9757 36.801,10.9757 C39.412,10.9757 41.989,11.3637 44.459,12.1307 C45.137,12.3407 45.703,12.8107 46.033,13.4377 C46.364,14.0647 46.432,14.7987 46.222,15.4747 C46.013,16.1527 45.542,16.7197 44.915,17.0507 C44.287,17.3807 43.554,17.4477 42.877,17.2367 C40.919,16.6357 38.874,16.3287 36.801,16.3287 C27.732,16.3287 19.854,22.1487 17.202,30.8167 C16.858,31.9397 15.821,32.7077 14.647,32.7087 L14.646,32.6987 Z M36.801,62.6547 C34.192,62.6547 31.615,62.2667 29.142,61.5007 C27.732,61.0637 26.943,59.5667 27.379,58.1567 C27.816,56.7397 29.318,55.9507 30.724,56.3917 C32.684,57.0007 34.728,57.3077 36.801,57.3077 C45.872,57.3077 53.748,51.4867 56.4,42.8187 C56.607,42.1407 57.076,41.5737 57.702,41.2407 C58.328,40.9087 59.061,40.8397 59.739,41.0477 C61.15,41.4747 61.944,42.9717 61.512,44.3827 C58.168,55.3097 48.237,62.6547 36.801,62.6547 L36.801,62.6547 Z" id="Fill-7" fill="#43AF79"></path>
            </g>
        </g>
    </g>
</svg>