<?xml version="1.0" encoding="UTF-8"?>
<svg width="74px" height="74px" viewBox="0 0 74 74" version="1.1" xmlns="http://www.w3.org/2000/svg" xmlns:xlink="http://www.w3.org/1999/xlink">
    <!-- Generator: Sketch 53 (72520) - https://sketchapp.com -->
    <title>Group 11</title>
    <desc>Created with Sketch.</desc>
    <g id="Page-1" stroke="none" stroke-width="1" fill="none" fill-rule="evenodd">
        <g id="Logos-with-Names" transform="translate(-466.000000, -153.000000)">
            <g id="Group-11" transform="translate(466.000000, 153.042324)">
                <path d="M72.6968,36.5984 C72.6968,56.5354 56.5348,72.6974 36.5988,72.6974 C16.6618,72.6974 0.4998,56.5354 0.4998,36.5984 C0.4998,16.6614 16.6618,0.4994 36.5988,0.4994 C56.5348,0.4994 72.6968,16.6614 72.6968,36.5984" id="Fill-1" fill="#FFFFFF"></path>
                <path d="M72.6968,36.5984 C72.6968,56.5354 56.5348,72.6974 36.5988,72.6974 C16.6618,72.6974 0.4998,56.5354 0.4998,36.5984 C0.4998,16.6614 16.6618,0.4994 36.5988,0.4994 C56.5348,0.4994 72.6968,16.6614 72.6968,36.5984 Z" id="Stroke-3" stroke="#040201"></path>
                <polygon id="Fill-6" fill="#9DE1F3" points="26.9991 27.9285 10.8701 27.9285 10.8701 44.0565 10.8701 60.1855 26.9991 60.1855 43.1281 60.1855 43.1281 44.0565 43.1281 27.9285"></polygon>
                <polygon id="Fill-7" fill="#27B4E1" points="26.9991 11.7996 26.9991 27.9286 26.9991 44.0576 43.1281 44.0576 59.2561 44.0576 59.2561 11.7996"></polygon>
                <polygon id="Fill-8" fill="#1A82E2" points="10.87 60.1853 26.999 60.1853 26.999 44.0573 10.87 44.0573"></polygon>
                <polygon id="Fill-9" fill="#1A82E2" points="43.128 27.9283 59.257 27.9283 59.257 11.7993 43.128 11.7993"></polygon>
                <polygon id="Fill-10" fill="#239FD7" points="26.999 44.0573 43.128 44.0573 43.128 27.9283 26.999 27.9283"></polygon>
            </g>
        </g>
    </g>
</svg>