<?xml version="1.0" encoding="UTF-8"?>
<svg width="74px" height="75px" viewBox="0 0 74 75" version="1.1" xmlns="http://www.w3.org/2000/svg" xmlns:xlink="http://www.w3.org/1999/xlink">
    <!-- Generator: Sketch 53 (72520) - https://sketchapp.com -->
    <title>Group 3</title>
    <desc>Created with Sketch.</desc>
    <g id="Page-1" stroke="none" stroke-width="1" fill="none" fill-rule="evenodd">
        <g id="Logos-with-Names" transform="translate(-86.000000, -618.000000)">
            <g id="Group-3" transform="translate(86.630200, 619.376614)">
                <path d="M72.245,36.123 C72.245,56.073 56.072,72.246 36.122,72.246 C16.172,72.246 -5.68434189e-14,56.073 -5.68434189e-14,36.123 C-5.68434189e-14,16.173 16.172,-1.70530257e-13 36.122,-1.70530257e-13 C56.072,-1.70530257e-13 72.245,16.173 72.245,36.123" id="Fill-1" fill="#FFFFFF"></path>
                <path d="M72.245,36.123 C72.245,56.073 56.072,72.246 36.122,72.246 C16.172,72.246 -5.68434189e-14,56.073 -5.68434189e-14,36.123 C-5.68434189e-14,16.173 16.172,-1.70530257e-13 36.122,-1.70530257e-13 C56.072,-1.70530257e-13 72.245,16.173 72.245,36.123 Z" id="Stroke-3" stroke="#040201"></path>
                <path d="M36.1225,52.3144 C28.6625,52.3144 22.6155,46.2674 22.6155,38.8074 C22.6155,31.3474 28.6625,25.3004 36.1225,25.3004 C43.5825,25.3004 49.6295,31.3474 49.6295,38.8074 C49.6295,46.2674 43.5825,52.3144 36.1225,52.3144 M33.0245,11.8694 C20.0665,13.3054 9.8285,24.1524 9.0605,37.1674 C8.5265,46.2144 12.4415,54.3564 18.8155,59.6454 C21.0745,61.5194 24.4445,61.3894 26.4995,59.2934 C28.9455,56.7964 32.3505,55.2474 36.1225,55.2474 C39.8955,55.2474 43.3005,56.7974 45.7475,59.2934 C47.7935,61.3814 51.1525,61.5304 53.4045,59.6664 C59.4045,54.6994 63.2335,47.2074 63.2335,38.8074 C63.2335,22.8144 49.3845,10.0554 33.0245,11.8694" id="Fill-6" fill="#80B7A2"></path>
            </g>
        </g>
    </g>
</svg>