<?xml version="1.0" encoding="UTF-8"?>
<svg width="74px" height="75px" viewBox="0 0 74 75" version="1.1" xmlns="http://www.w3.org/2000/svg" xmlns:xlink="http://www.w3.org/1999/xlink">
    <!-- Generator: Sketch 53 (72520) - https://sketchapp.com -->
    <title>Group 14</title>
    <desc>Created with Sketch.</desc>
    <g id="Page-1" stroke="none" stroke-width="1" fill="none" fill-rule="evenodd">
        <g id="Logos-with-Names" transform="translate(-468.000000, -258.000000)">
            <g id="Group-14" transform="translate(468.000000, 258.881000)">
                <path d="M73.0664,36.7831 C73.0664,56.8221 56.8224,73.0661 36.7834,73.0661 C16.7444,73.0661 0.5004,56.8221 0.5004,36.7831 C0.5004,16.7451 16.7444,0.5001 36.7834,0.5001 C56.8224,0.5001 73.0664,16.7451 73.0664,36.7831" id="Fill-1" fill="#FFFFFF"></path>
                <path d="M73.0664,36.7831 C73.0664,56.8221 56.8224,73.0661 36.7834,73.0661 C16.7444,73.0661 0.5004,56.8221 0.5004,36.7831 C0.5004,16.7451 16.7444,0.5001 36.7834,0.5001 C56.8224,0.5001 73.0664,16.7451 73.0664,36.7831 Z" id="Stroke-3" stroke="#040201"></path>
                <path d="M44.5571,12.2733 C43.7611,9.8233 41.1301,8.4833 38.6811,9.2793 C36.2321,10.0753 34.8911,12.7063 35.6871,15.1553 L47.7451,52.2543 C48.5731,54.5433 51.0451,55.8293 53.4181,55.1453 C55.8931,54.4333 57.4021,51.8043 56.6121,49.3743 C56.5821,49.2813 44.5571,12.2733 44.5571,12.2733" id="Fill-6" fill="#DFA22F"></path>
                <path d="M25.8735,18.3436 C25.0775,15.8946 22.4465,14.5536 19.9975,15.3496 C17.5475,16.1456 16.2065,18.7766 17.0035,21.2266 L29.0615,58.3256 C29.8895,60.6146 32.3615,61.9006 34.7345,61.2166 C37.2095,60.5046 38.7175,57.8756 37.9275,55.4446 C37.8975,55.3526 25.8735,18.3436 25.8735,18.3436" id="Fill-7" fill="#3CB187"></path>
                <path d="M59.7349,42.9989 C62.1849,42.2029 63.5249,39.5719 62.7289,37.1229 C61.9329,34.6739 59.3019,33.3329 56.8529,34.1289 L19.7539,46.1869 C17.4649,47.0149 16.1789,49.4869 16.8619,51.8589 C17.5749,54.3349 20.2039,55.8439 22.6339,55.0539 C22.7269,55.0229 59.7349,42.9989 59.7349,42.9989" id="Fill-8" fill="#CE1E5B"></path>
                <path d="M27.4856,53.4774 C29.9006,52.6934 33.0126,51.6814 36.3526,50.5964 C35.5686,48.1814 34.5566,45.0684 33.4716,41.7284 L24.6036,44.6114 L27.4856,53.4774" id="Fill-9" fill="#392538"></path>
                <path d="M46.1699,47.4061 C49.5219,46.3171 52.6379,45.3041 55.0369,44.5251 C54.2519,42.1101 53.2409,38.9971 52.1549,35.6551 L43.2879,38.5381 L46.1699,47.4061" id="Fill-10" fill="#BB242A"></path>
                <path d="M53.6643,24.3143 C56.1133,23.5193 57.4543,20.8883 56.6583,18.4383 C55.8623,15.9893 53.2313,14.6493 50.7823,15.4443 L13.6823,27.5023 C11.3943,28.3313 10.1083,30.8023 10.7913,33.1753 C11.5033,35.6503 14.1323,37.1593 16.5633,36.3693 C16.6553,36.3393 53.6643,24.3143 53.6643,24.3143" id="Fill-11" fill="#72C5CD"></path>
                <path d="M21.4133,34.7938 C23.8283,34.0088 26.9413,32.9968 30.2813,31.9118 C29.1923,28.5598 28.1803,25.4428 27.4003,23.0438 L18.5313,25.9268 L21.4133,34.7938" id="Fill-12" fill="#248C73"></path>
                <path d="M40.0969,28.7235 C43.4499,27.6335 46.5659,26.6205 48.9659,25.8405 C47.8769,22.4885 46.8639,19.3705 46.0839,16.9715 L37.2149,19.8545 L40.0969,28.7235" id="Fill-13" fill="#62803A"></path>
            </g>
        </g>
    </g>
</svg>