<?xml version="1.0" encoding="UTF-8"?>
<svg width="74px" height="75px" viewBox="0 0 74 75" version="1.1" xmlns="http://www.w3.org/2000/svg" xmlns:xlink="http://www.w3.org/1999/xlink">
    <!-- Generator: Sketch 53 (72520) - https://sketchapp.com -->
    <title>Group 9</title>
    <desc>Created with Sketch.</desc>
    <g id="Page-1" stroke="none" stroke-width="1" fill="none" fill-rule="evenodd">
        <g id="Logos-with-Names" transform="translate(-793.000000, -607.000000)">
            <g id="Group-9" transform="translate(793.000000, 606.877014)">
                <g id="Group-5" transform="translate(0.000000, 0.660000)">
                    <path d="M73.0071,37.0937 C73.0071,57.1157 56.7761,73.3477 36.7531,73.3477 C16.7311,73.3477 0.5001,57.1157 0.5001,37.0937 C0.5001,17.0717 16.7311,0.8407 36.7531,0.8407 C56.7761,0.8407 73.0071,17.0717 73.0071,37.0937" id="Fill-1" fill="#FFFFFF"></path>
                    <path d="M73.0071,37.0937 C73.0071,57.1157 56.7761,73.3477 36.7531,73.3477 C16.7311,73.3477 0.5001,57.1157 0.5001,37.0937 C0.5001,17.0717 16.7311,0.8407 36.7531,0.8407 C56.7761,0.8407 73.0071,17.0717 73.0071,37.0937 Z" id="Stroke-3" stroke="#040201"></path>
                </g>
                <g id="Group-8" transform="translate(3.000000, 21.660000)" fill="#73BA25">
                    <path d="M63.584,9.0889 C63.657,6.9309 61.963,5.1099 59.802,5.0339 C58.757,4.9969 57.76,5.3679 56.996,6.0819 C56.229,6.7959 55.79,7.7649 55.754,8.8109 C55.683,10.9679 57.375,12.7859 59.532,12.8639 C60.583,12.9019 61.578,12.5299 62.342,11.8139 C63.106,11.1009 63.545,10.1339 63.584,9.0889 M66.051,14.3789 L66.338,14.3259 C66.416,14.3879 66.405,14.5139 66.38,14.6259 C66.327,14.8879 66.2,15.3619 66.113,15.5869 L66.04,15.7729 C65.939,16.0479 65.837,16.3099 65.644,16.4669 C65.11,16.9529 64.256,17.3409 62.918,17.9249 C60.851,18.8299 57.499,19.4009 54.385,19.3809 C53.27,19.3559 52.191,19.2319 51.244,19.1249 C48.344,18.7929 46.248,18.5579 45.813,21.1929 C45.262,24.4969 48.37,28.5089 48.401,28.5459 L48.397,28.6549 L48.297,28.6809 C48.297,28.6809 43.343,26.3999 43.222,26.3319 L43.065,26.2199 L42.938,26.0989 C42.564,25.7389 41.814,24.9329 40.292,23.1679 C37.338,19.7539 33.883,19.3049 31.219,19.9529 C30.57,20.1089 29.744,20.5829 29.207,21.1169 C27.816,22.4879 27.974,25.2499 28.052,26.2559 C28.145,27.3939 28.204,27.4789 28.229,27.5699 L28.212,27.6859 L28.114,27.6969 L28.058,27.6579 L23.995,25.6719 L23.841,25.0089 C23.737,24.5699 23.616,24.0839 23.385,23.4749 C21.933,19.6449 18.668,16.7649 15.071,16.1439 C12.641,15.7249 8.21,15.6769 5.864,20.1059 C4.883,21.9539 4.942,24.3619 6.018,26.3909 C7.114,28.4679 9.073,29.7989 11.391,30.0549 C13.689,30.3049 15.417,29.7739 16.386,28.5179 C17.364,27.2499 17.547,25.5259 16.853,24.1199 C16.108,22.6119 14.984,21.8109 13.422,21.6789 C12.233,21.5719 11.351,22.0669 11.034,22.5719 C10.941,22.7309 10.772,23.0229 10.77,23.4379 L10.77,23.4519 C10.77,24.5839 11.806,24.8939 12.017,24.9079 C12.082,24.9079 12.394,24.8999 12.807,24.7949 L13.006,24.7319 L13.144,24.6829 L13.245,24.6629 C13.998,24.5259 14.723,24.9699 14.934,25.7029 C14.97,25.8379 14.99,25.9729 14.99,26.1079 C14.99,26.5939 14.743,27.0459 14.332,27.3209 L14.349,27.3159 L14.304,27.3409 L14.237,27.3829 C14.021,27.5209 13.821,27.5969 13.61,27.6609 C13.02,27.8549 12.498,27.9439 11.972,27.9439 C10.18,27.9429 7.682,26.3999 7.648,23.5029 C7.631,21.8669 8.452,20.3779 9.896,19.4199 C11.559,18.3209 14.434,17.9469 17.1,19.5829 C20.382,21.5919 21.239,25.5259 20.382,28.2089 C19.137,32.0949 15.636,34.1709 11.014,33.7579 C7.741,33.4659 4.701,31.7379 2.891,29.1359 C2.088,27.9839 1.492,26.6999 1.172,25.4189 C0.433,22.4879 1.18,19.3749 1.736,17.9949 C3.507,13.6099 6.895,9.8359 11.798,6.7759 L12.107,6.5819 C22.537,0.1729 29.918,0.4319 35.321,0.6199 C41.694,0.8419 48.49,3.0389 49.429,3.3509 C49.432,3.1409 49.468,1.2409 49.468,1.2409 L49.496,1.1759 L49.569,1.1559 C49.997,1.2159 59.153,2.5749 63.011,4.8229 C63.489,5.1049 63.725,5.3969 64.02,5.6999 C65.085,6.8009 66.496,11.3899 66.645,12.3369 L66.588,12.4319 C66.532,12.4509 66.4,12.5499 66.223,12.6679 C65.324,13.2969 63.219,14.7699 60.522,14.5279 C58.097,14.3149 54.931,12.9239 51.112,10.4089 C51.281,10.8049 52.076,12.6879 52.211,13.0049 L52.261,13.0679 C52.815,13.3539 58.12,16.0569 60.753,16.0029 C62.876,15.9609 65.144,14.9239 66.051,14.3789" id="Fill-7"></path>
                </g>
            </g>
        </g>
    </g>
</svg>