<?xml version="1.0" encoding="UTF-8"?>
<svg width="73px" height="74px" viewBox="0 0 73 74" version="1.1" xmlns="http://www.w3.org/2000/svg" xmlns:xlink="http://www.w3.org/1999/xlink">
    <!-- Generator: Sketch 53 (72520) - https://sketchapp.com -->
    <title>Group 20</title>
    <desc>Created with Sketch.</desc>
    <g id="Page-1" stroke="none" stroke-width="1" fill="none" fill-rule="evenodd">
        <g id="Logos-with-Names" transform="translate(-659.000000, -1157.000000)">
            <g id="Group-20" transform="translate(659.000000, 1156.449619)">
                <g id="Group-5" transform="translate(0.000000, 0.837000)">
                    <path d="M72.4408,36.6338 C72.4408,56.4988 56.3368,72.6038 36.4708,72.6038 C16.6048,72.6038 0.4998,56.4988 0.4998,36.6338 C0.4998,16.7678 16.6048,0.6628 36.4708,0.6628 C56.3368,0.6628 72.4408,16.7678 72.4408,36.6338" id="Fill-1" fill="#FFFFFF"></path>
                    <path d="M72.4408,36.6338 C72.4408,56.4988 56.3368,72.6038 36.4708,72.6038 C16.6048,72.6038 0.4998,56.4988 0.4998,36.6338 C0.4998,16.7678 16.6048,0.6628 36.4708,0.6628 C56.3368,0.6628 72.4408,16.7678 72.4408,36.6338 Z" id="Stroke-3" stroke="#040201"></path>
                </g>
                <g id="Group-19" transform="translate(6.000000, 10.837000)">
                    <path d="M24.0631,15.1445 C19.7641,15.1445 15.7191,16.8195 12.6731,19.8625 C9.6311,22.9065 7.9541,26.9515 7.9541,31.2515 C7.9541,35.5515 9.6311,39.5985 12.6741,42.6445 C15.7171,45.6835 19.7631,47.3615 24.0631,47.3615 C28.3651,47.3615 32.4101,45.6835 35.4571,42.6415 C38.4951,39.5985 40.1721,35.5515 40.1721,31.2515 C40.1721,26.9515 38.4951,22.9065 35.4561,19.8605 C32.4091,16.8195 28.3621,15.1445 24.0631,15.1445 M24.0631,54.8165 C11.0741,54.8145 0.5021,44.2445 0.5001,31.2515 C0.5021,18.2605 11.0741,7.6905 24.0631,7.6895 C37.0541,7.6905 47.6261,18.2605 47.6261,31.2515 C47.6261,44.2445 37.0541,54.8145 24.0631,54.8165" id="Fill-7" fill="#060000"></path>
                    <polygon id="Fill-8" fill="#060000" points="49.731 5.898 51.569 5.898 51.569 4.062 49.731 4.062"></polygon>
                    <polygon id="Fill-9" fill="#060000" points="49.731 2.24 51.569 2.24 51.569 0.4 49.731 0.4"></polygon>
                    <polygon id="Fill-10" fill="#060000" points="44.562 7.679 46.279 7.679 46.279 5.885 44.562 5.885"></polygon>
                    <polygon id="Fill-11" fill="#231F20" points="41.16 11.123 42.891 11.123 42.891 9.409 41.16 9.409"></polygon>
                    <polygon id="Fill-12" fill="#231F20" points="46.279 9.409 48.203 9.409 48.203 7.68 46.279 7.68"></polygon>
                    <polygon id="Fill-13" fill="#231F20" points="39.438 9.409 41.16 9.409 41.16 7.765 39.438 7.765"></polygon>
                    <polygon id="Fill-14" fill="#231F20" points="44.562 11.123 46.279 11.123 46.279 9.409 44.562 9.409"></polygon>
                    <polygon id="Fill-15" fill="#231F20" points="47.914 4.061 49.731 4.061 49.731 2.24 47.914 2.24"></polygon>
                    <polygon id="Fill-16" fill="#231F20" points="44.561 5.885 47.914 5.885 47.914 4.062 44.561 4.062"></polygon>
                    <polygon id="Fill-17" fill="#231F20" points="42.891 9.409 44.562 9.409 44.562 5.885 42.891 5.885"></polygon>
                    <path d="M42.8912,11.123 L42.8912,12.852 L41.1602,12.852 L41.1602,11.123 L38.2902,11.123 L38.2902,12.369 L36.7512,12.369 L36.7512,13.906 L38.4702,13.906 L38.4702,15.618 L36.7512,15.618 L36.7512,13.906 L34.9272,13.906 L34.9272,16.592 L33.1992,16.592 L33.1992,18.306 L32.0522,18.306 L32.0522,20.027 L30.7932,20.027 C29.3772,22.132 25.8312,28.691 24.7572,31.366 C20.8942,25.986 17.8932,23.853 15.5292,23.082 C14.2532,22.698 12.7172,24.087 14.8362,26.271 C19.6992,31.619 21.2312,36.047 22.7082,39.581 C23.4902,41.443 26.9962,41.731 27.7022,39.837 C29.1982,35.826 31.3682,31.322 33.9372,27.623 L33.9372,25.706 L35.3082,25.706 L35.3082,23.977 L36.7512,23.977 L36.7512,21.975 L38.4762,21.975 L38.4762,20.044 L36.7332,20.044 L36.7332,18.288 L38.4762,18.288 L38.4762,20.044 L40.1812,20.044 L40.1762,18.306 L41.5452,18.306 L41.5452,16.209 L43.0812,16.209 L43.0812,14.766 L44.5622,14.766 L44.5622,11.123 L42.8912,11.123 Z" id="Fill-18" fill="#231F20"></path>
                </g>
            </g>
        </g>
    </g>
</svg>