<?xml version="1.0" encoding="UTF-8"?>
<svg width="73px" height="73px" viewBox="0 0 73 73" version="1.1" xmlns="http://www.w3.org/2000/svg" xmlns:xlink="http://www.w3.org/1999/xlink">
    <!-- Generator: Sketch 53 (72520) - https://sketchapp.com -->
    <title>Group 7</title>
    <desc>Created with Sketch.</desc>
    <g id="Page-1" stroke="none" stroke-width="1" fill="none" fill-rule="evenodd">
        <g id="Logos-with-Names" transform="translate(-87.000000, -518.000000)">
            <g id="Group-7" transform="translate(87.000000, 518.000000)">
                <path d="M72.1823,36.3408 C72.1823,56.1358 56.1363,72.1828 36.3413,72.1828 C16.5463,72.1828 0.5003,56.1358 0.5003,36.3408 C0.5003,16.5468 16.5463,0.4998 36.3413,0.4998 C56.1363,0.4998 72.1823,16.5468 72.1823,36.3408" id="Fill-1" fill="#FFFFFF"></path>
                <path d="M72.1823,36.3408 C72.1823,56.1358 56.1363,72.1828 36.3413,72.1828 C16.5463,72.1828 0.5003,56.1358 0.5003,36.3408 C0.5003,16.5468 16.5463,0.4998 36.3413,0.4998 C56.1363,0.4998 72.1823,16.5468 72.1823,36.3408 Z" id="Stroke-3" stroke="#040201"></path>
                <path d="M36.5651,9.2568 C21.6081,9.1328 9.3811,21.1588 9.2571,36.1168 C9.2051,42.4088 11.3101,48.2118 14.8721,52.8388 C16.2651,51.4678 17.2261,50.5228 17.3851,50.3668 C18.1021,49.6638 19.9951,49.6798 19.9951,49.6798 C19.9951,49.6798 21.8541,47.8538 23.7631,45.9728 C25.6731,44.0928 22.4381,40.8048 22.4381,40.8048 L17.9201,36.2118 C35.5861,18.8288 48.4891,24.2108 48.4891,24.2108 C48.4891,24.2108 53.6581,37.2018 35.9941,54.5838 L31.4751,49.9898 C31.4751,49.9898 28.2401,46.7028 26.3311,48.5798 C24.4191,50.4618 22.5621,52.2888 22.5621,52.2888 C22.5621,52.2888 22.5491,54.1828 21.8311,54.8878 C21.6701,55.0458 20.7021,55.9988 19.2981,57.3808 C23.8961,61.1108 29.7361,63.3728 36.1171,63.4258 C51.0761,63.5498 63.3011,51.5248 63.4251,36.5658 C63.5491,21.6068 51.5241,9.3808 36.5651,9.2568" id="Fill-6" fill="#EE5A4C"></path>
            </g>
        </g>
    </g>
</svg>