<?xml version="1.0" encoding="UTF-8"?>
<svg width="75px" height="74px" viewBox="0 0 75 74" version="1.1" xmlns="http://www.w3.org/2000/svg" xmlns:xlink="http://www.w3.org/1999/xlink">
    <!-- Generator: Sketch 53 (72520) - https://sketchapp.com -->
    <title>Group 32</title>
    <desc>Created with Sketch.</desc>
    <g id="Page-1" stroke="none" stroke-width="1" fill="none" fill-rule="evenodd">
        <g id="Logos-with-Names" transform="translate(-793.000000, -44.000000)">
            <g id="Group-32" transform="translate(793.500000, 44.000000)">
                <path d="M73.428,36.9636 C73.428,57.1026 57.103,73.4286 36.964,73.4286 C16.825,73.4286 0.5,57.1026 0.5,36.9636 C0.5,16.8256 16.825,0.4996 36.964,0.4996 C57.103,0.4996 73.428,16.8256 73.428,36.9636" id="Fill-1" fill="#FFFFFF"></path>
                <path d="M73.428,36.9636 C73.428,57.1026 57.103,73.4286 36.964,73.4286 C16.825,73.4286 0.5,57.1026 0.5,36.9636 C0.5,16.8256 16.825,0.4996 36.964,0.4996 C57.103,0.4996 73.428,16.8256 73.428,36.9636 Z" id="Stroke-3" stroke="#040201"></path>
                <path d="M26.0472,31.8738 L29.2562,31.8738 C29.4802,33.1568 29.3862,34.4498 29.3042,35.7338 C29.2452,36.6618 28.6352,37.1528 27.7352,37.2618 C26.9092,37.3598 26.0072,36.8458 25.9242,36.0348 C25.7832,34.6548 25.5892,33.2468 26.0472,31.8738" id="Fill-6" fill="#FDFDFD"></path>
                <path d="M39.5735,31.8738 C39.7025,31.9488 39.8365,32.0198 39.9605,32.1028 C40.2775,32.3148 40.8635,32.3878 40.6095,32.9598 C40.3695,33.4958 39.9825,33.2538 39.5705,33.0688 C38.7395,32.6948 37.9955,32.9048 37.4495,33.6408 C36.9385,34.3278 36.9275,35.0618 37.4095,35.7698 C37.9405,36.5498 38.7155,36.6878 39.5315,36.3748 C40.0085,36.1908 40.4555,35.9918 40.6415,36.5938 C40.8085,37.1308 40.2345,37.2488 39.8815,37.4068 C38.5985,37.9808 37.0425,37.4348 36.3245,36.1868 C35.5775,34.8898 35.9095,33.2918 37.1165,32.4208 C37.3905,32.2238 37.6845,32.0558 37.9685,31.8738 L39.5735,31.8738 Z" id="Fill-7" fill="#B2D855"></path>
                <path d="M22.3792,31.8738 C24.1512,33.0138 24.6942,34.0828 24.2412,35.5768 C24.1652,35.8298 24.0972,36.1318 23.9202,36.2988 C23.1462,37.0228 22.4832,37.7258 23.5142,38.7458 C23.6312,38.8608 23.5302,39.0628 23.3792,39.1118 C23.1892,39.1758 22.9532,39.1028 22.8892,38.9198 C22.5052,37.8368 21.6642,37.6268 20.6292,37.4478 C19.5452,37.2608 18.8852,36.3928 18.7052,35.2768 C18.5132,34.0868 18.8822,33.0878 19.8852,32.3748 C20.1602,32.1788 20.4772,32.0388 20.7742,31.8738 L22.3792,31.8738 Z" id="Fill-8" fill="#103867"></path>
                <path d="M12.2918,31.8738 L12.2918,37.5378 C12.2038,37.5818 12.1148,37.6258 12.0268,37.6708 C10.8788,36.2418 9.7318,34.8128 8.3748,33.1218 C8.3748,34.4928 8.3868,35.5988 8.3668,36.7038 C8.3608,37.0088 8.5358,37.5318 8.0368,37.5178 C7.5588,37.5028 7.7388,36.9828 7.7338,36.6758 C7.7108,35.0748 7.7128,33.4748 7.7068,31.8738 L8.1648,31.8738 C9.2498,32.4658 9.7588,33.5938 10.5598,34.4508 C10.8458,34.7578 11.0588,35.1258 11.3638,35.4258 C11.3888,35.5698 11.6038,35.3428 11.4768,35.4278 C11.4418,35.4498 11.4198,35.4208 11.4028,35.3398 C11.2228,34.4688 11.3248,33.5918 11.3368,32.7168 C11.3428,32.3488 11.4948,32.0528 11.8338,31.8738 L12.2918,31.8738 Z" id="Fill-9" fill="#133B6A"></path>
                <path d="M70.9818,35.7713 C70.2298,36.1523 69.3938,35.7883 68.5588,36.0443 C68.8108,36.7773 69.3378,36.7983 69.9028,36.5863 C70.2638,36.4503 70.5238,36.4903 70.6388,36.8383 C70.7768,37.2553 70.3818,37.3323 70.1258,37.4523 C69.2408,37.8653 68.2208,37.5533 67.7298,36.7383 C67.2188,35.8923 67.4838,34.5853 68.2708,34.0703 C69.1118,33.5183 69.9968,33.6743 70.7038,34.5013 C70.8008,34.6153 70.8898,34.7363 70.9818,34.8543 L70.9818,35.7713 Z" id="Fill-10" fill="#B4D858"></path>
                <path d="M4.4969,31.8738 C5.2319,33.5058 5.9759,35.1328 6.6929,36.7728 C6.7919,36.9998 7.1499,37.3398 6.6799,37.5278 C6.3319,37.6678 6.2089,37.2788 6.1559,37.0618 C5.8199,35.6878 4.7209,36.3078 3.9139,36.1708 C3.2119,36.0518 2.7489,36.2878 2.5509,37.0138 C2.4749,37.2908 2.3109,37.7048 1.9429,37.5198 C1.5269,37.3118 1.9129,36.9718 2.0169,36.7408 C2.7479,35.1098 3.5129,33.4938 4.2679,31.8738 L4.4969,31.8738 Z" id="Fill-11" fill="#133B69"></path>
                <path d="M15.9598,31.8738 C16.4778,33.5488 17.3558,35.0698 18.0018,36.6898 C18.1028,36.9418 18.4778,37.2918 18.1198,37.4918 C17.6748,37.7398 17.5348,37.2328 17.4578,36.9438 C17.2488,36.1558 16.6898,36.0888 16.0438,36.1748 C15.2618,36.2778 14.2238,35.7338 13.8908,37.0248 C13.8218,37.2918 13.6808,37.7078 13.2888,37.4878 C12.9948,37.3238 13.2418,37.0158 13.3448,36.7798 C14.0638,35.1448 14.7828,33.5088 15.5018,31.8738 L15.9598,31.8738 Z" id="Fill-12" fill="#133B69"></path>
                <path d="M33.1541,31.8738 C33.8661,33.5108 34.5781,35.1478 35.2911,36.7838 C35.3941,37.0208 35.6431,37.3298 35.3501,37.4918 C34.9691,37.7038 34.8041,37.3098 34.7471,37.0298 C34.5391,35.9968 33.7531,36.1658 33.0461,36.1728 C32.2821,36.1808 31.3951,35.9158 31.1241,37.0438 C31.0531,37.3368 30.8881,37.7098 30.5151,37.4928 C30.2121,37.3178 30.5001,37.0208 30.5931,36.7878 C31.2551,35.1338 32.1561,33.5808 32.6961,31.8738 L33.1541,31.8738 Z" id="Fill-13" fill="#133B69"></path>
                <path d="M11.8333,31.8738 C11.4713,33.2068 11.8283,34.5858 11.5883,36.2028 C10.3543,34.6418 9.2593,33.2578 8.1653,31.8738 L11.8333,31.8738 Z" id="Fill-14" fill="#FDFDFD"></path>
                <path d="M26.0472,31.8738 C26.0612,33.0108 26.0582,34.1478 26.0952,35.2848 C26.1312,36.4258 26.6862,37.0378 27.6122,37.0238 C28.5532,37.0108 29.0072,36.4278 29.0782,35.2478 C29.1462,34.1238 28.8692,32.9798 29.2562,31.8738 L29.7152,31.8738 C29.7152,33.0488 29.7382,34.2238 29.7112,35.3978 C29.6802,36.7748 28.9052,37.5868 27.6512,37.6138 C26.3122,37.6428 25.5252,36.8688 25.5072,35.3928 C25.4932,34.2208 25.3912,33.0418 25.5892,31.8738 L26.0472,31.8738 Z" id="Fill-15" fill="#0F3867"></path>
                <path d="M48.9124,36.6795 C48.9124,36.2995 48.8694,35.9135 48.9224,35.5415 C48.9984,35.0105 48.5814,34.2655 49.1894,33.9815 C50.3554,33.4365 51.5794,33.6975 52.1594,34.4465 C52.7334,35.1895 52.7394,35.9815 52.2804,36.7855 C51.9724,37.3265 51.4854,37.6505 50.8794,37.5945 C50.0804,37.5205 49.7774,37.7835 49.8764,38.5915 C49.9174,38.9225 50.0374,39.4115 49.4184,39.4245 C48.8064,39.4365 48.9264,38.9695 48.9174,38.6155 C48.9004,37.9705 48.9124,37.3255 48.9124,36.6795" id="Fill-16" fill="#B2D854"></path>
                <path d="M56.9476,35.8426 C56.8646,36.8376 55.9156,37.6676 54.9256,37.6116 C53.9456,37.5556 53.0746,36.5756 53.1426,35.6066 C53.2176,34.5256 54.2086,33.6466 55.2186,33.7646 C56.2236,33.8826 57.0296,34.8526 56.9476,35.8426" id="Fill-17" fill="#B3D856"></path>
                <path d="M45.0428,35.6765 C45.0668,36.6495 44.1648,37.5895 43.1848,37.6135 C42.1848,37.6375 41.3008,36.7985 41.2388,35.7685 C41.1778,34.7355 42.1168,33.7405 43.1468,33.7505 C44.1328,33.7595 45.0178,34.6575 45.0428,35.6765" id="Fill-18" fill="#B3D856"></path>
                <path d="M63.6214,36.1463 C63.5194,36.5493 63.8334,37.4113 63.3774,37.4133 C62.6174,37.4153 61.8414,37.9193 61.0894,37.4583 C60.6284,37.1763 60.3724,36.7543 60.4864,36.2073 C60.6104,35.6103 61.0374,35.3483 61.6264,35.2553 C61.9244,35.2093 62.4894,35.4453 62.4654,34.9723 C62.4384,34.4383 61.8804,34.6673 61.5304,34.6833 C61.2744,34.6953 60.9884,34.8573 60.8954,34.4543 C60.8004,34.0383 61.0764,33.9603 61.3944,33.8593 C62.9224,33.3703 63.6204,34.0603 63.6214,36.1463" id="Fill-19" fill="#B4D858"></path>
                <path d="M65.9944,37.6121 C65.2014,37.6471 64.8494,37.2621 64.7964,36.5291 C64.7474,35.8421 64.8524,35.1831 64.4244,34.4841 C64.2144,34.1401 64.6944,33.2751 65.0194,32.7431 C65.1874,32.4691 65.7044,32.5271 65.7444,33.0271 C65.7844,33.5441 65.8724,33.9221 66.5034,33.9071 C66.7164,33.9021 66.8324,34.0631 66.8364,34.2851 C66.8404,34.5491 66.7144,34.7521 66.4544,34.7581 C65.5984,34.7781 65.7864,35.3961 65.7734,35.9001 C65.7614,36.3721 65.8674,36.7341 66.4694,36.6701 C66.8274,36.6321 66.9864,36.9081 66.9084,37.1731 C66.7764,37.6201 66.3254,37.5661 65.9944,37.6121" id="Fill-20" fill="#B3D856"></path>
                <path d="M45.7767,35.7176 C45.7767,35.3746 45.7727,35.0316 45.7777,34.6896 C45.7847,34.2176 45.7047,33.7386 46.5087,34.0276 C46.8197,34.1386 47.2697,33.8086 47.6657,33.7566 C47.9157,33.7236 48.2477,33.7926 48.2417,34.1516 C48.2367,34.4056 48.1457,34.7436 47.8137,34.7146 C46.7847,34.6236 46.8437,35.3056 46.8597,35.9776 C46.8647,36.1676 46.8727,36.3596 46.8587,36.5486 C46.8267,36.9776 46.9957,37.5716 46.2817,37.5586 C45.5277,37.5446 45.8397,36.9116 45.7837,36.5166 C45.7467,36.2546 45.7767,35.9846 45.7767,35.7176" id="Fill-21" fill="#B6D95D"></path>
                <path d="M57.6863,35.6736 C57.6863,35.6356 57.6863,35.5976 57.6863,35.5586 C57.6863,34.1586 58.2713,33.6086 59.6193,33.7476 C59.8493,33.7726 60.1153,33.8226 60.1523,34.0836 C60.1913,34.3556 60.0403,34.7296 59.7843,34.7006 C58.5363,34.5676 58.8013,35.4436 58.7703,36.1296 C58.7593,36.3966 58.7703,36.6636 58.7633,36.9306 C58.7523,37.3266 58.6043,37.5896 58.1493,37.5696 C57.7153,37.5516 57.6883,37.2546 57.6873,36.9326 C57.6863,36.5126 57.6873,36.0926 57.6863,35.6736" id="Fill-22" fill="#B5D95B"></path>
                <path d="M23.7747,34.7722 C23.7667,36.0062 22.7667,37.0242 21.5407,37.0452 C20.2917,37.0662 19.1907,35.9732 19.2067,34.7282 C19.2227,33.5112 20.2517,32.4832 21.4697,32.4652 C22.7517,32.4472 23.7827,33.4782 23.7747,34.7722" id="Fill-23" fill="#FDFDFE"></path>
                <path d="M69.7933,35.0261 C69.6673,35.3561 69.3733,35.2401 69.1363,35.2531 C68.9503,35.2631 68.7053,35.2251 68.7313,35.0011 C68.7673,34.6951 69.0413,34.6221 69.3213,34.6421 C69.5583,34.6601 69.7413,34.7581 69.7933,35.0261" id="Fill-24" fill="#FDFDFB"></path>
                <path d="M5.473,35.5369 C4.687,35.5979 3.829,35.8909 3.436,35.4269 C3.124,35.0579 3.784,34.3599 3.996,33.8039 C4.076,33.5969 4.193,33.4029 4.368,33.0559 C4.762,33.9389 5.099,34.6969 5.473,35.5369" id="Fill-25" fill="#F7F8F9"></path>
                <path d="M15.6961,32.9871 C16.1281,33.9821 16.4511,34.7251 16.7951,35.5181 C16.0231,35.6541 15.3561,35.6311 14.5711,35.5341 C14.9241,34.7361 15.2531,33.9891 15.6961,32.9871" id="Fill-26" fill="#F7F8FA"></path>
                <path d="M31.8104,35.5574 C32.1934,34.6904 32.5074,33.9794 32.9394,33.0024 C33.3694,33.9724 33.7034,34.7234 34.0734,35.5574 L31.8104,35.5574 Z" id="Fill-27" fill="#F8F9FA"></path>
                <path d="M50.6639,34.6834 C51.2049,34.7474 51.4979,35.0794 51.5089,35.6524 C51.5199,36.2144 51.2779,36.6064 50.6869,36.6754 C50.1129,36.7434 49.8749,36.4654 49.8799,35.8824 C49.8839,35.3094 49.9439,34.8204 50.6639,34.6834" id="Fill-28" fill="#FCFDFA"></path>
                <path d="M54.9608,36.6883 C54.3678,36.6133 54.0908,36.1893 54.0968,35.6653 C54.1048,35.1163 54.4878,34.6923 55.0408,34.7013 C55.6618,34.7113 56.0078,35.1873 55.9708,35.7873 C55.9358,36.3393 55.5588,36.6653 54.9608,36.6883" id="Fill-29" fill="#FAFCF6"></path>
                <path d="M44.1111,35.6892 C43.9891,36.1992 43.8031,36.6682 43.1821,36.6762 C42.5931,36.6842 42.2271,36.3172 42.2091,35.7632 C42.1901,35.1712 42.5251,34.6922 43.1601,34.7042 C43.7151,34.7132 44.0111,35.1442 44.1111,35.6892" id="Fill-30" fill="#FAFCF6"></path>
                <path d="M62.076,35.8201 C62.365,35.8241 62.628,35.9141 62.622,36.2411 C62.616,36.6331 62.337,36.8481 61.966,36.8761 C61.649,36.8981 61.472,36.6551 61.473,36.3771 C61.475,36.0231 61.759,35.8841 62.076,35.8201" id="Fill-31" fill="#F3F8E5"></path>
            </g>
        </g>
    </g>
</svg>