<?xml version="1.0" encoding="UTF-8"?>
<svg width="73px" height="73px" viewBox="0 0 73 73" version="1.1" xmlns="http://www.w3.org/2000/svg" xmlns:xlink="http://www.w3.org/1999/xlink">
    <!-- Generator: Sketch 53 (72520) - https://sketchapp.com -->
    <title>Group 10</title>
    <desc>Created with Sketch.</desc>
    <g id="Page-1" stroke="none" stroke-width="1" fill="none" fill-rule="evenodd">
        <g id="Logos-with-Names" transform="translate(-794.000000, -137.000000)">
            <g id="Group-10" transform="translate(794.000000, 137.000000)">
                <path d="M72.229,36.3409 C72.229,56.1359 56.182,72.1829 36.388,72.1829 C16.593,72.1829 0.546,56.1359 0.546,36.3409 C0.546,16.5469 16.593,0.4999 36.388,0.4999 C56.182,0.4999 72.229,16.5469 72.229,36.3409" id="Fill-1" fill="#FFFFFF"></path>
                <path d="M72.229,36.3409 C72.229,56.1359 56.182,72.1829 36.388,72.1829 C16.593,72.1829 0.546,56.1359 0.546,36.3409 C0.546,16.5469 16.593,0.4999 36.388,0.4999 C56.182,0.4999 72.229,16.5469 72.229,36.3409 Z" id="Stroke-3" stroke="#040201"></path>
                <path d="M39.2715,44.1856 C42.7795,42.2236 47.0005,39.6076 50.4495,35.2666 C47.0605,31.0456 42.3035,28.5476 38.7955,26.6456 C47.2385,24.8026 54.6105,33.1256 54.6105,33.1256 L56.5735,35.3266 L54.6105,37.5266 C46.9415,45.7906 39.2715,44.1856 39.2715,44.1856" id="Fill-6" fill="#F15E22"></path>
                <path d="M39.9253,35.3858 C39.9253,37.5858 38.1413,39.3688 35.9423,39.3688 C33.7413,39.3688 31.9583,37.5858 31.9583,35.3858 C31.9583,33.1858 33.7413,31.4028 35.9423,31.4028 C38.1413,31.4618 39.9253,33.2448 39.9253,35.3858" id="Fill-7" fill="#1C303B"></path>
                <path d="M41.4116,52.5684 C26.7256,52.5684 16.9746,37.3474 16.5586,36.6934 L15.6076,35.2074 L16.5586,33.7204 C16.9746,33.0674 26.7856,18.2034 41.4116,18.2034 C50.0326,18.2034 58.2976,23.3764 66.0266,33.5434 L67.2156,35.1484 L66.0266,36.7534 C58.3566,47.2774 50.0926,52.5684 41.4116,52.5684 M22.2066,35.2664 C24.8236,38.7154 32.1366,47.1584 41.4716,47.1584 C47.8926,47.1584 54.2546,43.1744 60.4376,35.2664 C54.2546,27.5964 47.8326,23.6724 41.4716,23.6724 C32.1366,23.6724 24.8236,31.8784 22.2066,35.2664" id="Fill-8" fill="#F15E22"></path>
                <path d="M30.2339,52.5684 C15.9639,52.1524 6.7489,37.2284 6.3329,36.5754 L5.5599,35.0894 L6.4509,33.6614 C6.8669,33.0674 15.9049,18.7974 30.1149,18.2624 C19.0559,23.3164 11.3859,35.3854 11.3859,35.3854 C11.3859,35.3854 17.8669,46.1474 30.2339,52.5684" id="Fill-9" fill="#F15E22"></path>
            </g>
        </g>
    </g>
</svg>