<?xml version="1.0" encoding="UTF-8"?>
<svg width="73px" height="73px" viewBox="0 0 73 73" version="1.1" xmlns="http://www.w3.org/2000/svg" xmlns:xlink="http://www.w3.org/1999/xlink">
    <!-- Generator: Sketch 53 (72520) - https://sketchapp.com -->
    <title>Group 45</title>
    <desc>Created with Sketch.</desc>
    <g id="Page-1" stroke="none" stroke-width="1" fill="none" fill-rule="evenodd">
        <g id="Logos-with-Names" transform="translate(-473.000000, -439.000000)">
            <g id="Group-45" transform="translate(473.000000, 439.042324)">
                <path d="M72.1825,36.3416 C72.1825,56.1356 56.1355,72.1826 36.3415,72.1826 C16.5465,72.1826 0.4995,56.1356 0.4995,36.3416 C0.4995,16.5466 16.5465,0.4996 36.3415,0.4996 C56.1355,0.4996 72.1825,16.5466 72.1825,36.3416" id="Fill-1" fill="#FFFFFF"></path>
                <path d="M72.1825,36.3416 C72.1825,56.1356 56.1355,72.1826 36.3415,72.1826 C16.5465,72.1826 0.4995,56.1356 0.4995,36.3416 C0.4995,16.5466 16.5465,0.4996 36.3415,0.4996 C56.1355,0.4996 72.1825,16.5466 72.1825,36.3416 Z" id="Stroke-3" stroke="#040201"></path>
                <path d="M34.6991,62.0945 C33.2971,62.0205 31.9211,61.7915 30.5991,61.3165 C29.8681,61.0535 29.1671,61.2845 28.4641,61.3695 C26.8301,61.5675 25.2251,61.5765 23.6831,60.9035 C22.6001,60.4305 21.7161,59.6915 20.9731,58.7875 C19.3691,56.8355 18.0271,54.7005 16.7191,52.4865 C18.4481,53.2735 20.1771,54.0615 21.9061,54.8495 C21.4801,54.0455 21.0131,53.3035 20.6211,52.5195 C20.2051,51.6865 19.8311,50.8335 19.5471,49.9455 C19.4741,49.7165 19.4071,49.6195 19.1171,49.6865 C18.6031,49.8045 18.0721,49.8515 17.5451,49.9015 C16.8381,49.9675 16.3531,49.6735 16.0721,49.0005 C15.5601,47.7795 15.2601,46.5005 15.0191,45.2065 C14.9081,44.6065 14.8391,44.0005 14.8351,43.3875 C14.8301,42.7205 15.0641,42.2035 15.6791,41.8855 C16.0071,41.7165 16.3161,41.5125 16.6421,41.3415 C16.8051,41.2555 16.9121,41.1675 16.8041,40.9135 C14.0501,42.4605 11.5861,44.3805 9.2671,46.5095 C10.8661,43.7195 12.6271,41.0565 15.1191,38.8275 C13.9291,38.5795 13.7181,37.6205 13.4371,36.7465 C12.7581,34.6265 12.6191,32.4695 13.0681,30.2795 C13.1301,29.9745 13.2581,29.7565 13.5131,29.5785 C14.2831,29.0445 15.1091,28.6155 15.9891,28.3075 C16.4251,28.1545 16.6351,27.8955 16.8011,27.4735 C18.3451,23.5415 20.7321,20.2415 24.1841,17.7535 C31.4471,12.5185 41.4021,13.1715 47.9431,19.3045 C50.4491,21.6545 52.2621,24.4585 53.4891,27.6535 C53.6021,27.9485 53.7501,28.1215 54.0521,28.2305 C54.7471,28.4785 55.3911,28.8445 56.0591,29.1545 C56.9071,29.5485 57.2531,30.2025 57.2901,31.0885 C57.2961,31.2205 57.2371,31.3815 57.3831,31.4875 L57.3831,34.3825 C57.2911,35.5265 57.0001,36.6185 56.5721,37.6825 C56.3351,38.2735 55.9701,38.6985 55.3511,38.8865 C55.1821,38.9385 55.0261,39.0305 54.8571,39.0795 C54.4951,39.1865 54.3041,39.4255 54.2151,39.7875 C54.1481,40.0625 54.1131,40.3585 53.8711,40.6085 C54.1691,40.7265 54.4211,40.8915 54.6831,41.0365 C55.3111,41.3835 55.5641,41.9185 55.5881,42.6235 C55.6161,43.4045 55.4921,44.1645 55.3661,44.9245 C55.1791,46.0515 54.9221,47.1645 54.5511,48.2475 C54.2411,49.1505 53.9331,49.3655 52.9931,49.3725 C52.5431,49.3745 52.0931,49.3735 51.6421,49.3725 C51.4121,49.3725 51.2301,49.4375 51.1541,49.6775 C50.9191,50.4085 50.6091,51.1135 50.3041,51.8795 C51.0671,51.6455 51.6941,51.2465 52.3751,50.9725 C52.7921,50.8055 53.1991,50.6105 53.6181,50.4445 C53.7611,50.3875 53.9351,50.2725 54.0671,50.4095 C54.2001,50.5475 54.0821,50.7185 54.0111,50.8535 C53.6661,51.5075 53.3321,52.1685 52.9751,52.8155 C52.3621,53.9285 51.7841,55.0605 51.2191,56.1965 C50.5321,57.5755 49.4701,58.4285 48.0031,58.8155 C47.4271,58.9665 46.8511,59.1175 46.2711,59.2465 C44.6511,59.6075 43.0931,60.1015 41.6021,60.8715 C39.8541,61.7755 37.9531,62.1945 35.9651,62.1265 C35.5431,62.1095 35.1191,62.1645 34.6991,62.0945" id="Fill-6" fill="#3B4046"></path>
                <path d="M36.0599,62.0975 C36.0599,62.1235 36.0579,62.1505 36.0549,62.1765 L34.7039,62.1765 C34.7049,62.1495 34.7029,62.1215 34.6989,62.0945 L36.0599,62.0975 Z" id="Fill-7" fill="#CECFD0"></path>
                <path d="M54.5726,37.9441 C54.7206,37.3691 54.8316,36.8521 54.9916,36.3511 C55.0816,36.0711 54.9886,35.9881 54.7386,35.9361 C53.9846,35.7811 53.2336,35.6101 52.4796,35.4541 C52.3656,35.4301 52.2566,35.4241 52.1996,35.2951 C52.9096,35.0701 53.6386,34.8811 54.3186,34.2931 C52.6316,34.7131 51.0276,34.6991 49.4246,34.6321 C47.1296,34.5361 44.8486,34.2541 42.5606,34.0581 C38.9886,33.7521 35.4136,33.6251 31.8276,33.7691 C28.6156,33.8991 25.4266,34.2861 22.2246,34.5261 C20.0236,34.6911 17.9326,34.8341 15.6726,34.3091 C16.3906,34.9531 17.2366,35.1261 18.1496,35.4071 C17.3056,35.5931 16.5596,35.7801 15.8046,35.9171 C15.4536,35.9801 15.4146,36.1271 15.5036,36.4271 C15.6556,36.9451 15.7816,37.4701 15.9346,38.0541 C15.2716,37.8651 14.8416,37.5921 14.6146,36.9481 C13.9056,34.9261 13.6716,32.8621 13.8756,30.7381 C13.9056,30.4221 14.0556,30.2151 14.3086,30.0341 C15.8256,28.9531 17.5306,28.2471 19.2396,27.5501 C19.6096,27.4001 19.9856,27.2651 20.3486,27.0891 C19.4416,27.1861 18.5726,27.4471 17.6016,27.7201 C18.9006,24.3881 20.8556,21.6151 23.5656,19.3801 C26.2796,17.1391 29.3766,15.7301 32.8716,15.2951 C42.1786,14.1351 49.8556,20.3131 52.5706,27.6851 C51.6366,27.4811 50.7596,27.1621 49.8316,27.0801 C51.0786,27.5911 52.3326,28.0771 53.5426,28.6661 C54.3956,29.0801 55.2256,29.5331 55.9876,30.1031 C56.1576,30.2321 56.2906,30.3581 56.3176,30.5991 C56.5666,32.7921 56.3416,34.9251 55.5646,36.9941 C55.3146,37.6571 55.3016,37.6521 54.5726,37.9441" id="Fill-8" fill="#F5EEBB"></path>
                <path d="M51.7215,52.5818 C51.1105,53.7838 50.5625,54.8728 50.0045,55.9568 C49.5655,56.8088 48.8445,57.3348 47.9425,57.5778 C45.8685,58.1358 43.7905,58.6808 41.6835,59.1028 C40.5265,59.3348 39.5215,58.9808 38.6755,58.1878 C37.7735,57.3428 36.9775,56.3948 36.1315,55.3988 C35.8755,56.0058 35.5865,56.5538 35.4095,57.1368 C34.8965,58.8158 33.6735,59.5458 32.0405,59.8018 C30.3615,60.0628 28.6825,60.3328 26.9845,60.4268 C24.9665,60.5368 23.2855,59.8118 21.9505,58.2808 C21.0645,57.2658 20.3185,56.1528 19.6115,54.9798 C20.2025,55.2528 20.7985,55.5158 21.3835,55.8018 C21.6425,55.9288 21.8885,55.9658 22.1665,55.8798 C23.9125,55.3378 25.6595,54.7968 27.4105,54.2728 C27.6905,54.1888 27.8305,54.0038 27.9705,53.7868 C28.5845,52.8378 29.2875,51.9708 30.1885,51.2678 C30.5485,50.9858 30.9545,50.9028 31.3605,50.9228 C32.6585,50.9828 33.9505,51.1328 35.1835,51.5788 C35.4495,51.6748 35.6795,51.6328 35.9295,51.5578 C37.1585,51.1868 38.3895,50.8278 39.6175,50.4578 C39.9705,50.3518 40.2415,50.4138 40.5385,50.6618 C41.4635,51.4348 42.4215,52.1638 43.3635,52.9148 C43.8445,53.2988 44.4385,53.1988 44.9815,53.2758 C45.9805,53.4168 46.9895,53.5078 47.9975,53.5638 C48.9655,53.6188 49.9225,53.5398 50.7935,53.0308 C51.0535,52.8798 51.3355,52.7678 51.7215,52.5818" id="Fill-9" fill="#D64A5B"></path>
                <path d="M36.9335,38.5457 C36.0575,39.2747 35.1685,39.7957 34.2585,40.2577 C33.8315,40.4747 33.2945,40.4757 32.8065,40.5657 C32.4555,40.6297 32.2645,40.8137 32.1605,41.1737 C31.7505,42.5907 31.3025,43.9977 30.8815,45.4127 C30.8015,45.6817 30.6985,45.8417 30.3895,45.9077 C27.9585,46.4307 25.5305,46.9697 23.1065,47.5227 C22.8375,47.5837 22.6495,47.5247 22.4435,47.3777 C21.8035,46.9187 21.1595,46.4647 20.5075,46.0237 C20.3185,45.8957 20.2315,45.7477 20.2045,45.5197 C19.9975,43.7977 19.7725,42.0787 19.5695,40.3577 C19.5495,40.1887 19.4075,39.9357 19.7595,39.8677 C21.4915,39.5397 23.2355,39.2987 25.0635,39.0907 C24.4145,40.0177 23.8105,40.8787 23.1725,41.7887 C23.4225,41.7987 23.5445,41.6647 23.6755,41.5737 C25.0395,40.6337 26.4655,39.8017 27.9235,39.0147 C28.5645,38.6687 29.2355,38.7207 29.8925,38.6767 C32.2005,38.5207 34.5125,38.4987 36.9335,38.5457" id="Fill-10" fill="#D1BFA9"></path>
                <path d="M17.5287,41.0232 C17.5197,40.3852 18.2707,39.8742 18.7487,40.0862 C18.8867,40.1472 18.8627,40.2632 18.8777,40.3692 C19.0047,41.3352 19.1367,42.2992 19.2557,43.2662 C19.3647,44.1552 19.4537,45.0452 19.5637,45.9342 C19.5907,46.1482 19.7237,46.3092 19.9067,46.4362 C20.6977,46.9842 21.4927,47.5272 22.2647,48.1012 C22.5557,48.3172 22.8197,48.2622 23.1237,48.1932 C25.6807,47.6172 28.2367,47.0422 30.7997,46.4902 C31.1757,46.4092 31.3397,46.2152 31.4407,45.8772 C31.8267,44.5892 32.2847,43.3192 32.5967,42.0122 C32.7607,41.3252 33.1327,41.1192 33.7387,41.0442 C34.8277,40.9102 35.9037,40.8892 36.9887,41.1202 C37.3977,41.2062 37.5847,41.3742 37.6967,41.7632 C38.0947,43.1482 38.5347,44.5212 38.9397,45.9052 C39.0467,46.2722 39.1957,46.4302 39.6227,46.4692 C41.1807,46.6122 42.7327,46.8322 44.2877,47.0132 C45.3827,47.1412 46.4797,47.2572 47.5757,47.3722 C47.7557,47.3902 47.9207,47.3182 48.0697,47.2142 C48.6997,46.7742 49.3047,46.2862 49.9707,45.9082 C50.6737,45.5092 50.8537,44.9182 50.9347,44.1802 C51.0727,42.9132 51.2997,41.6552 51.4747,40.3912 C51.5157,40.0932 51.5817,39.9942 51.9297,40.0602 C52.9877,40.2632 52.9577,40.2342 52.7877,41.2732 C52.5497,42.7222 52.3647,44.1802 52.1737,45.6372 C52.1457,45.8452 52.0907,45.9872 51.9117,46.1112 C50.7107,46.9422 49.5237,47.7932 48.3207,48.6202 C47.9067,48.9052 47.4507,48.6482 47.0237,48.6172 C46.0367,48.5442 45.0567,48.3912 44.0727,48.2772 C42.5657,48.1012 41.0547,47.9502 39.5507,47.7482 C39.1537,47.6942 38.7557,47.7122 38.3577,47.6342 C38.0397,47.5732 37.9357,47.4342 37.8547,47.1642 C37.4207,45.7062 36.9677,44.2532 36.5337,42.7952 C36.4377,42.4722 36.3027,42.3182 35.9237,42.2602 C35.3547,42.1722 34.8107,42.2272 34.2537,42.2872 C33.9417,42.3202 33.9207,42.5572 33.8587,42.7602 C33.4227,44.1842 32.9957,45.6112 32.5657,47.0372 C32.4907,47.2862 32.4077,47.4692 32.0817,47.5402 C28.9097,48.2242 25.7437,48.9322 22.5787,49.6462 C22.3677,49.6932 22.2137,49.6712 22.0447,49.5512 C21.0137,48.8172 20.0117,48.0322 18.9317,47.3772 C18.3087,47.0002 18.1647,46.4942 18.1107,45.8752 C17.9787,44.3452 17.7487,42.8282 17.5467,41.3082 C17.5297,41.1812 17.5307,41.0512 17.5287,41.0232" id="Fill-11" fill="#777E79"></path>
                <path d="M36.3212,40.2478 C36.8472,40.1528 37.3762,40.0708 37.9002,39.9628 C39.1732,39.6988 40.4402,39.4008 41.6652,38.9628 C42.5162,38.6568 43.3562,38.8868 44.1902,38.9618 C46.2522,39.1488 48.3022,39.4428 50.3452,39.7808 C50.7622,39.8508 50.8692,39.9928 50.8042,40.4018 C50.5902,41.7488 50.4052,43.1008 50.2222,44.4518 C50.1782,44.7728 50.0592,45.0028 49.7732,45.1878 C49.1262,45.6078 48.5012,46.0598 47.8752,46.5118 C47.6792,46.6518 47.4952,46.6878 47.2522,46.6598 C44.8272,46.3798 42.4022,46.1128 39.9762,45.8518 C39.7142,45.8228 39.5922,45.7208 39.5152,45.4598 C39.0892,44.0138 38.6282,42.5758 38.2082,41.1278 C38.1132,40.8008 37.9432,40.6388 37.6292,40.5778 C37.1952,40.4938 36.7632,40.4018 36.3302,40.3128 C36.3272,40.2908 36.3242,40.2688 36.3212,40.2478" id="Fill-12" fill="#D1BFA9"></path>
                <path d="M50.1415,49.5291 C49.8585,50.4861 49.4185,51.3781 48.9955,52.2761 C48.8925,52.4921 48.7365,52.5181 48.5295,52.5151 C47.0805,52.4951 45.6505,52.2761 44.2135,52.1311 C44.0215,52.1121 43.9015,51.9721 43.7655,51.8661 C42.8695,51.1601 41.9645,50.4641 41.0895,49.7321 C40.6235,49.3421 40.1325,49.2511 39.5655,49.3981 C38.9955,49.5461 38.4215,49.6831 37.7745,49.8431 C38.0855,49.4691 38.3265,49.1371 38.3685,48.6361 C36.4295,50.0171 34.4585,50.4001 32.3555,49.0331 C32.3575,49.3831 32.5465,49.6091 32.6955,49.9061 C32.3005,49.9061 31.9375,49.9461 31.5875,49.8991 C30.4935,49.7511 29.6595,50.2171 28.9145,50.9461 C28.2795,51.5661 27.7155,52.2441 27.2255,52.9821 C27.0945,53.1811 26.9445,53.3141 26.7155,53.3831 C25.5635,53.7311 24.4135,54.0841 23.2665,54.4461 C23.0195,54.5241 22.8695,54.4951 22.7135,54.2591 C21.9215,53.0661 21.2065,51.8331 20.6645,50.5041 C20.8695,50.3481 21.0405,50.4921 21.1885,50.5921 C22.0685,51.1871 22.9855,51.1961 23.9935,50.9321 C26.3365,50.3201 28.6655,49.6581 30.9895,48.9751 C31.4135,48.8511 31.7225,48.5951 32.0015,48.2801 C32.8445,48.2201 33.1325,47.6791 33.3215,46.9271 C33.6295,45.7011 34.0575,44.5051 34.4065,43.2871 C34.4945,42.9831 34.6315,42.8551 34.9365,42.8771 C35.1125,42.8881 35.2905,42.8881 35.4665,42.8791 C35.7495,42.8641 35.8855,42.9751 35.9695,43.2631 C36.3805,44.6791 36.8485,46.0801 37.2325,47.5031 C37.3785,48.0431 37.6355,48.3011 38.1785,48.2951 C40.9395,49.4301 43.8815,49.8561 46.7705,50.4921 C47.5415,50.6611 48.2645,50.5691 48.9225,50.0931 C49.2075,49.8871 49.5225,49.7231 49.8205,49.5341 C49.9095,49.4771 50.0335,49.3241 50.1415,49.5291" id="Fill-13" fill="#EAD4BA"></path>
                <path d="M44.2113,38.0066 C45.4253,37.5026 46.5343,37.0246 47.4483,36.2826 C48.3303,35.5686 49.2143,35.8016 50.1283,35.9516 C51.2773,36.1416 52.4183,36.3936 53.5653,36.5996 C53.8623,36.6526 53.9463,36.7726 53.8683,37.0576 C53.6803,37.7356 53.4933,38.4136 53.3313,39.0996 C53.2663,39.3776 53.1283,39.4196 52.8803,39.3646 C50.6493,38.8686 48.3853,38.5666 46.1243,38.2536 C45.5323,38.1726 44.9293,38.1686 44.2113,38.0066" id="Fill-14" fill="#777E79"></path>
                <path d="M13.7362,41.6736 C15.8742,39.2256 18.4102,37.2776 21.1492,35.5746 C21.4722,35.3746 21.8402,35.4366 22.1822,35.4066 C24.3532,35.2256 26.5272,35.0776 28.7162,35.07958 C23.2972,36.3186 18.3542,38.6246 13.7362,41.6736" id="Fill-15" fill="#D64A5B"></path>
                <path d="M46.9598,35.4119 C44.2078,37.3259 41.1928,38.4189 37.9678,39.0079 C38.5688,38.3579 39.2138,37.7679 39.7868,37.1039 C40.2918,36.5189 40.7718,35.9179 41.2278,35.2969 C41.3398,35.1429 41.4428,35.0379 41.6528,35.0479 C42.7438,35.0999 43.8388,35.1009 44.9248,35.1989 C45.5788,35.2589 46.2458,35.1749 46.9598,35.4119" id="Fill-16" fill="#D64A5B"></path>
                <path d="M50.1415,49.5291 C49.7825,49.6121 49.4955,49.8541 49.2305,50.0641 C48.3355,50.7701 47.3615,50.7861 46.3205,50.5621 C44.0435,50.0741 41.7765,49.5481 39.5175,48.9771 C39.0075,48.8481 38.5535,48.6641 38.1785,48.2951 C39.7065,48.4611 41.2365,48.6221 42.7645,48.7961 C44.5315,48.9981 46.2975,49.2101 48.0635,49.4221 C48.3255,49.4531 48.5265,49.3371 48.7265,49.1951 C49.3405,48.7621 49.9565,48.3341 50.6575,47.8441 C50.5365,48.4961 50.3565,49.0171 50.1415,49.5291" id="Fill-17" fill="#D1BFA9"></path>
                <path d="M40.0604,35.2918 C39.5174,36.0388 38.9344,36.6758 38.3264,37.2938 C38.0724,37.5538 37.8174,37.6728 37.4454,37.6688 C35.5814,37.6508 33.7174,37.6588 31.8534,37.6658 C31.5714,37.6668 31.2904,37.7078 30.9734,37.7318 C31.9064,36.9448 38.4544,35.1908 40.0604,35.2918" id="Fill-18" fill="#777E79"></path>
                <path d="M32.0013,48.2801 C31.9463,48.7421 31.5963,48.9251 31.2233,49.0361 C28.5443,49.8381 25.8663,50.6401 23.1353,51.2501 C22.3613,51.4231 21.7363,51.0191 21.0953,50.6901 C20.9563,50.6191 20.8463,50.4781 20.6653,50.5041 C20.4443,50.0621 20.2693,49.6031 20.0993,49.0211 C20.6993,49.4391 21.2243,49.7881 21.7293,50.1611 C22.0083,50.3681 22.2713,50.4211 22.6223,50.3411 C25.6503,49.6491 28.6833,48.9801 31.7153,48.3061 C31.8083,48.2861 31.9053,48.2881 32.0013,48.2801" id="Fill-19" fill="#D1BFA9"></path>
                <path d="M51.6932,47.1424 C53.0002,46.5794 52.8602,45.3384 53.0352,44.2504 C53.1562,43.4924 53.2542,42.7294 53.3492,41.9674 C53.3902,41.6364 53.4812,41.6074 53.7972,41.7494 C54.3702,42.0074 54.5522,42.4054 54.5122,43.0064 C54.4312,44.2084 54.2572,45.3904 53.9002,46.5424 C53.4472,47.1934 52.8302,47.5414 52.0322,47.5294 C51.8112,47.5254 51.5432,47.5004 51.6932,47.1424" id="Fill-20" fill="#EAD4BA"></path>
                <path d="M16.4686,47.2176 C16.0646,45.9936 15.8086,44.7416 15.7736,43.4506 C15.7606,42.9896 16.3996,42.3356 16.8676,42.2956 C17.0936,42.2766 17.0286,42.4496 17.0416,42.5576 C17.2066,43.8626 17.3786,45.1656 17.5196,46.4736 C17.5756,46.9926 17.6976,47.4446 18.1996,47.7026 C18.3006,48.0236 18.0396,48.0036 17.8756,48.0096 C17.2536,48.0296 16.7566,47.8026 16.4686,47.2176" id="Fill-21" fill="#EAD4BA"></path>
                <path d="M27.2474,38.2879 C28.4014,37.1959 29.7004,36.3289 31.0944,35.5799 C32.0714,35.0539 33.0624,34.7799 34.1734,34.8639 C34.8604,34.9159 35.5534,34.8739 36.2574,34.9129 C33.1334,35.7189 30.1354,36.8479 27.2474,38.2879" id="Fill-22" fill="#D54A5B"></path>
                <path d="M33.5355,60.5213 C34.3255,60.1943 35.0595,59.7923 35.6085,59.1043 C35.8135,58.8463 37.7195,58.7743 37.9645,58.9953 C38.3745,59.3633 38.8295,59.6583 39.3305,59.8843 C39.3835,60.2263 39.0885,60.2063 38.9075,60.2543 C37.6835,60.5783 36.4475,60.8183 35.1715,60.7803 C34.7725,60.7683 34.3725,60.7943 33.9735,60.7683 C33.8005,60.7573 33.5705,60.7983 33.5355,60.5213" id="Fill-23" fill="#EAD4BA"></path>
                <path d="M28.1371,36.2449 C27.4791,36.8089 26.8191,37.3419 26.2011,37.9239 C26.0671,38.0499 25.9051,38.1339 25.7271,38.1329 C24.9541,38.1259 24.2011,38.2979 23.4391,38.3789 C22.6821,38.4589 21.9311,38.5929 21.1661,38.6639 C23.3981,37.5899 25.7151,36.7619 28.1371,36.2449" id="Fill-24" fill="#777E79"></path>
                <path d="M33.5355,60.5213 C33.6095,60.6283 33.7215,60.6283 33.8355,60.6323 C35.6155,60.7023 37.3735,60.5813 39.0905,60.0633 C39.2005,60.0303 39.3155,60.0333 39.3305,59.8843 C39.7125,59.9993 40.0835,60.1553 40.4925,60.2213 C37.7905,61.2823 35.0335,61.6763 32.0525,60.9163 C32.6285,60.7623 33.0825,60.6413 33.5355,60.5213" id="Fill-25" fill="#D1BFA9"></path>
                <path d="M16.4686,47.2176 C16.8596,47.5716 17.2436,47.9366 17.8306,47.8936 C17.9806,47.8826 18.1676,47.9436 18.1996,47.7026 C18.2406,47.7246 18.2896,47.7386 18.3226,47.7676 C18.6176,48.0296 19.2146,48.1686 19.0426,48.6486 C18.9236,48.9796 18.3666,48.8906 18.0026,48.9346 C17.0866,49.0436 17.0516,49.0076 16.7336,48.1286 C16.6266,47.8316 16.4896,47.5406 16.4686,47.2176" id="Fill-26" fill="#D1BFA9"></path>
                <path d="M51.6932,47.1424 C51.6732,47.4024 51.8402,47.4044 52.0352,47.4154 C52.8192,47.4644 53.3342,46.9514 53.9002,46.5424 C53.8722,46.6814 53.8572,46.8254 53.8142,46.9584 C53.3032,48.5384 53.4712,48.2834 51.9372,48.1634 C51.6092,48.1374 51.3792,48.0284 51.5622,47.6304 C51.6332,47.4764 51.5332,47.2744 51.6932,47.1424" id="Fill-27" fill="#D1BFA9"></path>
                <path d="M18.0165,36.4725 C17.6895,36.7215 17.3655,36.9745 17.0355,37.2185 C16.9505,37.2825 16.8375,37.4015 16.7425,37.3275 C16.6005,37.2185 16.6175,37.0145 16.5805,36.8495 C16.5525,36.7215 16.6545,36.6445 16.7745,36.6205 C17.1775,36.5425 17.5815,36.4715 17.9865,36.3975 C17.9955,36.4215 18.0065,36.4475 18.0165,36.4725" id="Fill-28" fill="#747B77"></path>
                <path d="M37.2079,58.2781 C36.8159,58.3831 36.4499,58.4251 36.0459,58.3951 C36.1409,58.0451 36.2799,57.7531 36.4529,57.4451 C36.7469,57.7021 36.9939,57.9571 37.2079,58.2781" id="Fill-29" fill="#E5D0B7"></path>
                <path d="M46.6561,20.6863 C47.6451,22.4383 48.1051,24.3443 48.3121,26.3263 C48.3371,26.5663 48.3931,26.8093 48.3721,27.0443 C48.3261,27.5393 48.4931,27.8243 49.0131,27.8793 C49.2901,27.9093 49.3411,28.1363 49.3761,28.3743 C49.5731,29.6993 49.6441,31.0303 49.5421,32.3643 C49.5191,32.6603 49.6251,32.7523 49.8721,32.8253 C50.2521,32.9353 50.6321,33.0543 50.9681,33.2913 C45.6991,32.1983 40.3601,32.1443 35.0191,32.1483 C29.6961,32.1533 24.3751,32.2073 19.1131,33.2633 C19.5471,33.1053 19.9751,32.9273 20.4171,32.7943 C20.6551,32.7233 20.7061,32.6163 20.6771,32.3843 C20.5181,31.0813 20.6721,29.7883 20.8131,28.4933 C20.8541,28.1163 20.9921,27.8533 21.4091,27.8133 C21.7371,27.7823 21.8301,27.6063 21.8431,27.2683 C21.9291,25.0623 22.3831,22.9403 23.3991,20.9603 C23.4801,20.8043 23.5681,20.6513 23.6581,20.4993 C23.6781,20.4653 23.7211,20.4453 23.8751,20.3193 C23.2961,21.5463 22.8961,22.6893 22.6621,23.8813 C22.4291,25.0673 22.2911,26.2613 22.3681,27.5323 C23.2111,27.2973 24.0361,27.0703 24.8601,26.8373 C25.3541,26.6993 25.8491,26.5613 26.3381,26.4053 C26.6771,26.2963 26.9981,26.2033 27.2781,26.6053 C27.2951,23.5763 27.7421,20.6913 29.1951,18.0293 L28.9841,19.0283 C29.0441,19.3223 28.9611,19.6033 28.8991,19.8843 C28.4781,21.8223 28.2521,23.7803 28.2791,25.7653 C28.2841,26.2013 28.3401,26.6293 28.3781,27.0613 C28.3981,27.2843 28.4801,27.4683 28.6631,27.5943 C28.9561,27.7943 29.0511,28.0893 29.0941,28.4193 C29.1871,29.1373 29.3121,29.8463 29.5691,30.5303 C29.7131,30.9153 29.9401,31.0863 30.3641,31.0613 C32.6901,30.9253 35.0191,30.9593 37.3481,30.9573 C38.2161,30.9573 39.0771,31.0793 39.9461,31.0783 C40.2971,31.0773 40.4821,30.9573 40.5981,30.6483 C40.8711,29.9203 41.0361,29.1693 41.1201,28.4003 C41.1501,28.1343 41.2151,27.8843 41.4291,27.7173 C41.8161,27.4153 41.8781,26.9973 41.8931,26.5533 C41.9641,24.4263 41.8291,22.3163 41.3891,20.2293 C41.3201,19.8993 41.2531,19.5683 41.2741,19.2273 C41.2611,18.8653 41.1071,18.5343 41.0851,18.1733 C42.4971,20.7733 42.8831,23.6043 42.9171,26.5813 C43.2431,26.2503 43.5721,26.3203 43.9371,26.4293 C45.1181,26.7833 46.3131,27.0883 47.4931,27.4463 C47.8401,27.5513 47.9001,27.4723 47.8931,27.1433 C47.8501,24.9393 47.4551,22.8113 46.5651,20.7853 C46.5191,20.6823 46.5721,20.6693 46.6561,20.6863" id="Fill-30" fill="#3B4046"></path>
                <path d="M32.6844,27.243 C33.6284,27.236 33.6284,27.236 33.6284,26.285 C33.6284,24.903 33.6244,23.52 33.6324,22.138 C33.6334,21.882 33.6234,21.722 33.2844,21.727 C32.9544,21.733 32.9794,21.908 32.9764,22.128 C32.9684,22.911 32.9644,22.911 32.2014,22.911 C31.5894,22.911 30.9784,22.902 30.3684,22.915 C30.1374,22.92 30.0644,22.845 30.0664,22.614 C30.0764,21.456 30.0764,20.299 30.0664,19.141 C30.0644,18.9 30.1214,18.803 30.3854,18.804 C33.5844,18.811 36.7844,18.81 39.9834,18.805 C40.2274,18.804 40.3214,18.871 40.3184,19.129 C40.3074,20.286 40.3064,21.444 40.3194,22.601 C40.3224,22.871 40.2124,22.919 39.9774,22.915 C39.2384,22.904 38.4984,22.901 37.7594,22.917 C37.4964,22.922 37.3674,22.859 37.4024,22.574 C37.4204,22.431 37.4074,22.285 37.4054,22.14 C37.4014,21.942 37.4734,21.73 37.1204,21.728 C36.7934,21.726 36.7604,21.863 36.7624,22.131 C36.7714,23.69 36.7804,25.25 36.7564,26.809 C36.7504,27.192 36.8844,27.297 37.2244,27.241 C37.6484,27.171 37.8144,27.314 37.7854,27.774 C37.7454,28.398 37.7884,29.027 37.7954,29.653 C38.0344,30.205 37.9024,30.463 37.3224,30.475 C35.9284,30.504 34.5344,30.498 33.1404,30.477 C32.6814,30.471 32.4824,30.29 32.5524,29.913 C32.6974,29.131 32.5914,28.347 32.6304,27.567 C32.6354,27.457 32.6044,27.341 32.6844,27.243" id="Fill-31" fill="#3B4046"></path>
                <path d="M32.6844,27.243 C32.6774,28.172 32.6804,29.1 32.6584,30.028 C32.6514,30.318 32.7714,30.37 33.0264,30.369 C34.4834,30.359 35.9404,30.351 37.3974,30.37 C38.0324,30.379 37.6634,29.89 37.7954,29.653 C38.9134,29.72 39.3094,29.507 39.8434,28.259 C40.3904,26.98 40.5894,25.619 40.7824,24.257 C41.0074,22.674 41.1164,21.08 41.1694,19.482 C41.1734,19.384 41.1844,19.29 41.2734,19.227 C41.6354,20.364 41.7864,21.543 41.9154,22.721 C42.0784,24.191 42.1094,25.668 41.9724,27.146 C41.9474,27.417 41.8554,27.601 41.6244,27.725 C41.3384,27.879 41.2674,28.121 41.2424,28.437 C41.1724,29.305 40.9874,30.151 40.6184,30.947 C40.5344,31.127 40.4724,31.261 40.2054,31.243 C36.8514,31.021 33.4944,31.033 30.1394,31.225 C29.7984,31.245 29.6604,31.128 29.5404,30.846 C29.2044,30.054 29.0344,29.222 28.9594,28.373 C28.9344,28.09 28.8634,27.877 28.6084,27.744 C28.3204,27.594 28.2494,27.354 28.2234,27.038 C28.0004,24.385 28.2994,21.78 28.9124,19.202 C28.9264,19.142 28.9594,19.087 28.9844,19.028 C29.0564,19.075 29.1014,19.14 29.1014,19.225 C29.1004,20.264 29.1994,21.297 29.3024,22.328 C29.5104,24.405 29.7294,26.482 30.5514,28.436 C30.9134,29.298 31.3974,29.652 32.1434,29.661 C32.4734,29.664 32.6014,29.569 32.5844,29.226 C32.5594,28.715 32.5744,28.2 32.5804,27.687 C32.5834,27.535 32.5214,27.361 32.6844,27.243" id="Fill-32" fill="#F0E0AD"></path>
                <path d="M46.6561,20.6863 C46.6261,20.7193 46.5951,20.7513 46.5651,20.7853 C46.4311,20.5433 46.2981,20.3023 46.1641,20.0603 C46.4171,20.2163 46.5641,20.4333 46.6561,20.6863" id="Fill-33" fill="#6B6D63"></path>
                <path d="M24.5546,45.2176 C24.7506,44.8046 25.0346,44.6256 25.3536,44.5116 C25.6026,44.4216 25.6286,44.3086 25.5836,44.0496 C25.4126,43.0716 25.5306,42.1306 26.1266,41.2976 C26.9736,40.1136 28.2166,40.1956 28.8606,41.4946 C29.2616,42.3046 29.3806,43.1736 29.2136,44.0696 C29.1126,44.6166 28.8316,44.8486 28.2676,44.9216 C27.5156,45.0216 26.7626,44.9686 26.0096,44.9786 C25.5446,44.9846 25.0806,44.9826 24.5546,45.2176" id="Fill-34" fill="#3B4046"></path>
                <path d="M45.7215,44.5027 C44.8465,44.2917 44.0505,44.6567 43.2255,44.6637 C43.0975,44.6647 42.9705,44.6887 42.8425,44.6897 C41.2905,44.7107 40.9195,44.3287 40.9475,42.7607 C40.9575,42.1267 41.0585,41.5157 41.3645,40.9527 C41.9365,39.8987 43.0105,39.7617 43.8055,40.6647 C44.5095,41.4637 44.7605,42.4377 44.6955,43.4777 C44.6755,43.8037 44.6405,43.9657 45.0415,43.9857 C45.3225,43.9997 45.5925,44.1407 45.7215,44.5027" id="Fill-35" fill="#3B4046"></path>
                <path d="M48.8866,31.5838 C48.9166,32.5238 48.9186,32.5198 48.0476,32.3098 C46.6966,31.9818 45.3286,31.7388 43.9476,31.5948 C43.5086,31.5488 43.2816,31.4678 43.4846,30.9828 C43.5456,30.8378 43.5646,30.6748 43.6026,30.5198 C43.7736,30.0698 43.8796,29.6028 44.0126,29.1428 C44.1796,28.5628 44.5836,28.2338 45.1806,28.2788 C46.1436,28.3518 47.0736,28.5998 47.9676,28.9658 C48.3126,29.1068 48.5116,29.3818 48.6276,29.7418 C48.8216,30.3438 48.7686,30.9748 48.8866,31.5838" id="Fill-36" fill="#F5EEBB"></path>
                <path d="M26.5799,30.3279 C26.8569,31.5109 26.8579,31.5149 25.7219,31.6609 C24.3859,31.8319 23.0659,32.0769 21.7609,32.4089 C21.6379,32.4399 21.4919,32.5519 21.3749,32.3829 C21.3029,31.4289 21.4249,30.4969 21.6899,29.5819 C21.7819,29.2659 22.0219,29.0759 22.3139,28.9529 C23.1639,28.5949 24.0569,28.3879 24.9669,28.2799 C25.6489,28.1999 26.0509,28.5009 26.2639,29.1709 C26.3849,29.5519 26.4319,29.9539 26.5799,30.3279" id="Fill-37" fill="#F5EEBB"></path>
                <path d="M26.5799,30.3279 C26.3569,30.0419 26.2769,29.7019 26.1909,29.3579 C25.9839,28.5299 25.5219,28.2539 24.6929,28.4379 C24.1639,28.5569 23.6399,28.7009 23.1069,28.7959 C22.1259,28.9699 21.6549,29.5609 21.5909,30.5299 C21.5499,31.1499 21.3499,31.7529 21.3749,32.3829 C21.1839,31.1459 21.3229,29.9209 21.4719,28.6929 C21.4969,28.4819 21.6389,28.4469 21.7969,28.4019 C23.2159,27.9979 24.6339,27.5919 26.0529,27.1869 C26.2439,27.1329 26.4379,27.0569 26.4159,27.3999 C26.3539,28.3819 26.4849,29.3539 26.5799,30.3279" id="Fill-38" fill="#F0DFAC"></path>
                <path d="M48.8866,31.5838 C48.7616,30.9988 48.6256,30.4158 48.5156,29.8278 C48.4316,29.3808 48.1386,29.1378 47.7486,28.9988 C46.9976,28.7308 46.2196,28.5528 45.4376,28.4108 C44.8836,28.3118 44.2826,28.4338 44.0986,29.2958 C44.0066,29.7308 43.9116,30.1698 43.6026,30.5198 C43.7426,29.4858 43.8276,28.4498 43.7846,27.4068 C43.7746,27.1528 43.8686,27.1028 44.0956,27.1678 C45.5556,27.5868 47.0176,28.0038 48.4806,28.4118 C48.6986,28.4728 48.7436,28.6228 48.7646,28.8038 C48.8726,29.7268 48.9556,30.6518 48.8866,31.5838" id="Fill-39" fill="#F0DFAC"></path>
                <path d="M27.0936,27.4012 C27.4836,27.7142 27.8026,27.9782 28.1286,28.2312 C28.2536,28.3292 28.3116,28.4482 28.3206,28.5992 C28.3756,29.5182 28.6276,30.3892 28.9686,31.2342 C28.9356,31.2602 28.9156,31.2912 28.8906,31.2962 C27.4946,31.5252 27.4896,31.5262 27.2536,30.1062 C27.1806,29.6662 27.1266,29.2192 27.0986,28.7742 C27.0726,28.3472 27.0936,27.9182 27.0936,27.4012" id="Fill-40" fill="#EDDBA8"></path>
                <path d="M43.098,27.4139 C43.164,28.7599 43.058,30.0059 42.736,31.2329 C42.696,31.3879 42.645,31.4399 42.48,31.4179 C42.163,31.3739 41.844,31.3519 41.524,31.3309 C41.298,31.3159 41.215,31.2599 41.321,31.0099 C41.635,30.2679 41.818,29.4909 41.884,28.6879 C41.904,28.4519 41.992,28.2789 42.199,28.1379 C42.488,27.9389 42.748,27.6989 43.098,27.4139" id="Fill-41" fill="#EDDBA8"></path>
                <path d="M35.2269,19.6287 C36.4969,19.6287 37.7659,19.6367 39.0359,19.6227 C39.3469,19.6187 39.4629,19.7097 39.4509,20.0307 C39.4279,20.5757 39.4299,21.1237 39.4499,21.6697 C39.4609,21.9757 39.3379,22.0737 39.0549,22.0427 C38.9599,22.0317 38.8599,22.0277 38.7669,22.0437 C38.3549,22.1097 38.2539,21.9287 38.2649,21.5357 C38.2849,20.7837 38.3809,20.8777 37.6089,20.8697 C37.1429,20.8657 36.6769,20.8787 36.2109,20.8657 C35.9679,20.8587 35.8689,20.9367 35.8699,21.1937 C35.8769,23.3957 35.8789,25.5967 35.8689,27.7977 C35.8669,28.1667 36.1019,28.1387 36.3169,28.1057 C36.8179,28.0277 36.9899,28.2327 36.9149,28.7147 C36.8909,28.8717 36.9049,29.0357 36.9119,29.1957 C36.9229,29.4367 36.8259,29.5487 36.5749,29.5467 C35.6589,29.5407 34.7429,29.5417 33.8269,29.5467 C33.6279,29.5477 33.5269,29.4807 33.5329,29.2697 C33.5399,28.9957 33.5489,28.7217 33.5299,28.4497 C33.5089,28.1577 33.6539,28.0697 33.9049,28.1137 C34.4339,28.2087 34.5269,27.9607 34.5209,27.4817 C34.4959,25.4407 34.4979,23.3997 34.5199,21.3587 C34.5249,20.9467 34.3979,20.8347 34.0049,20.8607 C33.5089,20.8947 33.0089,20.8877 32.5119,20.8627 C32.1899,20.8477 32.0709,20.9607 32.1069,21.2747 C32.1229,21.4167 32.0999,21.5647 32.1109,21.7077 C32.1319,21.9557 32.0299,22.0357 31.7799,22.0477 C30.9389,22.0847 30.9399,22.0947 30.9399,21.2567 C30.9399,20.8387 30.9559,20.4207 30.9339,20.0037 C30.9179,19.7017 31.0339,19.6207 31.3229,19.6227 C32.6239,19.6357 33.9259,19.6287 35.2269,19.6287" id="Fill-42" fill="#D64A5B"></path>
                <path d="M27.787,41.5086 C28.036,41.5216 28.213,41.7396 28.203,42.0636 C28.191,42.3926 27.976,42.5936 27.634,42.5806 C27.289,42.5676 27.094,42.3386 27.108,42.0186 C27.121,41.6976 27.325,41.4936 27.787,41.5086" id="Fill-43" fill="#ECF4F7"></path>
                <path d="M43.0248,41.6199 C43.0298,41.9659 42.8448,42.1699 42.5138,42.1849 C42.1778,42.2009 41.9728,41.9939 41.9528,41.6609 C41.9308,41.3109 42.1568,41.1069 42.4728,41.0969 C42.7838,41.0859 43.0248,41.2489 43.0248,41.6199" id="Fill-44" fill="#EDF5F8"></path>
            </g>
        </g>
    </g>
</svg>