<?xml version="1.0" encoding="UTF-8"?>
<svg width="74px" height="74px" viewBox="0 0 74 74" version="1.1" xmlns="http://www.w3.org/2000/svg" xmlns:xlink="http://www.w3.org/1999/xlink">
    <!-- Generator: Sketch 53 (72520) - https://sketchapp.com -->
    <title>Group 8</title>
    <desc>Created with Sketch.</desc>
    <g id="Page-1" stroke="none" stroke-width="1" fill="none" fill-rule="evenodd">
        <g id="Logos-with-Names" transform="translate(-468.000000, -522.000000)">
            <g id="Group-8" transform="translate(468.000000, 522.000000)">
                <path d="M73.1681,36.8345 C73.1681,56.9005 56.9011,73.1685 36.8341,73.1685 C16.7671,73.1685 0.5001,56.9005 0.5001,36.8345 C0.5001,16.7675 16.7671,0.4995 36.8341,0.4995 C56.9011,0.4995 73.1681,16.7675 73.1681,36.8345" id="Fill-1" fill="#FFFFFF"></path>
                <path d="M73.1681,36.8345 C73.1681,56.9005 56.9011,73.1685 36.8341,73.1685 C16.7671,73.1685 0.5001,56.9005 0.5001,36.8345 C0.5001,16.7675 16.7671,0.4995 36.8341,0.4995 C56.9011,0.4995 73.1681,16.7675 73.1681,36.8345 Z" id="Stroke-3" stroke="#040201"></path>
                <path d="M50.1422,35.9976 C50.1422,45.0606 45.3502,48.6506 37.7842,48.6506 C30.2182,48.6506 25.3862,45.0416 25.3862,36.1956 L25.3862,20.3296 L33.3722,20.3296 L33.3722,35.9976 C33.3722,40.0626 34.7092,42.4036 37.6642,42.4036 C40.6192,42.4036 42.2562,40.1426 42.2562,36.1956 L42.2562,20.3296 L50.1422,20.3296 L50.1422,35.9976 Z M54.3142,12.5746 L21.2732,12.5746 C18.1142,12.5856 15.5552,15.1276 15.5442,18.2666 L15.5442,49.7616 C15.6182,52.8706 18.1432,55.3706 21.2732,55.4346 L33.6442,55.4346 C31.4642,59.2196 30.2092,61.3846 29.8792,61.9296 C29.3852,62.7456 30.5822,63.6376 31.2962,63.1416 C31.7722,62.8096 36.0852,60.2406 44.2362,55.4346 L54.3142,55.4346 C57.4452,55.3706 59.9702,52.8706 60.0442,49.7616 L60.0442,18.2666 C60.0722,16.7486 59.4772,15.2846 58.3962,14.2116 C57.3162,13.1386 55.8432,12.5476 54.3142,12.5746 L54.3142,12.5746 Z" id="Fill-6" fill="#09ACD5"></path>
                <path d="M50.1422,35.9976 C50.1422,45.0606 45.3502,48.6506 37.7842,48.6506 C30.2182,48.6506 25.3862,45.0416 25.3862,36.1956 L25.3862,20.3296 L33.3722,20.3296 L33.3722,35.9976 C33.3722,40.0626 34.7092,42.4036 37.6642,42.4036 C40.6192,42.4036 42.2562,40.1426 42.2562,36.1956 L42.2562,20.3296 L50.1422,20.3296 L50.1422,35.9976 Z M54.3142,12.5746 L21.2732,12.5746 C18.1142,12.5856 15.5552,15.1276 15.5442,18.2666 L15.5442,49.7616 C15.6182,52.8706 18.1432,55.3706 21.2732,55.4346 L33.6442,55.4346 C31.4642,59.2196 30.2092,61.3846 29.8792,61.9296 C29.3852,62.7456 30.5822,63.6376 31.2962,63.1416 C31.7722,62.8096 36.0852,60.2406 44.2362,55.4346 L54.3142,55.4346 C57.4452,55.3706 59.9702,52.8706 60.0442,49.7616 L60.0442,18.2666 C60.0722,16.7486 59.4772,15.2846 58.3962,14.2116 C57.3162,13.1386 55.8432,12.5476 54.3142,12.5746 L54.3142,12.5746 Z" id="Fill-7" fill="#09ACD5"></path>
            </g>
        </g>
    </g>
</svg>