<?xml version="1.0" encoding="UTF-8"?>
<svg width="73px" height="74px" viewBox="0 0 73 74" version="1.1" xmlns="http://www.w3.org/2000/svg" xmlns:xlink="http://www.w3.org/1999/xlink">
    <!-- Generator: Sketch 53 (72520) - https://sketchapp.com -->
    <title>Group 24</title>
    <desc>Created with Sketch.</desc>
    <g id="Page-1" stroke="none" stroke-width="1" fill="none" fill-rule="evenodd">
        <g id="Logos-with-Names" transform="translate(-468.000000, -603.000000)">
            <g id="Group-24" transform="translate(468.000000, 603.500000)">
                <path d="M72.3711,36.4351 C72.3711,56.2821 56.2821,72.3711 36.4351,72.3711 C16.5891,72.3711 0.5001,56.2821 0.5001,36.4351 C0.5001,16.5891 16.5891,0.4991 36.4351,0.4991 C56.2821,0.4991 72.3711,16.5891 72.3711,36.4351" id="Fill-1" fill="#FFFFFF"></path>
                <path d="M72.3711,36.4351 C72.3711,56.2821 56.2821,72.3711 36.4351,72.3711 C16.5891,72.3711 0.5001,56.2821 0.5001,36.4351 C0.5001,16.5891 16.5891,0.4991 36.4351,0.4991 C56.2821,0.4991 72.3711,16.5891 72.3711,36.4351 Z" id="Stroke-3" stroke="#040201"></path>
                <path d="M6.5352,40.2134 C6.5642,40.6014 6.5482,40.9894 6.6372,41.3774 C6.9092,42.5694 7.6392,43.1144 8.8792,43.0214 C9.8962,42.9444 10.6292,42.1714 10.6502,41.0424 C10.6882,39.0124 10.6772,36.9814 10.6852,34.9494 C10.6882,34.1214 10.6862,34.1204 11.4992,34.1204 C12.0262,34.1204 12.5542,34.1324 13.0812,34.1164 C13.3712,34.1094 13.5102,34.1914 13.5022,34.5104 C13.4402,36.8514 13.6332,39.1974 13.3702,41.5334 C13.1052,43.8794 11.6032,45.3744 9.2452,45.5714 C7.5512,45.7134 5.9642,45.4334 4.7932,44.0184 C4.1192,43.2034 3.8632,42.2344 3.7482,41.2114 C3.7322,41.0674 3.8002,40.8894 3.6202,40.7924 L3.6202,39.7364 C3.7422,39.4164 3.6742,39.0824 3.6772,38.7564 C3.6862,37.3924 3.6912,36.0274 3.6732,34.6634 C3.6692,34.2994 3.7422,34.1334 4.1532,34.1564 C4.7742,34.1924 5.4012,34.1924 6.0232,34.1564 C6.4352,34.1334 6.5032,34.3034 6.4992,34.6654 C6.4832,36.3024 6.4912,37.9394 6.4942,39.5764 C6.4952,39.7884 6.4562,40.0054 6.5352,40.2134" id="Fill-6" fill="#58B1CF"></path>
                <path d="M42.1021,16.5073 C42.4321,16.7413 42.8491,16.7953 43.1771,17.0503 C44.1361,17.7983 44.4611,19.0163 43.9601,20.0853 C43.4511,21.1753 42.1991,21.7793 41.0381,21.4963 C39.8371,21.2033 39.0331,20.1913 39.0541,18.9973 C39.0751,17.8193 39.9321,16.8433 41.1491,16.6113 C41.4161,16.4863 41.7211,16.6593 41.9851,16.5073 L42.1021,16.5073 Z" id="Fill-7" fill="#58B1CF"></path>
                <path d="M6.5352,40.2134 C6.3842,40.0244 6.4452,39.8004 6.4442,39.5914 C6.4392,37.9884 6.4292,36.3874 6.4502,34.7844 C6.4552,34.3674 6.3652,34.1744 5.9032,34.2054 C5.3582,34.2424 4.8082,34.2364 4.2632,34.2064 C3.8532,34.1854 3.7232,34.3254 3.7292,34.7374 C3.7502,36.2024 3.7412,37.6684 3.7332,39.1334 C3.7332,39.3364 3.8232,39.5674 3.6202,39.7364 L3.6202,34.1064 C4.4382,34.1034 5.2572,34.1104 6.0752,34.0924 C6.4102,34.0854 6.5692,34.1664 6.5652,34.5444 C6.5432,36.4344 6.5432,38.3234 6.5352,40.2134" id="Fill-8" fill="#A3D4E4"></path>
                <path d="M41.9847,16.5073 C41.7287,16.7193 41.4297,16.5903 41.1497,16.6113 C41.1577,16.5763 41.1627,16.5423 41.1637,16.5073 L41.9847,16.5073 Z" id="Fill-9" fill="#9BD1E2"></path>
                <path d="M37.2078,44.2202 C37.1618,45.3402 37.1618,45.3532 36.1118,45.3342 C35.5698,45.3252 34.8748,45.5732 34.5248,45.2322 C34.1468,44.8662 34.3948,44.1572 34.3938,43.6002 C34.3818,39.4752 34.3988,35.3502 34.3738,31.2252 C34.3698,30.6662 34.5418,30.5162 35.0658,30.5562 C35.6098,30.5992 36.1608,30.5882 36.7068,30.5582 C37.1058,30.5362 37.1988,30.6952 37.1938,31.0652 C37.1768,32.5102 37.1868,33.9542 37.1868,35.3942 C37.3818,35.4702 37.4508,35.3142 37.5478,35.2372 C39.1698,33.9612 40.9618,33.6892 42.8278,34.5302 C44.7788,35.4072 45.7708,37.0402 45.9638,39.1402 C46.1698,41.3772 45.4868,43.2762 43.6218,44.6342 C41.8018,45.9592 39.5458,45.9312 37.7298,44.6002 C37.5778,44.4882 37.4238,44.3772 37.2078,44.2202" id="Fill-10" fill="#58B1CF"></path>
                <path d="M30.9314,44.312 C30.7334,44.269 30.6574,44.381 30.5754,44.451 C27.6874,46.914 23.2174,45.266 22.3114,41.343 C21.8164,39.2 22.1814,37.177 23.8204,35.543 C25.6444,33.726 28.4074,33.57 30.4434,35.143 C30.5874,35.255 30.8504,35.758 30.9914,35.102 C31.0164,34.983 31.1944,35.021 31.3064,35.02 C31.9914,35.017 32.6754,35.03 33.3594,35.014 C33.6864,35.006 33.7464,35.165 33.7464,35.446 C33.7414,38.593 33.7384,41.741 33.7494,44.888 C33.7504,45.265 33.5884,45.354 33.2534,45.344 C32.6864,45.328 32.1174,45.311 31.5524,45.349 C31.0764,45.381 30.8494,45.246 30.9284,44.741 C30.9494,44.607 30.9314,44.468 30.9314,44.312" id="Fill-11" fill="#58B1CF"></path>
                <path d="M66.4725,44.1431 C65.6915,44.8361 64.9555,45.3031 64.0725,45.4821 C61.4015,46.0251 58.7575,44.4231 57.9505,41.7801 C57.0715,38.8971 58.1655,35.9421 60.5955,34.6311 C62.2745,33.7271 64.4525,33.9301 65.9485,35.1161 C66.1175,35.2491 66.3565,35.7481 66.5435,35.0951 C66.5805,34.9641 66.7895,35.0211 66.9215,35.0201 C67.4875,35.0161 68.0565,35.0471 68.6205,35.0091 C69.1005,34.9761 69.2575,35.1241 69.2505,35.6221 C69.2225,37.5561 69.2395,39.4911 69.2395,41.4251 C69.2395,42.5391 69.2145,43.6541 69.2505,44.7661 C69.2655,45.2471 69.0955,45.3771 68.6465,45.3481 C68.1405,45.3141 67.6285,45.3081 67.1235,45.3491 C66.6195,45.3901 66.3805,45.2441 66.4695,44.7091 C66.4905,44.5801 66.4725,44.4441 66.4725,44.1431" id="Fill-12" fill="#58B1CF"></path>
                <path d="M17.8299,34.1011 C19.1509,34.0861 20.2519,34.5861 21.1789,35.5201 C21.4499,35.7931 21.4449,35.9711 21.1559,36.2191 C20.8009,36.5241 20.4649,36.8561 20.1539,37.2051 C19.8829,37.5101 19.6869,37.5691 19.3499,37.2561 C18.8719,36.8141 18.3049,36.4911 17.6049,36.5801 C17.2609,36.6231 16.9349,36.7401 16.8459,37.1191 C16.7549,37.5081 17.0069,37.7371 17.3219,37.8991 C18.0509,38.2741 18.7919,38.6251 19.5119,39.0181 C20.4019,39.5041 21.1859,40.1041 21.5169,41.1291 C22.0299,42.7181 21.3749,44.3211 19.8889,45.1031 C18.1119,46.0391 15.6009,45.6491 14.1769,44.2361 C13.8479,43.9101 13.7219,43.6531 14.1369,43.2911 C14.4889,42.9851 14.7989,42.6261 15.0989,42.2661 C15.3479,41.9661 15.5289,41.9151 15.8359,42.2251 C16.2509,42.6441 16.7759,42.9151 17.3509,43.0781 C17.6219,43.1541 17.8989,43.1741 18.1629,43.1061 C18.5249,43.0131 18.8869,42.8761 18.9909,42.4541 C19.0959,42.0341 18.8729,41.7431 18.5659,41.4971 C18.1339,41.1541 17.6259,40.9431 17.1379,40.6991 C16.5079,40.3841 15.8839,40.0651 15.3559,39.5861 C14.2619,38.5921 13.8529,37.3891 14.3239,36.2311 C14.8589,34.9141 15.9059,34.2461 17.3029,34.1041 C17.4769,34.0861 17.6539,34.1011 17.8299,34.1011" id="Fill-13" fill="#58B1CF"></path>
                <path d="M53.3538,37.9692 C53.3538,40.2162 53.3418,42.4632 53.3638,44.7092 C53.3678,45.1792 53.2618,45.3872 52.7518,45.3492 C52.2078,45.3082 51.6558,45.3092 51.1128,45.3492 C50.6368,45.3852 50.5288,45.2072 50.5308,44.7552 C50.5468,40.9462 50.5398,37.1352 50.5398,33.3252 C50.5398,32.5832 50.5688,31.8392 50.5298,31.0992 C50.5048,30.6352 50.6828,30.5332 51.1028,30.5582 C51.6668,30.5902 52.2368,30.5932 52.8008,30.5572 C53.2388,30.5302 53.3678,30.6662 53.3638,31.1112 C53.3418,33.3972 53.3538,35.6832 53.3538,37.9692" id="Fill-14" fill="#58B1CF"></path>
                <path d="M56.8934,37.9165 C56.8934,40.1635 56.8714,42.4115 56.9084,44.6575 C56.9184,45.2445 56.7354,45.3995 56.1844,45.3505 C55.6614,45.3025 55.1294,45.3185 54.6024,45.3465 C54.1894,45.3685 54.0684,45.2155 54.0714,44.8085 C54.0874,42.5025 54.0794,40.1965 54.0794,37.8915 C54.0794,35.6245 54.0884,33.3575 54.0714,31.0915 C54.0684,30.6895 54.1724,30.5345 54.5924,30.5585 C55.1764,30.5905 55.7664,30.5945 56.3504,30.5565 C56.7984,30.5275 56.9064,30.6855 56.9034,31.1175 C56.8824,33.3845 56.8934,35.6505 56.8934,37.9165" id="Fill-15" fill="#58B1CF"></path>
                <path d="M43.1382,24.8628 C43.1522,23.0408 44.6862,21.5568 46.5482,21.5628 C48.4012,21.5688 49.9712,23.1368 49.9492,24.9598 C49.9272,26.7788 48.3442,28.2648 46.4532,28.2428 C44.5962,28.2198 43.1242,26.7178 43.1382,24.8628" id="Fill-16" fill="#58B1CF"></path>
                <path d="M46.7688,41.1392 C46.7688,39.9462 46.7618,38.7532 46.7718,37.5612 C46.7798,36.7052 47.2788,36.1472 48.0478,36.0962 C48.8458,36.0442 49.4708,36.5432 49.5418,37.4082 C49.6118,38.2432 49.5788,39.0862 49.5808,39.9262 C49.5848,41.5302 49.5698,43.1332 49.5908,44.7362 C49.5958,45.1762 49.5008,45.3852 49.0078,45.3502 C48.4438,45.3082 47.8728,45.3112 47.3088,45.3492 C46.8488,45.3802 46.7508,45.1972 46.7598,44.7752 C46.7848,43.5632 46.7688,42.3512 46.7688,41.1392" id="Fill-17" fill="#58B1CF"></path>
                <path d="M49.6148,32.6382 C49.6158,34.0192 48.4958,35.1522 47.1298,35.1522 C45.7198,35.1522 44.5578,33.9742 44.5728,32.5622 C44.5878,31.2272 45.7118,30.1272 47.0708,30.1192 C48.4748,30.1112 49.6138,31.2392 49.6148,32.6382" id="Fill-18" fill="#58B1CF"></path>
                <path d="M39.1573,22.8315 C40.5133,22.8255 41.6273,23.8965 41.6243,25.2055 C41.6213,26.5125 40.4933,27.6125 39.1643,27.6045 C37.8383,27.5975 36.7073,26.4765 36.7203,25.1835 C36.7343,23.9035 37.8383,22.8375 39.1573,22.8315" id="Fill-19" fill="#58B1CF"></path>
                <path d="M42.2044,28.3491 C42.9104,28.3391 43.5004,28.9011 43.4984,29.5781 C43.4964,30.2191 42.9104,30.7971 42.2504,30.8121 C41.5724,30.8281 40.9604,30.2401 40.9534,29.5671 C40.9464,28.9251 41.5294,28.3581 42.2044,28.3491" id="Fill-20" fill="#58B2CF"></path>
                <path d="M43.1785,39.8149 C43.1815,41.7249 41.9455,43.0509 40.1585,43.0539 C38.3375,43.0579 37.0665,41.7199 37.0695,39.8039 C37.0725,37.9499 38.4285,36.5769 40.2345,36.5979 C41.9165,36.6179 43.1765,37.9949 43.1785,39.8149" id="Fill-21" fill="#FEFEFE"></path>
                <path d="M27.9634,43.0542 C26.1834,43.0522 24.9514,41.7262 24.9534,39.8152 C24.9544,38.0012 26.2504,36.5792 27.8864,36.5962 C29.7534,36.6152 31.0734,37.9802 31.0444,39.8602 C31.0154,41.7452 29.7504,43.0572 27.9634,43.0542" id="Fill-22" fill="#FEFEFE"></path>
                <path d="M60.4971,39.7427 C60.5211,38.2257 61.4431,36.9747 62.7441,36.6927 C64.2161,36.3747 65.6251,37.0147 66.2411,38.2817 C67.0731,39.9917 66.3401,42.2577 64.6911,42.8507 C62.2551,43.7277 60.3851,41.9277 60.4971,39.7427" id="Fill-23" fill="#FEFEFE"></path>
            </g>
        </g>
    </g>
</svg>