<?xml version="1.0" encoding="UTF-8"?>
<svg width="75px" height="74px" viewBox="0 0 75 74" version="1.1" xmlns="http://www.w3.org/2000/svg" xmlns:xlink="http://www.w3.org/1999/xlink">
    <!-- Generator: Sketch 53 (72520) - https://sketchapp.com -->
    <title>Group 7</title>
    <desc>Created with Sketch.</desc>
    <g id="Page-1" stroke="none" stroke-width="1" fill="none" fill-rule="evenodd">
        <g id="Logos-with-Names" transform="translate(-650.000000, -250.000000)">
            <g id="Group-7" transform="translate(650.500000, 250.000000)">
                <path d="M73.1681,36.8342 C73.1681,56.9002 56.9011,73.1682 36.8341,73.1682 C16.7671,73.1682 0.5001,56.9002 0.5001,36.8342 C0.5001,16.7672 16.7671,0.5002 36.8341,0.5002 C56.9011,0.5002 73.1681,16.7672 73.1681,36.8342" id="Fill-1" fill="#FFFFFF"></path>
                <path d="M73.1681,36.8342 C73.1681,56.9002 56.9011,73.1682 36.8341,73.1682 C16.7671,73.1682 0.5001,56.9002 0.5001,36.8342 C0.5001,16.7672 16.7671,0.5002 36.8341,0.5002 C56.9011,0.5002 73.1681,16.7672 73.1681,36.8342 Z" id="Stroke-3" stroke="#040201"></path>
                <path d="M39.859,27.3856 L42.651,27.3856 L42.651,24.5976 L39.859,24.5976 L39.859,27.3856 Z M35.437,27.4166 L38.235,27.4166 L38.235,24.5946 L35.437,24.5946 L35.437,27.4166 Z M30.997,27.3846 L33.812,27.3846 L33.812,24.5986 L30.997,24.5986 L30.997,27.3846 Z M35.413,40.7076 L38.216,40.7076 L38.216,37.8726 L35.413,37.8726 L35.413,40.7076 Z M39.872,36.2736 L42.66,36.2736 L42.66,33.4416 L39.872,33.4416 L39.872,36.2736 Z M35.422,36.2946 L38.239,36.2946 L38.239,33.4346 L35.422,33.4346 L35.422,36.2946 Z M30.997,36.2916 L33.823,36.2916 L33.823,33.4576 L30.997,33.4576 L30.997,36.2916 Z M42.663,28.9726 C41.805,28.9726 41.044,28.9466 40.287,28.9926 C40.113,29.0036 39.819,29.2536 39.81,29.4066 C39.761,30.2116 39.787,31.0196 39.787,31.8566 L42.663,31.8566 L42.663,28.9726 Z M35.422,31.8506 L38.239,31.8506 L38.239,29.0136 L35.422,29.0136 L35.422,31.8506 Z M31.003,31.8766 L33.818,31.8766 L33.818,29.0166 L31.003,29.0166 L31.003,31.8766 Z M11.356,14.3176 L62.313,14.3176 C53.791,31.3016 45.308,48.2086 36.743,65.2796 C28.262,48.2556 19.838,31.3456 11.356,14.3176 L11.356,14.3176 Z" id="Fill-6" fill="#000000"></path>
            </g>
        </g>
    </g>
</svg>