<?xml version="1.0" encoding="UTF-8"?>
<svg width="74px" height="75px" viewBox="0 0 74 75" version="1.1" xmlns="http://www.w3.org/2000/svg" xmlns:xlink="http://www.w3.org/1999/xlink">
    <!-- Generator: Sketch 53 (72520) - https://sketchapp.com -->
    <title>Group 13</title>
    <desc>Created with Sketch.</desc>
    <g id="Page-1" stroke="none" stroke-width="1" fill="none" fill-rule="evenodd">
        <g id="Logos-with-Names" transform="translate(-467.000000, -742.000000)">
            <g id="Group-13" transform="translate(467.000000, 742.961662)">
                <path d="M73.3114,36.9053 C73.3114,57.0113 57.0124,73.3113 36.9054,73.3113 C16.7994,73.3113 0.4994,57.0113 0.4994,36.9053 C0.4994,16.7993 16.7994,0.5003 36.9054,0.5003 C57.0124,0.5003 73.3114,16.7993 73.3114,36.9053" id="Fill-1" fill="#FFFFFF"></path>
                <path d="M73.3114,36.9053 C73.3114,57.0113 57.0124,73.3113 36.9054,73.3113 C16.7994,73.3113 0.4994,57.0113 0.4994,36.9053 C0.4994,16.7993 16.7994,0.5003 36.9054,0.5003 C57.0124,0.5003 73.3114,16.7993 73.3114,36.9053 Z" id="Stroke-3" stroke="#040201"></path>
                <path d="M17.2633,31.501 L17.2633,36.753 C17.2633,37.987 16.9393,38.964 16.2913,39.68 C15.6423,40.396 14.7723,40.754 13.6793,40.754 C13.1103,40.754 12.5893,40.635 12.1143,40.397 C11.6383,40.16 11.2303,39.813 10.8913,39.355 C10.5263,39.818 10.1093,40.168 9.6403,40.402 C9.1713,40.637 8.6593,40.754 8.1033,40.754 C7.0103,40.754 6.1383,40.395 5.4863,39.675 C4.8353,38.956 4.5103,37.981 4.5103,36.753 L4.5103,31.501 L6.1303,31.501 L6.1303,37.04 C6.1303,37.682 6.3113,38.199 6.6723,38.592 C7.0333,38.983 7.5103,39.18 8.1033,39.18 C8.6893,39.18 9.1683,38.981 9.5393,38.587 C9.9093,38.191 10.0953,37.676 10.0953,37.04 L10.0953,31.501 L11.7063,31.501 L11.7063,37.04 C11.7063,37.682 11.8873,38.199 12.2483,38.592 C12.6093,38.983 13.0863,39.18 13.6793,39.18 C14.2593,39.18 14.7333,38.981 15.1013,38.587 C15.4683,38.191 15.6513,37.676 15.6513,37.04 L15.6513,31.501 L17.2633,31.501 Z" id="Fill-6" fill="#231F20"></path>
                <path d="M25.1835,40.587 L25.1835,36.058 C25.1835,35.108 24.9145,34.337 24.3775,33.747 C23.8405,33.158 23.1425,32.863 22.2845,32.863 C21.4325,32.863 20.7335,33.154 20.1865,33.738 C19.6405,34.321 19.3675,35.073 19.3675,35.993 C19.3675,36.932 19.6475,37.701 20.2095,38.3 C20.7715,38.899 21.4875,39.198 22.3585,39.198 C22.7535,39.198 23.1385,39.13 23.5115,38.994 C23.8855,38.858 24.2605,38.649 24.6375,38.364 L24.6375,40.115 C24.2665,40.325 23.8765,40.481 23.4655,40.583 C23.0545,40.685 22.6235,40.735 22.1735,40.735 C21.7415,40.735 21.3125,40.669 20.8855,40.536 C20.4595,40.403 20.0735,40.217 19.7275,39.976 C19.0735,39.525 18.5735,38.962 18.2275,38.286 C17.8815,37.609 17.7095,36.858 17.7095,36.03 C17.7095,34.672 18.1385,33.55 18.9965,32.664 C19.8545,31.777 20.9445,31.335 22.2665,31.335 C23.1365,31.335 23.9335,31.554 24.6555,31.992 C25.3785,32.431 25.9335,33.033 26.3225,33.798 C26.5015,34.145 26.6295,34.523 26.7075,34.933 C26.7845,35.344 26.8225,35.956 26.8225,36.772 L26.8225,40.587 L25.1835,40.587 Z" id="Fill-7" fill="#231F20"></path>
                <polygon id="Fill-8" fill="#231F20" points="27.769 40.5872 29.399 40.5872 29.399 27.3242 27.769 27.3242"></polygon>
                <path d="M30.5021,40.587 L30.5021,27.324 L32.1321,27.324 L32.1321,34.799 L32.8551,34.799 C33.3181,34.799 33.6961,34.703 33.9891,34.512 C34.2821,34.32 34.5991,33.943 34.9391,33.382 L36.0961,31.501 L37.9951,31.501 L36.6611,33.659 C36.4271,34.048 36.1951,34.369 35.9671,34.623 C35.7381,34.876 35.5221,35.055 35.3181,35.16 C36.0651,35.302 36.6161,35.609 36.9711,36.081 C37.3261,36.554 37.5041,37.222 37.5041,38.087 L37.5041,40.587 L35.8651,40.587 L35.8651,38.29 C35.8651,37.636 35.7211,37.155 35.4341,36.85 C35.1471,36.545 34.6921,36.392 34.0681,36.392 L32.1321,36.392 L32.1321,40.587 L30.5021,40.587 Z" id="Fill-9" fill="#231F20"></path>
                <path d="M63.1049,26.5557 L44.7049,26.5557 C41.2819,26.5557 38.5079,29.3297 38.5079,32.7527 L38.5079,38.7307 C38.5079,42.1537 41.2819,44.9277 44.7049,44.9277 L49.4709,44.9277 L53.8369,48.0357 L58.2019,44.9277 L63.1049,44.9277 C66.5269,44.9277 69.3019,42.1537 69.3019,38.7307 L69.3019,32.7527 C69.3019,29.3297 66.5269,26.5557 63.1049,26.5557" id="Fill-10" fill="#3394D1"></path>
                <path d="M42.7296,40.3868 L42.7296,35.1358 C42.7296,33.9008 43.0536,32.9248 43.7016,32.2078 C44.3506,31.4918 45.2236,31.1338 46.3226,31.1338 C46.8856,31.1338 47.4036,31.2528 47.8786,31.4908 C48.3546,31.7288 48.7656,32.0758 49.1106,32.5328 C49.4686,32.0698 49.8826,31.7208 50.3526,31.4868 C50.8216,31.2518 51.3366,31.1338 51.8986,31.1338 C52.9856,31.1338 53.8546,31.4938 54.5056,32.2128 C55.1576,32.9328 55.4836,33.9068 55.4836,35.1358 L55.4836,40.3868 L53.8716,40.3868 L53.8716,34.8298 C53.8716,34.1948 53.6896,33.6818 53.3256,33.2918 C52.9606,32.9038 52.4856,32.7088 51.8986,32.7088 C51.3126,32.7088 50.8366,32.9038 50.4726,33.2918 C50.1086,33.6818 49.9266,34.1948 49.9266,34.8298 L49.9266,40.3868 L48.3146,40.3868 L48.3146,34.8298 C48.3146,34.1948 48.1296,33.6818 47.7586,33.2918 C47.3886,32.9038 46.9096,32.7088 46.3226,32.7088 C45.7306,32.7088 45.2536,32.9038 44.8926,33.2918 C44.5306,33.6818 44.3506,34.1948 44.3506,34.8298 L44.3506,40.3868 L42.7296,40.3868 Z" id="Fill-11" fill="#FFFFFF"></path>
                <path d="M65.08,36.3673 C64.851,37.6643 64.326,38.6883 63.506,39.4423 C62.684,40.1953 61.684,40.5723 60.505,40.5723 C60.103,40.5723 59.706,40.5173 59.314,40.4103 C58.922,40.3023 58.553,40.1423 58.208,39.9323 C57.479,39.4883 56.914,38.9083 56.512,38.1913 C56.111,37.4753 55.91,36.6883 55.91,35.8303 C55.91,35.2003 56.027,34.6013 56.258,34.0333 C56.489,33.4653 56.824,32.9533 57.263,32.4963 C57.701,32.0453 58.199,31.7023 58.758,31.4683 C59.317,31.2333 59.905,31.1153 60.523,31.1153 C61.443,31.1153 62.266,31.3583 62.991,31.8433 C63.717,32.3273 64.305,33.0323 64.756,33.9593 L58.8,37.2563 L58.115,36.0243 L62.533,33.5603 C62.261,33.2593 61.955,33.0303 61.616,32.8753 C61.276,32.7213 60.906,32.6433 60.505,32.6433 C59.689,32.6433 59.002,32.9483 58.444,33.5553 C57.885,34.1643 57.606,34.9163 57.606,35.8113 C57.606,36.7003 57.886,37.4513 58.448,38.0623 C59.01,38.6743 59.696,38.9793 60.505,38.9793 C61.276,38.9793 61.923,38.7243 62.445,38.2153 C62.966,37.7053 63.292,37.0063 63.422,36.1173 L65.08,36.3673 Z" id="Fill-12" fill="#FFFFFF"></path>
            </g>
        </g>
    </g>
</svg>