<?xml version="1.0" encoding="UTF-8"?>
<svg width="75px" height="74px" viewBox="0 0 75 74" version="1.1" xmlns="http://www.w3.org/2000/svg" xmlns:xlink="http://www.w3.org/1999/xlink">
    <!-- Generator: Sketch 53 (72520) - https://sketchapp.com -->
    <title>Group 8</title>
    <desc>Created with Sketch.</desc>
    <g id="Page-1" stroke="none" stroke-width="1" fill="none" fill-rule="evenodd">
        <g id="Logos-with-Names" transform="translate(-790.000000, -522.000000)">
            <g id="Group-8" transform="translate(790.500000, 522.161323)">
                <path d="M73.168,36.8344 C73.168,56.9004 56.901,73.1684 36.834,73.1684 C16.767,73.1684 0.5,56.9004 0.5,36.8344 C0.5,16.7674 16.767,0.5004 36.834,0.5004 C56.901,0.5004 73.168,16.7674 73.168,36.8344" id="Fill-1" fill="#FFFFFF"></path>
                <path d="M73.168,36.8344 C73.168,56.9004 56.901,73.1684 36.834,73.1684 C16.767,73.1684 0.5,56.9004 0.5,36.8344 C0.5,16.7674 16.767,0.5004 36.834,0.5004 C56.901,0.5004 73.168,16.7674 73.168,36.8344 Z" id="Stroke-3" stroke="#040201"></path>
                <polygon id="Fill-6" fill="#3F4D9C" points="14.921 57.6008 58.746 57.6008 58.746 13.7758 14.921 13.7758"></polygon>
                <path d="M47.5274,25.9594 C46.6514,26.8364 45.5994,28.0634 44.4594,29.4654 C43.2324,30.8674 42.0054,32.4454 40.7784,34.1104 C39.4634,35.7764 38.2364,37.5294 37.0094,39.3704 C35.7824,41.1234 34.6424,42.8764 33.6784,44.5414 L48.0534,44.5414 L48.0534,49.8884 L25.7024,49.8884 L25.7024,46.1194 C26.4914,44.7174 27.3674,43.2274 28.5074,41.4744 C29.6474,39.8084 30.7864,38.0554 31.9254,36.3024 C33.0654,34.5494 34.3804,32.8844 35.6074,31.3064 C36.8344,29.7294 37.9734,28.2384 39.0254,27.0114 L26.4034,27.0114 L26.4034,21.6644 L47.5274,21.6644 L47.5274,25.9594 Z" id="Fill-7" fill="#FFFFFF"></path>
            </g>
        </g>
    </g>
</svg>