<?xml version="1.0" encoding="UTF-8"?>
<svg width="48px" height="48px" viewBox="0 0 48 48" version="1.1" xmlns="http://www.w3.org/2000/svg" xmlns:xlink="http://www.w3.org/1999/xlink">
    <title>Block Storage Application</title>
    <g id="V2-Icons" stroke="none" stroke-width="1" fill="none" fill-rule="evenodd">
        <g id="IBM-/-Cloud-/-Storage" transform="translate(-193, -49)">
            <g id="Block-Storage-Application" transform="translate(193, 49)">
                <g id="Cloud-Pak-Data-v2-Icon" fill="#0F62FE">
                    <polygon id="Fill-4" points="0 48 48 48 48 0 0 0"></polygon>
                </g>
                <g id="block-storage" transform="translate(12, 12)">
                    <path d="M6.75,9 L6.75,7.5 L3,7.5 C2.17157288,7.5 1.5,8.17157288 1.5,9 L1.5,21 C1.5,21.8284271 2.17157288,22.5 3,22.5 L15,22.5 C15.8284271,22.5 16.5,21.8284271 16.5,21 L16.5,14.25 L15,14.25 L15,21 L3,21 L3,9" id="Path" fill="#FFFFFF" fill-rule="nonzero"></path>
                    <path d="M16.5,9 L10.5,9 L10.5,3 L16.5,3 L16.5,9 Z M9,3 L9,9 C9,9.82842712 9.67157288,10.5 10.5,10.5 L16.5,10.5 C17.3284271,10.5 18,9.82842712 18,9 L18,3 C18,2.17157288 17.3284271,1.5 16.5,1.5 L10.5,1.5 C9.67157288,1.5 9,2.17157288 9,3 Z" id="Shape" fill="#FFFFFF" fill-rule="nonzero"></path>
                    <path d="M10.5,13.5 L10.5,16.5 L7.5,16.5 L7.5,13.5 L10.5,13.5 M6,13.5 L6,16.5 C6,17.3284271 6.67157288,18 7.5,18 L10.5,18 C11.3284271,18 12,17.3284271 12,16.5 L12,13.5 C12,12.6715729 11.3284271,12 10.5,12 L7.5,12 C6.67157288,12 6,12.6715729 6,13.5 Z" id="Shape" fill="#FFFFFF" fill-rule="nonzero"></path>
                    <path d="M21,12.75 L21,14.25 L19.5,14.25 L19.5,12.75 L21,12.75 M18,12 L18,15 C18,15.4142136 18.3357864,15.75 18.75,15.75 L21.75,15.75 C22.1642136,15.75 22.5,15.4142136 22.5,15 L22.5,12 C22.5,11.5857864 22.1642136,11.25 21.75,11.25 L18.75,11.25 C18.3357864,11.25 18,11.5857864 18,12 Z" id="Shape" fill="#FFFFFF" fill-rule="nonzero"></path>
                    <rect id="_Transparent_Rectangle_" x="0" y="0" width="24" height="24"></rect>
                </g>
            </g>
        </g>
    </g>
</svg>