<?xml version="1.0" encoding="UTF-8"?>
<svg width="48px" height="48px" viewBox="0 0 48 48" version="1.1" xmlns="http://www.w3.org/2000/svg" xmlns:xlink="http://www.w3.org/1999/xlink">
    <title>data-backup</title>
    <g id="V2-Icons" stroke="none" stroke-width="1" fill="none" fill-rule="evenodd">
        <g id="IBM-/-Cloud-/-Data-" transform="translate(-193, -49)">
            <g id="data-backup" transform="translate(193, 49)">
                <g id="Cloud-Pak-Data-v2-Icon" fill="#0F62FE">
                    <polygon id="Fill-4" points="0 48 48 48 48 0 0 0"></polygon>
                </g>
                <g transform="translate(11.5, 11.9695)">
                    <circle id="Oval" fill="#FFFFFF" fill-rule="nonzero" cx="5.25" cy="5.25" r="1"></circle>
                    <circle id="Oval" fill="#FFFFFF" fill-rule="nonzero" cx="5.25" cy="11.25" r="1"></circle>
                    <circle id="Oval" fill="#FFFFFF" fill-rule="nonzero" cx="5.25" cy="17.25" r="1"></circle>
                    <path d="M9,19.5 L3,19.5 L3,15 L9,15 L9,13.5 L3,13.5 L3,9 L16.5,9 L16.5,3 C16.5,2.17157288 15.8284271,1.5 15,1.5 L3,1.5 C2.17157288,1.5 1.5,2.17157288 1.5,3 L1.5,19.5 C1.5,20.3284271 2.17157288,21 3,21 L9,21 L9,19.5 Z M3,3 L15,3 L15,7.5 L3,7.5 L3,3 Z" id="Shape" fill="#FFFFFF" fill-rule="nonzero"></path>
                    <path d="M21,12.75 L21,14.559825 C19.6980368,12.3828945 17.025211,11.4490331 14.6508337,12.341483 C12.2764563,13.2339329 10.880471,15.6971258 11.3347389,18.1926769 C11.7890069,20.6882279 13.9634409,22.5014934 16.5,22.5000009 L16.5,21 C14.6264756,21.0023883 13.0386504,19.6216541 12.780882,17.7659454 C12.5231136,15.9102367 13.6745029,14.1490102 15.4777484,13.6406745 C17.2809938,13.1323389 19.1827381,14.0328858 19.93215,15.75 L18,15.75 L18,17.25 L22.5,17.25 L22.5,12.75 L21,12.75 Z" id="Path" fill="#FFFFFF" fill-rule="nonzero"></path>
                    <rect id="_Transparent_Rectangle_" x="0" y="0" width="24" height="24"></rect>
                </g>
            </g>
        </g>
    </g>
</svg>