<?xml version="1.0" encoding="UTF-8"?>
<svg width="48px" height="48px" viewBox="0 0 48 48" version="1.1" xmlns="http://www.w3.org/2000/svg" xmlns:xlink="http://www.w3.org/1999/xlink">
    <title>database--mongodb</title>
    <g id="V2-Icons" stroke="none" stroke-width="1" fill="none" fill-rule="evenodd">
        <g id="IBM-/-Cloud-/-Data-" transform="translate(-653, -49)">
            <g id="database--mongodb" transform="translate(653, 49)">
                <rect id="Rectangle-Copy-10" fill="#0F62FE" x="0" y="0" width="48" height="48"></rect>
                <g transform="translate(12, 12)">
                    <path d="M19.011075,21.65625 C15.9756,21.65625 14.820225,20.862825 14.820225,19.53495 C14.8022961,19.0930049 14.9616298,18.6622049 15.2628174,18.3382867 C15.564005,18.0143685 15.9820949,17.8241668 16.424175,17.80995 L16.424175,17.6202 C15.7276367,17.4643667 15.2416666,16.8334415 15.2688,16.1202 C15.2688,15.1887 16.062,14.7231 16.92405,14.53335 L16.92405,14.4645 C15.8856115,14.0167616 15.2330613,12.9726515 15.285675,11.843025 C15.285675,10.0149 16.579125,8.790525 19.011075,8.790525 C19.5426543,8.78152501 20.0722713,8.85730032 20.58,9.015 L20.58,8.7219 C20.5275103,8.36690381 20.6436381,8.00774261 20.8940263,7.75067613 C21.1444146,7.49360965 21.5003954,7.36807047 21.85665,7.4112 L23.253375,7.4112 L23.253375,9.10125 L21.339075,9.10125 L21.339075,9.34275 C22.2461175,9.83911292 22.7890065,10.8108516 22.736175,11.843475 C22.736175,13.65435 21.459975,14.86155 19.011075,14.86155 C18.5465515,14.8680059 18.0830685,14.8158443 17.6316,14.7063 C17.2734891,14.8211298 17.0209327,15.1418476 16.993275,15.5169 C16.993275,15.965325 17.3727,16.189425 18.166275,16.189425 L20.58,16.189425 C22.78755,16.189425 23.7360001,17.1381 23.7360001,18.75915 C23.7363,20.638725 22.460475,21.65625 19.011075,21.65625 Z M20.1321,18.103425 L17.0625,18.103425 C16.7614927,18.3166184 16.5867441,18.6659749 16.596675,19.0347 C16.596675,19.7247 17.1138,20.138475 18.49365,20.138475 L19.5975,20.138475 C21.029025,20.138475 21.6675,19.7763 21.6675,19.017525 C21.6675,18.448425 21.25305,18.103425 20.1321,18.103425 L20.1321,18.103425 Z M20.63235,11.981175 L20.63235,11.687775 C20.63235,10.77375 20.06325,10.307775 19.011075,10.307775 C17.9589,10.307775 17.389875,10.77345 17.389875,11.687775 L17.389875,11.981175 C17.389875,12.8778 17.958975,13.361175 19.011075,13.361175 C20.063175,13.361175 20.6325,12.8775 20.6325,11.981175 L20.63235,11.981175 Z" id="Shape" fill="#FFFFFF" fill-rule="nonzero"></path>
                    <polygon id="Path" fill="#FFFFFF" fill-rule="nonzero" points="1.6758 5.9625 4.245 5.9625 7.33215 11.843475 7.401375 11.843475 10.453875 5.9625 12.920325 5.9625 12.920325 18 10.764375 18 10.764375 9.36 10.695525 9.36 9.76395 11.274 7.297875 15.8265 4.8318 11.274 3.900525 9.36 3.8313 9.36 3.8313 18 1.6758 18"></polygon>
                    <rect id="_Transparent_Rectangle_" x="0" y="0" width="24" height="24"></rect>
                </g>
            </g>
        </g>
    </g>
</svg>