<?xml version="1.0" encoding="UTF-8"?>
<svg width="48px" height="48px" viewBox="0 0 48 48" version="1.1" xmlns="http://www.w3.org/2000/svg" xmlns:xlink="http://www.w3.org/1999/xlink">
    <title>database--datastax</title>
    <g id="V2-Icons" stroke="none" stroke-width="1" fill="none" fill-rule="evenodd">
        <g id="IBM-/-Cloud-/-Data-" transform="translate(-324, -49)">
            <g id="database--datastax" transform="translate(324, 49)">
                <rect id="Rectangle" fill="#0F62FE" x="0" y="0" width="48" height="48"></rect>
                <path d="M26.1513,27.5513 L27.496575,26.2406 C28.0885612,27.0037508 28.9967156,27.454693 29.9625,27.46505 C31.01445,27.46505 31.462875,27.06845 31.462875,26.43005 C31.462875,25.91255 31.152525,25.585025 30.3591,25.4816 L29.46225,25.3607 C27.5307,25.119425 26.461575,24.2744 26.461575,22.63595 C26.461575,20.894075 27.824025,19.7903 29.87625,19.7903 C31.2049397,19.68993 32.5048768,20.2124265 33.3945,21.204425 L32.10105,22.497875 C31.5466316,21.8921398 30.7664131,21.5426254 29.945325,21.532175 C28.99665,21.532175 28.5828,21.9116 28.5828,22.46345 C28.5828,23.067125 28.9104,23.3429 29.75565,23.480975 L30.669675,23.60165 C32.63565,23.877575 33.584175,24.75725 33.584175,26.25755 C33.584175,27.9995 32.118225,29.2067 29.87625,29.2067 C28.4436678,29.2697736 27.0645263,28.6568712 26.1513,27.5513 L26.1513,27.5513 Z" id="Path" fill="#FFFFFF" fill-rule="nonzero"></path>
                <path d="M15.18,16.9625 L19.560675,16.9625 C22.699425,16.9625 24.75165,18.98 24.75165,22.98155 C24.75165,26.9831 22.699575,29 19.560825,29 L15.18,29 L15.18,16.9625 Z M19.560675,26.9825 C21.250725,26.9825 22.33725,25.98215 22.33725,23.93 L22.33725,22.0325 C22.33725,19.9802 21.250725,18.98 19.560675,18.98 L17.4567,18.98 L17.4567,26.9825 L19.560675,26.9825 Z" id="Shape" fill="#FFFFFF" fill-rule="nonzero"></path>
                <rect id="_Transparent_Rectangle_" x="12" y="11" width="24" height="24"></rect>
            </g>
        </g>
    </g>
</svg>