<?xml version="1.0" encoding="UTF-8"?>
<svg width="48px" height="48px" viewBox="0 0 48 48" version="1.1" xmlns="http://www.w3.org/2000/svg" xmlns:xlink="http://www.w3.org/1999/xlink">
    <title>database--elastic</title>
    <g id="V2-Icons" stroke="none" stroke-width="1" fill="none" fill-rule="evenodd">
        <g id="IBM-/-Cloud-/-Data-" transform="translate(-521, -48)">
            <g id="database--elastic" transform="translate(521, 48)">
                <rect id="Rectangle-Copy-14" fill="#0F62FE" x="0" y="0" width="48" height="48"></rect>
                <g transform="translate(12, 11)">
                    <path d="M13.371075,16.5513 L14.71635,15.2406 C15.3083923,16.0038035 16.216639,16.4547504 17.1825,16.46505 C18.234375,16.46505 18.6825,16.06845 18.6825,15.43005 C18.6825,14.91255 18.37215,14.585025 17.5788,14.4816 L16.68195,14.3607 C14.750325,14.119425 13.6812,13.2744 13.6812,11.63595 C13.6812,9.894075 15.04365,8.7903 17.09595,8.7903 C18.424616,8.68994221 19.7245251,9.21243866 20.614125,10.204425 L19.320675,11.497875 C18.7662888,10.8920953 17.9860499,10.5425717 17.16495,10.532175 C16.216275,10.532175 15.8025,10.9116 15.8025,11.46345 C15.8025,12.067125 16.130025,12.3429 16.975275,12.480975 L17.8893,12.60165 C19.85535,12.877575 20.8038,13.75725 20.8038,15.257625 C20.8038,16.9995 19.33785,18.2067 17.09595,18.2067 C15.6633982,18.2697261 14.2842997,17.6568304 13.371075,16.5513 Z" id="Path" fill="#FFFFFF" fill-rule="nonzero"></path>
                    <polygon id="Path" fill="#FFFFFF" fill-rule="nonzero" points="3.935325 18 3.935325 5.9625 11.86875 5.9625 11.86875 7.98 6.211875 7.98 6.211875 10.89465 11.2134 10.89465 11.2134 12.912525 6.211875 12.912525 6.211875 15.9825 11.86875 15.9825 11.86875 18"></polygon>
                    <rect id="_Transparent_Rectangle_" x="0" y="0" width="24" height="24"></rect>
                </g>
            </g>
        </g>
    </g>
</svg>