<?xml version="1.0" encoding="UTF-8"?>
<svg width="48px" height="48px" viewBox="0 0 48 48" version="1.1" xmlns="http://www.w3.org/2000/svg" xmlns:xlink="http://www.w3.org/1999/xlink">
    <title>database--redis</title>
    <g id="V2-Icons" stroke="none" stroke-width="1" fill="none" fill-rule="evenodd">
        <g id="IBM-/-Cloud-/-Data-" transform="translate(-852, -49)">
            <g id="database--redis" transform="translate(852, 49)">
                <rect id="Rectangle-Copy-8" fill="#0F62FE" x="0" y="0" width="48" height="48"></rect>
                <g transform="translate(12, 11)">
                    <path d="M19.2867,16.5 L19.20045,16.5 C18.839341,17.5542185 17.8305927,18.2476967 16.716975,18.2073 C14.457675,18.2073 13.198575,16.5 13.198575,13.48185 C13.198575,10.48095 14.457675,8.7909 16.716975,8.7909 C17.8307628,8.73131329 18.8471689,9.42299614 19.20045,10.48095 L19.2867,10.48095 L19.2867,5.23845 L21.494175,5.23845 L21.494175,18 L19.2867,18 L19.2867,16.5 Z M19.2867,14.913225 L19.2867,12.050025 C19.2867,11.1705 18.4761,10.601459 17.423925,10.601459 C16.8785934,10.5992458 16.3581229,10.8293798 15.992804,11.2342669 C15.6274851,11.639154 15.4518988,12.1804678 15.51,12.7227 L15.51,14.2752 C15.4523807,14.8156986 15.62872,15.3550294 15.9945171,15.7570881 C16.3603142,16.1591467 16.8806269,16.385527 17.42415,16.3791 C18.4761,16.3788 19.2867,15.844275 19.2867,14.91285 L19.2867,14.913225 Z" id="Shape" fill="#FFFFFF" fill-rule="nonzero"></path>
                    <path d="M4.9182,18 L2.64165,18 L2.64165,5.9625 L8.0742,5.9625 C10.2642,5.9625 11.627025,7.4112 11.627025,9.68775 C11.7520811,11.2056751 10.8275794,12.6137827 9.38505,13.1025 L11.85135,18 L9.31635,18 L7.074075,13.360875 L4.9182,13.360875 L4.9182,18 Z M7.8501,11.4465 C8.22811651,11.4921611 8.60661893,11.36534 8.88081603,11.1011481 C9.15501313,10.8369561 9.29580964,10.463427 9.264225,10.083975 L9.264225,9.290625 C9.29497961,8.91283149 9.15322192,8.54139604 8.87858131,8.28015608 C8.6039407,8.01891613 8.22588411,7.89590083 7.8501,7.9455 L4.9182,7.9455 L4.9182,11.4465 L7.8501,11.4465 Z" id="Shape" fill="#FFFFFF" fill-rule="nonzero"></path>
                    <rect id="_Transparent_Rectangle_" x="0" y="0" width="24" height="24"></rect>
                </g>
            </g>
        </g>
    </g>
</svg>