<?xml version="1.0" encoding="UTF-8"?>
<svg width="48px" height="48px" viewBox="0 0 48 48" version="1.1" xmlns="http://www.w3.org/2000/svg" xmlns:xlink="http://www.w3.org/1999/xlink">
    <title>Database</title>
    <g id="V2-Icons" stroke="none" stroke-width="1" fill="none" fill-rule="evenodd">
        <g id="IBM-/-Cloud-/-Data-" transform="translate(-258, -49)">
            <g id="Database" transform="translate(258, 49)">
                <rect id="Rectangle-Copy-6" fill="#0F62FE" x="0" y="0" width="48" height="48"></rect>
                <g id="db2--database" transform="translate(12, 12)">
                    <path d="M12,2.25 C8.026575,2.25 3.75,3.189 3.75,5.25 L3.75,18.75 C3.75,20.811 8.026575,21.75 12,21.75 C15.973425,21.75 20.25,20.811 20.25,18.75 L20.25,5.25 C20.25,3.189 15.973425,2.25 12,2.25 Z M12,3.75 C16.3482,3.75 18.596175,4.825575 18.7476,5.25 C18.596175,5.674425 16.3482,6.75 12,6.75 C7.619025,6.75 5.37045,5.6583 5.25,5.2632 L5.25,5.259525 C5.37045,4.8417 7.619025,3.75 12,3.75 Z M5.25,7.070775 C6.845925,7.871325 9.48195,8.25 12,8.25 C14.51805,8.25 17.154075,7.871325 18.75,7.070775 L18.75,9.740475 C18.62955,10.1583 16.380975,11.25 12,11.25 C7.612425,11.25 5.363175,10.155 5.25,9.75 L5.25,7.070775 Z M5.25,11.570775 C6.845925,12.371325 9.48195,12.75 12,12.75 C14.51805,12.75 17.154075,12.371325 18.75,11.570775 L18.75,14.240475 C18.62955,14.6583 16.380975,15.75 12,15.75 C7.612425,15.75 5.363175,14.655 5.25,14.25 L5.25,11.570775 Z M12,20.25 C7.612425,20.25 5.363175,19.155 5.25,18.75 L5.25,16.070775 C6.845925,16.871325 9.48195,17.25 12,17.25 C14.51805,17.25 17.154075,16.871325 18.75,16.070775 L18.75,18.740475 C18.62955,19.1583 16.380975,20.25 12,20.25 Z" id="Shape" fill="#FFFFFF" fill-rule="nonzero"></path>
                    <rect id="_Transparent_Rectangle_" x="0" y="0" width="24" height="24"></rect>
                </g>
            </g>
        </g>
    </g>
</svg>