<?xml version="1.0" encoding="UTF-8"?>
<svg width="48px" height="48px" viewBox="0 0 48 48" version="1.1" xmlns="http://www.w3.org/2000/svg" xmlns:xlink="http://www.w3.org/1999/xlink">
    <title>data-accessor</title>
    <g id="V2-Icons" stroke="none" stroke-width="1" fill="none" fill-rule="evenodd">
        <g id="IBM-/-Cloud-/-Storage" transform="translate(-875, -49)">
            <g id="data-accessor" transform="translate(875, 49)">
                <g id="Object-Storage-Slisor-Copy-2" fill="#0F62FE">
                    <rect id="Rectangle-Copy-5" x="0" y="0" width="48" height="48"></rect>
                </g>
                <g transform="translate(12, 12)">
                    <path d="M21,15 L19.5,15 L19.5,16.5 L21,16.5 L21,21 L3,21 L3,16.5 L4.5,16.5 L4.5,15 L3,15 C2.17198405,15.0009918 1.50099183,15.6719841 1.5,16.5 L1.5,21 C1.50099183,21.8280159 2.17198405,22.4990082 3,22.5 L21,22.5 C21.8280159,22.4990082 22.4990082,21.8280159 22.5,21 L22.5,16.5 C22.4990082,15.6719841 21.8280159,15.0009918 21,15 Z" id="Path" fill="#FFFFFF" fill-rule="nonzero"></path>
                    <circle id="Oval" fill="#FFFFFF" fill-rule="nonzero" cx="5.25" cy="18.75" r="1"></circle>
                    <path d="M15.75,9.75 C15.4157672,9.75169145 15.0862274,9.82880795 14.78595,9.9756 L13.060575,8.25 L14.785575,6.5244 C15.0859663,6.671247 15.4156404,6.74836496 15.75,6.75 C16.9926407,6.75 18,5.74264069 18,4.5 C18,3.25735931 16.9926407,2.25 15.75,2.25 C14.5073593,2.25 13.5,3.25735931 13.5,4.5 C13.5016712,4.8341188 13.5785741,5.16357081 13.725,5.4639 L12,7.189425 L10.275,5.4639 C10.4214259,5.16357081 10.4983288,4.8341188 10.5,4.5 C10.5,3.25735931 9.49264069,2.25 8.25,2.25 C7.00735931,2.25 6,3.25735931 6,4.5 C6,5.74264069 7.00735931,6.75 8.25,6.75 C8.58423283,6.74830855 8.91377257,6.67119205 9.21405,6.5244 L10.939425,8.25 L9.21405,9.9756 C8.91377257,9.82880795 8.58423283,9.75169145 8.25,9.75 C7.00735931,9.75 6,10.7573593 6,12 C6,13.2426407 7.00735931,14.25 8.25,14.25 C9.49264069,14.25 10.5,13.2426407 10.5,12 C10.4983288,11.6658812 10.4214259,11.3364292 10.275,11.0361 L12,9.310575 L13.725,11.0361 C13.5785741,11.3364292 13.5016712,11.6658812 13.5,12 C13.5,13.2426407 14.5073593,14.25 15.75,14.25 C16.9926407,14.25 18,13.2426407 18,12 C18,10.7573593 16.9926407,9.75 15.75,9.75 Z M15.75,3.75 C16.1642136,3.75 16.5,4.08578644 16.5,4.5 C16.5,4.91421356 16.1642136,5.25 15.75,5.25 C15.3357864,5.25 15,4.91421356 15,4.5 C15.0003722,4.08594069 15.3359407,3.75037215 15.75,3.75 Z M7.5,4.5 C7.5,4.08578644 7.83578644,3.75 8.25,3.75 C8.66421356,3.75 9,4.08578644 9,4.5 C9,4.91421356 8.66421356,5.25 8.25,5.25 C7.83594069,5.24962785 7.50037215,4.91405931 7.5,4.5 Z M8.25,12.75 C7.83578644,12.75 7.5,12.4142136 7.5,12 C7.5,11.5857864 7.83578644,11.25 8.25,11.25 C8.66421356,11.25 9,11.5857864 9,12 C8.99962785,12.4140593 8.66405931,12.7496278 8.25,12.75 Z M15.75,12.75 C15.3357864,12.75 15,12.4142136 15,12 C15,11.5857864 15.3357864,11.25 15.75,11.25 C16.1642136,11.25 16.5,11.5857864 16.5,12 C16.4996278,12.4140593 16.1640593,12.7496278 15.75,12.75 Z" id="Shape" fill="#FFFFFF" fill-rule="nonzero"></path>
                    <rect id="_Transparent_Rectangle_" x="0" y="0" width="24" height="24"></rect>
                </g>
            </g>
        </g>
    </g>
</svg>