<?xml version="1.0" encoding="UTF-8"?>
<svg width="48px" height="48px" viewBox="0 0 48 48" version="1.1" xmlns="http://www.w3.org/2000/svg" xmlns:xlink="http://www.w3.org/1999/xlink">
    <title>database--rabbit</title>
    <g id="V2-Icons" stroke="none" stroke-width="1" fill="none" fill-rule="evenodd">
        <g id="IBM-/-Cloud-/-Data-" transform="translate(-780, -49)">
            <g id="database--rabbit" transform="translate(780, 49)">
                <rect id="Rectangle-Copy-7" fill="#0F62FE" x="0" y="0" width="48" height="48"></rect>
                <path d="M25.45755,27.55095 C25.45755,25.70595 26.854275,24.79155 29.303475,24.79155 L30.838275,24.79155 L30.838275,24.1362 C30.838275,23.135925 30.3384,22.54965 29.165775,22.54965 C28.3273519,22.5345666 27.5447559,22.9685794 27.11355,23.687775 L25.802475,22.515 C26.5640665,21.3315035 27.9186369,20.6673427 29.32065,20.79 C31.7523,20.79 33.04575,21.945 33.04575,23.997825 L33.04575,28.24035 L33.9426,28.24035 L33.9426,30 L32.718,30 C31.8324289,30.0198528 31.091514,29.3320977 31.0455,28.4475 L30.942225,28.4475 C30.648825,29.6031 29.66595,30.2066251 28.320825,30.2066251 C26.4924,30.206925 25.45755,29.154975 25.45755,27.55095 Z M30.838275,27.3096 L30.838275,26.11965 L29.4243,26.11965 C28.26855,26.11965 27.6993,26.51625 27.6993,27.223425 L27.6993,27.516525 C27.6993,28.240875 28.19955,28.603125 29.0616,28.603125 C30.045,28.603125 30.838275,28.155 30.838275,27.3096 Z" id="Shape" fill="#FFFFFF" fill-rule="nonzero"></path>
                <path d="M17.228775,30 L14.952375,30 L14.952375,17.9625 L20.385,17.9625 C22.575,17.9625 23.937975,19.4112 23.937975,21.68775 C24.0630311,23.2056751 23.1385294,24.6137827 21.696,25.1025 L24.16185,30 L21.62685,30 L19.38465,25.360875 L17.228775,25.360875 L17.228775,30 Z M20.160675,23.4465 C20.5387031,23.492153 20.9172148,23.3653347 21.1914335,23.10115 C21.4656523,22.8369653 21.6064859,22.4634417 21.57495,22.083975 L21.57495,21.290625 C21.6056843,20.9128093 21.4638985,20.5413619 21.1892292,20.2801225 C20.91456,20.018883 20.536477,19.8958802 20.160675,19.9455 L17.228775,19.9455 L17.228775,23.4465 L20.160675,23.4465 Z" id="Shape" fill="#FFFFFF" fill-rule="nonzero"></path>
                <rect id="_Transparent_Rectangle_" x="12" y="12" width="24" height="24"></rect>
            </g>
        </g>
    </g>
</svg>