<?xml version="1.0" encoding="UTF-8"?>
<svg width="48px" height="48px" viewBox="0 0 48 48" version="1.1" xmlns="http://www.w3.org/2000/svg" xmlns:xlink="http://www.w3.org/1999/xlink">
    <title>database--postgreSQL</title>
    <g id="V2-Icons" stroke="none" stroke-width="1" fill="none" fill-rule="evenodd">
        <g id="IBM-/-Cloud-/-Data-" transform="translate(-715, -48)">
            <g id="database--postgreSQL" transform="translate(715, 48)">
                <rect id="Rectangle-Copy-9" fill="#0F62FE" x="0" y="0" width="48" height="48"></rect>
                <g transform="translate(12, 12)">
                    <path d="M17.235,21.65625 C14.19945,21.65625 13.044075,20.862825 13.044075,19.53495 C13.026085,19.0929761 13.1854082,18.6621304 13.4866246,18.3381964 C13.787841,18.0142624 14.2059861,17.8240873 14.6481,17.80995 L14.6481,17.6202 C13.9513948,17.4645486 13.4652219,16.8335649 13.49235,16.1202 C13.49235,15.1887 14.28555,14.7231 15.147975,14.53335 L15.147975,14.4645 C14.1093891,14.0169225 13.4567486,12.9727156 13.509525,11.843025 C13.509525,10.0149 14.802975,8.790525 17.235,8.790525 C17.7666555,8.78143696 18.2963656,8.85708451 18.804225,9.014625 L18.804225,8.721525 C18.751702,8.36660312 18.8677533,8.00749536 19.1180484,7.75043394 C19.3683435,7.49337252 19.7242287,7.36778573 20.080425,7.410825 L21.47715,7.410825 L21.47715,9.100875 L19.562625,9.100875 L19.562625,9.342375 C20.4695484,9.83885809 21.0123917,10.810515 20.959725,11.8431 C20.959725,13.653975 19.683075,14.861175 17.234625,14.861175 C16.7699282,14.8676312 16.3062717,14.8154698 15.854625,14.705925 C15.4966909,14.8209052 15.2443385,15.1415902 15.21675,15.516525 C15.21675,15.96495 15.5961,16.18905 16.3893,16.18905 L18.803775,16.18905 C21.01125,16.18905 21.959775,17.137725 21.959775,18.758775 C21.96,20.638725 20.683575,21.65625 17.235,21.65625 Z M18.355575,18.103425 L15.285675,18.103425 C14.9847393,18.3168013 14.8100684,18.6662276 14.82,19.035 C14.82,19.725 15.3375,20.138775 16.716975,20.138775 L17.820675,20.138775 C19.252575,20.138775 19.890675,19.7766 19.890675,19.017825 C19.890375,18.448425 19.4766,18.103425 18.3552,18.103425 L18.355575,18.103425 Z M18.855825,11.981175 L18.855825,11.687775 C18.855825,10.77375 18.286725,10.307775 17.235,10.307775 C16.183275,10.307775 15.613425,10.77345 15.613425,11.687775 L15.613425,11.981175 C15.613425,12.8778 16.182525,13.361175 17.235,13.361175 C18.287475,13.361175 18.85545,12.8775 18.85545,11.981175 L18.855825,11.981175 Z" id="Shape" fill="#FFFFFF" fill-rule="nonzero"></path>
                    <path d="M3.45225,18 L3.45225,5.9625 L8.86725,5.9625 C11.09235,5.9625 12.43725,7.4625 12.43725,9.68775 C12.43725,11.929725 11.092125,13.41285 8.86725,13.41285 L5.729025,13.41285 L5.729025,18 L3.45225,18 Z M5.729025,11.4465 L8.660925,11.4465 C9.03891778,11.4921446 9.41738923,11.3653097 9.69154693,11.1011137 C9.96570464,10.8369177 10.1064544,10.4633977 10.074825,10.083975 L10.074825,9.290625 C10.1056244,8.91286092 9.9639135,8.54143451 9.68931227,8.28019044 C9.41471103,8.01894637 9.03668537,7.89591726 8.660925,7.9455 L5.729025,7.9455 L5.729025,11.4465 Z" id="Shape" fill="#FFFFFF" fill-rule="nonzero"></path>
                    <rect id="_Transparent_Rectangle_" x="0" y="0" width="24" height="24"></rect>
                </g>
            </g>
        </g>
    </g>
</svg>