<?xml version="1.0" encoding="UTF-8"?>
<svg width="48px" height="48px" viewBox="0 0 48 48" version="1.1" xmlns="http://www.w3.org/2000/svg" xmlns:xlink="http://www.w3.org/1999/xlink">
    <title>DB2 Warehouse</title>
    <g id="V2-Icons" stroke="none" stroke-width="1" fill="none" fill-rule="evenodd">
        <g id="IBM-/-Cloud-/-Data-" transform="translate(-456, -49)">
            <g id="DB2-Warehouse" transform="translate(456, 49)">
                <rect id="Rectangle-Copy-5" fill="#0F62FE" x="0" y="0" width="48" height="48"></rect>
                <g id="ibm--db2-warehouse" transform="translate(12, 12)">
                    <path d="M16.877925,13.22715 L12.377925,10.60215 C12.261075,10.53405 12.130575,10.5 12,10.5 C11.869425,10.5 11.738925,10.53405 11.622075,10.60215 L7.122075,13.22715 C6.89175,13.36155 6.75,13.608375 6.75,13.875 L6.75,19.125 C6.75,19.391625 6.89175,19.63845 7.122075,19.77285 L11.622075,22.39785 C11.738925,22.46595 11.869425,22.5 12,22.5 C12.130575,22.5 12.261075,22.46595 12.377925,22.39785 L16.877925,19.77285 C17.10825,19.63845 17.25,19.391625 17.25,19.125 L17.25,13.875 C17.25,13.608375 17.10825,13.36155 16.877925,13.22715 Z M15.75,17.8755 L13.851225,16.73625 C13.861125,16.657875 13.875,16.581 13.875,16.500075 C13.875,15.7332 13.410975,15.074025 12.75,14.784 L12.75,12.555975 L15.75,14.305725 L15.75,17.875575 L15.75,17.8755 Z M11.25,12.5559 L11.25,14.783925 C10.589025,15.07395 10.125,15.733125 10.125,16.5 C10.125,16.580925 10.13895,16.6578 10.148775,16.736175 L8.25,17.875425 L8.25,14.305575 L11.25,12.555825 L11.25,12.5559 Z M12,20.881725 L9.036225,19.152825 L10.91655,18.0249 C11.223075,18.24315 11.595675,18.375 12,18.375 C12.404325,18.375 12.776925,18.24315 13.08345,18.0249 L14.963775,19.152825 L12,20.881725 L12,20.881725 Z" id="Shape" fill="#FFFFFF" fill-rule="nonzero"></path>
                    <path d="M18.6,6.855 C17.9475,3.765 15.21,1.5 12,1.5 C8.79,1.5 6.0525,3.765 5.4,6.855 C3.1725,7.305 1.5,9.3 1.5,11.625 C1.5,13.9275 3.105,15.8475 5.25,16.3575 L5.25,14.775 C3.945,14.31 3,13.095 3,11.625 C3,9.8775 4.365,8.3925 6.105,8.2575 L6.72,8.2125 L6.795,7.605 C7.1175,4.98 9.3525,3 12,3 C14.6475,3 16.8825,4.98 17.205,7.605 L17.28,8.2125 L17.895,8.2575 C19.635,8.4 21,9.8775 21,11.625 C21,13.0875 20.055,14.3175 18.75,14.7825 L18.75,16.365 C20.895,15.855 22.5,13.92 22.5,11.625 C22.5,9.2925 20.8275,7.305 18.6,6.855 Z" id="Path" fill="#FFFFFF" fill-rule="nonzero"></path>
                    <g id="_Transparent_Rectangle_">
                        <rect id="Rectangle" x="0" y="0" width="24" height="24"></rect>
                    </g>
                </g>
            </g>
        </g>
    </g>
</svg>