<?xml version="1.0" encoding="UTF-8"?>
<svg width="48px" height="48px" viewBox="0 0 48 48" version="1.1" xmlns="http://www.w3.org/2000/svg" xmlns:xlink="http://www.w3.org/1999/xlink">
    <title>ibm-cloud-pak--data </title>
    <g id="V2-Icons" stroke="none" stroke-width="1" fill="none" fill-rule="evenodd">
        <g id="IBM-/-Cloud-/-Data-" transform="translate(-127, -48)">
            <g id="ibm-cloud-pak--data-" transform="translate(127, 48)">
                <rect id="Rectangle" fill="#0F62FE" x="0" y="0" width="48" height="48"></rect>
                <g id="ibm-cloud-pak--data" transform="translate(12, 12)">
                    <circle id="Oval" fill="#FFFFFF" fill-rule="nonzero" cx="17.25" cy="11.25" r="1"></circle>
                    <circle id="Oval" fill="#FFFFFF" fill-rule="nonzero" cx="6" cy="11.25" r="1"></circle>
                    <circle id="Oval" fill="#FFFFFF" fill-rule="nonzero" cx="15.75" cy="7.5" r="1"></circle>
                    <circle id="Oval" fill="#FFFFFF" fill-rule="nonzero" cx="11.25" cy="17.25" r="1"></circle>
                    <path d="M15.75,14.25 C15.6202158,14.2517454 15.491219,14.2704797 15.3663,14.305725 L14.03025,12.96975 L14.010975,12.989025 C14.1660365,12.6822611 14.2478542,12.3437201 14.25,12 C14.248636,10.7579248 13.2420752,9.75136403 12,9.75 C11.6562799,9.75214582 11.3177389,9.83396353 11.010975,9.989025 L11.03025,9.96975 L9.694275,8.6337 C9.88030148,7.96571691 9.59254308,7.25629042 8.99374626,6.90664829 C8.39494943,6.55700615 7.63569051,6.65507105 7.14538078,7.14538078 C6.65507105,7.63569051 6.55700615,8.39494943 6.90664829,8.99374626 C7.25629042,9.59254308 7.96571691,9.88030148 8.6337,9.694275 L9.96975,11.03025 L9.9891,11.0109 C9.83398067,11.3176726 9.7521357,11.6562459 9.75,12 C9.75136403,13.2420752 10.7579248,14.248636 12,14.25 C12.3437541,14.2478643 12.6823274,14.1660193 12.9891,14.0109 L12.96975,14.03025 L14.305725,15.3663 C14.1428525,15.9860919 14.3926335,16.6408033 14.9269467,16.9946097 C15.4612598,17.348416 16.1615323,17.322802 16.6685697,16.9309058 C17.175607,16.5390097 17.3768895,15.8677996 17.1691721,15.2615628 C16.9614547,14.6553261 16.3908335,14.2485965 15.75,14.25 L15.75,14.25 Z M12,12.75 C11.5857864,12.75 11.25,12.4142136 11.25,12 C11.25,11.5857864 11.5857864,11.25 12,11.25 C12.4142136,11.25 12.75,11.5857864 12.75,12 C12.7496278,12.4140593 12.4140593,12.7496278 12,12.75 Z" id="Shape" fill="#FFFFFF" fill-rule="nonzero"></path>
                    <path d="M12,23.2500006 C11.8672318,23.2500006 11.7368049,23.2150417 11.622075,23.148225 L2.622075,17.898225 C2.39163953,17.7636521 2.24999994,17.5168527 2.24999994,17.25 L2.24999994,6.75 C2.24999994,6.48322398 2.39159765,6.23649897 2.622075,6.10215 L11.622075,0.85215 C11.8556079,0.715911998 12.1443921,0.715911998 12.377925,0.85215 L21.377925,6.10215 L20.622075,7.39785 L12,2.368275 L3.74999994,7.18065 L3.74999994,16.81935 L12,21.6321 L20.2499999,16.81935 L20.2499999,11.25 L21.7499999,11.25 L21.7499999,17.25 C21.7499999,17.5168527 21.6083605,17.7636521 21.377925,17.898225 L12.377925,23.148225 C12.2631951,23.2150417 12.1327682,23.2500006 12,23.2500006 Z" id="Path" fill="#FFFFFF" fill-rule="nonzero"></path>
                    <rect id="_Transparent_Rectangle_" x="0" y="0" width="24" height="24"></rect>
                </g>
            </g>
        </g>
    </g>
</svg>