<?xml version="1.0" encoding="UTF-8"?>
<svg width="48px" height="48px" viewBox="0 0 48 48" version="1.1" xmlns="http://www.w3.org/2000/svg" xmlns:xlink="http://www.w3.org/1999/xlink">
    <title>ibm--db2--alt</title>
    <g id="V2-Icons" stroke="none" stroke-width="1" fill="none" fill-rule="evenodd">
        <g id="IBM-/-Cloud-/-Data-" transform="translate(-390, -49)">
            <g id="ibm--db2--alt" transform="translate(390, 49)">
                <rect id="Rectangle-Copy-3" fill="#0F62FE" x="0" y="0" width="48" height="48"></rect>
                <g transform="translate(12, 12)">
                    <path d="M23.518425,16.5 L17.220675,16.5 L17.220675,14.753475 L19.96155,12.4077 C20.955975,11.553525 21.300225,11.056275 21.300225,10.304175 L21.300225,10.125675 C21.300225,9.45 20.7009,9.10575 20.127225,9.10575 C19.285875,9.10575 18.877875,9.679425 18.699375,10.3551 L17.029275,9.717675 C17.4246,8.481075 18.457125,7.448475 20.3058,7.448475 C22.230825,7.448475 23.340075,8.583075 23.340075,10.125675 C23.340075,11.655525 22.24365,12.586125 20.96865,13.5933 L19.311375,14.893725 L23.518425,14.893725 L23.518425,16.5 Z" id="Path" fill="#FFFFFF" fill-rule="nonzero"></path>
                    <path d="M9.621825,7.0659 L11.50875,7.0659 L11.50875,10.928775 L11.5725,10.928775 C11.763675,10.189275 12.503025,9.653925 13.370025,9.653925 C15.06555,9.653925 15.945225,10.877775 15.945225,13.14705 C15.945225,15.416325 15.06555,16.653 13.370025,16.653 C12.503025,16.653 11.763675,16.10475 11.5725,15.37815 L11.50875,15.37815 L11.50875,16.5 L9.621825,16.5 L9.621825,7.0659 L9.621825,7.0659 Z M13.98195,13.733475 L13.98195,12.5733 C13.98195,11.73195 13.4592,11.1837 12.745275,11.1837 C12.03135,11.1837 11.50875,11.553375 11.50875,12.1653 L11.50875,14.1414 C11.50875,14.753325 12.03135,15.123 12.745275,15.123 C13.4592,15.123 13.98195,14.57475 13.98195,13.7334 L13.98195,13.733475 Z" id="Shape" fill="#FFFFFF" fill-rule="nonzero"></path>
                    <path d="M0.837225,7.601325 L4.190025,7.601325 C6.548625,7.601325 8.1039,9.093 8.1039,12.0507 C8.1039,15.0084 6.548625,16.5 4.190025,16.5 L0.837225,16.5 L0.837225,7.601325 Z M4.190025,14.77785 C5.337525,14.77785 6.05145,14.153175 6.05145,12.738075 L6.05145,11.361225 C6.05145,9.946125 5.337525,9.32145 4.190025,9.32145 L2.775,9.32145 L2.775,14.777925 L4.190025,14.777925 L4.190025,14.77785 Z" id="Shape" fill="#FFFFFF" fill-rule="nonzero"></path>
                    <rect id="_Transparent_Rectangle_" x="0" y="0" width="24" height="24"></rect>
                </g>
            </g>
        </g>
    </g>
</svg>