<?xml version="1.0" encoding="UTF-8"?>
<svg width="48px" height="49px" viewBox="0 0 48 49" version="1.1" xmlns="http://www.w3.org/2000/svg" xmlns:xlink="http://www.w3.org/1999/xlink">
    <title>Object Bucket</title>
    <g id="V2-Icons" stroke="none" stroke-width="1" fill="none" fill-rule="evenodd">
        <g id="IBM-/-Cloud-/-Storage" transform="translate(-534, -47)">
            <g id="Object-Bucket" transform="translate(534, 47.9362)">
                <polygon id="Fill-4" fill="#0F62FE" points="0 48 48 48 48 0 0 0"></polygon>
                <path d="M28.75,30.0637773 C28.1817511,30.0650025 27.6353056,30.2826313 27.2218,30.6724023 L24.219025,28.8706773 C24.2603255,28.6681616 24.2603255,28.4593931 24.219025,28.2568773 L27.2218,26.4551523 C28.073863,27.2970436 29.4117142,27.3941061 30.3763746,26.6840199 C31.3410351,25.9739338 31.6458985,24.6676699 31.0952245,23.6039263 C30.5445505,22.5401827 29.3019478,22.0350041 28.1652402,22.4127447 C27.0285326,22.7904854 26.3354427,23.9389162 26.530975,25.1206773 L23.5282,26.9224023 C22.6354201,26.0853299 21.2373109,26.1153403 20.3812722,26.989951 C19.5252335,27.8645617 19.5252335,29.2629929 20.3812722,30.1376037 C21.2373109,31.0122144 22.6354201,31.0422247 23.5282,30.2051523 L26.530975,32.0068773 C26.5135777,32.1083396 26.5032279,32.2108849 26.5,32.3137773 C26.5,33.556418 27.5073593,34.5637773 28.75,34.5637773 C29.9926407,34.5637773 31,33.556418 31,32.3137773 C31,31.0711366 29.9926407,30.0637773 28.75,30.0637773 Z M28.75,24.0637773 C29.1642136,24.0637773 29.5,24.3995638 29.5,24.8137773 C29.5,25.2279909 29.1642136,25.5637773 28.75,25.5637773 C28.3357864,25.5637773 28,25.2279909 28,24.8137773 C28.0003309,24.3997009 28.3359236,24.0641082 28.75,24.0637773 L28.75,24.0637773 Z M22,29.3137773 C21.5857864,29.3137773 21.25,28.9779909 21.25,28.5637773 C21.25,28.1495638 21.5857864,27.8137773 22,27.8137773 C22.4142136,27.8137773 22.75,28.1495638 22.75,28.5637773 C22.7496691,28.9778538 22.4140764,29.3134465 22,29.3137773 L22,29.3137773 Z M28.75,33.0637773 C28.3357864,33.0637773 28,32.7279909 28,32.3137773 C28,31.8995638 28.3357864,31.5637773 28.75,31.5637773 C29.1642136,31.5637773 29.5,31.8995638 29.5,32.3137773 C29.4996691,32.7278538 29.1640764,33.0634465 28.75,33.0637773 Z" id="Shape" fill="#FFFFFF" fill-rule="nonzero"></path>
                <path d="M17.5,33.0637715 L14.5,33.0637715 C13.6719669,33.0628267 13.0009506,32.3918104 13,31.5637715 L13,16.5637715 C13.0009506,15.7357443 13.6719669,15.0647279 14.5,15.0637715 L20.189275,15.0637715 C20.5873567,15.0626614 20.9693293,15.2209006 21.25,15.5032023 L23.810725,18.0637715 L32.5,18.0637715 C33.3280331,18.0647279 33.9990494,18.7357443 34,19.5637715 L34,25.5637715 L32.5,25.5637715 L32.5,19.5637715 L23.189275,19.5637715 L20.189275,16.5637715 L14.5,16.5637715 L14.5,31.5637715 L17.5,31.5637715 L17.5,33.0637715 Z" id="Path" fill="#FFFFFF" fill-rule="nonzero"></path>
                <rect id="_Transparent_Rectangle_" x="11.5" y="12.0637773" width="24" height="24"></rect>
            </g>
        </g>
    </g>
</svg>