<?xml version="1.0" encoding="UTF-8"?>
<svg width="67px" height="67px" viewBox="0 0 67 67" version="1.1" xmlns="http://www.w3.org/2000/svg" xmlns:xlink="http://www.w3.org/1999/xlink">
    <!-- Generator: Sketch 53 (72520) - https://sketchapp.com -->
    <title>Group 91</title>
    <desc>Created with Sketch.</desc>
    <g id="Page-1" stroke="none" stroke-width="1" fill="none" fill-rule="evenodd">
        <g id="Artboard" transform="translate(-1070.000000, -1774.000000)" fill-rule="nonzero">
            <g id="Group-91" transform="translate(1069.933333, 1774.375075)">
                <g id="Storage-Accessor-Copy" fill="#325C80">
                    <ellipse id="Oval" cx="33.3256808" cy="33.3155963" rx="33.1926606" ry="33.0697248"></ellipse>
                </g>
                <g id="IBM_Cloud_Database_Datastax_Solid" transform="translate(16.500000, 23.703271)" fill="#FFFFFF">
                    <path d="M0.272967285,0.228352784 L8.18901856,0.228352784 C9.55385499,0.228352784 10.9186914,0.50132007 12.0105606,0.910770998 C13.2389133,1.32022193 14.1942988,2.00264014 15.0132007,2.95802564 C15.8321026,3.91341114 16.5145208,5.00528028 16.9239717,6.37011671 C17.3334226,7.73495313 17.6063899,9.37275685 17.6063899,11.1470442 C17.6063899,12.9213316 17.3334226,14.5591353 16.9239717,15.9239717 C16.5145208,17.2888081 15.8321026,18.3806773 15.0132007,19.3360628 C14.1942988,20.2914483 13.2389133,20.9738665 12.0105606,21.3833174 C10.7822078,21.7927683 9.55385499,22.0657356 8.18901856,22.0657356 L0.272967285,22.0657356 L0.272967285,0.228352784 Z M8.32550221,18.5171609 C9.82682228,18.5171609 11.0551751,18.10771 12.0105606,17.1523245 C12.9659461,16.196939 13.375397,14.8321026 13.375397,12.9213316 L13.375397,9.50924049 C13.375397,7.59846949 12.9659461,6.23363306 12.0105606,5.27824757 C11.0551751,4.32286207 9.82682228,3.91341114 8.32550221,3.91341114 L4.50396021,3.91341114 L4.50396021,18.5171609 L8.32550221,18.5171609 L8.32550221,18.5171609 Z M27.0237613,22.6116702 C25.5224412,22.6116702 24.1576048,22.3387029 23.0657356,21.7927683 C21.9738665,21.2468338 21.018481,20.5644155 20.1995791,19.6090301 L22.6562847,17.2888081 C23.2022193,17.9712263 23.8846375,18.5171609 24.7035393,18.9266118 C25.3859575,19.3360628 26.2048594,19.4725464 27.1602449,19.4725464 C28.1156304,19.4725464 28.7980486,19.3360628 29.2074995,18.9266118 C29.6169505,18.5171609 29.8899178,18.10771 29.8899178,17.5617754 C29.8899178,17.0158408 29.7534341,16.7428736 29.4804668,16.4699063 C29.2074995,16.196939 28.661565,16.0604553 27.9791468,15.9239717 L26.341343,15.6510044 C24.5670557,15.3780371 23.2022193,14.8321026 22.2468338,14.0132007 C21.2914483,13.1942988 20.8819973,12.1024297 20.8819973,10.6011096 C20.8819973,9.78220777 21.018481,9.09978956 21.2914483,8.41737135 C21.5644155,7.73495313 21.9738665,7.18901856 22.519801,6.77956763 C23.0657356,6.37011671 23.7481538,5.96066578 24.430572,5.68769849 C25.2494739,5.41473121 26.0683758,5.27824757 27.0237613,5.27824757 C27.8426631,5.27824757 28.5250813,5.27824757 29.2074995,5.41473121 C29.8899178,5.55121485 30.4358523,5.68769849 30.8453033,5.96066578 C31.2547542,6.23363306 31.8006888,6.50660035 32.2101397,6.77956763 C32.6195906,7.05253492 33.0290415,7.46198585 33.4384925,7.87143678 L31.1182705,10.1916587 C30.572336,9.64572413 30.0264014,9.2362732 29.3439832,8.96330592 C28.661565,8.69033863 27.9791468,8.41737135 27.1602449,8.41737135 C26.341343,8.41737135 25.6589248,8.55385499 25.2494739,8.82682228 C24.840023,9.09978956 24.7035393,9.50924049 24.7035393,10.0551751 C24.7035393,10.6011096 24.840023,11.0105606 25.2494739,11.2835278 C25.5224412,11.5564951 25.9318921,11.6929788 26.8872776,11.9659461 C27.2967285,12.1024297 28.661565,12.375397 28.661565,12.375397 C31.9371724,12.7848479 33.7114598,14.8321026 33.7114598,16.8793572 C33.7114598,17.6982591 33.7114598,18.3806773 33.3020088,19.0630955 C33.0290415,19.7455137 32.6195906,20.2914483 32.073656,20.8373828 C31.5277215,21.3833174 31.1182705,21.6562847 30.0264014,22.2022193 C28.9345323,22.7481538 28.1156304,22.6116702 27.0237613,22.6116702 Z" id="DS"></path>
                </g>
            </g>
        </g>
    </g>
</svg>