<?xml version="1.0" encoding="UTF-8"?>
<svg width="67px" height="67px" viewBox="0 0 67 67" version="1.1" xmlns="http://www.w3.org/2000/svg" xmlns:xlink="http://www.w3.org/1999/xlink">
    <!-- Generator: Sketch 53 (72520) - https://sketchapp.com -->
    <title>Group 90</title>
    <desc>Created with Sketch.</desc>
    <g id="Page-1" stroke="none" stroke-width="1" fill="none" fill-rule="evenodd">
        <g id="Artboard" transform="translate(-970.000000, -1774.000000)" fill-rule="nonzero">
            <g id="Group-90" transform="translate(969.933333, 1774.375075)">
                <g id="Storage-Accessor-Copy" fill="#325C80">
                    <ellipse id="Oval" cx="33.3256808" cy="33.3155963" rx="33.1926606" ry="33.0697248"></ellipse>
                </g>
                <g id="IBM_Cloud_Database_EnterpriseDB_Solid" transform="translate(17.000000, 21.315012)" fill="#FFFFFF">
                    <path d="M0.272967285,22.2022193 L0.272967285,0.228352784 L14.7402334,0.228352784 L14.7402334,3.91341114 L4.50396021,3.91341114 L4.50396021,9.2362732 L13.6483643,9.2362732 L13.6483643,12.9213316 L4.50396021,12.9213316 L4.50396021,18.5171609 L14.7402334,18.5171609 L14.7402334,22.2022193 L0.272967285,22.2022193 Z M18.8347427,22.2022193 L18.8347427,5.82418214 L22.7927683,5.82418214 L22.7927683,8.55385499 L22.929252,8.55385499 C23.2022193,7.73495313 23.7481538,6.91605128 24.5670557,6.37011671 C25.2494739,5.82418214 26.341343,5.41473121 27.5696958,5.41473121 C29.2074995,5.41473121 30.7088196,6.09714942 31.6642051,7.18901856 C32.6195906,8.2808877 32.8925579,9.78220777 32.8925579,11.8294624 L32.8925579,22.2022193 L28.9345323,22.2022193 L28.9345323,12.2389133 C28.9345323,10.464626 28.661565,10.1916587 28.252114,9.64572413 C27.8426631,9.09978956 27.1602449,8.82682228 26.2048594,8.82682228 C25.7954085,8.82682228 25.3859575,8.82682228 24.9765066,8.96330592 C24.5670557,9.09978956 24.2940884,9.2362732 23.8846375,9.50924049 C23.6116702,9.78220777 23.3387029,10.0551751 23.2022193,10.3281423 C23.0657356,10.6011096 22.929252,11.0105606 22.929252,11.4200115 L22.929252,22.2022193 C22.929252,22.2022193 18.8347427,22.2022193 18.8347427,22.2022193 Z" id="En"></path>
                </g>
            </g>
        </g>
    </g>
</svg>