<?xml version="1.0" encoding="UTF-8"?>
<svg width="67px" height="67px" viewBox="0 0 67 67" version="1.1" xmlns="http://www.w3.org/2000/svg" xmlns:xlink="http://www.w3.org/1999/xlink">
    <!-- Generator: Sketch 53 (72520) - https://sketchapp.com -->
    <title>Group 86</title>
    <desc>Created with Sketch.</desc>
    <g id="Page-1" stroke="none" stroke-width="1" fill="none" fill-rule="evenodd">
        <g id="Artboard" transform="translate(-570.000000, -1774.000000)" fill-rule="nonzero">
            <g id="Group-42-Copy" transform="translate(566.516667, 1774.375075)">
                <g id="Group-86" transform="translate(3.500000, 0.000000)">
                    <g id="Storage-Accessor-Copy" fill="#325C80">
                        <ellipse id="Oval" cx="33.3256808" cy="33.3155963" rx="33.1926606" ry="33.0697248"></ellipse>
                    </g>
                    <g id="IBM_Cloud_Database_ETCD_Solid" transform="translate(19.500000, 20.973599)" fill="#FFFFFF">
                        <path d="M0.955385499,22.2022193 L0.955385499,0.228352784 L15.4226516,0.228352784 L15.4226516,3.91341114 L5.04989478,3.91341114 L5.04989478,9.2362732 L14.1942988,9.2362732 L14.1942988,12.9213316 L5.04989478,12.9213316 L5.04989478,18.5171609 L15.286168,18.5171609 L15.286168,22.2022193 L0.955385499,22.2022193 Z M24.5670557,22.2022193 C23.2022193,22.2022193 22.1103501,21.7927683 21.4279319,21.1103501 C20.7455137,20.4279319 20.3360628,19.3360628 20.3360628,17.9712263 L20.3360628,8.96330592 L17.8793572,8.96330592 L17.8793572,5.82418214 L19.10771,5.82418214 C19.6536446,5.82418214 20.0630955,5.68769849 20.3360628,5.41473121 C20.6090301,5.14176392 20.6090301,4.73231299 20.6090301,4.18637842 L20.6090301,1.45670557 L24.1576048,1.45670557 L24.1576048,5.82418214 L27.5696958,5.82418214 L27.5696958,9.09978956 L24.1576048,9.09978956 L24.1576048,19.0630955 L27.2967285,19.0630955 L27.2967285,22.2022193 L24.5670557,22.2022193 Z" id="Et"></path>
                    </g>
                </g>
            </g>
        </g>
    </g>
</svg>