<?xml version="1.0" encoding="UTF-8"?>
<svg width="67px" height="67px" viewBox="0 0 67 67" version="1.1" xmlns="http://www.w3.org/2000/svg" xmlns:xlink="http://www.w3.org/1999/xlink">
    <!-- Generator: Sketch 53 (72520) - https://sketchapp.com -->
    <title>Group 89</title>
    <desc>Created with Sketch.</desc>
    <g id="Page-1" stroke="none" stroke-width="1" fill="none" fill-rule="evenodd">
        <g id="Artboard" transform="translate(-870.000000, -1774.000000)" fill-rule="nonzero">
            <g id="Group-89" transform="translate(869.933333, 1774.375075)">
                <g id="Storage-Accessor-Copy" fill="#325C80">
                    <ellipse id="Oval" cx="33.3256808" cy="33.3155963" rx="33.1926606" ry="33.0697248"></ellipse>
                </g>
                <g id="IBM_Cloud_Database_MongoDB_Solid-2" transform="translate(13.000000, 21.315012)" fill="#FFFFFF">
                    <g id="IBM_Cloud_Database_MongoDB_Solid">
                        <path d="M16.7874881,6.77956763 L10.5092405,18.2441936 L4.23099292,6.37011671 L4.23099292,22.2022193 L0.272967285,22.2022193 L0.272967285,0.228352784 L4.91341114,0.228352784 L10.6457241,11.0105606 L16.2415535,0.228352784 L20.7455137,0.228352784 L20.7455137,22.2022193 L16.7874881,22.2022193 L16.7874881,6.77956763 L16.7874881,6.77956763 Z M40.5356419,23.5670557 C40.5356419,24.3859575 40.3991582,25.2048594 40.126191,25.8872776 C39.8532237,26.5696958 39.3072891,27.1156304 38.6248709,27.5250813 C37.9424527,27.9345323 36.9870672,28.3439832 35.7587144,28.6169505 C34.5303616,28.8899178 33.4384925,28.8899178 31.9371724,28.8899178 C30.572336,28.8899178 29.3439832,28.7534341 28.3885977,28.6169505 C27.4332122,28.4804668 26.750794,28.3439832 26.0683758,27.9345323 C25.3859575,27.5250813 24.9765066,27.1156304 24.7035393,26.5696958 C24.430572,26.0237613 24.2940884,25.4778267 24.2940884,24.9318921 C24.2940884,23.9765066 24.5670557,23.2940884 25.1129903,22.7481538 C25.6589248,22.2022193 26.341343,21.929252 27.2967285,21.7927683 L27.2967285,21.3833174 C26.6143103,21.2468338 26.0683758,20.8373828 25.7954085,20.4279319 C25.3859575,19.8819973 25.2494739,19.3360628 25.2494739,18.6536446 C25.2494739,18.2441936 25.3859575,17.8347427 25.5224412,17.5617754 C25.6589248,17.2888081 25.7954085,17.0158408 26.0683758,16.7428736 C26.341343,16.4699063 26.750794,16.196939 27.1602449,16.0604553 C27.5696958,15.9239717 27.8426631,15.9239717 28.252114,15.7874881 L28.252114,15.6510044 C27.2967285,15.2415535 26.4778267,14.5591353 26.0683758,13.7402334 C25.6589248,12.9213316 25.3859575,11.9659461 25.3859575,10.8740769 C25.3859575,9.2362732 25.9318921,7.87143678 27.1602449,6.77956763 C28.252114,5.82418214 30.0264014,5.27824757 32.2101397,5.27824757 C32.7560743,5.27824757 33.3020088,5.27824757 33.8479434,5.41473121 C34.5303616,5.55121485 34.6668453,5.55121485 35.0762962,5.68769849 L35.0762962,5.14176392 C35.0762962,3.50396021 35.895198,2.821542 37.3965181,2.821542 L39.5802564,2.821542 L39.5802564,5.96066578 L36.0316817,5.96066578 L36.0316817,6.37011671 C36.8505835,6.91605128 37.5330017,7.46198585 37.9424527,8.2808877 C38.3519036,9.09978956 38.6248709,9.91869142 38.6248709,11.0105606 C38.6248709,12.6483643 38.0789363,14.0132007 36.8505835,14.9685862 C35.7587144,15.9239717 33.984427,16.4699063 31.8006888,16.4699063 C30.8453033,16.4699063 30.0264014,16.3334226 29.3439832,16.196939 C29.0710159,16.3334226 28.7980486,16.4699063 28.5250813,16.7428736 C28.252114,17.0158408 28.1156304,17.2888081 28.1156304,17.6982591 C28.1156304,18.5171609 28.7980486,18.9266118 30.2993687,18.9266118 L34.6668453,18.9266118 C36.7140999,18.9266118 38.0789363,19.3360628 39.0343218,20.1549646 C39.9897073,20.9738665 40.5356419,22.0657356 40.5356419,23.5670557 Z M36.7140999,24.1129903 C36.7140999,23.5670557 36.4411326,23.1576048 36.0316817,22.8846375 C35.6222307,22.6116702 34.9398125,22.4751865 33.8479434,22.4751865 L28.252114,22.4751865 C27.7061795,22.8846375 27.4332122,23.430572 27.4332122,24.1129903 C27.4332122,24.7954085 27.7061795,25.2048594 28.252114,25.6143103 C28.7980486,26.0237613 29.6169505,26.1602449 30.9817869,26.1602449 L33.0290415,26.1602449 C34.393878,26.1602449 35.3492635,26.0237613 35.895198,25.6143103 C36.4411326,25.2048594 36.7140999,24.7954085 36.7140999,24.1129903 Z M31.8006888,13.7402334 C33.7114598,13.7402334 34.8033289,12.9213316 34.8033289,11.2835278 L34.8033289,10.7375933 C34.8033289,9.09978956 33.8479434,8.2808877 31.8006888,8.2808877 C29.8899178,8.2808877 28.7980486,9.09978956 28.7980486,10.7375933 L28.7980486,11.2835278 C28.9345323,12.9213316 29.8899178,13.7402334 31.8006888,13.7402334 Z" id="Mg"></path>
                    </g>
                </g>
            </g>
        </g>
    </g>
</svg>