<?xml version="1.0" encoding="UTF-8"?>
<svg width="67px" height="67px" viewBox="0 0 67 67" version="1.1" xmlns="http://www.w3.org/2000/svg" xmlns:xlink="http://www.w3.org/1999/xlink">
    <!-- Generator: Sketch 53 (72520) - https://sketchapp.com -->
    <title>Group 92</title>
    <desc>Created with Sketch.</desc>
    <g id="Page-1" stroke="none" stroke-width="1" fill="none" fill-rule="evenodd">
        <g id="Artboard" transform="translate(-1170.000000, -1774.000000)" fill-rule="nonzero">
            <g id="Group-92" transform="translate(1169.933333, 1774.375075)">
                <g id="Storage-Accessor-Copy" fill="#325C80">
                    <ellipse id="Oval" cx="33.3256808" cy="33.3155963" rx="33.1926606" ry="33.0697248"></ellipse>
                </g>
                <g id="IBM_Cloud_Database_PostgreSQL_Solid" transform="translate(16.000000, 17.902921)" fill="#FFFFFF">
                    <path d="M15.4226516,2.13912378 C14.8767171,1.59318921 14.1942988,1.04725464 13.375397,0.774287355 C12.5564951,0.50132007 11.6011096,0.228352784 10.6457241,0.228352784 L0.818901856,0.228352784 L0.818901856,22.2022193 L4.91341114,22.2022193 L4.91341114,13.8767171 L10.6457241,13.8767171 C11.6011096,13.8767171 12.5564951,13.7402334 13.375397,13.3307825 C14.1942988,13.0578152 14.8767171,12.5118806 15.4226516,11.9659461 C15.9685862,11.4200115 16.3780371,10.6011096 16.6510044,9.78220777 C16.9239717,8.96330592 17.0604553,8.00792042 17.0604553,7.05253492 C17.0604553,6.09714942 16.9239717,5.14176392 16.6510044,4.32286207 C16.3780371,3.50396021 15.9685862,2.821542 15.4226516,2.13912378 Z M12.8294624,7.73495313 C12.8294624,8.55385499 12.5564951,9.09978956 12.1470442,9.50924049 C11.7375933,9.91869142 11.0551751,10.1916587 10.2362732,10.1916587 L4.91341114,10.1916587 L4.91341114,3.7769275 L10.2362732,3.7769275 C11.0551751,3.7769275 11.6011096,4.04989478 12.1470442,4.45934571 C12.5564951,4.86879664 12.8294624,5.55121485 12.8294624,6.23363306 L12.8294624,7.73495313 Z M33.1655252,20.1549646 C32.2101397,19.3360628 30.8453033,18.9266118 28.7980486,18.9266118 L24.430572,18.9266118 C23.0657356,18.9266118 22.2468338,18.5171609 22.2468338,17.6982591 C22.2468338,17.2888081 22.3833174,17.0158408 22.6562847,16.7428736 C22.929252,16.4699063 23.2022193,16.3334226 23.4751865,16.196939 C24.1576048,16.3334226 24.9765066,16.4699063 25.9318921,16.4699063 C28.1156304,16.4699063 29.8899178,15.9239717 30.9817869,14.9685862 C32.073656,14.0132007 32.7560743,12.6483643 32.7560743,11.0105606 C32.7560743,10.0551751 32.483107,9.09978956 32.073656,8.2808877 C31.6642051,7.46198585 30.9817869,6.91605128 30.162885,6.37011671 L30.162885,5.96066578 L33.7114598,5.96066578 L33.7114598,2.95802564 L31.1182705,2.95802564 C29.6169505,2.95802564 28.7980486,3.7769275 28.7980486,5.27824757 L28.7980486,5.82418214 C28.3885977,5.68769849 27.9791468,5.55121485 27.4332122,5.55121485 C26.8872776,5.55121485 26.4778267,5.41473121 25.9318921,5.41473121 C23.7481538,5.41473121 21.9738665,5.96066578 20.8819973,6.91605128 C19.7901282,7.87143678 19.10771,9.2362732 19.10771,11.0105606 C19.10771,12.1024297 19.3806773,13.0578152 19.7901282,13.8767171 C20.1995791,14.6956189 21.018481,15.3780371 21.9738665,15.7874881 L21.9738665,15.9239717 C21.5644155,16.0604553 21.1549646,16.196939 20.8819973,16.3334226 C20.4725464,16.4699063 20.1995791,16.7428736 19.9266118,16.8793572 C19.6536446,17.1523245 19.3806773,17.4252918 19.2441936,17.6982591 C19.10771,17.9712263 18.9712263,18.3806773 18.9712263,18.7901282 C18.9712263,19.4725464 19.10771,20.018481 19.5171609,20.5644155 C19.9266118,21.1103501 20.3360628,21.3833174 21.018481,21.519801 L21.018481,21.929252 C20.0630955,22.0657356 19.3806773,22.3387029 18.8347427,22.8846375 C18.2888081,23.430572 18.0158408,24.1129903 18.0158408,25.0683758 C18.0158408,25.6143103 18.1523245,26.1602449 18.4252918,26.7061795 C18.6982591,27.252114 19.10771,27.5250813 19.7901282,27.9345323 C20.4725464,28.2074995 21.1549646,28.4804668 22.1103501,28.7534341 C23.0657356,28.8899178 24.2940884,29.0264014 25.6589248,29.0264014 C27.1602449,29.0264014 28.5250813,28.8899178 29.6169505,28.6169505 C30.7088196,28.3439832 31.5277215,28.0710159 32.3466233,27.661565 C33.0290415,27.252114 33.5749761,26.7061795 33.8479434,26.0237613 C34.1209107,25.341343 34.2573943,24.6589248 34.2573943,23.7035393 C34.5303616,22.0657356 33.984427,20.9738665 33.1655252,20.1549646 Z M22.929252,10.7375933 C22.929252,9.09978956 23.8846375,8.2808877 25.9318921,8.2808877 C27.8426631,8.2808877 28.9345323,9.09978956 28.9345323,10.7375933 L28.9345323,11.2835278 C28.9345323,12.9213316 27.9791468,13.7402334 25.9318921,13.7402334 C24.0211211,13.7402334 22.929252,12.9213316 22.929252,11.2835278 L22.929252,10.7375933 Z M29.8899178,25.6143103 C29.3439832,25.8872776 28.3885977,26.1602449 27.0237613,26.1602449 L24.9765066,26.1602449 C23.7481538,26.1602449 22.7927683,26.0237613 22.2468338,25.6143103 C21.7008992,25.2048594 21.4279319,24.7954085 21.4279319,24.1129903 C21.4279319,23.430572 21.7008992,22.8846375 22.2468338,22.4751865 L27.8426631,22.4751865 C28.9345323,22.4751865 29.6169505,22.6116702 30.0264014,22.8846375 C30.4358523,23.1576048 30.7088196,23.5670557 30.7088196,24.1129903 C30.7088196,24.7954085 30.4358523,25.2048594 29.8899178,25.6143103 Z" id="Pg"></path>
                </g>
            </g>
        </g>
    </g>
</svg>