<?xml version="1.0" encoding="UTF-8"?>
<svg width="66px" height="66px" viewBox="0 0 66 66" version="1.1" xmlns="http://www.w3.org/2000/svg" xmlns:xlink="http://www.w3.org/1999/xlink">
    <!-- Generator: Sketch 53 (72520) - https://sketchapp.com -->
    <title>Group 87</title>
    <desc>Created with Sketch.</desc>
    <g id="Page-1" stroke="none" stroke-width="1" fill="none" fill-rule="evenodd">
        <g id="Artboard" transform="translate(-670.000000, -1775.000000)" fill-rule="nonzero">
            <g id="Group-42-Copy-2" transform="translate(666.433333, 1774.375075)">
                <g id="Group-87" transform="translate(3.500000, 0.500000)">
                    <g id="Storage-Accessor-Copy" fill="#325C80">
                        <ellipse id="Oval" cx="32.8282825" cy="32.8183486" rx="32.6972477" ry="32.5761468"></ellipse>
                    </g>
                    <g id="IBM_Cloud_Database_Rabbit_Solid-3" transform="translate(16.000000, 19.108762)" fill="#FFFFFF">
                        <g id="IBM_Cloud_Database_Rabbit_Solid-2">
                            <g id="IBM_Cloud_Database_Rabbit_Solid">
                                <path d="M4.09450928,22.2022193 L0,22.2022193 L0,0.228352784 L9.82682228,0.228352784 C10.7822078,0.228352784 11.7375933,0.364836427 12.5564951,0.637803713 C13.375397,0.910770998 14.0578152,1.45670557 14.6037498,2.00264014 C15.1496843,2.54857471 15.5591353,3.36747657 15.8321026,4.18637842 C16.1050698,5.00528028 16.2415535,5.96066578 16.2415535,6.91605128 C16.2415535,8.41737135 15.9685862,9.78220777 15.286168,10.8740769 C14.6037498,11.9659461 13.6483643,12.7848479 12.2835278,13.1942988 L16.7874881,22.0657356 L12.1470442,22.0657356 L8.05253492,13.6037498 L4.09450928,13.6037498 L4.09450928,22.2022193 Z M9.41737135,10.3281423 C10.2362732,10.3281423 10.7822078,10.0551751 11.3281423,9.64572413 C11.7375933,9.2362732 12.0105606,8.55385499 12.0105606,7.87143678 L12.0105606,6.37011671 C12.0105606,5.55121485 11.7375933,5.00528028 11.3281423,4.59582935 C10.9186914,4.18637842 10.2362732,3.91341114 9.41737135,3.91341114 L4.09450928,3.91341114 L4.09450928,10.3281423 C4.09450928,10.3281423 9.41737135,10.3281423 9.41737135,10.3281423 Z M32.2101397,22.2022193 C31.3912378,22.2022193 30.572336,21.929252 30.162885,21.3833174 C29.6169505,20.8373828 29.3439832,20.1549646 29.2074995,19.3360628 L29.0710159,19.3360628 C28.7980486,20.4279319 28.252114,21.2468338 27.4332122,21.7927683 C26.6143103,22.3387029 25.5224412,22.6116702 24.2940884,22.6116702 C22.6562847,22.6116702 21.2914483,22.2022193 20.4725464,21.2468338 C19.6536446,20.2914483 19.10771,19.1995791 19.10771,17.6982591 C19.10771,16.0604553 19.6536446,14.6956189 20.8819973,13.8767171 C22.1103501,13.0578152 23.8846375,12.6483643 26.0683758,12.6483643 L28.7980486,12.6483643 L28.7980486,11.4200115 C28.7980486,10.464626 28.5250813,9.78220777 28.1156304,9.2362732 C27.5696958,8.69033863 26.8872776,8.41737135 25.7954085,8.41737135 C24.840023,8.41737135 24.1576048,8.55385499 23.4751865,8.96330592 C22.929252,9.37275685 22.3833174,9.91869142 21.9738665,10.464626 L19.6536446,8.55385499 C20.1995791,7.59846949 21.018481,6.77956763 22.1103501,6.23363306 C23.0657356,5.68769849 24.430572,5.41473121 26.0683758,5.41473121 C28.252114,5.41473121 30.0264014,5.96066578 31.1182705,6.91605128 C32.2101397,7.87143678 32.8925579,9.37275685 32.8925579,11.2835278 L32.8925579,18.9266118 L34.5303616,18.9266118 L34.5303616,22.2022193 L32.2101397,22.2022193 Z M25.6589248,19.6090301 C26.6143103,19.6090301 27.2967285,19.4725464 27.9791468,19.0630955 C28.661565,18.6536446 28.9345323,18.10771 28.9345323,17.2888081 L28.9345323,15.1050698 L26.341343,15.1050698 C24.2940884,15.1050698 23.2022193,15.7874881 23.2022193,17.1523245 L23.2022193,17.6982591 C23.2022193,18.3806773 23.4751865,18.7901282 23.8846375,19.1995791 C24.2940884,19.6090301 24.840023,19.6090301 25.6589248,19.6090301 Z" id="Ra"></path>
                            </g>
                        </g>
                    </g>
                </g>
            </g>
        </g>
    </g>
</svg>