<?xml version="1.0" encoding="UTF-8"?>
<svg width="67px" height="67px" viewBox="0 0 67 67" version="1.1" xmlns="http://www.w3.org/2000/svg" xmlns:xlink="http://www.w3.org/1999/xlink">
    <!-- Generator: Sketch 53 (72520) - https://sketchapp.com -->
    <title>Group 88</title>
    <desc>Created with Sketch.</desc>
    <g id="Page-1" stroke="none" stroke-width="1" fill="none" fill-rule="evenodd">
        <g id="Artboard" transform="translate(-770.000000, -1774.000000)" fill-rule="nonzero">
            <g id="Group-42-Copy-3" transform="translate(766.433333, 1774.375075)">
                <g id="Group-88" transform="translate(3.500000, 0.000000)">
                    <g id="Storage-Accessor-Copy" fill="#325C80">
                        <ellipse id="Oval" cx="33.3256808" cy="33.3155963" rx="33.1926606" ry="33.0697248"></ellipse>
                    </g>
                    <g id="IBM_Cloud_Database_Redis_Solid" transform="translate(16.000000, 22.703271)" fill="#FFFFFF">
                        <path d="M4.91341114,23.2022193 L0.818901856,23.2022193 L0.818901856,1.22835278 L10.6457241,1.22835278 C11.6011096,1.22835278 12.5564951,1.36483643 13.375397,1.63780371 C14.1942988,1.910771 14.8767171,2.45670557 15.4226516,3.00264014 C15.9685862,3.54857471 16.3780371,4.36747657 16.6510044,5.18637842 C16.9239717,6.00528028 17.0604553,6.96066578 17.0604553,7.91605128 C17.0604553,9.41737135 16.7874881,10.7822078 16.1050698,11.8740769 C15.4226516,12.9659461 14.4672661,13.7848479 13.1024297,14.1942988 L17.6063899,23.0657356 L12.9659461,23.0657356 L8.87143678,14.6037498 L4.91341114,14.6037498 L4.91341114,23.2022193 Z M10.2362732,11.3281423 C11.0551751,11.3281423 11.6011096,11.0551751 12.1470442,10.6457241 C12.5564951,10.2362732 12.8294624,9.55385499 12.8294624,8.87143678 L12.8294624,7.37011671 C12.8294624,6.55121485 12.5564951,6.00528028 12.1470442,5.59582935 C11.7375933,5.18637842 11.0551751,4.91341114 10.2362732,4.91341114 L4.91341114,4.91341114 L4.91341114,11.3281423 C4.91341114,11.3281423 10.2362732,11.3281423 10.2362732,11.3281423 Z M30.9817869,20.4725464 L30.8453033,20.4725464 C30.572336,21.4279319 30.0264014,22.1103501 29.2074995,22.7927683 C28.3885977,23.3387029 27.4332122,23.6116702 26.341343,23.6116702 C24.2940884,23.6116702 22.6562847,22.929252 21.5644155,21.4279319 C20.4725464,19.9266118 19.9266118,17.7428736 19.9266118,15.0132007 C19.9266118,12.2835278 20.4725464,10.0997896 21.5644155,8.73495313 C22.6562847,7.23363306 24.2940884,6.55121485 26.341343,6.55121485 C27.4332122,6.55121485 28.3885977,6.82418214 29.2074995,7.37011671 C30.0264014,7.91605128 30.572336,8.73495313 30.8453033,9.55385499 L30.9817869,9.55385499 L30.9817869,0 L34.9398125,0 L34.9398125,23.2022193 L30.9817869,23.2022193 C30.9817869,23.2022193 30.9817869,20.4725464 30.9817869,20.4725464 Z M27.5696958,20.1995791 C28.5250813,20.1995791 29.3439832,19.9266118 30.0264014,19.5171609 C30.7088196,19.10771 30.9817869,18.4252918 30.9817869,17.6063899 L30.9817869,12.4200115 C30.9817869,11.6011096 30.7088196,11.0551751 30.0264014,10.5092405 C29.3439832,9.96330592 28.5250813,9.82682228 27.5696958,9.82682228 C26.4778267,9.82682228 25.6589248,10.2362732 24.9765066,10.9186914 C24.2940884,11.6011096 24.0211211,12.5564951 24.0211211,13.7848479 L24.0211211,16.3780371 C24.0211211,17.6063899 24.2940884,18.4252918 24.9765066,19.10771 C25.6589248,19.7901282 26.6143103,20.1995791 27.5696958,20.1995791 Z" id="RD"></path>
                    </g>
                </g>
            </g>
        </g>
    </g>
</svg>