<?xml version="1.0" encoding="UTF-8"?>
<svg width="67px" height="67px" viewBox="0 0 67 67" version="1.1" xmlns="http://www.w3.org/2000/svg" xmlns:xlink="http://www.w3.org/1999/xlink">
    <!-- Generator: Sketch 53 (72520) - https://sketchapp.com -->
    <title>Group 26</title>
    <desc>Created with Sketch.</desc>
    <g id="Page-1" stroke="none" stroke-width="1" fill="none" fill-rule="evenodd">
        <g id="Artboard" transform="translate(-160.000000, -1967.000000)">
            <g id="Group-26" transform="translate(160.087500, 1967.103600)">
                <path d="M33,0 C51.226,0 66,14.774 66,33 C66,51.225 51.226,66 33,66 C14.774,66 0,51.225 0,33 C0,14.774 14.774,0 33,0" id="Fill-1" fill="#C2952D"></path>
                <path d="M25.185,10.749 C22.952,10.749 21.134,12.566 21.134,14.799 L21.134,51.201 C21.134,53.434 22.952,55.251 25.185,55.251 L41.256,55.251 C43.489,55.251 45.307,53.434 45.307,51.201 L45.307,14.799 C45.307,12.566 43.489,10.749 41.256,10.749 L25.185,10.749 Z M41.23,56.679 L25.159,56.679 C22.147,56.679 19.681,54.212 19.681,51.201 L19.681,14.799 C19.681,11.788 22.147,9.321 25.159,9.321 L41.23,9.321 C44.242,9.321 46.709,11.788 46.709,14.799 L46.709,51.201 C46.709,54.238 44.268,56.679 41.23,56.679 L41.23,56.679 Z" id="Fill-3" fill="#FEFEFE"></path>
                <polygon id="Fill-5" fill="#FEFEFE" points="23.1859 48.1115 43.2039 48.1115 43.2039 14.7995 23.1859 14.7995"></polygon>
                <path d="M33.2075,49.8247 C34.2835,49.8247 35.1545,50.7197 35.1545,51.8237 C35.1545,52.9277 34.2835,53.8227 33.2075,53.8227 C32.1325,53.8227 31.2605,52.9277 31.2605,51.8237 C31.2605,50.7197 32.1325,49.8247 33.2075,49.8247" id="Fill-7" fill="#FEFEFE"></path>
            </g>
        </g>
    </g>
</svg>