<?xml version="1.0" encoding="UTF-8"?>
<svg width="66px" height="65px" viewBox="0 0 66 65" version="1.1" xmlns="http://www.w3.org/2000/svg" xmlns:xlink="http://www.w3.org/1999/xlink">
    <!-- Generator: Sketch 53 (72520) - https://sketchapp.com -->
    <title>Group 28</title>
    <desc>Created with Sketch.</desc>
    <g id="Page-1" stroke="none" stroke-width="1" fill="none" fill-rule="evenodd">
        <g id="Artboard" transform="translate(-74.000000, -1967.000000)">
            <g id="Group-28" transform="translate(74.916667, 1967.103600)">
                <g id="Group-16">
                    <path d="M64.505,32.252 C64.505,50.064 50.065,64.504 32.253,64.504 C14.44,64.504 5.68434189e-14,50.064 5.68434189e-14,32.252 C5.68434189e-14,14.44 14.44,-4.97379915e-14 32.253,-4.97379915e-14 C50.065,-4.97379915e-14 64.505,14.44 64.505,32.252" id="Fill-25-Copy" fill="#C4962C"></path>
                    <path d="M45.107,54.9066465 L45.107,54.4276465 C45.107,40.1126465 45.107,25.7976465 45.106,11.4826465 C45.106,10.6536465 44.782,10.3446465 43.913,10.3446465 C36.145,10.3436465 28.378,10.3436465 20.611,10.3446465 C19.941,10.3446465 19.398,10.8876465 19.398,11.5566465 L19.398,54.9066465 L45.107,54.9066465 Z M46.821,56.6206465 L17.684,56.6206465 L17.684,56.0386465 C17.684,41.2896465 17.693,26.5406465 17.672,11.7916465 C17.67,10.0716465 19.067,8.68164648 20.787,8.69064648 C28.431,8.73164648 36.076,8.73164648 43.72,8.69064648 C45.439,8.68164648 46.835,10.0706465 46.833,11.7896465 C46.812,26.5386465 46.821,41.2876465 46.821,56.0376465 L46.821,56.6206465 Z" id="Fill-3" fill="#FEFEFE"></path>
                    <path d="M22.8259,25.7697465 L41.6799,25.7697465 L41.6799,24.0557465 L22.8259,24.0557465 L22.8259,25.7697465 Z M21.1119,27.4837465 L43.3929,27.4837465 L43.3929,22.3417465 L21.1119,22.3417465 L21.1119,27.4837465 Z" id="Fill-4" fill="#FEFEFE"></path>
                    <path d="M23.6829,32.6257465 L41.6789,32.6257465 L41.6789,30.9117465 L23.6829,30.9117465 L23.6829,32.6257465 Z M21.1119,34.3397465 L43.3929,34.3397465 L43.3929,29.1977465 L21.1119,29.1977465 L21.1119,34.3397465 Z" id="Fill-5" fill="#FEFEFE"></path>
                    <path d="M23.6829,40.3387465 L41.6789,40.3387465 L41.6789,38.6247465 L23.6829,38.6247465 L23.6829,40.3387465 Z M21.1119,42.0527465 L43.3929,42.0527465 L43.3929,36.9107465 L21.1119,36.9107465 L21.1119,42.0527465 Z" id="Fill-6" fill="#FEFEFE"></path>
                    <path d="M23.6829,18.0577465 L41.6789,18.0577465 L41.6789,16.3437465 L23.6829,16.3437465 L23.6829,18.0577465 Z M21.1119,19.7717465 L43.3929,19.7717465 L43.3929,14.6297465 L21.1119,14.6297465 L21.1119,19.7717465 Z" id="Fill-7" fill="#FEFEFE"></path>
                </g>
            </g>
        </g>
    </g>
</svg>