<?xml version="1.0" encoding="UTF-8"?>
<svg width="65px" height="65px" viewBox="0 0 65 65" version="1.1" xmlns="http://www.w3.org/2000/svg" xmlns:xlink="http://www.w3.org/1999/xlink">
    <!-- Generator: Sketch 53 (72520) - https://sketchapp.com -->
    <title>Group 29</title>
    <desc>Created with Sketch.</desc>
    <g id="Page-1" stroke="none" stroke-width="1" fill="none" fill-rule="evenodd">
        <g id="Artboard" transform="translate(-246.000000, -1967.000000)">
            <g id="Group-29" transform="translate(246.258333, 1967.103600)">
                <path d="M64.505,32.252 C64.505,50.064 50.065,64.504 32.253,64.504 C14.44,64.504 5.68434189e-14,50.064 5.68434189e-14,32.252 C5.68434189e-14,14.44 14.44,-4.97379915e-14 32.253,-4.97379915e-14 C50.065,-4.97379915e-14 64.505,14.44 64.505,32.252" id="Fill-18" fill="#C4962C"></path>
                <path d="M33.7892,32.252 C33.7892,31.403 33.1012,30.715 32.2522,30.715 C31.4042,30.715 30.7162,31.403 30.7162,32.252 C30.7162,33.101 31.4042,33.789 32.2522,33.789 C33.1012,33.789 33.7892,33.101 33.7892,32.252" id="Fill-19" fill="#FEFEFE"></path>
                <path d="M32.2526,28.5562 C30.2146,28.5562 28.5566,30.2142 28.5566,32.2522 C28.5566,34.2892 30.2146,35.9482 32.2526,35.9482 C34.2906,35.9482 35.9486,34.2892 35.9486,32.2522 C35.9486,30.2142 34.2906,28.5562 32.2526,28.5562 M32.2526,37.3792 C29.4256,37.3792 27.1256,35.0792 27.1256,32.2522 C27.1256,29.4252 29.4256,27.1252 32.2526,27.1252 C35.0796,27.1252 37.3796,29.4252 37.3796,32.2522 C37.3796,35.0792 35.0796,37.3792 32.2526,37.3792" id="Fill-20" fill="#FEFEFE"></path>
                <path d="M32.2526,25.0044 C28.2566,25.0044 25.0046,28.2554 25.0046,32.2524 C25.0046,36.2484 28.2566,39.4994 32.2526,39.4994 C36.2486,39.4994 39.5006,36.2484 39.5006,32.2524 C39.5006,28.2554 36.2486,25.0044 32.2526,25.0044 M32.2526,40.9304 C27.4666,40.9304 23.5736,37.0374 23.5736,32.2524 C23.5736,27.4664 27.4666,23.5734 32.2526,23.5734 C37.0386,23.5734 40.9316,27.4664 40.9316,32.2524 C40.9316,37.0374 37.0386,40.9304 32.2526,40.9304" id="Fill-21" fill="#FEFEFE"></path>
                <path d="M32.2526,21.4986 C26.3236,21.4986 21.4996,26.3226 21.4996,32.2516 C21.4996,38.1816 26.3236,43.0056 32.2526,43.0056 C38.1826,43.0056 43.0066,38.1816 43.0066,32.2516 C43.0066,26.3226 38.1826,21.4986 32.2526,21.4986 M32.2526,44.4366 C25.5346,44.4366 20.0676,38.9706 20.0676,32.2516 C20.0676,25.5336 25.5346,20.0676 32.2526,20.0676 C38.9716,20.0676 44.4376,25.5336 44.4376,32.2516 C44.4376,38.9706 38.9716,44.4366 32.2526,44.4366" id="Fill-22" fill="#FEFEFE"></path>
                <path d="M32.2526,18.2637 C24.5396,18.2637 18.2646,24.5387 18.2646,32.2517 C18.2646,39.9647 24.5396,46.2407 32.2526,46.2407 C39.9656,46.2407 46.2416,39.9647 46.2416,32.2517 C46.2416,24.5387 39.9656,18.2637 32.2526,18.2637 M32.2526,47.6717 C23.7506,47.6717 16.8336,40.7547 16.8336,32.2517 C16.8336,23.7497 23.7506,16.8327 32.2526,16.8327 C40.7546,16.8327 47.6726,23.7497 47.6726,32.2517 C47.6726,40.7547 40.7546,47.6717 32.2526,47.6717" id="Fill-23" fill="#FEFEFE"></path>
                <path d="M32.2526,15.1782 C22.8376,15.1782 15.1796,22.8372 15.1796,32.2522 C15.1796,41.6662 22.8376,49.3252 32.2526,49.3252 C41.6676,49.3252 49.3266,41.6662 49.3266,32.2522 C49.3266,22.8372 41.6676,15.1782 32.2526,15.1782 M32.2526,50.7562 C22.0486,50.7562 13.7486,42.4552 13.7486,32.2522 C13.7486,22.0482 22.0486,13.7472 32.2526,13.7472 C42.4566,13.7472 50.7576,22.0482 50.7576,32.2522 C50.7576,42.4552 42.4566,50.7562 32.2526,50.7562" id="Fill-24" fill="#FEFEFE"></path>
            </g>
        </g>
    </g>
</svg>