<?xml version="1.0" encoding="UTF-8"?>
<svg width="65px" height="65px" viewBox="0 0 65 65" version="1.1" xmlns="http://www.w3.org/2000/svg" xmlns:xlink="http://www.w3.org/1999/xlink">
    <!-- Generator: Sketch 53 (72520) - https://sketchapp.com -->
    <title>Group 31</title>
    <desc>Created with Sketch.</desc>
    <g id="Page-1" stroke="none" stroke-width="1" fill="none" fill-rule="evenodd">
        <g id="Artboard" transform="translate(-331.000000, -1967.000000)">
            <g id="Group-31" transform="translate(331.429167, 1967.103600)">
                <path d="M64.505,32.252 C64.505,50.064 50.065,64.504 32.253,64.504 C14.44,64.504 5.68434189e-14,50.064 5.68434189e-14,32.252 C5.68434189e-14,14.44 14.44,-4.97379915e-14 32.253,-4.97379915e-14 C50.065,-4.97379915e-14 64.505,14.44 64.505,32.252" id="Fill-25" fill="#C4962C"></path>
                <g id="Group-37" transform="translate(7.252500, 12.521500)" fill="#FEFEFE">
                    <path d="M8.918,38.52 C8.188,37.791 7.405,37.119 6.709,36.354 C3.534,32.866 1.462,28.826 0.598,24.181 C-0.405,18.791 0.32,13.628 2.725,8.71 C4.149,5.799 6.117,3.291 8.534,1.131 C8.75,0.938 8.867,0.901 9.089,1.136 C9.777,1.86 10.489,2.561 11.205,3.256 C11.381,3.428 11.383,3.514 11.194,3.677 C7.907,6.515 5.676,10.023 4.545,14.219 C3.871,16.721 3.668,19.262 3.952,21.843 C4.499,26.807 6.569,31.034 10.073,34.571 C10.476,34.978 10.906,35.361 11.346,35.727 C11.552,35.898 11.563,35.989 11.368,36.178 C10.668,36.854 9.985,37.549 9.299,38.241 C9.215,38.326 9.095,38.386 9.068,38.52 L8.918,38.52 Z" id="Fill-27"></path>
                    <path d="M40.6876,38.52 C40.0696,37.786 39.3446,37.157 38.6836,36.465 C38.5886,36.366 38.4986,36.259 38.3906,36.176 C38.1746,36.01 38.2046,35.901 38.4096,35.729 C40.4266,34.036 42.0716,32.035 43.3376,29.725 C44.6806,27.276 45.5296,24.667 45.7936,21.884 C46.4336,15.159 44.3206,9.413 39.5916,4.613 C39.2506,4.267 38.8796,3.95 38.5126,3.632 C38.3816,3.518 38.3526,3.453 38.4926,3.316 C39.2586,2.564 40.0206,1.808 40.7686,1.038 C40.9516,0.849 41.0386,0.977 41.1546,1.08 C43.4476,3.106 45.3246,5.462 46.7546,8.169 C48.0956,10.709 48.9576,13.405 49.3586,16.247 C49.4456,16.863 49.5286,17.481 49.5306,18.106 C49.5306,18.173 49.4986,18.261 49.6046,18.289 L49.6046,21.062 C49.5206,21.079 49.5326,21.147 49.5296,21.207 C49.4816,22.214 49.3456,23.211 49.1586,24.202 C48.2856,28.811 46.2366,32.829 43.0956,36.303 C42.3866,37.087 41.5876,37.778 40.8376,38.52 L40.6876,38.52 Z" id="Fill-29"></path>
                    <path d="M17.773,9.8486 C11.034,14.8186 11.159,24.7066 17.925,29.5466 C17.941,29.6166 17.884,29.6506 17.844,29.6906 C17.077,30.4596 16.305,31.2236 15.544,31.9986 C15.401,32.1446 15.311,32.1556 15.149,32.0256 C12.175,29.6246 10.191,26.5886 9.456,22.8276 C8.424,17.5496 9.771,12.8976 13.366,8.9006 C13.858,8.3536 14.411,7.8656 14.977,7.3926 C15.128,7.2666 15.209,7.2846 15.34,7.4166 C16.138,8.2236 16.945,9.0226 17.773,9.8486" id="Fill-31"></path>
                    <path d="M40.647,19.6719 C40.533,24.6969 38.53,28.8029 34.645,31.9959 C34.475,32.1349 34.369,32.1679 34.19,31.9829 C33.471,31.2359 32.737,30.5049 31.994,29.7829 C31.812,29.6049 31.822,29.5319 32.024,29.3799 C34.42,27.5919 36.025,25.2589 36.659,22.3319 C37.542,18.2589 36.565,14.6399 33.808,11.5109 C33.32,10.9569 32.773,10.4629 32.177,10.0279 C31.999,9.8979 32.002,9.8249 32.158,9.6729 C32.907,8.9399 33.65,8.1999 34.381,7.4469 C34.554,7.2689 34.652,7.2879 34.828,7.4359 C37.952,10.0539 39.864,13.3529 40.475,17.3959 C40.588,18.1499 40.622,18.9069 40.647,19.6719" id="Fill-33"></path>
                    <path d="M29.5235,19.6987 C29.6145,22.2197 27.3875,24.4037 24.8255,24.3767 C22.3505,24.3497 20.1735,22.2127 20.2145,19.6327 C20.2535,17.1857 22.3735,14.9847 24.9855,15.0537 C27.4815,15.1187 29.5235,17.1517 29.5235,19.6987" id="Fill-35"></path>
                </g>
            </g>
        </g>
    </g>
</svg>