<?xml version="1.0" encoding="UTF-8"?>
<svg width="65px" height="65px" viewBox="0 0 65 65" version="1.1" xmlns="http://www.w3.org/2000/svg" xmlns:xlink="http://www.w3.org/1999/xlink">
    <!-- Generator: Sketch 53 (72520) - https://sketchapp.com -->
    <title>Group 34</title>
    <desc>Created with Sketch.</desc>
    <g id="Page-1" stroke="none" stroke-width="1" fill="none" fill-rule="evenodd">
        <g id="Artboard" transform="translate(-416.000000, -1967.000000)">
            <g id="Group-34" transform="translate(416.600000, 1967.103600)">
                <g id="Group-33">
                    <path d="M32,0 C49.673,0 64,14.327 64,32 C64,49.673 49.673,64 32,64 C14.327,64 0,49.673 0,32 C0,14.327 14.327,0 32,0" id="Fill-9" fill="#C3962C"></path>
                    <polygon id="Fill-10" fill="#FEFEFE" points="10.6136 46.776 53.3876 46.776 53.3876 13.228 10.6136 13.228"></polygon>
                    <g id="Fill-26" transform="translate(13.934600, 16.545000)" fill="#C3962C">
                        <polygon id="Fill-11" points="2.13162821e-14 25.889 36.152 25.889 36.152 6.03961325e-14 2.13162821e-14 6.03961325e-14"></polygon>
                    </g>
                    <polygon id="Fill-12" fill="#FEFEFE" points="13.924 52.0902 50.076 52.0902 50.076 49.0002 13.924 49.0002"></polygon>
                </g>
            </g>
        </g>
    </g>
</svg>