<?xml version="1.0" encoding="UTF-8"?>
<svg width="66px" height="65px" viewBox="0 0 66 65" version="1.1" xmlns="http://www.w3.org/2000/svg" xmlns:xlink="http://www.w3.org/1999/xlink">
    <!-- Generator: Sketch 53 (72520) - https://sketchapp.com -->
    <title>Group 53</title>
    <desc>Created with Sketch.</desc>
    <defs>
        <polygon id="path-1" points="0 0.213394757 14.7285813 0.213394757 14.7285813 14.2689617 0 14.2689617"></polygon>
        <polygon id="path-3" points="0.0245977098 0.204991315 14.7763659 0.204991315 14.7763659 14.2413788 0.0245977098 14.2413788"></polygon>
        <polygon id="path-5" points="0.514066637 0.148397201 15.2474852 0.148397201 15.2474852 14.1439507 0.514066637 14.1439507"></polygon>
    </defs>
    <g id="Page-1" stroke="none" stroke-width="1" fill="none" fill-rule="evenodd">
        <g id="Artboard" transform="translate(-151.000000, -469.000000)">
            <g id="Group-53" transform="translate(151.833333, 469.000000)">
                <g id="Group-3" fill="#335E80">
                    <path d="M32.2526,0.4952 C50.0646,0.4952 64.5046,14.9352 64.5046,32.7472 C64.5046,50.5602 50.0646,65.0002 32.2526,65.0002 C14.4406,65.0002 0.0006,50.5602 0.0006,32.7472 C0.0006,14.9352 14.4406,0.4952 32.2526,0.4952" id="Fill-1"></path>
                </g>
                <g id="Group-16" transform="translate(9.500000, 9.000000)">
                    <g id="Group-3" transform="translate(0.000000, 28.960513)">
                        <mask id="mask-2" fill="white">
                            <use xlink:href="#path-1"></use>
                        </mask>
                        <g id="Clip-2"></g>
                        <path d="M-5.70758466e-05,2.59683687 C0.235666171,2.18360774 0.428011774,1.73670386 0.716244799,1.36456934 C1.33608849,0.565507488 2.19793378,0.224193926 3.19790261,0.223052409 C5.95580752,0.220769375 8.71371243,0.199080553 11.4710466,0.229330752 C13.3602571,0.249307298 14.7175207,1.67049588 14.7232283,3.56598475 C14.7300774,6.01739236 14.7306482,8.46879997 14.7232283,10.9196368 C14.7163792,12.9452586 13.4481539,14.2248991 11.4270982,14.2351728 C8.97626132,14.2465879 6.52142916,14.1575496 4.07458761,14.2625692 C2.02784775,14.3510367 0.707112664,13.5291445 -5.70758466e-05,11.6433586 L-5.70758466e-05,2.59683687 Z" id="Fill-1" fill="#FFFFFF" mask="url(#mask-2)"></path>
                    </g>
                    <path d="M15.411506,14.8620939 C16.7390901,14.8620939 18.0666743,14.8563863 19.3948293,14.8638061 C21.3924839,14.8740798 22.8056819,16.286707 22.8142433,18.2963475 C22.8239462,20.722071 22.8279415,23.1477945 22.812531,25.573518 C22.7994035,27.5677481 21.5597162,28.8542377 19.5757597,28.8782095 C16.8441097,28.9107427 14.1113182,28.9061767 11.3790974,28.8804925 C9.47790094,28.8616575 8.10979289,27.4627285 8.10009,25.571235 C8.08810407,23.094714 8.08753331,20.6176222 8.10009,18.1405305 C8.11093441,16.1234701 9.38543807,14.8763628 11.4281826,14.8638061 C12.7557668,14.8552448 14.083351,14.8620939 15.411506,14.8620939" id="Fill-4" fill="#FFFFFF"></path>
                    <path d="M30.526617,28.8874558 C29.224717,28.8874558 27.9222462,28.8960172 26.6197753,28.8857435 C24.5382192,28.8697623 23.1615498,27.4942344 23.1581252,25.4303718 C23.1535592,23.0297617 23.1518469,20.6297223 23.158696,18.2291122 C23.1638328,16.157259 24.4309166,14.8724817 26.4919254,14.8650618 C29.172778,14.8542174 31.8542012,14.8530759 34.5350537,14.8650618 C36.4482361,14.8736232 37.8682832,16.2993778 37.8745615,18.2068526 C37.8825521,20.6839444 37.8836937,23.1610361 37.8739908,25.6381278 C37.8660002,27.5421781 36.6502846,28.8166817 34.739956,28.8754699 C33.3370317,28.9182768 31.9312536,28.8834605 30.526617,28.8834605 L30.526617,28.8874558 Z" id="Fill-6" fill="#FFFFFF"></path>
                    <g id="Group-10" transform="translate(30.250199, 28.960513)">
                        <mask id="mask-4" fill="white">
                            <use xlink:href="#path-3"></use>
                        </mask>
                        <g id="Clip-9"></g>
                        <path d="M7.35570681,14.2371704 C6.02812262,14.2377412 4.70053842,14.245161 3.37238347,14.2354581 C1.48830978,14.2223307 0.0665504372,12.8468028 0.0460031324,10.9627291 C0.0191774845,8.4354106 0.0146114167,5.90695059 0.0494276832,3.38020286 C0.0751118142,1.49498765 1.29710569,0.259295571 3.18346242,0.232469923 C5.96590994,0.193658348 8.74949898,0.198795174 11.5325173,0.230186889 C13.3127129,0.250163436 14.7105004,1.60400252 14.7418921,3.37335376 C14.7881236,5.950899 14.7881236,8.53129802 14.7407506,11.109414 C14.7065051,13.0077567 13.4051758,14.2171939 11.4919934,14.2348874 C10.113041,14.2480148 8.73465926,14.2371704 7.35570681,14.2371704" id="Fill-8" fill="#FFFFFF" mask="url(#mask-4)"></path>
                    </g>
                    <path d="M22.532631,43.198254 C21.1793627,43.198254 19.8260944,43.2068154 18.4728261,43.195971 C16.5921769,43.1811313 15.1721299,41.78049 15.1618562,39.9135391 C15.148158,37.4107632 15.1487288,34.9091288 15.1618562,32.406353 C15.1721299,30.4914583 16.3849916,29.22095 18.3061646,29.1935536 C21.0891829,29.1541712 23.8727719,29.1564543 26.6557902,29.1912705 C28.4862126,29.2141009 29.8623113,30.6535537 29.8737264,32.4976743 C29.8897077,34.9747661 29.8914199,37.4518578 29.8731557,39.9283788 C29.8594575,41.8946417 28.5598404,43.1782775 26.592436,43.1954003 C25.2391677,43.2079569 23.8858994,43.198254 22.532631,43.198254" id="Fill-11" fill="#FFFFFF"></path>
                    <g id="Group-15" transform="translate(15.410479, 0.422590)">
                        <mask id="mask-6" fill="white">
                            <use xlink:href="#path-5"></use>
                        </mask>
                        <g id="Clip-14"></g>
                        <path d="M7.89689999,14.1396278 C6.51794753,14.1396278 5.13899508,14.151043 3.76061338,14.136774 C1.91991733,14.1190805 0.532403497,12.7247175 0.523271362,10.8754601 C0.511285434,8.37268424 0.510714676,5.87047913 0.523271362,3.36827401 C0.533545014,1.43169054 1.80690715,0.163465225 3.74577366,0.156045365 C6.47799444,0.144630195 9.21021522,0.145771712 11.9418652,0.155474606 C13.8013963,0.161752949 15.2248679,1.58351229 15.2357123,3.45959537 C15.2511228,5.93611635 15.2516936,8.4132081 15.2357123,10.8902998 C15.2231557,12.8674072 13.946369,14.122505 11.956705,14.1379155 C10.6040074,14.1481892 9.25016831,14.1396278 7.89689999,14.1396278" id="Fill-13" fill="#FFFFFF" mask="url(#mask-6)"></path>
                    </g>
                </g>
            </g>
        </g>
    </g>
</svg>