<?xml version="1.0" encoding="UTF-8"?>
<svg width="65px" height="65px" viewBox="0 0 65 65" version="1.1" xmlns="http://www.w3.org/2000/svg" xmlns:xlink="http://www.w3.org/1999/xlink">
    <!-- Generator: Sketch 53 (72520) - https://sketchapp.com -->
    <title>Group 52</title>
    <desc>Created with Sketch.</desc>
    <g id="Page-1" stroke="none" stroke-width="1" fill="none" fill-rule="evenodd">
        <g id="Artboard" transform="translate(-43.000000, -469.000000)">
            <g id="Group-52" transform="translate(43.000000, 469.000000)">
                <g id="Group-3" fill="#335E80">
                    <path d="M32.2526,0.4952 C50.0646,0.4952 64.5046,14.9352 64.5046,32.7472 C64.5046,50.5602 50.0646,65.0002 32.2526,65.0002 C14.4406,65.0002 0.0006,50.5602 0.0006,32.7472 C0.0006,14.9352 14.4406,0.4952 32.2526,0.4952" id="Fill-1"></path>
                </g>
                <g id="Group-3" transform="translate(16.000000, 9.282400)" fill="#FEFEFE">
                    <path d="M16.1234,0.7177 C24.6694,0.7177 31.5984,3.6467 31.5984,7.2597 C31.5984,10.8737 24.6694,13.8027 16.1234,13.8027 C7.5774,13.8027 0.6494,10.8737 0.6494,7.2597 C0.6494,3.6467 7.5774,0.7177 16.1234,0.7177" id="Fill-1"></path>
                </g>
                <g id="Group-6" transform="translate(16.000000, 18.282400)" fill="#FEFEFE">
                    <path d="M32.1693,0.5195 C31.3643,3.9725 24.4833,6.6725 16.1233,6.6725 C7.7633,6.6725 0.8823,3.9725 0.0783,0.5195 L0.0003,0.5195 L0.0003,26.1715 C0.0003,29.9365 7.2183,32.9995 16.1233,32.9995 C25.0293,32.9995 32.2473,29.9365 32.2473,26.1715 L32.2473,0.5195 L32.1693,0.5195 Z" id="Fill-4"></path>
                </g>
            </g>
        </g>
    </g>
</svg>