<?xml version="1.0" encoding="UTF-8"?>
<svg width="65px" height="65px" viewBox="0 0 65 65" version="1.1" xmlns="http://www.w3.org/2000/svg" xmlns:xlink="http://www.w3.org/1999/xlink">
    <!-- Generator: Sketch 53 (72520) - https://sketchapp.com -->
    <title>Group 55</title>
    <desc>Created with Sketch.</desc>
    <defs>
        <polygon id="path-1" points="0 0.0589215668 38.3078119 0.0589215668 38.3078119 32.4851081 0 32.4851081"></polygon>
    </defs>
    <g id="Page-1" stroke="none" stroke-width="1" fill="none" fill-rule="evenodd">
        <g id="Artboard" transform="translate(-247.000000, -469.000000)">
            <g id="Group-55" transform="translate(247.500000, 469.000000)">
                <g id="Group-54">
                    <g id="Group-3" fill="#335E80">
                        <path d="M32.2526,0.4952 C50.0646,0.4952 64.5046,14.9352 64.5046,32.7472 C64.5046,50.5602 50.0646,65.0002 32.2526,65.0002 C14.4406,65.0002 0.0006,50.5602 0.0006,32.7472 C0.0006,14.9352 14.4406,0.4952 32.2526,0.4952" id="Fill-1"></path>
                    </g>
                    <g id="Group-3" transform="translate(13.000000, 16.499840)">
                        <mask id="mask-2" fill="white">
                            <use xlink:href="#path-1"></use>
                        </mask>
                        <g id="Clip-2"></g>
                        <path d="M38.3078119,1.98199381 L38.3078119,26.6226346 C38.2949298,26.7901018 38.2708459,26.957569 38.2708459,27.1255963 C38.2686055,28.1051953 38.271406,29.0842343 38.2730862,30.0638333 C38.2747665,30.8160355 37.9874399,31.4366162 37.4139067,31.9205348 C36.9154258,32.3422833 36.32565,32.4856666 35.6826656,32.4851065 C24.6533549,32.482306 13.6246042,32.4834262 2.59529339,32.4834262 C2.52920266,32.4834262 2.46367202,32.4845464 2.39758128,32.4817459 C0.999034209,32.4318978 0.00263242742,31.404691 0.000392063658,30.0044637 C-0.00128820916,28.9688555 0.00207233648,27.9326873 0.00207233648,26.8965191 C0.00207233648,19.474754 -0.000168027282,12.052989 0.00655306399,4.63122395 C0.00711315493,4.36350048 0.0547208848,4.08513529 0.137614344,3.82973382 C0.467507907,2.81428894 1.37429514,2.20378982 2.52752238,2.20378982 C9.54434167,2.20266964 16.561161,2.20378982 23.5774202,2.20378982 L23.9403591,2.20378982 C23.9482004,2.11417527 23.9538013,2.05928636 23.958282,2.00327726 C24.0534975,0.872453656 24.8656293,0.0732038858 25.9975731,0.0687231583 C29.4074068,0.0552809757 32.8166803,0.0564011576 36.2265139,0.0676029764 C37.2419588,0.070963522 37.9964013,0.701065829 38.2400409,1.68346534 C38.2646849,1.78260143 38.2854082,1.88229762 38.3078119,1.98199381" id="Fill-1" fill="#FFFFFF" mask="url(#mask-2)"></path>
                    </g>
                </g>
                <path d="M49.442653,13.000168 C49.5675533,13.0348937 49.6924536,13.0696193 49.8167938,13.1054651 C50.6530096,13.350785 51.2254225,14.0553794 51.265749,14.92184 C51.2864724,15.3682325 51.2691096,15.8168654 51.2181413,16.2755798 C51.1862161,16.1921263 51.1604519,16.1069925 51.1234859,16.0263394 C50.785191,15.3027019 50.22454,14.8859942 49.4247301,14.804781 C49.3031904,14.7918989 49.1805305,14.7896586 49.0578706,14.7896586 C45.7628556,14.7890985 42.4672805,14.7879783 39.1711453,14.7896586 C38.0935303,14.7902187 37.3189246,15.3088629 37.0467204,16.2178905 C36.98287,16.4312851 36.964387,16.6575619 36.9178994,16.9191243 L36.5499197,16.9191243 C29.6484791,16.9191243 22.7464785,16.9336867 15.8450379,16.9068023 C14.5019399,16.9012014 13.4366469,17.4293672 13.0350617,18.7887079 C13.0350617,18.2773449 12.981293,17.723975 13.0462635,17.1846074 C13.1823656,16.0420219 14.1759669,15.1890034 15.3347951,15.1525975 C15.4288904,15.1497971 15.5229856,15.1514773 15.6170809,15.1514773 L36.5487995,15.1514773 L36.9330219,15.1514773 C36.9481444,15.0120147 36.9559856,14.8837539 36.9772691,14.7582935 C37.1290537,13.8464654 37.7546753,13.2130026 38.6592222,13.0505762 C38.713551,13.0404946 38.7650794,13.0169708 38.8177279,13.000168 L49.442653,13.000168 Z" id="Fill-4" fill="#FFFFFF"></path>
            </g>
        </g>
    </g>
</svg>