<?xml version="1.0" encoding="UTF-8"?>
<svg width="65px" height="65px" viewBox="0 0 65 65" version="1.1" xmlns="http://www.w3.org/2000/svg" xmlns:xlink="http://www.w3.org/1999/xlink">
    <!-- Generator: Sketch 53 (72520) - https://sketchapp.com -->
    <title>Group 56</title>
    <desc>Created with Sketch.</desc>
    <defs>
        <polygon id="path-1" points="12.4994 5.50486937 51.8901812 5.50486937 51.8901812 56.4091255 12.4994 56.4091255"></polygon>
    </defs>
    <g id="Page-1" stroke="none" stroke-width="1" fill="none" fill-rule="evenodd">
        <g id="Artboard" transform="translate(-358.000000, -469.000000)">
            <g id="Group-56" transform="translate(358.200600, 469.495200)">
                <path d="M32.252,0 C50.064,0 64.504,14.44 64.504,32.252 C64.504,50.065 50.064,64.505 32.252,64.505 C14.44,64.505 -5.68434189e-14,50.065 -5.68434189e-14,32.252 C-5.68434189e-14,14.44 14.44,0 32.252,0" id="Fill-1" fill="#335E80"></path>
                <mask id="mask-2" fill="white">
                    <use xlink:href="#path-1"></use>
                </mask>
                <g id="Clip-2"></g>
                <path d="M32.1535705,27.2255564 C33.0789075,27.2255564 34.0056417,27.2535016 34.9299307,27.2203166 C37.8554486,27.1165699 40.7596582,26.8102202 43.6226486,26.1797056 C45.2116851,25.8300407 46.7773175,25.3996839 48.242347,24.6738062 C48.6028406,24.4953059 48.9518069,24.2699974 49.25641,24.00836 C49.8132191,23.5294484 49.8107738,23.0005846 49.2693347,22.4996661 C49.0366906,22.2844877 48.7691148,22.0986518 48.4942035,21.9397132 C47.6285995,21.4394933 46.6885913,21.1128833 45.7314667,20.8428623 C42.081119,19.81308 38.3402986,19.3946 34.5652452,19.237408 C31.6309945,19.1151475 28.7019834,19.2206408 25.780308,19.5322303 C23.335099,19.7928197 20.9104997,20.1742723 18.5596059,20.9081843 C17.6325224,21.1977669 16.7330348,21.5900483 15.8457733,21.9907133 C15.5118276,22.1412683 15.215608,22.416529 14.9595597,22.6896937 C14.6472716,23.0225915 14.6497168,23.4281468 14.9518747,23.7711747 C15.1712449,24.0198874 15.4300877,24.2633604 15.7207183,24.4135661 C16.3634589,24.7454158 17.0215695,25.0597999 17.7006389,25.305718 C20.261122,26.2338495 22.9312902,26.6621104 25.6252119,26.9534395 C27.7944616,27.1878303 29.9713962,27.2954195 32.1535705,27.2255564 M49.5686982,20.0404845 C49.5484379,19.7868814 49.5571707,19.5814838 49.5124584,19.387963 C49.1638414,17.8845088 48.5874707,16.4739725 47.7344421,15.1842994 C46.0067273,12.5710697 43.6097239,10.7644096 40.7928432,9.47648307 C38.4534768,8.4068788 35.9998843,7.82177523 33.4208874,7.75330938 C31.5936177,7.70475451 29.7743822,7.65689828 27.9705166,8.06035776 C24.9230876,8.74222175 22.1037617,9.90753848 19.6826555,11.9192468 C17.7041321,13.5631259 16.1605066,15.534663 15.3120191,17.99105 C15.0797242,18.6634825 14.9382514,19.3673534 14.7548608,20.056553 C15.3231972,19.8693198 15.8157321,19.6405181 16.3163013,19.4316274 C18.0076873,18.7256607 19.7752241,18.2876189 21.5707061,17.9519267 C23.5359555,17.5840974 25.5148282,17.29696 27.511516,17.2033434 C29.3433268,17.1174118 31.1789801,17.1174118 33.0132362,17.0908638 C36.6167755,17.0384665 40.1829382,17.3863848 43.7085802,18.1339201 C45.605713,18.5363316 47.4766472,19.0236268 49.218684,19.9108884 C49.3070608,19.9559501 49.4066157,19.9811008 49.5686982,20.0404845 M33.5487369,56.4091255 L30.9002263,56.4091255 C30.8244248,56.3962008 30.7489726,56.3738446 30.6731712,56.3724473 C29.169717,56.34555 27.6945573,56.1216387 26.2431511,55.7345971 C24.8430943,55.3611788 23.4748253,54.9035754 22.2738783,54.0662659 C21.4180552,53.469635 20.6729651,52.7647161 20.3732523,51.7125777 C20.243307,51.2556729 20.1385123,50.7917818 20.0110121,50.3341784 C17.6947006,42.0208172 15.3766425,33.708504 13.0599816,25.3951428 C12.7665565,24.3423057 12.4151451,23.3128727 12.5174945,22.1761998 C12.6289262,20.9375268 12.5814193,19.6785935 12.9090773,18.4682151 C13.7945923,15.1958269 15.55654,12.4757065 18.1858383,10.3354501 C21.7872818,7.40364449 25.9354041,5.83556691 30.5540546,5.55960761 C32.9063456,5.41883344 35.2589859,5.53410758 37.5686605,6.08707412 C40.9636585,6.89958213 44.0372861,8.35133763 46.6588995,10.6868615 C48.8836903,12.668878 50.4793638,15.068676 51.3809473,17.9159472 C51.7505232,19.0819625 51.8242288,20.2930396 51.8633521,21.5041167 C51.8951398,22.48744 51.9496331,23.4683181 51.6757697,24.441162 C50.05774,30.195088 48.4655596,35.956699 46.8464819,41.7102757 C45.8631586,45.2023834 44.8497942,48.6857583 43.8388749,52.1698317 C43.7662173,52.420291 43.6352239,52.6679557 43.4773333,52.8764971 C42.9170311,53.6156489 42.1691465,54.1333345 41.3517481,54.5448283 C39.3023136,55.5760078 37.1169954,56.1198922 34.8380607,56.3113171 C34.4084025,56.3476459 33.9787444,56.3769884 33.5487369,56.4091255" id="Fill-1" fill="#FFFFFF" mask="url(#mask-2)"></path>
            </g>
        </g>
    </g>
</svg>