<?xml version="1.0" encoding="UTF-8"?>
<svg width="67px" height="67px" viewBox="0 0 67 67" version="1.1" xmlns="http://www.w3.org/2000/svg" xmlns:xlink="http://www.w3.org/1999/xlink">
    <!-- Generator: Sketch 53 (72520) - https://sketchapp.com -->
    <title>Group 82</title>
    <desc>Created with Sketch.</desc>
    <g id="Page-1" stroke="none" stroke-width="1" fill="none" fill-rule="evenodd">
        <g id="Artboard" transform="translate(-1221.000000, -1286.000000)" fill-rule="nonzero">
            <g id="Group-82" transform="translate(1221.402132, 1286.873639)">
                <g id="Group-69-Copy-10" fill="#38B0DE">
                    <ellipse id="Oval" cx="33" cy="32.8777778" rx="33" ry="32.8777778"></ellipse>
                </g>
                <g id="CIS_Solid_Icon" transform="translate(4.500000, 7.249950)">
                    <g id="Group">
                        <polygon id="Path" fill="#161616" points="28.9857579 1.20957472 28.9964226 1.20957472 29.0070873 1.20957472"></polygon>
                        <path d="M36.1168902,38.5360396 L13.8905089,38.5360396 C8.82925998,38.5300109 4.60887802,34.6632038 4.16115736,29.6217929 C3.71343671,24.580382 7.18633057,20.0303458 12.167306,19.1324812 L14.5648737,18.6985344 L15.0252335,16.3061923 C16.0312822,11.1390363 19.802182,6.94638932 24.8341721,5.40019682 C29.8661622,3.85400431 35.3407106,5.20577868 39.0746748,8.9164588 L41.5781253,6.41300835 C36.9210208,1.76194172 30.0767053,0.0618213191 23.7845525,1.99310457 C17.4923997,3.92438781 12.780445,9.17153441 11.5346047,15.6344226 C4.74412568,16.8594912 0.00992716827,23.0627242 0.620045503,29.9357988 C1.23016384,36.8088733 6.98303813,42.0811757 13.8831325,42.090941 L36.1168902,42.090941 L36.1168902,38.5360396 Z" id="Path" fill="#FFFFFF"></path>
                    </g>
                    <path d="M46.7815944,33.2036875 C45.5476497,33.208984 44.3545239,33.6462513 43.4093794,34.4395667 L34.2322592,28.9332022 C34.3751662,28.2325032 34.3751662,27.5101675 34.2322592,26.8094685 L43.4093794,21.303104 C44.3545239,22.0964194 45.5476497,22.5336867 46.7815944,22.5389832 C49.0372237,22.5398696 51.0496149,21.1219449 51.8077774,18.9975499 C52.5659398,16.8731549 51.9059842,14.5015126 50.159461,13.074095 C48.4129377,11.6466775 45.9573864,11.4720445 44.0264337,12.6379287 C42.095481,13.8038129 41.106534,16.0581892 41.5564226,18.2684979 L32.3793024,23.7748625 C31.4341189,22.9816143 30.2410183,22.5443562 29.0070873,22.5389832 C26.0621106,22.5389832 23.6747352,24.9263586 23.6747352,27.8713354 C23.6747352,30.8163121 26.0621106,33.2036875 29.0070873,33.2036875 C30.2410183,33.1983145 31.4341189,32.7610564 32.3793024,31.9678082 L41.5564226,37.4741728 C41.1075798,39.6833439 42.0965216,41.9360826 44.0265477,43.1009413 C45.9565738,44.2658 48.4106118,44.0910564 50.1561105,42.6644763 C51.9016092,41.2378961 52.561372,38.8677588 51.80403,36.744476 C51.0466881,34.6211931 49.0359007,33.2035995 46.7815944,33.2036875 Z M46.7815944,15.4291804 C47.7632533,15.4291804 48.5590451,16.2249722 48.5590451,17.2066311 C48.5590451,18.18829 47.7632533,18.9840818 46.7815944,18.9840818 C45.7999355,18.9840818 45.0041437,18.18829 45.0041437,17.2066311 C45.0054167,16.2255 45.8004633,15.4304534 46.7815944,15.4291804 Z M29.0070873,29.6487861 C28.0254284,29.6487861 27.2296366,28.8529943 27.2296366,27.8713354 C27.2296366,26.8896764 28.0254284,26.0938846 29.0070873,26.0938846 C29.9887463,26.0938846 30.784538,26.8896764 30.784538,27.8713354 C30.7832651,28.8524665 29.9882185,29.6475131 29.0070873,29.6487861 Z M46.7815944,40.3134903 C45.7999355,40.3134903 45.0041437,39.5176985 45.0041437,38.5360396 C45.0041437,37.5543807 45.7999355,36.7585889 46.7815944,36.7585889 C47.7632533,36.7585889 48.5590451,37.5543807 48.5590451,38.5360396 C48.5577721,39.5171708 47.7627256,40.3122173 46.7815944,40.3134903 L46.7815944,40.3134903 Z" id="Shape" fill="#FFFFFF"></path>
                </g>
            </g>
        </g>
    </g>
</svg>