<?xml version="1.0" encoding="UTF-8"?>
<svg width="67px" height="66px" viewBox="0 0 67 66" version="1.1" xmlns="http://www.w3.org/2000/svg" xmlns:xlink="http://www.w3.org/1999/xlink">
    <!-- Generator: Sketch 53 (72520) - https://sketchapp.com -->
    <title>Group 81</title>
    <desc>Created with Sketch.</desc>
    <g id="Page-1" stroke="none" stroke-width="1" fill="none" fill-rule="evenodd">
        <g id="Artboard" transform="translate(-1129.000000, -1285.000000)" fill-rule="nonzero">
            <g id="Group-81" transform="translate(1129.402132, 1285.123589)">
                <g id="Group-69-Copy-9" fill="#38B0DE">
                    <ellipse id="Oval" cx="33" cy="32.8777778" rx="33" ry="32.8777778"></ellipse>
                </g>
                <path d="M58.7794269,30.2530844 L52.6977726,24.1714301 L56.2752163,20.5939863 L53.9498779,18.2686479 L50.3724341,21.8460916 L44.2907798,15.7644373 C43.0386745,14.512332 40.7133361,14.512332 39.4612308,15.7644373 L35.1682983,20.0573698 L37.4936368,22.3827082 L41.9654414,18.0897757 L56.4540885,32.5784228 L41.9654414,47.0670699 L27.4767943,32.5784228 L30.5176215,29.5375956 L28.0134109,27.2122572 L24.9725837,30.2530844 C23.7204784,31.5051897 23.7204784,33.8305281 24.9725837,35.0826334 L39.4612308,49.5712805 C40.7133361,50.8233858 43.0386745,50.8233858 44.2907798,49.5712805 L58.7794269,35.0826334 C60.2104044,33.6516559 60.2104044,31.5051897 58.7794269,30.2530844 Z" id="Path" fill="#FFFFFF"></path>
                <path d="M28.0134109,43.1318818 L24.0782228,47.0670699 L9.58957574,32.5784228 L24.0782228,18.0897757 L38.5668699,32.5784228 L35.5260427,35.61925 L37.8513811,37.9445884 L40.8922083,34.9037612 C42.1443136,33.6516559 42.1443136,31.3263175 40.8922083,30.0742122 L26.4035612,15.5855651 C25.1514559,14.3334598 22.8261175,14.3334598 21.5740122,15.5855651 L7.08536514,30.0742122 C5.83325984,31.3263175 5.83325984,33.6516559 7.08536514,34.9037612 L13.1670195,40.9854155 L9.58957574,44.5628593 L11.9149142,46.8881977 L15.4923579,43.310754 L21.5740122,49.3924083 C22.8261175,50.6445136 25.1514559,50.6445136 26.4035612,49.3924083 L30.3387493,45.4572202 L28.0134109,43.1318818 Z" id="Path" fill="#FFFFFF"></path>
            </g>
        </g>
    </g>
</svg>