<?xml version="1.0" encoding="UTF-8"?>
<svg width="67px" height="67px" viewBox="0 0 67 67" version="1.1" xmlns="http://www.w3.org/2000/svg" xmlns:xlink="http://www.w3.org/1999/xlink">
    <!-- Generator: Sketch 53 (72520) - https://sketchapp.com -->
    <title>Group 80</title>
    <desc>Created with Sketch.</desc>
    <g id="Page-1" stroke="none" stroke-width="1" fill="none" fill-rule="evenodd">
        <g id="Artboard" transform="translate(-1020.000000, -1280.000000)" fill-rule="nonzero">
            <g id="Group-80" transform="translate(1020.779573, 1280.749650)">
                <g id="Group-69-Copy-2" transform="translate(-0.000000, 0.000000)" fill="#38B0DE">
                    <ellipse id="Oval" cx="33" cy="32.8777778" rx="33" ry="32.8777778"></ellipse>
                </g>
                <path d="M34.5,45.05015 L34.5,38.75015 L31.5,38.75015 L31.5,45.05015 C29.1,45.95015 27.9,48.50015 28.8,50.75015 C29.7,53.15015 32.25,54.35015 34.5,53.45015 C36.75,52.55015 38.1,50.00015 37.2,47.75015 C36.75,46.55015 35.85,45.50015 34.5,45.05015 Z" id="Path" fill="#FFFFFF"></path>
                <path d="M48,26.75015 C45.3,26.75015 42.9,28.55015 42.15,31.25015 L23.85,31.25015 C22.95,28.10015 19.8,26.15015 16.5,26.90015 C13.35,27.80015 11.4,30.95015 12.15,34.25015 C12.9,37.55015 16.2,39.35015 19.5,38.60015 C21.6,38.00015 23.25,36.35015 23.85,34.25015 L42.3,34.25015 C43.2,37.40015 46.35,39.35015 49.65,38.60015 C52.95,37.85015 54.75,34.55015 54,31.25015 C53.1,28.55015 50.7,26.75015 48,26.75015 Z M18,35.75015 C16.35,35.75015 15,34.40015 15,32.75015 C15,31.10015 16.35,29.75015 18,29.75015 C19.65,29.75015 21,31.10015 21,32.75015 C21,34.40015 19.65,35.75015 18,35.75015 Z M48,35.75015 C46.35,35.75015 45,34.40015 45,32.75015 C45,31.10015 46.35,29.75015 48,29.75015 C49.65,29.75015 51,31.10015 51,32.75015 C51,34.40015 49.65,35.75015 48,35.75015 Z" id="Shape" fill="#FFFFFF"></path>
                <path d="M37.5,16.25015 C37.5,13.70015 35.55,11.75015 33,11.75015 C30.45,11.75015 28.5,13.70015 28.5,16.25015 C28.5,18.20015 29.7,19.85015 31.5,20.45015 L31.5,26.75015 L34.5,26.75015 L34.5,20.45015 C36.3,19.85015 37.5,18.20015 37.5,16.25015 Z" id="Path" fill="#FFFFFF"></path>
            </g>
        </g>
    </g>
</svg>