<?xml version="1.0" encoding="UTF-8"?>
<svg width="48px" height="49px" viewBox="0 0 48 49" version="1.1" xmlns="http://www.w3.org/2000/svg" xmlns:xlink="http://www.w3.org/1999/xlink">
    <title>ai-governance--lifecycle</title>
    <g id="V2-Icons" stroke="none" stroke-width="1" fill="none" fill-rule="evenodd">
        <g id="IBM/Cloud/AI" transform="translate(-931, -48)">
            <g id="ai-governance--lifecycle" transform="translate(931, 48.5799)">
                <g id="IBM®-watsonx.governance™-Copy-12" fill="#A56EFF">
                    <polygon id="Box" points="0 48 48 48 48 0 0 0"></polygon>
                </g>
                <g transform="translate(11.5055, 13.4201)">
                    <path d="M12,17.25 L10.395975,16.490475 C9.09225,15.87375 8.25,14.54295 8.25,13.10085 L8.25,8.25 L15.75,8.25 L15.75,13.10085 C15.75,14.543025 14.90775,15.873825 13.604025,16.490475 L12,17.25 Z M9.75,9.75 L9.75,13.10085 C9.75,13.965825 10.25535,14.7642 11.0376,15.134025 L12,15.589575 L12.9624,15.134025 C13.74465,14.764125 14.25,13.965825 14.25,13.10085 L14.25,9.75 L9.75,9.75 Z" id="Shape" fill="#FFFFFF" fill-rule="nonzero"></path>
                    <path d="M3.0906,13.24215 C3.488475,12.9726 3.75,12.516675 3.75,12 C3.75,11.171625 3.078375,10.5 2.25,10.5 C1.421625,10.5 0.75,11.171625 0.75,12 C0.75,12.59145 1.095525,13.0983 1.593,13.3425 C2.1024,17.343 4.8534,20.728275 8.76945,21.993525 L9.230475,20.56605 C5.90385,19.4916 3.557325,16.631475 3.0906,13.242225 L3.0906,13.24215 Z" id="Path" fill="#FFFFFF" fill-rule="nonzero"></path>
                    <path d="M21.9936,15.2307 L20.56605,14.7693 C19.491375,18.095925 16.631475,20.442675 13.242225,20.909175 C12.972525,20.51145 12.516975,20.25 12.000075,20.25 C11.1717,20.25 10.500075,20.921625 10.500075,21.75 C10.500075,22.578375 11.1717,23.25 12.000075,23.25 C12.591675,23.25 13.098375,22.9047 13.342425,22.407 C17.342925,21.8976 20.72835,19.1466 21.9936,15.2307 L21.9936,15.2307 Z" id="Path" fill="#FFFFFF" fill-rule="nonzero"></path>
                    <path d="M22.407,10.6575 C21.8976,6.657 19.1466,3.271725 15.23055,2.006475 L14.769525,3.43395 C18.09615,4.5084 20.442675,7.368525 20.9094,10.757775 C20.511525,11.027325 20.25,11.48325 20.25,11.999925 C20.25,12.8283 20.921625,13.499925 21.75,13.499925 C22.578375,13.499925 23.25,12.8283 23.25,11.999925 C23.25,11.408475 22.9047,10.901625 22.407,10.657425 L22.407,10.6575 Z" id="Path" fill="#FFFFFF" fill-rule="nonzero"></path>
                    <path d="M12,0.75 C11.4084,0.75 10.9017,1.0953 10.65765,1.593 C6.65715,2.1024 3.271725,4.8534 2.006475,8.7693 L3.43395,9.2307 C4.508625,5.904075 7.368525,3.557325 10.757775,3.090825 C11.027475,3.48855 11.483025,3.75 11.999925,3.75 C12.8283,3.75 13.499925,3.078375 13.499925,2.25 C13.499925,1.421625 12.8283,0.75 11.999925,0.75 L12,0.75 Z" id="Path" fill="#FFFFFF" fill-rule="nonzero"></path>
                    <rect id="_Transparent_Rectangle_" x="0" y="0" width="24" height="24"></rect>
                </g>
            </g>
        </g>
    </g>
</svg>