<?xml version="1.0" encoding="UTF-8"?>
<svg width="48px" height="49px" viewBox="0 0 48 49" version="1.1" xmlns="http://www.w3.org/2000/svg" xmlns:xlink="http://www.w3.org/1999/xlink">
    <title>Group 98</title>
    <g id="V2-Icons" stroke="none" stroke-width="1" fill="none" fill-rule="evenodd">
        <g id="IBM/Cloud/AI" transform="translate(-797, -48)">
            <g id="Group-98" transform="translate(797, 48.5799)">
                <g id="IBM®-watsonx.governance™-Copy-10" fill="#A56EFF">
                    <polygon id="Box" points="0 48 48 48 48 0 0 0"></polygon>
                </g>
                <g id="ai-governance--untracked" transform="translate(11.5055, 12.4201)">
                    <polygon id="Path" fill="#FFFFFF" fill-rule="nonzero" points="21.2208 20.1290323 24 17.3498323 22.9084645 16.2580645 20.1290323 19.0372645 17.3498323 16.2580645 16.2580645 17.3498323 19.0374968 20.1290323 16.2580645 22.9082323 17.3498323 24 20.1290323 21.2208 22.9084645 24 24 22.9082323"></polygon>
                    <path d="M12.3870968,17.8064516 L10.731329,17.0224258 C9.38554839,16.3858065 8.51612903,15.0120774 8.51612903,13.5234581 L8.51612903,8.51612903 L16.2580645,8.51612903 L16.2580645,13.5234581 C16.2580645,15.0121548 15.3886452,16.3858839 14.0428645,17.0224258 L12.3870968,17.8064516 Z M10.0645161,10.0645161 L10.0645161,13.5234581 C10.0645161,14.4163355 10.5861677,15.2404645 11.3936516,15.6222194 L12.3870968,16.0924645 L13.3805419,15.6222194 C14.1880258,15.2403871 14.7096774,14.4163355 14.7096774,13.5234581 L14.7096774,10.0645161 L10.0645161,10.0645161 Z" id="Shape" fill="#FFFFFF" fill-rule="nonzero"></path>
                    <path d="M3.19029677,13.6693161 C3.60100645,13.391071 3.87096774,12.9204387 3.87096774,12.3870968 C3.87096774,11.532 3.17767742,10.8387097 2.32258065,10.8387097 C1.46748387,10.8387097 0.774193548,11.532 0.774193548,12.3870968 C0.774193548,12.9976258 1.13086452,13.5208258 1.6443871,13.7729032 C2.17021935,17.9024516 5.00996129,21.396929 9.05233548,22.7029935 L9.52823226,21.229471 C6.09429677,20.1203613 3.67207742,17.1679742 3.19029677,13.6693935 L3.19029677,13.6693161 Z" id="Path" fill="#FFFFFF" fill-rule="nonzero"></path>
                    <path d="M23.1298065,11.0012903 C22.6039742,6.87174194 19.7642323,3.37726452 15.7218581,2.0712 L15.2459613,3.54472258 C18.6798968,4.65383226 21.1021161,7.60621935 21.5838968,11.1048 C21.1731871,11.3830452 20.9032258,11.8536774 20.9032258,12.3870194 C20.9032258,13.2421161 21.5965161,13.9354065 22.4516129,13.9354065 C23.3067097,13.9354065 24,13.2421161 24,12.3870194 C24,11.7764903 23.6435613,11.2532903 23.1298065,11.0012129 L23.1298065,11.0012903 Z" id="Path" fill="#FFFFFF" fill-rule="nonzero"></path>
                    <path d="M12.3870968,0.774193548 C11.7764129,0.774193548 11.2533677,1.13063226 11.0014452,1.6443871 C6.87189677,2.17021935 3.37726452,5.00996129 2.0712,9.05218065 L3.54472258,9.52846452 C4.65406452,6.09452903 7.60621935,3.67207742 11.1048,3.19052903 C11.3832,3.60108387 11.8534452,3.87096774 12.3870194,3.87096774 C13.2421161,3.87096774 13.9354065,3.17767742 13.9354065,2.32258065 C13.9354065,1.46748387 13.2421161,0.774193548 12.3870194,0.774193548 L12.3870968,0.774193548 Z" id="Path" fill="#FFFFFF" fill-rule="nonzero"></path>
                    <rect id="_Transparent_Rectangle_" x="0" y="0" width="18.5806452" height="18.5806452"></rect>
                </g>
            </g>
        </g>
    </g>
</svg>