<?xml version="1.0" encoding="UTF-8"?>
<svg width="48px" height="49px" viewBox="0 0 48 49" version="1.1" xmlns="http://www.w3.org/2000/svg" xmlns:xlink="http://www.w3.org/1999/xlink">
    <title>IBM WatsonX</title>
    <defs>
        <polygon id="path-1" points="0 0 15 0 15 7 0 7"></polygon>
    </defs>
    <g id="V2-Icons" stroke="none" stroke-width="1" fill="none" fill-rule="evenodd">
        <g id="IBM-WatsonX" transform="translate(0, 0.5799)">
            <polygon id="Box" fill="#A56EFF" points="0 48 48 48 48 0 0 0"></polygon>
            <g id="Group-14" transform="translate(12, 11.42)">
                <g id="Group" fill="#FFFFFF">
                    <path d="M15.9458631,12.4492813 C13.2984866,12.4492813 11.145543,10.35862 11.145543,7.78956057 C11.145543,5.22050118 13.2984866,3.12983979 15.9458631,3.12983979 C18.5932395,3.12983979 20.7461831,5.21972456 20.7461831,7.78956057 C20.7461831,10.3593966 18.5932395,12.4492813 15.9458631,12.4492813 M12.0016001,3.02002645e-05 C8.85979065,-0.00692891639 5.84198947,1.18906608 3.60264018,3.32865454 L4.72271485,4.43844471 C6.66284419,2.58387584 9.2790186,1.54786458 12.0016001,1.55407754 C12.7832522,1.55407754 13.544903,1.63872914 14.2777519,1.79871289 C11.5559704,2.51398003 9.54463631,4.92538553 9.54463631,7.79033719 C9.54463631,8.39765413 9.6390426,8.98400233 9.8070538,9.53928572 C9.23821588,9.38007859 8.64857657,9.29853348 8.0565371,9.29698024 C5.09313954,9.29698024 2.6009734,11.2649356 1.87532502,13.9233064 C1.69451297,13.1785276 1.60170678,12.4158867 1.59930662,11.6501392 C1.59930662,10.0060344 1.99293286,8.43959162 2.7689846,6.99352493 L1.35049003,6.27592793 C0.463230882,7.93634177 0.000800053337,9.77926134 0,11.6493626 C0,18.0727877 5.3835589,23.2986646 12.0008001,23.2986646 C15.1602107,23.2986646 18.1436096,22.1166487 20.39976,19.9700707 L19.2796853,18.8610571 C17.339556,20.7148494 14.7233816,21.7516373 12.0008001,21.7454243 C9.08220548,21.7454243 6.44442963,20.5680682 4.55310354,18.6816579 C3.72024802,17.822716 3.25621708,16.688074 3.25621708,15.508388 C3.25621708,12.938552 5.40916061,10.8486673 8.0565371,10.8486673 C10.710314,10.8517737 12.8592573,12.9424351 12.8560571,15.5184841 C12.855257,15.8035037 12.8280552,16.0877467 12.7744516,16.3681065 L14.3481565,16.6531261 C14.5337689,15.6901171 14.4809654,14.6983732 14.1945463,13.7594395 C14.7633842,13.9186466 15.3522235,14.0001917 15.944263,14.001745 C18.9124608,14.001745 21.4078272,12.0275766 22.1286752,9.36221633 C22.304687,10.0976756 22.4006934,10.8618698 22.4006934,11.648586 C22.4006934,13.2926908 22.0070671,14.8591336 21.2310154,16.3044237 L22.64951,17.0220207 C23.5367691,15.3616068 24,13.5186873 24,11.648586 C24.0024002,5.22593752 18.6196413,3.02002645e-05 12.0016001,3.02002645e-05" id="Fill-1"></path>
                    <path d="M4.0439496,2.33465844 C4.92800853,2.33465844 5.64405627,3.02973345 5.64405627,3.8878987 C5.64405627,4.74606394 4.92800853,5.44113896 4.0439496,5.44113896 C3.15989066,5.44113896 2.44384292,4.74606394 2.44384292,3.8878987 C2.44384292,3.02973345 3.15989066,2.33465844 4.0439496,2.33465844" id="Fill-4"></path>
                </g>
                <g id="Group-12" transform="translate(7, 15)">
                    <g id="Group-8" transform="translate(0, 3)">
                        <mask id="mask-2" fill="white">
                            <use xlink:href="#path-1"></use>
                        </mask>
                        <g id="Clip-7"></g>
                        <path d="M15,3.50011921 C15,5.43297342 11.6419015,7.00023843 7.5,7.00023843 C3.35809848,7.00023843 0,5.43297342 0,3.50011921 C0,1.56726501 3.35809848,0 7.5,0 C11.6419015,0 15,1.56726501 15,3.50011921" id="Fill-6" fill="#A56EFF" mask="url(#mask-2)"></path>
                    </g>
                    <path d="M6,8 C3.7944,8 2,6.2056 2,4 C2,1.7944 3.7944,0 6,0 C8.2056,0 10,1.7944 10,4 C10,6.2056 8.2056,8 6,8" id="Path" fill="#FFFFFF"></path>
                    <path d="M13.7461831,2.09545874 C14.630242,2.09545874 15.3462898,2.79053375 15.3462898,3.648699 C15.3462898,4.50686424 14.630242,5.20193925 13.7461831,5.20193925 C12.8621241,5.20193925 12.1460764,4.50686424 12.1460764,3.648699 C12.1460764,2.79053375 12.8621241,2.09545874 13.7461831,2.09545874" id="Fill-12" fill="#FFFFFF"></path>
                    <path d="M6,2 C7.105,2 8,2.895 8,4 C8,5.105 7.105,6 6,6 C4.895,6 4,5.105 4,4 C4,2.895 4.895,2 6,2" id="Fill-12" fill="#A56EFF"></path>
                </g>
            </g>
        </g>
    </g>
</svg>