<?xml version="1.0" encoding="UTF-8"?>
<svg width="49px" height="49px" viewBox="0 0 49 49" version="1.1" xmlns="http://www.w3.org/2000/svg" xmlns:xlink="http://www.w3.org/1999/xlink">
    <title>IBM® watsonx.governance™</title>
    <g id="V2-Icons" stroke="none" stroke-width="1" fill="none" fill-rule="evenodd">
        <g id="IBM/Cloud/AI" transform="translate(-54, -48)">
            <g id="IBM®-watsonx.governance™" transform="translate(54.4945, 48.5799)">
                <polygon id="Box" fill="#A56EFF" points="0 48 48 48 48 0 0 0"></polygon>
                <g id="Icon" transform="translate(11.5055, 12.4201)">
                    <path d="M19.5,18 C18.67155,18 18,18.67155 18,19.5 C18,19.5573 18.01065,19.6116 18.016875,19.667175 C16.306275,21.0144 14.207475,21.75 12,21.75 C6.623625,21.75 2.25,17.376375 2.25,12 C2.25,10.4136 2.618775,8.9004 3.346425,7.5033 L2.015625,6.81045 C1.187625,8.401275 0.75,10.195725 0.75,12 C0.75,18.20325 5.79675,23.25 12,23.25 C14.5308,23.25 16.93635,22.410525 18.9036,20.87535 C19.0866,20.95485 19.287825,21 19.5,21 C20.32845,21 21,20.32845 21,19.5 C21,18.67155 20.32845,18 19.5,18 Z" id="Path" fill="#FFFFFF" fill-rule="nonzero"></path>
                    <polygon id="Rectangle-2" fill="#FFFFFF" fill-rule="nonzero" points="8.25 17.25 9.75 17.25 9.75 18.75 8.25 18.75"></polygon>
                    <polygon id="Rectangle" fill="#FFFFFF" fill-rule="nonzero" transform="translate(9, 7.5) rotate(90) translate(-9, -7.5)" points="8.25 6.75 9.75 6.75 9.75 8.25 8.25 8.25"></polygon>
                    <polygon id="Rectangle" fill="#FFFFFF" fill-rule="nonzero" transform="translate(9, 12.75) rotate(90) translate(-9, -12.75)" points="8.25 12 9.75 12 9.75 13.5 8.25 13.5"></polygon>
                    <path d="M12,0.75 C9.4692,0.75 7.06365,1.589475 5.0964,3.12465 C4.9134,3.04515 4.712175,3 4.5,3 C3.67155,3 3,3.67155 3,4.5 C3,5.32845 3.67155,6 4.5,6 C5.32845,6 6,5.32845 6,4.5 C6,4.4427 5.98935,4.3884 5.983125,4.332825 C7.693725,2.9856 9.792525,2.25 12,2.25 C13.240725,2.25 14.25,3.259275 14.25,4.5 C14.25,5.740725 13.240725,6.75 12,6.75 L11.25,6.75 L11.25,8.25 L12,8.25 C14.0676,8.25 15.75,6.5676 15.75,4.5 C15.75,4.320075 15.734775,4.1439 15.710175,3.970725 C16.4349,4.821825 16.875,5.9223 16.875,7.125 C16.875,9.813 14.688,12 12,12 L11.25,12 L11.25,13.5 L12,13.5 C15.51525,13.5 18.375,10.64025 18.375,7.125 C18.375,6.55095 18.291675,5.9973 18.148725,5.4678 C18.9978,6.68325 19.5,8.15805 19.5,9.75 C19.5,13.88565 16.13565,17.25 12,17.25 L11.25,17.25 L11.25,18.75 L12,18.75 C16.962525,18.75 21,14.712525 21,9.75 C21,9.075375 20.92065,8.4195 20.7792,7.7868 C21.394725,9.064125 21.75,10.48965 21.75,12 C21.75,13.5864 21.381225,15.0996 20.653575,16.4967 L21.984375,17.18955 C22.812375,15.598725 23.25,13.804275 23.25,12 C23.25,5.79675 18.20325,0.75 12,0.75 Z" id="Path" fill="#FFFFFF" fill-rule="nonzero"></path>
                    <rect id="_Transparent_Rectangle_" x="0" y="0" width="24" height="24"></rect>
                </g>
            </g>
        </g>
    </g>
</svg>