<?xml version="1.0" encoding="UTF-8"?>
<svg width="48px" height="48px" viewBox="0 0 48 48" version="1.1" xmlns="http://www.w3.org/2000/svg" xmlns:xlink="http://www.w3.org/1999/xlink">
    <title>machine-learning</title>
    <g id="V2-Icons" stroke="none" stroke-width="1" fill="none" fill-rule="evenodd">
        <g id="IBM/Cloud/AI" transform="translate(-527, -49)">
            <g id="machine-learning" transform="translate(527, 49)">
                <g id="IBM®-watsonx.governance™-Copy-6" fill="#A56EFF">
                    <polygon id="Box" points="0 48 48 48 48 0 0 0"></polygon>
                </g>
                <g transform="translate(12, 12)">
                    <path d="M12,18.7500019 C10.2403836,18.7514766 8.59735801,17.8701918 7.62525,16.403475 L8.87475,15.572925 C9.56965502,16.6203281 10.7430409,17.2499867 12,17.2499867 C13.2569591,17.2499867 14.430345,16.6203281 15.12525,15.572925 L16.37475,16.403475 C15.402642,17.8701918 13.7596164,18.7514766 12,18.7500019 Z" id="Path" fill="#FFFFFF" fill-rule="nonzero"></path>
                    <path d="M15,10.5 C14.1715729,10.5 13.5,11.1715729 13.5,12 C13.5,12.8284271 14.1715729,13.5 15,13.5 C15.8284271,13.5 16.5,12.8284271 16.5,12 C16.5039279,11.6009841 16.3471543,11.2171668 16.0649937,10.9350063 C15.7828332,10.6528457 15.3990159,10.4960721 15,10.5 Z" id="Path" fill="#FFFFFF" fill-rule="nonzero"></path>
                    <path d="M9,10.5 C8.17157288,10.5 7.5,11.1715729 7.5,12 C7.5,12.8284271 8.17157288,13.5 9,13.5 C9.82842712,13.5 10.5,12.8284271 10.5,12 C10.5039279,11.6009841 10.3471543,11.2171668 10.0649937,10.9350063 C9.78283321,10.6528457 9.39901591,10.4960721 9,10.5 L9,10.5 Z" id="Path" fill="#FFFFFF" fill-rule="nonzero"></path>
                    <path d="M22.5,12 L22.5,10.5 L21,10.5 L21,7.5 C20.99814,5.84391678 19.6560832,4.50185996 18,4.5 L16.5,4.5 L16.5,1.5 L15,1.5 L15,4.5 L9,4.5 L9,1.5 L7.5,1.5 L7.5,4.5 L6,4.5 C4.34391678,4.50185996 3.00185996,5.84391678 3,7.5 L3,10.5 L1.5,10.5 L1.5,12 L3,12 L3,15.75 L1.5,15.75 L1.5,17.25 L3,17.25 L3,19.5 C3.00185996,21.1560832 4.34391678,22.49814 6,22.5 L18,22.5 C19.6560832,22.49814 20.99814,21.1560832 21,19.5 L21,17.25 L22.5,17.25 L22.5,15.75 L21,15.75 L21,12 L22.5,12 Z M19.5,19.5 C19.4990494,20.3280331 18.8280331,20.9990494 18,21 L6,21 C5.17196695,20.9990494 4.5009506,20.3280331 4.5,19.5 L4.5,7.5 C4.5009506,6.67196695 5.17196695,6.0009506 6,6 L18,6 C18.8280331,6.0009506 19.4990494,6.67196695 19.5,7.5 L19.5,19.5 Z" id="Shape" fill="#FFFFFF" fill-rule="nonzero"></path>
                    <rect id="_Transparent_Rectangle_" x="0" y="0" width="24" height="24"></rect>
                </g>
            </g>
        </g>
    </g>
</svg>