<?xml version="1.0" encoding="UTF-8"?>
<svg width="48px" height="49px" viewBox="0 0 48 49" version="1.1" xmlns="http://www.w3.org/2000/svg" xmlns:xlink="http://www.w3.org/1999/xlink">
    <title>machine-learning-model(1)</title>
    <g id="V2-Icons" stroke="none" stroke-width="1" fill="none" fill-rule="evenodd">
        <g id="IBM/Cloud/AI" transform="translate(-594, -48)">
            <g id="machine-learning-model(1)" transform="translate(594, 48.5799)">
                <g id="IBM®-watsonx.governance™-Copy-7" fill="#A56EFF">
                    <polygon id="Box" points="0 48 48 48 48 0 0 0"></polygon>
                </g>
                <g transform="translate(11.5055, 12.4201)">
                    <path d="M21.5998394,19.2 C21.243327,19.2018042 20.8918206,19.2840618 20.571527,19.44064 L17.1311526,16 L14.3998929,16 L14.3998929,17.6 L16.4685975,17.6 L19.4402554,20.57184 C19.2839307,20.8921587 19.2017644,21.2435757 19.1998572,21.6 C19.1998572,22.9254834 20.2743658,24 21.5998394,24 C22.9253129,24 23.9998215,22.9254834 23.9998215,21.6 C23.9998215,20.2745166 22.9253129,19.2 21.5998394,19.2 L21.5998394,19.2 Z M21.5998394,22.4 C21.1580148,22.4 20.7998453,22.0418278 20.7998453,21.6 C20.7998453,21.1581722 21.1580148,20.8 21.5998394,20.8 C22.0416639,20.8 22.3998334,21.1581722 22.3998334,21.6 C22.3994365,22.0416633 22.0414993,22.399603 21.5998394,22.4 L21.5998394,22.4 Z" id="Shape" fill="#FFFFFF" fill-rule="nonzero"></path>
                    <path d="M21.5998394,10.3999963 C20.5861094,10.4030643 19.6840296,11.043819 19.3472961,12 L14.3998929,12 L14.3998929,13.6 L19.3472961,13.6 C19.7562115,14.7474395 20.9610436,15.4053691 22.1474132,15.129076 C23.3337828,14.8527829 24.1239665,13.730235 23.9838573,12.5201933 C23.843748,11.3101517 22.8179547,10.3978766 21.5998394,10.3999963 L21.5998394,10.3999963 Z M21.5998394,13.6 C21.1580148,13.6 20.7998453,13.2418278 20.7998453,12.8 C20.7998453,12.3581722 21.1580148,12 21.5998394,12 C22.0416639,12 22.3998334,12.3581722 22.3998334,12.8 C22.3994365,13.2416633 22.0414993,13.599603 21.5998394,13.6 Z" id="Shape" fill="#FFFFFF" fill-rule="nonzero"></path>
                    <path d="M21.5998394,1.59999973 C20.2749689,1.60145497 19.2013122,2.67511974 19.1998572,4 C19.2026039,4.38325181 19.298155,4.76013365 19.4783351,5.0984 L16.4764375,8 L14.3998929,8 L14.3998929,9.59999973 L17.1233127,9.59999973 L20.6424065,6.19808 C21.5368899,6.58798225 22.5784123,6.39724237 23.2766702,5.71565239 C23.9749281,5.03406242 24.1907772,3.99744527 23.8226051,3.09379514 C23.454433,2.19014501 22.5756067,1.59953556 21.5998394,1.59999973 L21.5998394,1.59999973 Z M21.5998394,4.8 C21.1580148,4.8 20.7998453,4.4418278 20.7998453,4 C20.7998453,3.5581722 21.1580148,3.2 21.5998394,3.2 C22.0416639,3.2 22.3998334,3.5581722 22.3998334,4 C22.3994365,4.44166327 22.0414993,4.79960304 21.5998394,4.8 Z" id="Shape" fill="#FFFFFF" fill-rule="nonzero"></path>
                    <path d="M14.3998929,4.8 L15.999881,4.8 L15.999881,3.2 L14.3998929,3.2 C13.477381,3.20309892 12.6016672,3.60660166 11.9999108,4.30584 C11.3981543,3.60660166 10.5224405,3.20309892 9.5999286,3.2 L8.79993455,3.2 C4.82534157,3.2044089 1.60439697,6.42537746 1.5999881,10.4 L1.5999881,15.2 C1.60439697,19.1746225 4.82534157,22.3955911 8.79993455,22.4 L9.5999286,22.4 C10.5224405,22.3969011 11.3981543,21.9933983 11.9999108,21.29416 C12.6016672,21.9933983 13.477381,22.3969011 14.3998929,22.4 L15.999881,22.4 L15.999881,20.8 L14.3998929,20.8 C13.5166642,20.798986 12.8009188,20.0832353 12.7999048,19.2 L12.7999048,6.4 C12.8009188,5.51676474 13.5166642,4.80101397 14.3998929,4.8 Z M9.5999286,20.8 L8.79993455,20.8 C6.01929266,20.7951276 3.66280584,18.7519157 3.26397573,16 L4.7999643,16 L4.7999643,14.4 L3.1999762,14.4 L3.1999762,11.2 L5.59995835,11.2 C6.92482876,11.198545 7.99848555,10.1248803 7.9999405,8.8 L7.9999405,7.2 L6.3999524,7.2 L6.3999524,8.8 C6.39955544,9.24166327 6.04161834,9.59960304 5.59995835,9.6 L3.26397573,9.6 C3.66280584,6.84808425 6.01929266,4.80487239 8.79993455,4.8 L9.5999286,4.8 C10.4831573,4.80101397 11.1989027,5.51676474 11.1999167,6.4 L11.1999167,9.6 L9.5999286,9.6 L9.5999286,11.2 L11.1999167,11.2 L11.1999167,14.4 L9.5999286,14.4 C8.27505819,14.401455 7.20140141,15.4751197 7.19994645,16.8 L7.19994645,18.4 L8.79993455,18.4 L8.79993455,16.8 C8.80033151,16.3583367 9.15826862,16.000397 9.5999286,16 L11.1999167,16 L11.1999167,19.2 C11.1989027,20.0832353 10.4831573,20.798986 9.5999286,20.8 Z" id="Shape" fill="#FFFFFF" fill-rule="nonzero"></path>
                    <rect id="_Transparent_Rectangle_" x="0" y="0" width="19.1998572" height="19.2"></rect>
                </g>
            </g>
        </g>
    </g>
</svg>