<?xml version="1.0" encoding="UTF-8"?>
<svg width="48px" height="49px" viewBox="0 0 48 49" version="1.1" xmlns="http://www.w3.org/2000/svg" xmlns:xlink="http://www.w3.org/1999/xlink">
    <title>model--tuned</title>
    <g id="V2-Icons" stroke="none" stroke-width="1" fill="none" fill-rule="evenodd">
        <g id="IBM/Cloud/AI" transform="translate(-459, -48)">
            <g id="model--tuned" transform="translate(459, 48.5799)">
                <g id="IBM®-watsonx.governance™-Copy-5" fill="#A56EFF">
                    <polygon id="Box" points="0 48 48 48 48 0 0 0"></polygon>
                </g>
                <g transform="translate(11.5055, 12.4201)">
                    <path d="M22.5882353,20 C22.5882353,18.95856 21.9964235,18.07888 21.1764706,17.74728 L21.1764706,14.4 L19.7647059,14.4 L19.7647059,17.74768 C18.9447529,18.07896 18.3529412,18.95864 18.3529412,20 C18.3529412,21.04136 18.9447529,21.92112 19.7647059,22.25232 L19.7647059,24 L21.1764706,24 L21.1764706,22.25272 C21.9964235,21.92104 22.5882353,21.04136 22.5882353,20 Z M20.4705882,20.8 C20.0812941,20.8 19.7647059,20.44104 19.7647059,20 C19.7647059,19.55896 20.0812941,19.2 20.4705882,19.2 C20.8598824,19.2 21.1764706,19.55896 21.1764706,20 C21.1764706,20.44104 20.8598824,20.8 20.4705882,20.8 Z" id="Shape" fill="#FFFFFF" fill-rule="nonzero"></path>
                    <path d="M16.9411765,18.4 C16.9411765,17.35856 16.3493647,16.47888 15.5294118,16.14728 L15.5294118,14.4 L14.1176471,14.4 L14.1176471,16.14768 C13.2976941,16.47896 12.7058824,17.35864 12.7058824,18.4 C12.7058824,19.44136 13.2976941,20.32112 14.1176471,20.65232 L14.1176471,24 L15.5294118,24 L15.5294118,20.65272 C16.3493647,20.32104 16.9411765,19.44136 16.9411765,18.4 Z M14.8235294,19.2 C14.4342353,19.2 14.1176471,18.84104 14.1176471,18.4 C14.1176471,17.95896 14.4342353,17.6 14.8235294,17.6 C15.2128235,17.6 15.5294118,17.95896 15.5294118,18.4 C15.5294118,18.84104 15.2128235,19.2 14.8235294,19.2 Z" id="Shape" fill="#FFFFFF" fill-rule="nonzero"></path>
                    <path d="M0.505270588,8.83632 L9.65350588,20.8 L10.7205882,19.75352 L2.95778824,9.6 L6.66748235,9.6 C6.66748235,9.6 10.5882353,16.70936 10.5882353,16.70936 L14.5089882,9.6 L18.2186824,9.6 C18.2186824,9.6 16.5729176,11.75232 16.5729176,11.75232 L17.6398588,12.8 L20.6712,8.83632 L15.8823529,1.6 L5.29411765,1.6 C5.29411765,1.6 0.505270588,8.83632 0.505270588,8.83632 Z M14.5088471,8 L11.8617882,3.2 L15.1764706,3.2 C15.1764706,3.2 18.3529412,8 18.3529412,8 L14.5088471,8 Z M12.8440941,8 L8.33237647,8 C8.33237647,8 10.5882353,3.90936 10.5882353,3.90936 L12.8440941,8 Z M8.33251765,9.6 L12.8438824,9.6 C12.8438824,9.6 10.5881647,13.69064 10.5881647,13.69064 L8.33244706,9.6 L8.33251765,9.6 Z M2.82352941,8 L6,3.2 L9.31468235,3.2 C9.31468235,3.2 6.66762353,8 6.66762353,8 L2.82352941,8 Z" id="Shape" fill="#FFFFFF" fill-rule="nonzero"></path>
                    <g id="_Transparent_Rectangle_">
                        <rect id="Rectangle" x="0" y="0" width="24" height="19.2"></rect>
                    </g>
                </g>
            </g>
        </g>
    </g>
</svg>