<?xml version="1.0" encoding="UTF-8"?>
<svg width="48px" height="48px" viewBox="0 0 48 48" version="1.1" xmlns="http://www.w3.org/2000/svg" xmlns:xlink="http://www.w3.org/1999/xlink">
    <title>tuning</title>
    <g id="V2-Icons" stroke="none" stroke-width="1" fill="none" fill-rule="evenodd">
        <g id="IBM/Cloud/AI" transform="translate(-257, -49)">
            <g id="tuning" transform="translate(257, 49)">
                <g id="IBM®-watsonx.governance™-Copy-2" fill="#A56EFF">
                    <polygon id="Box" points="0 48 48 48 48 0 0 0"></polygon>
                </g>
                <g transform="translate(12, 12)">
                    <path d="M20.5714286,24 L20.5714286,20.72 C22.5428571,20.32 24,18.72 24,16.8 C24,14.88 22.5428571,13.28 20.5714286,12.88 L20.5714286,1.6 C20.5714286,1.6 18.8571429,1.6 18.8571429,1.6 L18.8571429,12.88 C16.8857143,13.28 15.4285714,14.88 15.4285714,16.8 C15.4285714,18.72 16.8857143,20.32 18.8571429,20.72 L18.8571429,24 C18.8571429,24 20.5714286,24 20.5714286,24 Z M17.1428571,16.8 C17.1428571,15.44 18.2571429,14.4 19.7142857,14.4 C21.1714286,14.4 22.2857143,15.44 22.2857143,16.8 C22.2857143,18.16 21.1714286,19.2 19.7142857,19.2 C18.2571429,19.2 17.1428571,18.16 17.1428571,16.8 Z" id="Shape" fill="#FFFFFF" fill-rule="nonzero"></path>
                    <path d="M6.85714286,1.6 L6.85714286,4.88 C4.88571429,5.28 3.42857143,6.88 3.42857143,8.8 C3.42857143,10.72 4.88571429,12.32 6.85714286,12.72 L6.85714286,24 C6.85714286,24 8.57142857,24 8.57142857,24 L8.57142857,12.72 C10.5428571,12.32 12,10.72 12,8.8 C12,6.88 10.5428571,5.28 8.57142857,4.88 L8.57142857,1.6 C8.57142857,1.6 6.85714286,1.6 6.85714286,1.6 Z M10.2857143,8.8 C10.2857143,10.16 9.17142857,11.2 7.71428571,11.2 C6.25714286,11.2 5.14285714,10.16 5.14285714,8.8 C5.14285714,7.44 6.25714286,6.4 7.71428571,6.4 C9.17142857,6.4 10.2857143,7.44 10.2857143,8.8 Z" id="Shape" fill="#FFFFFF" fill-rule="nonzero"></path>
                    <g id="_Transparent_Rectangle_">
                        <rect id="Rectangle" x="0" y="0" width="20.5714286" height="19.2"></rect>
                    </g>
                </g>
            </g>
        </g>
    </g>
</svg>