<?xml version="1.0" encoding="UTF-8"?>
<svg width="48px" height="49px" viewBox="0 0 48 49" version="1.1" xmlns="http://www.w3.org/2000/svg" xmlns:xlink="http://www.w3.org/1999/xlink">
    <title>watsonx-ai</title>
    <g id="V2-Icons" stroke="none" stroke-width="1" fill="none" fill-rule="evenodd">
        <g id="IBM/Cloud/AI" transform="translate(-189, -48)">
            <g id="watsonx-ai" transform="translate(189, 48.5799)">
                <g id="IBM®-watsonx.governance™-Copy" fill="#A56EFF">
                    <polygon id="Box" points="0 48 48 48 48 0 0 0"></polygon>
                </g>
                <g transform="translate(11.5055, 12.4201)">
                    <path d="M19.5,18 C18.67155,18 18,18.67155 18,19.5 C18,19.5573 18.01065,19.6116 18.016875,19.667175 C16.306275,21.0144 14.207475,21.75 12,21.75 C8.803725,21.75 6,18.77085 6,15.375 C6,11.85975 8.85975,9 12.375,9 L12.75,9 L12.75,7.5 L12.375,7.5 C8.0328,7.5 4.5,11.0328 4.5,15.375 C4.5,16.787925 4.8978,18.1422 5.577825,19.317375 C3.54285,17.52915 2.25,14.915625 2.25,12 C2.25,10.4136 2.618775,8.9004 3.346425,7.5033 L2.015625,6.81045 C1.187625,8.401275 0.75,10.195725 0.75,12 C0.75,18.20325 5.79675,23.25 12,23.25 C14.5308,23.25 16.93635,22.410525 18.9036,20.87535 C19.0866,20.95485 19.287825,21 19.5,21 C20.32845,21 21,20.32845 21,19.5 C21,18.67155 20.32845,18 19.5,18 Z" id="Path" fill="#FFFFFF" fill-rule="nonzero"></path>
                    <polygon id="Rectangle" fill="#FFFFFF" fill-rule="nonzero" transform="translate(9, 15.75) rotate(90) translate(-9, -15.75)" points="8.25 15 9.75 15 9.75 16.5 8.25 16.5"></polygon>
                    <polygon id="Rectangle" fill="#FFFFFF" fill-rule="nonzero" transform="translate(15, 8.25) rotate(90) translate(-15, -8.25)" points="14.25 7.5 15.75 7.5 15.75 9 14.25 9"></polygon>
                    <path d="M12,0.75 C9.4692,0.75 7.06365,1.589475 5.0964,3.12465 C4.9134,3.04515 4.712175,3 4.5,3 C3.67155,3 3,3.67155 3,4.5 C3,5.32845 3.67155,6 4.5,6 C5.32845,6 6,5.32845 6,4.5 C6,4.4427 5.98935,4.3884 5.983125,4.332825 C7.693725,2.9856 9.792525,2.25 12,2.25 C15.196275,2.25 18,5.22915 18,8.625 C18,12.14025 15.14025,15 11.625,15 L11.25,15 L11.25,16.5 L11.625,16.5 C15.9672,16.5 19.5,12.9672 19.5,8.625 C19.5,7.211025 19.10085,5.856225 18.419925,4.680525 C20.456175,6.46875 21.75,9.083325 21.75,12 C21.75,13.5864 21.381225,15.0996 20.653575,16.4967 L21.984375,17.18955 C22.812375,15.598725 23.25,13.804275 23.25,12 C23.25,5.79675 18.20325,0.75 12,0.75 Z" id="Path" fill="#FFFFFF" fill-rule="nonzero"></path>
                    <rect id="_Transparent_Rectangle_" x="0" y="0" width="24" height="24"></rect>
                </g>
            </g>
        </g>
    </g>
</svg>