<?xml version="1.0" encoding="UTF-8"?>
<svg width="48px" height="48px" viewBox="0 0 48 48" version="1.1" xmlns="http://www.w3.org/2000/svg" xmlns:xlink="http://www.w3.org/1999/xlink">
    <title>watsonx-data</title>
    <g id="V2-Icons" stroke="none" stroke-width="1" fill="none" fill-rule="evenodd">
        <g id="IBM/Cloud/AI" transform="translate(-122, -49)">
            <g id="watsonx-data" transform="translate(122, 49)">
                <g id="IBM®-watsonx.governance™" fill="#A56EFF">
                    <polygon id="Box" points="0 48 48 48 48 0 0 0"></polygon>
                </g>
                <g transform="translate(12, 12)">
                    <path d="M19.5,18 C18.67155,18 18,18.67155 18,19.5 C18,19.5573 18.01065,19.6116 18.016875,19.667175 C16.306275,21.0144 14.207475,21.75 12,21.75 C9.91905,21.75 7.9926,21.08925 6.40755,19.9743 C6.60075,19.993875 6.7953,20.0076 6.9924,20.0076 C10.167075,20.0076 12.75,17.42475 12.75,14.25 L11.25,14.25 C11.25,16.5978 9.3402,18.5076 6.9924,18.5076 C5.334075,18.5076 3.844125,17.5464 3.14355,16.053225 C3.041175,15.830325 2.948925,15.6027 2.8632,15.371175 C3.35835,15.612675 3.91305,15.75 4.5,15.75 C6.5676,15.75 8.25,14.0676 8.25,12 L8.25,10.5 L6.75,10.5 L6.75,12 C6.75,13.240725 5.740725,14.25 4.5,14.25 C3.259275,14.25 2.25,13.240725 2.25,12 C2.25,10.4136 2.618775,8.9004 3.346425,7.5033 L2.015625,6.81045 C1.187625,8.401275 0.75,10.195725 0.75,12 C0.75,18.20325 5.79675,23.25 12,23.25 C14.5308,23.25 16.93635,22.410525 18.9036,20.87535 C19.0866,20.95485 19.287825,21 19.5,21 C20.32845,21 21,20.32845 21,19.5 C21,18.67155 20.32845,18 19.5,18 L19.5,18 Z" id="Path" fill="#FFFFFF" fill-rule="nonzero"></path>
                    <polygon id="Rectangle" fill="#FFFFFF" fill-rule="nonzero" transform="translate(16.5, 16.5) rotate(90) translate(-16.5, -16.5)" points="15.75 15.75 17.25 15.75 17.25 17.25 15.75 17.25"></polygon>
                    <polygon id="Rectangle" fill="#FFFFFF" fill-rule="nonzero" transform="translate(12, 12) rotate(90) translate(-12, -12)" points="11.25 11.25 12.75 11.25 12.75 12.75 11.25 12.75"></polygon>
                    <polygon id="Rectangle" fill="#FFFFFF" fill-rule="nonzero" transform="translate(7.5, 7.5) rotate(-90) translate(-7.5, -7.5)" points="6.75 6.75 8.25 6.75 8.25 8.25 6.75 8.25"></polygon>
                    <path d="M12,0.75 C9.4692,0.75 7.06365,1.589475 5.0964,3.12465 C4.9134,3.04515 4.712175,3 4.5,3 C3.67155,3 3,3.67155 3,4.5 C3,5.32845 3.67155,6 4.5,6 C5.32845,6 6,5.32845 6,4.5 C6,4.4427 5.98935,4.3884 5.983125,4.332825 C7.693725,2.9856 9.792525,2.25 12,2.25 C14.0781,2.25 16.002225,2.9088 17.586075,4.020975 C17.399325,4.002825 17.2107,3.992475 17.02005,3.992475 C13.845375,3.992475 11.26245,6.575325 11.26245,9.750075 L12.76245,9.750075 C12.76245,7.402275 14.67225,5.492475 17.02005,5.492475 C18.5616,5.492475 19.95015,6.31395 20.709,7.6413 C20.870475,7.962525 21.012975,8.293875 21.138675,8.634075 C20.64255,8.391525 20.0883,8.25 19.5,8.25 C17.4324,8.25 15.75,9.9324 15.75,12 L15.75,13.5 L17.25,13.5 L17.25,12 C17.25,10.759275 18.259275,9.75 19.5,9.75 C20.740725,9.75 21.75,10.759275 21.75,12 C21.75,13.5864 21.381225,15.0996 20.653575,16.4967 L21.984375,17.18955 C22.812375,15.598725 23.25,13.804275 23.25,12 C23.25,5.79675 18.20325,0.75 12,0.75 Z" id="Path" fill="#FFFFFF" fill-rule="nonzero"></path>
                    <rect id="_Transparent_Rectangle_" x="0" y="0" width="24" height="24"></rect>
                </g>
            </g>
        </g>
    </g>
</svg>