<?xml version="1.0" encoding="UTF-8"?>
<svg width="67px" height="66px" viewBox="0 0 67 66" version="1.1" xmlns="http://www.w3.org/2000/svg" xmlns:xlink="http://www.w3.org/1999/xlink">
    <!-- Generator: Sketch 53 (72520) - https://sketchapp.com -->
    <title>Group 84</title>
    <desc>Created with Sketch.</desc>
    <defs>
        <polygon id="path-1" points="0.000183333333 0.213137615 66 0.213137615 66 65.3943138 0.000183333333 65.3943138"></polygon>
    </defs>
    <g id="Page-1" stroke="none" stroke-width="1" fill="none" fill-rule="evenodd">
        <g id="Artboard" transform="translate(-135.000000, -1450.000000)">
            <g id="Group-84" transform="translate(135.916667, 1449.999900)">
                <g id="Group-76-Copy">
                    <g id="Group-18">
                        <g id="Group-3" transform="translate(0.000000, 0.392367)">
                            <mask id="mask-2" fill="white">
                                <use xlink:href="#path-1"></use>
                            </mask>
                            <g id="Clip-2"></g>
                            <path d="M66.0001833,32.8036349 C66.0001833,50.8034697 51.22535,65.3943138 33.0001833,65.3943138 C14.7750167,65.3943138 0.000183333333,50.8034697 0.000183333333,32.8036349 C0.000183333333,14.8044055 14.7750167,0.212955963 33.0001833,0.212955963 C51.22535,0.212955963 66.0001833,14.8044055 66.0001833,32.8036349" id="Fill-1" fill="#38B0DE" mask="url(#mask-2)"></path>
                        </g>
                        <path d="M28.2288722,32.8471706 C28.2288722,35.7778128 25.8308722,38.1538128 22.8724833,38.1538128 C19.9153167,38.1538128 17.5173167,35.7778128 17.5173167,32.8471706 C17.5173167,29.9165284 19.9153167,27.5405284 22.8724833,27.5405284 C25.8308722,27.5405284 28.2288722,29.9165284 28.2288722,32.8471706" id="Fill-6" fill="#38B0DE"></path>
                        <path d="M46.8003556,20.691545 C46.8003556,23.6221872 44.4023556,25.9981872 41.4445778,25.9981872 C38.4868,25.9981872 36.0894111,23.6221872 36.0894111,20.691545 C36.0894111,17.7609028 38.4868,15.3849028 41.4445778,15.3849028 C44.4023556,15.3849028 46.8003556,17.7609028 46.8003556,20.691545" id="Fill-10" fill="#38B0DE"></path>
                        <path d="M46.8003556,45.6434807 C46.8003556,48.5741229 44.4023556,50.9501229 41.4445778,50.9501229 C38.4868,50.9501229 36.0894111,48.5741229 36.0894111,45.6434807 C36.0894111,42.7128385 38.4868,40.3368385 41.4445778,40.3368385 C44.4023556,40.3368385 46.8003556,42.7128385 46.8003556,45.6434807" id="Fill-14" fill="#38B0DE"></path>
                    </g>
                </g>
                <g id="CDN_solid" transform="translate(9.000000, 9.000000)" fill="#FFFFFF" fill-rule="nonzero">
                    <circle id="Oval" cx="31.1194004" cy="31.1194004" r="3.27572636"></circle>
                    <circle id="Oval" cx="8.1893159" cy="8.1893159" r="3.27572636"></circle>
                    <path d="M40.9465795,47.4980322 C37.3432805,47.4980322 34.3951268,44.5498785 34.3951268,40.9465795 C34.3951268,37.3432805 37.3432805,34.3951268 40.9465795,34.3951268 C44.5498785,34.3951268 47.4980322,37.3432805 47.4980322,40.9465795 C47.4980322,44.5498785 44.5498785,47.4980322 40.9465795,47.4980322 Z M40.9465795,37.6708531 C39.14493,37.6708531 37.6708531,39.14493 37.6708531,40.9465795 C37.6708531,42.748229 39.14493,44.2223059 40.9465795,44.2223059 C42.748229,44.2223059 44.2223059,42.748229 44.2223059,40.9465795 C44.2223059,39.14493 42.748229,37.6708531 40.9465795,37.6708531 Z" id="Shape"></path>
                    <path d="M45.860169,22.9300845 C45.860169,10.318538 35.541631,0 22.9300845,0 C18.8354266,0 15.0683413,0.982717908 11.7926149,2.94815372 L13.5942644,5.73252113 C14.9045549,5.07737586 16.2148455,4.5860169 17.525136,4.09465795 C14.9045549,9.33582013 13.2666918,15.2321276 13.1029054,21.2922213 L3.27572636,21.2922213 C3.43951268,18.5078539 4.25844427,16.0510592 5.56873481,13.5942644 L3.11194004,11.4650423 C1.14650423,14.9045549 0,18.6716403 0,22.9300845 C0,28.9901783 2.45679477,34.8864857 6.71523904,39.14493 C11.1374696,43.5671606 17.0337771,45.860169 22.9300845,45.860169 C25.8782382,45.860169 28.6626057,45.3688101 31.4469731,44.2223059 L30.4642552,41.1103658 C27.8436741,42.2568701 24.8955203,42.748229 21.9473666,42.5844427 L21.9473666,42.5844427 C18.9992129,38.4897847 16.7062044,31.938332 16.3786318,24.5679477 L45.6963827,24.5679477 C45.860169,24.0765888 45.860169,23.4214435 45.860169,22.9300845 Z M17.6889223,41.9292974 L17.6889223,41.9292974 C14.5769823,40.9465795 11.4650423,39.3087163 9.00824749,36.8519216 C5.73252113,33.5761952 3.76708531,29.1539646 3.27572636,24.5679477 L13.1029054,24.5679477 C13.4304781,31.4469731 15.2321276,37.3432805 17.6889223,41.9292974 Z M16.3786318,21.2922213 C16.5424181,14.9045549 18.3440676,8.68067486 21.7835803,3.27572636 C22.6025119,3.27572636 23.2576572,3.27572636 24.0765888,3.27572636 C27.5161014,8.68067486 29.3177509,14.9045549 29.4815372,21.2922213 L16.3786318,21.2922213 Z M32.7572636,21.2922213 C32.5934773,15.2321276 31.1194004,9.33582013 28.1712467,3.93087163 C36.03299,6.22388009 41.7655111,13.1029054 42.4206564,21.2922213 L32.7572636,21.2922213 Z" id="Shape"></path>
                </g>
            </g>
        </g>
    </g>
</svg>