<?xml version="1.0" encoding="UTF-8"?>
<svg width="67px" height="66px" viewBox="0 0 67 66" version="1.1" xmlns="http://www.w3.org/2000/svg" xmlns:xlink="http://www.w3.org/1999/xlink">
    <!-- Generator: Sketch 53 (72520) - https://sketchapp.com -->
    <title>Group 83</title>
    <desc>Created with Sketch.</desc>
    <defs>
        <polygon id="path-1" points="0.000183333333 0.213137615 66 0.213137615 66 65.3943138 0.000183333333 65.3943138"></polygon>
    </defs>
    <g id="Page-1" stroke="none" stroke-width="1" fill="none" fill-rule="evenodd">
        <g id="Artboard" transform="translate(-50.000000, -1450.000000)">
            <g id="Group-83" transform="translate(50.302752, 1449.999900)">
                <g id="Group-76-Copy-2">
                    <g id="Group-18">
                        <g id="Group-3" transform="translate(0.000000, 0.392367)">
                            <mask id="mask-2" fill="white">
                                <use xlink:href="#path-1"></use>
                            </mask>
                            <g id="Clip-2"></g>
                            <path d="M66.0001833,32.8036349 C66.0001833,50.8034697 51.22535,65.3943138 33.0001833,65.3943138 C14.7750167,65.3943138 0.000183333333,50.8034697 0.000183333333,32.8036349 C0.000183333333,14.8044055 14.7750167,0.212955963 33.0001833,0.212955963 C51.22535,0.212955963 66.0001833,14.8044055 66.0001833,32.8036349" id="Fill-1" fill="#38B0DE" mask="url(#mask-2)"></path>
                        </g>
                        <path d="M28.2288722,32.8471706 C28.2288722,35.7778128 25.8308722,38.1538128 22.8724833,38.1538128 C19.9153167,38.1538128 17.5173167,35.7778128 17.5173167,32.8471706 C17.5173167,29.9165284 19.9153167,27.5405284 22.8724833,27.5405284 C25.8308722,27.5405284 28.2288722,29.9165284 28.2288722,32.8471706" id="Fill-6" fill="#38B0DE"></path>
                        <path d="M46.8003556,20.691545 C46.8003556,23.6221872 44.4023556,25.9981872 41.4445778,25.9981872 C38.4868,25.9981872 36.0894111,23.6221872 36.0894111,20.691545 C36.0894111,17.7609028 38.4868,15.3849028 41.4445778,15.3849028 C44.4023556,15.3849028 46.8003556,17.7609028 46.8003556,20.691545" id="Fill-10" fill="#38B0DE"></path>
                        <path d="M46.8003556,45.6434807 C46.8003556,48.5741229 44.4023556,50.9501229 41.4445778,50.9501229 C38.4868,50.9501229 36.0894111,48.5741229 36.0894111,45.6434807 C36.0894111,42.7128385 38.4868,40.3368385 41.4445778,40.3368385 C44.4023556,40.3368385 46.8003556,42.7128385 46.8003556,45.6434807" id="Fill-14" fill="#38B0DE"></path>
                    </g>
                </g>
                <g id="DNS_Solid" transform="translate(7.500000, 7.500000)" fill="#FFFFFF" fill-rule="nonzero">
                    <path d="M25.3233199,0 C11.395494,0 0,11.395494 0,25.3233199 C0,32.0159117 2.71321285,38.5276225 7.41611513,43.2305248 C12.2998983,48.1143079 18.8116091,50.6466399 25.3233199,50.6466399 C27.8556519,50.6466399 30.2071031,50.2848782 32.5585542,49.5613548 L30.3879839,46.3054993 C28.3982945,46.8481419 26.2277242,47.0290228 24.2380348,46.8481419 L24.2380348,46.8481419 C20.9821794,42.3261205 18.4498474,35.0908862 18.0880857,26.9512477 L50.6466399,26.9512477 L50.6466399,25.1424391 C50.6466399,11.395494 39.2511459,0 25.3233199,0 Z M19.5351325,4.34114056 C16.460158,10.3102088 14.6513494,16.8219197 14.4704685,23.5145114 L3.61761714,23.5145114 C4.52202142,14.4704685 10.8528514,6.87347256 19.5351325,4.34114056 Z M19.5351325,46.3054993 L19.5351325,46.3054993 C16.0983963,45.2202142 12.66166,43.4114056 9.94844712,40.6981928 C6.33082999,37.0805756 4.16025971,32.1967925 3.61761714,27.1321285 L14.4704685,27.1321285 C14.8322303,34.7291245 16.8219197,41.2408353 19.5351325,46.3054993 Z M18.0880857,23.5145114 C18.2689665,16.460158 20.258656,9.58668541 24.057154,3.61761714 C24.9615582,3.61761714 25.6850817,3.61761714 26.5894859,3.61761714 C30.3879839,9.58668541 32.3776734,16.460158 32.5585542,23.5145114 L18.0880857,23.5145114 Z M36.1761714,23.5145114 C35.9952905,16.8219197 34.3673628,10.3102088 31.1115074,4.34114056 C39.7937885,6.87347256 46.1246185,14.4704685 46.8481419,23.5145114 L36.1761714,23.5145114 Z M50.6466399,36.1761714 L32.5585542,36.1761714 L32.5585542,32.5585542 L50.6466399,32.5585542 L50.6466399,36.1761714 Z M43.4114056,43.4114056 L32.5585542,43.4114056 L32.5585542,39.7937885 L43.4114056,39.7937885 L43.4114056,43.4114056 Z"></path>
                </g>
            </g>
        </g>
    </g>
</svg>