<?xml version="1.0" encoding="UTF-8"?>
<svg width="48px" height="48px" viewBox="0 0 48 48" version="1.1" xmlns="http://www.w3.org/2000/svg" xmlns:xlink="http://www.w3.org/1999/xlink">
    <title>database--messaging</title>
    <g id="V2-Icons" stroke="none" stroke-width="1" fill="none" fill-rule="evenodd">
        <g id="Extra-Storage-Icons" transform="translate(-171, -49)">
            <g id="database--messaging" transform="translate(171, 49)">
                <rect id="Rectangle-Copy-20" fill="#0F62FE" x="0" y="0" width="48" height="48"></rect>
                <g transform="translate(12, 12)">
                    <path d="M17.25,24 L15.93375,23.25 L18,20.25 L21,20.25 L21,15 L12,15 L12,20.25 L15,20.25 L15,21.75 L12,21.75 C11.173125,21.75 10.5,21.076875 10.5,20.25 L10.5,15 C10.5,14.173125 11.173125,13.5 12,13.5 L21,13.5 C21.826875,13.5 22.5,14.173125 22.5,15 L22.5,20.25 C22.5,21.076875 21.826875,21.75 21,21.75 L18.75,21.75 L17.25,24 Z" id="Path" fill="#FFFFFF" fill-rule="nonzero"></path>
                    <path d="M9.75,1.49985 C5.776575,1.49985 1.5,2.439 1.5,4.5 L1.5,18 C1.5,19.802475 4.77135,20.74695 8.25,20.9553 L8.25,19.454175 C4.849725,19.24395 3.09945,18.355875 3,17.999925 L3,15.3207 C4.279875,15.9627 6.22965,16.32885 8.25,16.450425 L8.25,14.9541 C4.849725,14.743875 3.09945,13.8558 3,13.49985 L3,10.820625 C4.595925,11.621175 7.23195,11.99985 9.75,11.99985 C13.723425,11.99985 18,11.06085 18,8.99985 L18,4.499475 C17.999475,2.438475 13.7232,1.49985 9.75,1.49985 L9.75,1.49985 Z M2.998875,4.511325 C3.1131,4.094925 5.362425,3 9.75,3 C14.0982,3 16.346175,4.075575 16.4976,4.5 C16.346175,4.924425 14.0982,6 9.75,6 C5.362425,6 3.113175,4.905 2.998875,4.511325 Z M16.5,8.990475 C16.37955,9.4083 14.130975,10.5 9.75,10.5 C5.362425,10.5 3.113175,9.405 3,9 L3,6.320775 C4.595925,7.121325 7.23195,7.5 9.75,7.5 C12.26805,7.5 14.904075,7.121325 16.5,6.320775 L16.5,8.990475 Z" id="Shape" fill="#FFFFFF" fill-rule="nonzero"></path>
                    <rect id="_Transparent_Rectangle_" x="0" y="0" width="24" height="24"></rect>
                </g>
            </g>
        </g>
    </g>
</svg>