<?xml version="1.0" encoding="UTF-8"?>
<svg width="48px" height="48px" viewBox="0 0 48 48" version="1.1" xmlns="http://www.w3.org/2000/svg" xmlns:xlink="http://www.w3.org/1999/xlink">
    <title>datastore</title>
    <g id="V2-Icons" stroke="none" stroke-width="1" fill="none" fill-rule="evenodd">
        <g id="Extra-Storage-Icons" transform="translate(-233, -49)">
            <g id="datastore" transform="translate(233, 49)">
                <rect id="Rectangle-Copy" fill="#0F62FE" x="0" y="0" width="48" height="48"></rect>
                <circle id="Oval" fill="#FFFFFF" fill-rule="nonzero" cx="29.25" cy="29.25" r="1"></circle>
                <rect id="Rectangle" fill="#FFFFFF" fill-rule="nonzero" x="18" y="28.5" width="9" height="1.5"></rect>
                <circle id="Oval" fill="#FFFFFF" fill-rule="nonzero" cx="29.25" cy="18.75" r="1"></circle>
                <rect id="Rectangle" fill="#FFFFFF" fill-rule="nonzero" x="18" y="18" width="9" height="1.5"></rect>
                <path d="M31.5,22.5 C32.3284271,22.5 33,21.8284271 33,21 L33,16.5 C33,15.6715729 32.3284271,15 31.5,15 L16.5,15 C15.6715729,15 15,15.6715729 15,16.5 L15,21 C15,21.8284271 15.6715729,22.5 16.5,22.5 L18,22.5 L18,25.5 L16.5,25.5 C15.6715729,25.5 15,26.1715729 15,27 L15,31.5 C15,32.3284271 15.6715729,33 16.5,33 L31.5,33 C32.3284271,33 33,32.3284271 33,31.5 L33,27 C33,26.1715729 32.3284271,25.5 31.5,25.5 L30,25.5 L30,22.5 L31.5,22.5 Z M16.5,16.5 L31.5,16.5 L31.5,21 L16.5,21 L16.5,16.5 Z M31.5,31.5 L16.5,31.5 L16.5,27 L31.5,27 L31.5,31.5 Z M28.5,25.5 L19.5,25.5 L19.5,22.5 L28.5,22.5 L28.5,25.5 Z" id="Shape" fill="#FFFFFF" fill-rule="nonzero"></path>
                <rect id="_Transparent_Rectangle_" x="12" y="12" width="24" height="24"></rect>
            </g>
        </g>
    </g>
</svg>