<?xml version="1.0" encoding="UTF-8"?>
<svg width="73px" height="73px" viewBox="0 0 73 73" version="1.1" xmlns="http://www.w3.org/2000/svg" xmlns:xlink="http://www.w3.org/1999/xlink">
    <!-- Generator: Sketch 53 (72520) - https://sketchapp.com -->
    <title>Group 11 Copy</title>
    <desc>Created with Sketch.</desc>
    <g id="Page-1" stroke="none" stroke-width="1" fill="none" fill-rule="evenodd">
        <g id="Logos-with-Names" transform="translate(-806.000000, -710.000000)">
            <g id="Group-11-Copy" transform="translate(806.500000, 710.831348)">
                <path d="M72.2773,35.9855 C72.2773,55.8585 56.1663,71.9695 36.2923,71.9695 C16.4183,71.9695 0.3073,55.8585 0.3073,35.9855 C0.3073,16.1115 16.4183,0.0005 36.2923,0.0005 C56.1663,0.0005 72.2773,16.1115 72.2773,35.9855" id="Fill-1" fill="#E02533"></path>
                <g id="Group-10" transform="translate(11.000000, 11.380000)" fill="#FFFFFF">
                    <path d="M35.481,41.303 L42.249,41.303 L42.249,39.064 L35.481,39.064 L35.481,41.303 Z M30.95,36.781 L46.768,36.781 L46.768,16.44 L46.634,16.44 C41.607,16.44 36.581,16.44 31.554,16.439 C31.412,16.439 31.271,16.428 31.129,16.417 C31.015,16.408 30.946,16.433 30.949,16.571 C30.955,16.951 30.95,17.331 30.95,17.712 L30.95,36.537 L30.95,36.781 Z M50.169,28.331 C50.169,32.27 50.17,36.208 50.169,40.146 C50.169,42.07 48.667,43.572 46.744,43.572 C41.489,43.573 36.233,43.572 30.978,43.573 C30.042,43.573 29.238,43.245 28.576,42.592 C27.913,41.939 27.564,41.137 27.564,40.203 C27.56,33.619 27.562,27.036 27.562,20.452 C27.562,20.179 27.533,19.901 27.568,19.632 C27.612,19.292 27.539,18.959 27.558,18.621 C27.577,18.269 27.562,17.914 27.562,17.561 C27.562,17.213 27.563,16.865 27.562,16.518 C27.559,14.76 28.737,13.367 30.473,13.085 C30.652,13.056 30.836,13.05 31.018,13.05 C36.256,13.048 41.495,13.046 46.733,13.05 C48.422,13.052 49.762,14.149 50.109,15.801 C50.156,16.021 50.167,16.254 50.167,16.48 C50.17,20.431 50.169,24.381 50.169,28.331 L50.169,28.331 Z" id="Fill-4"></path>
                    <path d="M7.2051,4.0156 L7.2051,28.8636 L3.8201,28.8636 L3.8201,28.7006 C3.8201,25.0126 3.8201,21.3256 3.8201,17.6366 C3.8201,13.1136 3.8201,8.5896 3.8201,4.0666 C3.8201,2.2506 5.0881,0.8286 6.8941,0.6246 C7.0631,0.6056 7.2351,0.6126 7.4061,0.6126 C16.2241,0.6126 25.0421,0.6136 33.8601,0.6136 C37.0461,0.6136 40.2321,0.6106 43.4181,0.6136 C45.2541,0.6146 46.7771,2.1326 46.7801,3.9646 C46.7841,5.7996 46.7811,7.6346 46.7811,9.4706 C46.7811,9.5266 46.7761,9.5806 46.7731,9.6446 L43.3981,9.6446 L43.3981,4.0156 L7.2051,4.0156 Z" id="Fill-5"></path>
                    <path d="M24.166,34.5332 L24.166,39.0392 C24.119,39.0432 24.076,39.0512 24.033,39.0512 C18.403,39.0522 12.772,39.0602 7.142,39.0502 C3.806,39.0442 0.955,36.5292 0.499,33.2202 C0.456,32.9122 0.443,32.6002 0.415,32.2712 L0.652,32.2712 C4.539,32.2722 8.425,32.2732 12.312,32.2732 C13.933,32.2732 15.554,32.2742 17.175,32.2682 C17.328,32.2672 17.389,32.2952 17.401,32.4672 C17.482,33.6202 18.465,34.5262 19.641,34.5312 C21.077,34.5382 22.513,34.5332 23.949,34.5332 L24.166,34.5332 Z" id="Fill-6"></path>
                    <path d="M10.0771,18.3936 C10.8951,17.5796 11.7341,16.7436 12.5791,15.9016 C13.5991,16.9286 14.6281,17.9636 15.6581,18.9996 C18.0401,16.6186 20.3871,14.2726 22.7231,11.9376 C23.5761,12.7906 24.4141,13.6306 25.2421,14.4586 C22.0681,17.6306 18.8721,20.8266 15.6881,24.0076 C13.8341,22.1536 11.9561,20.2746 10.0771,18.3936" id="Fill-7"></path>
                    <path d="M43.0024,22.6719 C41.0924,24.5809 39.1814,26.4929 37.2484,28.4269 C36.4004,27.5719 35.5644,26.7289 34.7414,25.8999 C34.0424,26.5929 33.3554,27.2739 32.6734,27.9489 C34.2024,29.4779 35.7334,31.0069 37.2434,32.5159 C39.8424,29.9179 42.4474,27.3149 45.0454,24.7189 C44.3754,24.0469 43.6964,23.3659 43.0024,22.6719" id="Fill-8"></path>
                    <path d="M43.0024,22.6719 C43.6964,23.3659 44.3754,24.0469 45.0454,24.7189 C42.4474,27.3149 39.8424,29.9179 37.2434,32.5159 C35.7334,31.0069 34.2024,29.4779 32.6734,27.9489 C33.3554,27.2739 34.0424,26.5929 34.7414,25.8999 C35.5644,26.7289 36.4004,27.5719 37.2484,28.4269 C39.1814,26.4929 41.0924,24.5809 43.0024,22.6719" id="Fill-9"></path>
                </g>
            </g>
        </g>
    </g>
</svg>