<?xml version="1.0" encoding="UTF-8"?>
<svg width="73px" height="73px" viewBox="0 0 73 73" version="1.1" xmlns="http://www.w3.org/2000/svg" xmlns:xlink="http://www.w3.org/1999/xlink">
    <!-- Generator: Sketch 53 (72520) - https://sketchapp.com -->
    <title>Group 10</title>
    <desc>Created with Sketch.</desc>
    <g id="Page-1" stroke="none" stroke-width="1" fill="none" fill-rule="evenodd">
        <g id="Logos-with-Names" transform="translate(-642.000000, -53.000000)">
            <g id="Group-10" transform="translate(642.000000, 52.000000)">
                <g id="Group-4" transform="translate(0.000000, 0.800000)" fill="#E02533">
                    <path d="M72.8833,36.3301 C72.8833,56.2841 56.7073,72.4601 36.7543,72.4601 C16.8003,72.4601 0.6243,56.2841 0.6243,36.3301 C0.6243,16.3761 16.8003,0.2001 36.7543,0.2001 C56.7073,0.2001 72.8833,16.3761 72.8833,36.3301" id="Fill-1"></path>
                </g>
                <text id="1010100" font-family="IBMPlexSans-Bold, IBM Plex Sans" font-size="10.7754" font-weight="bold" fill="#FFFFFF">
                    <tspan x="10.73" y="24.1632115">1010100</tspan>
                </text>
                <text id="1100011" font-family="IBMPlexSans-Bold, IBM Plex Sans" font-size="10.7754" font-weight="bold" fill="#FFFFFF">
                    <tspan x="10.73" y="37.0936915">1100011</tspan>
                </text>
                <text id="0011010" font-family="IBMPlexSans-Bold, IBM Plex Sans" font-size="10.7754" font-weight="bold" fill="#FFFFFF">
                    <tspan x="10.73" y="50.0241715">0011010</tspan>
                </text>
                <g id="Group-9" transform="translate(40.000000, 24.800000)">
                    <path d="M21.248,13.7949 L21.248,9.6709 C21.248,4.7599 17.067,0.5779 12.155,0.5779 C7.24,0.5779 3.062,4.7599 3.062,9.6709 L3.062,13.7969 C1.181,15.9329 0.031,18.7269 0.031,21.7939 C0.031,28.4859 5.463,33.9179 12.157,33.9179 C18.851,33.9179 24.279,28.4859 24.279,21.7939 C24.279,18.7249 23.129,15.9309 21.248,13.7949" id="Fill-5" fill="#E02533"></path>
                    <path d="M10.1689,27.0156 L5.2609,22.1076 L7.1329,20.2356 L10.1689,23.2706 L17.1769,16.2626 L19.0489,18.1346 L10.1689,27.0156 Z M6.8589,10.5786 C6.8589,7.7576 9.3339,5.2836 12.1549,5.2836 C14.9769,5.2836 17.4509,7.7576 17.4509,10.5786 L17.4509,12.0076 C15.8919,11.1046 14.0869,10.5786 12.1559,10.5786 C10.2249,10.5786 8.4189,11.1056 6.8589,12.0086 L6.8589,10.5786 Z M20.0989,10.5786 C20.0989,6.2886 16.4459,2.6356 12.1549,2.6356 C7.8609,2.6356 4.2109,6.2886 4.2109,10.5786 L4.2109,14.1836 C2.5679,16.0496 1.5639,18.4916 1.5639,21.1706 C1.5639,27.0176 6.3089,31.7626 12.1559,31.7626 C18.0039,31.7626 22.7469,27.0176 22.7469,21.1706 C22.7469,18.4896 21.7419,16.0486 20.0989,14.1826 L20.0989,10.5786 Z" id="Fill-7" fill="#FFFFFF"></path>
                </g>
            </g>
        </g>
    </g>
</svg>