<?xml version="1.0" encoding="UTF-8"?>
<svg width="73px" height="73px" viewBox="0 0 73 73" version="1.1" xmlns="http://www.w3.org/2000/svg" xmlns:xlink="http://www.w3.org/1999/xlink">
    <!-- Generator: Sketch 53 (72520) - https://sketchapp.com -->
    <title>Group 11 Copy 2</title>
    <desc>Created with Sketch.</desc>
    <g id="Page-1" stroke="none" stroke-width="1" fill="none" fill-rule="evenodd">
        <g id="Logos-with-Names" transform="translate(-806.000000, -841.000000)">
            <g id="Group-11-Copy-2" transform="translate(805.500000, 841.082076)">
                <path d="M72.626,35.9855 C72.626,55.8595 56.515,71.9705 36.641,71.9705 C16.767,71.9705 0.656,55.8595 0.656,35.9855 C0.656,16.1115 16.767,0.0005 36.641,0.0005 C56.515,0.0005 72.626,16.1115 72.626,35.9855" id="Fill-1" fill="#E02533"></path>
                <g id="Group-10" transform="translate(16.000000, 15.381000)" fill="#FFFFFF">
                    <path d="M40.376,16.5693 L37.757,16.5693 L37.757,8.5983 L2.963,8.5983 L2.963,38.0033 L16.279,38.0033 L16.279,40.6293 L0.302,40.6293 L0.302,40.1883 C0.302,27.9183 0.301,15.6463 0.302,3.3763 C0.302,1.7033 1.433,0.5803 3.115,0.5803 C14.592,0.5793 26.069,0.5793 37.546,0.5803 C39.251,0.5803 40.374,1.6973 40.375,3.4023 C40.378,7.6363 40.376,11.8713 40.376,16.1053 L40.376,16.5693 Z" id="Fill-4"></path>
                    <path d="M35.4126,36.8535 L32.3026,33.7435 L33.4886,32.5565 L35.4126,34.4805 L39.8536,30.0405 L41.0406,31.2265 L35.4126,36.8535 Z M33.3146,26.4375 C33.3146,24.6495 34.8836,23.0815 36.6716,23.0815 C38.4586,23.0815 40.0276,24.6495 40.0276,26.4375 L40.0276,27.3425 C39.0396,26.7705 37.8956,26.4375 36.6716,26.4375 C35.4476,26.4375 34.3036,26.7715 33.3146,27.3435 L33.3146,26.4375 Z M41.7056,26.4375 C41.7056,23.7185 39.3906,21.4035 36.6716,21.4035 C33.9496,21.4035 31.6366,23.7185 31.6366,26.4375 L31.6366,28.7215 C30.5956,29.9045 29.9586,31.4515 29.9586,33.1505 C29.9586,36.8555 32.9656,39.8635 36.6716,39.8635 C40.3786,39.8635 43.3836,36.8555 43.3836,33.1505 C43.3836,31.4515 42.7466,29.9035 41.7056,28.7215 L41.7056,26.4375 Z" id="Fill-5"></path>
                    <path d="M23.1489,29.5283 L11.7399,29.4483 C10.1649,29.4373 8.8779,30.7023 8.8669,32.2733 L8.8469,35.1183 L25.9609,35.2373 L25.9809,32.3923 C25.9919,30.8223 24.7239,29.5393 23.1489,29.5283" id="Fill-6"></path>
                    <path d="M17.4141,12.9863 C13.9091,12.9863 11.0571,15.8303 11.0571,19.3263 C11.0571,22.8233 13.9091,25.6673 17.4141,25.6673 C20.9201,25.6673 23.7711,22.8233 23.7711,19.3263 C23.7711,15.8303 20.9201,12.9863 17.4141,12.9863 M17.4141,26.5763 C13.4061,26.5763 10.1451,23.3243 10.1451,19.3263 C10.1451,15.3293 13.4061,12.0773 17.4141,12.0773 C21.4221,12.0773 24.6831,15.3293 24.6831,19.3263 C24.6831,23.3243 21.4221,26.5763 17.4141,26.5763" id="Fill-7"></path>
                    <polygon id="Fill-8" points="14.469 40.629 29.498 40.629 29.498 38.003 14.469 38.003"></polygon>
                    <polygon id="Fill-9" points="37.757 20.371 40.376 20.371 40.376 10.391 37.757 10.391"></polygon>
                </g>
            </g>
        </g>
    </g>
</svg>