<?xml version="1.0" encoding="UTF-8"?>
<svg width="66px" height="66px" viewBox="0 0 66 66" version="1.1" xmlns="http://www.w3.org/2000/svg" xmlns:xlink="http://www.w3.org/1999/xlink">
    <!-- Generator: Sketch 53 (72520) - https://sketchapp.com -->
    <title>Group 25</title>
    <desc>Created with Sketch.</desc>
    <g id="Page-1" stroke="none" stroke-width="1" fill="none" fill-rule="evenodd">
        <g id="Group-25">
            <path d="M56.333,9.6668 C69.222,22.5528 69.222,43.4478 56.333,56.3338 C43.447,69.2218 22.553,69.2218 9.667,56.3338 C-3.222,43.4478 -3.222,22.5528 9.667,9.6668 C22.553,-3.2222 43.447,-3.2222 56.333,9.6668" id="Fill-1" fill="#D81F2D"></path>
            <path d="M19.1294,24.5515 C19.0264,23.3745 18.9944,21.4865 19.5604,19.2985 C20.1944,16.8485 21.2634,15.2415 21.8614,14.3595 C22.4684,13.4655 23.8414,11.4835 26.3194,9.9475 C28.3234,8.7045 30.1034,8.3395 31.0174,8.1605 C32.8044,7.8115 34.2674,7.8745 35.0914,7.9505 C37.2994,8.1545 38.8974,8.8225 39.3104,9.0015 C39.8414,9.2315 41.6974,10.0765 43.6244,11.9435 C45.1864,13.4565 46.0634,14.9315 46.3084,15.3575 C47.3874,17.2305 47.8044,18.8445 47.8904,19.1925 C48.1514,20.2465 48.2294,21.0905 48.2744,21.6615 C48.5734,25.5195 48.4824,31.8745 48.4654,32.9565" id="Stroke-3" stroke="#FEFEFE" stroke-width="2"></path>
            <path d="M18.6978,28.1238 C19.0238,28.1608 19.7868,28.1988 20.6148,27.7558 C21.4668,27.3008 21.8968,26.6008 22.0528,26.3378 C22.1688,26.1438 22.4468,25.6428 22.7248,23.9738 C22.9688,22.5008 22.8798,22.1328 23.0598,21.0318 C23.1068,20.7488 23.3198,19.5058 23.8268,18.2998 C24.8488,15.8688 26.6608,14.5468 27.7098,13.7818 C28.3918,13.2838 29.3138,12.6228 30.6818,12.1528 C31.2008,11.9758 33.6388,11.1888 36.6258,12.0478 C37.1068,12.1868 38.4488,12.6118 39.9328,13.6768 C41.2708,14.6368 42.0728,15.6488 42.6658,16.4088 C43.3508,17.2868 44.0028,18.1368 44.4388,19.4558 C44.6808,20.1848 44.7668,20.7858 44.8228,21.2418 C45.0528,23.1238 45.0838,27.6458 45.0148,31.5388 C45.0078,31.9298 44.8208,32.8078 45.2058,33.6918 C45.5328,34.4408 46.0878,34.8548 46.5008,35.1638 C47.3658,35.8088 48.2598,36.0638 48.9458,36.1618" id="Stroke-5" stroke="#FEFEFE" stroke-width="2"></path>
            <path d="M18.6021,32.011 C19.1031,32.073 19.8441,32.102 20.7111,31.906 C21.9501,31.626 22.7881,31.033 23.2511,30.698 C23.8631,30.256 24.7391,29.62 25.3611,28.491 C25.7831,27.724 25.9351,26.552 26.2241,24.236 C26.5001,22.014 26.4401,21.637 26.7991,20.716 C26.8931,20.475 27.3041,19.456 28.1891,18.405 C28.9641,17.484 29.7351,16.975 30.0591,16.776 C31.0601,16.16 31.9391,15.951 32.2641,15.883 C33.4561,15.634 34.3941,15.787 34.9481,15.883 C35.4921,15.977 36.2131,16.109 37.0571,16.566 C37.8831,17.014 38.3961,17.541 38.8791,18.037 C39.3781,18.551 39.9541,19.152 40.4601,20.138 C41.0001,21.189 41.1731,22.115 41.2271,22.45 C41.3371,23.127 41.3291,23.655 41.3231,23.921 C41.2551,27.195 41.5431,30.473 41.4191,33.745 C41.4081,34.045 41.4661,34.676 41.6591,35.321 C41.8791,36.056 42.7361,36.978 43.4051,37.693 C44.1271,38.464 44.9931,38.902 45.2421,39.057 C45.8921,39.463 47.1611,39.855 48.9451,39.944" id="Stroke-7" stroke="#FEFEFE" stroke-width="2"></path>
            <path d="M18.6978,36.0169 C19.1328,36.1219 19.8008,36.2289 20.6028,36.1349 C21.6878,36.0079 22.4658,35.5749 23.2998,35.1109 C23.6088,34.9389 24.3568,34.5029 25.2408,33.7709 C25.7598,33.3409 26.9168,32.3199 28.0458,30.6589 C28.7348,29.6429 29.0178,29.0999 29.3758,28.1759 C29.4468,27.9929 29.6678,27.2309 29.7708,25.6549 C29.8318,24.7239 29.9928,24.1099 30.2018,23.2509 C30.4458,22.2529 30.6118,21.9289 30.7418,21.7149 C31.0758,21.1639 31.4598,20.8669 31.8918,20.5329 C32.4818,20.0769 32.9518,19.7119 33.6538,19.6259 C34.2598,19.5519 34.7408,19.7219 35.0198,19.8239 C35.1688,19.8779 35.7148,20.0879 36.2788,20.6109 C36.3828,20.7079 36.9608,21.2559 37.3208,22.1089 C37.6878,22.9769 37.6758,23.8039 37.5008,25.3789 C37.2618,27.5259 37.1418,28.5989 36.7808,29.8709 C36.5848,30.5639 35.9378,32.6989 34.4448,35.0319 C31.9438,38.9399 28.7408,40.7969 27.4338,41.5329 C23.9788,43.4799 20.7718,43.9229 18.8418,44.0159" id="Stroke-9" stroke="#FEFEFE" stroke-width="2"></path>
            <path d="M19.2729,39.9963 C20.1249,40.0123 21.3949,39.9483 22.8679,39.5233 C25.9949,38.6213 27.9699,36.6923 28.7639,35.8983 C30.1899,34.4743 31.0369,33.0653 31.6409,32.0633 C32.1909,31.1483 32.7329,30.2493 33.1739,29.0173 C33.5679,27.9173 34.1009,25.9423 33.8939,23.2383" id="Stroke-11" stroke="#FEFEFE" stroke-width="2"></path>
            <path d="M34.5269,39.72 C35.1309,39.73 35.7359,39.74 36.3399,39.75" id="Stroke-13" stroke="#FEFEFE" stroke-width="2"></path>
            <path d="M38.1001,35.8635 C38.2291,36.3515 38.4491,37.0355 38.8301,37.7915 C39.4191,38.9585 40.0821,39.6805 40.6991,40.3425 C41.8571,41.5875 42.9511,42.3125 43.4591,42.6275 C44.0661,43.0025 44.8171,43.4665 45.8961,43.7845 C47.2451,44.1815 48.4261,44.1495 49.2251,44.0515" id="Stroke-15" stroke="#FEFEFE" stroke-width="2"></path>
            <path d="M46.6538,48.2048 C46.0868,48.0168 45.3008,47.7368 44.3798,47.3448 C43.3178,46.8928 42.7328,46.6428 41.9978,46.1868 C40.7708,45.4258 40.4978,45.2678 39.4808,44.7038 C38.6128,44.2238 37.4258,43.7278 36.5948,43.5388 C35.5058,43.2918 34.8688,43.1398 33.2818,43.5178 C32.7118,43.6528 32.1528,43.9338 31.0348,44.4968 C28.7348,45.6538 28.6728,46.0138 27.1638,46.6618 C25.6968,47.2908 24.4298,47.5198 23.5638,47.6708 C22.5108,47.8538 21.5958,47.9188 20.8838,47.9378" id="Stroke-17" stroke="#FEFEFE" stroke-width="2"></path>
            <path d="M23.7529,51.6458 C24.7019,51.6368 25.4599,51.4698 25.9729,51.3198 C26.8569,51.0598 27.5109,50.7028 28.0569,50.3998 C28.8079,49.9838 28.8059,49.8918 29.8159,49.3018 C30.5369,48.8828 31.0629,48.6238 31.4949,48.4128 C32.3939,47.9728 32.8539,47.7508 33.3629,47.6708 C33.7929,47.6028 34.1099,47.6258 34.7429,47.6708 C35.3699,47.7148 35.8529,47.7498 36.4489,47.9378 C36.9729,48.1038 37.3849,48.3448 38.2079,48.8278 C38.7959,49.1718 38.9059,49.2728 39.5349,49.6578 C39.7699,49.8018 40.6309,50.3308 41.3209,50.6668 C41.9649,50.9808 42.9419,51.3648 44.2719,51.5568" id="Stroke-19" stroke="#FEFEFE" stroke-width="2"></path>
            <path d="M27.624,54.9983 C28.454,54.7683 29.138,54.4933 29.654,54.2563 C30.224,53.9953 30.994,53.6363 31.874,52.9803 C32.665,52.3923 32.663,52.2203 33.173,52.0013 C33.957,51.6673 34.686,51.7633 35.149,51.8243 C35.948,51.9293 36.529,52.2113 36.882,52.3873 C37.285,52.5883 37.611,52.8183 38.262,53.2773 C39.019,53.8113 39.186,53.9943 39.724,54.3153 C40.192,54.5953 40.597,54.7743 40.861,54.8793" id="Stroke-21" stroke="#FEFEFE" stroke-width="2"></path>
            <path d="M33.877,56.3035 C34.563,56.3135 35.249,56.3235 35.934,56.3335" id="Stroke-23" stroke="#FEFEFE" stroke-width="2"></path>
        </g>
    </g>
</svg>