<?xml version="1.0" encoding="UTF-8"?>
<svg width="66px" height="67px" viewBox="0 0 66 67" version="1.1" xmlns="http://www.w3.org/2000/svg" xmlns:xlink="http://www.w3.org/1999/xlink">
    <!-- Generator: Sketch 53 (72520) - https://sketchapp.com -->
    <title>Network Access Control List</title>
    <desc>Created with Sketch.</desc>
    <g id="Page-1" stroke="none" stroke-width="1" fill="none" fill-rule="evenodd">
        <g id="Artboard" transform="translate(-369.000000, -1604.000000)" fill-rule="nonzero">
            <g id="Network-Access-Control-List" transform="translate(368.916667, 1604.249950)">
                <g id="Group">
                    <ellipse id="Oval" fill="#E02533" cx="32.9394495" cy="32.9388889" rx="32.6972477" ry="32.8777778"></ellipse>
                    <g transform="translate(4.238532, 23.222222)" fill="#FFFFFF">
                        <polygon id="Path" points="0.544954128 17.4166667 0.544954128 8.92222222 0.544954128 0.488888889 6.41834862 4.70555556 12.2917431 8.92222222 6.41834862 13.1388889"></polygon>
                        <rect id="Rectangle" x="14.1688073" y="0.55" width="2.30091743" height="16.8666667"></rect>
                    </g>
                    <g transform="translate(46.623853, 23.833333)" fill="#FFFFFF">
                        <polygon id="Path" points="15.9853211 0 15.9853211 8.49444444 15.9853211 16.9888889 10.1119266 12.7111111 4.29908257 8.49444444 10.1119266 4.27777778"></polygon>
                        <rect id="Rectangle" transform="translate(1.230991, 8.476661) rotate(-180.000000) translate(-1.230991, -8.476661) " x="0.0805321101" y="0.0433277778" width="2.30091743" height="16.8666667"></rect>
                    </g>
                    <g transform="translate(21.798165, 14.055556)">
                        <ellipse id="Oval" fill="#E02533" cx="12.5944954" cy="8.00555556" rx="6.90275229" ry="4.95"></ellipse>
                        <g>
                            <g fill="#E02533">
                                <path d="M20.6477064,8.92222222 C20.6477064,4.15555556 16.6513761,0.122222222 11.9284404,0.122222222 C7.20550459,0.122222222 3.20917431,4.15555556 3.20917431,8.92222222 L3.20917431,12.8944444 C1.39266055,14.9722222 0.302752294,17.6611111 0.302752294,20.6555556 C0.302752294,27.1333333 5.51009174,32.3888889 11.9284404,32.3888889 C18.346789,32.3888889 23.5541284,27.1333333 23.5541284,20.6555556 C23.5541284,17.6611111 22.4642202,14.9722222 20.6477064,12.8944444 L20.6477064,8.92222222 L20.6477064,8.92222222 Z M6.11559633,8.92222222 C6.11559633,5.80555556 8.84036697,3.05555556 11.9284404,3.05555556 C15.0165138,3.05555556 17.7412844,5.80555556 17.7412844,8.92222222 L17.7412844,10.5111111 C16.0458716,9.53333333 14.0477064,8.92222222 11.9284404,8.92222222 C9.80917431,8.92222222 7.81100917,9.53333333 6.11559633,10.5111111 L6.11559633,8.92222222 L6.11559633,8.92222222 Z M9.74862385,27.1333333 L4.35963303,21.6944444 L6.41834862,19.6166667 L9.74862385,22.9777778 L17.4385321,15.2166667 L19.4972477,17.2944444 L9.74862385,27.1333333 Z" id="Shape"></path>
                                <ellipse id="Oval" cx="11.9284404" cy="20.8388889" rx="9.26422018" ry="9.35"></ellipse>
                            </g>
                            <path d="M19.9211009,9.35 C19.9211009,4.95 16.2275229,1.22222222 11.8678899,1.22222222 C7.50825688,1.22222222 3.8146789,4.95 3.8146789,9.35 L3.8146789,13.0166667 C2.17981651,14.9722222 1.21100917,17.4166667 1.21100917,20.1666667 C1.21100917,26.1555556 5.99449541,30.9833333 11.9284404,30.9833333 C17.8623853,30.9833333 22.5853211,26.1555556 22.5853211,20.1666667 C22.5853211,17.4166667 21.5559633,14.9111111 19.9211009,13.0166667 L19.9211009,9.35 L19.9211009,9.35 Z M6.53944954,9.35 C6.53944954,6.47777778 9.02201835,3.97222222 11.8678899,3.97222222 C14.7137615,3.97222222 17.1963303,6.47777778 17.1963303,9.35 L17.1963303,10.8166667 C15.6220183,9.9 13.8055046,9.35 11.8678899,9.35 C9.93027523,9.35 8.11376147,9.9 6.53944954,10.8166667 L6.53944954,9.35 Z M9.86972477,26.1555556 L4.90458716,21.1444444 L6.78165138,19.25 L9.86972477,22.3666667 L16.9541284,15.1555556 L18.8311927,17.05 L9.86972477,26.1555556 Z" id="Shape" fill="#FFFFFF"></path>
                        </g>
                    </g>
                </g>
            </g>
        </g>
    </g>
</svg>