<?xml version="1.0" encoding="UTF-8"?>
<svg width="67px" height="67px" viewBox="0 0 67 67" version="1.1" xmlns="http://www.w3.org/2000/svg" xmlns:xlink="http://www.w3.org/1999/xlink">
    <!-- Generator: Sketch 53 (72520) - https://sketchapp.com -->
    <title>NACL</title>
    <desc>Created with Sketch.</desc>
    <g id="Page-1" stroke="none" stroke-width="1" fill="none" fill-rule="evenodd">
        <g id="Artboard" transform="translate(-274.000000, -1604.000000)" fill-rule="nonzero">
            <g id="NACL" transform="translate(274.255656, 1604.249950)">
                <ellipse id="Oval" fill="#38B0DE" cx="33" cy="32.89" rx="33" ry="32.89"></ellipse>
                <path d="M28.215,17.5205556 C27.5325364,14.83229 25.1127074,12.9500173 22.3391667,12.9500173 C19.5656259,12.9500173 17.145797,14.83229 16.4633333,17.5205556 L10.1566667,17.5205556 L10.1566667,20.5761111 L16.4633333,20.5761111 C17.145797,23.2643766 19.5656259,25.1466494 22.3391667,25.1466494 C25.1127074,25.1466494 27.5325364,23.2643766 28.215,20.5761111 L55.8555556,20.5761111 L55.8555556,17.5205556 L28.215,17.5205556 Z M22.3422222,20.5761111 C21.7237437,20.578585 21.1647877,20.2079266 20.92639,19.6372354 C20.6879923,19.0665443 20.8171898,18.40842 21.2536463,17.9702106 C21.6901029,17.5320012 22.3477041,17.4001671 22.9193461,17.6362755 C23.4909881,17.8723839 23.8638839,18.4298499 23.8638889,19.0483333 C23.8605395,19.8873354 23.1812243,20.5666507 22.3422222,20.57 L22.3422222,20.5761111 Z" id="Shape" fill="#FFFFFF"></path>
                <path d="M43.6638889,25.135 C40.8972483,25.1536286 38.4882576,27.0286806 37.7911111,29.7061111 L10.1566667,29.7061111 L10.1566667,32.7616667 L37.7911111,32.7616667 C38.4735747,35.4499322 40.8934037,37.332205 43.6669444,37.332205 C46.4404852,37.332205 48.8603142,35.4499322 49.5427778,32.7616667 L55.8555556,32.7616667 L55.8555556,29.7061111 L49.5427778,29.7061111 C48.8450442,27.0264969 46.4328079,25.1508704 43.6638889,25.135 Z M43.6638889,32.7555556 C42.8201205,32.7555556 42.1361111,32.0715461 42.1361111,31.2277778 C42.1361111,30.3840094 42.8201205,29.7 43.6638889,29.7 C44.5076573,29.7 45.1916667,30.3840094 45.1916667,31.2277778 C45.1916667,32.0715461 44.5076573,32.7555556 43.6638889,32.7555556 L43.6638889,32.7555556 Z" id="Shape" fill="#FFFFFF"></path>
                <path d="M22.3422222,37.3266667 C19.5706333,37.3289601 17.1520474,39.2070096 16.4633333,41.8916667 L10.1566667,41.8916667 L10.1566667,44.9472222 L16.4633333,44.9472222 C17.145797,47.6354878 19.5656259,49.5177605 22.3391667,49.5177605 C25.1127074,49.5177605 27.5325364,47.6354878 28.215,44.9472222 L55.8555556,44.9472222 L55.8555556,41.8916667 L28.215,41.8916667 C27.5268545,39.2092104 25.1115344,37.3317452 22.3422222,37.3266667 L22.3422222,37.3266667 Z M22.3422222,44.9411111 C21.7231885,44.9435823 21.1638474,44.5722601 20.9258105,44.0008169 C20.6877735,43.4293738 20.8180948,42.7707699 21.2558213,42.3330435 C21.6935477,41.8953171 22.3521516,41.7649958 22.9235947,42.0030327 C23.4950378,42.2410696 23.8663601,42.8004108 23.8638889,43.4194444 C23.8605395,44.2584465 23.1812243,44.9377618 22.3422222,44.9411111 L22.3422222,44.9411111 Z" id="Shape" fill="#FFFFFF"></path>
                <ellipse id="Oval" fill="#38B0DE" cx="49.3227778" cy="19.4761111" rx="6.53277778" ry="5.65888889"></ellipse>
                <path d="M59.9561111,20.5638889 C60.0460049,16.9231909 58.1551022,13.5199084 55.0162947,11.6731138 C51.8774872,9.82631918 47.9841795,9.82631918 44.845372,11.6731138 C41.7065645,13.5199084 39.8156618,16.9231909 39.9055556,20.5638889 L39.9055556,25.1105556 C35.162088,30.4853985 35.5012675,38.6447185 40.6744588,43.6073301 C45.84765,48.5699417 54.0140167,48.5699417 59.1872079,43.6073301 C64.3603991,38.6447185 64.6995787,30.4853985 59.9561111,25.1105556 L59.9561111,20.5638889 Z M43.2483333,20.5638889 C43.1746704,18.1282738 44.4319914,15.8454749 46.5298744,14.6059049 C48.6277575,13.3663348 51.2339092,13.3663348 53.3317922,14.6059049 C55.4296753,15.8454749 56.6869962,18.1282738 56.6133333,20.5638889 L56.6133333,22.3972222 C52.4826268,19.993286 47.3790399,19.993286 43.2483333,22.3972222 L43.2483333,20.5638889 Z M47.4344444,41.305 L41.2316667,35.1144444 L43.5905556,32.7494444 L47.4344444,36.5811111 L56.2711111,27.7383333 L58.63,30.0972222 L47.4344444,41.305 Z" id="Shape" fill="#38B0DE"></path>
                <circle id="Oval" fill="#38B0DE" cx="49.9338889" cy="34.1305556" r="10.6455556"></circle>
                <path d="M59.1616667,21.0588889 C59.0328632,16.0533356 54.9380435,12.0625289 49.9308333,12.0625289 C44.9236231,12.0625289 40.8288035,16.0533356 40.7,21.0588889 L40.7,25.2511111 C36.3423271,30.1978636 36.6587593,37.7004212 41.4174894,42.2626751 C46.1762195,46.824929 53.6854471,46.824929 58.4441773,42.2626751 C63.2029074,37.7004212 63.5193395,30.1978636 59.1616667,25.2511111 L59.1616667,21.0588889 Z M43.7677778,21.0588889 C43.697046,18.8151747 44.8536725,16.710953 46.7858537,15.5681791 C48.7180348,14.4254051 51.1191874,14.4254051 53.0513685,15.5681791 C54.9835497,16.710953 56.1401762,18.8151747 56.0694444,21.0588889 L56.0694444,22.7211111 C52.2677386,20.5071104 47.5694836,20.5071104 43.7677778,22.7211111 L43.7677778,21.0588889 Z M47.6116667,40.1561111 L41.9344444,34.4544444 L44.11,32.2788889 L47.6361111,35.805 L55.7638889,27.665 L57.9394444,29.8405556 L47.6116667,40.1561111 Z" id="Shape" fill="#FFFFFF"></path>
                <ellipse id="Oval" fill="#E02533" cx="33" cy="32.89" rx="33" ry="32.89"></ellipse>
                <path d="M28.215,17.5205556 C27.5325364,14.83229 25.1127074,12.9500173 22.3391667,12.9500173 C19.5656259,12.9500173 17.145797,14.83229 16.4633333,17.5205556 L10.1566667,17.5205556 L10.1566667,20.5761111 L16.4633333,20.5761111 C17.145797,23.2643766 19.5656259,25.1466494 22.3391667,25.1466494 C25.1127074,25.1466494 27.5325364,23.2643766 28.215,20.5761111 L55.8555556,20.5761111 L55.8555556,17.5205556 L28.215,17.5205556 Z M22.3422222,20.5761111 C21.7237437,20.578585 21.1647877,20.2079266 20.92639,19.6372354 C20.6879923,19.0665443 20.8171898,18.40842 21.2536463,17.9702106 C21.6901029,17.5320012 22.3477041,17.4001671 22.9193461,17.6362755 C23.4909881,17.8723839 23.8638839,18.4298499 23.8638889,19.0483333 C23.8605395,19.8873354 23.1812243,20.5666507 22.3422222,20.57 L22.3422222,20.5761111 Z" id="Shape" fill="#FFFFFF"></path>
                <path d="M43.6638889,25.135 C40.8972483,25.1536286 38.4882576,27.0286806 37.7911111,29.7061111 L10.1566667,29.7061111 L10.1566667,32.7616667 L37.7911111,32.7616667 C38.4735747,35.4499322 40.8934037,37.332205 43.6669444,37.332205 C46.4404852,37.332205 48.8603142,35.4499322 49.5427778,32.7616667 L55.8555556,32.7616667 L55.8555556,29.7061111 L49.5427778,29.7061111 C48.8450442,27.0264969 46.4328079,25.1508704 43.6638889,25.135 Z M43.6638889,32.7555556 C42.8201205,32.7555556 42.1361111,32.0715461 42.1361111,31.2277778 C42.1361111,30.3840094 42.8201205,29.7 43.6638889,29.7 C44.5076573,29.7 45.1916667,30.3840094 45.1916667,31.2277778 C45.1916667,32.0715461 44.5076573,32.7555556 43.6638889,32.7555556 L43.6638889,32.7555556 Z" id="Shape" fill="#FFFFFF"></path>
                <path d="M22.3422222,37.3266667 C19.5706333,37.3289601 17.1520474,39.2070096 16.4633333,41.8916667 L10.1566667,41.8916667 L10.1566667,44.9472222 L16.4633333,44.9472222 C17.145797,47.6354878 19.5656259,49.5177605 22.3391667,49.5177605 C25.1127074,49.5177605 27.5325364,47.6354878 28.215,44.9472222 L55.8555556,44.9472222 L55.8555556,41.8916667 L28.215,41.8916667 C27.5268545,39.2092104 25.1115344,37.3317452 22.3422222,37.3266667 L22.3422222,37.3266667 Z M22.3422222,44.9411111 C21.7231885,44.9435823 21.1638474,44.5722601 20.9258105,44.0008169 C20.6877735,43.4293738 20.8180948,42.7707699 21.2558213,42.3330435 C21.6935477,41.8953171 22.3521516,41.7649958 22.9235947,42.0030327 C23.4950378,42.2410696 23.8663601,42.8004108 23.8638889,43.4194444 C23.8605395,44.2584465 23.1812243,44.9377618 22.3422222,44.9411111 L22.3422222,44.9411111 Z" id="Shape" fill="#FFFFFF"></path>
            </g>
        </g>
    </g>
</svg>