<?xml version="1.0" encoding="UTF-8"?>
<svg width="65px" height="65px" viewBox="0 0 65 65" version="1.1" xmlns="http://www.w3.org/2000/svg" xmlns:xlink="http://www.w3.org/1999/xlink">
    <!-- Generator: Sketch 53 (72520) - https://sketchapp.com -->
    <title>INDIVIDUAL ICONS-59</title>
    <desc>Created with Sketch.</desc>
    <g id="Page-1" stroke="none" stroke-width="1" fill="none" fill-rule="evenodd">
        <g id="INDIVIDUAL-ICONS-59" fill-rule="nonzero">
            <ellipse id="Oval" fill="#E02533" cx="32.6491803" cy="32.6191667" rx="31.85" ry="32.3808333"></ellipse>
            <path d="M43.6885246,23.3025 C43.6885245,17.1279566 38.7651247,12.1225002 32.6918033,12.1225002 C26.6184819,12.1225002 21.6950821,17.1279566 21.695082,23.3025 L21.695082,28.3833333 C16.4964615,34.3762596 16.870379,43.4706879 22.5428034,49.0016281 C28.2152278,54.5325683 37.1683787,54.5325683 42.8408031,49.0016281 C48.5132275,43.4706879 48.8871451,34.3762596 43.6885246,28.3833333 L43.6885246,23.3025 Z M25.3606557,23.3025 C25.4615622,19.2293878 28.6854634,15.9517549 32.6918033,15.8491667 C36.6981432,15.9517549 39.9220443,19.2293878 40.0229508,23.3025 L40.0229508,25.3175 C35.4917852,22.6344043 29.8918214,22.6344043 25.3606557,25.3175 L25.3606557,23.3025 Z M29.942623,46.4316667 L23.154918,39.52 L25.7442623,36.8875 L29.9,41.1666667 L39.5967213,31.3083333 L42.1860656,33.9408333 L29.942623,46.4316667 Z" id="Shape" fill="#FFFFFF"></path>
        </g>
    </g>
</svg>