<?xml version="1.0" encoding="UTF-8"?>
<svg width="66px" height="67px" viewBox="0 0 66 67" version="1.1" xmlns="http://www.w3.org/2000/svg" xmlns:xlink="http://www.w3.org/1999/xlink">
    <!-- Generator: Sketch 53 (72520) - https://sketchapp.com -->
    <title>Group 13</title>
    <desc>Created with Sketch.</desc>
    <g id="Page-1" stroke="none" stroke-width="1" fill="none" fill-rule="evenodd">
        <g id="Artboard" transform="translate(-74.000000, -1604.000000)">
            <g id="Group-13" transform="translate(74.000000, 1604.249950)">
                <g id="VPN-Policy" fill="#E02533" fill-rule="nonzero">
                    <g id="Group">
                        <ellipse id="Oval" cx="32.8788991" cy="33" rx="32.6972477" ry="32.8777778"></ellipse>
                    </g>
                </g>
                <g id="Group-4" transform="translate(7.500000, 14.500000)">
                    <path d="M13.0638155,16.1365599 C13.8414236,16.1365599 14.5671911,16.1365599 15.3447992,16.1365599 C15.5003208,16.1365599 15.5521614,16.0842405 15.5521614,15.9272824 C15.5521614,14.0437851 15.5521614,12.1602877 15.5521614,10.2767904 C15.5003208,7.39922505 16.5371316,4.94021465 18.507072,2.8997592 C20.0104476,1.38249747 21.8248664,0.440748801 23.9503285,0.126832579 C27.1126013,-0.344041753 29.9119903,0.493068171 32.2448145,2.69048172 C33.9037117,4.26006283 34.9405225,6.14356016 35.3034063,8.44561246 C35.4070873,9.0734449 35.4589279,9.64895797 35.4589279,10.2767904 C35.4589279,12.1602877 35.4589279,13.9914657 35.4589279,15.874963 C35.4589279,15.9272824 35.4589279,16.0319211 35.4589279,16.1365599 C36.2883765,16.1365599 37.1178251,16.1365599 37.9472737,16.1365599 C37.9472737,16.2411986 37.9472737,16.3458374 37.9472737,16.4504761 C37.9472737,22.8857587 37.9472737,29.3210412 37.9472737,35.7040044 C37.9472737,35.8086431 37.9472737,35.8609625 37.9472737,35.9656012 C29.6527876,35.9656012 21.3583016,35.9656012 13.0638155,35.9656012 C13.0638155,29.3733606 13.0638155,22.7811199 13.0638155,16.1365599 Z M32.192974,16.1365599 C32.192974,16.0319211 32.192974,15.9796018 32.192974,15.9272824 C32.192974,14.0437851 32.192974,12.1602877 32.192974,10.2767904 C32.192974,9.80591608 32.1411335,9.33504175 32.0892929,8.86416742 C31.519047,5.77732457 28.9788607,3.68454976 26.2313121,3.42295291 C24.8834582,3.31831417 23.6392853,3.47527228 22.4987934,4.15542409 C20.0622881,5.46340835 18.9217963,7.60850253 18.8699558,10.3291098 C18.8699558,12.1602877 18.8699558,14.0437851 18.8699558,15.874963 C18.8699558,16.1365599 18.8699558,16.1365599 19.1291585,16.1365599 C23.4319231,16.1365599 27.6828472,16.1365599 31.9856118,16.1365599 C32.0374524,16.1365599 32.0892929,16.1365599 32.192974,16.1365599 Z" id="Shape" fill="#FFFFFF" fill-rule="nonzero"></path>
                    <polyline id="Path" stroke="#E02533" stroke-width="2.7155" stroke-linecap="round" points="18.6625936 24.4553398 24.6242555 30.5767061 34.214755 20.4267483"></polyline>
                    <g id="Group" transform="translate(0.000000, 0.911623)">
                        <path d="M2.69570797,9.05125106 L15.137437,9.05125106" id="Path" stroke="#FFFFFF" stroke-width="6"></path>
                        <polygon id="Path" fill="#FFFFFF" fill-rule="nonzero" points="9.90154273 18.0501827 11.3530778 16.4282823 3.52515657 9.05125106 11.3530778 1.67421985 9.90154273 0.104638741 0.311043227 9.05125106"></polygon>
                    </g>
                    <path d="M20.6843746,9.96287419 L30.4303957,9.96287419" id="Path" stroke="#FFFFFF" stroke-width="6"></path>
                    <g id="Group" transform="translate(35.769971, 0.911623)">
                        <path d="M12.6490912,9.05125106 L0.103681076,9.05125106" id="Path" stroke="#FFFFFF" stroke-width="6"></path>
                        <polygon id="Path" fill="#FFFFFF" fill-rule="nonzero" points="5.44325647 0.104638741 3.93988088 1.67421985 11.8196426 9.05125106 3.93988088 16.4282823 5.44325647 18.0501827 14.9819154 9.05125106"></polygon>
                    </g>
                </g>
            </g>
        </g>
    </g>
</svg>