<?xml version="1.0" encoding="UTF-8"?>
<svg width="66px" height="67px" viewBox="0 0 66 67" version="1.1" xmlns="http://www.w3.org/2000/svg" xmlns:xlink="http://www.w3.org/1999/xlink">
    <!-- Generator: Sketch 53 (72520) - https://sketchapp.com -->
    <title>VPN Policy</title>
    <desc>Created with Sketch.</desc>
    <g id="Page-1" stroke="none" stroke-width="1" fill="none" fill-rule="evenodd">
        <g id="Artboard" transform="translate(-184.000000, -1604.000000)" fill-rule="nonzero">
            <g id="VPN-Policy" transform="translate(183.833333, 1604.249950)">
                <g id="Group">
                    <ellipse id="Oval" fill="#E02533" cx="32.8788991" cy="33" rx="32.6972477" ry="32.8777778"></ellipse>
                    <g transform="translate(7.266055, 15.277778)" id="Path">
                        <path d="M50.6201835,34.8944444 L0.605504587,34.8944444 C0.48440367,34.8944444 0.423853211,34.8333333 0.423853211,34.7111111 L0.423853211,0.733333333 C0.423853211,0.611111111 0.48440367,0.55 0.605504587,0.55 L50.6201835,0.55 C50.7412844,0.55 50.8018349,0.611111111 50.8018349,0.733333333 L50.8018349,34.7111111 C50.8018349,34.7722222 50.7412844,34.8944444 50.6201835,34.8944444 Z" fill="#FFFFFF"></path>
                        <path d="M48.6825688,33.3055556 L2.24036697,33.3055556 C2.11926606,33.3055556 2.0587156,33.2444444 2.0587156,33.1222222 L2.0587156,2.13888889 C2.0587156,2.01666667 2.11926606,1.95555556 2.24036697,1.95555556 L48.6825688,1.95555556 C48.8036697,1.95555556 48.8642202,2.01666667 48.8642202,2.13888889 L48.8642202,33.1222222 C48.9247706,33.2444444 48.8036697,33.3055556 48.6825688,33.3055556 Z" fill="#E02533"></path>
                        <path d="M46.5633028,10.5111111 L5.02568807,10.5111111 C4.90458716,10.5111111 4.8440367,10.45 4.8440367,10.3277778 L4.8440367,5.68333333 C4.8440367,5.56111111 4.90458716,5.5 5.02568807,5.5 L46.5633028,5.5 C46.6844037,5.5 46.7449541,5.56111111 46.7449541,5.68333333 L46.7449541,10.3277778 C46.7449541,10.3888889 46.6844037,10.5111111 46.5633028,10.5111111 Z" fill="#FFFFFF"></path>
                        <path d="M46.5633028,30.8611111 L5.02568807,30.8611111 C4.90458716,30.8611111 4.8440367,30.8 4.8440367,30.6777778 L4.8440367,15.0944444 C4.8440367,14.9722222 4.90458716,14.9111111 5.02568807,14.9111111 L46.5633028,14.9111111 C46.6844037,14.9111111 46.7449541,14.9722222 46.7449541,15.0944444 L46.7449541,30.6777778 C46.7449541,30.8 46.6844037,30.8611111 46.5633028,30.8611111 Z" fill="#FFFFFF"></path>
                        <path d="M25.612844,25.0555556 L8.11376147,25.0555556 C7.99266055,25.0555556 7.93211009,24.9944444 7.93211009,24.8722222 L7.93211009,24.1388889 C7.93211009,24.0166667 7.99266055,23.9555556 8.11376147,23.9555556 L25.612844,23.9555556 C25.733945,23.9555556 25.7944954,24.0166667 25.7944954,24.1388889 L25.7944954,24.8722222 C25.7944954,24.9333333 25.733945,25.0555556 25.612844,25.0555556 Z" fill="#E02533"></path>
                    </g>
                </g>
            </g>
        </g>
    </g>
</svg>