<svg width="32" height="32" viewBox="0 0 32 32" fill="none" xmlns="http://www.w3.org/2000/svg">
<mask id="mask0_3_248" style="mask-type:alpha" maskUnits="userSpaceOnUse" x="2" y="4" width="28" height="26">
<path d="M28 16V22H4V6H7V4H4C3.46957 4 2.96086 4.21071 2.58579 4.58579C2.21071 4.96086 2 5.46957 2 6V22C2 22.5304 2.21071 23.0391 2.58579 23.4142C2.96086 23.7893 3.46957 24 4 24H12V28H8V30H24V28H20V24H28C28.5304 24 29.0391 23.7893 29.4142 23.4142C29.7893 23.0391 30 22.5304 30 22V16H28ZM18 28H14V24H18V28Z" fill="white"/>
<path fill-rule="evenodd" clip-rule="evenodd" d="M7 5V4L21 4V6L7 6L7 5Z" fill="url(#paint0_linear_3_248)"/>
</mask>
<g mask="url(#mask0_3_248)">
<path d="M0 33L32 33L32 1L0 1L0 33Z" fill="url(#paint1_linear_3_248)"/>
</g>
<path d="M21 15L16 10.04L17.59 8.47L21 11.85L28.41 4.5L30 6.08L21 15Z" fill="#001D6C"/>
<defs>
<linearGradient id="paint0_linear_3_248" x1="8" y1="5" x2="21" y2="5" gradientUnits="userSpaceOnUse">
<stop stop-color="white"/>
<stop offset="0.69952" stop-color="white" stop-opacity="0"/>
<stop offset="1" stop-color="white" stop-opacity="0"/>
</linearGradient>
<linearGradient id="paint1_linear_3_248" x1="-8.7608" y1="33" x2="21.2027" y2="-0.74373" gradientUnits="userSpaceOnUse">
<stop offset="0.1" stop-color="#42BE65"/>
<stop offset="0.9" stop-color="#007D79"/>
</linearGradient>
</defs>
</svg>
