<svg width="32" height="32" viewBox="0 0 32 32" fill="none" xmlns="http://www.w3.org/2000/svg">
<g clip-path="url(#clip0_3_263)">
<mask id="mask0_3_263" style="mask-type:alpha" maskUnits="userSpaceOnUse" x="2" y="4" width="28" height="26">
<path d="M28 16V22H4V6H7V4H4C3.46957 4 2.96086 4.21071 2.58579 4.58579C2.21071 4.96086 2 5.46957 2 6V22C2 22.5304 2.21071 23.0391 2.58579 23.4142C2.96086 23.7893 3.46957 24 4 24H12V28H8V30H24V28H20V24H28C28.5304 24 29.0391 23.7893 29.4142 23.4142C29.7893 23.0391 30 22.5304 30 22V16H28ZM18 28H14V24H18V28Z" fill="white"/>
<path fill-rule="evenodd" clip-rule="evenodd" d="M6 5V4L17 4V6L6 6L6 5Z" fill="url(#paint0_linear_3_263)"/>
</mask>
<g mask="url(#mask0_3_263)">
<rect width="32" height="32" fill="white"/>
<path d="M32 0H0V32H32V0Z" fill="url(#paint1_linear_3_263)"/>
</g>
<path fill-rule="evenodd" clip-rule="evenodd" d="M24 2H16V4H24V2ZM24 6H16V8H24V6ZM25.72 11.18C25.1898 10.9202 24.748 10.5097 24.45 10H22.26C22.4656 10.6511 22.8023 11.2531 23.2495 11.7691C23.6967 12.2851 24.2448 12.704 24.86 13L27 14L29.14 13C29.9973 12.594 30.7215 11.9525 31.2279 11.1504C31.7343 10.3482 32.0021 9.41861 32 8.47V2H27V4H30V8.47C29.9994 9.03824 29.8374 9.59461 29.5329 10.0744C29.2284 10.5541 28.7939 10.9376 28.28 11.18L27 11.79L25.72 11.18Z" fill="#001D6C"/>
</g>
<defs>
<linearGradient id="paint0_linear_3_263" x1="6.78571" y1="5" x2="17" y2="5" gradientUnits="userSpaceOnUse">
<stop offset="0.046875" stop-color="white"/>
<stop offset="0.822917" stop-color="white" stop-opacity="0"/>
</linearGradient>
<linearGradient id="paint1_linear_3_263" x1="0" y1="32" x2="32" y2="0" gradientUnits="userSpaceOnUse">
<stop offset="0.1" stop-color="#FA4D56"/>
<stop offset="0.9" stop-color="#9F1853"/>
</linearGradient>
<clipPath id="clip0_3_263">
<rect width="32" height="32" fill="white"/>
</clipPath>
</defs>
</svg>
