<svg width="32" height="32" viewBox="0 0 32 32" fill="none" xmlns="http://www.w3.org/2000/svg">
<mask id="mask0_3_215" style="mask-type:alpha" maskUnits="userSpaceOnUse" x="2" y="4" width="28" height="26">
<path d="M28 16V22H4V6H7V4H4C3.46957 4 2.96086 4.21071 2.58579 4.58579C2.21071 4.96086 2 5.46957 2 6V22C2 22.5304 2.21071 23.0391 2.58579 23.4142C2.96086 23.7893 3.46957 24 4 24H12V28H8V30H24V28H20V24H28C28.5304 24 29.0391 23.7893 29.4142 23.4142C29.7893 23.0391 30 22.5304 30 22V16H28ZM18 28H14V24H18V28Z" fill="white"/>
<path fill-rule="evenodd" clip-rule="evenodd" d="M7 5V4L21 4V6L7 6L7 5Z" fill="url(#paint0_linear_3_215)"/>
</mask>
<g mask="url(#mask0_3_215)">
<path d="M0 32L32 32L32 0L0 0L0 32Z" fill="url(#paint1_linear_3_215)"/>
</g>
<path d="M11 10.94H15.89L17.58 16.84C17.648 17.0365 17.7756 17.2069 17.9449 17.3275C18.1143 17.4481 18.3171 17.5129 18.525 17.5129C18.7329 17.5129 18.9357 17.4481 19.1051 17.3275C19.2744 17.2069 19.402 17.0365 19.47 16.84L22.29 6.91001L23.23 10.28C23.3125 10.4646 23.4435 10.6235 23.609 10.7397C23.7745 10.8559 23.9683 10.9251 24.17 10.94H30V9.06001H24.92L23.23 3.16001C23.1683 2.96157 23.0426 2.78916 22.8725 2.66975C22.7025 2.55033 22.4976 2.49064 22.29 2.50001C22.0845 2.5001 21.884 2.5635 21.7158 2.6816C21.5476 2.79969 21.4199 2.96674 21.35 3.16001L18.52 13.09L17.58 9.72001C17.4984 9.53474 17.3677 9.37531 17.202 9.25898C17.0363 9.14265 16.842 9.07384 16.64 9.06001H11V10.94V10.94Z" fill="#001D6C"/>
<defs>
<linearGradient id="paint0_linear_3_215" x1="8" y1="5" x2="21" y2="5" gradientUnits="userSpaceOnUse">
<stop stop-color="white"/>
<stop offset="0.69952" stop-color="white" stop-opacity="0"/>
<stop offset="1" stop-color="white" stop-opacity="0"/>
</linearGradient>
<linearGradient id="paint1_linear_3_215" x1="-8.7608" y1="32" x2="21.2027" y2="-1.74373" gradientUnits="userSpaceOnUse">
<stop offset="0.1" stop-color="#EE5396"/>
<stop offset="0.9" stop-color="#8A3FFC"/>
</linearGradient>
</defs>
</svg>
