<svg width="32" height="32" viewBox="0 0 32 32" fill="none" xmlns="http://www.w3.org/2000/svg">
<mask id="mask0_3_233" style="mask-type:alpha" maskUnits="userSpaceOnUse" x="2" y="4" width="28" height="26">
<path d="M28 16V22H4V6H7V4H4C3.46957 4 2.96086 4.21071 2.58579 4.58579C2.21071 4.96086 2 5.46957 2 6V22C2 22.5304 2.21071 23.0391 2.58579 23.4142C2.96086 23.7893 3.46957 24 4 24H12V28H8V30H24V28H20V24H28C28.5304 24 29.0391 23.7893 29.4142 23.4142C29.7893 23.0391 30 22.5304 30 22V16H28ZM18 28H14V24H18V28Z" fill="white"/>
<path fill-rule="evenodd" clip-rule="evenodd" d="M7 5V4L21 4V6L7 6L7 5Z" fill="url(#paint0_linear_3_233)"/>
</mask>
<g mask="url(#mask0_3_233)">
<path d="M32 0H0V32H32V0Z" fill="url(#paint1_linear_3_233)"/>
</g>
<path d="M24 15L21.86 14C21.0027 13.594 20.2785 12.9525 19.7721 12.1504C19.2657 11.3482 18.9979 10.4186 19 9.47V3H29V9.47C29.0003 10.4208 28.7296 11.3519 28.2195 12.1543C27.7094 12.9566 26.9811 13.5969 26.12 14L24 15ZM21 5V9.47C20.9997 10.0372 21.1602 10.5928 21.4629 11.0724C21.7655 11.5521 22.198 11.9361 22.71 12.18L24 12.78L25.28 12.18C25.7939 11.9376 26.2284 11.5541 26.5329 11.0744C26.8374 10.5946 26.9994 10.0382 27 9.47V5H21Z" fill="#001D6C"/>
<defs>
<linearGradient id="paint0_linear_3_233" x1="8" y1="5" x2="21" y2="5" gradientUnits="userSpaceOnUse">
<stop stop-color="white"/>
<stop offset="0.69952" stop-color="white" stop-opacity="0"/>
<stop offset="1" stop-color="white" stop-opacity="0"/>
</linearGradient>
<linearGradient id="paint1_linear_3_233" x1="0" y1="32" x2="32" y2="0" gradientUnits="userSpaceOnUse">
<stop offset="0.1" stop-color="#A56EFF"/>
<stop offset="0.9" stop-color="#0F62FE"/>
</linearGradient>
</defs>
</svg>
