<?xml version="1.0" encoding="UTF-8"?>
<svg width="67px" height="66px" viewBox="0 0 67 66" version="1.1" xmlns="http://www.w3.org/2000/svg" xmlns:xlink="http://www.w3.org/1999/xlink">
    <!-- Generator: Sketch 53 (72520) - https://sketchapp.com -->
    <title>Group 6</title>
    <desc>Created with Sketch.</desc>
    <defs>
        <polygon id="path-1" points="0 0.0001 65.9996 0.0001 65.9996 66 0 66"></polygon>
    </defs>
    <g id="Page-1" stroke="none" stroke-width="1" fill="none" fill-rule="evenodd">
        <g id="Group-6" transform="translate(0.475000, 0.000000)">
            <g id="Group-3">
                <mask id="mask-2" fill="white">
                    <use xlink:href="#path-1"></use>
                </mask>
                <g id="Clip-2"></g>
                <path d="M32.9996,0.0001 C51.2256,0.0001 65.9996,14.7741 65.9996,33.0001 C65.9996,51.2251 51.2256,66.0001 32.9996,66.0001 C14.7746,66.0001 -0.0004,51.2251 -0.0004,33.0001 C-0.0004,14.7741 14.7746,0.0001 32.9996,0.0001" id="Fill-1" fill="#335D80" mask="url(#mask-2)"></path>
            </g>
            <path d="M47.8239,27.4371 C47.6649,27.3381 47.5579,27.2641 47.4449,27.2021 C45.6439,26.2171 43.8389,25.2411 42.0449,24.2441 C41.7559,24.0831 41.5349,24.0821 41.2439,24.2421 C38.7859,25.6001 36.3129,26.9301 33.8609,28.2961 C33.2629,28.6291 32.7499,28.6271 32.1539,28.2961 C29.6859,26.9231 27.1989,25.5851 24.7249,24.2221 C24.4639,24.0781 24.2729,24.0771 24.0119,24.2221 C22.2019,25.2261 20.3829,26.2091 18.5669,27.2021 C18.4499,27.2661 18.3429,27.3471 18.1949,27.4441 C23.0789,30.1091 27.9049,32.7471 32.7409,35.3661 C32.8969,35.4511 33.1859,35.4141 33.3559,35.3251 C34.6059,34.6671 35.8419,33.9821 37.0809,33.3051 C40.6389,31.3611 44.1979,29.4171 47.8239,27.4371 M18.1879,46.6501 C18.2989,46.7271 18.3489,46.7691 18.4069,46.8001 C23.1619,49.3971 27.9189,51.9901 32.6689,54.5961 C32.9459,54.7491 33.1399,54.6981 33.3889,54.5611 C35.9229,53.1691 38.4609,51.7891 40.9969,50.4041 C43.2579,49.1701 45.5189,47.9351 47.8379,46.6691 C47.6499,46.5631 47.5119,46.4831 47.3709,46.4061 C45.5859,45.4281 43.7949,44.4591 42.0169,43.4661 C41.7349,43.3091 41.5329,43.3231 41.2599,43.4731 C38.7869,44.8361 36.3009,46.1751 33.8319,47.5471 C33.2519,47.8691 32.7489,47.8681 32.1699,47.5451 C30.1349,46.4081 28.0829,45.3021 26.0349,44.1861 C25.4879,43.8881 24.9349,43.3621 24.3869,43.3661 C23.8199,43.3711 23.2519,43.8831 22.6909,44.1871 C21.2079,44.9941 19.7279,45.8081 18.1879,46.6501 M18.1919,37.2131 C18.3159,37.2941 18.3929,37.3531 18.4769,37.3991 C23.2059,39.9821 27.9349,42.5621 32.6599,45.1521 C32.9279,45.2991 33.1239,45.2781 33.3799,45.1381 C38.0609,42.5721 42.7479,40.0151 47.4319,37.4561 C47.5529,37.3891 47.6659,37.3091 47.8209,37.2101 C45.6919,36.0501 43.6199,34.9111 41.5319,33.8001 C41.3809,33.7191 41.0909,33.7851 40.9179,33.8791 C38.5599,35.1481 36.2049,36.4221 33.8669,37.7271 C33.2509,38.0711 32.7269,38.0551 32.1159,37.7131 C29.7929,36.4161 27.4469,35.1591 25.1169,33.8731 C24.8269,33.7131 24.6069,33.6911 24.3069,33.8631 C23.2229,34.4811 22.1199,35.0661 21.0239,35.6641 C20.0929,36.1731 19.1609,36.6831 18.1919,37.2131 M47.8139,17.9881 C47.7159,17.9231 47.6769,17.8941 47.6339,17.8701 C42.8639,15.2631 38.0919,12.6601 33.3269,10.0421 C33.0409,9.8851 32.8479,9.9621 32.6049,10.0951 C28.3269,12.4371 24.0449,14.7741 19.7629,17.1121 C19.2529,17.3911 18.7439,17.6731 18.1969,17.9741 C18.3259,18.0581 18.4029,18.1171 18.4879,18.1631 C23.2299,20.7531 27.9739,23.3381 32.7099,25.9411 C33.0109,26.1061 33.1969,25.9911 33.4259,25.8661 C38.0669,23.3301 42.7089,20.7951 47.3489,18.2601 C47.4909,18.1821 47.6289,18.0971 47.8139,17.9881 M44.0959,41.9501 C46.1569,43.0761 48.1439,44.1631 50.1329,45.2491 C50.2769,45.3281 50.4199,45.4101 50.5669,45.4821 C51.0659,45.7301 51.4559,46.0671 51.4449,46.6781 C51.4339,47.2611 51.0589,47.5821 50.5779,47.8321 C49.9369,48.1661 49.3099,48.5251 48.6759,48.8721 C43.7599,51.5551 38.8389,54.2301 33.9319,56.9311 C33.2859,57.2871 32.7469,57.3011 32.0949,56.9421 C26.5969,53.9171 21.0869,50.9181 15.5799,47.9111 C15.4779,47.8561 15.3779,47.8011 15.2779,47.7431 C14.3099,47.1811 14.3119,46.1121 15.2979,45.5691 C17.2969,44.4661 19.3039,43.3791 21.3079,42.2851 C21.4939,42.1841 21.6759,42.0751 21.9129,41.9381 C20.9429,41.4081 20.0229,40.9041 19.1029,40.4011 C17.8489,39.7161 16.5969,39.0261 15.3399,38.3481 C14.8889,38.1051 14.5679,37.7781 14.5639,37.2411 C14.5589,36.6821 14.8929,36.3481 15.3589,36.0951 C17.4809,34.9431 19.5979,33.7821 21.7169,32.6231 C21.8689,32.5391 22.0149,32.4451 22.2199,32.3241 C22.0139,32.2021 21.8679,32.1071 21.7159,32.0241 C19.6399,30.8901 17.5659,29.7521 15.4859,28.6261 C14.9839,28.3551 14.5539,28.0431 14.5639,27.4061 C14.5739,26.7981 14.9829,26.4911 15.4709,26.2271 C17.4659,25.1471 19.4509,24.0551 21.4389,22.9661 C21.5799,22.8891 21.7169,22.8071 21.9109,22.6951 C20.8789,22.1301 19.8999,21.5951 18.9219,21.0611 C17.7399,20.4151 16.5609,19.7621 15.3749,19.1261 C14.9069,18.8761 14.5649,18.5461 14.5629,17.9891 C14.5609,17.4311 14.9049,17.1021 15.3699,16.8491 C21.0089,13.7751 26.6449,10.6991 32.2789,7.6151 C32.7739,7.3431 33.2249,7.3381 33.7209,7.6091 C39.3699,10.7001 45.0209,13.7831 50.6749,16.8651 C51.1269,17.1111 51.4409,17.4441 51.4439,17.9781 C51.4469,18.5341 51.1169,18.8651 50.6459,19.1201 C48.6229,20.2121 46.6079,21.3211 44.5909,22.4241 C44.4469,22.5021 44.3069,22.5841 44.1029,22.7011 C44.3269,22.8291 44.5019,22.9341 44.6789,23.0311 C46.6539,24.1111 48.6259,25.1951 50.6059,26.2641 C51.0889,26.5241 51.4499,26.8511 51.4439,27.4331 C51.4389,28.0161 51.0619,28.3331 50.5849,28.5911 C48.4899,29.7241 46.4029,30.8711 44.3129,32.0131 C44.1569,32.0981 44.0049,32.1901 43.7719,32.3241 C43.9749,32.4421 44.1199,32.5321 44.2689,32.6141 C46.3739,33.7631 48.4759,34.9161 50.5869,36.0561 C51.0639,36.3141 51.4409,36.6311 51.4429,37.2151 C51.4459,37.7961 51.0819,38.1231 50.5999,38.3821 C48.6059,39.4591 46.6199,40.5511 44.6309,41.6381 C44.4729,41.7241 44.3209,41.8181 44.0959,41.9501" id="Fill-4" fill="#FFFFFF"></path>
        </g>
    </g>
</svg>