<?xml version="1.0" encoding="UTF-8"?>
<svg width="109px" height="108px" viewBox="0 0 109 108" version="1.1" xmlns="http://www.w3.org/2000/svg" xmlns:xlink="http://www.w3.org/1999/xlink">
    <!-- Generator: Sketch 53 (72520) - https://sketchapp.com -->
    <title>Accessor Node</title>
    <desc>Created with Sketch.</desc>
    <g id="Page-1" stroke="none" stroke-width="1" fill="none" fill-rule="evenodd">
        <g id="Network-Icons" transform="translate(-657.000000, -273.000000)" fill-rule="nonzero">
            <g id="Accessor-Node" transform="translate(656.816406, 273.000000)">
                <ellipse id="Oval" fill="#325C80" cx="54.4" cy="54.2" rx="54" ry="53.8"></ellipse>
                <g id="Group" transform="translate(20.000000, 27.000000)">
                    <path d="M58,15.1 L1.1,15.1 C0.6,15.1 0.1,14.7 0.1,14.1 L0.1,1.1 C0.1,0.6 0.5,0.1 1.1,0.1 L58,0.1 C58.5,0.1 59,0.5 59,1.1 L59,14.1 C59,14.6 58.5,15.1 58,15.1 Z" id="Path" fill="#FFFFFF"></path>
                    <path d="M38.8,33.4 C38.9,33.3 39,33.2 39.1,33.1 C39.2,33 39.3,32.9 39.3,32.9 C39.4,32.8 39.4,32.7 39.5,32.5 C39.6,32.3 39.6,32.3 39.8,32 C39.9,31.8 40,31.7 40,31.7 C40.4,31 40.7,30.6 41,30.2 C41.6,29.4 42.1,28.8 42.4,28.5 C42.4,28.5 43.1,27.7 44,27.1 C47,24.7 50.6,23.9 50.6,23.9 C54.2,23.1 57.3,23.7 57.7,23.9 C57.7,23.9 57.9,24 58.2,24 C58.6,24 59,23.9 59,23.9 L59,23.9 L59,19.3 C59,18.9 58.7,18.6 58.3,18.6 L0.9,18.6 C0.5,18.6 0.2,18.9 0.2,19.3 L0.2,32.9 C0.2,33.3 0.5,33.6 0.9,33.6 L38.7,33.6 C38.7,33.4 38.7,33.4 38.8,33.4 Z" id="Path" fill="#FFFFFF"></path>
                    <path d="M39.5,47.7 C39,46.6 38.6,45.6 38.4,44.8 C37.9,43 37.6,41.4 37.7,40.6 C37.7,40.4 37.8,39 37.9,38.6 C37.9,38.6 37.9,38.5 37.9,38.3 C37.9,38.2 37.9,37.9 37.8,37.7 C37.6,37.4 37.1,37.4 37.1,37.3 L0.9,37.3 C0.5,37.3 0.2,37.6 0.2,38 L0.2,51.6 C0.2,52 0.5,52.3 0.9,52.3 L42.8,52.3 C41.8,51.4 41.2,50.5 40.7,49.8 C40.1,49 39.8,48.4 39.5,47.7 Z" id="Path" fill="#FFFFFF"></path>
                    <circle id="Oval" fill="#FFFFFF" cx="53.9" cy="39.5" r="14.7"></circle>
                    <path d="M9.6,11.1 C8.6,11.1 7.6,11.1 6.7,11.1 C7.7,8.7 8.7,6.4 9.7,4 C10.7,4 11.6,4 12.6,4 C11.6,6.3 10.6,8.7 9.6,11.1 Z" id="Path" fill="#325C80"></path>
                    <path d="M14.5,11.1 C13.5,11.1 12.5,11.1 11.6,11.1 C12.6,8.7 13.6,6.4 14.6,4 C15.6,4 16.5,4 17.5,4 C16.5,6.3 15.5,8.7 14.5,11.1 Z" id="Path" fill="#325C80"></path>
                    <path d="M19.4,11.1 C18.4,11.1 17.4,11.1 16.5,11.1 C17.5,8.7 18.5,6.4 19.5,4 C20.5,4 21.4,4 22.4,4 C21.4,6.3 20.4,8.7 19.4,11.1 Z" id="Path" fill="#325C80"></path>
                    <path d="M24.3,11.1 C23.3,11.1 22.3,11.1 21.4,11.1 C22.4,8.7 23.4,6.4 24.4,4 C25.4,4 26.3,4 27.3,4 C26.3,6.3 25.3,8.7 24.3,11.1 Z" id="Path" fill="#325C80"></path>
                    <path d="M9.6,28.4 C8.6,28.4 7.6,28.4 6.7,28.4 C7.7,26 8.7,23.7 9.7,21.3 C10.7,21.3 11.6,21.3 12.6,21.3 C11.6,23.7 10.6,26.1 9.6,28.4 Z" id="Path" fill="#325C80"></path>
                    <path d="M14.5,28.4 C13.5,28.4 12.5,28.4 11.6,28.4 C12.6,26 13.6,23.7 14.6,21.3 C15.6,21.3 16.5,21.3 17.5,21.3 C16.5,23.7 15.5,26.1 14.5,28.4 Z" id="Path" fill="#325C80"></path>
                    <path d="M19.4,28.4 C18.4,28.4 17.4,28.4 16.5,28.4 C17.5,26 18.5,23.7 19.5,21.3 C20.5,21.3 21.4,21.3 22.4,21.3 C21.4,23.7 20.4,26.1 19.4,28.4 Z" id="Path" fill="#325C80"></path>
                    <path d="M24.3,28.4 C23.3,28.4 22.3,28.4 21.4,28.4 C22.4,26 23.4,23.7 24.4,21.3 C25.4,21.3 26.3,21.3 27.3,21.3 C26.3,23.7 25.3,26.1 24.3,28.4 Z" id="Path" fill="#325C80"></path>
                    <path d="M9.6,48 C8.6,48 7.6,48 6.7,48 C7.7,45.6 8.7,43.3 9.7,40.9 C10.7,40.9 11.6,40.9 12.6,40.9 C11.6,43.2 10.6,45.6 9.6,48 Z" id="Path" fill="#325C80"></path>
                    <path d="M14.5,48 C13.5,48 12.5,48 11.6,48 C12.6,45.6 13.6,43.3 14.6,40.9 C15.6,40.9 16.5,40.9 17.5,40.9 C16.5,43.2 15.5,45.6 14.5,48 Z" id="Path" fill="#325C80"></path>
                    <path d="M19.4,48 C18.4,48 17.4,48 16.5,48 C17.5,45.6 18.5,43.3 19.5,40.9 C20.5,40.9 21.4,40.9 22.4,40.9 C21.4,43.2 20.4,45.6 19.4,48 Z" id="Path" fill="#325C80"></path>
                    <path d="M24.3,48 C23.3,48 22.3,48 21.4,48 C22.4,45.6 23.4,43.3 24.4,40.9 C25.4,40.9 26.3,40.9 27.3,40.9 C26.3,43.2 25.3,45.6 24.3,48 Z" id="Path" fill="#325C80"></path>
                </g>
            </g>
        </g>
    </g>
</svg>