<?xml version="1.0" encoding="UTF-8"?>
<svg width="66px" height="67px" viewBox="0 0 66 67" version="1.1" xmlns="http://www.w3.org/2000/svg" xmlns:xlink="http://www.w3.org/1999/xlink">
    <!-- Generator: Sketch 53 (72520) - https://sketchapp.com -->
    <title>Group 32</title>
    <desc>Created with Sketch.</desc>
    <g id="Page-1" stroke="none" stroke-width="1" fill="none" fill-rule="evenodd">
        <g id="Artboard" transform="translate(-538.000000, -1280.000000)" fill-rule="nonzero">
            <g id="Group-32" transform="translate(538.000000, 1280.749650)">
                <ellipse id="Oval" fill="#38B0DE" cx="33" cy="32.89" rx="33" ry="32.89"></ellipse>
                <path d="M19.2683333,49.83 C11.9781746,49.83 6.06833333,43.9201587 6.06833333,36.63 C6.06833333,29.3398413 11.9781746,23.43 19.2683333,23.43 C24.3860992,23.4624346 29.0032045,26.5101554 31.0444444,31.2033333 L29.7122222,31.8144444 C27.9004998,27.6509363 23.8087645,24.9430647 19.2683333,24.9027778 C12.9109214,25.0480829 7.83296468,30.2434277 7.83296468,36.6025 C7.83296468,42.9615723 12.9109214,48.1569171 19.2683333,48.3022222 L19.4822222,48.3022222 L19.4822222,49.775 L19.4027778,49.775 C19.367051,49.8104688 19.3186759,49.8302586 19.2683333,49.83 Z" id="Path" stroke="#FFFFFF" stroke-width="2" fill="#FFFFFF"></path>
                <rect id="Rectangle" stroke="#FFFFFF" stroke-width="2" fill="#FFFFFF" x="19.2683333" y="48.3266667" width="18.8038889" height="1.47277778"></rect>
                <path d="M43.7616667,25.3366667 C43.3122818,18.6979195 37.8324502,13.5214881 31.1788889,13.4505556 C24.9065617,13.4659791 19.6005128,18.092166 18.7305556,24.3038889 L17.2883333,24.0594444 C18.3743656,16.9789171 24.6115197,11.8478649 31.7685987,12.1471211 C38.9256777,12.4463772 44.7127247,18.0801926 45.2038889,25.2266667 L43.7616667,25.3366667 Z" id="Path" stroke="#FFFFFF" stroke-width="2" fill="#FFFFFF"></path>
                <path d="M43.7311111,24.6277778 L43.7311111,26.1005556 C49.8972222,26.2411111 54.945,31.5027778 54.945,37.8277778 C55.0026672,44.2570568 49.8425201,49.5183833 43.4133333,49.5855556 C42.7991914,49.5768491 42.1864828,49.5237477 41.58,49.4266667 C40.3144444,49.2244765 39.0928845,48.8069552 37.9683333,48.1922222 C37.3572222,48.1922222 36.8683333,48.2472222 36.5261111,48.2838889 C36.2938889,48.2838889 36.0127778,48.3327778 35.6094444,48.345 C35.3038889,48.345 35.0472222,48.345 34.8761111,48.345 C37.3974395,50.0798556 40.3717908,51.0380217 43.4316667,51.1011111 C50.6580008,51.0005208 56.447791,45.0851624 56.3933333,37.8583333 C56.3933333,30.7083333 50.7038889,24.7927778 43.7311111,24.6277778 Z" id="Path" stroke="#FFFFFF" stroke-width="2" fill="#FFFFFF"></path>
                <path d="M59.6566667,37.1555556 C59.6566667,45.6194444 51.9994444,51.8222222 45.3872222,52.3966667 C42.7472188,52.6091115 40.1044418,52.0213545 37.8033333,50.71 C34.3387922,48.6661145 32.0555196,45.093678 31.6555556,41.0911111 C31.3316667,37.1677778 33.2444444,34.4116667 35.5666667,30.8488889 C38.0477778,27.0477778 40.9566667,22.7883333 45.2894444,22.0122222 C50.8261111,21.01 59.6261111,27.61 59.6566667,37.1555556 Z" id="Path" fill="#38B0DE"></path>
                <path d="M51.645,48.6444444 L37.9133333,48.6444444 L37.9133333,48.3633333 C37.9133333,41.1644444 37.9133333,33.9675926 37.9133333,26.7727778 C37.9068025,26.3778719 38.0578575,25.996633 38.3330936,25.7133692 C38.6083297,25.4301053 38.9850695,25.2681554 39.38,25.2633333 C42.9855556,25.2633333 46.5890741,25.2633333 50.1905556,25.2633333 C50.5904117,25.2679479 50.9713563,25.4342908 51.2465332,25.7244354 C51.5217101,26.0145801 51.6676618,26.4037932 51.6511111,26.8033333 C51.6511111,34.0022222 51.6511111,41.1990741 51.6511111,48.3938889 L51.645,48.6444444 Z M50.8383333,47.8072222 L50.8383333,26.6261111 C50.8383333,26.2166667 50.6855556,26.07 50.2761111,26.07 L39.2761111,26.07 C38.9530021,26.089421 38.7010835,26.3574195 38.7016667,26.6811111 L38.7016657,47.8255556 L50.8383333,47.8255556 L50.8383333,47.8072222 Z" id="Shape" stroke="#FFFFFF" fill="#FFFFFF"></path>
                <path d="M50.0316667,34.43 L39.5511111,34.43 L39.5511111,31.9244444 L50.0316667,31.9244444 L50.0316667,34.43 Z M40.3394444,33.5927778 L49.225,33.5927778 L49.225,32.7555556 L40.3394444,32.7555556 L40.3394444,33.5927778 Z" id="Shape" fill="#FFFFFF"></path>
                <path d="M39.5511111,37.8033333 L39.5511111,35.2977778 L50.0316667,35.2977778 L50.0316667,37.8033333 L39.5511111,37.8033333 Z M40.7733333,36.9722222 L49.225,36.9722222 L49.225,36.1044444 L40.7733333,36.1044444 L40.7733333,36.9722222 Z" id="Shape" fill="#FFFFFF"></path>
                <path d="M39.5511111,41.5372222 L39.5511111,39.0255556 L50.0316667,39.0255556 L50.0316667,41.5311111 L39.5511111,41.5372222 Z M40.7733333,40.7 L49.225,40.7 L49.225,39.8688889 L40.7733333,39.8688889 L40.7733333,40.7 Z" id="Shape" fill="#FFFFFF"></path>
                <path d="M50.0316667,28.16 L50.0316667,30.6655556 L39.5511111,30.6655556 L39.5511111,28.16 L50.0316667,28.16 Z M40.7733333,29.8588889 L49.225,29.8588889 L49.225,28.9972222 L40.7733333,28.9972222 L40.7733333,29.8588889 Z" id="Shape" fill="#FFFFFF"></path>
                <circle id="Oval" stroke="#FFFFFF" fill="#FFFFFF" cx="44.7822222" cy="44.9594444" r="1.94333333"></circle>
            </g>
        </g>
    </g>
</svg>