<?xml version="1.0" encoding="UTF-8"?>
<svg width="67px" height="66px" viewBox="0 0 67 66" version="1.1" xmlns="http://www.w3.org/2000/svg" xmlns:xlink="http://www.w3.org/1999/xlink">
    <!-- Generator: Sketch 53 (72520) - https://sketchapp.com -->
    <title>Group 70</title>
    <desc>Created with Sketch.</desc>
    <defs>
        <polygon id="path-1" points="0 0.213137615 65.9998167 0.213137615 65.9998167 65.3943138 0 65.3943138"></polygon>
    </defs>
    <g id="Page-1" stroke="none" stroke-width="1" fill="none" fill-rule="evenodd">
        <g id="Artboard" transform="translate(-170.000000, -1281.000000)">
            <g id="Group-70" transform="translate(170.333333, 1281.142017)">
                <g id="Group-3" transform="translate(0.000000, 0.000000)">
                    <mask id="mask-2" fill="white">
                        <use xlink:href="#path-1"></use>
                    </mask>
                    <g id="Clip-2"></g>
                    <path d="M65.9998167,32.8036349 C65.9998167,50.8034697 51.2249833,65.3943138 32.9998167,65.3943138 C14.77465,65.3943138 -0.000183333333,50.8034697 -0.000183333333,32.8036349 C-0.000183333333,14.8044055 14.77465,0.212955963 32.9998167,0.212955963 C51.2249833,0.212955963 65.9998167,14.8044055 65.9998167,32.8036349" id="Fill-1" fill="#38B0DE" mask="url(#mask-2)"></path>
                </g>
                <path d="M14.6086111,21.7273211 L23.5522222,21.7273211 L23.5522222,12.8869541 L14.6086111,12.8869541 L14.6086111,21.7273211 Z M56.9958889,29.5498349 C56.8736667,29.5443853 56.7801667,29.5371193 56.6860556,29.5371193 C53.9103889,29.5365138 51.1341111,29.5407523 48.3584444,29.5304587 C48.0889444,29.5298532 48.0284444,29.6109908 48.0290556,29.8653028 C48.0382222,32.606422 48.0345556,35.3469358 48.0345556,38.088055 L48.0345556,38.408367 L56.9958889,38.408367 L56.9958889,29.5498349 Z M23.5546667,29.5522569 C23.4471111,29.5462018 23.3536111,29.5371193 23.2613333,29.5371193 C20.4777222,29.5365138 17.6941111,29.5413578 14.9105,29.5298532 C14.6281667,29.5286422 14.5878333,29.6285505 14.5884444,29.8707523 C14.5951667,32.610055 14.5927222,35.3493578 14.5927222,38.0886606 L14.5927222,38.4011009 L23.5546667,38.4011009 L23.5546667,29.5522569 Z M14.6116667,55.0797248 L23.5485556,55.0797248 L23.5485556,46.2260367 L14.6116667,46.2260367 L14.6116667,55.0797248 Z M25.2040556,17.7267523 L25.2040556,18.0295046 C25.2040556,19.4851376 25.2046667,20.9401651 25.2034444,22.3964037 C25.2028333,23.0794128 24.9162222,23.3670275 24.2336111,23.367633 C20.7997778,23.3682385 17.3659444,23.3682385 13.9315,23.367633 C13.2519444,23.367633 12.9549444,23.0739633 12.9549444,22.3988257 C12.9531111,19.005578 12.9531111,15.6123303 12.9549444,12.2190826 C12.9549444,11.548789 13.2574444,11.2520917 13.9339444,11.2514862 C17.3586111,11.2508807 20.7826667,11.2514862 24.2079444,11.2514862 C24.9131667,11.2520917 25.2028333,11.5348624 25.2034444,12.2263486 C25.2046667,13.5590642 25.2040556,14.8917798 25.2040556,16.2244954 L25.2040556,16.5266422 C25.2517222,16.5617615 25.2993889,16.5962752 25.3470556,16.630789 C25.3916667,16.5363303 25.4142778,16.4194679 25.4845556,16.3492294 C26.8565,14.983211 28.2357778,13.6226422 29.6101667,12.2578349 C29.8723333,11.9974679 30.1754444,11.9072477 30.5237778,12.0253211 C30.8287222,12.1294679 31.0041111,12.3601651 31.0511667,12.675633 C31.097,12.9826239 30.9601111,13.2199817 30.7443889,13.4319083 C29.9120556,14.251156 29.0852222,15.0752477 28.2565556,15.8981284 C28.1960556,15.9574679 28.1392222,16.0198349 28.0206667,16.1427523 L28.3989444,16.1427523 C31.6427222,16.1427523 34.8865,16.1421468 38.1290556,16.1427523 C38.8813333,16.1427523 39.1624444,16.4224954 39.1624444,17.1708991 L39.1624444,32.7662752 L39.1624444,33.1453211 L46.4047222,33.1453211 L46.4047222,32.8371193 C46.4047222,31.5231743 46.4041111,30.2098349 46.4047222,28.8958899 C46.4053333,28.2159083 46.6956111,27.9222385 47.3727222,27.9222385 C50.8065556,27.921633 54.2403889,27.921633 57.6754444,27.9222385 C58.355,27.9222385 58.6513889,28.2159083 58.6513889,28.8898349 C58.652,32.2830826 58.652,35.6763303 58.6513889,39.069578 C58.6513889,39.7495596 58.3598889,40.0432294 57.6809444,40.0432294 C54.2465,40.0444404 50.8126667,40.0444404 47.3788333,40.0432294 C46.6962222,40.0432294 46.4053333,39.7531927 46.4053333,39.0750275 C46.4041111,37.7616881 46.4047222,36.4477431 46.4047222,35.1337982 L46.4047222,34.8110642 L39.1624444,34.8110642 L39.1624444,35.1695229 C39.1624444,40.2733211 39.1618333,45.3771193 39.1636667,50.4815229 C39.1642778,50.751578 39.1496111,51.0113394 38.9479444,51.2214495 C38.7493333,51.4291376 38.5030556,51.484844 38.2219444,51.484844 C34.9494444,51.4806055 31.6781667,51.4818165 28.4056667,51.4818165 L28.1019444,51.4818165 C28.0781111,51.5157248 28.0542778,51.549633 28.0298333,51.5829358 C28.1483889,51.671945 28.2785556,51.748844 28.3836667,51.8517798 C29.1640556,52.6147156 29.9407778,53.3818899 30.7162778,54.1496697 C31.1055556,54.5347706 31.1397778,55.0082752 30.8091667,55.3576514 C30.4785556,55.7070275 29.9688889,55.6973394 29.5918333,55.3255596 C28.5437778,54.2925688 27.4975556,53.257156 26.4531667,52.2199266 C26.0583889,51.8281651 25.6709444,51.4291376 25.2798333,51.0337431 C25.2541667,51.0452477 25.2291111,51.0567523 25.2040556,51.0682569 L25.2040556,51.3667706 C25.2040556,52.8224037 25.2046667,54.2780367 25.2034444,55.7330642 C25.2028333,56.4306055 24.9180556,56.7127706 24.2134444,56.7127706 C20.7881667,56.7133761 17.3641111,56.7133761 13.9394444,56.7127706 C13.2452222,56.7127706 12.9549444,56.4215229 12.9543333,55.7239817 C12.9537222,52.3495046 12.9537222,48.9750275 12.9543333,45.601156 C12.9543333,44.8866606 13.244,44.5972294 13.9541111,44.5972294 C17.3696111,44.5966239 20.7838889,44.5966239 24.1987778,44.5972294 C24.8991111,44.5972294 25.1869444,44.8842385 25.1869444,45.5787523 C25.1869444,46.9205505 25.1869444,48.2629541 25.1869444,49.6047523 L25.1869444,49.9874312 C25.3146667,49.8687523 25.3886111,49.8045688 25.4570556,49.7361468 C26.7801111,48.4270459 28.1031667,47.117945 29.4256111,45.8094495 C29.4995556,45.735578 29.5722778,45.6604954 29.6486667,45.5896514 C29.9976111,45.2663119 30.4871111,45.2572294 30.8079444,45.5660367 C31.1452778,45.8911927 31.1544444,46.3810459 30.8055,46.7310275 C30.0214444,47.517578 29.2282222,48.2950459 28.4362222,49.0737248 C28.1997222,49.3062385 27.9552778,49.5302752 27.6564444,49.8136514 L37.5112222,49.8136514 L37.5112222,34.8189358 L28.0775,34.8189358 C28.1318889,34.8879633 28.1673333,34.9454862 28.2143889,34.9921101 C29.0571111,35.8277064 29.8992222,36.6626972 30.7443889,37.4952661 C30.9967778,37.7435229 31.1018889,38.0323486 30.9918889,38.3720367 C30.8892222,38.6868991 30.6582222,38.874 30.3263889,38.9206239 C30.0293889,38.9624037 29.7916667,38.8473578 29.5826667,38.6396697 C28.1881111,37.2548807 26.7892778,35.8743303 25.3935,34.4901468 C25.3537778,34.4513945 25.3366667,34.3902385 25.3091667,34.3393761 L25.2175,34.382367 C25.2126111,34.4768257 25.2046667,34.5718899 25.2046667,34.6669541 C25.2034444,36.1316697 25.2046667,37.5969908 25.2034444,39.0623119 C25.2028333,39.7598532 24.9180556,40.0432294 24.2146667,40.0438349 C20.79,40.0444404 17.3653333,40.0444404 13.9406667,40.0432294 C13.2452222,40.0432294 12.9549444,39.7519817 12.9543333,39.0544404 C12.9537222,35.6805688 12.9537222,32.3060917 12.9543333,28.9322202 C12.9549444,28.2262018 13.2519444,27.9337431 13.9638889,27.9337431 C17.3787778,27.9331376 20.7936667,27.9331376 24.2091667,27.9337431 C24.9070556,27.9337431 25.2028333,28.2255963 25.2034444,28.9134495 C25.2046667,30.2558532 25.2040556,31.5982569 25.2040556,32.940055 L25.2040556,33.2385688 C25.2407222,33.260367 25.278,33.2821651 25.3146667,33.3045688 C25.399,33.1901284 25.4686667,33.0617615 25.5688889,32.9630642 C26.9151667,31.6242936 28.2657222,30.289156 29.6162778,28.9546239 C29.9633889,28.6113028 30.4119444,28.5598349 30.7498889,28.8147523 C31.1642222,29.1271927 31.1874444,29.6824404 30.7914444,30.0766239 C29.8497222,31.0145505 28.9043333,31.948844 27.9565,32.8813211 C27.8843889,32.9527706 27.7841667,32.9969725 27.6961667,33.0538899 C27.7169444,33.0823486 27.7377222,33.1108073 27.7591111,33.1392661 L37.5265,33.1392661 L37.5265,17.8133394 L27.7138889,17.8133394 C27.8000556,17.9096147 27.8605556,17.9846972 27.9296111,18.0525138 C28.8542222,18.9668257 29.7806667,19.8793211 30.7058889,20.793633 C31.0365,21.12 31.1214444,21.4796697 30.9521667,21.8163303 C30.6936667,22.3297982 30.0385556,22.4194128 29.6034444,21.9907156 C28.4056667,20.8117982 27.2127778,19.6286422 26.0198889,18.4454862 C25.7711667,18.1990459 25.5322222,17.9423119 25.289,17.6910275 C25.2602778,17.7025321 25.2321667,17.7146422 25.2040556,17.7267523 L25.2040556,17.7267523 Z" id="Fill-4" fill="#FFFFFF"></path>
                <path d="M56.9960722,29.549956 L56.9960722,38.4078826 L48.0347389,38.4078826 L48.0347389,38.0881761 C48.0347389,35.3470569 48.0384056,32.6059376 48.0292389,29.8654239 C48.0286278,29.6111119 48.0891278,29.5293688 48.3586278,29.5305798 C51.1342944,29.5402679 53.9105722,29.5366349 56.6862389,29.5372404 C56.7797389,29.5372404 56.87385,29.5445064 56.9960722,29.549956" id="Fill-6" fill="#FFFFFF"></path>
            </g>
        </g>
    </g>
</svg>