<?xml version="1.0" encoding="UTF-8"?>
<svg width="67px" height="67px" viewBox="0 0 67 67" version="1.1" xmlns="http://www.w3.org/2000/svg" xmlns:xlink="http://www.w3.org/1999/xlink">
    <!-- Generator: Sketch 53 (72520) - https://sketchapp.com -->
    <title>Group 69</title>
    <desc>Created with Sketch.</desc>
    <g id="Page-1" stroke="none" stroke-width="1" fill="none" fill-rule="evenodd">
        <g id="Artboard" transform="translate(-639.000000, -1280.000000)">
            <g id="Group-69" transform="translate(639.760298, 1280.749650)">
                <ellipse id="Oval" fill="#38B0DE" fill-rule="nonzero" cx="33" cy="32.8777778" rx="33" ry="32.8777778"></ellipse>
                <path d="M23.2222222,19.1639651 L40.4555556,19.1639651" id="Path" stroke="#FFFFFF" stroke-width="3.833"></path>
                <path d="M23.2222222,47.4075388 L40.4555556,47.4075388" id="Path" stroke="#FFFFFF" stroke-width="3.833"></path>
                <path d="M23.2222222,33.7944444 L48.2777778,33.7944444" id="Path" stroke="#FFFFFF" stroke-width="3.833"></path>
                <path d="M38.6833333,17.2333333 L38.6833333,49.2555556" id="Path" stroke="#FFFFFF" stroke-width="3.833"></path>
                <polygon id="Path" fill="#FFFFFF" fill-rule="nonzero" points="13.8722222 22.3417428 13.8722222 19.1639651 13.8722222 15.9861873 16.6833333 17.5750762 19.4333333 19.1639651 16.6833333 20.752854"></polygon>
                <polygon id="Path" fill="#FFFFFF" fill-rule="nonzero" points="13.8722222 36.9722222 13.8722222 33.7944444 13.8722222 30.5555556 16.6833333 32.2055556 19.4333333 33.7944444 16.6833333 35.3833333"></polygon>
                <polygon id="Path" fill="#FFFFFF" fill-rule="nonzero" points="13.8722222 50.6158721 13.8722222 47.4380944 13.8722222 44.1992055 16.6833333 45.8492055 19.4333333 47.4380944 16.6833333 49.0269832"></polygon>
                <polygon id="Path" fill="#FFFFFF" fill-rule="nonzero" points="51.8222222 37.7666667 51.8222222 33.7944444 51.8222222 29.7611111 55.3055556 31.7777778 58.7888889 33.7944444 55.3055556 35.8111111"></polygon>
            </g>
        </g>
    </g>
</svg>