<?xml version="1.0" encoding="UTF-8"?>
<svg width="67px" height="66px" viewBox="0 0 67 66" version="1.1" xmlns="http://www.w3.org/2000/svg" xmlns:xlink="http://www.w3.org/1999/xlink">
    <!-- Generator: Sketch 53 (72520) - https://sketchapp.com -->
    <title>Group 77</title>
    <desc>Created with Sketch.</desc>
    <g id="Page-1" stroke="none" stroke-width="1" fill="none" fill-rule="evenodd">
        <g id="Artboard" transform="translate(-553.000000, -301.000000)" fill-rule="nonzero">
            <g id="Group-77" transform="translate(553.679743, 301.000000)">
                <g id="Group-69-Copy-8" fill="#8EC341">
                    <ellipse id="Oval" cx="33" cy="32.8777778" rx="33" ry="32.8777778"></ellipse>
                </g>
                <g id="IBMCloud_AutoScaling_UI(1)" transform="translate(12.000000, 14.000200)" fill="#FFFFFF">
                    <g id="Group" transform="translate(1.490746, 0.000000)">
                        <path d="M26.8334333,8.94447778 L2.98149259,8.94447778 C1.34167167,8.94447778 0,10.2861494 0,11.9259704 L0,28.3241796 L2.98149259,28.3241796 L2.98149259,11.9259704 L26.8334333,11.9259704 L26.8334333,35.7779111 L10.4352241,35.7779111 L10.4352241,38.7594037 L26.8334333,38.7594037 C28.4732543,38.7594037 29.8149259,37.417732 29.8149259,35.7779111 L29.8149259,11.9259704 C29.8149259,10.2861494 28.4732543,8.94447778 26.8334333,8.94447778 Z" id="Path"></path>
                        <path d="M35.7779111,29.8149259 L32.7964185,29.8149259 L32.7964185,26.8334333 L35.7779111,26.8334333 L35.7779111,2.98149259 L11.9259704,2.98149259 L11.9259704,5.96298519 L8.94447778,5.96298519 L8.94447778,2.98149259 C8.94447778,1.34167167 10.2861494,0 11.9259704,0 L35.7779111,0 C37.417732,0 38.7594037,1.34167167 38.7594037,2.98149259 L38.7594037,26.8334333 C38.7594037,28.4732543 37.417732,29.8149259 35.7779111,29.8149259 Z" id="Path"></path>
                    </g>
                    <polygon id="Path" points="10.4352241 17.8889556 10.4352241 20.8704481 17.292657 20.8704481 0 38.1631052 2.23611944 40.25015 19.3797019 22.957493 19.3797019 29.8149259 22.3611944 29.8149259 22.3611944 17.8889556"></polygon>
                </g>
            </g>
        </g>
    </g>
</svg>