<?xml version="1.0" encoding="UTF-8"?>
<svg width="65px" height="65px" viewBox="0 0 65 65" version="1.1" xmlns="http://www.w3.org/2000/svg" xmlns:xlink="http://www.w3.org/1999/xlink">
    <!-- Generator: Sketch 53 (72520) - https://sketchapp.com -->
    <title>Group 8</title>
    <desc>Created with Sketch.</desc>
    <g id="Page-1" stroke="none" stroke-width="1" fill="none" fill-rule="evenodd">
        <g id="Artboard" transform="translate(-43.000000, -134.000000)">
            <g id="Group-8" transform="translate(43.000000, 133.000000)">
                <g id="Group-6" transform="translate(0.000000, 0.572200)">
                    <g id="Group-3" fill="#E8BD1F">
                        <path d="M64.5041,32.6797 C64.5041,50.4927 50.0641,64.9327 32.2521,64.9327 C14.4401,64.9327 0.0001,50.4927 0.0001,32.6797 C0.0001,14.8677 14.4401,0.4277 32.2521,0.4277 C50.0641,0.4277 64.5041,14.8677 64.5041,32.6797 Z" id="Fill-1"></path>
                    </g>
                    <path d="M30.6281,38.0088 L26.4161,29.2798 C26.7961,29.0508 27.1771,28.7728 27.5071,28.4428 C27.8371,28.1128 28.1161,27.7318 28.3441,27.3508 L37.0741,31.5638 C35.6271,34.3038 33.3691,36.5878 30.6281,38.0088 M22.6091,23.5708 C23.1421,23.0378 24.0301,23.0378 24.5641,23.5708 C25.0961,24.1028 25.0961,24.9908 24.5641,25.5248 C24.0301,26.0568 23.1421,26.0568 22.6091,25.5248 C22.0771,24.9658 22.0771,24.1028 22.6091,23.5708 M41.5901,24.5348 L38.8241,24.5348 C38.8241,26.5138 38.4441,28.4678 37.6571,30.3208 L28.9031,26.0828 C29.4361,24.2048 28.9791,22.0988 27.5071,20.6268 C25.6801,18.7998 22.9141,18.5208 20.7821,19.7638 L18.7021,17.6828 L16.7481,19.6368 L18.8291,21.7178 C17.5851,23.8498 17.8641,26.6148 19.6911,28.4428 C21.1631,29.9138 23.2691,30.3968 25.1471,29.8378 L37.1501,54.6548 L38.3931,54.0468 L31.8211,40.4698 C33.4701,39.6078 34.9671,38.5168 36.2871,37.1968 C37.5811,35.9028 38.6981,34.3808 39.5611,32.7308 L53.1361,39.3028 L53.7451,38.0598 L40.1701,31.4878 C41.1081,29.3048 41.5901,26.9458 41.5901,24.5348" id="Fill-4" fill="#FEFEFE"></path>
                </g>
            </g>
        </g>
    </g>
</svg>