<?xml version="1.0" encoding="UTF-8"?>
<svg width="65px" height="65px" viewBox="0 0 65 65" version="1.1" xmlns="http://www.w3.org/2000/svg" xmlns:xlink="http://www.w3.org/1999/xlink">
    <!-- Generator: Sketch 53 (72520) - https://sketchapp.com -->
    <title>Group 18</title>
    <desc>Created with Sketch.</desc>
    <g id="Page-1" stroke="none" stroke-width="1" fill="none" fill-rule="evenodd">
        <g id="Artboard" transform="translate(-665.000000, -133.000000)">
            <g id="Group-18" transform="translate(665.000000, 133.000000)">
                <g id="Group-6">
                    <g id="Group-3" fill="#E8BD1F">
                        <path d="M32.5,-0.0002 C50.449,-0.0002 65,14.5508 65,32.4998 C65,50.4488 50.449,64.9998 32.5,64.9998 C14.551,64.9998 0,50.4488 0,32.4998 C0,14.5508 14.551,-0.0002 32.5,-0.0002" id="Fill-1"></path>
                    </g>
                    <polyline id="Stroke-4" stroke="#FEFEFE" stroke-width="3" points="34.2939 47.1483 9.9869 47.1483 9.9869 16.8943 55.0129 16.8943 55.0129 47.1483 51.1269 47.1483"></polyline>
                </g>
                <text id="&gt;_" font-family="MyriadPro-Bold, Myriad Pro" font-size="21.1005" font-weight="bold" fill="#FEFEFE">
                    <tspan x="17.4761" y="31.3398572">&gt;_</tspan>
                </text>
                <g id="Group-17" transform="translate(30.000000, 38.000000)">
                    <polygon id="Stroke-9" stroke="#FEFEFE" stroke-width="0.159" points="0.0518 0.0229 0.0518 1.0779 10.6018 1.0779 10.6018 0.0229"></polygon>
                    <path d="M9.5361,8.7796 C8.9421,11.0376 10.2671,13.3146 12.5211,13.9106 C14.7301,14.4946 17.0171,13.1456 17.6141,10.9226 C18.2151,8.6836 16.8771,6.3216 14.5681,5.7596 C12.3261,5.2136 10.0881,6.6036 9.5361,8.7796 M10.1091,17.2886 C9.9561,17.2486 9.8031,17.2086 9.6511,17.1676 C9.3331,16.9746 9.0121,16.7866 8.6981,16.5886 C8.0121,16.1546 7.8511,15.4616 8.2711,14.7736 C8.4321,14.5106 8.5971,14.2496 8.7621,13.9836 C8.3461,13.5066 8.0061,12.9906 7.7431,12.4246 C7.7261,12.3886 7.6431,12.3636 7.5941,12.3686 C7.2601,12.4036 6.9281,12.4656 6.5941,12.4816 C6.4071,12.4906 6.2011,12.4656 6.0301,12.3936 C5.6351,12.2276 5.3971,11.8986 5.3121,11.4896 C5.2291,11.0856 5.1661,10.6706 5.1581,10.2586 C5.1431,9.6046 5.5711,8.9956 6.3041,8.9626 C6.5601,8.9506 6.8141,8.8896 7.0701,8.8746 C7.2471,8.8646 7.3111,8.7986 7.3451,8.6216 C7.4521,8.0626 7.6551,7.5326 7.9231,7.0226 C7.7341,6.8386 7.5491,6.6606 7.3671,6.4796 C7.2331,6.3466 7.0861,6.2216 6.9771,6.0696 C6.6781,5.6486 6.7081,5.0646 7.0861,4.6066 C7.3551,4.2796 7.6591,3.9746 7.9831,3.7026 C8.4291,3.3286 9.1821,3.2266 9.7041,3.7986 C9.9301,4.0456 10.1821,4.2676 10.4231,4.5006 C10.9711,4.2066 11.5351,3.9946 12.1301,3.8686 C12.1731,3.8596 12.2281,3.7936 12.2341,3.7476 C12.2651,3.5246 12.2751,3.2986 12.3041,3.0746 C12.3311,2.8626 12.3361,2.6346 12.4171,2.4436 C12.6371,1.9256 13.0781,1.7166 13.6151,1.6966 C13.8381,1.6886 14.0651,1.7226 14.2891,1.7456 C14.6071,1.7796 14.9311,1.7926 15.2211,1.9516 C15.6371,2.1816 15.9081,2.5096 15.8951,3.0066 C15.8891,3.2786 15.8471,3.5496 15.8141,3.8206 C15.7731,4.1676 15.7681,4.1716 16.0761,4.3166 C16.5671,4.5476 17.0201,4.8366 17.4461,5.1856 C17.7611,4.9866 18.0721,4.7906 18.3821,4.5926 C18.5891,4.4606 18.8121,4.4036 19.0571,4.4306 C19.4941,4.4806 19.8241,4.7066 20.0711,5.0566 C20.2521,5.3146 20.4261,5.5786 20.5841,5.8516 C20.6691,5.9996 20.7361,6.1656 20.7741,6.3326 C20.8921,6.8536 20.7191,7.3366 20.2521,7.6036 C19.9651,7.7676 19.6931,7.9586 19.4051,8.1426 C19.5881,8.7586 19.6721,9.3846 19.6691,10.0236 C19.6691,10.0626 19.7351,10.1216 19.7821,10.1386 C20.0691,10.2416 20.3571,10.3426 20.6491,10.4316 C21.0861,10.5636 21.3121,10.8736 21.3971,11.3006 C21.4261,11.4476 21.4211,11.6026 21.4321,11.7536 C21.3841,11.9366 21.3351,12.1196 21.2871,12.3026 C21.2521,12.3896 21.2121,12.4746 21.1831,12.5636 C21.0561,12.9636 20.9071,13.3486 20.5511,13.6086 C20.2381,13.8376 19.9001,13.9146 19.5251,13.7866 C19.2261,13.6846 18.9281,13.5826 18.6271,13.4896 C18.5841,13.4766 18.5031,13.5016 18.4761,13.5366 C18.1121,14.0166 17.6981,14.4466 17.2141,14.8056 C17.1381,14.8626 17.1371,14.9106 17.1681,14.9906 C17.2431,15.1756 17.3121,15.3626 17.3761,15.5516 C17.4411,15.7456 17.5351,15.9396 17.5511,16.1376 C17.5921,16.6646 17.3121,17.0496 16.8681,17.2666 C16.4371,17.4766 15.9741,17.6426 15.5081,17.7536 C14.9631,17.8826 14.2921,17.6616 14.0811,16.9256 C13.9981,16.6336 13.8741,16.3546 13.7671,16.0646 C13.1241,16.0996 12.5011,16.0296 11.8851,15.8856 C11.8401,15.8756 11.7571,15.9186 11.7291,15.9606 C11.5611,16.2136 11.3981,16.4706 11.2441,16.7336 C11.0311,17.0996 10.7071,17.2626 10.2941,17.2786 C10.2321,17.2806 10.1711,17.2856 10.1091,17.2886" id="Fill-11" fill="#FEFEFE"></path>
                    <path d="M14.6665,9.742 C14.6665,10.499 14.0525,11.114 13.2945,11.114 C12.5375,11.114 11.9225,10.499 11.9225,9.742 C11.9225,8.984 12.5375,8.37 13.2945,8.37 C14.0525,8.37 14.6665,8.984 14.6665,9.742" id="Fill-13" fill="#FEFEFE"></path>
                    <path d="M14.6665,9.742 C14.6665,10.499 14.0525,11.114 13.2945,11.114 C12.5375,11.114 11.9225,10.499 11.9225,9.742 C11.9225,8.984 12.5375,8.37 13.2945,8.37 C14.0525,8.37 14.6665,8.984 14.6665,9.742 Z" id="Stroke-15" stroke="#FEFEFE" stroke-width="0.159"></path>
                </g>
            </g>
        </g>
    </g>
</svg>