<?xml version="1.0" encoding="UTF-8"?>
<svg width="65px" height="65px" viewBox="0 0 65 65" version="1.1" xmlns="http://www.w3.org/2000/svg" xmlns:xlink="http://www.w3.org/1999/xlink">
    <!-- Generator: Sketch 53 (72520) - https://sketchapp.com -->
    <title>Group 10</title>
    <desc>Created with Sketch.</desc>
    <g id="Page-1" stroke="none" stroke-width="1" fill="none" fill-rule="evenodd">
        <g id="Artboard" transform="translate(-558.000000, -134.000000)">
            <g id="Group-10" transform="translate(558.500000, 133.000000)">
                <g id="Group-3" transform="translate(0.000000, 0.505000)" fill="#E8BD1F">
                    <path d="M32.2525,0.4947 C50.0645,0.4947 64.5045,14.9347 64.5045,32.7477 C64.5045,50.5597 50.0645,64.9997 32.2525,64.9997 C14.4405,64.9997 0.0005,50.5597 0.0005,32.7477 C0.0005,14.9347 14.4405,0.4947 32.2525,0.4947" id="Fill-1"></path>
                </g>
                <path d="M19.3087,19.3264 C19.3057,20.3834 20.0817,21.1814 21.1197,21.1854 C22.1507,21.1894 22.9587,20.3804 22.9577,19.3474 C22.9557,18.3134 22.1457,17.5064 21.1137,17.5104 C20.1107,17.5144 19.3117,18.3174 19.3087,19.3264 L19.3087,19.3264 Z M26.6947,21.1854 C27.7047,21.1874 28.5597,20.3324 28.5447,19.3334 C28.5297,18.3454 27.7067,17.5224 26.7147,17.5054 C25.7097,17.4874 24.8467,18.3304 24.8387,19.3374 C24.8307,20.3434 25.6747,21.1834 26.6947,21.1854 L26.6947,21.1854 Z M15.5697,21.1824 C16.5897,21.1824 17.4297,20.3464 17.4197,19.3374 C17.4117,18.3314 16.5467,17.4864 15.5457,17.5054 C14.5587,17.5234 13.7257,18.3564 13.7167,19.3364 C13.7077,20.3374 14.5557,21.1814 15.5697,21.1824 L15.5697,21.1824 Z M12.6887,24.0404 L12.6887,24.8014 C12.6887,32.4434 12.6897,40.0844 12.6887,47.7264 C12.6887,48.7644 13.0307,49.1054 14.0957,49.1054 C26.1847,49.1064 38.2727,49.1064 50.3617,49.1054 C51.4907,49.1054 51.8137,48.7844 51.8137,47.6614 C51.8147,39.9674 51.8137,32.2734 51.8137,24.5784 L51.8137,24.0404 L12.6887,24.0404 Z M32.2237,51.7854 C26.0997,51.7854 19.9747,51.7874 13.8507,51.7854 C11.5757,51.7844 10.0097,50.2034 10.0097,47.9174 C10.0087,38.0864 10.0087,28.2564 10.0097,18.4254 C10.0097,16.3684 11.6487,14.7164 13.6977,14.7164 C26.0517,14.7154 38.4067,14.7164 50.7617,14.7194 C52.8937,14.7204 54.4957,16.3454 54.4957,18.4804 C54.4937,28.2764 54.4967,38.0714 54.4967,47.8674 C54.4957,49.8754 53.3677,51.3284 51.4907,51.7214 C51.1667,51.7894 50.8247,51.7854 50.4917,51.7864 C44.4017,51.7894 38.3127,51.7884 32.2237,51.7884 L32.2237,51.7854 Z" id="Fill-4" fill="#FEFEFE"></path>
                <path d="M28.3023,35.093 C26.4823,33.638 24.6773,32.2 22.8783,30.753 C22.3603,30.336 22.0963,29.8 22.2663,29.123 C22.4373,28.437 22.8863,27.979 23.5833,27.933 C23.9703,27.908 24.4573,28.02 24.7563,28.253 C27.1493,30.116 29.5163,32.013 31.8723,33.924 C32.6223,34.531 32.6223,35.684 31.8703,36.294 C29.5143,38.205 27.1423,40.096 24.7613,41.976 C24.0463,42.54 23.0883,42.397 22.5493,41.709 C22.0093,41.019 22.1183,40.073 22.8373,39.493 C24.5663,38.097 26.3063,36.716 28.0413,35.327 C28.1223,35.262 28.1973,35.188 28.3023,35.093" id="Fill-6" fill="#FEFEFE"></path>
                <path d="M36.545,42.0491 C37.903,42.0491 39.26,42.0451 40.618,42.0501 C41.559,42.0541 42.276,42.7241 42.292,43.5961 C42.307,44.4651 41.598,45.1981 40.671,45.2021 C37.867,45.2161 35.064,45.2161 32.261,45.2021 C31.362,45.1971 30.671,44.4801 30.674,43.6251 C30.677,42.7321 31.367,42.0581 32.314,42.0511 C33.724,42.0421 35.135,42.0491 36.545,42.0491" id="Fill-8" fill="#FEFEFE"></path>
            </g>
        </g>
    </g>
</svg>