<?xml version="1.0" encoding="UTF-8"?>
<svg width="65px" height="64px" viewBox="0 0 65 64" version="1.1" xmlns="http://www.w3.org/2000/svg" xmlns:xlink="http://www.w3.org/1999/xlink">
    <!-- Generator: Sketch 53 (72520) - https://sketchapp.com -->
    <title>Group 17</title>
    <desc>Created with Sketch.</desc>
    <g id="Page-1" stroke="none" stroke-width="1" fill="none" fill-rule="evenodd">
        <g id="Artboard" transform="translate(-361.000000, -133.000000)">
            <g id="Group-17" transform="translate(361.500000, 133.000000)">
                <g id="Group-3" fill="#E8BD1F">
                    <path d="M32.0002,-0.0001 C49.6732,-0.0001 64.0002,14.3269 64.0002,31.9999 C64.0002,49.6729 49.6732,63.9999 32.0002,63.9999 C14.3272,63.9999 0.0002,49.6729 0.0002,31.9999 C0.0002,14.3269 14.3272,-0.0001 32.0002,-0.0001" id="Fill-1"></path>
                </g>
                <polygon id="Fill-4" fill="#FEFEFE" points="10.613 46.776 53.387 46.776 53.387 13.227 10.613 13.227"></polygon>
                <polygon id="Fill-6" fill="#E8BD1F" points="13.935 42.435 50.087 42.435 50.087 16.546 13.935 16.546"></polygon>
                <polygon id="Fill-7" fill="#FEFEFE" points="13.924 50.772 50.076 50.772 50.076 47.681 13.924 47.681"></polygon>
                <polygon id="Fill-8" fill="#FEFEFE" points="16.361 32.462 22.305 32.462 22.305 26.518 16.361 26.518"></polygon>
                <polygon id="Fill-9" fill="#FEFEFE" points="16.361 39.41 22.305 39.41 22.305 33.466 16.361 33.466"></polygon>
                <polygon id="Fill-10" fill="#FEFEFE" points="23.626 32.462 29.57 32.462 29.57 26.518 23.626 26.518"></polygon>
                <polygon id="Fill-11" fill="#FEFEFE" points="16.361 25.513 22.305 25.513 22.305 19.569 16.361 19.569"></polygon>
                <polygon id="Fill-12" fill="#FEFEFE" points="23.626 25.513 29.57 25.513 29.57 19.569 23.626 19.569"></polygon>
                <polygon id="Fill-13" fill="#FEFEFE" points="23.626 39.41 29.57 39.41 29.57 33.466 23.626 33.466"></polygon>
                <polygon id="Fill-14" fill="#E8BD1F" points="38.483 36.438 54.86 36.438 54.86 10.491 38.483 10.491"></polygon>
                <path d="M54.7037774,28.7877056 L41.3697918,28.6946518 C39.5298085,28.6810039 38.0260595,30.1586979 38.0136523,31.994959 L37.9900787,35.3200806 L57.989196,35.4602816 L58.0127696,32.13516 C58.0264175,30.3001396 56.5437607,28.8001128 54.7037774,28.7877056" id="Fill-15" fill="#FEFEFE"></path>
                <path d="M48.0015482,9.45485331 C43.9047007,9.45485331 40.5721348,12.7787342 40.5721348,16.8656559 C40.5721348,20.951337 43.9047007,24.2739771 48.0015482,24.2739771 C52.0983957,24.2739771 55.4309616,20.951337 55.4309616,16.8656559 C55.4309616,12.7787342 52.0983957,9.45485331 48.0015482,9.45485331 M39.5063589,16.8656559 C39.5063589,12.1931157 43.3178415,8.39279956 48.0015482,8.39279956 C52.6852549,8.39279956 56.4967375,12.1931157 56.4967375,16.8656559 C56.4967375,21.5357147 52.6852549,25.3372716 48.0015482,25.3372716 C43.3178415,25.3372716 39.5063589,21.5357147 39.5063589,16.8656559 Z" id="Fill-16" fill="#FEFEFE"></path>
            </g>
        </g>
    </g>
</svg>