<?xml version="1.0" encoding="UTF-8"?>
<svg width="66px" height="65px" viewBox="0 0 66 65" version="1.1" xmlns="http://www.w3.org/2000/svg" xmlns:xlink="http://www.w3.org/1999/xlink">
    <!-- Generator: Sketch 53 (72520) - https://sketchapp.com -->
    <title>Group 15</title>
    <desc>Created with Sketch.</desc>
    <g id="Page-1" stroke="none" stroke-width="1" fill="none" fill-rule="evenodd">
        <g id="Artboard" transform="translate(-151.000000, -134.000000)">
            <g id="Group-15" transform="translate(151.333333, 133.000000)">
                <g id="Group-3" transform="translate(0.000000, 0.892500)" fill="#EDC01B">
                    <path d="M64.9997,32.5547 C64.9997,50.4747 50.4487,65.0027 32.4997,65.0027 C14.5507,65.0027 -0.0003,50.4747 -0.0003,32.5547 C-0.0003,14.6347 14.5507,0.1077 32.4997,0.1077 C50.4487,0.1077 64.9997,14.6347 64.9997,32.5547" id="Fill-1"></path>
                </g>
                <path d="M34.1071,51.0546 L34.1071,46.1976 C39.9211,45.4696 44.5221,40.8676 45.2501,35.0546 L50.1071,35.0546 C49.3391,43.5246 42.5771,50.2866 34.1071,51.0546 L34.1071,51.0546 Z M14.8921,35.0546 L19.7511,35.0546 C20.4771,40.8676 25.0791,45.4696 30.8921,46.1976 L30.8921,51.0546 C22.4221,50.2866 15.6611,43.5246 14.8921,35.0546 L14.8921,35.0546 Z M30.8921,15.8406 L30.8921,20.6986 C25.0791,21.4246 20.4771,26.0266 19.7501,31.8396 L14.8921,31.8396 C15.6611,23.3696 22.4221,16.6076 30.8921,15.8406 L30.8921,15.8406 Z M43.6251,35.0546 C42.9171,39.9726 39.0251,43.8636 34.1071,44.5726 L34.1071,38.2706 L30.8921,38.2706 L30.8921,44.5726 C25.9741,43.8636 22.0841,39.9726 21.3761,35.0546 L27.6771,35.0546 L27.6771,31.8396 L21.3761,31.8396 C22.0841,26.9226 25.9741,23.0316 30.8921,22.3226 L30.8921,28.6246 L34.1071,28.6246 L34.1071,22.3226 C39.0251,23.0316 42.9171,26.9226 43.6251,31.8396 L37.3231,31.8396 L37.3231,35.0546 L43.6251,35.0546 Z M50.1071,31.8396 L45.2501,31.8396 C44.5221,26.0266 39.9211,21.4246 34.1071,20.6976 L34.1071,15.8396 C42.5771,16.6076 49.3391,23.3696 50.1071,31.8396 L50.1071,31.8396 Z M56.6141,31.8396 L53.3321,31.8396 C52.5501,21.5826 44.3661,13.3976 34.1071,12.6166 L34.1071,9.3336 L30.8921,9.3336 L30.8921,12.6166 C20.6341,13.3976 12.4501,21.5826 11.6691,31.8396 L8.3861,31.8396 L8.3861,35.0546 L11.6691,35.0546 C12.4501,45.3126 20.6341,53.4976 30.8921,54.2786 L30.8921,57.5616 L34.1071,57.5616 L34.1071,54.2786 C44.3661,53.4976 52.5501,45.3126 53.3321,35.0546 L56.6141,35.0546 L56.6141,31.8396 Z" id="Fill-4" fill="#FEFEFE"></path>
                <polygon id="Fill-6" fill="#EDC01B" points="34.107 30.3045 43.822 30.3045 43.822 20.1485 34.107 20.1485"></polygon>
                <polygon id="Fill-8" fill="#EDC01B" points="35.585 45.2115 45.3 45.2115 45.3 35.0555 35.585 35.0555"></polygon>
                <polygon id="Fill-9" fill="#EDC01B" points="42.107 31.8405 45.484 31.8405 45.484 25.9105 42.107 25.9105"></polygon>
                <polygon id="Fill-10" fill="#EDC01B" points="34.107 48.1765 37.484 48.1765 37.484 42.2465 34.107 42.2465"></polygon>
                <polygon id="Fill-11" fill="#EDC01B" points="21.663 27.6825 30.892 27.6825 30.892 19.8165 21.663 19.8165"></polygon>
                <polygon id="Fill-12" fill="#EDC01B" points="19.171 42.9215 28.4 42.9215 28.4 35.0555 19.171 35.0555"></polygon>
                <polygon id="Fill-13" fill="#EDC01B" points="19.17 31.8395 24.599 31.8395 24.599 25.1155 19.17 25.1155"></polygon>
                <polygon id="Fill-14" fill="#EDC01B" points="23.785 48.7545 30.892 48.7545 30.892 42.0305 23.785 42.0305"></polygon>
            </g>
        </g>
    </g>
</svg>