<?xml version="1.0" encoding="UTF-8"?>
<svg width="65px" height="64px" viewBox="0 0 65 64" version="1.1" xmlns="http://www.w3.org/2000/svg" xmlns:xlink="http://www.w3.org/1999/xlink">
    <!-- Generator: Sketch 53 (72520) - https://sketchapp.com -->
    <title>Group 43</title>
    <desc>Created with Sketch.</desc>
    <g id="Page-1" stroke="none" stroke-width="1" fill="none" fill-rule="evenodd">
        <g id="Artboard" transform="translate(-766.000000, -137.000000)">
            <g id="Function" transform="translate(765.900000, 137.000000)">
                <g id="Group-43" transform="translate(1.000000, 0.000000)">
                    <path d="M32,0 C49.673,0 64,14.327 64,32 C64,49.673 49.673,64 32,64 C14.327,64 0,49.673 0,32 C0,14.327 14.327,0 32,0" id="Fill-9" fill="#E8BD1F"></path>
                    <g id="function" transform="translate(10.500000, 8.396400)" fill="#FFFFFF" fill-rule="nonzero">
                        <path d="M10.3640447,44.1672166 C8.19323349,44.1672166 6.43344331,42.4074264 6.43344331,40.2366152 C6.43344331,38.065804 8.19323349,36.3060138 10.3640447,36.3060138 C11.3545562,36.195957 14.05881,33.9004858 14.2789237,24.954437 L11.4803355,24.2469288 C9.44517334,23.7295987 8.02042319,21.8973726 8.02042319,19.797488 C8.02042319,17.6976034 9.44517334,15.8653774 11.4803355,15.3480472 L14.2946461,14.6248166 C15.1593784,3.28896221 27.3756875,0.144481105 33.947653,0.144481105 C36.1184642,0.144481105 37.8782544,1.90427129 37.8782544,4.07508249 C37.8782544,6.24589369 36.1184642,8.00568387 33.947653,8.00568387 C33.8218737,8.00568387 30.4415565,8.24151995 30.0484964,14.640539 L32.8313622,15.3480472 C34.8665243,15.8653774 36.2912745,17.6976034 36.2912745,19.797488 C36.2912745,21.8973726 34.8665243,23.7295987 32.8313622,24.2469288 L30.0170516,24.9701594 C29.2152089,43.9471029 10.5527136,44.1672166 10.3640447,44.1672166 Z M33.947653,3.28896221 C33.2715895,3.28896221 17.4391272,3.46190867 17.4391272,15.8668866 L17.4391272,17.0932343 L12.2507334,18.3981939 C11.6144263,18.5647945 11.1706412,19.1397324 11.1706412,19.797488 C11.1706412,20.4552436 11.6144263,21.0301815 12.2507334,21.1967821 L17.4391272,22.5017418 L17.4391272,23.7280894 C17.4391272,39.0102676 11.150165,39.4504949 10.3640447,39.4504949 C9.92988245,39.4504949 9.57792442,39.8024529 9.57792442,40.2366152 C9.57792442,40.6707774 9.92988245,41.0227355 10.3640447,41.0227355 C11.0401081,41.0227355 26.8725705,40.7554546 26.8725705,23.7280894 L26.8725705,22.5017418 L32.0609643,21.1967821 C32.6972714,21.0301815 33.1410565,20.4552436 33.1410565,19.797488 C33.1410565,19.1397324 32.6972714,18.5647945 32.0609643,18.3981939 L26.8725705,17.0932343 L26.8725705,15.8668866 C26.8725705,4.98698201 33.8847634,4.86120276 33.947653,4.86120276 C34.3818152,4.86120276 34.7337733,4.50924473 34.7337733,4.07508249 C34.7337733,3.64092025 34.3818152,3.28896221 33.947653,3.28896221 Z" id="Shape"></path>
                        <path d="M3.52479829,33.8847634 C0.0744895523,28.4037556 -0.786850729,21.6813775 1.17011844,15.5075336 C3.1270876,9.33368966 7.70373228,4.33503005 13.6814723,1.8425009 L14.8920975,4.73542352 C9.76487743,6.87328667 5.84037843,11.1620566 4.16481651,16.4584079 C2.48925458,21.7547591 3.23293652,27.5203621 6.19760723,32.2181884 L3.52479829,33.8847634 Z" id="Path"></path>
                        <path d="M30.6302254,42.4691968 L29.4196002,39.5762742 C34.5643423,37.4302927 38.4967543,33.1190703 40.1618672,27.7992013 C41.8269802,22.4793322 41.0543304,16.6954309 38.0512008,11.9991749 L40.7082874,10.3011551 C44.209563,15.7807831 45.1087483,22.5281405 43.1646626,28.7334435 C41.220577,34.9387465 36.6321979,39.9668816 30.6302254,42.4691968 L30.6302254,42.4691968 Z" id="Path"></path>
                    </g>
                </g>
            </g>
        </g>
    </g>
</svg>