<?xml version="1.0" encoding="UTF-8"?>
<svg width="48px" height="49px" viewBox="0 0 48 49" version="1.1" xmlns="http://www.w3.org/2000/svg" xmlns:xlink="http://www.w3.org/1999/xlink">
    <title>Chip</title>
    <g id="V2-Icons" stroke="none" stroke-width="1" fill="none" fill-rule="evenodd">
        <g id="Chip" transform="translate(0.0042, 0.3421)">
            <polygon id="Fill-4" fill="#198038" points="0 48 48 48 48 0 0 0"></polygon>
            <path d="M19.3432417,20.1160351 L19.3432417,28.6874637 L27.9146703,28.6874637 L27.9146703,20.1160351 L19.3432417,20.1160351 Z M26.2003846,26.973178 L21.0575274,26.973178 L21.0575274,21.8303208 L26.2003846,21.8303208 L26.2003846,26.973178 Z" id="Shape" fill="#FFFFFF" fill-rule="nonzero"></path>
            <path d="M35.628956,21.8303208 L35.628956,20.1160351 L32.2003846,20.1160351 L32.2003846,17.5446065 C32.2003846,16.5978327 31.4328727,15.8303208 30.4860988,15.8303208 L27.9146703,15.8303208 L27.9146703,12.4017494 L26.2003846,12.4017494 L26.2003846,15.8303208 L21.0575274,15.8303208 L21.0575274,12.4017494 L19.3432417,12.4017494 L19.3432417,15.8303208 L16.7718131,15.8303208 C15.8250393,15.8303208 15.0575274,16.5978327 15.0575274,17.5446065 L15.0575274,20.1160351 L11.628956,20.1160351 L11.628956,21.8303208 L15.0575274,21.8303208 L15.0575274,26.973178 L11.628956,26.973178 L11.628956,28.6874637 L15.0575274,28.6874637 L15.0575274,31.2588923 C15.0575274,32.2056661 15.8250393,32.973178 16.7718131,32.973178 L19.3432417,32.973178 L19.3432417,36.4017494 L21.0575274,36.4017494 L21.0575274,32.973178 L26.2003846,32.973178 L26.2003846,36.4017494 L27.9146703,36.4017494 L27.9146703,32.973178 L30.4860988,32.973178 C31.4328727,32.973178 32.2003846,32.2056661 32.2003846,31.2588923 L32.2003846,28.6874637 L35.628956,28.6874637 L35.628956,26.973178 L32.2003846,26.973178 L32.2003846,21.8303208 L35.628956,21.8303208 Z M30.4860988,31.2588923 L16.7718131,31.2588923 L16.7718131,17.5446065 L30.4860988,17.5446065 L30.4860988,31.2588923 Z" id="Shape" fill="#FFFFFF" fill-rule="nonzero"></path>
        </g>
    </g>
</svg>