<?xml version="1.0" encoding="UTF-8"?>
<svg width="48px" height="48px" viewBox="0 0 48 48" version="1.1" xmlns="http://www.w3.org/2000/svg" xmlns:xlink="http://www.w3.org/1999/xlink">
    <title>cloud-satellite--config</title>
    <g id="V2-Icons" stroke="none" stroke-width="1" fill="none" fill-rule="evenodd">
        <g id="cloud-satellite--config">
            <g id="Sattelite-v2-Icon-Copy-11" fill="#198038">
                <polygon id="Fill-4" points="0 48 48 48 48 0 0 0"></polygon>
            </g>
            <g transform="translate(12, 12)">
                <path d="M24,19.5 L24,18 L22.424175,18 C22.3274664,17.5305463 22.1410847,17.0841623 21.87525,16.685325 L22.99275,15.567825 L21.93225,14.507325 L20.81475,15.624825 C20.4158958,15.358955 19.9694852,15.1725474 19.5,15.075825 L19.5,13.5 L18,13.5 L18,15.075825 C17.5305463,15.1725336 17.0841623,15.3589153 16.685325,15.62475 L15.567825,14.50725 L14.507325,15.56775 L15.624825,16.68525 C15.358955,17.0841042 15.1725474,17.5305148 15.075825,18 L13.5,18 L13.5,19.5 L15.075825,19.5 C15.1725336,19.9694537 15.3589153,20.4158377 15.62475,20.814675 L14.50725,21.932175 L15.56775,22.992675 L16.68525,21.875175 C17.0841042,22.141045 17.5305148,22.3274526 18,22.424175 L18,24 L19.5,24 L19.5,22.424175 C19.9694537,22.3274664 20.4158377,22.1410847 20.814675,21.87525 L21.932175,22.99275 L22.992675,21.93225 L21.875175,20.81475 C22.141045,20.4158958 22.3274526,19.9694852 22.424175,19.5 L24,19.5 Z M18.75,21 C17.5073593,21 16.5,19.9926407 16.5,18.75 C16.5,17.5073593 17.5073593,16.5 18.75,16.5 C19.9926407,16.5 21,17.5073593 21,18.75 C20.998636,19.9920752 19.9920752,20.998636 18.75,21 L18.75,21 Z" id="Shape" fill="#FFFFFF" fill-rule="nonzero"></path>
                <circle id="circle-bottom" fill="#FFFFFF" fill-rule="nonzero" cx="5.25" cy="15" r="1.5"></circle>
                <path d="M10.5,15 C8.84314575,15 7.5,13.6568542 7.5,12 C7.5,10.3431458 8.84314575,9 10.5,9 C12.1568542,9 13.5,10.3431458 13.5,12 C13.4951397,13.6548369 12.1548369,14.9951397 10.5,15 L10.5,15 Z M10.5,10.5 C9.67157288,10.5 9,11.1715729 9,12 C9,12.8284271 9.67157288,13.5 10.5,13.5 C11.3284271,13.5 12,12.8284271 12,12 C11.9975699,11.1725816 11.3274184,10.5024301 10.5,10.5 L10.5,10.5 Z" id="circle-center" fill="#FFFFFF" fill-rule="nonzero"></path>
                <circle id="circle-top" fill="#FFFFFF" fill-rule="nonzero" cx="15.75" cy="9" r="1.5"></circle>
                <path d="M9.765375,21.203625 L2.24999994,16.81935 L2.24999994,7.18065 L10.5,2.368275 L19.122075,7.39785 L19.877925,6.10215 L10.877925,0.85215 C10.6443921,0.715911998 10.3556079,0.715911998 10.122075,0.85215 L1.122075,6.10215 C0.891597647,6.23649897 0.749999945,6.48322398 0.749999945,6.75 L0.749999945,17.25 C0.749999945,17.5168527 0.891639535,17.7636521 1.122075,17.898225 L9.009525,22.5 L9.765375,21.203625 Z" id="Path" fill="#FFFFFF" fill-rule="nonzero"></path>
                <rect id="_Transparent_Rectangle_" x="0" y="0" width="24" height="24"></rect>
            </g>
        </g>
    </g>
</svg>