<?xml version="1.0" encoding="UTF-8"?>
<svg width="48px" height="49px" viewBox="0 0 48 49" version="1.1" xmlns="http://www.w3.org/2000/svg" xmlns:xlink="http://www.w3.org/1999/xlink">
    <title>Dedicated Host</title>
    <defs>
        <polygon id="path-1" points="0 0 19.9998333 0 19.9998333 8.57142857 0 8.57142857"></polygon>
        <polygon id="path-3" points="0.000166666667 10 20 10 20 15.7142857 0.000166666667 15.7142857"></polygon>
    </defs>
    <g id="V2-Icons" stroke="none" stroke-width="1" fill="none" fill-rule="evenodd">
        <g id="Dedicated-Host" transform="translate(0, 0.3421)">
            <rect id="_Transparent_Rectangle_" x="11.9957688" y="15.6579409" width="24" height="24"></rect>
            <g id="Sattelite-v2-Icon-Copy-5" fill="#198038">
                <polygon id="Fill-4" points="0 48 48 48 48 0 0 0"></polygon>
            </g>
            <g id="Icon-2" transform="translate(13.9958, 13.6579)">
                <g id="Group-13" transform="translate(0.0002, 0)">
                    <path d="M4.31216667,2.29664286 C4.77216667,2.29664286 5.1455,2.61664286 5.1455,3.01092857 C5.1455,3.40521429 4.77216667,3.72521429 4.31216667,3.72521429 C3.85216667,3.72521429 3.47883333,3.40521429 3.47883333,3.01092857 C3.47883333,2.61664286 3.85216667,2.29664286 4.31216667,2.29664286" id="Fill-1" fill="#FFFFFF"></path>
                    <g id="Group-5">
                        <mask id="mask-2" fill="white">
                            <use xlink:href="#path-1"></use>
                        </mask>
                        <g id="Clip-4"></g>
                        <path d="M18.3333333,0 L1.66666667,0 C0.745833333,0 0,0.639285714 0,1.42857143 L0,4.28571429 C0,5.07428571 0.745833333,5.71428571 1.66666667,5.71428571 L9.16666667,5.71428571 L9.16666667,8.57142857 L10.8333333,8.57142857 L10.8333333,5.71428571 L18.3333333,5.71428571 C19.2541667,5.71428571 20,5.07428571 20,4.28571429 L20,1.42857143 C20,0.639285714 19.2541667,0 18.3333333,0 L18.3333333,0 Z M1.66666667,4.28571429 L18.3333333,4.28571429 L18.3333333,1.42857143 L1.66666667,1.42857143 L1.66666667,4.28571429 Z" id="Fill-3" fill="#FFFFFF" mask="url(#mask-2)"></path>
                    </g>
                </g>
                <polygon id="Fill-6" fill="#FFFFFF" points="10.8333333 18.5714286 10.8333333 17.1428571 9.16666667 17.1428571 9.16666667 18.5714286 0 18.5714286 0 20 20 20 20 18.5714286"></polygon>
                <path d="M4.31233333,12.2966429 C4.77233333,12.2966429 5.14566667,12.6166429 5.14566667,13.0109286 C5.14566667,13.4052143 4.77233333,13.7252143 4.31233333,13.7252143 C3.85233333,13.7252143 3.479,13.4052143 3.479,13.0109286 C3.479,12.6166429 3.85233333,12.2966429 4.31233333,12.2966429" id="Fill-8" fill="#FFFFFF"></path>
                <mask id="mask-4" fill="white">
                    <use xlink:href="#path-3"></use>
                </mask>
                <g id="Clip-11"></g>
                <path d="M1.66683333,15.7142857 L18.3335,15.7142857 C19.2543333,15.7142857 20.0001667,15.0742857 20.0001667,14.2857143 L20.0001667,11.4285714 C20.0001667,10.6392857 19.2543333,10 18.3335,10 L1.66683333,10 C0.746,10 0.000166666667,10.6392857 0.000166666667,11.4285714 L0.000166666667,14.2857143 C0.000166666667,15.0742857 0.746,15.7142857 1.66683333,15.7142857 L1.66683333,15.7142857 Z M1.66683333,14.2857143 L18.3335,14.2857143 L18.3335,11.4285714 L1.66683333,11.4285714 L1.66683333,14.2857143 Z" id="Fill-10" fill="#FFFFFF" mask="url(#mask-4)"></path>
            </g>
        </g>
    </g>
</svg>