<?xml version="1.0" encoding="UTF-8"?>
<svg width="48px" height="48px" viewBox="0 0 48 48" version="1.1" xmlns="http://www.w3.org/2000/svg" xmlns:xlink="http://www.w3.org/1999/xlink">
    <title>instance--mx</title>
    <g id="V2-Icons" stroke="none" stroke-width="1" fill="none" fill-rule="evenodd">
        <g id="instance--mx">
            <g id="Sattelite-v2-Icon-Copy-18" fill="#198038">
                <polygon id="Fill-4" points="0 48 48 48 48 0 0 0"></polygon>
            </g>
            <g transform="translate(12, 12)">
                <polygon id="Path" fill="#FFFFFF" fill-rule="nonzero" points="16.5 3.75 15 3.75 13.5 6.67275 12 3.75 10.5 3.75 12.67875 7.5 10.5 11.25 12 11.25 13.5 8.40075 15 11.25 16.5 11.25 14.3235 7.5"></polygon>
                <polygon id="Path" fill="#FFFFFF" fill-rule="nonzero" points="7.5 1.5 6.36375 4.7805 6 6 5.65125 4.7805 4.5 1.5 3 1.5 3 11.25 4.5 11.25 4.5 5.5305 4.38075 4.0335 4.81575 5.5305 6 9 7.18425 5.5305 7.61925 4.0305 7.5 5.5305 7.5 11.25 9 11.25 9 1.5"></polygon>
                <circle id="Oval" fill="#FFFFFF" fill-rule="nonzero" cx="6.75" cy="20.25" r="1"></circle>
                <rect id="Rectangle" fill="#FFFFFF" fill-rule="nonzero" x="1.5" y="13.5" width="3" height="1.5"></rect>
                <rect id="Rectangle" fill="#FFFFFF" fill-rule="nonzero" x="6" y="13.5" width="3" height="1.5"></rect>
                <rect id="Rectangle" fill="#FFFFFF" fill-rule="nonzero" x="10.5" y="13.5" width="3" height="1.5"></rect>
                <rect id="Rectangle" fill="#FFFFFF" fill-rule="nonzero" x="15" y="13.5" width="3" height="1.5"></rect>
                <rect id="Rectangle" fill="#FFFFFF" fill-rule="nonzero" x="19.5" y="13.5" width="3" height="1.5"></rect>
                <path d="M19.5,23.25 L4.5,23.25 C3.67193272,23.2491319 3.0008681,22.5780673 3,21.75 L3,18.75 C3.0008681,17.9219327 3.67193272,17.2508681 4.5,17.25 L19.5,17.25 C20.3280673,17.2508681 20.9991319,17.9219327 21,18.75 L21,21.75 C20.9991319,22.5780673 20.3280673,23.2491319 19.5,23.25 Z M4.5,18.75 L4.5,21.75 L19.5,21.75 L19.5,18.75 L4.5,18.75 Z" id="Shape" fill="#FFFFFF" fill-rule="nonzero"></path>
                <rect id="_Transparent_Rectangle_" x="0" y="0" width="24" height="24"></rect>
            </g>
        </g>
    </g>
</svg>