<?xml version="1.0" encoding="UTF-8"?>
<svg width="48px" height="49px" viewBox="0 0 48 49" version="1.1" xmlns="http://www.w3.org/2000/svg" xmlns:xlink="http://www.w3.org/1999/xlink">
    <title>Instance Group</title>
    <g id="V2-Icons" stroke="none" stroke-width="1" fill="none" fill-rule="evenodd">
        <g id="Instance-Group" transform="translate(0, 0.3421)">
            <polygon id="Fill-4" fill="#198038" points="0 48 48 48 48 0 0 0"></polygon>
            <path d="M28.4957688,32.6579409 L20.9957688,32.6579409 L20.9957688,31.1579409 L28.4957688,31.1579409 L28.4957688,19.1579409 L16.4957688,19.1579409 L16.4957688,26.6579409 L14.9957688,26.6579409 L14.9957688,19.1579409 C14.9966369,18.3298736 15.6677015,17.658809 14.9957688,17.6579409 L28.4957688,17.6579409 C29.3238361,17.658809 29.9949007,18.3298736 29.9957688,19.1579409 L29.9957688,31.1579409 C29.9949007,31.9860082 29.3238361,32.6570728 28.4957688,32.6579409 Z" id="Path" fill="#FFFFFF" fill-rule="nonzero"></path>
            <path d="M32.9957688,28.1579409 L31.4957688,28.1579409 L31.4957688,26.6579409 L32.9957688,26.6579409 L32.9957688,14.6579409 L20.9957688,14.6579409 L20.9957688,16.1579409 L19.4957688,16.1579409 L19.4957688,14.6579409 C19.4966369,13.8298736 20.1677015,13.158809 20.9957688,13.1579409 L32.9957688,13.1579409 C33.8238361,13.158809 34.4949007,13.8298736 34.4957688,14.6579409 L34.4957688,26.6579409 C34.4949007,27.4860082 33.8238361,28.1570728 32.9957688,28.1579409 Z" id="Path" fill="#FFFFFF" fill-rule="nonzero"></path>
            <polygon id="Path" fill="#FFFFFF" fill-rule="nonzero" points="19.4957688 22.1579409 19.4957688 23.6579409 22.9352688 23.6579409 14.2457688 32.3474409 15.3062688 33.4079409 23.9957688 24.7184409 23.9957688 28.1579409 25.4957688 28.1579409 25.4957688 22.1579409"></polygon>
            <rect id="_Transparent_Rectangle_" x="11.9957688" y="11.6579409" width="24" height="24"></rect>
        </g>
    </g>
</svg>