<?xml version="1.0" encoding="UTF-8"?>
<svg width="49px" height="49px" viewBox="0 0 49 49" version="1.1" xmlns="http://www.w3.org/2000/svg" xmlns:xlink="http://www.w3.org/1999/xlink">
    <title>kubernetes</title>
    <g id="V2-Icons" stroke="none" stroke-width="1" fill="none" fill-rule="evenodd">
        <g id="kubernetes" transform="translate(0.5, 0.9362)">
            <polygon id="Rectangle" fill="#198038" points="0 48 48 48 48 0 0 0"></polygon>
            <g transform="translate(12.5, 12.0638)">
                <polygon id="Path" fill="#FFFFFF" fill-rule="nonzero" points="11.3505 12.89175 11.99925 13.20375 12.6465 12.8925 12.807 12.19425 12.35925 11.634 11.6385 11.634 11.18925 12.19275"></polygon>
                <path d="M10.66245,10.41 L10.66425,10.411425 C10.7813373,10.4967993 10.9359103,10.5107997 11.0664318,10.4478526 C11.1969533,10.3849055 11.2822349,10.2552295 11.288325,10.11045 L11.288325,10.1082 L11.29785,10.103475 L11.4315,7.7475 C11.268525,7.7676 11.109,7.795125 10.956525,7.82955 C10.1152226,8.01936632 9.34328645,8.43941672 8.727,9.04275 L10.6584,10.412025 L10.66245,10.41 Z" id="Path" fill="#FFFFFF" fill-rule="nonzero"></path>
                <path d="M9.626025,12.19665 L9.628275,12.1959 C9.76807767,12.1576877 9.87551073,12.0456456 9.90782027,11.904362 C9.9401298,11.7630784 9.8920732,11.6154781 9.782775,11.5203 L9.780975,11.5188 L9.78315,11.509275 L8.019525,9.93165 C7.48278727,10.8070237 7.25205508,11.8359004 7.363575,12.85665 L9.624225,12.20415 L9.626025,12.19665 Z" id="Path" fill="#FFFFFF" fill-rule="nonzero"></path>
                <path d="M10.398375,13.87575 C10.3519478,13.6700849 10.1512189,13.5379331 9.94395,13.576575 L9.9414,13.576575 L9.937725,13.57185 L7.619625,13.965525 C7.96798913,14.9269743 8.62332679,15.7469173 9.48435,16.298625 L10.38225,14.1285 L10.375725,14.119725 L10.3764,14.117475 C10.4093326,14.0413096 10.417033,13.9566055 10.398375,13.87575 L10.398375,13.87575 Z" id="Path" fill="#FFFFFF" fill-rule="nonzero"></path>
                <path d="M12.34665,14.732325 L12.345525,14.73045 C12.2739506,14.599299 12.1348775,14.5193609 11.985525,14.523525 C11.8457286,14.5290032 11.7192483,14.6079892 11.652975,14.7312 L11.65185,14.733375 L11.64975,14.733375 L10.50975,16.79445 C11.3266204,17.0707051 12.2040221,17.1154319 13.04475,16.923675 C13.2,16.888575 13.35225,16.845675 13.49805,16.797375 L12.3555,14.732325 L12.34665,14.732325 Z" id="Path" fill="#FFFFFF" fill-rule="nonzero"></path>
                <path d="M14.052825,13.5675 L14.050275,13.5675 C14.0204934,13.5617209 13.99013,13.5595053 13.959825,13.5609 C13.8313925,13.5681168 13.7145326,13.6374628 13.646661,13.7467351 C13.5787895,13.8560074 13.5684209,13.9914976 13.618875,14.109825 L13.619625,14.111625 L13.616625,14.115675 L14.524125,16.308225 C15.3912546,15.753887 16.0494142,14.9269198 16.395,13.9575 L14.0568,13.562325 L14.052825,13.5675 Z" id="Path" fill="#FFFFFF" fill-rule="nonzero"></path>
                <path d="M15.966975,9.932775 L14.21325,11.5023 L14.2143,11.5071 L14.2125,11.508525 C14.1033517,11.6038061 14.055361,11.7513399 14.0875656,11.892601 C14.1197701,12.0338621 14.2269642,12.1460171 14.366625,12.184575 L14.36925,12.18495 L14.37105,12.19485 L16.643025,12.84885 C16.7401372,11.8292136 16.502842,10.8056643 15.966975,9.932775 L15.966975,9.932775 Z" id="Path" fill="#FFFFFF" fill-rule="nonzero"></path>
                <path d="M12.703725,10.100475 L12.703725,10.10265 C12.7070671,10.1858171 12.7371286,10.2656917 12.78945,10.330425 C12.9206298,10.4954764 13.1587331,10.5274905 13.32885,10.40295 L13.330725,10.401525 L13.337325,10.40445 L15.256275,9.04395 C14.5260482,8.32964872 13.5818823,7.87429418 12.568275,7.747575 L12.70155,10.09935 L12.703725,10.100475 Z" id="Path" fill="#FFFFFF" fill-rule="nonzero"></path>
                <path d="M22.78545,14.2782 L20.9262,6.202875 C20.8278818,5.77831889 20.5412414,5.42181336 20.1477,5.234625 L12.6225,1.641375 C12.2274506,1.45279714 11.7683494,1.45279714 11.3733,1.641375 L3.84945,5.236425 C3.45598501,5.42372863 3.16936211,5.78017807 3.070875,6.204675 L1.21455,14.28 C1.12800443,14.6561477 1.1985887,15.051322 1.41,15.37425 C1.43525987,15.4134572 1.46249496,15.451356 1.4916,15.4878 L6.699525,21.96315 C6.97393354,22.3031603 7.38759627,22.5005601 7.824525,22.5000012 L16.1763,22.4982 C16.6130984,22.4988487 17.02671,22.3017214 17.3013,21.962025 L22.5075,15.485925 C22.7804328,15.1472649 22.8828851,14.7020978 22.78545,14.2782 Z M19.926825,14.1807 C19.8539326,14.4319994 19.5939918,14.5793724 19.340925,14.512875 L19.338,14.512875 L19.334325,14.512125 L19.32915,14.5107 L19.32555,14.5092 L19.28265,14.500425 C19.2567,14.495325 19.23015,14.489775 19.209075,14.4843 C19.1169039,14.4581274 19.0269076,14.424827 18.9399,14.3847 C18.8967,14.366025 18.852,14.346225 18.804375,14.3283 L18.79125,14.323575 C18.5420887,14.2234095 18.2837713,14.1477278 18.01995,14.0976 C17.9393194,14.0922036 17.8597843,14.1186166 17.7984,14.171175 L17.770575,14.190225 L17.76915,14.19135 L17.76765,14.19135 C17.734725,14.18475 17.63655,14.1672 17.578725,14.15805 C17.1429957,15.5269088 16.2198316,16.6881366 14.984475,17.4213 C14.99145,17.4378 14.999475,17.4588 15.0075,17.48175 C15.0206141,17.5223701 15.0374088,17.5617083 15.057675,17.599275 L15.059175,17.600775 L15.058425,17.60295 L15.045975,17.63445 C15.0087395,17.7058963 15.0006736,17.7890018 15.023475,17.866275 C15.1333684,18.1164293 15.2670319,18.3554515 15.422625,18.58005 C15.450825,18.622125 15.4794,18.66135 15.507225,18.699375 C15.5659014,18.7750676 15.6184432,18.8553223 15.66435,18.939375 C15.6768,18.962775 15.692175,18.995775 15.70575,19.02465 L15.722925,19.06095 C15.8119386,19.2099492 15.8086977,19.3965504 15.7145636,19.5423686 C15.6204296,19.6881868 15.4517095,19.7679617 15.279277,19.7481824 C15.1068445,19.7284031 14.9605706,19.6124961 14.9019,19.44915 L14.8851,19.415025 C14.87115,19.386525 14.856525,19.356825 14.84625,19.333425 C14.8089785,19.2444416 14.7786137,19.1527206 14.755425,19.059075 C14.742975,19.01445 14.73015,18.96795 14.71515,18.920325 L14.710725,18.907875 C14.6336947,18.6505928 14.5319193,18.4013786 14.406825,18.163725 C14.3602748,18.0970478 14.2896215,18.0510841 14.2098,18.03555 L14.178675,18.026025 L14.17755,18.026025 L14.176425,18.0246 C14.168925,18.011775 14.15115,17.978775 14.1318,17.943975 C14.114175,17.912475 14.0955,17.878425 14.082,17.853975 C13.8308322,17.9486349 13.5735125,18.0260889 13.311825,18.0858 C12.1852573,18.3425887 11.0077459,18.2581786 9.929325,17.843325 L9.827925,18.026475 L9.826425,18.027225 C9.75443301,18.038116 9.68742155,18.0705367 9.6342,18.120225 C9.51922337,18.2842691 9.43392952,18.4672193 9.3822,18.66075 C9.3522,18.74865 9.3222,18.839475 9.286275,18.928425 C9.2709,18.976425 9.258075,19.023675 9.246,19.069425 C9.22303952,19.1621818 9.19295006,19.2530268 9.156,19.34115 C9.146475,19.36365 9.132525,19.391325 9.119025,19.418025 L9.10065,19.455075 L9.10065,19.455075 L9.100275,19.456875 L9.09885,19.458375 C9.01834595,19.6337996 8.84537735,19.7484436 8.65245,19.7542535 C8.59014557,19.7545084 8.52859664,19.7406086 8.47245,19.7136 C8.24358865,19.5867392 8.15776497,19.3004383 8.2791,19.0686 C8.2857,19.055775 8.2923,19.040775 8.29965,19.0254 C8.312475,18.997575 8.3256,18.968625 8.33715,18.947025 C8.38344274,18.8625955 8.43609483,18.7818122 8.49465,18.705375 C8.522175,18.667875 8.550675,18.628425 8.5785,18.587025 C8.73739899,18.3566426 8.8737766,18.1115145 8.98575,17.855025 C8.99752971,17.7689289 8.98365052,17.6812709 8.94585,17.603025 L8.94585,17.6016 L8.94585,17.6001 L9.0264,17.407125 C7.79545607,16.6794588 6.87264645,15.5272804 6.4314,14.167125 L6.236925,14.200425 L6.2358,14.199675 L6.216,14.18835 C6.14618775,14.1398672 6.06400147,14.1122896 5.979075,14.10885 C5.7153074,14.1590998 5.45702664,14.2347781 5.20785,14.334825 L5.195025,14.339625 C5.148525,14.35755 5.1042,14.376225 5.061375,14.394525 C4.97376073,14.4347818 4.88316591,14.4682063 4.7904,14.4945 C4.7673,14.500725 4.7373,14.507325 4.70835,14.513175 L4.673925,14.520675 L4.67025,14.5221 L4.66515,14.5236 L4.661475,14.52435 L4.65855,14.52435 C4.49421569,14.5782996 4.31350416,14.5345969 4.19198232,14.4115165 C4.07046047,14.2884362 4.02906396,14.1071824 4.08510328,13.9435489 C4.1411426,13.7799154 4.28496335,13.6620927 4.456425,13.63935 L4.45935,13.6386 L4.463325,13.637475 L4.464825,13.637475 L4.467375,13.6368 L4.50255,13.628325 C4.53255,13.620825 4.5633,13.613325 4.587525,13.608975 C4.68186669,13.592508 4.77736655,13.5835549 4.873125,13.5822 C4.920375,13.5804 4.969425,13.57815 5.019975,13.574175 L5.030625,13.57305 C5.29993358,13.5546248 5.5668135,13.5100653 5.8275,13.44 C5.89742976,13.3971434 5.95667852,13.3389206 6.00075,13.26975 L6.01905,13.2459 L6.0198,13.24485 L6.02085,13.24485 L6.206175,13.191 C6.00266399,11.7709451 6.329651,10.3256978 7.124625,9.13155 L6.982125,9.00405 L6.982125,9.00255 L6.978825,8.9817 C6.97324381,8.89608178 6.94323322,8.81385848 6.89235,8.744775 C6.68520511,8.56684804 6.46125155,8.40948273 6.22365,8.2749 C6.179775,8.24925 6.136875,8.226225 6.095175,8.20425 C6.00981028,8.16131018 5.92789141,8.11183791 5.85015,8.056275 C5.83035,8.04165 5.8062,8.02185 5.7831,8.0028 L5.7564,7.9812 L5.7525,7.979025 L5.748825,7.9761 C5.64535797,7.89546725 5.57558362,7.77923014 5.553075,7.65 C5.53071727,7.52878381 5.56153171,7.40380504 5.637675,7.306875 C5.72596634,7.19870862 5.86057241,7.13916542 6,7.1466 C6.11538131,7.15170676 6.22611387,7.19354023 6.31605,7.266 L6.343125,7.287225 C6.368025,7.30665 6.395625,7.328625 6.416025,7.3458 C6.48795495,7.40959081 6.55492351,7.47876574 6.61635,7.552725 C6.64635,7.5879 6.678225,7.624125 6.71265,7.6608 L6.72015,7.6683 C6.9018293,7.86736658 7.10250578,8.04822409 7.319325,8.2083 C7.38991518,8.24830215 7.4733143,8.25922475 7.551825,8.23875 L7.584075,8.233575 L7.5855,8.233575 L7.586625,8.234325 C7.6134,8.254125 7.697925,8.314875 7.746675,8.347875 C8.53824461,7.50725941 9.56286887,6.92225231 10.68915,6.667875 C10.9563683,6.60770653 11.2274075,6.56598313 11.50035,6.543 L11.510925,6.354375 L11.511675,6.353325 C11.5811549,6.29186377 11.631613,6.21181783 11.6571,6.122625 C11.6668447,5.8518836 11.6502668,5.5808358 11.6076,5.3133 L11.606925,5.3067 C11.59995,5.2569 11.591175,5.2092 11.582325,5.16315 C11.5629005,5.0692066 11.5505409,4.97394002 11.54535,4.87815 C11.544675,4.85565 11.544975,4.827225 11.54535,4.799775 L11.545725,4.762275 L11.54535,4.7568 L11.54535,4.749825 C11.5272046,4.57626101 11.6095754,4.40753381 11.7575852,4.3150849 C11.905595,4.222636 12.093355,4.222636 12.2413648,4.3150849 C12.3893746,4.40753381 12.4717454,4.57626101 12.4536,4.749825 L12.454275,4.7952 C12.455025,4.82415 12.4554,4.854525 12.45465,4.8777 C12.4495335,4.97349684 12.4371732,5.06876899 12.417675,5.1627 C12.4089,5.208825 12.400125,5.25645 12.39315,5.30625 L12.390225,5.330025 C12.3485348,5.59201534 12.3324589,5.85744317 12.342225,6.12255 C12.3549675,6.20246854 12.398467,6.27423192 12.463425,6.3225 L12.488025,6.345 L12.48945,6.346125 L12.48945,6.34755 C12.490575,6.380175 12.495675,6.48525 12.499725,6.545325 C13.2078866,6.60872175 13.8985294,6.80084516 14.5377,7.11225 C15.1728469,7.42009832 15.7477229,7.83921526 16.2351,8.34975 L16.4046,8.22885 L16.4061,8.22885 L16.4295,8.23035 C16.513243,8.24398275 16.5991391,8.23331081 16.677,8.1996 C16.8904948,8.04156216 17.0881916,7.86323067 17.267325,7.6671 L17.28345,7.6506 C17.3175,7.61475 17.348625,7.5792 17.379,7.5444 C17.4411476,7.46982494 17.5088402,7.4000514 17.5815,7.335675 C17.601225,7.3185 17.628,7.298175 17.654025,7.277475 L17.681475,7.255875 C17.8059051,7.13341069 17.9892758,7.09262035 18.153887,7.15078816 C18.3184982,7.20895598 18.4355308,7.35589828 18.4553943,7.52935085 C18.4752577,7.70280342 18.3944745,7.87239922 18.247275,7.966275 L18.21465,7.99305 C18.191625,8.0121 18.1674,8.031825 18.14835,8.04615 C18.0706199,8.10158009 17.9887266,8.15092671 17.9034,8.19375 C17.86125,8.215725 17.817675,8.23875 17.77335,8.264775 C17.5357857,8.39971659 17.3117319,8.55716455 17.104275,8.73495 C17.0497359,8.79488086 17.020706,8.87371091 17.02335,8.9547 L17.0208,8.9877 L17.0208,8.989125 L17.01975,8.989875 C17.0076,9.000825 16.98165,9.0243 16.9512,9.051375 C16.92075,9.07845 16.8864,9.109275 16.86225,9.13125 C17.6600541,10.3207729 17.9936376,11.7616934 17.79975,13.1808 L17.97975,13.2333 L17.9805,13.23405 L17.993325,13.2531 C18.0355477,13.3273104 18.0979664,13.3880126 18.173325,13.42815 C18.4342171,13.4976199 18.7012047,13.5417494 18.970575,13.559925 L18.979725,13.560675 C19.030275,13.5651 19.079325,13.5669 19.12695,13.568775 C19.2224978,13.5702861 19.3177841,13.5792129 19.41195,13.595475 C19.43535,13.5999 19.465425,13.607175 19.49445,13.614525 L19.54275,13.626225 C19.8002674,13.6758874 19.970889,13.9222408 19.926825,14.180775 L19.926825,14.1807 Z" id="Shape" fill="#FFFFFF" fill-rule="nonzero"></path>
                <rect id="_Transparent_Rectangle_" x="0" y="0" width="24" height="24"></rect>
            </g>
        </g>
    </g>
</svg>