<?xml version="1.0" encoding="UTF-8"?>
<svg width="48px" height="48px" viewBox="0 0 48 48" version="1.1" xmlns="http://www.w3.org/2000/svg" xmlns:xlink="http://www.w3.org/1999/xlink">
    <title>Open Shift</title>
    <g id="V2-Icons" stroke="none" stroke-width="1" fill="none" fill-rule="evenodd">
        <g id="Open-Shift">
            <polygon id="Rectangle" fill="#198038" points="0 48 48 48 48 0 0 0"></polygon>
            <g id="logo--openshift(1)" transform="translate(10, 9)">
                <path d="M21.8613428,13.8304815 C21.7585435,12.5808494 21.4217311,11.3610238 20.8680819,10.2332119 L24,9.10823179 C23.7530114,8.60216929 23.463297,8.11762564 23.1339399,7.65975743 L21.6655716,8.18891473 C19.0291772,4.53330787 14.2510888,3.06704643 9.98611019,4.60481536 C5.7211316,6.14258428 3.01745805,10.3064492 3.37730604,14.7828813 L4.84954932,14.2485575 C4.89623808,14.806482 4.98947108,15.3596337 5.12829585,15.9023615 L2,17.0317582 C2.30950607,18.2468396 2.84442183,19.3944981 3.57754191,20.416365 L5.23393143,19.8194589 L5.23612164,19.8227088 C6.24117758,21.222537 7.59682947,22.3398626 9.17007834,23.0650681 C14.2295884,25.3912284 20.2377971,23.2276525 22.6016342,18.2283204 C23.3384979,16.6704322 23.6520692,14.9494248 23.5114144,13.2350754 L21.8613428,13.8304815 Z M19.4015668,16.7443466 C17.8685398,19.9924792 13.9666043,21.3996525 10.6800607,19.8896243 C9.96515895,19.5601047 9.31680651,19.1047011 8.76665824,18.5456481 L7.094853,19.1485541 C6.19678185,18.2329158 5.58936782,17.0772 5.34756971,15.8240296 L5.34832786,15.8233629 L8.48555303,14.6928829 C8.37403112,14.1262809 8.33913144,13.5475292 8.3817707,12.9718301 L6.90615786,13.5019874 C7.06496492,11.375768 8.27130014,9.46301926 10.1319882,8.38715467 C11.9926762,7.31129008 14.2693996,7.21010666 16.2201162,8.11658267 L16.2257603,8.11658267 C16.9385469,8.44761675 17.584861,8.90357286 18.1334344,9.46239219 L19.6027293,8.9340682 C20.0080253,9.34666254 20.3561644,9.81065099 20.6380254,10.3138771 L17.5127622,11.4467737 C18.1426818,12.5598461 18.4287155,13.8312548 18.3354393,15.1035423 L19.9936821,14.5076362 C19.9353547,15.2826163 19.7346731,16.0405816 19.4014826,16.7443466 L19.4015668,16.7443466 Z" id="Shape" fill="#FFFFFF" fill-rule="nonzero"></path>
                <rect id="_Transparent_Rectangle_" x="0" y="0" width="27" height="27"></rect>
            </g>
        </g>
    </g>
</svg>