<?xml version="1.0" encoding="UTF-8"?>
<svg width="48px" height="48px" viewBox="0 0 48 48" version="1.1" xmlns="http://www.w3.org/2000/svg" xmlns:xlink="http://www.w3.org/1999/xlink">
    <title>Process Gray</title>
    <g id="V2-Icons" stroke="none" stroke-width="1" fill="none" fill-rule="evenodd">
        <g id="IBM-/-Cloud-/-Compute" transform="translate(-1318, -49)">
            <g id="Process-Gray" transform="translate(1318, 49)">
                <polygon id="Fill-4" fill="#878D96" points="0 48 48 48 48 0 0 0"></polygon>
                <g id="Group-31" transform="translate(12, 12)" fill="#FFFFFF">
                    <g id="Group-7">
                        <path d="M18.7660802,15.356225 C19.412446,15.7268541 19.9638654,16.0426719 20.6074924,16.4106909 C21.6938982,13.9607108 21.6062554,11.5933827 20.5664098,9.24693504 C19.513783,6.87177673 17.6440694,5.25353699 15.1206865,4.23213191 C15.3032757,3.74840004 15.4265234,3.28206859 15.6629765,2.87315855 C15.7323604,2.75222558 16.1559673,2.70350438 16.3504249,2.7774562 C18.2210514,3.49348378 19.7109794,4.68715309 20.9288494,6.20186028 C22.5091591,8.16462847 23.3408529,10.4171138 23.3070739,12.8610038 C23.288815,14.2034467 22.8542527,15.5502398 22.5128108,16.8726723 C22.391389,17.3442239 22.4114738,17.59566 22.8670339,17.8201255 C23.2285606,17.9976099 23.5553953,18.2394758 24,18.5178827 C22.3786078,19.059906 20.8713338,19.5636484 19.2755041,20.0969715 C19.1038702,18.4978722 18.9422788,16.9988254 18.7660802,15.356225" id="Fill-1"></path>
                        <path d="M9.83052918,0 C11.204513,1.01270487 12.4534233,1.93318747 13.7680656,2.90152124 C12.4552491,3.89856572 11.205426,4.84601899 9.82961624,5.89004462 L9.82961624,3.93075651 C9.60959624,3.93075651 9.45804719,3.90552589 9.31927938,3.9342366 C5.18180778,4.81730828 1.99836483,8.60712134 1.99288715,12.6518506 L1.99288715,13.0259598 C1.9938001,14.2178891 1.99288715,14.2109289 0.758584061,14.3692728 C0.329499407,14.4249542 0.130477163,14.3022812 0.0738745064,13.8646604 C-0.116931223,12.3717038 0.0656579917,10.9065878 0.577820738,9.51020351 C1.98740947,5.66557911 4.75272313,3.15034735 8.92306079,2.14286261 C9.62511632,1.97320845 9.94556039,1.73395257 9.83783275,1.03706546 C9.7930984,0.7534385 9.83052918,0.458501258 9.83052918,0" id="Fill-3"></path>
                        <path d="M1.3233325,15.9760283 C2.92463991,16.6050537 4.38352774,17.1775278 5.94466552,17.7908928 C5.32294925,18.1458615 4.80896061,18.4399288 4.19911263,18.7888073 C5.87071689,20.6924141 7.9257585,21.7747206 10.4126236,22.0792281 C12.9022275,22.3846056 15.2074164,21.8364922 17.3327548,20.4261875 C17.7271475,20.93254 18.0831965,21.3910412 18.4757633,21.8930436 C16.9794447,22.9414193 15.365356,23.5869751 13.6042831,23.8462415 C10.1296103,24.3586841 6.98633699,23.5982854 4.26119296,21.4441125 C3.74263959,21.0352025 3.28251477,20.5558207 2.82512879,20.0833991 C2.56128738,19.8119525 2.33213791,19.7310405 1.98339251,19.9468058 C1.56617616,20.2043321 1.11883258,20.4183573 0.570151991,20.7132946 C0.826689838,19.0985349 1.0677076,17.5846978 1.3233325,15.9760283" id="Fill-5"></path>
                    </g>
                    <path d="M18.0404329,13.4869761 L18.0404329,11.7726904 L16.23949,11.7726904 C16.1289659,11.2361718 15.9159583,10.7260188 15.6121472,10.2702047 L16.88929,8.99306179 L15.67729,7.78106179 L14.4001472,9.05820465 C13.9443138,8.7543532 13.4341303,8.54131594 12.8975758,8.43077608 L12.8975758,6.62983322 L11.18329,6.62983322 L11.18329,8.43077608 C10.6467715,8.5413002 10.1366184,8.75430781 9.68080433,9.05811894 L8.40366148,7.78097608 L7.19166148,8.99297608 L8.46880433,10.2701189 C8.16495288,10.7259524 7.95191562,11.2361358 7.84137576,11.7726904 L6.04043291,11.7726904 L6.04043291,13.4869761 L7.84137576,13.4869761 C7.95189988,14.0234946 8.16490749,14.5336477 8.46871862,14.9894618 L7.19157576,16.2666047 L8.40357576,17.4786047 L9.68071862,16.2014618 C10.136552,16.5053132 10.6467355,16.7183505 11.18329,16.8288904 L11.18329,18.6298332 L12.8975758,18.6298332 L12.8975758,16.8288904 C13.4340943,16.7183662 13.9442474,16.5053586 14.4000615,16.2015475 L15.6772043,17.4786904 L16.8892043,16.2666904 L15.6120615,14.9895475 C15.9159129,14.5337141 16.1289502,14.0235306 16.23949,13.4869761 L18.0404329,13.4869761 Z M12.0404329,15.2012618 C10.6202721,15.2012618 9.46900433,14.049994 9.46900433,12.6298332 C9.46900433,11.2096724 10.6202721,10.0584047 12.0404329,10.0584047 C13.4605937,10.0584047 14.6118615,11.2096724 14.6118615,12.6298332 C14.6103026,14.0493478 13.4599475,15.1997029 12.0404329,15.2012618 L12.0404329,15.2012618 Z" id="Shape" fill-rule="nonzero"></path>
                </g>
            </g>
        </g>
    </g>
</svg>