<?xml version="1.0" encoding="UTF-8"?>
<svg width="48px" height="49px" viewBox="0 0 48 49" version="1.1" xmlns="http://www.w3.org/2000/svg" xmlns:xlink="http://www.w3.org/1999/xlink">
    <title>Sattelite</title>
    <g id="V2-Icons" stroke="none" stroke-width="1" fill="none" fill-rule="evenodd">
        <g id="Sattelite" transform="translate(0, 0.3421)">
            <polygon id="Fill-4" fill="#198038" points="0 48 48 48 48 0 0 0"></polygon>
            <path d="M17.5342304,26.0655651 C18.5542304,26.0655651 19.3803842,26.781571 19.3803842,27.6655784 C19.3803842,28.5495858 18.5542304,29.2655917 17.5342304,29.2655917 C16.5142304,29.2655917 15.6880765,28.5495858 15.6880765,27.6655784 C15.6880765,26.781571 16.5142304,26.0655651 17.5342304,26.0655651" id="Fill-1" fill="#FFFFFF"></path>
            <path d="M23.9957688,22.8655384 C22.9757688,22.8655384 22.149615,23.5815444 22.149615,24.4655517 C22.149615,25.3495591 22.9757688,26.0655651 23.9957688,26.0655651 C25.0157688,26.0655651 25.8419227,25.3495591 25.8419227,24.4655517 C25.8391534,23.5831444 25.0139227,22.8679384 23.9957688,22.8655384" id="Path" fill="#FFFFFF"></path>
            <path d="M23.9957688,27.6655784 C21.9566919,27.6655784 20.3034611,26.2327665 20.3034611,24.4655517 C20.3034611,22.698337 21.9566919,21.2655251 23.9957688,21.2655251 C26.0348457,21.2655251 27.6880765,22.698337 27.6880765,24.4655517 C27.682538,26.2303664 26.0320765,27.6607784 23.9957688,27.6655784" id="Path" fill="#FFFFFF"></path>
            <path d="M30.4573073,19.6655117 C31.4773073,19.6655117 32.3034611,20.3815177 32.3034611,21.2655251 C32.3034611,22.1495324 31.4773073,22.8655384 30.4573073,22.8655384 C29.4373073,22.8655384 28.6111534,22.1495324 28.6111534,21.2655251 C28.6111534,20.3815177 29.4373073,19.6655117 30.4573073,19.6655117" id="Fill-5" fill="#FFFFFF"></path>
            <path d="M23.9957688,36.4656517 C23.8323842,36.4656517 23.6717688,36.4280514 23.530538,36.3568508 L12.453615,30.7568042 C12.1702304,30.613603 11.9957688,30.3504008 11.9957688,30.0655984 L11.9957688,18.8655051 C11.9957688,18.5807027 12.1702304,18.3175005 12.453615,18.1742993 L23.530538,12.5742526 C23.817615,12.4294514 24.1739227,12.4294514 24.4609996,12.5742526 L35.5379227,18.1742993 L34.6074611,19.5567108 L23.9957688,14.1918661 L13.8419227,19.3247089 L13.8419227,29.6063946 L23.9957688,34.7400373 L34.149615,29.6063946 L34.149615,23.6655451 L35.9957688,23.6655451 L35.9957688,30.0655984 C35.9957688,30.3504008 35.8213073,30.613603 35.5379227,30.7568042 L24.4609996,36.3568508 C24.3197688,36.4280514 24.1591534,36.4656517 23.9957688,36.4656517" id="Fill-7" fill="#FFFFFF"></path>
        </g>
    </g>
</svg>