<?xml version="1.0" encoding="UTF-8"?>
<svg width="48px" height="48px" viewBox="0 0 48 48" version="1.1" xmlns="http://www.w3.org/2000/svg" xmlns:xlink="http://www.w3.org/1999/xlink">
    <title>Virtual Desktop</title>
    <g id="V2-Icons" stroke="none" stroke-width="1" fill="none" fill-rule="evenodd">
        <g id="IBM-/-Cloud-/-Compute" transform="translate(-1070, -49)">
            <g id="Virtual-Desktop" transform="translate(1070, 49)">
                <g id="Sattelite-v2-Icon-Copy-9" fill="#198038">
                    <polygon id="Fill-4" points="0 48 48 48 48 0 0 0"></polygon>
                </g>
                <g id="virtual-desktop" transform="translate(12, 12)">
                    <path d="M15.75,12 L8.25,12 C7.42196695,12.0009506 6.7509506,12.6719669 6.75,13.5 L6.75,18 C6.7509506,18.8280331 7.42196695,19.4990494 8.25,19.5 L11.25,19.5 L11.25,21 L9,21 L9,22.5 L15,22.5 L15,21 L12.75,21 L12.75,19.5 L15.75,19.5 C16.5780331,19.4990494 17.2490494,18.8280331 17.25,18 L17.25,13.5 C17.2490494,12.6719669 16.5780331,12.0009506 15.75,12 Z M8.25,18 L8.25,13.5 L15.75,13.5 L15.751125,18 L8.25,18 Z" id="Shape" fill="#FFFFFF" fill-rule="nonzero"></path>
                    <path d="M19.36635,7.593 C18.6913299,4.05735863 15.5995016,1.49997407 12,1.49997407 C8.40049836,1.49997407 5.30867011,4.05735863 4.63365,7.593 C1.8368249,8.09108991 -0.148168217,10.5984662 0.00879709208,13.4349581 C0.165762401,16.2714499 2.41529377,18.5444968 5.25,18.73095 L5.25,17.23095 C3.10883741,17.0373899 1.47625819,15.2302997 1.50039712,13.0805415 C1.52453605,10.9307834 3.19728097,9.16080757 5.34225,9.015375 L5.969625,8.972925 L6.037125,8.347425 C6.36918613,5.30450084 8.93916127,2.99971909 12.00015,2.99971909 C15.0611387,2.99971909 17.6311139,5.30450084 17.963175,8.347425 L18.030675,8.972925 L18.65805,9.015375 C20.8030048,9.16089643 22.4756728,10.9309295 22.4997332,13.0806803 C22.5237935,15.2304312 20.8911605,17.0374577 18.75,17.23095 L18.75,18.73095 C21.5847062,18.5444968 23.8342376,16.2714499 23.9912029,13.4349581 C24.1481682,10.5984662 22.1631751,8.09108991 19.36635,7.593 Z" id="Path" fill="#FFFFFF" fill-rule="nonzero"></path>
                    <rect id="_Transparent_Rectangle_" x="0" y="0" width="24" height="24"></rect>
                </g>
            </g>
        </g>
    </g>
</svg>