<?xml version="1.0" encoding="UTF-8"?>
<svg width="48px" height="48px" viewBox="0 0 48 48" version="1.1" xmlns="http://www.w3.org/2000/svg" xmlns:xlink="http://www.w3.org/1999/xlink">
    <title>Virtual Server Classic</title>
    <g id="V2-Icons" stroke="none" stroke-width="1" fill="none" fill-rule="evenodd">
        <g id="Virtual-Server-Classic">
            <g id="Kubernetes" fill="#198038">
                <polygon id="Fill-4" points="0 48 48 48 48 0 0 0"></polygon>
            </g>
            <g id="Group" transform="translate(12, 12)">
                <circle id="Oval" fill="#FFFFFF" fill-rule="nonzero" cx="6.75" cy="19.5" r="1"></circle>
                <path d="M17.8125,6.0375 C17.1525,3.4125 14.7525,1.5 12,1.5 C9.2475,1.5 6.8475,3.4125 6.1875,6.0375 C3.9675,6.315 2.25,8.2125 2.25,10.5 C2.25,12.9825 4.2675,15 6.75,15 L8.25,15 L8.25,13.5 L6.75,13.5 C5.0925,13.5 3.75,12.1575 3.75,10.5 C3.75,8.8575 5.0775,7.5225 6.7125,7.5 L7.455,7.515 L7.545,6.855 C7.8675,4.6575 9.78,3 12,3 C14.22,3 16.1325,4.6575 16.4475,6.8625 L16.5375,7.5225 L17.1975,7.5075 L17.295,7.5 C18.93,7.5225 20.25,8.8575 20.25,10.5 C20.25,12.1575 18.9075,13.5 17.25,13.5 L15.75,13.5 L15.75,15 L17.25,15 C19.7325,15 21.75,12.9825 21.75,10.5 C21.75,8.2125 20.0325,6.315 17.8125,6.0375 Z" id="Path" fill="#FFFFFF" fill-rule="nonzero"></path>
                <path d="M19.5,16.5 L15.75,16.5 L15.75,18 L19.5,18 L19.5,21 L4.5,21 L4.5,18 L11.25,18 C12.075,18 12.75,17.325 12.75,16.5 L12.75,16.5 L12.75,9.6225 L14.6925,11.565 L15.75,10.5 L12,6.75 L8.25,10.5 L9.3075,11.5575 L11.25,9.6225 L11.25,16.5 L4.5,16.5 C3.675,16.5 3,17.175 3,18 L3,21 C3,21.825 3.675,22.5 4.5,22.5 L19.5,22.5 C20.325,22.5 21,21.825 21,21 L21,18 C21,17.175 20.325,16.5 19.5,16.5 Z" id="Path" fill="#FFFFFF" fill-rule="nonzero"></path>
                <g id="_Transparent_Rectangle_">
                    <rect id="Rectangle" x="0" y="0" width="24" height="24"></rect>
                </g>
            </g>
        </g>
    </g>
</svg>